M48
; DRILL file {KiCad 8.0.6+1} date 2024-11-30T18:40:42-0800
; FORMAT={-:-/ absolute / metric / decimal}
; #@! TF.CreationDate,2024-11-30T18:40:42-08:00
; #@! TF.GenerationSoftware,Kicad,Pcbnew,8.0.6+1
; #@! TF.FileFunction,MixedPlating,1,4
FMAT,2
METRIC
; #@! TA.AperFunction,Plated,PTH,ViaDrill
T1C0.300
; #@! TA.AperFunction,Plated,PTH,ComponentDrill
T2C0.800
; #@! TA.AperFunction,Plated,PTH,ComponentDrill
T3C1.000
; #@! TA.AperFunction,NonPlated,NPTH,ComponentDrill
T4C3.200
%
G90
G05
T1
X127.811Y-69.622
X128.206Y-74.937
X128.665Y-99.42
X128.684Y-85.787
X128.69Y-95.089
X129.019Y-79.399
X129.28Y-65.132
X129.525Y-60.549
X129.765Y-90.168
X131.5Y-82.4
X133.4Y-80.6
X133.577Y-54.644
X133.65Y-99.616
X133.982Y-95.655
X134.405Y-104.273
X136.8Y-58.7
X138.001Y-85.316
X138.112Y-104.43
X138.242Y-79.657
X139.268Y-54.792
X139.419Y-65.8
X140.8Y-83.1
X141.4Y-60.4
X142.831Y-105.437
X143.0Y-62.6
X143.0Y-64.7
X143.0Y-85.2
X143.0Y-87.4
X143.695Y-55.69
X143.969Y-79.129
X147.8Y-90.9
X148.741Y-104.712
X148.9Y-66.8
X153.698Y-104.82
X154.2Y-75.2
X162.801Y-79.136
X162.876Y-95.944
X163.364Y-89.708
X163.808Y-85.078
X163.981Y-69.475
X164.028Y-64.83
X164.185Y-104.982
X164.33Y-74.511
X164.779Y-55.344
X167.877Y-79.063
X167.887Y-94.394
X168.06Y-89.146
X168.561Y-54.913
X168.617Y-75.852
X168.749Y-69.342
X169.165Y-105.878
X169.369Y-85.891
X169.508Y-64.037
X172.983Y-105.54
X173.017Y-80.526
X173.231Y-65.895
X173.364Y-55.43
X173.392Y-70.367
X173.575Y-95.118
X174.009Y-89.531
X174.239Y-76.048
X174.314Y-84.864
X179.093Y-80.314
X179.22Y-55.392
X179.675Y-90.511
X180.4Y-58.9
X180.4Y-63.7
X182.6Y-74.7
X182.962Y-79.713
X183.1Y-76.7
X183.25Y-56.85
X184.75Y-66.85
X184.9Y-56.9
X185.0Y-55.6
X185.5Y-62.35
X186.05Y-76.35
X187.25Y-55.6
X187.3Y-56.9
X187.4Y-94.9
X190.95Y-77.25
X192.774Y-80.63
X192.8Y-105.475
X193.5Y-96.6
X193.5Y-98.575
X193.819Y-55.619
X194.486Y-60.588
X194.9Y-100.1
X198.559Y-105.513
X198.957Y-54.201
X198.961Y-79.171
X199.234Y-59.62
X199.3Y-75.0
X199.4Y-68.6
X203.785Y-89.347
X204.605Y-85.393
X204.695Y-95.366
X204.714Y-80.599
X207.78Y-95.768
X208.301Y-79.958
X208.346Y-99.859
X208.735Y-85.759
X209.351Y-90.07
T2
X142.25Y-70.27
X142.25Y-72.81
X142.25Y-75.35
X142.25Y-77.89
X142.25Y-92.96
X142.25Y-95.5
X142.25Y-98.04
X142.25Y-100.58
X149.87Y-70.27
X149.87Y-72.81
X149.87Y-75.35
X149.87Y-77.89
X149.87Y-92.96
X149.87Y-95.5
X149.87Y-98.04
X149.87Y-100.58
X186.63Y-83.67
X186.63Y-86.21
X186.63Y-88.75
X186.63Y-91.29
X194.25Y-83.67
X194.25Y-86.21
X194.25Y-88.75
X194.25Y-91.29
T3
X134.45Y-63.535
X134.45Y-66.075
X134.45Y-68.615
X134.45Y-86.225
X134.45Y-88.765
X134.45Y-91.305
X136.46Y-72.73
X136.46Y-75.27
X136.46Y-77.81
X136.46Y-95.42
X136.46Y-97.96
X136.46Y-100.5
X136.99Y-63.535
X136.99Y-66.075
X136.99Y-68.615
X136.99Y-86.225
X136.99Y-88.765
X136.99Y-91.305
X139.0Y-72.73
X139.0Y-75.27
X139.0Y-77.81
X139.0Y-95.42
X139.0Y-97.96
X139.0Y-100.5
X159.22Y-55.24
X159.22Y-57.78
X159.22Y-60.32
X159.22Y-62.86
X159.22Y-65.4
X159.22Y-67.94
X159.22Y-70.48
X159.22Y-73.02
X159.22Y-75.56
X159.22Y-78.1
X159.22Y-80.64
X159.22Y-83.18
X159.22Y-85.72
X159.22Y-88.26
X159.22Y-90.8
X159.22Y-93.34
X159.22Y-95.88
X159.22Y-98.42
X159.22Y-100.96
X159.22Y-103.5
X177.0Y-55.24
X177.0Y-57.78
X177.0Y-60.32
X177.0Y-62.86
X177.0Y-65.4
X177.0Y-67.94
X177.0Y-70.48
X177.0Y-73.02
X177.0Y-75.56
X177.0Y-78.1
X177.0Y-80.64
X177.0Y-83.18
X177.0Y-85.72
X177.0Y-88.26
X177.0Y-90.8
X177.0Y-93.34
X177.0Y-95.88
X177.0Y-98.42
X177.0Y-100.96
X177.0Y-103.5
X191.71Y-62.46
X191.71Y-65.0
X194.25Y-62.46
X194.25Y-65.0
X196.79Y-62.46
X196.79Y-65.0
X197.5Y-83.75
X197.5Y-86.29
X197.5Y-88.83
X199.51Y-92.945
X199.51Y-95.485
X199.51Y-98.025
X200.04Y-83.75
X200.04Y-86.29
X200.04Y-88.83
X201.85Y-107.5
X202.05Y-92.945
X202.05Y-95.485
X202.05Y-98.025
X204.09Y-61.99
X204.09Y-64.53
X204.09Y-68.2
X204.09Y-70.74
X204.12Y-74.4
X204.12Y-76.94
X206.63Y-61.99
X206.63Y-64.53
X206.63Y-68.2
X206.63Y-70.74
X206.66Y-74.4
X206.66Y-76.94
X209.17Y-61.99
X209.17Y-64.53
X209.17Y-68.2
X209.17Y-70.74
X209.2Y-74.4
X209.2Y-76.94
T4
X129.5Y-55.5
X129.5Y-106.0
X207.5Y-55.5
X207.5Y-106.0
M30
