%TF.GenerationSoftware,KiCad,Pcbnew,8.0.8+1*%
%TF.CreationDate,2025-01-27T11:53:33-08:00*%
%TF.ProjectId,pico-logic-analyzer,7069636f-2d6c-46f6-9769-632d616e616c,rev?*%
%TF.SameCoordinates,Original*%
%TF.FileFunction,Soldermask,Top*%
%TF.FilePolarity,Negative*%
%FSLAX46Y46*%
G04 Gerber Fmt 4.6, Leading zero omitted, Abs format (unit mm)*
G04 Created by KiCad (PCBNEW 8.0.8+1) date 2025-01-27 11:53:33*
%MOMM*%
%LPD*%
G01*
G04 APERTURE LIST*
G04 Aperture macros list*
%AMRoundRect*
0 Rectangle with rounded corners*
0 $1 Rounding radius*
0 $2 $3 $4 $5 $6 $7 $8 $9 X,Y pos of 4 corners*
0 Add a 4 corners polygon primitive as box body*
4,1,4,$2,$3,$4,$5,$6,$7,$8,$9,$2,$3,0*
0 Add four circle primitives for the rounded corners*
1,1,$1+$1,$2,$3*
1,1,$1+$1,$4,$5*
1,1,$1+$1,$6,$7*
1,1,$1+$1,$8,$9*
0 Add four rect primitives between the rounded corners*
20,1,$1+$1,$2,$3,$4,$5,0*
20,1,$1+$1,$4,$5,$6,$7,0*
20,1,$1+$1,$6,$7,$8,$9,0*
20,1,$1+$1,$8,$9,$2,$3,0*%
%AMFreePoly0*
4,1,28,0.605014,0.794986,0.644504,0.794986,0.724698,0.756366,0.780194,0.686777,0.800000,0.600000,0.800000,-0.600000,0.780194,-0.686777,0.724698,-0.756366,0.644504,-0.794986,0.605014,-0.794986,0.600000,-0.800000,0.000000,-0.800000,-0.178017,-0.779942,-0.347107,-0.720775,-0.498792,-0.625465,-0.625465,-0.498792,-0.720775,-0.347107,-0.779942,-0.178017,-0.800000,0.000000,-0.779942,0.178017,
-0.720775,0.347107,-0.625465,0.498792,-0.498792,0.625465,-0.347107,0.720775,-0.178017,0.779942,0.000000,0.800000,0.600000,0.800000,0.605014,0.794986,0.605014,0.794986,$1*%
%AMFreePoly1*
4,1,28,0.178017,0.779942,0.347107,0.720775,0.498792,0.625465,0.625465,0.498792,0.720775,0.347107,0.779942,0.178017,0.800000,0.000000,0.779942,-0.178017,0.720775,-0.347107,0.625465,-0.498792,0.498792,-0.625465,0.347107,-0.720775,0.178017,-0.779942,0.000000,-0.800000,-0.600000,-0.800000,-0.605014,-0.794986,-0.644504,-0.794986,-0.724698,-0.756366,-0.780194,-0.686777,-0.800000,-0.600000,
-0.800000,0.600000,-0.780194,0.686777,-0.724698,0.756366,-0.644504,0.794986,-0.605014,0.794986,-0.600000,0.800000,0.000000,0.800000,0.178017,0.779942,0.178017,0.779942,$1*%
G04 Aperture macros list end*
%ADD10C,0.300000*%
%ADD11R,0.400000X0.500000*%
%ADD12R,0.300000X0.500000*%
%ADD13R,1.000000X1.250000*%
%ADD14RoundRect,0.225000X0.375000X-0.225000X0.375000X0.225000X-0.375000X0.225000X-0.375000X-0.225000X0*%
%ADD15RoundRect,0.135000X-0.185000X0.135000X-0.185000X-0.135000X0.185000X-0.135000X0.185000X0.135000X0*%
%ADD16RoundRect,0.100000X0.100000X-0.637500X0.100000X0.637500X-0.100000X0.637500X-0.100000X-0.637500X0*%
%ADD17R,1.700000X1.700000*%
%ADD18O,1.700000X1.700000*%
%ADD19RoundRect,0.150000X0.587500X0.150000X-0.587500X0.150000X-0.587500X-0.150000X0.587500X-0.150000X0*%
%ADD20RoundRect,0.140000X-0.170000X0.140000X-0.170000X-0.140000X0.170000X-0.140000X0.170000X0.140000X0*%
%ADD21RoundRect,0.135000X0.185000X-0.135000X0.185000X0.135000X-0.185000X0.135000X-0.185000X-0.135000X0*%
%ADD22C,3.200000*%
%ADD23RoundRect,0.135000X0.135000X0.185000X-0.135000X0.185000X-0.135000X-0.185000X0.135000X-0.185000X0*%
%ADD24RoundRect,0.225000X0.225000X0.250000X-0.225000X0.250000X-0.225000X-0.250000X0.225000X-0.250000X0*%
%ADD25RoundRect,0.150000X-0.150000X0.587500X-0.150000X-0.587500X0.150000X-0.587500X0.150000X0.587500X0*%
%ADD26RoundRect,0.225000X0.250000X-0.225000X0.250000X0.225000X-0.250000X0.225000X-0.250000X-0.225000X0*%
%ADD27RoundRect,0.250000X-0.300000X0.300000X-0.300000X-0.300000X0.300000X-0.300000X0.300000X0.300000X0*%
%ADD28RoundRect,0.100000X-0.100000X0.637500X-0.100000X-0.637500X0.100000X-0.637500X0.100000X0.637500X0*%
%ADD29R,0.500000X0.400000*%
%ADD30R,0.500000X0.300000*%
%ADD31R,1.600000X1.600000*%
%ADD32O,1.600000X1.600000*%
%ADD33RoundRect,0.150000X-0.587500X-0.150000X0.587500X-0.150000X0.587500X0.150000X-0.587500X0.150000X0*%
%ADD34RoundRect,0.140000X0.170000X-0.140000X0.170000X0.140000X-0.170000X0.140000X-0.170000X-0.140000X0*%
%ADD35C,1.000000*%
%ADD36RoundRect,0.200000X-0.600000X-0.600000X0.600000X-0.600000X0.600000X0.600000X-0.600000X0.600000X0*%
%ADD37C,1.600000*%
%ADD38FreePoly0,0.000000*%
%ADD39FreePoly1,0.000000*%
%ADD40RoundRect,0.150000X0.150000X-0.512500X0.150000X0.512500X-0.150000X0.512500X-0.150000X-0.512500X0*%
G04 APERTURE END LIST*
D10*
X197733082Y-108622257D02*
X198447368Y-108622257D01*
X197590225Y-109050828D02*
X198090225Y-107550828D01*
X198090225Y-107550828D02*
X198590225Y-109050828D01*
X196983082Y-107672257D02*
X197697368Y-107672257D01*
X196840225Y-108100828D02*
X197340225Y-106600828D01*
X197340225Y-106600828D02*
X197840225Y-108100828D01*
D11*
%TO.C,RN3*%
X186500000Y-94500000D03*
D12*
X186000000Y-94500000D03*
X185500000Y-94500000D03*
D11*
X185000000Y-94500000D03*
X185000000Y-95500000D03*
D12*
X185500000Y-95500000D03*
X186000000Y-95500000D03*
D11*
X186500000Y-95500000D03*
%TD*%
D13*
%TO.C,SW1*%
X181750000Y-81125000D03*
X181750000Y-73375000D03*
%TD*%
D11*
%TO.C,RN2*%
X149750000Y-67000000D03*
D12*
X150250000Y-67000000D03*
X150750000Y-67000000D03*
D11*
X151250000Y-67000000D03*
X151250000Y-66000000D03*
D12*
X150750000Y-66000000D03*
X150250000Y-66000000D03*
D11*
X149750000Y-66000000D03*
%TD*%
D14*
%TO.C,D1*%
X187250000Y-57900000D03*
X187250000Y-54600000D03*
%TD*%
D15*
%TO.C,R16*%
X199400000Y-64290000D03*
X199400000Y-65310000D03*
%TD*%
D16*
%TO.C,U4*%
X144350000Y-66535000D03*
X145000000Y-66535000D03*
X145650000Y-66535000D03*
X146300000Y-66535000D03*
X146950000Y-66535000D03*
X147600000Y-66535000D03*
X148250000Y-66535000D03*
X148250000Y-60810000D03*
X147600000Y-60810000D03*
X146950000Y-60810000D03*
X146300000Y-60810000D03*
X145650000Y-60810000D03*
X145000000Y-60810000D03*
X144350000Y-60810000D03*
%TD*%
D17*
%TO.C,J11*%
X201850000Y-107500000D03*
%TD*%
D11*
%TO.C,RN4*%
X134250000Y-104250000D03*
D12*
X134750000Y-104250000D03*
X135250000Y-104250000D03*
D11*
X135750000Y-104250000D03*
X135750000Y-103250000D03*
D12*
X135250000Y-103250000D03*
X134750000Y-103250000D03*
D11*
X134250000Y-103250000D03*
%TD*%
D17*
%TO.C,J5*%
X139000000Y-72730000D03*
D18*
X136460000Y-72730000D03*
X139000000Y-75270000D03*
X136460000Y-75270000D03*
X139000000Y-77810000D03*
X136460000Y-77810000D03*
%TD*%
D19*
%TO.C,U2*%
X182750000Y-57900000D03*
X182750000Y-56000000D03*
X180875000Y-56950000D03*
%TD*%
D17*
%TO.C,J1*%
X196790000Y-65000000D03*
D18*
X196790000Y-62460000D03*
X194250000Y-65000000D03*
X194250000Y-62460000D03*
X191710000Y-65000000D03*
X191710000Y-62460000D03*
%TD*%
D20*
%TO.C,C6*%
X143000000Y-65560000D03*
X143000000Y-66520000D03*
%TD*%
D16*
%TO.C,U3*%
X144350000Y-89225000D03*
X145000000Y-89225000D03*
X145650000Y-89225000D03*
X146300000Y-89225000D03*
X146950000Y-89225000D03*
X147600000Y-89225000D03*
X148250000Y-89225000D03*
X148250000Y-83500000D03*
X147600000Y-83500000D03*
X146950000Y-83500000D03*
X146300000Y-83500000D03*
X145650000Y-83500000D03*
X145000000Y-83500000D03*
X144350000Y-83500000D03*
%TD*%
D17*
%TO.C,J3*%
X139000000Y-95420000D03*
D18*
X136460000Y-95420000D03*
X139000000Y-97960000D03*
X136460000Y-97960000D03*
X139000000Y-100500000D03*
X136460000Y-100500000D03*
%TD*%
D21*
%TO.C,R3*%
X183000000Y-60260000D03*
X183000000Y-59240000D03*
%TD*%
D22*
%TO.C,H4*%
X129500000Y-106000000D03*
%TD*%
%TO.C,H2*%
X207500000Y-106000000D03*
%TD*%
D23*
%TO.C,R21*%
X201320000Y-70410000D03*
X200300000Y-70410000D03*
%TD*%
D24*
%TO.C,C3*%
X185775000Y-61600000D03*
X184225000Y-61600000D03*
%TD*%
D23*
%TO.C,R18*%
X201410000Y-65250000D03*
X200390000Y-65250000D03*
%TD*%
D25*
%TO.C,D6*%
X197450000Y-78062500D03*
X195550000Y-78062500D03*
X196500000Y-79937500D03*
%TD*%
D26*
%TO.C,C2*%
X182000000Y-64875000D03*
X182000000Y-63325000D03*
%TD*%
D15*
%TO.C,R19*%
X199400000Y-69400000D03*
X199400000Y-70420000D03*
%TD*%
D23*
%TO.C,R23*%
X201510000Y-74500000D03*
X200490000Y-74500000D03*
%TD*%
D17*
%TO.C,J4*%
X134450000Y-63535000D03*
D18*
X136990000Y-63535000D03*
X134450000Y-66075000D03*
X136990000Y-66075000D03*
X134450000Y-68615000D03*
X136990000Y-68615000D03*
%TD*%
D27*
%TO.C,D2*%
X188500000Y-63350000D03*
X188500000Y-66150000D03*
%TD*%
D15*
%TO.C,R22*%
X199500000Y-74490000D03*
X199500000Y-75510000D03*
%TD*%
D23*
%TO.C,R17*%
X201410000Y-64300000D03*
X200390000Y-64300000D03*
%TD*%
D28*
%TO.C,U5*%
X192150000Y-95025000D03*
X191500000Y-95025000D03*
X190850000Y-95025000D03*
X190200000Y-95025000D03*
X189550000Y-95025000D03*
X188900000Y-95025000D03*
X188250000Y-95025000D03*
X188250000Y-100750000D03*
X188900000Y-100750000D03*
X189550000Y-100750000D03*
X190200000Y-100750000D03*
X190850000Y-100750000D03*
X191500000Y-100750000D03*
X192150000Y-100750000D03*
%TD*%
D29*
%TO.C,RN5*%
X132500000Y-81750000D03*
D30*
X132500000Y-81250000D03*
X132500000Y-80750000D03*
D29*
X132500000Y-80250000D03*
X131500000Y-80250000D03*
D30*
X131500000Y-80750000D03*
X131500000Y-81250000D03*
D29*
X131500000Y-81750000D03*
%TD*%
D31*
%TO.C,SW3*%
X142250000Y-70270000D03*
D32*
X142250000Y-72810000D03*
X142250000Y-75350000D03*
X142250000Y-77890000D03*
X149870000Y-77890000D03*
X149870000Y-75350000D03*
X149870000Y-72810000D03*
X149870000Y-70270000D03*
%TD*%
D33*
%TO.C,D7*%
X138250000Y-105850000D03*
X138250000Y-107750000D03*
X140125000Y-106800000D03*
%TD*%
D17*
%TO.C,J6*%
X202050000Y-98025000D03*
D18*
X199510000Y-98025000D03*
X202050000Y-95485000D03*
X199510000Y-95485000D03*
X202050000Y-92945000D03*
X199510000Y-92945000D03*
%TD*%
D23*
%TO.C,R20*%
X201320000Y-69410000D03*
X200300000Y-69410000D03*
%TD*%
D24*
%TO.C,C1*%
X185275000Y-67500000D03*
X183725000Y-67500000D03*
%TD*%
D31*
%TO.C,SW4*%
X194250000Y-91290000D03*
D32*
X194250000Y-88750000D03*
X194250000Y-86210000D03*
X194250000Y-83670000D03*
X186630000Y-83670000D03*
X186630000Y-86210000D03*
X186630000Y-88750000D03*
X186630000Y-91290000D03*
%TD*%
D17*
%TO.C,J2*%
X134450000Y-86225000D03*
D18*
X136990000Y-86225000D03*
X134450000Y-88765000D03*
X136990000Y-88765000D03*
X134450000Y-91305000D03*
X136990000Y-91305000D03*
%TD*%
D34*
%TO.C,C7*%
X143000000Y-61810000D03*
X143000000Y-60850000D03*
%TD*%
D17*
%TO.C,J10*%
X209200000Y-74400000D03*
D18*
X209200000Y-76940000D03*
X206660000Y-74400000D03*
X206660000Y-76940000D03*
X204120000Y-74400000D03*
X204120000Y-76940000D03*
%TD*%
D22*
%TO.C,H1*%
X207500000Y-55500000D03*
%TD*%
D23*
%TO.C,R24*%
X201510000Y-75500000D03*
X200490000Y-75500000D03*
%TD*%
D34*
%TO.C,C5*%
X143000000Y-84500000D03*
X143000000Y-83540000D03*
%TD*%
D35*
%TO.C,TP4*%
X188550000Y-61350000D03*
%TD*%
D22*
%TO.C,H3*%
X129500000Y-55500000D03*
%TD*%
D11*
%TO.C,RN1*%
X149750000Y-89500000D03*
D12*
X150250000Y-89500000D03*
X150750000Y-89500000D03*
D11*
X151250000Y-89500000D03*
X151250000Y-88500000D03*
D12*
X150750000Y-88500000D03*
X150250000Y-88500000D03*
D11*
X149750000Y-88500000D03*
%TD*%
D17*
%TO.C,J8*%
X209170000Y-61990000D03*
D18*
X209170000Y-64530000D03*
X206630000Y-61990000D03*
X206630000Y-64530000D03*
X204090000Y-61990000D03*
X204090000Y-64530000D03*
%TD*%
D21*
%TO.C,R1*%
X187250000Y-60260000D03*
X187250000Y-59240000D03*
%TD*%
D17*
%TO.C,J7*%
X197500000Y-88830000D03*
D18*
X200040000Y-88830000D03*
X197500000Y-86290000D03*
X200040000Y-86290000D03*
X197500000Y-83750000D03*
X200040000Y-83750000D03*
%TD*%
D25*
%TO.C,D4*%
X136450000Y-106125000D03*
X134550000Y-106125000D03*
X135500000Y-108000000D03*
%TD*%
D17*
%TO.C,J9*%
X209170000Y-68200000D03*
D18*
X209170000Y-70740000D03*
X206630000Y-68200000D03*
X206630000Y-70740000D03*
X204090000Y-68200000D03*
X204090000Y-70740000D03*
%TD*%
D20*
%TO.C,C4*%
X143000000Y-88250000D03*
X143000000Y-89210000D03*
%TD*%
D34*
%TO.C,C8*%
X193500000Y-96000000D03*
X193500000Y-95040000D03*
%TD*%
D36*
%TO.C,A1*%
X159220000Y-55240000D03*
D37*
X159220000Y-57780000D03*
D38*
X159220000Y-60320000D03*
D37*
X159220000Y-62860000D03*
X159220000Y-65400000D03*
X159220000Y-67940000D03*
X159220000Y-70480000D03*
D38*
X159220000Y-73020000D03*
D37*
X159220000Y-75560000D03*
X159220000Y-78100000D03*
X159220000Y-80640000D03*
X159220000Y-83180000D03*
D38*
X159220000Y-85720000D03*
D37*
X159220000Y-88260000D03*
X159220000Y-90800000D03*
X159220000Y-93340000D03*
X159220000Y-95880000D03*
D38*
X159220000Y-98420000D03*
D37*
X159220000Y-100960000D03*
X159220000Y-103500000D03*
X177000000Y-103500000D03*
X177000000Y-100960000D03*
D39*
X177000000Y-98420000D03*
D37*
X177000000Y-95880000D03*
X177000000Y-93340000D03*
X177000000Y-90800000D03*
X177000000Y-88260000D03*
D39*
X177000000Y-85720000D03*
D37*
X177000000Y-83180000D03*
X177000000Y-80640000D03*
X177000000Y-78100000D03*
X177000000Y-75560000D03*
D39*
X177000000Y-73020000D03*
D37*
X177000000Y-70480000D03*
X177000000Y-67940000D03*
X177000000Y-65400000D03*
X177000000Y-62860000D03*
D39*
X177000000Y-60320000D03*
D37*
X177000000Y-57780000D03*
X177000000Y-55240000D03*
%TD*%
D40*
%TO.C,U1*%
X183570000Y-65737500D03*
X184520000Y-65737500D03*
X185470000Y-65737500D03*
X185470000Y-63462500D03*
X184520000Y-63462500D03*
X183570000Y-63462500D03*
%TD*%
D20*
%TO.C,C9*%
X193500000Y-99750000D03*
X193500000Y-100710000D03*
%TD*%
D25*
%TO.C,D5*%
X136200000Y-80562500D03*
X134300000Y-80562500D03*
X135250000Y-82437500D03*
%TD*%
D33*
%TO.C,D8*%
X138000000Y-80500000D03*
X138000000Y-82400000D03*
X139875000Y-81450000D03*
%TD*%
D19*
%TO.C,D9*%
X201125000Y-81200000D03*
X201125000Y-79300000D03*
X199250000Y-80250000D03*
%TD*%
D31*
%TO.C,SW2*%
X142250000Y-92960000D03*
D32*
X142250000Y-95500000D03*
X142250000Y-98040000D03*
X142250000Y-100580000D03*
X149870000Y-100580000D03*
X149870000Y-98040000D03*
X149870000Y-95500000D03*
X149870000Y-92960000D03*
%TD*%
D29*
%TO.C,RN6*%
X202750000Y-79750000D03*
D30*
X202750000Y-80250000D03*
X202750000Y-80750000D03*
D29*
X202750000Y-81250000D03*
X203750000Y-81250000D03*
D30*
X203750000Y-80750000D03*
X203750000Y-80250000D03*
D29*
X203750000Y-79750000D03*
%TD*%
M02*
