%TF.GenerationSoftware,KiCad,Pcbnew,8.0.6+1*%
%TF.CreationDate,2024-12-24T01:45:41-08:00*%
%TF.ProjectId,pico-logic-analyzer,7069636f-2d6c-46f6-9769-632d616e616c,rev?*%
%TF.SameCoordinates,Original*%
%TF.FileFunction,Other,User*%
%FSLAX46Y46*%
G04 Gerber Fmt 4.6, Leading zero omitted, Abs format (unit mm)*
G04 Created by KiCad (PCBNEW 8.0.6+1) date 2024-12-24 01:45:41*
%MOMM*%
%LPD*%
G01*
G04 APERTURE LIST*
%ADD10C,0.050000*%
G04 APERTURE END LIST*
D10*
%TO.C,RN3*%
X184500000Y-96000000D02*
X184500000Y-94000000D01*
X184500000Y-96000000D02*
X187000000Y-96000000D01*
X187000000Y-94000000D02*
X184500000Y-94000000D01*
X187000000Y-94000000D02*
X187000000Y-96000000D01*
%TO.C,SW1*%
X179650000Y-73950000D02*
X181000000Y-73950000D01*
X179650000Y-80550000D02*
X179650000Y-73950000D01*
X181000000Y-72500000D02*
X182500000Y-72500000D01*
X181000000Y-73950000D02*
X181000000Y-72500000D01*
X181000000Y-80550000D02*
X179650000Y-80550000D01*
X181000000Y-82000000D02*
X181000000Y-80550000D01*
X182500000Y-72500000D02*
X182500000Y-73950000D01*
X182500000Y-73950000D02*
X183850000Y-73950000D01*
X182500000Y-80550000D02*
X182500000Y-82000000D01*
X182500000Y-82000000D02*
X181000000Y-82000000D01*
X183850000Y-73950000D02*
X183850000Y-80550000D01*
X183850000Y-80550000D02*
X182500000Y-80550000D01*
%TO.C,RN2*%
X149250000Y-67500000D02*
X149250000Y-65500000D01*
X149250000Y-67500000D02*
X151750000Y-67500000D01*
X151750000Y-65500000D02*
X149250000Y-65500000D01*
X151750000Y-65500000D02*
X151750000Y-67500000D01*
%TO.C,D1*%
X186100000Y-53900000D02*
X188400000Y-53900000D01*
X186100000Y-58600000D02*
X186100000Y-53900000D01*
X186100000Y-58600000D02*
X188400000Y-58600000D01*
X188400000Y-53900000D02*
X188400000Y-58600000D01*
%TO.C,R16*%
X198930000Y-63870000D02*
X199870000Y-63870000D01*
X198930000Y-65730000D02*
X198930000Y-63870000D01*
X199870000Y-63870000D02*
X199870000Y-65730000D01*
X199870000Y-65730000D02*
X198930000Y-65730000D01*
%TO.C,TP2*%
X186200000Y-77000000D02*
G75*
G02*
X184200000Y-77000000I-1000000J0D01*
G01*
X184200000Y-77000000D02*
G75*
G02*
X186200000Y-77000000I1000000J0D01*
G01*
%TO.C,U4*%
X143550000Y-59822500D02*
X143550000Y-67522500D01*
X143550000Y-67522500D02*
X149050000Y-67522500D01*
X149050000Y-59822500D02*
X143550000Y-59822500D01*
X149050000Y-67522500D02*
X149050000Y-59822500D01*
%TO.C,R2*%
X184530000Y-58830000D02*
X185470000Y-58830000D01*
X184530000Y-60690000D02*
X184530000Y-58830000D01*
X185470000Y-58830000D02*
X185470000Y-60690000D01*
X185470000Y-60690000D02*
X184530000Y-60690000D01*
%TO.C,J11*%
X200050000Y-105700000D02*
X200050000Y-109300000D01*
X200050000Y-109300000D02*
X203650000Y-109300000D01*
X203650000Y-105700000D02*
X200050000Y-105700000D01*
X203650000Y-109300000D02*
X203650000Y-105700000D01*
%TO.C,J5*%
X125950000Y-70930000D02*
X125950000Y-79580000D01*
X125950000Y-79580000D02*
X140800000Y-79580000D01*
X140800000Y-70930000D02*
X125950000Y-70930000D01*
X140800000Y-79580000D02*
X140800000Y-70930000D01*
%TO.C,U2*%
X179892500Y-55250000D02*
X179892500Y-58650000D01*
X179892500Y-58650000D02*
X183732500Y-58650000D01*
X183732500Y-55250000D02*
X179892500Y-55250000D01*
X183732500Y-58650000D02*
X183732500Y-55250000D01*
%TO.C,J1*%
X189940000Y-51950000D02*
X189940000Y-66800000D01*
X189940000Y-66800000D02*
X198590000Y-66800000D01*
X198590000Y-51950000D02*
X189940000Y-51950000D01*
X198590000Y-66800000D02*
X198590000Y-51950000D01*
%TO.C,C6*%
X142540000Y-65130000D02*
X143460000Y-65130000D01*
X142540000Y-66950000D02*
X142540000Y-65130000D01*
X143460000Y-65130000D02*
X143460000Y-66950000D01*
X143460000Y-66950000D02*
X142540000Y-66950000D01*
%TO.C,U3*%
X143550000Y-82512500D02*
X143550000Y-90212500D01*
X143550000Y-90212500D02*
X149050000Y-90212500D01*
X149050000Y-82512500D02*
X143550000Y-82512500D01*
X149050000Y-90212500D02*
X149050000Y-82512500D01*
%TO.C,J3*%
X125950000Y-93620000D02*
X125950000Y-102270000D01*
X125950000Y-102270000D02*
X140800000Y-102270000D01*
X140800000Y-93620000D02*
X125950000Y-93620000D01*
X140800000Y-102270000D02*
X140800000Y-93620000D01*
%TO.C,R3*%
X182530000Y-58820000D02*
X183470000Y-58820000D01*
X182530000Y-60680000D02*
X182530000Y-58820000D01*
X183470000Y-58820000D02*
X183470000Y-60680000D01*
X183470000Y-60680000D02*
X182530000Y-60680000D01*
%TO.C,H4*%
X132950000Y-106000000D02*
G75*
G02*
X126050000Y-106000000I-3450000J0D01*
G01*
X126050000Y-106000000D02*
G75*
G02*
X132950000Y-106000000I3450000J0D01*
G01*
%TO.C,H2*%
X210950000Y-106000000D02*
G75*
G02*
X204050000Y-106000000I-3450000J0D01*
G01*
X204050000Y-106000000D02*
G75*
G02*
X210950000Y-106000000I3450000J0D01*
G01*
%TO.C,R21*%
X199880000Y-69940000D02*
X201740000Y-69940000D01*
X199880000Y-70880000D02*
X199880000Y-69940000D01*
X201740000Y-69940000D02*
X201740000Y-70880000D01*
X201740000Y-70880000D02*
X199880000Y-70880000D01*
%TO.C,C3*%
X183520000Y-60870000D02*
X186480000Y-60870000D01*
X183520000Y-62330000D02*
X183520000Y-60870000D01*
X186480000Y-60870000D02*
X186480000Y-62330000D01*
X186480000Y-62330000D02*
X183520000Y-62330000D01*
%TO.C,R18*%
X199970000Y-64780000D02*
X201830000Y-64780000D01*
X199970000Y-65720000D02*
X199970000Y-64780000D01*
X201830000Y-64780000D02*
X201830000Y-65720000D01*
X201830000Y-65720000D02*
X199970000Y-65720000D01*
%TO.C,C2*%
X181270000Y-62620000D02*
X182730000Y-62620000D01*
X181270000Y-65580000D02*
X181270000Y-62620000D01*
X182730000Y-62620000D02*
X182730000Y-65580000D01*
X182730000Y-65580000D02*
X181270000Y-65580000D01*
%TO.C,R19*%
X198930000Y-68980000D02*
X199870000Y-68980000D01*
X198930000Y-70840000D02*
X198930000Y-68980000D01*
X199870000Y-68980000D02*
X199870000Y-70840000D01*
X199870000Y-70840000D02*
X198930000Y-70840000D01*
%TO.C,R23*%
X199870000Y-75440000D02*
X201730000Y-75440000D01*
X199870000Y-76380000D02*
X199870000Y-75440000D01*
X201730000Y-75440000D02*
X201730000Y-76380000D01*
X201730000Y-76380000D02*
X199870000Y-76380000D01*
%TO.C,J4*%
X132650000Y-61735000D02*
X132650000Y-70385000D01*
X132650000Y-70385000D02*
X138800000Y-70385000D01*
X138800000Y-61735000D02*
X132650000Y-61735000D01*
X138800000Y-70385000D02*
X138800000Y-61735000D01*
%TO.C,D2*%
X187350000Y-66950000D02*
X187350000Y-62550000D01*
X189650000Y-62550000D02*
X187350000Y-62550000D01*
X189650000Y-62550000D02*
X189650000Y-66950000D01*
X189650000Y-66950000D02*
X187350000Y-66950000D01*
%TO.C,R22*%
X198930000Y-75480000D02*
X199870000Y-75480000D01*
X198930000Y-77340000D02*
X198930000Y-75480000D01*
X199870000Y-75480000D02*
X199870000Y-77340000D01*
X199870000Y-77340000D02*
X198930000Y-77340000D01*
%TO.C,R17*%
X199970000Y-63830000D02*
X201830000Y-63830000D01*
X199970000Y-64770000D02*
X199970000Y-63830000D01*
X201830000Y-63830000D02*
X201830000Y-64770000D01*
X201830000Y-64770000D02*
X199970000Y-64770000D01*
%TO.C,U5*%
X187450000Y-94037500D02*
X187450000Y-101737500D01*
X187450000Y-101737500D02*
X192950000Y-101737500D01*
X192950000Y-94037500D02*
X187450000Y-94037500D01*
X192950000Y-101737500D02*
X192950000Y-94037500D01*
%TO.C,SW3*%
X140900000Y-67570000D02*
X140900000Y-80570000D01*
X140900000Y-80570000D02*
X151200000Y-80570000D01*
X151200000Y-67570000D02*
X140900000Y-67570000D01*
X151200000Y-80570000D02*
X151200000Y-67570000D01*
%TO.C,J6*%
X197700000Y-91175000D02*
X197700000Y-99825000D01*
X197700000Y-99825000D02*
X203850000Y-99825000D01*
X203850000Y-91175000D02*
X197700000Y-91175000D01*
X203850000Y-99825000D02*
X203850000Y-91175000D01*
%TO.C,R20*%
X199880000Y-68940000D02*
X201740000Y-68940000D01*
X199880000Y-69880000D02*
X199880000Y-68940000D01*
X201740000Y-68940000D02*
X201740000Y-69880000D01*
X201740000Y-69880000D02*
X199880000Y-69880000D01*
%TO.C,C1*%
X183020000Y-66770000D02*
X185980000Y-66770000D01*
X183020000Y-68230000D02*
X183020000Y-66770000D01*
X185980000Y-66770000D02*
X185980000Y-68230000D01*
X185980000Y-68230000D02*
X183020000Y-68230000D01*
%TO.C,SW4*%
X185300000Y-80990000D02*
X185300000Y-93990000D01*
X185300000Y-93990000D02*
X195600000Y-93990000D01*
X195600000Y-80990000D02*
X185300000Y-80990000D01*
X195600000Y-93990000D02*
X195600000Y-80990000D01*
%TO.C,J2*%
X132650000Y-84425000D02*
X132650000Y-93075000D01*
X132650000Y-93075000D02*
X138800000Y-93075000D01*
X138800000Y-84425000D02*
X132650000Y-84425000D01*
X138800000Y-93075000D02*
X138800000Y-84425000D01*
%TO.C,C7*%
X142540000Y-60420000D02*
X143460000Y-60420000D01*
X142540000Y-62240000D02*
X142540000Y-60420000D01*
X143460000Y-60420000D02*
X143460000Y-62240000D01*
X143460000Y-62240000D02*
X142540000Y-62240000D01*
%TO.C,J10*%
X202350000Y-72600000D02*
X202350000Y-78750000D01*
X202350000Y-78750000D02*
X211000000Y-78750000D01*
X211000000Y-72600000D02*
X202350000Y-72600000D01*
X211000000Y-78750000D02*
X211000000Y-72600000D01*
%TO.C,H1*%
X210950000Y-55500000D02*
G75*
G02*
X204050000Y-55500000I-3450000J0D01*
G01*
X204050000Y-55500000D02*
G75*
G02*
X210950000Y-55500000I3450000J0D01*
G01*
%TO.C,R24*%
X199870000Y-76440000D02*
X201730000Y-76440000D01*
X199870000Y-77380000D02*
X199870000Y-76440000D01*
X201730000Y-76440000D02*
X201730000Y-77380000D01*
X201730000Y-77380000D02*
X199870000Y-77380000D01*
%TO.C,C5*%
X142540000Y-83110000D02*
X143460000Y-83110000D01*
X142540000Y-84930000D02*
X142540000Y-83110000D01*
X143460000Y-83110000D02*
X143460000Y-84930000D01*
X143460000Y-84930000D02*
X142540000Y-84930000D01*
%TO.C,TP4*%
X189550000Y-61350000D02*
G75*
G02*
X187550000Y-61350000I-1000000J0D01*
G01*
X187550000Y-61350000D02*
G75*
G02*
X189550000Y-61350000I1000000J0D01*
G01*
%TO.C,H3*%
X132950000Y-55500000D02*
G75*
G02*
X126050000Y-55500000I-3450000J0D01*
G01*
X126050000Y-55500000D02*
G75*
G02*
X132950000Y-55500000I3450000J0D01*
G01*
%TO.C,RN1*%
X149250000Y-90000000D02*
X149250000Y-88000000D01*
X149250000Y-90000000D02*
X151750000Y-90000000D01*
X151750000Y-88000000D02*
X149250000Y-88000000D01*
X151750000Y-88000000D02*
X151750000Y-90000000D01*
%TO.C,TP3*%
X188300000Y-77000000D02*
G75*
G02*
X186300000Y-77000000I-1000000J0D01*
G01*
X186300000Y-77000000D02*
G75*
G02*
X188300000Y-77000000I1000000J0D01*
G01*
%TO.C,J8*%
X202320000Y-60190000D02*
X202320000Y-66340000D01*
X202320000Y-66340000D02*
X210970000Y-66340000D01*
X210970000Y-60190000D02*
X202320000Y-60190000D01*
X210970000Y-66340000D02*
X210970000Y-60190000D01*
%TO.C,R1*%
X186780000Y-58820000D02*
X187720000Y-58820000D01*
X186780000Y-60680000D02*
X186780000Y-58820000D01*
X187720000Y-58820000D02*
X187720000Y-60680000D01*
X187720000Y-60680000D02*
X186780000Y-60680000D01*
%TO.C,J7*%
X195700000Y-81980000D02*
X195700000Y-90630000D01*
X195700000Y-90630000D02*
X210550000Y-90630000D01*
X210550000Y-81980000D02*
X195700000Y-81980000D01*
X210550000Y-90630000D02*
X210550000Y-81980000D01*
%TO.C,J9*%
X202320000Y-66400000D02*
X202320000Y-72550000D01*
X202320000Y-72550000D02*
X210970000Y-72550000D01*
X210970000Y-66400000D02*
X202320000Y-66400000D01*
X210970000Y-72550000D02*
X210970000Y-66400000D01*
%TO.C,C4*%
X142540000Y-87820000D02*
X143460000Y-87820000D01*
X142540000Y-89640000D02*
X142540000Y-87820000D01*
X143460000Y-87820000D02*
X143460000Y-89640000D01*
X143460000Y-89640000D02*
X142540000Y-89640000D01*
%TO.C,C8*%
X193040000Y-94610000D02*
X193960000Y-94610000D01*
X193040000Y-96430000D02*
X193040000Y-94610000D01*
X193960000Y-94610000D02*
X193960000Y-96430000D01*
X193960000Y-96430000D02*
X193040000Y-96430000D01*
%TO.C,A1*%
X172610000Y-53620000D02*
X179650000Y-53620000D01*
X179650000Y-105920000D01*
X156570000Y-105920000D01*
X156570000Y-53620000D01*
X163610000Y-53620000D01*
X163610000Y-51970000D01*
X172610000Y-51970000D01*
X172610000Y-53620000D01*
%TO.C,U1*%
X182820000Y-62550000D02*
X182820000Y-66650000D01*
X182820000Y-66650000D02*
X186220000Y-66650000D01*
X186220000Y-62550000D02*
X182820000Y-62550000D01*
X186220000Y-66650000D02*
X186220000Y-62550000D01*
%TO.C,C9*%
X193040000Y-99320000D02*
X193960000Y-99320000D01*
X193040000Y-101140000D02*
X193040000Y-99320000D01*
X193960000Y-99320000D02*
X193960000Y-101140000D01*
X193960000Y-101140000D02*
X193040000Y-101140000D01*
%TO.C,SW2*%
X140900000Y-90260000D02*
X140900000Y-103260000D01*
X140900000Y-103260000D02*
X151200000Y-103260000D01*
X151200000Y-90260000D02*
X140900000Y-90260000D01*
X151200000Y-103260000D02*
X151200000Y-90260000D01*
%TO.C,D3*%
X183750000Y-53900000D02*
X186050000Y-53900000D01*
X183750000Y-58600000D02*
X183750000Y-53900000D01*
X183750000Y-58600000D02*
X186050000Y-58600000D01*
X186050000Y-53900000D02*
X186050000Y-58600000D01*
%TO.C,TP1*%
X190400000Y-77000000D02*
G75*
G02*
X188400000Y-77000000I-1000000J0D01*
G01*
X188400000Y-77000000D02*
G75*
G02*
X190400000Y-77000000I1000000J0D01*
G01*
%TD*%
M02*
