%TF.GenerationSoftware,KiCad,Pcbnew,8.0.6+1*%
%TF.CreationDate,2024-11-29T05:26:26-08:00*%
%TF.ProjectId,pico-logic-analyzer,7069636f-2d6c-46f6-9769-632d616e616c,rev?*%
%TF.SameCoordinates,Original*%
%TF.FileFunction,Other,Comment*%
%FSLAX46Y46*%
G04 Gerber Fmt 4.6, Leading zero omitted, Abs format (unit mm)*
G04 Created by KiCad (PCBNEW 8.0.6+1) date 2024-11-29 05:26:26*
%MOMM*%
%LPD*%
G01*
G04 APERTURE LIST*
%ADD10C,0.150000*%
G04 APERTURE END LIST*
D10*
X164371904Y-41359819D02*
X164371904Y-42169342D01*
X164371904Y-42169342D02*
X164419523Y-42264580D01*
X164419523Y-42264580D02*
X164467142Y-42312200D01*
X164467142Y-42312200D02*
X164562380Y-42359819D01*
X164562380Y-42359819D02*
X164752856Y-42359819D01*
X164752856Y-42359819D02*
X164848094Y-42312200D01*
X164848094Y-42312200D02*
X164895713Y-42264580D01*
X164895713Y-42264580D02*
X164943332Y-42169342D01*
X164943332Y-42169342D02*
X164943332Y-41359819D01*
X165371904Y-42312200D02*
X165514761Y-42359819D01*
X165514761Y-42359819D02*
X165752856Y-42359819D01*
X165752856Y-42359819D02*
X165848094Y-42312200D01*
X165848094Y-42312200D02*
X165895713Y-42264580D01*
X165895713Y-42264580D02*
X165943332Y-42169342D01*
X165943332Y-42169342D02*
X165943332Y-42074104D01*
X165943332Y-42074104D02*
X165895713Y-41978866D01*
X165895713Y-41978866D02*
X165848094Y-41931247D01*
X165848094Y-41931247D02*
X165752856Y-41883628D01*
X165752856Y-41883628D02*
X165562380Y-41836009D01*
X165562380Y-41836009D02*
X165467142Y-41788390D01*
X165467142Y-41788390D02*
X165419523Y-41740771D01*
X165419523Y-41740771D02*
X165371904Y-41645533D01*
X165371904Y-41645533D02*
X165371904Y-41550295D01*
X165371904Y-41550295D02*
X165419523Y-41455057D01*
X165419523Y-41455057D02*
X165467142Y-41407438D01*
X165467142Y-41407438D02*
X165562380Y-41359819D01*
X165562380Y-41359819D02*
X165800475Y-41359819D01*
X165800475Y-41359819D02*
X165943332Y-41407438D01*
X166705237Y-41836009D02*
X166848094Y-41883628D01*
X166848094Y-41883628D02*
X166895713Y-41931247D01*
X166895713Y-41931247D02*
X166943332Y-42026485D01*
X166943332Y-42026485D02*
X166943332Y-42169342D01*
X166943332Y-42169342D02*
X166895713Y-42264580D01*
X166895713Y-42264580D02*
X166848094Y-42312200D01*
X166848094Y-42312200D02*
X166752856Y-42359819D01*
X166752856Y-42359819D02*
X166371904Y-42359819D01*
X166371904Y-42359819D02*
X166371904Y-41359819D01*
X166371904Y-41359819D02*
X166705237Y-41359819D01*
X166705237Y-41359819D02*
X166800475Y-41407438D01*
X166800475Y-41407438D02*
X166848094Y-41455057D01*
X166848094Y-41455057D02*
X166895713Y-41550295D01*
X166895713Y-41550295D02*
X166895713Y-41645533D01*
X166895713Y-41645533D02*
X166848094Y-41740771D01*
X166848094Y-41740771D02*
X166800475Y-41788390D01*
X166800475Y-41788390D02*
X166705237Y-41836009D01*
X166705237Y-41836009D02*
X166371904Y-41836009D01*
X168705237Y-42264580D02*
X168657618Y-42312200D01*
X168657618Y-42312200D02*
X168514761Y-42359819D01*
X168514761Y-42359819D02*
X168419523Y-42359819D01*
X168419523Y-42359819D02*
X168276666Y-42312200D01*
X168276666Y-42312200D02*
X168181428Y-42216961D01*
X168181428Y-42216961D02*
X168133809Y-42121723D01*
X168133809Y-42121723D02*
X168086190Y-41931247D01*
X168086190Y-41931247D02*
X168086190Y-41788390D01*
X168086190Y-41788390D02*
X168133809Y-41597914D01*
X168133809Y-41597914D02*
X168181428Y-41502676D01*
X168181428Y-41502676D02*
X168276666Y-41407438D01*
X168276666Y-41407438D02*
X168419523Y-41359819D01*
X168419523Y-41359819D02*
X168514761Y-41359819D01*
X168514761Y-41359819D02*
X168657618Y-41407438D01*
X168657618Y-41407438D02*
X168705237Y-41455057D01*
X169562380Y-42359819D02*
X169562380Y-41836009D01*
X169562380Y-41836009D02*
X169514761Y-41740771D01*
X169514761Y-41740771D02*
X169419523Y-41693152D01*
X169419523Y-41693152D02*
X169229047Y-41693152D01*
X169229047Y-41693152D02*
X169133809Y-41740771D01*
X169562380Y-42312200D02*
X169467142Y-42359819D01*
X169467142Y-42359819D02*
X169229047Y-42359819D01*
X169229047Y-42359819D02*
X169133809Y-42312200D01*
X169133809Y-42312200D02*
X169086190Y-42216961D01*
X169086190Y-42216961D02*
X169086190Y-42121723D01*
X169086190Y-42121723D02*
X169133809Y-42026485D01*
X169133809Y-42026485D02*
X169229047Y-41978866D01*
X169229047Y-41978866D02*
X169467142Y-41978866D01*
X169467142Y-41978866D02*
X169562380Y-41931247D01*
X170038571Y-42359819D02*
X170038571Y-41359819D01*
X170038571Y-41740771D02*
X170133809Y-41693152D01*
X170133809Y-41693152D02*
X170324285Y-41693152D01*
X170324285Y-41693152D02*
X170419523Y-41740771D01*
X170419523Y-41740771D02*
X170467142Y-41788390D01*
X170467142Y-41788390D02*
X170514761Y-41883628D01*
X170514761Y-41883628D02*
X170514761Y-42169342D01*
X170514761Y-42169342D02*
X170467142Y-42264580D01*
X170467142Y-42264580D02*
X170419523Y-42312200D01*
X170419523Y-42312200D02*
X170324285Y-42359819D01*
X170324285Y-42359819D02*
X170133809Y-42359819D01*
X170133809Y-42359819D02*
X170038571Y-42312200D01*
X171086190Y-42359819D02*
X170990952Y-42312200D01*
X170990952Y-42312200D02*
X170943333Y-42216961D01*
X170943333Y-42216961D02*
X170943333Y-41359819D01*
X171848095Y-42312200D02*
X171752857Y-42359819D01*
X171752857Y-42359819D02*
X171562381Y-42359819D01*
X171562381Y-42359819D02*
X171467143Y-42312200D01*
X171467143Y-42312200D02*
X171419524Y-42216961D01*
X171419524Y-42216961D02*
X171419524Y-41836009D01*
X171419524Y-41836009D02*
X171467143Y-41740771D01*
X171467143Y-41740771D02*
X171562381Y-41693152D01*
X171562381Y-41693152D02*
X171752857Y-41693152D01*
X171752857Y-41693152D02*
X171848095Y-41740771D01*
X171848095Y-41740771D02*
X171895714Y-41836009D01*
X171895714Y-41836009D02*
X171895714Y-41931247D01*
X171895714Y-41931247D02*
X171419524Y-42026485D01*
X164895714Y-101414819D02*
X164895714Y-100414819D01*
X165467142Y-101414819D02*
X165038571Y-100843390D01*
X165467142Y-100414819D02*
X164895714Y-100986247D01*
X166276666Y-101367200D02*
X166181428Y-101414819D01*
X166181428Y-101414819D02*
X165990952Y-101414819D01*
X165990952Y-101414819D02*
X165895714Y-101367200D01*
X165895714Y-101367200D02*
X165848095Y-101271961D01*
X165848095Y-101271961D02*
X165848095Y-100891009D01*
X165848095Y-100891009D02*
X165895714Y-100795771D01*
X165895714Y-100795771D02*
X165990952Y-100748152D01*
X165990952Y-100748152D02*
X166181428Y-100748152D01*
X166181428Y-100748152D02*
X166276666Y-100795771D01*
X166276666Y-100795771D02*
X166324285Y-100891009D01*
X166324285Y-100891009D02*
X166324285Y-100986247D01*
X166324285Y-100986247D02*
X165848095Y-101081485D01*
X167133809Y-101367200D02*
X167038571Y-101414819D01*
X167038571Y-101414819D02*
X166848095Y-101414819D01*
X166848095Y-101414819D02*
X166752857Y-101367200D01*
X166752857Y-101367200D02*
X166705238Y-101271961D01*
X166705238Y-101271961D02*
X166705238Y-100891009D01*
X166705238Y-100891009D02*
X166752857Y-100795771D01*
X166752857Y-100795771D02*
X166848095Y-100748152D01*
X166848095Y-100748152D02*
X167038571Y-100748152D01*
X167038571Y-100748152D02*
X167133809Y-100795771D01*
X167133809Y-100795771D02*
X167181428Y-100891009D01*
X167181428Y-100891009D02*
X167181428Y-100986247D01*
X167181428Y-100986247D02*
X166705238Y-101081485D01*
X167610000Y-100748152D02*
X167610000Y-101748152D01*
X167610000Y-100795771D02*
X167705238Y-100748152D01*
X167705238Y-100748152D02*
X167895714Y-100748152D01*
X167895714Y-100748152D02*
X167990952Y-100795771D01*
X167990952Y-100795771D02*
X168038571Y-100843390D01*
X168038571Y-100843390D02*
X168086190Y-100938628D01*
X168086190Y-100938628D02*
X168086190Y-101224342D01*
X168086190Y-101224342D02*
X168038571Y-101319580D01*
X168038571Y-101319580D02*
X167990952Y-101367200D01*
X167990952Y-101367200D02*
X167895714Y-101414819D01*
X167895714Y-101414819D02*
X167705238Y-101414819D01*
X167705238Y-101414819D02*
X167610000Y-101367200D01*
X169467143Y-100414819D02*
X169657619Y-100414819D01*
X169657619Y-100414819D02*
X169752857Y-100462438D01*
X169752857Y-100462438D02*
X169848095Y-100557676D01*
X169848095Y-100557676D02*
X169895714Y-100748152D01*
X169895714Y-100748152D02*
X169895714Y-101081485D01*
X169895714Y-101081485D02*
X169848095Y-101271961D01*
X169848095Y-101271961D02*
X169752857Y-101367200D01*
X169752857Y-101367200D02*
X169657619Y-101414819D01*
X169657619Y-101414819D02*
X169467143Y-101414819D01*
X169467143Y-101414819D02*
X169371905Y-101367200D01*
X169371905Y-101367200D02*
X169276667Y-101271961D01*
X169276667Y-101271961D02*
X169229048Y-101081485D01*
X169229048Y-101081485D02*
X169229048Y-100748152D01*
X169229048Y-100748152D02*
X169276667Y-100557676D01*
X169276667Y-100557676D02*
X169371905Y-100462438D01*
X169371905Y-100462438D02*
X169467143Y-100414819D01*
X170752857Y-100748152D02*
X170752857Y-101414819D01*
X170324286Y-100748152D02*
X170324286Y-101271961D01*
X170324286Y-101271961D02*
X170371905Y-101367200D01*
X170371905Y-101367200D02*
X170467143Y-101414819D01*
X170467143Y-101414819D02*
X170610000Y-101414819D01*
X170610000Y-101414819D02*
X170705238Y-101367200D01*
X170705238Y-101367200D02*
X170752857Y-101319580D01*
X171086191Y-100748152D02*
X171467143Y-100748152D01*
X171229048Y-100414819D02*
X171229048Y-101271961D01*
X171229048Y-101271961D02*
X171276667Y-101367200D01*
X171276667Y-101367200D02*
X171371905Y-101414819D01*
X171371905Y-101414819D02*
X171467143Y-101414819D01*
X161871904Y-99509819D02*
X161871904Y-98509819D01*
X161871904Y-98509819D02*
X162252856Y-98509819D01*
X162252856Y-98509819D02*
X162348094Y-98557438D01*
X162348094Y-98557438D02*
X162395713Y-98605057D01*
X162395713Y-98605057D02*
X162443332Y-98700295D01*
X162443332Y-98700295D02*
X162443332Y-98843152D01*
X162443332Y-98843152D02*
X162395713Y-98938390D01*
X162395713Y-98938390D02*
X162348094Y-98986009D01*
X162348094Y-98986009D02*
X162252856Y-99033628D01*
X162252856Y-99033628D02*
X161871904Y-99033628D01*
X163014761Y-99509819D02*
X162919523Y-99462200D01*
X162919523Y-99462200D02*
X162871904Y-99414580D01*
X162871904Y-99414580D02*
X162824285Y-99319342D01*
X162824285Y-99319342D02*
X162824285Y-99033628D01*
X162824285Y-99033628D02*
X162871904Y-98938390D01*
X162871904Y-98938390D02*
X162919523Y-98890771D01*
X162919523Y-98890771D02*
X163014761Y-98843152D01*
X163014761Y-98843152D02*
X163157618Y-98843152D01*
X163157618Y-98843152D02*
X163252856Y-98890771D01*
X163252856Y-98890771D02*
X163300475Y-98938390D01*
X163300475Y-98938390D02*
X163348094Y-99033628D01*
X163348094Y-99033628D02*
X163348094Y-99319342D01*
X163348094Y-99319342D02*
X163300475Y-99414580D01*
X163300475Y-99414580D02*
X163252856Y-99462200D01*
X163252856Y-99462200D02*
X163157618Y-99509819D01*
X163157618Y-99509819D02*
X163014761Y-99509819D01*
X163729047Y-99462200D02*
X163824285Y-99509819D01*
X163824285Y-99509819D02*
X164014761Y-99509819D01*
X164014761Y-99509819D02*
X164109999Y-99462200D01*
X164109999Y-99462200D02*
X164157618Y-99366961D01*
X164157618Y-99366961D02*
X164157618Y-99319342D01*
X164157618Y-99319342D02*
X164109999Y-99224104D01*
X164109999Y-99224104D02*
X164014761Y-99176485D01*
X164014761Y-99176485D02*
X163871904Y-99176485D01*
X163871904Y-99176485D02*
X163776666Y-99128866D01*
X163776666Y-99128866D02*
X163729047Y-99033628D01*
X163729047Y-99033628D02*
X163729047Y-98986009D01*
X163729047Y-98986009D02*
X163776666Y-98890771D01*
X163776666Y-98890771D02*
X163871904Y-98843152D01*
X163871904Y-98843152D02*
X164014761Y-98843152D01*
X164014761Y-98843152D02*
X164109999Y-98890771D01*
X164538571Y-99462200D02*
X164633809Y-99509819D01*
X164633809Y-99509819D02*
X164824285Y-99509819D01*
X164824285Y-99509819D02*
X164919523Y-99462200D01*
X164919523Y-99462200D02*
X164967142Y-99366961D01*
X164967142Y-99366961D02*
X164967142Y-99319342D01*
X164967142Y-99319342D02*
X164919523Y-99224104D01*
X164919523Y-99224104D02*
X164824285Y-99176485D01*
X164824285Y-99176485D02*
X164681428Y-99176485D01*
X164681428Y-99176485D02*
X164586190Y-99128866D01*
X164586190Y-99128866D02*
X164538571Y-99033628D01*
X164538571Y-99033628D02*
X164538571Y-98986009D01*
X164538571Y-98986009D02*
X164586190Y-98890771D01*
X164586190Y-98890771D02*
X164681428Y-98843152D01*
X164681428Y-98843152D02*
X164824285Y-98843152D01*
X164824285Y-98843152D02*
X164919523Y-98890771D01*
X165395714Y-99509819D02*
X165395714Y-98843152D01*
X165395714Y-98509819D02*
X165348095Y-98557438D01*
X165348095Y-98557438D02*
X165395714Y-98605057D01*
X165395714Y-98605057D02*
X165443333Y-98557438D01*
X165443333Y-98557438D02*
X165395714Y-98509819D01*
X165395714Y-98509819D02*
X165395714Y-98605057D01*
X165871904Y-99509819D02*
X165871904Y-98509819D01*
X165871904Y-98890771D02*
X165967142Y-98843152D01*
X165967142Y-98843152D02*
X166157618Y-98843152D01*
X166157618Y-98843152D02*
X166252856Y-98890771D01*
X166252856Y-98890771D02*
X166300475Y-98938390D01*
X166300475Y-98938390D02*
X166348094Y-99033628D01*
X166348094Y-99033628D02*
X166348094Y-99319342D01*
X166348094Y-99319342D02*
X166300475Y-99414580D01*
X166300475Y-99414580D02*
X166252856Y-99462200D01*
X166252856Y-99462200D02*
X166157618Y-99509819D01*
X166157618Y-99509819D02*
X165967142Y-99509819D01*
X165967142Y-99509819D02*
X165871904Y-99462200D01*
X166919523Y-99509819D02*
X166824285Y-99462200D01*
X166824285Y-99462200D02*
X166776666Y-99366961D01*
X166776666Y-99366961D02*
X166776666Y-98509819D01*
X167681428Y-99462200D02*
X167586190Y-99509819D01*
X167586190Y-99509819D02*
X167395714Y-99509819D01*
X167395714Y-99509819D02*
X167300476Y-99462200D01*
X167300476Y-99462200D02*
X167252857Y-99366961D01*
X167252857Y-99366961D02*
X167252857Y-98986009D01*
X167252857Y-98986009D02*
X167300476Y-98890771D01*
X167300476Y-98890771D02*
X167395714Y-98843152D01*
X167395714Y-98843152D02*
X167586190Y-98843152D01*
X167586190Y-98843152D02*
X167681428Y-98890771D01*
X167681428Y-98890771D02*
X167729047Y-98986009D01*
X167729047Y-98986009D02*
X167729047Y-99081247D01*
X167729047Y-99081247D02*
X167252857Y-99176485D01*
X168871905Y-99224104D02*
X169348095Y-99224104D01*
X168776667Y-99509819D02*
X169110000Y-98509819D01*
X169110000Y-98509819D02*
X169443333Y-99509819D01*
X169776667Y-98843152D02*
X169776667Y-99509819D01*
X169776667Y-98938390D02*
X169824286Y-98890771D01*
X169824286Y-98890771D02*
X169919524Y-98843152D01*
X169919524Y-98843152D02*
X170062381Y-98843152D01*
X170062381Y-98843152D02*
X170157619Y-98890771D01*
X170157619Y-98890771D02*
X170205238Y-98986009D01*
X170205238Y-98986009D02*
X170205238Y-99509819D01*
X170538572Y-98843152D02*
X170919524Y-98843152D01*
X170681429Y-98509819D02*
X170681429Y-99366961D01*
X170681429Y-99366961D02*
X170729048Y-99462200D01*
X170729048Y-99462200D02*
X170824286Y-99509819D01*
X170824286Y-99509819D02*
X170919524Y-99509819D01*
X171633810Y-99462200D02*
X171538572Y-99509819D01*
X171538572Y-99509819D02*
X171348096Y-99509819D01*
X171348096Y-99509819D02*
X171252858Y-99462200D01*
X171252858Y-99462200D02*
X171205239Y-99366961D01*
X171205239Y-99366961D02*
X171205239Y-98986009D01*
X171205239Y-98986009D02*
X171252858Y-98890771D01*
X171252858Y-98890771D02*
X171348096Y-98843152D01*
X171348096Y-98843152D02*
X171538572Y-98843152D01*
X171538572Y-98843152D02*
X171633810Y-98890771D01*
X171633810Y-98890771D02*
X171681429Y-98986009D01*
X171681429Y-98986009D02*
X171681429Y-99081247D01*
X171681429Y-99081247D02*
X171205239Y-99176485D01*
X172110001Y-98843152D02*
X172110001Y-99509819D01*
X172110001Y-98938390D02*
X172157620Y-98890771D01*
X172157620Y-98890771D02*
X172252858Y-98843152D01*
X172252858Y-98843152D02*
X172395715Y-98843152D01*
X172395715Y-98843152D02*
X172490953Y-98890771D01*
X172490953Y-98890771D02*
X172538572Y-98986009D01*
X172538572Y-98986009D02*
X172538572Y-99509819D01*
X173014763Y-98843152D02*
X173014763Y-99509819D01*
X173014763Y-98938390D02*
X173062382Y-98890771D01*
X173062382Y-98890771D02*
X173157620Y-98843152D01*
X173157620Y-98843152D02*
X173300477Y-98843152D01*
X173300477Y-98843152D02*
X173395715Y-98890771D01*
X173395715Y-98890771D02*
X173443334Y-98986009D01*
X173443334Y-98986009D02*
X173443334Y-99509819D01*
X174348096Y-99509819D02*
X174348096Y-98986009D01*
X174348096Y-98986009D02*
X174300477Y-98890771D01*
X174300477Y-98890771D02*
X174205239Y-98843152D01*
X174205239Y-98843152D02*
X174014763Y-98843152D01*
X174014763Y-98843152D02*
X173919525Y-98890771D01*
X174348096Y-99462200D02*
X174252858Y-99509819D01*
X174252858Y-99509819D02*
X174014763Y-99509819D01*
X174014763Y-99509819D02*
X173919525Y-99462200D01*
X173919525Y-99462200D02*
X173871906Y-99366961D01*
X173871906Y-99366961D02*
X173871906Y-99271723D01*
X173871906Y-99271723D02*
X173919525Y-99176485D01*
X173919525Y-99176485D02*
X174014763Y-99128866D01*
X174014763Y-99128866D02*
X174252858Y-99128866D01*
X174252858Y-99128866D02*
X174348096Y-99081247D01*
%TO.C,H4*%
X132700000Y-106000000D02*
G75*
G02*
X126300000Y-106000000I-3200000J0D01*
G01*
X126300000Y-106000000D02*
G75*
G02*
X132700000Y-106000000I3200000J0D01*
G01*
%TO.C,H2*%
X210700000Y-106000000D02*
G75*
G02*
X204300000Y-106000000I-3200000J0D01*
G01*
X204300000Y-106000000D02*
G75*
G02*
X210700000Y-106000000I3200000J0D01*
G01*
%TO.C,H1*%
X210700000Y-55500000D02*
G75*
G02*
X204300000Y-55500000I-3200000J0D01*
G01*
X204300000Y-55500000D02*
G75*
G02*
X210700000Y-55500000I3200000J0D01*
G01*
%TO.C,H3*%
X132700000Y-55500000D02*
G75*
G02*
X126300000Y-55500000I-3200000J0D01*
G01*
X126300000Y-55500000D02*
G75*
G02*
X132700000Y-55500000I3200000J0D01*
G01*
%TD*%
M02*
