M48
; DRILL file {KiCad 8.0.8+1} date 2025-01-27T22:00:13-0800
; FORMAT={-:-/ absolute / metric / decimal}
; #@! TF.CreationDate,2025-01-27T22:00:13-08:00
; #@! TF.GenerationSoftware,Kicad,Pcbnew,8.0.8+1
; #@! TF.FileFunction,MixedPlating,1,4
FMAT,2
METRIC
; #@! TA.AperFunction,Plated,PTH,ViaDrill
T1C0.300
; #@! TA.AperFunction,Plated,PTH,ComponentDrill
T2C0.800
; #@! TA.AperFunction,Plated,PTH,ComponentDrill
T3C1.000
; #@! TA.AperFunction,NonPlated,NPTH,ComponentDrill
T4C3.200
%
G90
G05
T1
X154.476Y-92.824
X154.5Y-92.0
X155.25Y-79.5
X155.267Y-91.774
X156.0Y-90.75
X162.25Y-95.0
X162.75Y-93.75
X173.25Y-65.5
X173.25Y-68.5
X173.25Y-92.2
X173.25Y-93.0
X173.25Y-94.5
X173.5Y-66.5
X173.5Y-67.5
X173.75Y-93.75
X179.29Y-70.75
X179.335Y-96.92
X180.011Y-69.715
X180.068Y-95.896
X180.79Y-69.5
X180.814Y-68.676
X180.835Y-95.67
X180.859Y-94.846
T2
X140.38Y-92.13
X140.38Y-94.67
X140.38Y-97.21
X140.38Y-99.75
X148.0Y-92.13
X148.0Y-94.67
X148.0Y-97.21
X148.0Y-99.75
X187.29Y-61.75
X187.29Y-64.29
X187.29Y-66.83
X187.29Y-69.37
X187.335Y-87.92
X187.335Y-90.46
X187.335Y-93.0
X187.335Y-95.54
X194.91Y-61.75
X194.91Y-64.29
X194.91Y-66.83
X194.91Y-69.37
X194.955Y-87.92
X194.955Y-90.46
X194.955Y-93.0
X194.955Y-95.54
T3
X149.5Y-82.42
X149.5Y-84.96
X149.5Y-87.5
X149.585Y-69.225
X149.585Y-71.765
X149.585Y-74.305
X151.21Y-99.445
X151.21Y-101.985
X151.21Y-104.525
X152.04Y-82.42
X152.04Y-84.96
X152.04Y-87.5
X152.125Y-69.225
X152.125Y-71.765
X152.125Y-74.305
X153.75Y-99.445
X153.75Y-101.985
X153.75Y-104.525
X157.5Y-107.5
X181.54Y-56.975
X181.54Y-59.515
X181.54Y-62.055
X181.585Y-83.145
X181.585Y-85.685
X181.585Y-88.225
X183.25Y-74.0
X183.25Y-76.54
X183.25Y-79.08
X183.295Y-100.17
X183.295Y-102.71
X183.295Y-105.25
X184.08Y-56.975
X184.08Y-59.515
X184.08Y-62.055
X184.125Y-83.145
X184.125Y-85.685
X184.125Y-88.225
X185.79Y-74.0
X185.79Y-76.54
X185.79Y-79.08
X185.835Y-100.17
X185.835Y-102.71
X185.835Y-105.25
T4
X142.5Y-106.0
X193.0Y-55.5
M30
