%TF.GenerationSoftware,KiCad,Pcbnew,8.0.8+1*%
%TF.CreationDate,2025-01-27T22:00:13-08:00*%
%TF.ProjectId,pico-logic-analyzer,7069636f-2d6c-46f6-9769-632d616e616c,rev?*%
%TF.SameCoordinates,Original*%
%TF.FileFunction,AssemblyDrawing,Top*%
%FSLAX46Y46*%
G04 Gerber Fmt 4.6, Leading zero omitted, Abs format (unit mm)*
G04 Created by KiCad (PCBNEW 8.0.8+1) date 2025-01-27 22:00:13*
%MOMM*%
%LPD*%
G01*
G04 APERTURE LIST*
%ADD10C,0.050000*%
%ADD11C,0.060000*%
%ADD12C,0.120000*%
%ADD13C,0.150000*%
%ADD14C,0.075000*%
%ADD15C,0.040000*%
%ADD16C,0.100000*%
G04 APERTURE END LIST*
D10*
X175180439Y-98093690D02*
X174860439Y-98093690D01*
X174860439Y-98093690D02*
X174860439Y-98017500D01*
X174860439Y-98017500D02*
X174875677Y-97971785D01*
X174875677Y-97971785D02*
X174906153Y-97941309D01*
X174906153Y-97941309D02*
X174936629Y-97926071D01*
X174936629Y-97926071D02*
X174997581Y-97910833D01*
X174997581Y-97910833D02*
X175043296Y-97910833D01*
X175043296Y-97910833D02*
X175104248Y-97926071D01*
X175104248Y-97926071D02*
X175134724Y-97941309D01*
X175134724Y-97941309D02*
X175165201Y-97971785D01*
X175165201Y-97971785D02*
X175180439Y-98017500D01*
X175180439Y-98017500D02*
X175180439Y-98093690D01*
X174860439Y-97804166D02*
X174860439Y-97590833D01*
X174860439Y-97590833D02*
X175180439Y-97727976D01*
D11*
X171978832Y-97736666D02*
X171997880Y-97755714D01*
X171997880Y-97755714D02*
X172016927Y-97812856D01*
X172016927Y-97812856D02*
X172016927Y-97850952D01*
X172016927Y-97850952D02*
X171997880Y-97908095D01*
X171997880Y-97908095D02*
X171959784Y-97946190D01*
X171959784Y-97946190D02*
X171921689Y-97965237D01*
X171921689Y-97965237D02*
X171845499Y-97984285D01*
X171845499Y-97984285D02*
X171788356Y-97984285D01*
X171788356Y-97984285D02*
X171712165Y-97965237D01*
X171712165Y-97965237D02*
X171674070Y-97946190D01*
X171674070Y-97946190D02*
X171635975Y-97908095D01*
X171635975Y-97908095D02*
X171616927Y-97850952D01*
X171616927Y-97850952D02*
X171616927Y-97812856D01*
X171616927Y-97812856D02*
X171635975Y-97755714D01*
X171635975Y-97755714D02*
X171655022Y-97736666D01*
X171616927Y-97374761D02*
X171616927Y-97565237D01*
X171616927Y-97565237D02*
X171807403Y-97584285D01*
X171807403Y-97584285D02*
X171788356Y-97565237D01*
X171788356Y-97565237D02*
X171769308Y-97527142D01*
X171769308Y-97527142D02*
X171769308Y-97431904D01*
X171769308Y-97431904D02*
X171788356Y-97393809D01*
X171788356Y-97393809D02*
X171807403Y-97374761D01*
X171807403Y-97374761D02*
X171845499Y-97355714D01*
X171845499Y-97355714D02*
X171940737Y-97355714D01*
X171940737Y-97355714D02*
X171978832Y-97374761D01*
X171978832Y-97374761D02*
X171997880Y-97393809D01*
X171997880Y-97393809D02*
X172016927Y-97431904D01*
X172016927Y-97431904D02*
X172016927Y-97527142D01*
X172016927Y-97527142D02*
X171997880Y-97565237D01*
X171997880Y-97565237D02*
X171978832Y-97584285D01*
D12*
X194885760Y-66626666D02*
X194923855Y-66512380D01*
X194923855Y-66512380D02*
X194923855Y-66321904D01*
X194923855Y-66321904D02*
X194885760Y-66245713D01*
X194885760Y-66245713D02*
X194847664Y-66207618D01*
X194847664Y-66207618D02*
X194771474Y-66169523D01*
X194771474Y-66169523D02*
X194695283Y-66169523D01*
X194695283Y-66169523D02*
X194619093Y-66207618D01*
X194619093Y-66207618D02*
X194580998Y-66245713D01*
X194580998Y-66245713D02*
X194542902Y-66321904D01*
X194542902Y-66321904D02*
X194504807Y-66474285D01*
X194504807Y-66474285D02*
X194466712Y-66550475D01*
X194466712Y-66550475D02*
X194428617Y-66588570D01*
X194428617Y-66588570D02*
X194352426Y-66626666D01*
X194352426Y-66626666D02*
X194276236Y-66626666D01*
X194276236Y-66626666D02*
X194200045Y-66588570D01*
X194200045Y-66588570D02*
X194161950Y-66550475D01*
X194161950Y-66550475D02*
X194123855Y-66474285D01*
X194123855Y-66474285D02*
X194123855Y-66283808D01*
X194123855Y-66283808D02*
X194161950Y-66169523D01*
X194123855Y-65902856D02*
X194923855Y-65712380D01*
X194923855Y-65712380D02*
X194352426Y-65559999D01*
X194352426Y-65559999D02*
X194923855Y-65407618D01*
X194923855Y-65407618D02*
X194123855Y-65217142D01*
X194123855Y-64988570D02*
X194123855Y-64493332D01*
X194123855Y-64493332D02*
X194428617Y-64759998D01*
X194428617Y-64759998D02*
X194428617Y-64645713D01*
X194428617Y-64645713D02*
X194466712Y-64569522D01*
X194466712Y-64569522D02*
X194504807Y-64531427D01*
X194504807Y-64531427D02*
X194580998Y-64493332D01*
X194580998Y-64493332D02*
X194771474Y-64493332D01*
X194771474Y-64493332D02*
X194847664Y-64531427D01*
X194847664Y-64531427D02*
X194885760Y-64569522D01*
X194885760Y-64569522D02*
X194923855Y-64645713D01*
X194923855Y-64645713D02*
X194923855Y-64874284D01*
X194923855Y-64874284D02*
X194885760Y-64950475D01*
X194885760Y-64950475D02*
X194847664Y-64988570D01*
X192235951Y-60616355D02*
X192159761Y-60578260D01*
X192159761Y-60578260D02*
X192121666Y-60540164D01*
X192121666Y-60540164D02*
X192083570Y-60463974D01*
X192083570Y-60463974D02*
X192083570Y-60235402D01*
X192083570Y-60235402D02*
X192121666Y-60159212D01*
X192121666Y-60159212D02*
X192159761Y-60121117D01*
X192159761Y-60121117D02*
X192235951Y-60083021D01*
X192235951Y-60083021D02*
X192350237Y-60083021D01*
X192350237Y-60083021D02*
X192426428Y-60121117D01*
X192426428Y-60121117D02*
X192464523Y-60159212D01*
X192464523Y-60159212D02*
X192502618Y-60235402D01*
X192502618Y-60235402D02*
X192502618Y-60463974D01*
X192502618Y-60463974D02*
X192464523Y-60540164D01*
X192464523Y-60540164D02*
X192426428Y-60578260D01*
X192426428Y-60578260D02*
X192350237Y-60616355D01*
X192350237Y-60616355D02*
X192235951Y-60616355D01*
X192845476Y-60083021D02*
X192845476Y-60616355D01*
X192845476Y-60159212D02*
X192883571Y-60121117D01*
X192883571Y-60121117D02*
X192959761Y-60083021D01*
X192959761Y-60083021D02*
X193074047Y-60083021D01*
X193074047Y-60083021D02*
X193150238Y-60121117D01*
X193150238Y-60121117D02*
X193188333Y-60197307D01*
X193188333Y-60197307D02*
X193188333Y-60616355D01*
D10*
X175280439Y-88468690D02*
X174960439Y-88468690D01*
X174960439Y-88468690D02*
X174960439Y-88392500D01*
X174960439Y-88392500D02*
X174975677Y-88346785D01*
X174975677Y-88346785D02*
X175006153Y-88316309D01*
X175006153Y-88316309D02*
X175036629Y-88301071D01*
X175036629Y-88301071D02*
X175097581Y-88285833D01*
X175097581Y-88285833D02*
X175143296Y-88285833D01*
X175143296Y-88285833D02*
X175204248Y-88301071D01*
X175204248Y-88301071D02*
X175234724Y-88316309D01*
X175234724Y-88316309D02*
X175265201Y-88346785D01*
X175265201Y-88346785D02*
X175280439Y-88392500D01*
X175280439Y-88392500D02*
X175280439Y-88468690D01*
X175067105Y-88011547D02*
X175280439Y-88011547D01*
X174945201Y-88087738D02*
X175173772Y-88163928D01*
X175173772Y-88163928D02*
X175173772Y-87965833D01*
X175235439Y-62298690D02*
X174915439Y-62298690D01*
X174915439Y-62298690D02*
X174915439Y-62222500D01*
X174915439Y-62222500D02*
X174930677Y-62176785D01*
X174930677Y-62176785D02*
X174961153Y-62146309D01*
X174961153Y-62146309D02*
X174991629Y-62131071D01*
X174991629Y-62131071D02*
X175052581Y-62115833D01*
X175052581Y-62115833D02*
X175098296Y-62115833D01*
X175098296Y-62115833D02*
X175159248Y-62131071D01*
X175159248Y-62131071D02*
X175189724Y-62146309D01*
X175189724Y-62146309D02*
X175220201Y-62176785D01*
X175220201Y-62176785D02*
X175235439Y-62222500D01*
X175235439Y-62222500D02*
X175235439Y-62298690D01*
X174915439Y-61826309D02*
X174915439Y-61978690D01*
X174915439Y-61978690D02*
X175067820Y-61993928D01*
X175067820Y-61993928D02*
X175052581Y-61978690D01*
X175052581Y-61978690D02*
X175037343Y-61948214D01*
X175037343Y-61948214D02*
X175037343Y-61872023D01*
X175037343Y-61872023D02*
X175052581Y-61841547D01*
X175052581Y-61841547D02*
X175067820Y-61826309D01*
X175067820Y-61826309D02*
X175098296Y-61811071D01*
X175098296Y-61811071D02*
X175174486Y-61811071D01*
X175174486Y-61811071D02*
X175204962Y-61826309D01*
X175204962Y-61826309D02*
X175220201Y-61841547D01*
X175220201Y-61841547D02*
X175235439Y-61872023D01*
X175235439Y-61872023D02*
X175235439Y-61948214D01*
X175235439Y-61948214D02*
X175220201Y-61978690D01*
X175220201Y-61978690D02*
X175204962Y-61993928D01*
D13*
X156954819Y-108309523D02*
X157669104Y-108309523D01*
X157669104Y-108309523D02*
X157811961Y-108357142D01*
X157811961Y-108357142D02*
X157907200Y-108452380D01*
X157907200Y-108452380D02*
X157954819Y-108595237D01*
X157954819Y-108595237D02*
X157954819Y-108690475D01*
X157954819Y-107309523D02*
X157954819Y-107880951D01*
X157954819Y-107595237D02*
X156954819Y-107595237D01*
X156954819Y-107595237D02*
X157097676Y-107690475D01*
X157097676Y-107690475D02*
X157192914Y-107785713D01*
X157192914Y-107785713D02*
X157240533Y-107880951D01*
X157954819Y-106357142D02*
X157954819Y-106928570D01*
X157954819Y-106642856D02*
X156954819Y-106642856D01*
X156954819Y-106642856D02*
X157097676Y-106738094D01*
X157097676Y-106738094D02*
X157192914Y-106833332D01*
X157192914Y-106833332D02*
X157240533Y-106928570D01*
D11*
X161518832Y-81366666D02*
X161537880Y-81385714D01*
X161537880Y-81385714D02*
X161556927Y-81442856D01*
X161556927Y-81442856D02*
X161556927Y-81480952D01*
X161556927Y-81480952D02*
X161537880Y-81538095D01*
X161537880Y-81538095D02*
X161499784Y-81576190D01*
X161499784Y-81576190D02*
X161461689Y-81595237D01*
X161461689Y-81595237D02*
X161385499Y-81614285D01*
X161385499Y-81614285D02*
X161328356Y-81614285D01*
X161328356Y-81614285D02*
X161252165Y-81595237D01*
X161252165Y-81595237D02*
X161214070Y-81576190D01*
X161214070Y-81576190D02*
X161175975Y-81538095D01*
X161175975Y-81538095D02*
X161156927Y-81480952D01*
X161156927Y-81480952D02*
X161156927Y-81442856D01*
X161156927Y-81442856D02*
X161175975Y-81385714D01*
X161175975Y-81385714D02*
X161195022Y-81366666D01*
X161556927Y-80985714D02*
X161556927Y-81214285D01*
X161556927Y-81099999D02*
X161156927Y-81099999D01*
X161156927Y-81099999D02*
X161214070Y-81138095D01*
X161214070Y-81138095D02*
X161252165Y-81176190D01*
X161252165Y-81176190D02*
X161271213Y-81214285D01*
X164283333Y-79093832D02*
X164264285Y-79112880D01*
X164264285Y-79112880D02*
X164207143Y-79131927D01*
X164207143Y-79131927D02*
X164169047Y-79131927D01*
X164169047Y-79131927D02*
X164111904Y-79112880D01*
X164111904Y-79112880D02*
X164073809Y-79074784D01*
X164073809Y-79074784D02*
X164054762Y-79036689D01*
X164054762Y-79036689D02*
X164035714Y-78960499D01*
X164035714Y-78960499D02*
X164035714Y-78903356D01*
X164035714Y-78903356D02*
X164054762Y-78827165D01*
X164054762Y-78827165D02*
X164073809Y-78789070D01*
X164073809Y-78789070D02*
X164111904Y-78750975D01*
X164111904Y-78750975D02*
X164169047Y-78731927D01*
X164169047Y-78731927D02*
X164207143Y-78731927D01*
X164207143Y-78731927D02*
X164264285Y-78750975D01*
X164264285Y-78750975D02*
X164283333Y-78770022D01*
X164435714Y-78770022D02*
X164454762Y-78750975D01*
X164454762Y-78750975D02*
X164492857Y-78731927D01*
X164492857Y-78731927D02*
X164588095Y-78731927D01*
X164588095Y-78731927D02*
X164626190Y-78750975D01*
X164626190Y-78750975D02*
X164645238Y-78770022D01*
X164645238Y-78770022D02*
X164664285Y-78808118D01*
X164664285Y-78808118D02*
X164664285Y-78846213D01*
X164664285Y-78846213D02*
X164645238Y-78903356D01*
X164645238Y-78903356D02*
X164416666Y-79131927D01*
X164416666Y-79131927D02*
X164664285Y-79131927D01*
D10*
X160445438Y-90048690D02*
X160125438Y-90048690D01*
X160125438Y-90048690D02*
X160125438Y-89972500D01*
X160125438Y-89972500D02*
X160140676Y-89926785D01*
X160140676Y-89926785D02*
X160171152Y-89896309D01*
X160171152Y-89896309D02*
X160201628Y-89881071D01*
X160201628Y-89881071D02*
X160262580Y-89865833D01*
X160262580Y-89865833D02*
X160308295Y-89865833D01*
X160308295Y-89865833D02*
X160369247Y-89881071D01*
X160369247Y-89881071D02*
X160399723Y-89896309D01*
X160399723Y-89896309D02*
X160430200Y-89926785D01*
X160430200Y-89926785D02*
X160445438Y-89972500D01*
X160445438Y-89972500D02*
X160445438Y-90048690D01*
X160445438Y-89713452D02*
X160445438Y-89652500D01*
X160445438Y-89652500D02*
X160430200Y-89622023D01*
X160430200Y-89622023D02*
X160414961Y-89606785D01*
X160414961Y-89606785D02*
X160369247Y-89576309D01*
X160369247Y-89576309D02*
X160308295Y-89561071D01*
X160308295Y-89561071D02*
X160186390Y-89561071D01*
X160186390Y-89561071D02*
X160155914Y-89576309D01*
X160155914Y-89576309D02*
X160140676Y-89591547D01*
X160140676Y-89591547D02*
X160125438Y-89622023D01*
X160125438Y-89622023D02*
X160125438Y-89682976D01*
X160125438Y-89682976D02*
X160140676Y-89713452D01*
X160140676Y-89713452D02*
X160155914Y-89728690D01*
X160155914Y-89728690D02*
X160186390Y-89743928D01*
X160186390Y-89743928D02*
X160262580Y-89743928D01*
X160262580Y-89743928D02*
X160293057Y-89728690D01*
X160293057Y-89728690D02*
X160308295Y-89713452D01*
X160308295Y-89713452D02*
X160323533Y-89682976D01*
X160323533Y-89682976D02*
X160323533Y-89622023D01*
X160323533Y-89622023D02*
X160308295Y-89591547D01*
X160308295Y-89591547D02*
X160293057Y-89576309D01*
X160293057Y-89576309D02*
X160262580Y-89561071D01*
D14*
X180944762Y-71227409D02*
X180778096Y-70989314D01*
X180659048Y-71227409D02*
X180659048Y-70727409D01*
X180659048Y-70727409D02*
X180849524Y-70727409D01*
X180849524Y-70727409D02*
X180897143Y-70751219D01*
X180897143Y-70751219D02*
X180920953Y-70775028D01*
X180920953Y-70775028D02*
X180944762Y-70822647D01*
X180944762Y-70822647D02*
X180944762Y-70894076D01*
X180944762Y-70894076D02*
X180920953Y-70941695D01*
X180920953Y-70941695D02*
X180897143Y-70965504D01*
X180897143Y-70965504D02*
X180849524Y-70989314D01*
X180849524Y-70989314D02*
X180659048Y-70989314D01*
X181159048Y-71227409D02*
X181159048Y-70727409D01*
X181159048Y-70727409D02*
X181444762Y-71227409D01*
X181444762Y-71227409D02*
X181444762Y-70727409D01*
X181920953Y-70727409D02*
X181682858Y-70727409D01*
X181682858Y-70727409D02*
X181659049Y-70965504D01*
X181659049Y-70965504D02*
X181682858Y-70941695D01*
X181682858Y-70941695D02*
X181730477Y-70917885D01*
X181730477Y-70917885D02*
X181849525Y-70917885D01*
X181849525Y-70917885D02*
X181897144Y-70941695D01*
X181897144Y-70941695D02*
X181920953Y-70965504D01*
X181920953Y-70965504D02*
X181944763Y-71013123D01*
X181944763Y-71013123D02*
X181944763Y-71132171D01*
X181944763Y-71132171D02*
X181920953Y-71179790D01*
X181920953Y-71179790D02*
X181897144Y-71203600D01*
X181897144Y-71203600D02*
X181849525Y-71227409D01*
X181849525Y-71227409D02*
X181730477Y-71227409D01*
X181730477Y-71227409D02*
X181682858Y-71203600D01*
X181682858Y-71203600D02*
X181659049Y-71179790D01*
D11*
X163957738Y-81281927D02*
X163957738Y-81605737D01*
X163957738Y-81605737D02*
X163976785Y-81643832D01*
X163976785Y-81643832D02*
X163995833Y-81662880D01*
X163995833Y-81662880D02*
X164033928Y-81681927D01*
X164033928Y-81681927D02*
X164110119Y-81681927D01*
X164110119Y-81681927D02*
X164148214Y-81662880D01*
X164148214Y-81662880D02*
X164167261Y-81643832D01*
X164167261Y-81643832D02*
X164186309Y-81605737D01*
X164186309Y-81605737D02*
X164186309Y-81281927D01*
X164586309Y-81681927D02*
X164357738Y-81681927D01*
X164472024Y-81681927D02*
X164472024Y-81281927D01*
X164472024Y-81281927D02*
X164433928Y-81339070D01*
X164433928Y-81339070D02*
X164395833Y-81377165D01*
X164395833Y-81377165D02*
X164357738Y-81396213D01*
X167268832Y-82366666D02*
X167287880Y-82385714D01*
X167287880Y-82385714D02*
X167306927Y-82442856D01*
X167306927Y-82442856D02*
X167306927Y-82480952D01*
X167306927Y-82480952D02*
X167287880Y-82538095D01*
X167287880Y-82538095D02*
X167249784Y-82576190D01*
X167249784Y-82576190D02*
X167211689Y-82595237D01*
X167211689Y-82595237D02*
X167135499Y-82614285D01*
X167135499Y-82614285D02*
X167078356Y-82614285D01*
X167078356Y-82614285D02*
X167002165Y-82595237D01*
X167002165Y-82595237D02*
X166964070Y-82576190D01*
X166964070Y-82576190D02*
X166925975Y-82538095D01*
X166925975Y-82538095D02*
X166906927Y-82480952D01*
X166906927Y-82480952D02*
X166906927Y-82442856D01*
X166906927Y-82442856D02*
X166925975Y-82385714D01*
X166925975Y-82385714D02*
X166945022Y-82366666D01*
X166906927Y-82233333D02*
X166906927Y-81985714D01*
X166906927Y-81985714D02*
X167059308Y-82119047D01*
X167059308Y-82119047D02*
X167059308Y-82061904D01*
X167059308Y-82061904D02*
X167078356Y-82023809D01*
X167078356Y-82023809D02*
X167097403Y-82004761D01*
X167097403Y-82004761D02*
X167135499Y-81985714D01*
X167135499Y-81985714D02*
X167230737Y-81985714D01*
X167230737Y-81985714D02*
X167268832Y-82004761D01*
X167268832Y-82004761D02*
X167287880Y-82023809D01*
X167287880Y-82023809D02*
X167306927Y-82061904D01*
X167306927Y-82061904D02*
X167306927Y-82176190D01*
X167306927Y-82176190D02*
X167287880Y-82214285D01*
X167287880Y-82214285D02*
X167268832Y-82233333D01*
D13*
X141738095Y-106454819D02*
X141738095Y-105454819D01*
X141738095Y-105931009D02*
X142309523Y-105931009D01*
X142309523Y-106454819D02*
X142309523Y-105454819D01*
X143214285Y-105788152D02*
X143214285Y-106454819D01*
X142976190Y-105407200D02*
X142738095Y-106121485D01*
X142738095Y-106121485D02*
X143357142Y-106121485D01*
X182264820Y-59848333D02*
X182979105Y-59848333D01*
X182979105Y-59848333D02*
X183121962Y-59895952D01*
X183121962Y-59895952D02*
X183217201Y-59991190D01*
X183217201Y-59991190D02*
X183264820Y-60134047D01*
X183264820Y-60134047D02*
X183264820Y-60229285D01*
X182598153Y-58943571D02*
X183264820Y-58943571D01*
X182217201Y-59181666D02*
X182931486Y-59419761D01*
X182931486Y-59419761D02*
X182931486Y-58800714D01*
X160100595Y-94004819D02*
X160100595Y-94814342D01*
X160100595Y-94814342D02*
X160148214Y-94909580D01*
X160148214Y-94909580D02*
X160195833Y-94957200D01*
X160195833Y-94957200D02*
X160291071Y-95004819D01*
X160291071Y-95004819D02*
X160481547Y-95004819D01*
X160481547Y-95004819D02*
X160576785Y-94957200D01*
X160576785Y-94957200D02*
X160624404Y-94909580D01*
X160624404Y-94909580D02*
X160672023Y-94814342D01*
X160672023Y-94814342D02*
X160672023Y-94004819D01*
X161624404Y-94004819D02*
X161148214Y-94004819D01*
X161148214Y-94004819D02*
X161100595Y-94481009D01*
X161100595Y-94481009D02*
X161148214Y-94433390D01*
X161148214Y-94433390D02*
X161243452Y-94385771D01*
X161243452Y-94385771D02*
X161481547Y-94385771D01*
X161481547Y-94385771D02*
X161576785Y-94433390D01*
X161576785Y-94433390D02*
X161624404Y-94481009D01*
X161624404Y-94481009D02*
X161672023Y-94576247D01*
X161672023Y-94576247D02*
X161672023Y-94814342D01*
X161672023Y-94814342D02*
X161624404Y-94909580D01*
X161624404Y-94909580D02*
X161576785Y-94957200D01*
X161576785Y-94957200D02*
X161481547Y-95004819D01*
X161481547Y-95004819D02*
X161243452Y-95004819D01*
X161243452Y-95004819D02*
X161148214Y-94957200D01*
X161148214Y-94957200D02*
X161100595Y-94909580D01*
D14*
X148227409Y-104345238D02*
X147989314Y-104511904D01*
X148227409Y-104630952D02*
X147727409Y-104630952D01*
X147727409Y-104630952D02*
X147727409Y-104440476D01*
X147727409Y-104440476D02*
X147751219Y-104392857D01*
X147751219Y-104392857D02*
X147775028Y-104369047D01*
X147775028Y-104369047D02*
X147822647Y-104345238D01*
X147822647Y-104345238D02*
X147894076Y-104345238D01*
X147894076Y-104345238D02*
X147941695Y-104369047D01*
X147941695Y-104369047D02*
X147965504Y-104392857D01*
X147965504Y-104392857D02*
X147989314Y-104440476D01*
X147989314Y-104440476D02*
X147989314Y-104630952D01*
X148227409Y-104130952D02*
X147727409Y-104130952D01*
X147727409Y-104130952D02*
X148227409Y-103845238D01*
X148227409Y-103845238D02*
X147727409Y-103845238D01*
X147727409Y-103654761D02*
X147727409Y-103345237D01*
X147727409Y-103345237D02*
X147917885Y-103511904D01*
X147917885Y-103511904D02*
X147917885Y-103440475D01*
X147917885Y-103440475D02*
X147941695Y-103392856D01*
X147941695Y-103392856D02*
X147965504Y-103369047D01*
X147965504Y-103369047D02*
X148013123Y-103345237D01*
X148013123Y-103345237D02*
X148132171Y-103345237D01*
X148132171Y-103345237D02*
X148179790Y-103369047D01*
X148179790Y-103369047D02*
X148203600Y-103392856D01*
X148203600Y-103392856D02*
X148227409Y-103440475D01*
X148227409Y-103440475D02*
X148227409Y-103583332D01*
X148227409Y-103583332D02*
X148203600Y-103630951D01*
X148203600Y-103630951D02*
X148179790Y-103654761D01*
D10*
X160345438Y-99673690D02*
X160025438Y-99673690D01*
X160025438Y-99673690D02*
X160025438Y-99597500D01*
X160025438Y-99597500D02*
X160040676Y-99551785D01*
X160040676Y-99551785D02*
X160071152Y-99521309D01*
X160071152Y-99521309D02*
X160101628Y-99506071D01*
X160101628Y-99506071D02*
X160162580Y-99490833D01*
X160162580Y-99490833D02*
X160208295Y-99490833D01*
X160208295Y-99490833D02*
X160269247Y-99506071D01*
X160269247Y-99506071D02*
X160299723Y-99521309D01*
X160299723Y-99521309D02*
X160330200Y-99551785D01*
X160330200Y-99551785D02*
X160345438Y-99597500D01*
X160345438Y-99597500D02*
X160345438Y-99673690D01*
X160025438Y-99216547D02*
X160025438Y-99277500D01*
X160025438Y-99277500D02*
X160040676Y-99307976D01*
X160040676Y-99307976D02*
X160055914Y-99323214D01*
X160055914Y-99323214D02*
X160101628Y-99353690D01*
X160101628Y-99353690D02*
X160162580Y-99368928D01*
X160162580Y-99368928D02*
X160284485Y-99368928D01*
X160284485Y-99368928D02*
X160314961Y-99353690D01*
X160314961Y-99353690D02*
X160330200Y-99338452D01*
X160330200Y-99338452D02*
X160345438Y-99307976D01*
X160345438Y-99307976D02*
X160345438Y-99247023D01*
X160345438Y-99247023D02*
X160330200Y-99216547D01*
X160330200Y-99216547D02*
X160314961Y-99201309D01*
X160314961Y-99201309D02*
X160284485Y-99186071D01*
X160284485Y-99186071D02*
X160208295Y-99186071D01*
X160208295Y-99186071D02*
X160177819Y-99201309D01*
X160177819Y-99201309D02*
X160162580Y-99216547D01*
X160162580Y-99216547D02*
X160147342Y-99247023D01*
X160147342Y-99247023D02*
X160147342Y-99307976D01*
X160147342Y-99307976D02*
X160162580Y-99338452D01*
X160162580Y-99338452D02*
X160177819Y-99353690D01*
X160177819Y-99353690D02*
X160208295Y-99368928D01*
D14*
X187517409Y-57845238D02*
X187279314Y-58011904D01*
X187517409Y-58130952D02*
X187017409Y-58130952D01*
X187017409Y-58130952D02*
X187017409Y-57940476D01*
X187017409Y-57940476D02*
X187041219Y-57892857D01*
X187041219Y-57892857D02*
X187065028Y-57869047D01*
X187065028Y-57869047D02*
X187112647Y-57845238D01*
X187112647Y-57845238D02*
X187184076Y-57845238D01*
X187184076Y-57845238D02*
X187231695Y-57869047D01*
X187231695Y-57869047D02*
X187255504Y-57892857D01*
X187255504Y-57892857D02*
X187279314Y-57940476D01*
X187279314Y-57940476D02*
X187279314Y-58130952D01*
X187517409Y-57630952D02*
X187017409Y-57630952D01*
X187017409Y-57630952D02*
X187517409Y-57345238D01*
X187517409Y-57345238D02*
X187017409Y-57345238D01*
X187065028Y-57130951D02*
X187041219Y-57107142D01*
X187041219Y-57107142D02*
X187017409Y-57059523D01*
X187017409Y-57059523D02*
X187017409Y-56940475D01*
X187017409Y-56940475D02*
X187041219Y-56892856D01*
X187041219Y-56892856D02*
X187065028Y-56869047D01*
X187065028Y-56869047D02*
X187112647Y-56845237D01*
X187112647Y-56845237D02*
X187160266Y-56845237D01*
X187160266Y-56845237D02*
X187231695Y-56869047D01*
X187231695Y-56869047D02*
X187517409Y-57154761D01*
X187517409Y-57154761D02*
X187517409Y-56845237D01*
D11*
X157393832Y-90091666D02*
X157412880Y-90110714D01*
X157412880Y-90110714D02*
X157431927Y-90167856D01*
X157431927Y-90167856D02*
X157431927Y-90205952D01*
X157431927Y-90205952D02*
X157412880Y-90263095D01*
X157412880Y-90263095D02*
X157374784Y-90301190D01*
X157374784Y-90301190D02*
X157336689Y-90320237D01*
X157336689Y-90320237D02*
X157260499Y-90339285D01*
X157260499Y-90339285D02*
X157203356Y-90339285D01*
X157203356Y-90339285D02*
X157127165Y-90320237D01*
X157127165Y-90320237D02*
X157089070Y-90301190D01*
X157089070Y-90301190D02*
X157050975Y-90263095D01*
X157050975Y-90263095D02*
X157031927Y-90205952D01*
X157031927Y-90205952D02*
X157031927Y-90167856D01*
X157031927Y-90167856D02*
X157050975Y-90110714D01*
X157050975Y-90110714D02*
X157070022Y-90091666D01*
X157203356Y-89863095D02*
X157184308Y-89901190D01*
X157184308Y-89901190D02*
X157165260Y-89920237D01*
X157165260Y-89920237D02*
X157127165Y-89939285D01*
X157127165Y-89939285D02*
X157108118Y-89939285D01*
X157108118Y-89939285D02*
X157070022Y-89920237D01*
X157070022Y-89920237D02*
X157050975Y-89901190D01*
X157050975Y-89901190D02*
X157031927Y-89863095D01*
X157031927Y-89863095D02*
X157031927Y-89786904D01*
X157031927Y-89786904D02*
X157050975Y-89748809D01*
X157050975Y-89748809D02*
X157070022Y-89729761D01*
X157070022Y-89729761D02*
X157108118Y-89710714D01*
X157108118Y-89710714D02*
X157127165Y-89710714D01*
X157127165Y-89710714D02*
X157165260Y-89729761D01*
X157165260Y-89729761D02*
X157184308Y-89748809D01*
X157184308Y-89748809D02*
X157203356Y-89786904D01*
X157203356Y-89786904D02*
X157203356Y-89863095D01*
X157203356Y-89863095D02*
X157222403Y-89901190D01*
X157222403Y-89901190D02*
X157241451Y-89920237D01*
X157241451Y-89920237D02*
X157279546Y-89939285D01*
X157279546Y-89939285D02*
X157355737Y-89939285D01*
X157355737Y-89939285D02*
X157393832Y-89920237D01*
X157393832Y-89920237D02*
X157412880Y-89901190D01*
X157412880Y-89901190D02*
X157431927Y-89863095D01*
X157431927Y-89863095D02*
X157431927Y-89786904D01*
X157431927Y-89786904D02*
X157412880Y-89748809D01*
X157412880Y-89748809D02*
X157393832Y-89729761D01*
X157393832Y-89729761D02*
X157355737Y-89710714D01*
X157355737Y-89710714D02*
X157279546Y-89710714D01*
X157279546Y-89710714D02*
X157241451Y-89729761D01*
X157241451Y-89729761D02*
X157222403Y-89748809D01*
X157222403Y-89748809D02*
X157203356Y-89786904D01*
D15*
X168591667Y-77418200D02*
X168505000Y-77294391D01*
X168443095Y-77418200D02*
X168443095Y-77158200D01*
X168443095Y-77158200D02*
X168542143Y-77158200D01*
X168542143Y-77158200D02*
X168566905Y-77170581D01*
X168566905Y-77170581D02*
X168579286Y-77182962D01*
X168579286Y-77182962D02*
X168591667Y-77207724D01*
X168591667Y-77207724D02*
X168591667Y-77244867D01*
X168591667Y-77244867D02*
X168579286Y-77269629D01*
X168579286Y-77269629D02*
X168566905Y-77282010D01*
X168566905Y-77282010D02*
X168542143Y-77294391D01*
X168542143Y-77294391D02*
X168443095Y-77294391D01*
X168839286Y-77418200D02*
X168690714Y-77418200D01*
X168765000Y-77418200D02*
X168765000Y-77158200D01*
X168765000Y-77158200D02*
X168740238Y-77195343D01*
X168740238Y-77195343D02*
X168715476Y-77220105D01*
X168715476Y-77220105D02*
X168690714Y-77232486D01*
D13*
X192238095Y-55954819D02*
X192238095Y-54954819D01*
X192238095Y-55431009D02*
X192809523Y-55431009D01*
X192809523Y-55954819D02*
X192809523Y-54954819D01*
X193809523Y-55954819D02*
X193238095Y-55954819D01*
X193523809Y-55954819D02*
X193523809Y-54954819D01*
X193523809Y-54954819D02*
X193428571Y-55097676D01*
X193428571Y-55097676D02*
X193333333Y-55192914D01*
X193333333Y-55192914D02*
X193238095Y-55240533D01*
D15*
X169581667Y-79418200D02*
X169495000Y-79294391D01*
X169433095Y-79418200D02*
X169433095Y-79158200D01*
X169433095Y-79158200D02*
X169532143Y-79158200D01*
X169532143Y-79158200D02*
X169556905Y-79170581D01*
X169556905Y-79170581D02*
X169569286Y-79182962D01*
X169569286Y-79182962D02*
X169581667Y-79207724D01*
X169581667Y-79207724D02*
X169581667Y-79244867D01*
X169581667Y-79244867D02*
X169569286Y-79269629D01*
X169569286Y-79269629D02*
X169556905Y-79282010D01*
X169556905Y-79282010D02*
X169532143Y-79294391D01*
X169532143Y-79294391D02*
X169433095Y-79294391D01*
X169668333Y-79158200D02*
X169829286Y-79158200D01*
X169829286Y-79158200D02*
X169742619Y-79257248D01*
X169742619Y-79257248D02*
X169779762Y-79257248D01*
X169779762Y-79257248D02*
X169804524Y-79269629D01*
X169804524Y-79269629D02*
X169816905Y-79282010D01*
X169816905Y-79282010D02*
X169829286Y-79306772D01*
X169829286Y-79306772D02*
X169829286Y-79368677D01*
X169829286Y-79368677D02*
X169816905Y-79393439D01*
X169816905Y-79393439D02*
X169804524Y-79405820D01*
X169804524Y-79405820D02*
X169779762Y-79418200D01*
X169779762Y-79418200D02*
X169705476Y-79418200D01*
X169705476Y-79418200D02*
X169680714Y-79405820D01*
X169680714Y-79405820D02*
X169668333Y-79393439D01*
D13*
X151934819Y-102318333D02*
X152649104Y-102318333D01*
X152649104Y-102318333D02*
X152791961Y-102365952D01*
X152791961Y-102365952D02*
X152887200Y-102461190D01*
X152887200Y-102461190D02*
X152934819Y-102604047D01*
X152934819Y-102604047D02*
X152934819Y-102699285D01*
X151934819Y-101413571D02*
X151934819Y-101604047D01*
X151934819Y-101604047D02*
X151982438Y-101699285D01*
X151982438Y-101699285D02*
X152030057Y-101746904D01*
X152030057Y-101746904D02*
X152172914Y-101842142D01*
X152172914Y-101842142D02*
X152363390Y-101889761D01*
X152363390Y-101889761D02*
X152744342Y-101889761D01*
X152744342Y-101889761D02*
X152839580Y-101842142D01*
X152839580Y-101842142D02*
X152887200Y-101794523D01*
X152887200Y-101794523D02*
X152934819Y-101699285D01*
X152934819Y-101699285D02*
X152934819Y-101508809D01*
X152934819Y-101508809D02*
X152887200Y-101413571D01*
X152887200Y-101413571D02*
X152839580Y-101365952D01*
X152839580Y-101365952D02*
X152744342Y-101318333D01*
X152744342Y-101318333D02*
X152506247Y-101318333D01*
X152506247Y-101318333D02*
X152411009Y-101365952D01*
X152411009Y-101365952D02*
X152363390Y-101413571D01*
X152363390Y-101413571D02*
X152315771Y-101508809D01*
X152315771Y-101508809D02*
X152315771Y-101699285D01*
X152315771Y-101699285D02*
X152363390Y-101794523D01*
X152363390Y-101794523D02*
X152411009Y-101842142D01*
X152411009Y-101842142D02*
X152506247Y-101889761D01*
D10*
X175135439Y-71923690D02*
X174815439Y-71923690D01*
X174815439Y-71923690D02*
X174815439Y-71847500D01*
X174815439Y-71847500D02*
X174830677Y-71801785D01*
X174830677Y-71801785D02*
X174861153Y-71771309D01*
X174861153Y-71771309D02*
X174891629Y-71756071D01*
X174891629Y-71756071D02*
X174952581Y-71740833D01*
X174952581Y-71740833D02*
X174998296Y-71740833D01*
X174998296Y-71740833D02*
X175059248Y-71756071D01*
X175059248Y-71756071D02*
X175089724Y-71771309D01*
X175089724Y-71771309D02*
X175120201Y-71801785D01*
X175120201Y-71801785D02*
X175135439Y-71847500D01*
X175135439Y-71847500D02*
X175135439Y-71923690D01*
X174952581Y-71557976D02*
X174937343Y-71588452D01*
X174937343Y-71588452D02*
X174922105Y-71603690D01*
X174922105Y-71603690D02*
X174891629Y-71618928D01*
X174891629Y-71618928D02*
X174876391Y-71618928D01*
X174876391Y-71618928D02*
X174845915Y-71603690D01*
X174845915Y-71603690D02*
X174830677Y-71588452D01*
X174830677Y-71588452D02*
X174815439Y-71557976D01*
X174815439Y-71557976D02*
X174815439Y-71497023D01*
X174815439Y-71497023D02*
X174830677Y-71466547D01*
X174830677Y-71466547D02*
X174845915Y-71451309D01*
X174845915Y-71451309D02*
X174876391Y-71436071D01*
X174876391Y-71436071D02*
X174891629Y-71436071D01*
X174891629Y-71436071D02*
X174922105Y-71451309D01*
X174922105Y-71451309D02*
X174937343Y-71466547D01*
X174937343Y-71466547D02*
X174952581Y-71497023D01*
X174952581Y-71497023D02*
X174952581Y-71557976D01*
X174952581Y-71557976D02*
X174967820Y-71588452D01*
X174967820Y-71588452D02*
X174983058Y-71603690D01*
X174983058Y-71603690D02*
X175013534Y-71618928D01*
X175013534Y-71618928D02*
X175074486Y-71618928D01*
X175074486Y-71618928D02*
X175104962Y-71603690D01*
X175104962Y-71603690D02*
X175120201Y-71588452D01*
X175120201Y-71588452D02*
X175135439Y-71557976D01*
X175135439Y-71557976D02*
X175135439Y-71497023D01*
X175135439Y-71497023D02*
X175120201Y-71466547D01*
X175120201Y-71466547D02*
X175104962Y-71451309D01*
X175104962Y-71451309D02*
X175074486Y-71436071D01*
X175074486Y-71436071D02*
X175013534Y-71436071D01*
X175013534Y-71436071D02*
X174983058Y-71451309D01*
X174983058Y-71451309D02*
X174967820Y-71466547D01*
X174967820Y-71466547D02*
X174952581Y-71497023D01*
D13*
X143476666Y-71219819D02*
X143476666Y-71934104D01*
X143476666Y-71934104D02*
X143429047Y-72076961D01*
X143429047Y-72076961D02*
X143333809Y-72172200D01*
X143333809Y-72172200D02*
X143190952Y-72219819D01*
X143190952Y-72219819D02*
X143095714Y-72219819D01*
X144476666Y-72219819D02*
X143905238Y-72219819D01*
X144190952Y-72219819D02*
X144190952Y-71219819D01*
X144190952Y-71219819D02*
X144095714Y-71362676D01*
X144095714Y-71362676D02*
X144000476Y-71457914D01*
X144000476Y-71457914D02*
X143905238Y-71505533D01*
D14*
X187562409Y-84015238D02*
X187324314Y-84181904D01*
X187562409Y-84300952D02*
X187062409Y-84300952D01*
X187062409Y-84300952D02*
X187062409Y-84110476D01*
X187062409Y-84110476D02*
X187086219Y-84062857D01*
X187086219Y-84062857D02*
X187110028Y-84039047D01*
X187110028Y-84039047D02*
X187157647Y-84015238D01*
X187157647Y-84015238D02*
X187229076Y-84015238D01*
X187229076Y-84015238D02*
X187276695Y-84039047D01*
X187276695Y-84039047D02*
X187300504Y-84062857D01*
X187300504Y-84062857D02*
X187324314Y-84110476D01*
X187324314Y-84110476D02*
X187324314Y-84300952D01*
X187562409Y-83800952D02*
X187062409Y-83800952D01*
X187062409Y-83800952D02*
X187562409Y-83515238D01*
X187562409Y-83515238D02*
X187062409Y-83515238D01*
X187562409Y-83015237D02*
X187562409Y-83300951D01*
X187562409Y-83158094D02*
X187062409Y-83158094D01*
X187062409Y-83158094D02*
X187133838Y-83205713D01*
X187133838Y-83205713D02*
X187181457Y-83253332D01*
X187181457Y-83253332D02*
X187205266Y-83300951D01*
D13*
X191231666Y-75994820D02*
X191231666Y-76709105D01*
X191231666Y-76709105D02*
X191184047Y-76851962D01*
X191184047Y-76851962D02*
X191088809Y-76947201D01*
X191088809Y-76947201D02*
X190945952Y-76994820D01*
X190945952Y-76994820D02*
X190850714Y-76994820D01*
X192184047Y-75994820D02*
X191707857Y-75994820D01*
X191707857Y-75994820D02*
X191660238Y-76471010D01*
X191660238Y-76471010D02*
X191707857Y-76423391D01*
X191707857Y-76423391D02*
X191803095Y-76375772D01*
X191803095Y-76375772D02*
X192041190Y-76375772D01*
X192041190Y-76375772D02*
X192136428Y-76423391D01*
X192136428Y-76423391D02*
X192184047Y-76471010D01*
X192184047Y-76471010D02*
X192231666Y-76566248D01*
X192231666Y-76566248D02*
X192231666Y-76804343D01*
X192231666Y-76804343D02*
X192184047Y-76899581D01*
X192184047Y-76899581D02*
X192136428Y-76947201D01*
X192136428Y-76947201D02*
X192041190Y-76994820D01*
X192041190Y-76994820D02*
X191803095Y-76994820D01*
X191803095Y-76994820D02*
X191707857Y-76947201D01*
X191707857Y-76947201D02*
X191660238Y-76899581D01*
X143391666Y-84414819D02*
X143391666Y-85129104D01*
X143391666Y-85129104D02*
X143344047Y-85271961D01*
X143344047Y-85271961D02*
X143248809Y-85367200D01*
X143248809Y-85367200D02*
X143105952Y-85414819D01*
X143105952Y-85414819D02*
X143010714Y-85414819D01*
X143772619Y-84414819D02*
X144439285Y-84414819D01*
X144439285Y-84414819D02*
X144010714Y-85414819D01*
D12*
X141055760Y-97006667D02*
X141093855Y-96892381D01*
X141093855Y-96892381D02*
X141093855Y-96701905D01*
X141093855Y-96701905D02*
X141055760Y-96625714D01*
X141055760Y-96625714D02*
X141017664Y-96587619D01*
X141017664Y-96587619D02*
X140941474Y-96549524D01*
X140941474Y-96549524D02*
X140865283Y-96549524D01*
X140865283Y-96549524D02*
X140789093Y-96587619D01*
X140789093Y-96587619D02*
X140750998Y-96625714D01*
X140750998Y-96625714D02*
X140712902Y-96701905D01*
X140712902Y-96701905D02*
X140674807Y-96854286D01*
X140674807Y-96854286D02*
X140636712Y-96930476D01*
X140636712Y-96930476D02*
X140598617Y-96968571D01*
X140598617Y-96968571D02*
X140522426Y-97006667D01*
X140522426Y-97006667D02*
X140446236Y-97006667D01*
X140446236Y-97006667D02*
X140370045Y-96968571D01*
X140370045Y-96968571D02*
X140331950Y-96930476D01*
X140331950Y-96930476D02*
X140293855Y-96854286D01*
X140293855Y-96854286D02*
X140293855Y-96663809D01*
X140293855Y-96663809D02*
X140331950Y-96549524D01*
X140293855Y-96282857D02*
X141093855Y-96092381D01*
X141093855Y-96092381D02*
X140522426Y-95940000D01*
X140522426Y-95940000D02*
X141093855Y-95787619D01*
X141093855Y-95787619D02*
X140293855Y-95597143D01*
X140560521Y-94949523D02*
X141093855Y-94949523D01*
X140255760Y-95139999D02*
X140827188Y-95330476D01*
X140827188Y-95330476D02*
X140827188Y-94835237D01*
X142215951Y-101611355D02*
X142139761Y-101573260D01*
X142139761Y-101573260D02*
X142101666Y-101535164D01*
X142101666Y-101535164D02*
X142063570Y-101458974D01*
X142063570Y-101458974D02*
X142063570Y-101230402D01*
X142063570Y-101230402D02*
X142101666Y-101154212D01*
X142101666Y-101154212D02*
X142139761Y-101116117D01*
X142139761Y-101116117D02*
X142215951Y-101078021D01*
X142215951Y-101078021D02*
X142330237Y-101078021D01*
X142330237Y-101078021D02*
X142406428Y-101116117D01*
X142406428Y-101116117D02*
X142444523Y-101154212D01*
X142444523Y-101154212D02*
X142482618Y-101230402D01*
X142482618Y-101230402D02*
X142482618Y-101458974D01*
X142482618Y-101458974D02*
X142444523Y-101535164D01*
X142444523Y-101535164D02*
X142406428Y-101573260D01*
X142406428Y-101573260D02*
X142330237Y-101611355D01*
X142330237Y-101611355D02*
X142215951Y-101611355D01*
X142825476Y-101078021D02*
X142825476Y-101611355D01*
X142825476Y-101154212D02*
X142863571Y-101116117D01*
X142863571Y-101116117D02*
X142939761Y-101078021D01*
X142939761Y-101078021D02*
X143054047Y-101078021D01*
X143054047Y-101078021D02*
X143130238Y-101116117D01*
X143130238Y-101116117D02*
X143168333Y-101192307D01*
X143168333Y-101192307D02*
X143168333Y-101611355D01*
D11*
X171933832Y-71566666D02*
X171952880Y-71585714D01*
X171952880Y-71585714D02*
X171971927Y-71642856D01*
X171971927Y-71642856D02*
X171971927Y-71680952D01*
X171971927Y-71680952D02*
X171952880Y-71738095D01*
X171952880Y-71738095D02*
X171914784Y-71776190D01*
X171914784Y-71776190D02*
X171876689Y-71795237D01*
X171876689Y-71795237D02*
X171800499Y-71814285D01*
X171800499Y-71814285D02*
X171743356Y-71814285D01*
X171743356Y-71814285D02*
X171667165Y-71795237D01*
X171667165Y-71795237D02*
X171629070Y-71776190D01*
X171629070Y-71776190D02*
X171590975Y-71738095D01*
X171590975Y-71738095D02*
X171571927Y-71680952D01*
X171571927Y-71680952D02*
X171571927Y-71642856D01*
X171571927Y-71642856D02*
X171590975Y-71585714D01*
X171590975Y-71585714D02*
X171610022Y-71566666D01*
X171571927Y-71433333D02*
X171571927Y-71166666D01*
X171571927Y-71166666D02*
X171971927Y-71338095D01*
D12*
X192280951Y-86786355D02*
X192204761Y-86748260D01*
X192204761Y-86748260D02*
X192166666Y-86710164D01*
X192166666Y-86710164D02*
X192128570Y-86633974D01*
X192128570Y-86633974D02*
X192128570Y-86405402D01*
X192128570Y-86405402D02*
X192166666Y-86329212D01*
X192166666Y-86329212D02*
X192204761Y-86291117D01*
X192204761Y-86291117D02*
X192280951Y-86253021D01*
X192280951Y-86253021D02*
X192395237Y-86253021D01*
X192395237Y-86253021D02*
X192471428Y-86291117D01*
X192471428Y-86291117D02*
X192509523Y-86329212D01*
X192509523Y-86329212D02*
X192547618Y-86405402D01*
X192547618Y-86405402D02*
X192547618Y-86633974D01*
X192547618Y-86633974D02*
X192509523Y-86710164D01*
X192509523Y-86710164D02*
X192471428Y-86748260D01*
X192471428Y-86748260D02*
X192395237Y-86786355D01*
X192395237Y-86786355D02*
X192280951Y-86786355D01*
X192890476Y-86253021D02*
X192890476Y-86786355D01*
X192890476Y-86329212D02*
X192928571Y-86291117D01*
X192928571Y-86291117D02*
X193004761Y-86253021D01*
X193004761Y-86253021D02*
X193119047Y-86253021D01*
X193119047Y-86253021D02*
X193195238Y-86291117D01*
X193195238Y-86291117D02*
X193233333Y-86367307D01*
X193233333Y-86367307D02*
X193233333Y-86786355D01*
X194930760Y-92796666D02*
X194968855Y-92682380D01*
X194968855Y-92682380D02*
X194968855Y-92491904D01*
X194968855Y-92491904D02*
X194930760Y-92415713D01*
X194930760Y-92415713D02*
X194892664Y-92377618D01*
X194892664Y-92377618D02*
X194816474Y-92339523D01*
X194816474Y-92339523D02*
X194740283Y-92339523D01*
X194740283Y-92339523D02*
X194664093Y-92377618D01*
X194664093Y-92377618D02*
X194625998Y-92415713D01*
X194625998Y-92415713D02*
X194587902Y-92491904D01*
X194587902Y-92491904D02*
X194549807Y-92644285D01*
X194549807Y-92644285D02*
X194511712Y-92720475D01*
X194511712Y-92720475D02*
X194473617Y-92758570D01*
X194473617Y-92758570D02*
X194397426Y-92796666D01*
X194397426Y-92796666D02*
X194321236Y-92796666D01*
X194321236Y-92796666D02*
X194245045Y-92758570D01*
X194245045Y-92758570D02*
X194206950Y-92720475D01*
X194206950Y-92720475D02*
X194168855Y-92644285D01*
X194168855Y-92644285D02*
X194168855Y-92453808D01*
X194168855Y-92453808D02*
X194206950Y-92339523D01*
X194168855Y-92072856D02*
X194968855Y-91882380D01*
X194968855Y-91882380D02*
X194397426Y-91729999D01*
X194397426Y-91729999D02*
X194968855Y-91577618D01*
X194968855Y-91577618D02*
X194168855Y-91387142D01*
X194245045Y-91120475D02*
X194206950Y-91082379D01*
X194206950Y-91082379D02*
X194168855Y-91006189D01*
X194168855Y-91006189D02*
X194168855Y-90815713D01*
X194168855Y-90815713D02*
X194206950Y-90739522D01*
X194206950Y-90739522D02*
X194245045Y-90701427D01*
X194245045Y-90701427D02*
X194321236Y-90663332D01*
X194321236Y-90663332D02*
X194397426Y-90663332D01*
X194397426Y-90663332D02*
X194511712Y-90701427D01*
X194511712Y-90701427D02*
X194968855Y-91158570D01*
X194968855Y-91158570D02*
X194968855Y-90663332D01*
D11*
X178183833Y-71541666D02*
X178202881Y-71560714D01*
X178202881Y-71560714D02*
X178221928Y-71617856D01*
X178221928Y-71617856D02*
X178221928Y-71655952D01*
X178221928Y-71655952D02*
X178202881Y-71713095D01*
X178202881Y-71713095D02*
X178164785Y-71751190D01*
X178164785Y-71751190D02*
X178126690Y-71770237D01*
X178126690Y-71770237D02*
X178050500Y-71789285D01*
X178050500Y-71789285D02*
X177993357Y-71789285D01*
X177993357Y-71789285D02*
X177917166Y-71770237D01*
X177917166Y-71770237D02*
X177879071Y-71751190D01*
X177879071Y-71751190D02*
X177840976Y-71713095D01*
X177840976Y-71713095D02*
X177821928Y-71655952D01*
X177821928Y-71655952D02*
X177821928Y-71617856D01*
X177821928Y-71617856D02*
X177840976Y-71560714D01*
X177840976Y-71560714D02*
X177860023Y-71541666D01*
X177821928Y-71198809D02*
X177821928Y-71274999D01*
X177821928Y-71274999D02*
X177840976Y-71313095D01*
X177840976Y-71313095D02*
X177860023Y-71332142D01*
X177860023Y-71332142D02*
X177917166Y-71370237D01*
X177917166Y-71370237D02*
X177993357Y-71389285D01*
X177993357Y-71389285D02*
X178145738Y-71389285D01*
X178145738Y-71389285D02*
X178183833Y-71370237D01*
X178183833Y-71370237D02*
X178202881Y-71351190D01*
X178202881Y-71351190D02*
X178221928Y-71313095D01*
X178221928Y-71313095D02*
X178221928Y-71236904D01*
X178221928Y-71236904D02*
X178202881Y-71198809D01*
X178202881Y-71198809D02*
X178183833Y-71179761D01*
X178183833Y-71179761D02*
X178145738Y-71160714D01*
X178145738Y-71160714D02*
X178050500Y-71160714D01*
X178050500Y-71160714D02*
X178012404Y-71179761D01*
X178012404Y-71179761D02*
X177993357Y-71198809D01*
X177993357Y-71198809D02*
X177974309Y-71236904D01*
X177974309Y-71236904D02*
X177974309Y-71313095D01*
X177974309Y-71313095D02*
X177993357Y-71351190D01*
X177993357Y-71351190D02*
X178012404Y-71370237D01*
X178012404Y-71370237D02*
X178050500Y-71389285D01*
D14*
X180989762Y-97397409D02*
X180823096Y-97159314D01*
X180704048Y-97397409D02*
X180704048Y-96897409D01*
X180704048Y-96897409D02*
X180894524Y-96897409D01*
X180894524Y-96897409D02*
X180942143Y-96921219D01*
X180942143Y-96921219D02*
X180965953Y-96945028D01*
X180965953Y-96945028D02*
X180989762Y-96992647D01*
X180989762Y-96992647D02*
X180989762Y-97064076D01*
X180989762Y-97064076D02*
X180965953Y-97111695D01*
X180965953Y-97111695D02*
X180942143Y-97135504D01*
X180942143Y-97135504D02*
X180894524Y-97159314D01*
X180894524Y-97159314D02*
X180704048Y-97159314D01*
X181204048Y-97397409D02*
X181204048Y-96897409D01*
X181204048Y-96897409D02*
X181489762Y-97397409D01*
X181489762Y-97397409D02*
X181489762Y-96897409D01*
X181942144Y-97064076D02*
X181942144Y-97397409D01*
X181823096Y-96873600D02*
X181704049Y-97230742D01*
X181704049Y-97230742D02*
X182013572Y-97230742D01*
X153654761Y-90727409D02*
X153488095Y-90489314D01*
X153369047Y-90727409D02*
X153369047Y-90227409D01*
X153369047Y-90227409D02*
X153559523Y-90227409D01*
X153559523Y-90227409D02*
X153607142Y-90251219D01*
X153607142Y-90251219D02*
X153630952Y-90275028D01*
X153630952Y-90275028D02*
X153654761Y-90322647D01*
X153654761Y-90322647D02*
X153654761Y-90394076D01*
X153654761Y-90394076D02*
X153630952Y-90441695D01*
X153630952Y-90441695D02*
X153607142Y-90465504D01*
X153607142Y-90465504D02*
X153559523Y-90489314D01*
X153559523Y-90489314D02*
X153369047Y-90489314D01*
X153869047Y-90727409D02*
X153869047Y-90227409D01*
X153869047Y-90227409D02*
X154154761Y-90727409D01*
X154154761Y-90727409D02*
X154154761Y-90227409D01*
X154607143Y-90227409D02*
X154511905Y-90227409D01*
X154511905Y-90227409D02*
X154464286Y-90251219D01*
X154464286Y-90251219D02*
X154440476Y-90275028D01*
X154440476Y-90275028D02*
X154392857Y-90346457D01*
X154392857Y-90346457D02*
X154369048Y-90441695D01*
X154369048Y-90441695D02*
X154369048Y-90632171D01*
X154369048Y-90632171D02*
X154392857Y-90679790D01*
X154392857Y-90679790D02*
X154416667Y-90703600D01*
X154416667Y-90703600D02*
X154464286Y-90727409D01*
X154464286Y-90727409D02*
X154559524Y-90727409D01*
X154559524Y-90727409D02*
X154607143Y-90703600D01*
X154607143Y-90703600D02*
X154630952Y-90679790D01*
X154630952Y-90679790D02*
X154654762Y-90632171D01*
X154654762Y-90632171D02*
X154654762Y-90513123D01*
X154654762Y-90513123D02*
X154630952Y-90465504D01*
X154630952Y-90465504D02*
X154607143Y-90441695D01*
X154607143Y-90441695D02*
X154559524Y-90417885D01*
X154559524Y-90417885D02*
X154464286Y-90417885D01*
X154464286Y-90417885D02*
X154416667Y-90441695D01*
X154416667Y-90441695D02*
X154392857Y-90465504D01*
X154392857Y-90465504D02*
X154369048Y-90513123D01*
D13*
X182309820Y-86018333D02*
X183024105Y-86018333D01*
X183024105Y-86018333D02*
X183166962Y-86065952D01*
X183166962Y-86065952D02*
X183262201Y-86161190D01*
X183262201Y-86161190D02*
X183309820Y-86304047D01*
X183309820Y-86304047D02*
X183309820Y-86399285D01*
X182405058Y-85589761D02*
X182357439Y-85542142D01*
X182357439Y-85542142D02*
X182309820Y-85446904D01*
X182309820Y-85446904D02*
X182309820Y-85208809D01*
X182309820Y-85208809D02*
X182357439Y-85113571D01*
X182357439Y-85113571D02*
X182405058Y-85065952D01*
X182405058Y-85065952D02*
X182500296Y-85018333D01*
X182500296Y-85018333D02*
X182595534Y-85018333D01*
X182595534Y-85018333D02*
X182738391Y-85065952D01*
X182738391Y-85065952D02*
X183309820Y-85637380D01*
X183309820Y-85637380D02*
X183309820Y-85018333D01*
D10*
X172318690Y-80075438D02*
X172318690Y-80334485D01*
X172318690Y-80334485D02*
X172333928Y-80364961D01*
X172333928Y-80364961D02*
X172349166Y-80380200D01*
X172349166Y-80380200D02*
X172379642Y-80395438D01*
X172379642Y-80395438D02*
X172440595Y-80395438D01*
X172440595Y-80395438D02*
X172471071Y-80380200D01*
X172471071Y-80380200D02*
X172486309Y-80364961D01*
X172486309Y-80364961D02*
X172501547Y-80334485D01*
X172501547Y-80334485D02*
X172501547Y-80075438D01*
X172638690Y-80105914D02*
X172653928Y-80090676D01*
X172653928Y-80090676D02*
X172684404Y-80075438D01*
X172684404Y-80075438D02*
X172760595Y-80075438D01*
X172760595Y-80075438D02*
X172791071Y-80090676D01*
X172791071Y-80090676D02*
X172806309Y-80105914D01*
X172806309Y-80105914D02*
X172821547Y-80136390D01*
X172821547Y-80136390D02*
X172821547Y-80166866D01*
X172821547Y-80166866D02*
X172806309Y-80212580D01*
X172806309Y-80212580D02*
X172623452Y-80395438D01*
X172623452Y-80395438D02*
X172821547Y-80395438D01*
D16*
X151916665Y-78047700D02*
X151845237Y-78023890D01*
X151845237Y-78023890D02*
X151726189Y-78023890D01*
X151726189Y-78023890D02*
X151678570Y-78047700D01*
X151678570Y-78047700D02*
X151654761Y-78071509D01*
X151654761Y-78071509D02*
X151630951Y-78119128D01*
X151630951Y-78119128D02*
X151630951Y-78166747D01*
X151630951Y-78166747D02*
X151654761Y-78214366D01*
X151654761Y-78214366D02*
X151678570Y-78238176D01*
X151678570Y-78238176D02*
X151726189Y-78261985D01*
X151726189Y-78261985D02*
X151821427Y-78285795D01*
X151821427Y-78285795D02*
X151869046Y-78309604D01*
X151869046Y-78309604D02*
X151892856Y-78333414D01*
X151892856Y-78333414D02*
X151916665Y-78381033D01*
X151916665Y-78381033D02*
X151916665Y-78428652D01*
X151916665Y-78428652D02*
X151892856Y-78476271D01*
X151892856Y-78476271D02*
X151869046Y-78500080D01*
X151869046Y-78500080D02*
X151821427Y-78523890D01*
X151821427Y-78523890D02*
X151702380Y-78523890D01*
X151702380Y-78523890D02*
X151630951Y-78500080D01*
X151464285Y-78523890D02*
X151345237Y-78023890D01*
X151345237Y-78023890D02*
X151249999Y-78381033D01*
X151249999Y-78381033D02*
X151154761Y-78023890D01*
X151154761Y-78023890D02*
X151035714Y-78523890D01*
X150583332Y-78023890D02*
X150869046Y-78023890D01*
X150726189Y-78023890D02*
X150726189Y-78523890D01*
X150726189Y-78523890D02*
X150773808Y-78452461D01*
X150773808Y-78452461D02*
X150821427Y-78404842D01*
X150821427Y-78404842D02*
X150869046Y-78381033D01*
D11*
X163643832Y-90066666D02*
X163662880Y-90085714D01*
X163662880Y-90085714D02*
X163681927Y-90142856D01*
X163681927Y-90142856D02*
X163681927Y-90180952D01*
X163681927Y-90180952D02*
X163662880Y-90238095D01*
X163662880Y-90238095D02*
X163624784Y-90276190D01*
X163624784Y-90276190D02*
X163586689Y-90295237D01*
X163586689Y-90295237D02*
X163510499Y-90314285D01*
X163510499Y-90314285D02*
X163453356Y-90314285D01*
X163453356Y-90314285D02*
X163377165Y-90295237D01*
X163377165Y-90295237D02*
X163339070Y-90276190D01*
X163339070Y-90276190D02*
X163300975Y-90238095D01*
X163300975Y-90238095D02*
X163281927Y-90180952D01*
X163281927Y-90180952D02*
X163281927Y-90142856D01*
X163281927Y-90142856D02*
X163300975Y-90085714D01*
X163300975Y-90085714D02*
X163320022Y-90066666D01*
X163681927Y-89876190D02*
X163681927Y-89799999D01*
X163681927Y-89799999D02*
X163662880Y-89761904D01*
X163662880Y-89761904D02*
X163643832Y-89742856D01*
X163643832Y-89742856D02*
X163586689Y-89704761D01*
X163586689Y-89704761D02*
X163510499Y-89685714D01*
X163510499Y-89685714D02*
X163358118Y-89685714D01*
X163358118Y-89685714D02*
X163320022Y-89704761D01*
X163320022Y-89704761D02*
X163300975Y-89723809D01*
X163300975Y-89723809D02*
X163281927Y-89761904D01*
X163281927Y-89761904D02*
X163281927Y-89838095D01*
X163281927Y-89838095D02*
X163300975Y-89876190D01*
X163300975Y-89876190D02*
X163320022Y-89895237D01*
X163320022Y-89895237D02*
X163358118Y-89914285D01*
X163358118Y-89914285D02*
X163453356Y-89914285D01*
X163453356Y-89914285D02*
X163491451Y-89895237D01*
X163491451Y-89895237D02*
X163510499Y-89876190D01*
X163510499Y-89876190D02*
X163529546Y-89838095D01*
X163529546Y-89838095D02*
X163529546Y-89761904D01*
X163529546Y-89761904D02*
X163510499Y-89723809D01*
X163510499Y-89723809D02*
X163491451Y-89704761D01*
X163491451Y-89704761D02*
X163453356Y-89685714D01*
D13*
X173665596Y-66404819D02*
X173665596Y-67214342D01*
X173665596Y-67214342D02*
X173713215Y-67309580D01*
X173713215Y-67309580D02*
X173760834Y-67357200D01*
X173760834Y-67357200D02*
X173856072Y-67404819D01*
X173856072Y-67404819D02*
X174046548Y-67404819D01*
X174046548Y-67404819D02*
X174141786Y-67357200D01*
X174141786Y-67357200D02*
X174189405Y-67309580D01*
X174189405Y-67309580D02*
X174237024Y-67214342D01*
X174237024Y-67214342D02*
X174237024Y-66404819D01*
X175141786Y-66738152D02*
X175141786Y-67404819D01*
X174903691Y-66357200D02*
X174665596Y-67071485D01*
X174665596Y-67071485D02*
X175284643Y-67071485D01*
X173710596Y-92574819D02*
X173710596Y-93384342D01*
X173710596Y-93384342D02*
X173758215Y-93479580D01*
X173758215Y-93479580D02*
X173805834Y-93527200D01*
X173805834Y-93527200D02*
X173901072Y-93574819D01*
X173901072Y-93574819D02*
X174091548Y-93574819D01*
X174091548Y-93574819D02*
X174186786Y-93527200D01*
X174186786Y-93527200D02*
X174234405Y-93479580D01*
X174234405Y-93479580D02*
X174282024Y-93384342D01*
X174282024Y-93384342D02*
X174282024Y-92574819D01*
X174662977Y-92574819D02*
X175282024Y-92574819D01*
X175282024Y-92574819D02*
X174948691Y-92955771D01*
X174948691Y-92955771D02*
X175091548Y-92955771D01*
X175091548Y-92955771D02*
X175186786Y-93003390D01*
X175186786Y-93003390D02*
X175234405Y-93051009D01*
X175234405Y-93051009D02*
X175282024Y-93146247D01*
X175282024Y-93146247D02*
X175282024Y-93384342D01*
X175282024Y-93384342D02*
X175234405Y-93479580D01*
X175234405Y-93479580D02*
X175186786Y-93527200D01*
X175186786Y-93527200D02*
X175091548Y-93574819D01*
X175091548Y-93574819D02*
X174805834Y-93574819D01*
X174805834Y-93574819D02*
X174710596Y-93527200D01*
X174710596Y-93527200D02*
X174662977Y-93479580D01*
X191276666Y-102164820D02*
X191276666Y-102879105D01*
X191276666Y-102879105D02*
X191229047Y-103021962D01*
X191229047Y-103021962D02*
X191133809Y-103117201D01*
X191133809Y-103117201D02*
X190990952Y-103164820D01*
X190990952Y-103164820D02*
X190895714Y-103164820D01*
X191657619Y-102164820D02*
X192276666Y-102164820D01*
X192276666Y-102164820D02*
X191943333Y-102545772D01*
X191943333Y-102545772D02*
X192086190Y-102545772D01*
X192086190Y-102545772D02*
X192181428Y-102593391D01*
X192181428Y-102593391D02*
X192229047Y-102641010D01*
X192229047Y-102641010D02*
X192276666Y-102736248D01*
X192276666Y-102736248D02*
X192276666Y-102974343D01*
X192276666Y-102974343D02*
X192229047Y-103069581D01*
X192229047Y-103069581D02*
X192181428Y-103117201D01*
X192181428Y-103117201D02*
X192086190Y-103164820D01*
X192086190Y-103164820D02*
X191800476Y-103164820D01*
X191800476Y-103164820D02*
X191705238Y-103117201D01*
X191705238Y-103117201D02*
X191657619Y-103069581D01*
D11*
X178228833Y-97711666D02*
X178247881Y-97730714D01*
X178247881Y-97730714D02*
X178266928Y-97787856D01*
X178266928Y-97787856D02*
X178266928Y-97825952D01*
X178266928Y-97825952D02*
X178247881Y-97883095D01*
X178247881Y-97883095D02*
X178209785Y-97921190D01*
X178209785Y-97921190D02*
X178171690Y-97940237D01*
X178171690Y-97940237D02*
X178095500Y-97959285D01*
X178095500Y-97959285D02*
X178038357Y-97959285D01*
X178038357Y-97959285D02*
X177962166Y-97940237D01*
X177962166Y-97940237D02*
X177924071Y-97921190D01*
X177924071Y-97921190D02*
X177885976Y-97883095D01*
X177885976Y-97883095D02*
X177866928Y-97825952D01*
X177866928Y-97825952D02*
X177866928Y-97787856D01*
X177866928Y-97787856D02*
X177885976Y-97730714D01*
X177885976Y-97730714D02*
X177905023Y-97711666D01*
X178000261Y-97368809D02*
X178266928Y-97368809D01*
X177847881Y-97464047D02*
X178133595Y-97559285D01*
X178133595Y-97559285D02*
X178133595Y-97311666D01*
D16*
%TO.C,D7*%
X173585001Y-97207500D02*
X176160001Y-97207500D01*
X173585001Y-98507500D02*
X173585001Y-97207500D01*
X176160001Y-97207500D02*
X176485001Y-97532500D01*
X176485001Y-97532500D02*
X176485001Y-98507500D01*
X176485001Y-98507500D02*
X173585001Y-98507500D01*
%TO.C,C5*%
X171435000Y-96870000D02*
X172235000Y-96870000D01*
X171435000Y-98470000D02*
X171435000Y-96870000D01*
X172235000Y-96870000D02*
X172235000Y-98470000D01*
X172235000Y-98470000D02*
X171435000Y-98470000D01*
%TO.C,SW3*%
X186210000Y-60390000D02*
X187210000Y-59390000D01*
X186210000Y-71730000D02*
X186210000Y-60390000D01*
X187210000Y-59390000D02*
X195990000Y-59390000D01*
X189070000Y-61115000D02*
X189070000Y-62385000D01*
X189070000Y-61215000D02*
X190423333Y-61215000D01*
X189070000Y-61315000D02*
X190423333Y-61315000D01*
X189070000Y-61415000D02*
X190423333Y-61415000D01*
X189070000Y-61515000D02*
X190423333Y-61515000D01*
X189070000Y-61615000D02*
X190423333Y-61615000D01*
X189070000Y-61715000D02*
X190423333Y-61715000D01*
X189070000Y-61815000D02*
X190423333Y-61815000D01*
X189070000Y-61915000D02*
X190423333Y-61915000D01*
X189070000Y-62015000D02*
X190423333Y-62015000D01*
X189070000Y-62115000D02*
X190423333Y-62115000D01*
X189070000Y-62215000D02*
X190423333Y-62215000D01*
X189070000Y-62315000D02*
X190423333Y-62315000D01*
X189070000Y-62385000D02*
X193130000Y-62385000D01*
X189070000Y-63655000D02*
X189070000Y-64925000D01*
X189070000Y-63755000D02*
X190423333Y-63755000D01*
X189070000Y-63855000D02*
X190423333Y-63855000D01*
X189070000Y-63955000D02*
X190423333Y-63955000D01*
X189070000Y-64055000D02*
X190423333Y-64055000D01*
X189070000Y-64155000D02*
X190423333Y-64155000D01*
X189070000Y-64255000D02*
X190423333Y-64255000D01*
X189070000Y-64355000D02*
X190423333Y-64355000D01*
X189070000Y-64455000D02*
X190423333Y-64455000D01*
X189070000Y-64555000D02*
X190423333Y-64555000D01*
X189070000Y-64655000D02*
X190423333Y-64655000D01*
X189070000Y-64755000D02*
X190423333Y-64755000D01*
X189070000Y-64855000D02*
X190423333Y-64855000D01*
X189070000Y-64925000D02*
X193130000Y-64925000D01*
X189070000Y-66195000D02*
X189070000Y-67465000D01*
X189070000Y-66295000D02*
X190423333Y-66295000D01*
X189070000Y-66395000D02*
X190423333Y-66395000D01*
X189070000Y-66495000D02*
X190423333Y-66495000D01*
X189070000Y-66595000D02*
X190423333Y-66595000D01*
X189070000Y-66695000D02*
X190423333Y-66695000D01*
X189070000Y-66795000D02*
X190423333Y-66795000D01*
X189070000Y-66895000D02*
X190423333Y-66895000D01*
X189070000Y-66995000D02*
X190423333Y-66995000D01*
X189070000Y-67095000D02*
X190423333Y-67095000D01*
X189070000Y-67195000D02*
X190423333Y-67195000D01*
X189070000Y-67295000D02*
X190423333Y-67295000D01*
X189070000Y-67395000D02*
X190423333Y-67395000D01*
X189070000Y-67465000D02*
X193130000Y-67465000D01*
X189070000Y-68735000D02*
X189070000Y-70005000D01*
X189070000Y-68835000D02*
X190423333Y-68835000D01*
X189070000Y-68935000D02*
X190423333Y-68935000D01*
X189070000Y-69035000D02*
X190423333Y-69035000D01*
X189070000Y-69135000D02*
X190423333Y-69135000D01*
X189070000Y-69235000D02*
X190423333Y-69235000D01*
X189070000Y-69335000D02*
X190423333Y-69335000D01*
X189070000Y-69435000D02*
X190423333Y-69435000D01*
X189070000Y-69535000D02*
X190423333Y-69535000D01*
X189070000Y-69635000D02*
X190423333Y-69635000D01*
X189070000Y-69735000D02*
X190423333Y-69735000D01*
X189070000Y-69835000D02*
X190423333Y-69835000D01*
X189070000Y-69935000D02*
X190423333Y-69935000D01*
X189070000Y-70005000D02*
X193130000Y-70005000D01*
X190423333Y-61115000D02*
X190423333Y-62385000D01*
X190423333Y-63655000D02*
X190423333Y-64925000D01*
X190423333Y-66195000D02*
X190423333Y-67465000D01*
X190423333Y-68735000D02*
X190423333Y-70005000D01*
X193130000Y-61115000D02*
X189070000Y-61115000D01*
X193130000Y-62385000D02*
X193130000Y-61115000D01*
X193130000Y-63655000D02*
X189070000Y-63655000D01*
X193130000Y-64925000D02*
X193130000Y-63655000D01*
X193130000Y-66195000D02*
X189070000Y-66195000D01*
X193130000Y-67465000D02*
X193130000Y-66195000D01*
X193130000Y-68735000D02*
X189070000Y-68735000D01*
X193130000Y-70005000D02*
X193130000Y-68735000D01*
X195990000Y-59390000D02*
X195990000Y-71730000D01*
X195990000Y-71730000D02*
X186210000Y-71730000D01*
%TO.C,D4*%
X173685001Y-87582500D02*
X176585001Y-87582500D01*
X173685001Y-88557500D02*
X173685001Y-87582500D01*
X174010001Y-88882500D02*
X173685001Y-88557500D01*
X176585001Y-87582500D02*
X176585001Y-88882500D01*
X176585001Y-88882500D02*
X174010001Y-88882500D01*
%TO.C,D5*%
X173640001Y-61412500D02*
X176540001Y-61412500D01*
X173640001Y-62387500D02*
X173640001Y-61412500D01*
X173965001Y-62712500D02*
X173640001Y-62387500D01*
X176540001Y-61412500D02*
X176540001Y-62712500D01*
X176540001Y-62712500D02*
X173965001Y-62712500D01*
%TO.C,J11*%
X156230000Y-106230000D02*
X158770000Y-106230000D01*
X156230000Y-108770000D02*
X156230000Y-106230000D01*
X158135000Y-108770000D02*
X156230000Y-108770000D01*
X158770000Y-106230000D02*
X158770000Y-108135000D01*
X158770000Y-108135000D02*
X158135000Y-108770000D01*
%TO.C,C1*%
X160975000Y-80500000D02*
X161775000Y-80500000D01*
X160975000Y-82100000D02*
X160975000Y-80500000D01*
X161775000Y-80500000D02*
X161775000Y-82100000D01*
X161775000Y-82100000D02*
X160975000Y-82100000D01*
%TO.C,C2*%
X163550000Y-78550000D02*
X165150000Y-78550000D01*
X163550000Y-79350000D02*
X163550000Y-78550000D01*
X165150000Y-78550000D02*
X165150000Y-79350000D01*
X165150000Y-79350000D02*
X163550000Y-79350000D01*
%TO.C,D9*%
X158850000Y-89162500D02*
X161750000Y-89162500D01*
X158850000Y-90137500D02*
X158850000Y-89162500D01*
X159175000Y-90462500D02*
X158850000Y-90137500D01*
X161750000Y-89162500D02*
X161750000Y-90462500D01*
X161750000Y-90462500D02*
X159175000Y-90462500D01*
%TO.C,RN5*%
X180290001Y-70500000D02*
X182290001Y-70500000D01*
X180290001Y-71500000D02*
X180290001Y-70500000D01*
X182290001Y-70500000D02*
X182290001Y-71500000D01*
X182290001Y-71500000D02*
X180290001Y-71500000D01*
%TO.C,U1*%
X163462500Y-80450000D02*
X163862500Y-80050000D01*
X163462500Y-82950000D02*
X163462500Y-80450000D01*
X163862500Y-80050000D02*
X165062500Y-80050000D01*
X165062500Y-80050000D02*
X165062500Y-82950000D01*
X165062500Y-82950000D02*
X163462500Y-82950000D01*
%TO.C,C3*%
X166725000Y-81500000D02*
X167525000Y-81500000D01*
X166725000Y-83100000D02*
X166725000Y-81500000D01*
X167525000Y-81500000D02*
X167525000Y-83100000D01*
X167525000Y-83100000D02*
X166725000Y-83100000D01*
%TO.C,J4*%
X180270001Y-56975000D02*
X181540001Y-55705000D01*
X180270001Y-63325000D02*
X180270001Y-56975000D01*
X181540001Y-55705000D02*
X185350001Y-55705000D01*
X185350001Y-55705000D02*
X185350001Y-63325000D01*
X185350001Y-63325000D02*
X180270001Y-63325000D01*
%TO.C,D1*%
X170625000Y-76100000D02*
X173425000Y-76100000D01*
X170625000Y-77900000D02*
X170625000Y-76100000D01*
X171275000Y-77000000D02*
X171675000Y-77000000D01*
X171675000Y-77000000D02*
X171675000Y-76450000D01*
X171675000Y-77000000D02*
X171675000Y-77550000D01*
X171675000Y-77000000D02*
X172275000Y-76600000D01*
X172275000Y-76600000D02*
X172275000Y-77400000D01*
X172275000Y-77000000D02*
X172775000Y-77000000D01*
X172275000Y-77400000D02*
X171675000Y-77000000D01*
X173425000Y-76100000D02*
X173425000Y-77900000D01*
X173425000Y-77900000D02*
X170625000Y-77900000D01*
%TO.C,U5*%
X158662500Y-93050000D02*
X159662500Y-92050000D01*
X158662500Y-97050000D02*
X158662500Y-93050000D01*
X159662500Y-92050000D02*
X163062500Y-92050000D01*
X163062500Y-92050000D02*
X163062500Y-97050000D01*
X163062500Y-97050000D02*
X158662500Y-97050000D01*
%TO.C,RN3*%
X147500000Y-103000000D02*
X148500000Y-103000000D01*
X147500000Y-105000000D02*
X147500000Y-103000000D01*
X148500000Y-103000000D02*
X148500000Y-105000000D01*
X148500000Y-105000000D02*
X147500000Y-105000000D01*
%TO.C,D6*%
X158750000Y-98787500D02*
X161325000Y-98787500D01*
X158750000Y-100087500D02*
X158750000Y-98787500D01*
X161325000Y-98787500D02*
X161650000Y-99112500D01*
X161650000Y-99112500D02*
X161650000Y-100087500D01*
X161650000Y-100087500D02*
X158750000Y-100087500D01*
%TO.C,D2*%
X162875000Y-76150000D02*
X165675000Y-76150000D01*
X162875000Y-77950000D02*
X162875000Y-76150000D01*
X164025000Y-76650000D02*
X164625000Y-77050000D01*
X164025000Y-77050000D02*
X163525000Y-77050000D01*
X164025000Y-77450000D02*
X164025000Y-76650000D01*
X164625000Y-77050000D02*
X164025000Y-77450000D01*
X164625000Y-77050000D02*
X164625000Y-76500000D01*
X164625000Y-77050000D02*
X164625000Y-77600000D01*
X165025000Y-77050000D02*
X164625000Y-77050000D01*
X165675000Y-76150000D02*
X165675000Y-77950000D01*
X165675000Y-77950000D02*
X162875000Y-77950000D01*
%TO.C,RN2*%
X186790000Y-56500000D02*
X187790000Y-56500000D01*
X186790000Y-58500000D02*
X186790000Y-56500000D01*
X187790000Y-56500000D02*
X187790000Y-58500000D01*
X187790000Y-58500000D02*
X186790000Y-58500000D01*
%TO.C,C8*%
X156850000Y-89225000D02*
X157650000Y-89225000D01*
X156850000Y-90825000D02*
X156850000Y-89225000D01*
X157650000Y-89225000D02*
X157650000Y-90825000D01*
X157650000Y-90825000D02*
X156850000Y-90825000D01*
%TO.C,R1*%
X168110000Y-77030000D02*
X169160000Y-77030000D01*
X168110000Y-77570000D02*
X168110000Y-77030000D01*
X169160000Y-77030000D02*
X169160000Y-77570000D01*
X169160000Y-77570000D02*
X168110000Y-77570000D01*
%TO.C,R3*%
X169100000Y-79030000D02*
X170150000Y-79030000D01*
X169100000Y-79570000D02*
X169100000Y-79030000D01*
X170150000Y-79030000D02*
X170150000Y-79570000D01*
X170150000Y-79570000D02*
X169100000Y-79570000D01*
%TO.C,J6*%
X149940000Y-98175000D02*
X155020000Y-98175000D01*
X149940000Y-105795000D02*
X149940000Y-98175000D01*
X153750000Y-105795000D02*
X149940000Y-105795000D01*
X155020000Y-98175000D02*
X155020000Y-104525000D01*
X155020000Y-104525000D02*
X153750000Y-105795000D01*
%TO.C,D8*%
X173540001Y-71037500D02*
X176115001Y-71037500D01*
X173540001Y-72337500D02*
X173540001Y-71037500D01*
X176115001Y-71037500D02*
X176440001Y-71362500D01*
X176440001Y-71362500D02*
X176440001Y-72337500D01*
X176440001Y-72337500D02*
X173540001Y-72337500D01*
%TO.C,J1*%
X139555000Y-67955000D02*
X147095000Y-67955000D01*
X139555000Y-75575000D02*
X139555000Y-67955000D01*
X147095000Y-67955000D02*
X148065000Y-68925000D01*
X148065000Y-68925000D02*
X148065000Y-75575000D01*
X148065000Y-69525000D02*
X152125000Y-69525000D01*
X148065000Y-72065000D02*
X152125000Y-72065000D01*
X148065000Y-74605000D02*
X152125000Y-74605000D01*
X148065000Y-75575000D02*
X139555000Y-75575000D01*
X152125000Y-68925000D02*
X148065000Y-68925000D01*
X152125000Y-69525000D02*
X152125000Y-68925000D01*
X152125000Y-71465000D02*
X148065000Y-71465000D01*
X152125000Y-72065000D02*
X152125000Y-71465000D01*
X152125000Y-74005000D02*
X148065000Y-74005000D01*
X152125000Y-74605000D02*
X152125000Y-74005000D01*
%TO.C,RN1*%
X186835000Y-82670000D02*
X187835000Y-82670000D01*
X186835000Y-84670000D02*
X186835000Y-82670000D01*
X187835000Y-82670000D02*
X187835000Y-84670000D01*
X187835000Y-84670000D02*
X186835000Y-84670000D01*
%TO.C,J5*%
X183250000Y-73700000D02*
X183250000Y-74300000D01*
X183250000Y-74300000D02*
X187310000Y-74300000D01*
X183250000Y-76240000D02*
X183250000Y-76840000D01*
X183250000Y-76840000D02*
X187310000Y-76840000D01*
X183250000Y-78780000D02*
X183250000Y-79380000D01*
X183250000Y-79380000D02*
X187310000Y-79380000D01*
X187310000Y-72730000D02*
X195820000Y-72730000D01*
X187310000Y-73700000D02*
X183250000Y-73700000D01*
X187310000Y-76240000D02*
X183250000Y-76240000D01*
X187310000Y-78780000D02*
X183250000Y-78780000D01*
X187310000Y-79380000D02*
X187310000Y-72730000D01*
X188280000Y-80350000D02*
X187310000Y-79380000D01*
X195820000Y-72730000D02*
X195820000Y-80350000D01*
X195820000Y-80350000D02*
X188280000Y-80350000D01*
%TO.C,J7*%
X139470000Y-81150000D02*
X147010000Y-81150000D01*
X139470000Y-88770000D02*
X139470000Y-81150000D01*
X147010000Y-81150000D02*
X147980000Y-82120000D01*
X147980000Y-82120000D02*
X147980000Y-88770000D01*
X147980000Y-82720000D02*
X152040000Y-82720000D01*
X147980000Y-85260000D02*
X152040000Y-85260000D01*
X147980000Y-87800000D02*
X152040000Y-87800000D01*
X147980000Y-88770000D02*
X139470000Y-88770000D01*
X152040000Y-82120000D02*
X147980000Y-82120000D01*
X152040000Y-82720000D02*
X152040000Y-82120000D01*
X152040000Y-84660000D02*
X147980000Y-84660000D01*
X152040000Y-85260000D02*
X152040000Y-84660000D01*
X152040000Y-87200000D02*
X147980000Y-87200000D01*
X152040000Y-87800000D02*
X152040000Y-87200000D01*
%TO.C,SW4*%
X139300000Y-89770000D02*
X149080000Y-89770000D01*
X139300000Y-102110000D02*
X139300000Y-89770000D01*
X142160000Y-91495000D02*
X142160000Y-92765000D01*
X142160000Y-92765000D02*
X146220000Y-92765000D01*
X142160000Y-94035000D02*
X142160000Y-95305000D01*
X142160000Y-95305000D02*
X146220000Y-95305000D01*
X142160000Y-96575000D02*
X142160000Y-97845000D01*
X142160000Y-97845000D02*
X146220000Y-97845000D01*
X142160000Y-99115000D02*
X142160000Y-100385000D01*
X142160000Y-100385000D02*
X146220000Y-100385000D01*
X144866667Y-92765000D02*
X144866667Y-91495000D01*
X144866667Y-95305000D02*
X144866667Y-94035000D01*
X144866667Y-97845000D02*
X144866667Y-96575000D01*
X144866667Y-100385000D02*
X144866667Y-99115000D01*
X146220000Y-91495000D02*
X142160000Y-91495000D01*
X146220000Y-91565000D02*
X144866667Y-91565000D01*
X146220000Y-91665000D02*
X144866667Y-91665000D01*
X146220000Y-91765000D02*
X144866667Y-91765000D01*
X146220000Y-91865000D02*
X144866667Y-91865000D01*
X146220000Y-91965000D02*
X144866667Y-91965000D01*
X146220000Y-92065000D02*
X144866667Y-92065000D01*
X146220000Y-92165000D02*
X144866667Y-92165000D01*
X146220000Y-92265000D02*
X144866667Y-92265000D01*
X146220000Y-92365000D02*
X144866667Y-92365000D01*
X146220000Y-92465000D02*
X144866667Y-92465000D01*
X146220000Y-92565000D02*
X144866667Y-92565000D01*
X146220000Y-92665000D02*
X144866667Y-92665000D01*
X146220000Y-92765000D02*
X146220000Y-91495000D01*
X146220000Y-94035000D02*
X142160000Y-94035000D01*
X146220000Y-94105000D02*
X144866667Y-94105000D01*
X146220000Y-94205000D02*
X144866667Y-94205000D01*
X146220000Y-94305000D02*
X144866667Y-94305000D01*
X146220000Y-94405000D02*
X144866667Y-94405000D01*
X146220000Y-94505000D02*
X144866667Y-94505000D01*
X146220000Y-94605000D02*
X144866667Y-94605000D01*
X146220000Y-94705000D02*
X144866667Y-94705000D01*
X146220000Y-94805000D02*
X144866667Y-94805000D01*
X146220000Y-94905000D02*
X144866667Y-94905000D01*
X146220000Y-95005000D02*
X144866667Y-95005000D01*
X146220000Y-95105000D02*
X144866667Y-95105000D01*
X146220000Y-95205000D02*
X144866667Y-95205000D01*
X146220000Y-95305000D02*
X146220000Y-94035000D01*
X146220000Y-96575000D02*
X142160000Y-96575000D01*
X146220000Y-96645000D02*
X144866667Y-96645000D01*
X146220000Y-96745000D02*
X144866667Y-96745000D01*
X146220000Y-96845000D02*
X144866667Y-96845000D01*
X146220000Y-96945000D02*
X144866667Y-96945000D01*
X146220000Y-97045000D02*
X144866667Y-97045000D01*
X146220000Y-97145000D02*
X144866667Y-97145000D01*
X146220000Y-97245000D02*
X144866667Y-97245000D01*
X146220000Y-97345000D02*
X144866667Y-97345000D01*
X146220000Y-97445000D02*
X144866667Y-97445000D01*
X146220000Y-97545000D02*
X144866667Y-97545000D01*
X146220000Y-97645000D02*
X144866667Y-97645000D01*
X146220000Y-97745000D02*
X144866667Y-97745000D01*
X146220000Y-97845000D02*
X146220000Y-96575000D01*
X146220000Y-99115000D02*
X142160000Y-99115000D01*
X146220000Y-99185000D02*
X144866667Y-99185000D01*
X146220000Y-99285000D02*
X144866667Y-99285000D01*
X146220000Y-99385000D02*
X144866667Y-99385000D01*
X146220000Y-99485000D02*
X144866667Y-99485000D01*
X146220000Y-99585000D02*
X144866667Y-99585000D01*
X146220000Y-99685000D02*
X144866667Y-99685000D01*
X146220000Y-99785000D02*
X144866667Y-99785000D01*
X146220000Y-99885000D02*
X144866667Y-99885000D01*
X146220000Y-99985000D02*
X144866667Y-99985000D01*
X146220000Y-100085000D02*
X144866667Y-100085000D01*
X146220000Y-100185000D02*
X144866667Y-100185000D01*
X146220000Y-100285000D02*
X144866667Y-100285000D01*
X146220000Y-100385000D02*
X146220000Y-99115000D01*
X148080000Y-102110000D02*
X139300000Y-102110000D01*
X149080000Y-89770000D02*
X149080000Y-101110000D01*
X149080000Y-101110000D02*
X148080000Y-102110000D01*
%TO.C,C7*%
X171390000Y-70700000D02*
X172190000Y-70700000D01*
X171390000Y-72300000D02*
X171390000Y-70700000D01*
X172190000Y-70700000D02*
X172190000Y-72300000D01*
X172190000Y-72300000D02*
X171390000Y-72300000D01*
%TO.C,SW2*%
X186255000Y-86560000D02*
X187255000Y-85560000D01*
X186255000Y-97900000D02*
X186255000Y-86560000D01*
X187255000Y-85560000D02*
X196035000Y-85560000D01*
X189115000Y-87285000D02*
X189115000Y-88555000D01*
X189115000Y-87385000D02*
X190468333Y-87385000D01*
X189115000Y-87485000D02*
X190468333Y-87485000D01*
X189115000Y-87585000D02*
X190468333Y-87585000D01*
X189115000Y-87685000D02*
X190468333Y-87685000D01*
X189115000Y-87785000D02*
X190468333Y-87785000D01*
X189115000Y-87885000D02*
X190468333Y-87885000D01*
X189115000Y-87985000D02*
X190468333Y-87985000D01*
X189115000Y-88085000D02*
X190468333Y-88085000D01*
X189115000Y-88185000D02*
X190468333Y-88185000D01*
X189115000Y-88285000D02*
X190468333Y-88285000D01*
X189115000Y-88385000D02*
X190468333Y-88385000D01*
X189115000Y-88485000D02*
X190468333Y-88485000D01*
X189115000Y-88555000D02*
X193175000Y-88555000D01*
X189115000Y-89825000D02*
X189115000Y-91095000D01*
X189115000Y-89925000D02*
X190468333Y-89925000D01*
X189115000Y-90025000D02*
X190468333Y-90025000D01*
X189115000Y-90125000D02*
X190468333Y-90125000D01*
X189115000Y-90225000D02*
X190468333Y-90225000D01*
X189115000Y-90325000D02*
X190468333Y-90325000D01*
X189115000Y-90425000D02*
X190468333Y-90425000D01*
X189115000Y-90525000D02*
X190468333Y-90525000D01*
X189115000Y-90625000D02*
X190468333Y-90625000D01*
X189115000Y-90725000D02*
X190468333Y-90725000D01*
X189115000Y-90825000D02*
X190468333Y-90825000D01*
X189115000Y-90925000D02*
X190468333Y-90925000D01*
X189115000Y-91025000D02*
X190468333Y-91025000D01*
X189115000Y-91095000D02*
X193175000Y-91095000D01*
X189115000Y-92365000D02*
X189115000Y-93635000D01*
X189115000Y-92465000D02*
X190468333Y-92465000D01*
X189115000Y-92565000D02*
X190468333Y-92565000D01*
X189115000Y-92665000D02*
X190468333Y-92665000D01*
X189115000Y-92765000D02*
X190468333Y-92765000D01*
X189115000Y-92865000D02*
X190468333Y-92865000D01*
X189115000Y-92965000D02*
X190468333Y-92965000D01*
X189115000Y-93065000D02*
X190468333Y-93065000D01*
X189115000Y-93165000D02*
X190468333Y-93165000D01*
X189115000Y-93265000D02*
X190468333Y-93265000D01*
X189115000Y-93365000D02*
X190468333Y-93365000D01*
X189115000Y-93465000D02*
X190468333Y-93465000D01*
X189115000Y-93565000D02*
X190468333Y-93565000D01*
X189115000Y-93635000D02*
X193175000Y-93635000D01*
X189115000Y-94905000D02*
X189115000Y-96175000D01*
X189115000Y-95005000D02*
X190468333Y-95005000D01*
X189115000Y-95105000D02*
X190468333Y-95105000D01*
X189115000Y-95205000D02*
X190468333Y-95205000D01*
X189115000Y-95305000D02*
X190468333Y-95305000D01*
X189115000Y-95405000D02*
X190468333Y-95405000D01*
X189115000Y-95505000D02*
X190468333Y-95505000D01*
X189115000Y-95605000D02*
X190468333Y-95605000D01*
X189115000Y-95705000D02*
X190468333Y-95705000D01*
X189115000Y-95805000D02*
X190468333Y-95805000D01*
X189115000Y-95905000D02*
X190468333Y-95905000D01*
X189115000Y-96005000D02*
X190468333Y-96005000D01*
X189115000Y-96105000D02*
X190468333Y-96105000D01*
X189115000Y-96175000D02*
X193175000Y-96175000D01*
X190468333Y-87285000D02*
X190468333Y-88555000D01*
X190468333Y-89825000D02*
X190468333Y-91095000D01*
X190468333Y-92365000D02*
X190468333Y-93635000D01*
X190468333Y-94905000D02*
X190468333Y-96175000D01*
X193175000Y-87285000D02*
X189115000Y-87285000D01*
X193175000Y-88555000D02*
X193175000Y-87285000D01*
X193175000Y-89825000D02*
X189115000Y-89825000D01*
X193175000Y-91095000D02*
X193175000Y-89825000D01*
X193175000Y-92365000D02*
X189115000Y-92365000D01*
X193175000Y-93635000D02*
X193175000Y-92365000D01*
X193175000Y-94905000D02*
X189115000Y-94905000D01*
X193175000Y-96175000D02*
X193175000Y-94905000D01*
X196035000Y-85560000D02*
X196035000Y-97900000D01*
X196035000Y-97900000D02*
X186255000Y-97900000D01*
%TO.C,C6*%
X177640001Y-70675000D02*
X178440001Y-70675000D01*
X177640001Y-72275000D02*
X177640001Y-70675000D01*
X178440001Y-70675000D02*
X178440001Y-72275000D01*
X178440001Y-72275000D02*
X177640001Y-72275000D01*
%TO.C,RN4*%
X180335001Y-96670000D02*
X182335001Y-96670000D01*
X180335001Y-97670000D02*
X180335001Y-96670000D01*
X182335001Y-96670000D02*
X182335001Y-97670000D01*
X182335001Y-97670000D02*
X180335001Y-97670000D01*
%TO.C,RN6*%
X153000000Y-90000000D02*
X155000000Y-90000000D01*
X153000000Y-91000000D02*
X153000000Y-90000000D01*
X155000000Y-90000000D02*
X155000000Y-91000000D01*
X155000000Y-91000000D02*
X153000000Y-91000000D01*
%TO.C,J2*%
X180315001Y-83145000D02*
X181585001Y-81875000D01*
X180315001Y-89495000D02*
X180315001Y-83145000D01*
X181585001Y-81875000D02*
X185395001Y-81875000D01*
X185395001Y-81875000D02*
X185395001Y-89495000D01*
X185395001Y-89495000D02*
X180315001Y-89495000D01*
%TO.C,U2*%
X171912500Y-79125000D02*
X172237500Y-78800000D01*
X171912500Y-81700000D02*
X171912500Y-79125000D01*
X172237500Y-78800000D02*
X173212500Y-78800000D01*
X173212500Y-78800000D02*
X173212500Y-81700000D01*
X173212500Y-81700000D02*
X171912500Y-81700000D01*
%TO.C,SW1*%
X154300000Y-80100000D02*
X148200000Y-80100000D01*
X148200000Y-76400000D01*
X154300000Y-76400000D01*
X154300000Y-80100000D01*
%TO.C,C9*%
X163100000Y-89200000D02*
X163900000Y-89200000D01*
X163100000Y-90800000D02*
X163100000Y-89200000D01*
X163900000Y-89200000D02*
X163900000Y-90800000D01*
X163900000Y-90800000D02*
X163100000Y-90800000D01*
%TO.C,U4*%
X172227501Y-64450000D02*
X176627501Y-64450000D01*
X172227501Y-69450000D02*
X172227501Y-64450000D01*
X175627501Y-69450000D02*
X172227501Y-69450000D01*
X176627501Y-64450000D02*
X176627501Y-68450000D01*
X176627501Y-68450000D02*
X175627501Y-69450000D01*
%TO.C,U3*%
X172272501Y-90620000D02*
X176672501Y-90620000D01*
X172272501Y-95620000D02*
X172272501Y-90620000D01*
X175672501Y-95620000D02*
X172272501Y-95620000D01*
X176672501Y-90620000D02*
X176672501Y-94620000D01*
X176672501Y-94620000D02*
X175672501Y-95620000D01*
%TO.C,J3*%
X183295000Y-99870000D02*
X183295000Y-100470000D01*
X183295000Y-100470000D02*
X187355000Y-100470000D01*
X183295000Y-102410000D02*
X183295000Y-103010000D01*
X183295000Y-103010000D02*
X187355000Y-103010000D01*
X183295000Y-104950000D02*
X183295000Y-105550000D01*
X183295000Y-105550000D02*
X187355000Y-105550000D01*
X187355000Y-98900000D02*
X195865000Y-98900000D01*
X187355000Y-99870000D02*
X183295000Y-99870000D01*
X187355000Y-102410000D02*
X183295000Y-102410000D01*
X187355000Y-104950000D02*
X183295000Y-104950000D01*
X187355000Y-105550000D02*
X187355000Y-98900000D01*
X188325000Y-106520000D02*
X187355000Y-105550000D01*
X195865000Y-98900000D02*
X195865000Y-106520000D01*
X195865000Y-106520000D02*
X188325000Y-106520000D01*
%TO.C,C4*%
X177685001Y-96845000D02*
X178485001Y-96845000D01*
X177685001Y-98445000D02*
X177685001Y-96845000D01*
X178485001Y-96845000D02*
X178485001Y-98445000D01*
X178485001Y-98445000D02*
X177685001Y-98445000D01*
%TD*%
M02*
