%TF.GenerationSoftware,KiCad,Pcbnew,8.0.8+1*%
%TF.CreationDate,2025-01-27T22:00:13-08:00*%
%TF.ProjectId,pico-logic-analyzer,7069636f-2d6c-46f6-9769-632d616e616c,rev?*%
%TF.SameCoordinates,Original*%
%TF.FileFunction,Legend,Bot*%
%TF.FilePolarity,Positive*%
%FSLAX46Y46*%
G04 Gerber Fmt 4.6, Leading zero omitted, Abs format (unit mm)*
G04 Created by KiCad (PCBNEW 8.0.8+1) date 2025-01-27 22:00:13*
%MOMM*%
%LPD*%
G01*
G04 APERTURE LIST*
%ADD10C,0.250000*%
%ADD11C,0.187500*%
%ADD12C,0.120000*%
G04 APERTURE END LIST*
D10*
X171404762Y-107504675D02*
X171738095Y-107028484D01*
X171976190Y-107504675D02*
X171976190Y-106504675D01*
X171976190Y-106504675D02*
X171595238Y-106504675D01*
X171595238Y-106504675D02*
X171500000Y-106552294D01*
X171500000Y-106552294D02*
X171452381Y-106599913D01*
X171452381Y-106599913D02*
X171404762Y-106695151D01*
X171404762Y-106695151D02*
X171404762Y-106838008D01*
X171404762Y-106838008D02*
X171452381Y-106933246D01*
X171452381Y-106933246D02*
X171500000Y-106980865D01*
X171500000Y-106980865D02*
X171595238Y-107028484D01*
X171595238Y-107028484D02*
X171976190Y-107028484D01*
X170976190Y-106980865D02*
X170642857Y-106980865D01*
X170500000Y-107504675D02*
X170976190Y-107504675D01*
X170976190Y-107504675D02*
X170976190Y-106504675D01*
X170976190Y-106504675D02*
X170500000Y-106504675D01*
X170214285Y-106504675D02*
X169880952Y-107504675D01*
X169880952Y-107504675D02*
X169547619Y-106504675D01*
X168499999Y-106599913D02*
X168452380Y-106552294D01*
X168452380Y-106552294D02*
X168357142Y-106504675D01*
X168357142Y-106504675D02*
X168119047Y-106504675D01*
X168119047Y-106504675D02*
X168023809Y-106552294D01*
X168023809Y-106552294D02*
X167976190Y-106599913D01*
X167976190Y-106599913D02*
X167928571Y-106695151D01*
X167928571Y-106695151D02*
X167928571Y-106790389D01*
X167928571Y-106790389D02*
X167976190Y-106933246D01*
X167976190Y-106933246D02*
X168547618Y-107504675D01*
X168547618Y-107504675D02*
X167928571Y-107504675D01*
X167499999Y-107409436D02*
X167452380Y-107457056D01*
X167452380Y-107457056D02*
X167499999Y-107504675D01*
X167499999Y-107504675D02*
X167547618Y-107457056D01*
X167547618Y-107457056D02*
X167499999Y-107409436D01*
X167499999Y-107409436D02*
X167499999Y-107504675D01*
X166833333Y-106504675D02*
X166738095Y-106504675D01*
X166738095Y-106504675D02*
X166642857Y-106552294D01*
X166642857Y-106552294D02*
X166595238Y-106599913D01*
X166595238Y-106599913D02*
X166547619Y-106695151D01*
X166547619Y-106695151D02*
X166500000Y-106885627D01*
X166500000Y-106885627D02*
X166500000Y-107123722D01*
X166500000Y-107123722D02*
X166547619Y-107314198D01*
X166547619Y-107314198D02*
X166595238Y-107409436D01*
X166595238Y-107409436D02*
X166642857Y-107457056D01*
X166642857Y-107457056D02*
X166738095Y-107504675D01*
X166738095Y-107504675D02*
X166833333Y-107504675D01*
X166833333Y-107504675D02*
X166928571Y-107457056D01*
X166928571Y-107457056D02*
X166976190Y-107409436D01*
X166976190Y-107409436D02*
X167023809Y-107314198D01*
X167023809Y-107314198D02*
X167071428Y-107123722D01*
X167071428Y-107123722D02*
X167071428Y-106885627D01*
X167071428Y-106885627D02*
X167023809Y-106695151D01*
X167023809Y-106695151D02*
X166976190Y-106599913D01*
X166976190Y-106599913D02*
X166928571Y-106552294D01*
X166928571Y-106552294D02*
X166833333Y-106504675D01*
X165309523Y-107504675D02*
X165309523Y-106504675D01*
X165309523Y-106504675D02*
X165071428Y-106504675D01*
X165071428Y-106504675D02*
X164928571Y-106552294D01*
X164928571Y-106552294D02*
X164833333Y-106647532D01*
X164833333Y-106647532D02*
X164785714Y-106742770D01*
X164785714Y-106742770D02*
X164738095Y-106933246D01*
X164738095Y-106933246D02*
X164738095Y-107076103D01*
X164738095Y-107076103D02*
X164785714Y-107266579D01*
X164785714Y-107266579D02*
X164833333Y-107361817D01*
X164833333Y-107361817D02*
X164928571Y-107457056D01*
X164928571Y-107457056D02*
X165071428Y-107504675D01*
X165071428Y-107504675D02*
X165309523Y-107504675D01*
X164309523Y-106980865D02*
X163976190Y-106980865D01*
X163833333Y-107504675D02*
X164309523Y-107504675D01*
X164309523Y-107504675D02*
X164309523Y-106504675D01*
X164309523Y-106504675D02*
X163833333Y-106504675D01*
X163547618Y-106504675D02*
X163214285Y-107504675D01*
X163214285Y-107504675D02*
X162880952Y-106504675D01*
X172357142Y-108114619D02*
X172357142Y-108828904D01*
X172357142Y-108828904D02*
X172404761Y-108971761D01*
X172404761Y-108971761D02*
X172499999Y-109067000D01*
X172499999Y-109067000D02*
X172642856Y-109114619D01*
X172642856Y-109114619D02*
X172738094Y-109114619D01*
X171452380Y-109114619D02*
X171452380Y-108590809D01*
X171452380Y-108590809D02*
X171499999Y-108495571D01*
X171499999Y-108495571D02*
X171595237Y-108447952D01*
X171595237Y-108447952D02*
X171785713Y-108447952D01*
X171785713Y-108447952D02*
X171880951Y-108495571D01*
X171452380Y-109067000D02*
X171547618Y-109114619D01*
X171547618Y-109114619D02*
X171785713Y-109114619D01*
X171785713Y-109114619D02*
X171880951Y-109067000D01*
X171880951Y-109067000D02*
X171928570Y-108971761D01*
X171928570Y-108971761D02*
X171928570Y-108876523D01*
X171928570Y-108876523D02*
X171880951Y-108781285D01*
X171880951Y-108781285D02*
X171785713Y-108733666D01*
X171785713Y-108733666D02*
X171547618Y-108733666D01*
X171547618Y-108733666D02*
X171452380Y-108686047D01*
X170976189Y-108447952D02*
X170976189Y-109114619D01*
X170976189Y-108543190D02*
X170928570Y-108495571D01*
X170928570Y-108495571D02*
X170833332Y-108447952D01*
X170833332Y-108447952D02*
X170690475Y-108447952D01*
X170690475Y-108447952D02*
X170595237Y-108495571D01*
X170595237Y-108495571D02*
X170547618Y-108590809D01*
X170547618Y-108590809D02*
X170547618Y-109114619D01*
X170071427Y-108733666D02*
X169309523Y-108733666D01*
X168880951Y-108209857D02*
X168833332Y-108162238D01*
X168833332Y-108162238D02*
X168738094Y-108114619D01*
X168738094Y-108114619D02*
X168499999Y-108114619D01*
X168499999Y-108114619D02*
X168404761Y-108162238D01*
X168404761Y-108162238D02*
X168357142Y-108209857D01*
X168357142Y-108209857D02*
X168309523Y-108305095D01*
X168309523Y-108305095D02*
X168309523Y-108400333D01*
X168309523Y-108400333D02*
X168357142Y-108543190D01*
X168357142Y-108543190D02*
X168928570Y-109114619D01*
X168928570Y-109114619D02*
X168309523Y-109114619D01*
X167976189Y-108114619D02*
X167309523Y-108114619D01*
X167309523Y-108114619D02*
X167738094Y-109114619D01*
X166928570Y-108733666D02*
X166166666Y-108733666D01*
X165738094Y-108209857D02*
X165690475Y-108162238D01*
X165690475Y-108162238D02*
X165595237Y-108114619D01*
X165595237Y-108114619D02*
X165357142Y-108114619D01*
X165357142Y-108114619D02*
X165261904Y-108162238D01*
X165261904Y-108162238D02*
X165214285Y-108209857D01*
X165214285Y-108209857D02*
X165166666Y-108305095D01*
X165166666Y-108305095D02*
X165166666Y-108400333D01*
X165166666Y-108400333D02*
X165214285Y-108543190D01*
X165214285Y-108543190D02*
X165785713Y-109114619D01*
X165785713Y-109114619D02*
X165166666Y-109114619D01*
X164547618Y-108114619D02*
X164452380Y-108114619D01*
X164452380Y-108114619D02*
X164357142Y-108162238D01*
X164357142Y-108162238D02*
X164309523Y-108209857D01*
X164309523Y-108209857D02*
X164261904Y-108305095D01*
X164261904Y-108305095D02*
X164214285Y-108495571D01*
X164214285Y-108495571D02*
X164214285Y-108733666D01*
X164214285Y-108733666D02*
X164261904Y-108924142D01*
X164261904Y-108924142D02*
X164309523Y-109019380D01*
X164309523Y-109019380D02*
X164357142Y-109067000D01*
X164357142Y-109067000D02*
X164452380Y-109114619D01*
X164452380Y-109114619D02*
X164547618Y-109114619D01*
X164547618Y-109114619D02*
X164642856Y-109067000D01*
X164642856Y-109067000D02*
X164690475Y-109019380D01*
X164690475Y-109019380D02*
X164738094Y-108924142D01*
X164738094Y-108924142D02*
X164785713Y-108733666D01*
X164785713Y-108733666D02*
X164785713Y-108495571D01*
X164785713Y-108495571D02*
X164738094Y-108305095D01*
X164738094Y-108305095D02*
X164690475Y-108209857D01*
X164690475Y-108209857D02*
X164642856Y-108162238D01*
X164642856Y-108162238D02*
X164547618Y-108114619D01*
X163833332Y-108209857D02*
X163785713Y-108162238D01*
X163785713Y-108162238D02*
X163690475Y-108114619D01*
X163690475Y-108114619D02*
X163452380Y-108114619D01*
X163452380Y-108114619D02*
X163357142Y-108162238D01*
X163357142Y-108162238D02*
X163309523Y-108209857D01*
X163309523Y-108209857D02*
X163261904Y-108305095D01*
X163261904Y-108305095D02*
X163261904Y-108400333D01*
X163261904Y-108400333D02*
X163309523Y-108543190D01*
X163309523Y-108543190D02*
X163880951Y-109114619D01*
X163880951Y-109114619D02*
X163261904Y-109114619D01*
X162357142Y-108114619D02*
X162833332Y-108114619D01*
X162833332Y-108114619D02*
X162880951Y-108590809D01*
X162880951Y-108590809D02*
X162833332Y-108543190D01*
X162833332Y-108543190D02*
X162738094Y-108495571D01*
X162738094Y-108495571D02*
X162499999Y-108495571D01*
X162499999Y-108495571D02*
X162404761Y-108543190D01*
X162404761Y-108543190D02*
X162357142Y-108590809D01*
X162357142Y-108590809D02*
X162309523Y-108686047D01*
X162309523Y-108686047D02*
X162309523Y-108924142D01*
X162309523Y-108924142D02*
X162357142Y-109019380D01*
X162357142Y-109019380D02*
X162404761Y-109067000D01*
X162404761Y-109067000D02*
X162499999Y-109114619D01*
X162499999Y-109114619D02*
X162738094Y-109114619D01*
X162738094Y-109114619D02*
X162833332Y-109067000D01*
X162833332Y-109067000D02*
X162880951Y-109019380D01*
D11*
X192483787Y-108148464D02*
X192483787Y-108684178D01*
X192483787Y-108684178D02*
X192519502Y-108791321D01*
X192519502Y-108791321D02*
X192590930Y-108862750D01*
X192590930Y-108862750D02*
X192698073Y-108898464D01*
X192698073Y-108898464D02*
X192769502Y-108898464D01*
X191769501Y-108898464D02*
X192126644Y-108898464D01*
X192126644Y-108898464D02*
X192126644Y-108148464D01*
X191090930Y-108827035D02*
X191126644Y-108862750D01*
X191126644Y-108862750D02*
X191233787Y-108898464D01*
X191233787Y-108898464D02*
X191305215Y-108898464D01*
X191305215Y-108898464D02*
X191412358Y-108862750D01*
X191412358Y-108862750D02*
X191483787Y-108791321D01*
X191483787Y-108791321D02*
X191519501Y-108719892D01*
X191519501Y-108719892D02*
X191555215Y-108577035D01*
X191555215Y-108577035D02*
X191555215Y-108469892D01*
X191555215Y-108469892D02*
X191519501Y-108327035D01*
X191519501Y-108327035D02*
X191483787Y-108255607D01*
X191483787Y-108255607D02*
X191412358Y-108184178D01*
X191412358Y-108184178D02*
X191305215Y-108148464D01*
X191305215Y-108148464D02*
X191233787Y-108148464D01*
X191233787Y-108148464D02*
X191126644Y-108184178D01*
X191126644Y-108184178D02*
X191090930Y-108219892D01*
X190555215Y-108148464D02*
X190555215Y-108684178D01*
X190555215Y-108684178D02*
X190590930Y-108791321D01*
X190590930Y-108791321D02*
X190662358Y-108862750D01*
X190662358Y-108862750D02*
X190769501Y-108898464D01*
X190769501Y-108898464D02*
X190840930Y-108898464D01*
X189840929Y-108898464D02*
X190198072Y-108898464D01*
X190198072Y-108898464D02*
X190198072Y-108148464D01*
X189162358Y-108827035D02*
X189198072Y-108862750D01*
X189198072Y-108862750D02*
X189305215Y-108898464D01*
X189305215Y-108898464D02*
X189376643Y-108898464D01*
X189376643Y-108898464D02*
X189483786Y-108862750D01*
X189483786Y-108862750D02*
X189555215Y-108791321D01*
X189555215Y-108791321D02*
X189590929Y-108719892D01*
X189590929Y-108719892D02*
X189626643Y-108577035D01*
X189626643Y-108577035D02*
X189626643Y-108469892D01*
X189626643Y-108469892D02*
X189590929Y-108327035D01*
X189590929Y-108327035D02*
X189555215Y-108255607D01*
X189555215Y-108255607D02*
X189483786Y-108184178D01*
X189483786Y-108184178D02*
X189376643Y-108148464D01*
X189376643Y-108148464D02*
X189305215Y-108148464D01*
X189305215Y-108148464D02*
X189198072Y-108184178D01*
X189198072Y-108184178D02*
X189162358Y-108219892D01*
X188626643Y-108148464D02*
X188626643Y-108684178D01*
X188626643Y-108684178D02*
X188662358Y-108791321D01*
X188662358Y-108791321D02*
X188733786Y-108862750D01*
X188733786Y-108862750D02*
X188840929Y-108898464D01*
X188840929Y-108898464D02*
X188912358Y-108898464D01*
X187912357Y-108898464D02*
X188269500Y-108898464D01*
X188269500Y-108898464D02*
X188269500Y-108148464D01*
X187233786Y-108827035D02*
X187269500Y-108862750D01*
X187269500Y-108862750D02*
X187376643Y-108898464D01*
X187376643Y-108898464D02*
X187448071Y-108898464D01*
X187448071Y-108898464D02*
X187555214Y-108862750D01*
X187555214Y-108862750D02*
X187626643Y-108791321D01*
X187626643Y-108791321D02*
X187662357Y-108719892D01*
X187662357Y-108719892D02*
X187698071Y-108577035D01*
X187698071Y-108577035D02*
X187698071Y-108469892D01*
X187698071Y-108469892D02*
X187662357Y-108327035D01*
X187662357Y-108327035D02*
X187626643Y-108255607D01*
X187626643Y-108255607D02*
X187555214Y-108184178D01*
X187555214Y-108184178D02*
X187448071Y-108148464D01*
X187448071Y-108148464D02*
X187376643Y-108148464D01*
X187376643Y-108148464D02*
X187269500Y-108184178D01*
X187269500Y-108184178D02*
X187233786Y-108219892D01*
X186698071Y-108148464D02*
X186698071Y-108684178D01*
X186698071Y-108684178D02*
X186733786Y-108791321D01*
X186733786Y-108791321D02*
X186805214Y-108862750D01*
X186805214Y-108862750D02*
X186912357Y-108898464D01*
X186912357Y-108898464D02*
X186983786Y-108898464D01*
X185983785Y-108898464D02*
X186340928Y-108898464D01*
X186340928Y-108898464D02*
X186340928Y-108148464D01*
X185305214Y-108827035D02*
X185340928Y-108862750D01*
X185340928Y-108862750D02*
X185448071Y-108898464D01*
X185448071Y-108898464D02*
X185519499Y-108898464D01*
X185519499Y-108898464D02*
X185626642Y-108862750D01*
X185626642Y-108862750D02*
X185698071Y-108791321D01*
X185698071Y-108791321D02*
X185733785Y-108719892D01*
X185733785Y-108719892D02*
X185769499Y-108577035D01*
X185769499Y-108577035D02*
X185769499Y-108469892D01*
X185769499Y-108469892D02*
X185733785Y-108327035D01*
X185733785Y-108327035D02*
X185698071Y-108255607D01*
X185698071Y-108255607D02*
X185626642Y-108184178D01*
X185626642Y-108184178D02*
X185519499Y-108148464D01*
X185519499Y-108148464D02*
X185448071Y-108148464D01*
X185448071Y-108148464D02*
X185340928Y-108184178D01*
X185340928Y-108184178D02*
X185305214Y-108219892D01*
D12*
%TO.C,A2*%
X157080000Y-55220000D02*
X157080000Y-54800000D01*
X157080000Y-57760000D02*
X157080000Y-57340000D01*
X157080000Y-60300000D02*
X157080000Y-59880000D01*
X157080000Y-62840000D02*
X157080000Y-62420000D01*
X157080000Y-65380000D02*
X157080000Y-64960000D01*
X157080000Y-67920000D02*
X157080000Y-67500000D01*
X157080000Y-70460000D02*
X157080000Y-70040000D01*
X157080000Y-73000000D02*
X157080000Y-72580000D01*
X157080000Y-75540000D02*
X157080000Y-75120000D01*
X157080000Y-78080000D02*
X157080000Y-77660000D01*
X157080000Y-80620000D02*
X157080000Y-80200000D01*
X157080000Y-83160000D02*
X157080000Y-82740000D01*
X157080000Y-85700000D02*
X157080000Y-85280000D01*
X157080000Y-88240000D02*
X157080000Y-87820000D01*
X157080000Y-90780000D02*
X157080000Y-90360000D01*
X157080000Y-93320000D02*
X157080000Y-92900000D01*
X157080000Y-95860000D02*
X157080000Y-95440000D01*
X157080000Y-98400000D02*
X157080000Y-97980000D01*
X157080000Y-100940000D02*
X157080000Y-100520000D01*
X157690000Y-103480000D02*
X161527939Y-103480000D01*
X160180000Y-52260000D02*
X157690000Y-52260000D01*
X160180000Y-52260000D02*
X161527939Y-52260000D01*
X162452061Y-52260000D02*
X163455000Y-52260000D01*
X163455000Y-52260000D02*
X171925000Y-52260000D01*
X164090000Y-103480000D02*
X162452061Y-103480000D01*
X166210000Y-103480000D02*
X166630000Y-103480000D01*
X168750000Y-103480000D02*
X169170000Y-103480000D01*
X171925000Y-52260000D02*
X172927939Y-52260000D01*
X172927939Y-103480000D02*
X171290000Y-103480000D01*
X173852060Y-52260000D02*
X175200000Y-52260000D01*
X173852061Y-103480000D02*
X177690000Y-103480000D01*
X175200000Y-52260000D02*
X177690000Y-52260000D01*
X178300000Y-55220000D02*
X178300000Y-54800000D01*
X178300000Y-57760000D02*
X178300000Y-57340000D01*
X178300000Y-60300000D02*
X178300000Y-59880000D01*
X178300000Y-62840000D02*
X178300000Y-62420000D01*
X178300000Y-65380000D02*
X178300000Y-64960000D01*
X178300000Y-67920000D02*
X178300000Y-67500000D01*
X178300000Y-70460000D02*
X178300000Y-70040000D01*
X178300000Y-73000000D02*
X178300000Y-72580000D01*
X178300000Y-75540000D02*
X178300000Y-75120000D01*
X178300000Y-78080000D02*
X178300000Y-77660000D01*
X178300000Y-80620000D02*
X178300000Y-80200000D01*
X178300000Y-83160000D02*
X178300000Y-82740000D01*
X178300000Y-85700000D02*
X178300000Y-85280000D01*
X178300000Y-88240000D02*
X178300000Y-87820000D01*
X178300000Y-90780000D02*
X178300000Y-90360000D01*
X178300000Y-93320000D02*
X178300000Y-92900000D01*
X178300000Y-95860000D02*
X178300000Y-95440000D01*
X178300000Y-98400000D02*
X178300000Y-97980000D01*
X178300000Y-100940000D02*
X178300000Y-100520000D01*
X178780000Y-52680000D02*
X178269676Y-52680000D01*
X178780000Y-54800000D02*
X178300000Y-54800000D01*
X157110324Y-52680063D02*
G75*
G02*
X157690000Y-52260000I579676J-189937D01*
G01*
X157690000Y-103480000D02*
G75*
G02*
X157110340Y-103059932I-200J609700D01*
G01*
X177690000Y-52260000D02*
G75*
G02*
X178269676Y-52680000I-16J-610051D01*
G01*
X178269676Y-103059937D02*
G75*
G02*
X177690000Y-103480000I-579677J189939D01*
G01*
%TD*%
M02*
