%TF.GenerationSoftware,KiCad,Pcbnew,8.0.6+1*%
%TF.CreationDate,2024-11-29T05:26:26-08:00*%
%TF.ProjectId,pico-logic-analyzer,7069636f-2d6c-46f6-9769-632d616e616c,rev?*%
%TF.SameCoordinates,Original*%
%TF.FileFunction,AssemblyDrawing,Top*%
%FSLAX46Y46*%
G04 Gerber Fmt 4.6, Leading zero omitted, Abs format (unit mm)*
G04 Created by KiCad (PCBNEW 8.0.6+1) date 2024-11-29 05:26:26*
%MOMM*%
%LPD*%
G01*
G04 APERTURE LIST*
%ADD10C,0.100000*%
%ADD11C,0.040000*%
%ADD12C,0.150000*%
%ADD13C,0.050000*%
%ADD14C,0.060000*%
%ADD15C,0.120000*%
G04 APERTURE END LIST*
D10*
X181952300Y-77916665D02*
X181976109Y-77845237D01*
X181976109Y-77845237D02*
X181976109Y-77726189D01*
X181976109Y-77726189D02*
X181952300Y-77678570D01*
X181952300Y-77678570D02*
X181928490Y-77654761D01*
X181928490Y-77654761D02*
X181880871Y-77630951D01*
X181880871Y-77630951D02*
X181833252Y-77630951D01*
X181833252Y-77630951D02*
X181785633Y-77654761D01*
X181785633Y-77654761D02*
X181761823Y-77678570D01*
X181761823Y-77678570D02*
X181738014Y-77726189D01*
X181738014Y-77726189D02*
X181714204Y-77821427D01*
X181714204Y-77821427D02*
X181690395Y-77869046D01*
X181690395Y-77869046D02*
X181666585Y-77892856D01*
X181666585Y-77892856D02*
X181618966Y-77916665D01*
X181618966Y-77916665D02*
X181571347Y-77916665D01*
X181571347Y-77916665D02*
X181523728Y-77892856D01*
X181523728Y-77892856D02*
X181499919Y-77869046D01*
X181499919Y-77869046D02*
X181476109Y-77821427D01*
X181476109Y-77821427D02*
X181476109Y-77702380D01*
X181476109Y-77702380D02*
X181499919Y-77630951D01*
X181476109Y-77464285D02*
X181976109Y-77345237D01*
X181976109Y-77345237D02*
X181618966Y-77249999D01*
X181618966Y-77249999D02*
X181976109Y-77154761D01*
X181976109Y-77154761D02*
X181476109Y-77035714D01*
X181976109Y-76583332D02*
X181976109Y-76869046D01*
X181976109Y-76726189D02*
X181476109Y-76726189D01*
X181476109Y-76726189D02*
X181547538Y-76773808D01*
X181547538Y-76773808D02*
X181595157Y-76821427D01*
X181595157Y-76821427D02*
X181618966Y-76869046D01*
D11*
X199518200Y-64967142D02*
X199394391Y-65053809D01*
X199518200Y-65115714D02*
X199258200Y-65115714D01*
X199258200Y-65115714D02*
X199258200Y-65016666D01*
X199258200Y-65016666D02*
X199270581Y-64991904D01*
X199270581Y-64991904D02*
X199282962Y-64979523D01*
X199282962Y-64979523D02*
X199307724Y-64967142D01*
X199307724Y-64967142D02*
X199344867Y-64967142D01*
X199344867Y-64967142D02*
X199369629Y-64979523D01*
X199369629Y-64979523D02*
X199382010Y-64991904D01*
X199382010Y-64991904D02*
X199394391Y-65016666D01*
X199394391Y-65016666D02*
X199394391Y-65115714D01*
X199518200Y-64719523D02*
X199518200Y-64868095D01*
X199518200Y-64793809D02*
X199258200Y-64793809D01*
X199258200Y-64793809D02*
X199295343Y-64818571D01*
X199295343Y-64818571D02*
X199320105Y-64843333D01*
X199320105Y-64843333D02*
X199332486Y-64868095D01*
X199258200Y-64496666D02*
X199258200Y-64546190D01*
X199258200Y-64546190D02*
X199270581Y-64570952D01*
X199270581Y-64570952D02*
X199282962Y-64583333D01*
X199282962Y-64583333D02*
X199320105Y-64608095D01*
X199320105Y-64608095D02*
X199369629Y-64620476D01*
X199369629Y-64620476D02*
X199468677Y-64620476D01*
X199468677Y-64620476D02*
X199493439Y-64608095D01*
X199493439Y-64608095D02*
X199505820Y-64595714D01*
X199505820Y-64595714D02*
X199518200Y-64570952D01*
X199518200Y-64570952D02*
X199518200Y-64521428D01*
X199518200Y-64521428D02*
X199505820Y-64496666D01*
X199505820Y-64496666D02*
X199493439Y-64484285D01*
X199493439Y-64484285D02*
X199468677Y-64471904D01*
X199468677Y-64471904D02*
X199406772Y-64471904D01*
X199406772Y-64471904D02*
X199382010Y-64484285D01*
X199382010Y-64484285D02*
X199369629Y-64496666D01*
X199369629Y-64496666D02*
X199357248Y-64521428D01*
X199357248Y-64521428D02*
X199357248Y-64570952D01*
X199357248Y-64570952D02*
X199369629Y-64595714D01*
X199369629Y-64595714D02*
X199382010Y-64608095D01*
X199382010Y-64608095D02*
X199406772Y-64620476D01*
D12*
X145754819Y-64434404D02*
X146564342Y-64434404D01*
X146564342Y-64434404D02*
X146659580Y-64386785D01*
X146659580Y-64386785D02*
X146707200Y-64339166D01*
X146707200Y-64339166D02*
X146754819Y-64243928D01*
X146754819Y-64243928D02*
X146754819Y-64053452D01*
X146754819Y-64053452D02*
X146707200Y-63958214D01*
X146707200Y-63958214D02*
X146659580Y-63910595D01*
X146659580Y-63910595D02*
X146564342Y-63862976D01*
X146564342Y-63862976D02*
X145754819Y-63862976D01*
X146088152Y-62958214D02*
X146754819Y-62958214D01*
X145707200Y-63196309D02*
X146421485Y-63434404D01*
X146421485Y-63434404D02*
X146421485Y-62815357D01*
D11*
X185118200Y-59803332D02*
X184994391Y-59889999D01*
X185118200Y-59951904D02*
X184858200Y-59951904D01*
X184858200Y-59951904D02*
X184858200Y-59852856D01*
X184858200Y-59852856D02*
X184870581Y-59828094D01*
X184870581Y-59828094D02*
X184882962Y-59815713D01*
X184882962Y-59815713D02*
X184907724Y-59803332D01*
X184907724Y-59803332D02*
X184944867Y-59803332D01*
X184944867Y-59803332D02*
X184969629Y-59815713D01*
X184969629Y-59815713D02*
X184982010Y-59828094D01*
X184982010Y-59828094D02*
X184994391Y-59852856D01*
X184994391Y-59852856D02*
X184994391Y-59951904D01*
X184882962Y-59704285D02*
X184870581Y-59691904D01*
X184870581Y-59691904D02*
X184858200Y-59667142D01*
X184858200Y-59667142D02*
X184858200Y-59605237D01*
X184858200Y-59605237D02*
X184870581Y-59580475D01*
X184870581Y-59580475D02*
X184882962Y-59568094D01*
X184882962Y-59568094D02*
X184907724Y-59555713D01*
X184907724Y-59555713D02*
X184932486Y-59555713D01*
X184932486Y-59555713D02*
X184969629Y-59568094D01*
X184969629Y-59568094D02*
X185118200Y-59716666D01*
X185118200Y-59716666D02*
X185118200Y-59555713D01*
D12*
X201304819Y-108309523D02*
X202019104Y-108309523D01*
X202019104Y-108309523D02*
X202161961Y-108357142D01*
X202161961Y-108357142D02*
X202257200Y-108452380D01*
X202257200Y-108452380D02*
X202304819Y-108595237D01*
X202304819Y-108595237D02*
X202304819Y-108690475D01*
X202304819Y-107309523D02*
X202304819Y-107880951D01*
X202304819Y-107595237D02*
X201304819Y-107595237D01*
X201304819Y-107595237D02*
X201447676Y-107690475D01*
X201447676Y-107690475D02*
X201542914Y-107785713D01*
X201542914Y-107785713D02*
X201590533Y-107880951D01*
X202304819Y-106357142D02*
X202304819Y-106928570D01*
X202304819Y-106642856D02*
X201304819Y-106642856D01*
X201304819Y-106642856D02*
X201447676Y-106738094D01*
X201447676Y-106738094D02*
X201542914Y-106833332D01*
X201542914Y-106833332D02*
X201590533Y-106928570D01*
X130351666Y-74724819D02*
X130351666Y-75439104D01*
X130351666Y-75439104D02*
X130304047Y-75581961D01*
X130304047Y-75581961D02*
X130208809Y-75677200D01*
X130208809Y-75677200D02*
X130065952Y-75724819D01*
X130065952Y-75724819D02*
X129970714Y-75724819D01*
X131304047Y-74724819D02*
X130827857Y-74724819D01*
X130827857Y-74724819D02*
X130780238Y-75201009D01*
X130780238Y-75201009D02*
X130827857Y-75153390D01*
X130827857Y-75153390D02*
X130923095Y-75105771D01*
X130923095Y-75105771D02*
X131161190Y-75105771D01*
X131161190Y-75105771D02*
X131256428Y-75153390D01*
X131256428Y-75153390D02*
X131304047Y-75201009D01*
X131304047Y-75201009D02*
X131351666Y-75296247D01*
X131351666Y-75296247D02*
X131351666Y-75534342D01*
X131351666Y-75534342D02*
X131304047Y-75629580D01*
X131304047Y-75629580D02*
X131256428Y-75677200D01*
X131256428Y-75677200D02*
X131161190Y-75724819D01*
X131161190Y-75724819D02*
X130923095Y-75724819D01*
X130923095Y-75724819D02*
X130827857Y-75677200D01*
X130827857Y-75677200D02*
X130780238Y-75629580D01*
D13*
X181568690Y-56775438D02*
X181568690Y-57034485D01*
X181568690Y-57034485D02*
X181583928Y-57064961D01*
X181583928Y-57064961D02*
X181599166Y-57080200D01*
X181599166Y-57080200D02*
X181629642Y-57095438D01*
X181629642Y-57095438D02*
X181690595Y-57095438D01*
X181690595Y-57095438D02*
X181721071Y-57080200D01*
X181721071Y-57080200D02*
X181736309Y-57064961D01*
X181736309Y-57064961D02*
X181751547Y-57034485D01*
X181751547Y-57034485D02*
X181751547Y-56775438D01*
X181888690Y-56805914D02*
X181903928Y-56790676D01*
X181903928Y-56790676D02*
X181934404Y-56775438D01*
X181934404Y-56775438D02*
X182010595Y-56775438D01*
X182010595Y-56775438D02*
X182041071Y-56790676D01*
X182041071Y-56790676D02*
X182056309Y-56805914D01*
X182056309Y-56805914D02*
X182071547Y-56836390D01*
X182071547Y-56836390D02*
X182071547Y-56866866D01*
X182071547Y-56866866D02*
X182056309Y-56912580D01*
X182056309Y-56912580D02*
X181873452Y-57095438D01*
X181873452Y-57095438D02*
X182071547Y-57095438D01*
D12*
X193704819Y-57018333D02*
X194419104Y-57018333D01*
X194419104Y-57018333D02*
X194561961Y-57065952D01*
X194561961Y-57065952D02*
X194657200Y-57161190D01*
X194657200Y-57161190D02*
X194704819Y-57304047D01*
X194704819Y-57304047D02*
X194704819Y-57399285D01*
X194704819Y-56018333D02*
X194704819Y-56589761D01*
X194704819Y-56304047D02*
X193704819Y-56304047D01*
X193704819Y-56304047D02*
X193847676Y-56399285D01*
X193847676Y-56399285D02*
X193942914Y-56494523D01*
X193942914Y-56494523D02*
X193990533Y-56589761D01*
D11*
X143089765Y-66081666D02*
X143101670Y-66093570D01*
X143101670Y-66093570D02*
X143113574Y-66129285D01*
X143113574Y-66129285D02*
X143113574Y-66153094D01*
X143113574Y-66153094D02*
X143101670Y-66188808D01*
X143101670Y-66188808D02*
X143077860Y-66212618D01*
X143077860Y-66212618D02*
X143054050Y-66224523D01*
X143054050Y-66224523D02*
X143006431Y-66236427D01*
X143006431Y-66236427D02*
X142970717Y-66236427D01*
X142970717Y-66236427D02*
X142923098Y-66224523D01*
X142923098Y-66224523D02*
X142899289Y-66212618D01*
X142899289Y-66212618D02*
X142875479Y-66188808D01*
X142875479Y-66188808D02*
X142863574Y-66153094D01*
X142863574Y-66153094D02*
X142863574Y-66129285D01*
X142863574Y-66129285D02*
X142875479Y-66093570D01*
X142875479Y-66093570D02*
X142887384Y-66081666D01*
X142863574Y-65867380D02*
X142863574Y-65914999D01*
X142863574Y-65914999D02*
X142875479Y-65938808D01*
X142875479Y-65938808D02*
X142887384Y-65950713D01*
X142887384Y-65950713D02*
X142923098Y-65974523D01*
X142923098Y-65974523D02*
X142970717Y-65986427D01*
X142970717Y-65986427D02*
X143065955Y-65986427D01*
X143065955Y-65986427D02*
X143089765Y-65974523D01*
X143089765Y-65974523D02*
X143101670Y-65962618D01*
X143101670Y-65962618D02*
X143113574Y-65938808D01*
X143113574Y-65938808D02*
X143113574Y-65891189D01*
X143113574Y-65891189D02*
X143101670Y-65867380D01*
X143101670Y-65867380D02*
X143089765Y-65855475D01*
X143089765Y-65855475D02*
X143065955Y-65843570D01*
X143065955Y-65843570D02*
X143006431Y-65843570D01*
X143006431Y-65843570D02*
X142982622Y-65855475D01*
X142982622Y-65855475D02*
X142970717Y-65867380D01*
X142970717Y-65867380D02*
X142958812Y-65891189D01*
X142958812Y-65891189D02*
X142958812Y-65938808D01*
X142958812Y-65938808D02*
X142970717Y-65962618D01*
X142970717Y-65962618D02*
X142982622Y-65974523D01*
X142982622Y-65974523D02*
X143006431Y-65986427D01*
D12*
X145754819Y-87124404D02*
X146564342Y-87124404D01*
X146564342Y-87124404D02*
X146659580Y-87076785D01*
X146659580Y-87076785D02*
X146707200Y-87029166D01*
X146707200Y-87029166D02*
X146754819Y-86933928D01*
X146754819Y-86933928D02*
X146754819Y-86743452D01*
X146754819Y-86743452D02*
X146707200Y-86648214D01*
X146707200Y-86648214D02*
X146659580Y-86600595D01*
X146659580Y-86600595D02*
X146564342Y-86552976D01*
X146564342Y-86552976D02*
X145754819Y-86552976D01*
X145754819Y-86172023D02*
X145754819Y-85552976D01*
X145754819Y-85552976D02*
X146135771Y-85886309D01*
X146135771Y-85886309D02*
X146135771Y-85743452D01*
X146135771Y-85743452D02*
X146183390Y-85648214D01*
X146183390Y-85648214D02*
X146231009Y-85600595D01*
X146231009Y-85600595D02*
X146326247Y-85552976D01*
X146326247Y-85552976D02*
X146564342Y-85552976D01*
X146564342Y-85552976D02*
X146659580Y-85600595D01*
X146659580Y-85600595D02*
X146707200Y-85648214D01*
X146707200Y-85648214D02*
X146754819Y-85743452D01*
X146754819Y-85743452D02*
X146754819Y-86029166D01*
X146754819Y-86029166D02*
X146707200Y-86124404D01*
X146707200Y-86124404D02*
X146659580Y-86172023D01*
D11*
X184868200Y-89167142D02*
X184744391Y-89253809D01*
X184868200Y-89315714D02*
X184608200Y-89315714D01*
X184608200Y-89315714D02*
X184608200Y-89216666D01*
X184608200Y-89216666D02*
X184620581Y-89191904D01*
X184620581Y-89191904D02*
X184632962Y-89179523D01*
X184632962Y-89179523D02*
X184657724Y-89167142D01*
X184657724Y-89167142D02*
X184694867Y-89167142D01*
X184694867Y-89167142D02*
X184719629Y-89179523D01*
X184719629Y-89179523D02*
X184732010Y-89191904D01*
X184732010Y-89191904D02*
X184744391Y-89216666D01*
X184744391Y-89216666D02*
X184744391Y-89315714D01*
X184868200Y-88919523D02*
X184868200Y-89068095D01*
X184868200Y-88993809D02*
X184608200Y-88993809D01*
X184608200Y-88993809D02*
X184645343Y-89018571D01*
X184645343Y-89018571D02*
X184670105Y-89043333D01*
X184670105Y-89043333D02*
X184682486Y-89068095D01*
X184608200Y-88832857D02*
X184608200Y-88671904D01*
X184608200Y-88671904D02*
X184707248Y-88758571D01*
X184707248Y-88758571D02*
X184707248Y-88721428D01*
X184707248Y-88721428D02*
X184719629Y-88696666D01*
X184719629Y-88696666D02*
X184732010Y-88684285D01*
X184732010Y-88684285D02*
X184756772Y-88671904D01*
X184756772Y-88671904D02*
X184818677Y-88671904D01*
X184818677Y-88671904D02*
X184843439Y-88684285D01*
X184843439Y-88684285D02*
X184855820Y-88696666D01*
X184855820Y-88696666D02*
X184868200Y-88721428D01*
X184868200Y-88721428D02*
X184868200Y-88795714D01*
X184868200Y-88795714D02*
X184855820Y-88820476D01*
X184855820Y-88820476D02*
X184843439Y-88832857D01*
X151868200Y-100293332D02*
X151744391Y-100379999D01*
X151868200Y-100441904D02*
X151608200Y-100441904D01*
X151608200Y-100441904D02*
X151608200Y-100342856D01*
X151608200Y-100342856D02*
X151620581Y-100318094D01*
X151620581Y-100318094D02*
X151632962Y-100305713D01*
X151632962Y-100305713D02*
X151657724Y-100293332D01*
X151657724Y-100293332D02*
X151694867Y-100293332D01*
X151694867Y-100293332D02*
X151719629Y-100305713D01*
X151719629Y-100305713D02*
X151732010Y-100318094D01*
X151732010Y-100318094D02*
X151744391Y-100342856D01*
X151744391Y-100342856D02*
X151744391Y-100441904D01*
X151608200Y-100206666D02*
X151608200Y-100033332D01*
X151608200Y-100033332D02*
X151868200Y-100144761D01*
D12*
X130351666Y-97414819D02*
X130351666Y-98129104D01*
X130351666Y-98129104D02*
X130304047Y-98271961D01*
X130304047Y-98271961D02*
X130208809Y-98367200D01*
X130208809Y-98367200D02*
X130065952Y-98414819D01*
X130065952Y-98414819D02*
X129970714Y-98414819D01*
X130732619Y-97414819D02*
X131351666Y-97414819D01*
X131351666Y-97414819D02*
X131018333Y-97795771D01*
X131018333Y-97795771D02*
X131161190Y-97795771D01*
X131161190Y-97795771D02*
X131256428Y-97843390D01*
X131256428Y-97843390D02*
X131304047Y-97891009D01*
X131304047Y-97891009D02*
X131351666Y-97986247D01*
X131351666Y-97986247D02*
X131351666Y-98224342D01*
X131351666Y-98224342D02*
X131304047Y-98319580D01*
X131304047Y-98319580D02*
X131256428Y-98367200D01*
X131256428Y-98367200D02*
X131161190Y-98414819D01*
X131161190Y-98414819D02*
X130875476Y-98414819D01*
X130875476Y-98414819D02*
X130780238Y-98367200D01*
X130780238Y-98367200D02*
X130732619Y-98319580D01*
D11*
X183118200Y-59793332D02*
X182994391Y-59879999D01*
X183118200Y-59941904D02*
X182858200Y-59941904D01*
X182858200Y-59941904D02*
X182858200Y-59842856D01*
X182858200Y-59842856D02*
X182870581Y-59818094D01*
X182870581Y-59818094D02*
X182882962Y-59805713D01*
X182882962Y-59805713D02*
X182907724Y-59793332D01*
X182907724Y-59793332D02*
X182944867Y-59793332D01*
X182944867Y-59793332D02*
X182969629Y-59805713D01*
X182969629Y-59805713D02*
X182982010Y-59818094D01*
X182982010Y-59818094D02*
X182994391Y-59842856D01*
X182994391Y-59842856D02*
X182994391Y-59941904D01*
X182858200Y-59706666D02*
X182858200Y-59545713D01*
X182858200Y-59545713D02*
X182957248Y-59632380D01*
X182957248Y-59632380D02*
X182957248Y-59595237D01*
X182957248Y-59595237D02*
X182969629Y-59570475D01*
X182969629Y-59570475D02*
X182982010Y-59558094D01*
X182982010Y-59558094D02*
X183006772Y-59545713D01*
X183006772Y-59545713D02*
X183068677Y-59545713D01*
X183068677Y-59545713D02*
X183093439Y-59558094D01*
X183093439Y-59558094D02*
X183105820Y-59570475D01*
X183105820Y-59570475D02*
X183118200Y-59595237D01*
X183118200Y-59595237D02*
X183118200Y-59669523D01*
X183118200Y-59669523D02*
X183105820Y-59694285D01*
X183105820Y-59694285D02*
X183093439Y-59706666D01*
X151868200Y-75717142D02*
X151744391Y-75803809D01*
X151868200Y-75865714D02*
X151608200Y-75865714D01*
X151608200Y-75865714D02*
X151608200Y-75766666D01*
X151608200Y-75766666D02*
X151620581Y-75741904D01*
X151620581Y-75741904D02*
X151632962Y-75729523D01*
X151632962Y-75729523D02*
X151657724Y-75717142D01*
X151657724Y-75717142D02*
X151694867Y-75717142D01*
X151694867Y-75717142D02*
X151719629Y-75729523D01*
X151719629Y-75729523D02*
X151732010Y-75741904D01*
X151732010Y-75741904D02*
X151744391Y-75766666D01*
X151744391Y-75766666D02*
X151744391Y-75865714D01*
X151868200Y-75469523D02*
X151868200Y-75618095D01*
X151868200Y-75543809D02*
X151608200Y-75543809D01*
X151608200Y-75543809D02*
X151645343Y-75568571D01*
X151645343Y-75568571D02*
X151670105Y-75593333D01*
X151670105Y-75593333D02*
X151682486Y-75618095D01*
X151608200Y-75308571D02*
X151608200Y-75283809D01*
X151608200Y-75283809D02*
X151620581Y-75259047D01*
X151620581Y-75259047D02*
X151632962Y-75246666D01*
X151632962Y-75246666D02*
X151657724Y-75234285D01*
X151657724Y-75234285D02*
X151707248Y-75221904D01*
X151707248Y-75221904D02*
X151769153Y-75221904D01*
X151769153Y-75221904D02*
X151818677Y-75234285D01*
X151818677Y-75234285D02*
X151843439Y-75246666D01*
X151843439Y-75246666D02*
X151855820Y-75259047D01*
X151855820Y-75259047D02*
X151868200Y-75283809D01*
X151868200Y-75283809D02*
X151868200Y-75308571D01*
X151868200Y-75308571D02*
X151855820Y-75333333D01*
X151855820Y-75333333D02*
X151843439Y-75345714D01*
X151843439Y-75345714D02*
X151818677Y-75358095D01*
X151818677Y-75358095D02*
X151769153Y-75370476D01*
X151769153Y-75370476D02*
X151707248Y-75370476D01*
X151707248Y-75370476D02*
X151657724Y-75358095D01*
X151657724Y-75358095D02*
X151632962Y-75345714D01*
X151632962Y-75345714D02*
X151620581Y-75333333D01*
X151620581Y-75333333D02*
X151608200Y-75308571D01*
D12*
X128738095Y-106454819D02*
X128738095Y-105454819D01*
X128738095Y-105931009D02*
X129309523Y-105931009D01*
X129309523Y-106454819D02*
X129309523Y-105454819D01*
X130214285Y-105788152D02*
X130214285Y-106454819D01*
X129976190Y-105407200D02*
X129738095Y-106121485D01*
X129738095Y-106121485D02*
X130357142Y-106121485D01*
X206738095Y-106454819D02*
X206738095Y-105454819D01*
X206738095Y-105931009D02*
X207309523Y-105931009D01*
X207309523Y-106454819D02*
X207309523Y-105454819D01*
X207738095Y-105550057D02*
X207785714Y-105502438D01*
X207785714Y-105502438D02*
X207880952Y-105454819D01*
X207880952Y-105454819D02*
X208119047Y-105454819D01*
X208119047Y-105454819D02*
X208214285Y-105502438D01*
X208214285Y-105502438D02*
X208261904Y-105550057D01*
X208261904Y-105550057D02*
X208309523Y-105645295D01*
X208309523Y-105645295D02*
X208309523Y-105740533D01*
X208309523Y-105740533D02*
X208261904Y-105883390D01*
X208261904Y-105883390D02*
X207690476Y-106454819D01*
X207690476Y-106454819D02*
X208309523Y-106454819D01*
D11*
X200642857Y-70528200D02*
X200556190Y-70404391D01*
X200494285Y-70528200D02*
X200494285Y-70268200D01*
X200494285Y-70268200D02*
X200593333Y-70268200D01*
X200593333Y-70268200D02*
X200618095Y-70280581D01*
X200618095Y-70280581D02*
X200630476Y-70292962D01*
X200630476Y-70292962D02*
X200642857Y-70317724D01*
X200642857Y-70317724D02*
X200642857Y-70354867D01*
X200642857Y-70354867D02*
X200630476Y-70379629D01*
X200630476Y-70379629D02*
X200618095Y-70392010D01*
X200618095Y-70392010D02*
X200593333Y-70404391D01*
X200593333Y-70404391D02*
X200494285Y-70404391D01*
X200741904Y-70292962D02*
X200754285Y-70280581D01*
X200754285Y-70280581D02*
X200779047Y-70268200D01*
X200779047Y-70268200D02*
X200840952Y-70268200D01*
X200840952Y-70268200D02*
X200865714Y-70280581D01*
X200865714Y-70280581D02*
X200878095Y-70292962D01*
X200878095Y-70292962D02*
X200890476Y-70317724D01*
X200890476Y-70317724D02*
X200890476Y-70342486D01*
X200890476Y-70342486D02*
X200878095Y-70379629D01*
X200878095Y-70379629D02*
X200729523Y-70528200D01*
X200729523Y-70528200D02*
X200890476Y-70528200D01*
X201138095Y-70528200D02*
X200989523Y-70528200D01*
X201063809Y-70528200D02*
X201063809Y-70268200D01*
X201063809Y-70268200D02*
X201039047Y-70305343D01*
X201039047Y-70305343D02*
X201014285Y-70330105D01*
X201014285Y-70330105D02*
X200989523Y-70342486D01*
D14*
X184933333Y-61743832D02*
X184914285Y-61762880D01*
X184914285Y-61762880D02*
X184857143Y-61781927D01*
X184857143Y-61781927D02*
X184819047Y-61781927D01*
X184819047Y-61781927D02*
X184761904Y-61762880D01*
X184761904Y-61762880D02*
X184723809Y-61724784D01*
X184723809Y-61724784D02*
X184704762Y-61686689D01*
X184704762Y-61686689D02*
X184685714Y-61610499D01*
X184685714Y-61610499D02*
X184685714Y-61553356D01*
X184685714Y-61553356D02*
X184704762Y-61477165D01*
X184704762Y-61477165D02*
X184723809Y-61439070D01*
X184723809Y-61439070D02*
X184761904Y-61400975D01*
X184761904Y-61400975D02*
X184819047Y-61381927D01*
X184819047Y-61381927D02*
X184857143Y-61381927D01*
X184857143Y-61381927D02*
X184914285Y-61400975D01*
X184914285Y-61400975D02*
X184933333Y-61420022D01*
X185066666Y-61381927D02*
X185314285Y-61381927D01*
X185314285Y-61381927D02*
X185180952Y-61534308D01*
X185180952Y-61534308D02*
X185238095Y-61534308D01*
X185238095Y-61534308D02*
X185276190Y-61553356D01*
X185276190Y-61553356D02*
X185295238Y-61572403D01*
X185295238Y-61572403D02*
X185314285Y-61610499D01*
X185314285Y-61610499D02*
X185314285Y-61705737D01*
X185314285Y-61705737D02*
X185295238Y-61743832D01*
X185295238Y-61743832D02*
X185276190Y-61762880D01*
X185276190Y-61762880D02*
X185238095Y-61781927D01*
X185238095Y-61781927D02*
X185123809Y-61781927D01*
X185123809Y-61781927D02*
X185085714Y-61762880D01*
X185085714Y-61762880D02*
X185066666Y-61743832D01*
D11*
X200732857Y-64418200D02*
X200646190Y-64294391D01*
X200584285Y-64418200D02*
X200584285Y-64158200D01*
X200584285Y-64158200D02*
X200683333Y-64158200D01*
X200683333Y-64158200D02*
X200708095Y-64170581D01*
X200708095Y-64170581D02*
X200720476Y-64182962D01*
X200720476Y-64182962D02*
X200732857Y-64207724D01*
X200732857Y-64207724D02*
X200732857Y-64244867D01*
X200732857Y-64244867D02*
X200720476Y-64269629D01*
X200720476Y-64269629D02*
X200708095Y-64282010D01*
X200708095Y-64282010D02*
X200683333Y-64294391D01*
X200683333Y-64294391D02*
X200584285Y-64294391D01*
X200980476Y-64418200D02*
X200831904Y-64418200D01*
X200906190Y-64418200D02*
X200906190Y-64158200D01*
X200906190Y-64158200D02*
X200881428Y-64195343D01*
X200881428Y-64195343D02*
X200856666Y-64220105D01*
X200856666Y-64220105D02*
X200831904Y-64232486D01*
X201129047Y-64269629D02*
X201104285Y-64257248D01*
X201104285Y-64257248D02*
X201091904Y-64244867D01*
X201091904Y-64244867D02*
X201079523Y-64220105D01*
X201079523Y-64220105D02*
X201079523Y-64207724D01*
X201079523Y-64207724D02*
X201091904Y-64182962D01*
X201091904Y-64182962D02*
X201104285Y-64170581D01*
X201104285Y-64170581D02*
X201129047Y-64158200D01*
X201129047Y-64158200D02*
X201178571Y-64158200D01*
X201178571Y-64158200D02*
X201203333Y-64170581D01*
X201203333Y-64170581D02*
X201215714Y-64182962D01*
X201215714Y-64182962D02*
X201228095Y-64207724D01*
X201228095Y-64207724D02*
X201228095Y-64220105D01*
X201228095Y-64220105D02*
X201215714Y-64244867D01*
X201215714Y-64244867D02*
X201203333Y-64257248D01*
X201203333Y-64257248D02*
X201178571Y-64269629D01*
X201178571Y-64269629D02*
X201129047Y-64269629D01*
X201129047Y-64269629D02*
X201104285Y-64282010D01*
X201104285Y-64282010D02*
X201091904Y-64294391D01*
X201091904Y-64294391D02*
X201079523Y-64319153D01*
X201079523Y-64319153D02*
X201079523Y-64368677D01*
X201079523Y-64368677D02*
X201091904Y-64393439D01*
X201091904Y-64393439D02*
X201104285Y-64405820D01*
X201104285Y-64405820D02*
X201129047Y-64418200D01*
X201129047Y-64418200D02*
X201178571Y-64418200D01*
X201178571Y-64418200D02*
X201203333Y-64405820D01*
X201203333Y-64405820D02*
X201215714Y-64393439D01*
X201215714Y-64393439D02*
X201228095Y-64368677D01*
X201228095Y-64368677D02*
X201228095Y-64319153D01*
X201228095Y-64319153D02*
X201215714Y-64294391D01*
X201215714Y-64294391D02*
X201203333Y-64282010D01*
X201203333Y-64282010D02*
X201178571Y-64269629D01*
X184868200Y-86177142D02*
X184744391Y-86263809D01*
X184868200Y-86325714D02*
X184608200Y-86325714D01*
X184608200Y-86325714D02*
X184608200Y-86226666D01*
X184608200Y-86226666D02*
X184620581Y-86201904D01*
X184620581Y-86201904D02*
X184632962Y-86189523D01*
X184632962Y-86189523D02*
X184657724Y-86177142D01*
X184657724Y-86177142D02*
X184694867Y-86177142D01*
X184694867Y-86177142D02*
X184719629Y-86189523D01*
X184719629Y-86189523D02*
X184732010Y-86201904D01*
X184732010Y-86201904D02*
X184744391Y-86226666D01*
X184744391Y-86226666D02*
X184744391Y-86325714D01*
X184868200Y-85929523D02*
X184868200Y-86078095D01*
X184868200Y-86003809D02*
X184608200Y-86003809D01*
X184608200Y-86003809D02*
X184645343Y-86028571D01*
X184645343Y-86028571D02*
X184670105Y-86053333D01*
X184670105Y-86053333D02*
X184682486Y-86078095D01*
X184694867Y-85706666D02*
X184868200Y-85706666D01*
X184595820Y-85768571D02*
X184781534Y-85830476D01*
X184781534Y-85830476D02*
X184781534Y-85669523D01*
D14*
X182143832Y-64166666D02*
X182162880Y-64185714D01*
X182162880Y-64185714D02*
X182181927Y-64242856D01*
X182181927Y-64242856D02*
X182181927Y-64280952D01*
X182181927Y-64280952D02*
X182162880Y-64338095D01*
X182162880Y-64338095D02*
X182124784Y-64376190D01*
X182124784Y-64376190D02*
X182086689Y-64395237D01*
X182086689Y-64395237D02*
X182010499Y-64414285D01*
X182010499Y-64414285D02*
X181953356Y-64414285D01*
X181953356Y-64414285D02*
X181877165Y-64395237D01*
X181877165Y-64395237D02*
X181839070Y-64376190D01*
X181839070Y-64376190D02*
X181800975Y-64338095D01*
X181800975Y-64338095D02*
X181781927Y-64280952D01*
X181781927Y-64280952D02*
X181781927Y-64242856D01*
X181781927Y-64242856D02*
X181800975Y-64185714D01*
X181800975Y-64185714D02*
X181820022Y-64166666D01*
X181820022Y-64014285D02*
X181800975Y-63995237D01*
X181800975Y-63995237D02*
X181781927Y-63957142D01*
X181781927Y-63957142D02*
X181781927Y-63861904D01*
X181781927Y-63861904D02*
X181800975Y-63823809D01*
X181800975Y-63823809D02*
X181820022Y-63804761D01*
X181820022Y-63804761D02*
X181858118Y-63785714D01*
X181858118Y-63785714D02*
X181896213Y-63785714D01*
X181896213Y-63785714D02*
X181953356Y-63804761D01*
X181953356Y-63804761D02*
X182181927Y-64033333D01*
X182181927Y-64033333D02*
X182181927Y-63785714D01*
D11*
X199518200Y-70077142D02*
X199394391Y-70163809D01*
X199518200Y-70225714D02*
X199258200Y-70225714D01*
X199258200Y-70225714D02*
X199258200Y-70126666D01*
X199258200Y-70126666D02*
X199270581Y-70101904D01*
X199270581Y-70101904D02*
X199282962Y-70089523D01*
X199282962Y-70089523D02*
X199307724Y-70077142D01*
X199307724Y-70077142D02*
X199344867Y-70077142D01*
X199344867Y-70077142D02*
X199369629Y-70089523D01*
X199369629Y-70089523D02*
X199382010Y-70101904D01*
X199382010Y-70101904D02*
X199394391Y-70126666D01*
X199394391Y-70126666D02*
X199394391Y-70225714D01*
X199518200Y-69829523D02*
X199518200Y-69978095D01*
X199518200Y-69903809D02*
X199258200Y-69903809D01*
X199258200Y-69903809D02*
X199295343Y-69928571D01*
X199295343Y-69928571D02*
X199320105Y-69953333D01*
X199320105Y-69953333D02*
X199332486Y-69978095D01*
X199518200Y-69705714D02*
X199518200Y-69656190D01*
X199518200Y-69656190D02*
X199505820Y-69631428D01*
X199505820Y-69631428D02*
X199493439Y-69619047D01*
X199493439Y-69619047D02*
X199456296Y-69594285D01*
X199456296Y-69594285D02*
X199406772Y-69581904D01*
X199406772Y-69581904D02*
X199307724Y-69581904D01*
X199307724Y-69581904D02*
X199282962Y-69594285D01*
X199282962Y-69594285D02*
X199270581Y-69606666D01*
X199270581Y-69606666D02*
X199258200Y-69631428D01*
X199258200Y-69631428D02*
X199258200Y-69680952D01*
X199258200Y-69680952D02*
X199270581Y-69705714D01*
X199270581Y-69705714D02*
X199282962Y-69718095D01*
X199282962Y-69718095D02*
X199307724Y-69730476D01*
X199307724Y-69730476D02*
X199369629Y-69730476D01*
X199369629Y-69730476D02*
X199394391Y-69718095D01*
X199394391Y-69718095D02*
X199406772Y-69705714D01*
X199406772Y-69705714D02*
X199419153Y-69680952D01*
X199419153Y-69680952D02*
X199419153Y-69631428D01*
X199419153Y-69631428D02*
X199406772Y-69606666D01*
X199406772Y-69606666D02*
X199394391Y-69594285D01*
X199394391Y-69594285D02*
X199369629Y-69581904D01*
X200632857Y-76028200D02*
X200546190Y-75904391D01*
X200484285Y-76028200D02*
X200484285Y-75768200D01*
X200484285Y-75768200D02*
X200583333Y-75768200D01*
X200583333Y-75768200D02*
X200608095Y-75780581D01*
X200608095Y-75780581D02*
X200620476Y-75792962D01*
X200620476Y-75792962D02*
X200632857Y-75817724D01*
X200632857Y-75817724D02*
X200632857Y-75854867D01*
X200632857Y-75854867D02*
X200620476Y-75879629D01*
X200620476Y-75879629D02*
X200608095Y-75892010D01*
X200608095Y-75892010D02*
X200583333Y-75904391D01*
X200583333Y-75904391D02*
X200484285Y-75904391D01*
X200731904Y-75792962D02*
X200744285Y-75780581D01*
X200744285Y-75780581D02*
X200769047Y-75768200D01*
X200769047Y-75768200D02*
X200830952Y-75768200D01*
X200830952Y-75768200D02*
X200855714Y-75780581D01*
X200855714Y-75780581D02*
X200868095Y-75792962D01*
X200868095Y-75792962D02*
X200880476Y-75817724D01*
X200880476Y-75817724D02*
X200880476Y-75842486D01*
X200880476Y-75842486D02*
X200868095Y-75879629D01*
X200868095Y-75879629D02*
X200719523Y-76028200D01*
X200719523Y-76028200D02*
X200880476Y-76028200D01*
X200967142Y-75768200D02*
X201128095Y-75768200D01*
X201128095Y-75768200D02*
X201041428Y-75867248D01*
X201041428Y-75867248D02*
X201078571Y-75867248D01*
X201078571Y-75867248D02*
X201103333Y-75879629D01*
X201103333Y-75879629D02*
X201115714Y-75892010D01*
X201115714Y-75892010D02*
X201128095Y-75916772D01*
X201128095Y-75916772D02*
X201128095Y-75978677D01*
X201128095Y-75978677D02*
X201115714Y-76003439D01*
X201115714Y-76003439D02*
X201103333Y-76015820D01*
X201103333Y-76015820D02*
X201078571Y-76028200D01*
X201078571Y-76028200D02*
X201004285Y-76028200D01*
X201004285Y-76028200D02*
X200979523Y-76015820D01*
X200979523Y-76015820D02*
X200967142Y-76003439D01*
D12*
X135174819Y-66408333D02*
X135889104Y-66408333D01*
X135889104Y-66408333D02*
X136031961Y-66455952D01*
X136031961Y-66455952D02*
X136127200Y-66551190D01*
X136127200Y-66551190D02*
X136174819Y-66694047D01*
X136174819Y-66694047D02*
X136174819Y-66789285D01*
X135508152Y-65503571D02*
X136174819Y-65503571D01*
X135127200Y-65741666D02*
X135841485Y-65979761D01*
X135841485Y-65979761D02*
X135841485Y-65360714D01*
D11*
X199518200Y-76577142D02*
X199394391Y-76663809D01*
X199518200Y-76725714D02*
X199258200Y-76725714D01*
X199258200Y-76725714D02*
X199258200Y-76626666D01*
X199258200Y-76626666D02*
X199270581Y-76601904D01*
X199270581Y-76601904D02*
X199282962Y-76589523D01*
X199282962Y-76589523D02*
X199307724Y-76577142D01*
X199307724Y-76577142D02*
X199344867Y-76577142D01*
X199344867Y-76577142D02*
X199369629Y-76589523D01*
X199369629Y-76589523D02*
X199382010Y-76601904D01*
X199382010Y-76601904D02*
X199394391Y-76626666D01*
X199394391Y-76626666D02*
X199394391Y-76725714D01*
X199282962Y-76478095D02*
X199270581Y-76465714D01*
X199270581Y-76465714D02*
X199258200Y-76440952D01*
X199258200Y-76440952D02*
X199258200Y-76379047D01*
X199258200Y-76379047D02*
X199270581Y-76354285D01*
X199270581Y-76354285D02*
X199282962Y-76341904D01*
X199282962Y-76341904D02*
X199307724Y-76329523D01*
X199307724Y-76329523D02*
X199332486Y-76329523D01*
X199332486Y-76329523D02*
X199369629Y-76341904D01*
X199369629Y-76341904D02*
X199518200Y-76490476D01*
X199518200Y-76490476D02*
X199518200Y-76329523D01*
X199282962Y-76230476D02*
X199270581Y-76218095D01*
X199270581Y-76218095D02*
X199258200Y-76193333D01*
X199258200Y-76193333D02*
X199258200Y-76131428D01*
X199258200Y-76131428D02*
X199270581Y-76106666D01*
X199270581Y-76106666D02*
X199282962Y-76094285D01*
X199282962Y-76094285D02*
X199307724Y-76081904D01*
X199307724Y-76081904D02*
X199332486Y-76081904D01*
X199332486Y-76081904D02*
X199369629Y-76094285D01*
X199369629Y-76094285D02*
X199518200Y-76242857D01*
X199518200Y-76242857D02*
X199518200Y-76081904D01*
X200732857Y-65418200D02*
X200646190Y-65294391D01*
X200584285Y-65418200D02*
X200584285Y-65158200D01*
X200584285Y-65158200D02*
X200683333Y-65158200D01*
X200683333Y-65158200D02*
X200708095Y-65170581D01*
X200708095Y-65170581D02*
X200720476Y-65182962D01*
X200720476Y-65182962D02*
X200732857Y-65207724D01*
X200732857Y-65207724D02*
X200732857Y-65244867D01*
X200732857Y-65244867D02*
X200720476Y-65269629D01*
X200720476Y-65269629D02*
X200708095Y-65282010D01*
X200708095Y-65282010D02*
X200683333Y-65294391D01*
X200683333Y-65294391D02*
X200584285Y-65294391D01*
X200980476Y-65418200D02*
X200831904Y-65418200D01*
X200906190Y-65418200D02*
X200906190Y-65158200D01*
X200906190Y-65158200D02*
X200881428Y-65195343D01*
X200881428Y-65195343D02*
X200856666Y-65220105D01*
X200856666Y-65220105D02*
X200831904Y-65232486D01*
X201067142Y-65158200D02*
X201240476Y-65158200D01*
X201240476Y-65158200D02*
X201129047Y-65418200D01*
D12*
X189654819Y-98649404D02*
X190464342Y-98649404D01*
X190464342Y-98649404D02*
X190559580Y-98601785D01*
X190559580Y-98601785D02*
X190607200Y-98554166D01*
X190607200Y-98554166D02*
X190654819Y-98458928D01*
X190654819Y-98458928D02*
X190654819Y-98268452D01*
X190654819Y-98268452D02*
X190607200Y-98173214D01*
X190607200Y-98173214D02*
X190559580Y-98125595D01*
X190559580Y-98125595D02*
X190464342Y-98077976D01*
X190464342Y-98077976D02*
X189654819Y-98077976D01*
X189654819Y-97125595D02*
X189654819Y-97601785D01*
X189654819Y-97601785D02*
X190131009Y-97649404D01*
X190131009Y-97649404D02*
X190083390Y-97601785D01*
X190083390Y-97601785D02*
X190035771Y-97506547D01*
X190035771Y-97506547D02*
X190035771Y-97268452D01*
X190035771Y-97268452D02*
X190083390Y-97173214D01*
X190083390Y-97173214D02*
X190131009Y-97125595D01*
X190131009Y-97125595D02*
X190226247Y-97077976D01*
X190226247Y-97077976D02*
X190464342Y-97077976D01*
X190464342Y-97077976D02*
X190559580Y-97125595D01*
X190559580Y-97125595D02*
X190607200Y-97173214D01*
X190607200Y-97173214D02*
X190654819Y-97268452D01*
X190654819Y-97268452D02*
X190654819Y-97506547D01*
X190654819Y-97506547D02*
X190607200Y-97601785D01*
X190607200Y-97601785D02*
X190559580Y-97649404D01*
D11*
X151868200Y-98283332D02*
X151744391Y-98369999D01*
X151868200Y-98431904D02*
X151608200Y-98431904D01*
X151608200Y-98431904D02*
X151608200Y-98332856D01*
X151608200Y-98332856D02*
X151620581Y-98308094D01*
X151620581Y-98308094D02*
X151632962Y-98295713D01*
X151632962Y-98295713D02*
X151657724Y-98283332D01*
X151657724Y-98283332D02*
X151694867Y-98283332D01*
X151694867Y-98283332D02*
X151719629Y-98295713D01*
X151719629Y-98295713D02*
X151732010Y-98308094D01*
X151732010Y-98308094D02*
X151744391Y-98332856D01*
X151744391Y-98332856D02*
X151744391Y-98431904D01*
X151608200Y-98060475D02*
X151608200Y-98109999D01*
X151608200Y-98109999D02*
X151620581Y-98134761D01*
X151620581Y-98134761D02*
X151632962Y-98147142D01*
X151632962Y-98147142D02*
X151670105Y-98171904D01*
X151670105Y-98171904D02*
X151719629Y-98184285D01*
X151719629Y-98184285D02*
X151818677Y-98184285D01*
X151818677Y-98184285D02*
X151843439Y-98171904D01*
X151843439Y-98171904D02*
X151855820Y-98159523D01*
X151855820Y-98159523D02*
X151868200Y-98134761D01*
X151868200Y-98134761D02*
X151868200Y-98085237D01*
X151868200Y-98085237D02*
X151855820Y-98060475D01*
X151855820Y-98060475D02*
X151843439Y-98048094D01*
X151843439Y-98048094D02*
X151818677Y-98035713D01*
X151818677Y-98035713D02*
X151756772Y-98035713D01*
X151756772Y-98035713D02*
X151732010Y-98048094D01*
X151732010Y-98048094D02*
X151719629Y-98060475D01*
X151719629Y-98060475D02*
X151707248Y-98085237D01*
X151707248Y-98085237D02*
X151707248Y-98134761D01*
X151707248Y-98134761D02*
X151719629Y-98159523D01*
X151719629Y-98159523D02*
X151732010Y-98171904D01*
X151732010Y-98171904D02*
X151756772Y-98184285D01*
X151868200Y-95293332D02*
X151744391Y-95379999D01*
X151868200Y-95441904D02*
X151608200Y-95441904D01*
X151608200Y-95441904D02*
X151608200Y-95342856D01*
X151608200Y-95342856D02*
X151620581Y-95318094D01*
X151620581Y-95318094D02*
X151632962Y-95305713D01*
X151632962Y-95305713D02*
X151657724Y-95293332D01*
X151657724Y-95293332D02*
X151694867Y-95293332D01*
X151694867Y-95293332D02*
X151719629Y-95305713D01*
X151719629Y-95305713D02*
X151732010Y-95318094D01*
X151732010Y-95318094D02*
X151744391Y-95342856D01*
X151744391Y-95342856D02*
X151744391Y-95441904D01*
X151608200Y-95058094D02*
X151608200Y-95181904D01*
X151608200Y-95181904D02*
X151732010Y-95194285D01*
X151732010Y-95194285D02*
X151719629Y-95181904D01*
X151719629Y-95181904D02*
X151707248Y-95157142D01*
X151707248Y-95157142D02*
X151707248Y-95095237D01*
X151707248Y-95095237D02*
X151719629Y-95070475D01*
X151719629Y-95070475D02*
X151732010Y-95058094D01*
X151732010Y-95058094D02*
X151756772Y-95045713D01*
X151756772Y-95045713D02*
X151818677Y-95045713D01*
X151818677Y-95045713D02*
X151843439Y-95058094D01*
X151843439Y-95058094D02*
X151855820Y-95070475D01*
X151855820Y-95070475D02*
X151868200Y-95095237D01*
X151868200Y-95095237D02*
X151868200Y-95157142D01*
X151868200Y-95157142D02*
X151855820Y-95181904D01*
X151855820Y-95181904D02*
X151843439Y-95194285D01*
D15*
X147195951Y-69136355D02*
X147119761Y-69098260D01*
X147119761Y-69098260D02*
X147081666Y-69060164D01*
X147081666Y-69060164D02*
X147043570Y-68983974D01*
X147043570Y-68983974D02*
X147043570Y-68755402D01*
X147043570Y-68755402D02*
X147081666Y-68679212D01*
X147081666Y-68679212D02*
X147119761Y-68641117D01*
X147119761Y-68641117D02*
X147195951Y-68603021D01*
X147195951Y-68603021D02*
X147310237Y-68603021D01*
X147310237Y-68603021D02*
X147386428Y-68641117D01*
X147386428Y-68641117D02*
X147424523Y-68679212D01*
X147424523Y-68679212D02*
X147462618Y-68755402D01*
X147462618Y-68755402D02*
X147462618Y-68983974D01*
X147462618Y-68983974D02*
X147424523Y-69060164D01*
X147424523Y-69060164D02*
X147386428Y-69098260D01*
X147386428Y-69098260D02*
X147310237Y-69136355D01*
X147310237Y-69136355D02*
X147195951Y-69136355D01*
X147805476Y-68603021D02*
X147805476Y-69136355D01*
X147805476Y-68679212D02*
X147843571Y-68641117D01*
X147843571Y-68641117D02*
X147919761Y-68603021D01*
X147919761Y-68603021D02*
X148034047Y-68603021D01*
X148034047Y-68603021D02*
X148110238Y-68641117D01*
X148110238Y-68641117D02*
X148148333Y-68717307D01*
X148148333Y-68717307D02*
X148148333Y-69136355D01*
X149845760Y-75146667D02*
X149883855Y-75032381D01*
X149883855Y-75032381D02*
X149883855Y-74841905D01*
X149883855Y-74841905D02*
X149845760Y-74765714D01*
X149845760Y-74765714D02*
X149807664Y-74727619D01*
X149807664Y-74727619D02*
X149731474Y-74689524D01*
X149731474Y-74689524D02*
X149655283Y-74689524D01*
X149655283Y-74689524D02*
X149579093Y-74727619D01*
X149579093Y-74727619D02*
X149540998Y-74765714D01*
X149540998Y-74765714D02*
X149502902Y-74841905D01*
X149502902Y-74841905D02*
X149464807Y-74994286D01*
X149464807Y-74994286D02*
X149426712Y-75070476D01*
X149426712Y-75070476D02*
X149388617Y-75108571D01*
X149388617Y-75108571D02*
X149312426Y-75146667D01*
X149312426Y-75146667D02*
X149236236Y-75146667D01*
X149236236Y-75146667D02*
X149160045Y-75108571D01*
X149160045Y-75108571D02*
X149121950Y-75070476D01*
X149121950Y-75070476D02*
X149083855Y-74994286D01*
X149083855Y-74994286D02*
X149083855Y-74803809D01*
X149083855Y-74803809D02*
X149121950Y-74689524D01*
X149083855Y-74422857D02*
X149883855Y-74232381D01*
X149883855Y-74232381D02*
X149312426Y-74080000D01*
X149312426Y-74080000D02*
X149883855Y-73927619D01*
X149883855Y-73927619D02*
X149083855Y-73737143D01*
X149083855Y-73508571D02*
X149083855Y-73013333D01*
X149083855Y-73013333D02*
X149388617Y-73279999D01*
X149388617Y-73279999D02*
X149388617Y-73165714D01*
X149388617Y-73165714D02*
X149426712Y-73089523D01*
X149426712Y-73089523D02*
X149464807Y-73051428D01*
X149464807Y-73051428D02*
X149540998Y-73013333D01*
X149540998Y-73013333D02*
X149731474Y-73013333D01*
X149731474Y-73013333D02*
X149807664Y-73051428D01*
X149807664Y-73051428D02*
X149845760Y-73089523D01*
X149845760Y-73089523D02*
X149883855Y-73165714D01*
X149883855Y-73165714D02*
X149883855Y-73394285D01*
X149883855Y-73394285D02*
X149845760Y-73470476D01*
X149845760Y-73470476D02*
X149807664Y-73508571D01*
D12*
X200234819Y-95818333D02*
X200949104Y-95818333D01*
X200949104Y-95818333D02*
X201091961Y-95865952D01*
X201091961Y-95865952D02*
X201187200Y-95961190D01*
X201187200Y-95961190D02*
X201234819Y-96104047D01*
X201234819Y-96104047D02*
X201234819Y-96199285D01*
X200234819Y-94913571D02*
X200234819Y-95104047D01*
X200234819Y-95104047D02*
X200282438Y-95199285D01*
X200282438Y-95199285D02*
X200330057Y-95246904D01*
X200330057Y-95246904D02*
X200472914Y-95342142D01*
X200472914Y-95342142D02*
X200663390Y-95389761D01*
X200663390Y-95389761D02*
X201044342Y-95389761D01*
X201044342Y-95389761D02*
X201139580Y-95342142D01*
X201139580Y-95342142D02*
X201187200Y-95294523D01*
X201187200Y-95294523D02*
X201234819Y-95199285D01*
X201234819Y-95199285D02*
X201234819Y-95008809D01*
X201234819Y-95008809D02*
X201187200Y-94913571D01*
X201187200Y-94913571D02*
X201139580Y-94865952D01*
X201139580Y-94865952D02*
X201044342Y-94818333D01*
X201044342Y-94818333D02*
X200806247Y-94818333D01*
X200806247Y-94818333D02*
X200711009Y-94865952D01*
X200711009Y-94865952D02*
X200663390Y-94913571D01*
X200663390Y-94913571D02*
X200615771Y-95008809D01*
X200615771Y-95008809D02*
X200615771Y-95199285D01*
X200615771Y-95199285D02*
X200663390Y-95294523D01*
X200663390Y-95294523D02*
X200711009Y-95342142D01*
X200711009Y-95342142D02*
X200806247Y-95389761D01*
D11*
X200642857Y-69528200D02*
X200556190Y-69404391D01*
X200494285Y-69528200D02*
X200494285Y-69268200D01*
X200494285Y-69268200D02*
X200593333Y-69268200D01*
X200593333Y-69268200D02*
X200618095Y-69280581D01*
X200618095Y-69280581D02*
X200630476Y-69292962D01*
X200630476Y-69292962D02*
X200642857Y-69317724D01*
X200642857Y-69317724D02*
X200642857Y-69354867D01*
X200642857Y-69354867D02*
X200630476Y-69379629D01*
X200630476Y-69379629D02*
X200618095Y-69392010D01*
X200618095Y-69392010D02*
X200593333Y-69404391D01*
X200593333Y-69404391D02*
X200494285Y-69404391D01*
X200741904Y-69292962D02*
X200754285Y-69280581D01*
X200754285Y-69280581D02*
X200779047Y-69268200D01*
X200779047Y-69268200D02*
X200840952Y-69268200D01*
X200840952Y-69268200D02*
X200865714Y-69280581D01*
X200865714Y-69280581D02*
X200878095Y-69292962D01*
X200878095Y-69292962D02*
X200890476Y-69317724D01*
X200890476Y-69317724D02*
X200890476Y-69342486D01*
X200890476Y-69342486D02*
X200878095Y-69379629D01*
X200878095Y-69379629D02*
X200729523Y-69528200D01*
X200729523Y-69528200D02*
X200890476Y-69528200D01*
X201051428Y-69268200D02*
X201076190Y-69268200D01*
X201076190Y-69268200D02*
X201100952Y-69280581D01*
X201100952Y-69280581D02*
X201113333Y-69292962D01*
X201113333Y-69292962D02*
X201125714Y-69317724D01*
X201125714Y-69317724D02*
X201138095Y-69367248D01*
X201138095Y-69367248D02*
X201138095Y-69429153D01*
X201138095Y-69429153D02*
X201125714Y-69478677D01*
X201125714Y-69478677D02*
X201113333Y-69503439D01*
X201113333Y-69503439D02*
X201100952Y-69515820D01*
X201100952Y-69515820D02*
X201076190Y-69528200D01*
X201076190Y-69528200D02*
X201051428Y-69528200D01*
X201051428Y-69528200D02*
X201026666Y-69515820D01*
X201026666Y-69515820D02*
X201014285Y-69503439D01*
X201014285Y-69503439D02*
X201001904Y-69478677D01*
X201001904Y-69478677D02*
X200989523Y-69429153D01*
X200989523Y-69429153D02*
X200989523Y-69367248D01*
X200989523Y-69367248D02*
X201001904Y-69317724D01*
X201001904Y-69317724D02*
X201014285Y-69292962D01*
X201014285Y-69292962D02*
X201026666Y-69280581D01*
X201026666Y-69280581D02*
X201051428Y-69268200D01*
X184868200Y-91177142D02*
X184744391Y-91263809D01*
X184868200Y-91325714D02*
X184608200Y-91325714D01*
X184608200Y-91325714D02*
X184608200Y-91226666D01*
X184608200Y-91226666D02*
X184620581Y-91201904D01*
X184620581Y-91201904D02*
X184632962Y-91189523D01*
X184632962Y-91189523D02*
X184657724Y-91177142D01*
X184657724Y-91177142D02*
X184694867Y-91177142D01*
X184694867Y-91177142D02*
X184719629Y-91189523D01*
X184719629Y-91189523D02*
X184732010Y-91201904D01*
X184732010Y-91201904D02*
X184744391Y-91226666D01*
X184744391Y-91226666D02*
X184744391Y-91325714D01*
X184868200Y-90929523D02*
X184868200Y-91078095D01*
X184868200Y-91003809D02*
X184608200Y-91003809D01*
X184608200Y-91003809D02*
X184645343Y-91028571D01*
X184645343Y-91028571D02*
X184670105Y-91053333D01*
X184670105Y-91053333D02*
X184682486Y-91078095D01*
X184632962Y-90830476D02*
X184620581Y-90818095D01*
X184620581Y-90818095D02*
X184608200Y-90793333D01*
X184608200Y-90793333D02*
X184608200Y-90731428D01*
X184608200Y-90731428D02*
X184620581Y-90706666D01*
X184620581Y-90706666D02*
X184632962Y-90694285D01*
X184632962Y-90694285D02*
X184657724Y-90681904D01*
X184657724Y-90681904D02*
X184682486Y-90681904D01*
X184682486Y-90681904D02*
X184719629Y-90694285D01*
X184719629Y-90694285D02*
X184868200Y-90842857D01*
X184868200Y-90842857D02*
X184868200Y-90681904D01*
X183958333Y-67689765D02*
X183946429Y-67701670D01*
X183946429Y-67701670D02*
X183910714Y-67713574D01*
X183910714Y-67713574D02*
X183886905Y-67713574D01*
X183886905Y-67713574D02*
X183851191Y-67701670D01*
X183851191Y-67701670D02*
X183827381Y-67677860D01*
X183827381Y-67677860D02*
X183815476Y-67654050D01*
X183815476Y-67654050D02*
X183803572Y-67606431D01*
X183803572Y-67606431D02*
X183803572Y-67570717D01*
X183803572Y-67570717D02*
X183815476Y-67523098D01*
X183815476Y-67523098D02*
X183827381Y-67499289D01*
X183827381Y-67499289D02*
X183851191Y-67475479D01*
X183851191Y-67475479D02*
X183886905Y-67463574D01*
X183886905Y-67463574D02*
X183910714Y-67463574D01*
X183910714Y-67463574D02*
X183946429Y-67475479D01*
X183946429Y-67475479D02*
X183958333Y-67487384D01*
X184196429Y-67713574D02*
X184053572Y-67713574D01*
X184125000Y-67713574D02*
X184125000Y-67463574D01*
X184125000Y-67463574D02*
X184101191Y-67499289D01*
X184101191Y-67499289D02*
X184077381Y-67523098D01*
X184077381Y-67523098D02*
X184053572Y-67535003D01*
D15*
X188465951Y-93151355D02*
X188389761Y-93113260D01*
X188389761Y-93113260D02*
X188351666Y-93075164D01*
X188351666Y-93075164D02*
X188313570Y-92998974D01*
X188313570Y-92998974D02*
X188313570Y-92770402D01*
X188313570Y-92770402D02*
X188351666Y-92694212D01*
X188351666Y-92694212D02*
X188389761Y-92656117D01*
X188389761Y-92656117D02*
X188465951Y-92618021D01*
X188465951Y-92618021D02*
X188580237Y-92618021D01*
X188580237Y-92618021D02*
X188656428Y-92656117D01*
X188656428Y-92656117D02*
X188694523Y-92694212D01*
X188694523Y-92694212D02*
X188732618Y-92770402D01*
X188732618Y-92770402D02*
X188732618Y-92998974D01*
X188732618Y-92998974D02*
X188694523Y-93075164D01*
X188694523Y-93075164D02*
X188656428Y-93113260D01*
X188656428Y-93113260D02*
X188580237Y-93151355D01*
X188580237Y-93151355D02*
X188465951Y-93151355D01*
X189075476Y-92618021D02*
X189075476Y-93151355D01*
X189075476Y-92694212D02*
X189113571Y-92656117D01*
X189113571Y-92656117D02*
X189189761Y-92618021D01*
X189189761Y-92618021D02*
X189304047Y-92618021D01*
X189304047Y-92618021D02*
X189380238Y-92656117D01*
X189380238Y-92656117D02*
X189418333Y-92732307D01*
X189418333Y-92732307D02*
X189418333Y-93151355D01*
X187305760Y-88546667D02*
X187343855Y-88432381D01*
X187343855Y-88432381D02*
X187343855Y-88241905D01*
X187343855Y-88241905D02*
X187305760Y-88165714D01*
X187305760Y-88165714D02*
X187267664Y-88127619D01*
X187267664Y-88127619D02*
X187191474Y-88089524D01*
X187191474Y-88089524D02*
X187115283Y-88089524D01*
X187115283Y-88089524D02*
X187039093Y-88127619D01*
X187039093Y-88127619D02*
X187000998Y-88165714D01*
X187000998Y-88165714D02*
X186962902Y-88241905D01*
X186962902Y-88241905D02*
X186924807Y-88394286D01*
X186924807Y-88394286D02*
X186886712Y-88470476D01*
X186886712Y-88470476D02*
X186848617Y-88508571D01*
X186848617Y-88508571D02*
X186772426Y-88546667D01*
X186772426Y-88546667D02*
X186696236Y-88546667D01*
X186696236Y-88546667D02*
X186620045Y-88508571D01*
X186620045Y-88508571D02*
X186581950Y-88470476D01*
X186581950Y-88470476D02*
X186543855Y-88394286D01*
X186543855Y-88394286D02*
X186543855Y-88203809D01*
X186543855Y-88203809D02*
X186581950Y-88089524D01*
X186543855Y-87822857D02*
X187343855Y-87632381D01*
X187343855Y-87632381D02*
X186772426Y-87480000D01*
X186772426Y-87480000D02*
X187343855Y-87327619D01*
X187343855Y-87327619D02*
X186543855Y-87137143D01*
X186810521Y-86489523D02*
X187343855Y-86489523D01*
X186505760Y-86679999D02*
X187077188Y-86870476D01*
X187077188Y-86870476D02*
X187077188Y-86375237D01*
D12*
X135174819Y-89098333D02*
X135889104Y-89098333D01*
X135889104Y-89098333D02*
X136031961Y-89145952D01*
X136031961Y-89145952D02*
X136127200Y-89241190D01*
X136127200Y-89241190D02*
X136174819Y-89384047D01*
X136174819Y-89384047D02*
X136174819Y-89479285D01*
X135270057Y-88669761D02*
X135222438Y-88622142D01*
X135222438Y-88622142D02*
X135174819Y-88526904D01*
X135174819Y-88526904D02*
X135174819Y-88288809D01*
X135174819Y-88288809D02*
X135222438Y-88193571D01*
X135222438Y-88193571D02*
X135270057Y-88145952D01*
X135270057Y-88145952D02*
X135365295Y-88098333D01*
X135365295Y-88098333D02*
X135460533Y-88098333D01*
X135460533Y-88098333D02*
X135603390Y-88145952D01*
X135603390Y-88145952D02*
X136174819Y-88717380D01*
X136174819Y-88717380D02*
X136174819Y-88098333D01*
D11*
X143089765Y-61371666D02*
X143101670Y-61383570D01*
X143101670Y-61383570D02*
X143113574Y-61419285D01*
X143113574Y-61419285D02*
X143113574Y-61443094D01*
X143113574Y-61443094D02*
X143101670Y-61478808D01*
X143101670Y-61478808D02*
X143077860Y-61502618D01*
X143077860Y-61502618D02*
X143054050Y-61514523D01*
X143054050Y-61514523D02*
X143006431Y-61526427D01*
X143006431Y-61526427D02*
X142970717Y-61526427D01*
X142970717Y-61526427D02*
X142923098Y-61514523D01*
X142923098Y-61514523D02*
X142899289Y-61502618D01*
X142899289Y-61502618D02*
X142875479Y-61478808D01*
X142875479Y-61478808D02*
X142863574Y-61443094D01*
X142863574Y-61443094D02*
X142863574Y-61419285D01*
X142863574Y-61419285D02*
X142875479Y-61383570D01*
X142875479Y-61383570D02*
X142887384Y-61371666D01*
X142863574Y-61288332D02*
X142863574Y-61121666D01*
X142863574Y-61121666D02*
X143113574Y-61228808D01*
D12*
X205850476Y-75124819D02*
X205850476Y-75839104D01*
X205850476Y-75839104D02*
X205802857Y-75981961D01*
X205802857Y-75981961D02*
X205707619Y-76077200D01*
X205707619Y-76077200D02*
X205564762Y-76124819D01*
X205564762Y-76124819D02*
X205469524Y-76124819D01*
X206850476Y-76124819D02*
X206279048Y-76124819D01*
X206564762Y-76124819D02*
X206564762Y-75124819D01*
X206564762Y-75124819D02*
X206469524Y-75267676D01*
X206469524Y-75267676D02*
X206374286Y-75362914D01*
X206374286Y-75362914D02*
X206279048Y-75410533D01*
X207469524Y-75124819D02*
X207564762Y-75124819D01*
X207564762Y-75124819D02*
X207660000Y-75172438D01*
X207660000Y-75172438D02*
X207707619Y-75220057D01*
X207707619Y-75220057D02*
X207755238Y-75315295D01*
X207755238Y-75315295D02*
X207802857Y-75505771D01*
X207802857Y-75505771D02*
X207802857Y-75743866D01*
X207802857Y-75743866D02*
X207755238Y-75934342D01*
X207755238Y-75934342D02*
X207707619Y-76029580D01*
X207707619Y-76029580D02*
X207660000Y-76077200D01*
X207660000Y-76077200D02*
X207564762Y-76124819D01*
X207564762Y-76124819D02*
X207469524Y-76124819D01*
X207469524Y-76124819D02*
X207374286Y-76077200D01*
X207374286Y-76077200D02*
X207326667Y-76029580D01*
X207326667Y-76029580D02*
X207279048Y-75934342D01*
X207279048Y-75934342D02*
X207231429Y-75743866D01*
X207231429Y-75743866D02*
X207231429Y-75505771D01*
X207231429Y-75505771D02*
X207279048Y-75315295D01*
X207279048Y-75315295D02*
X207326667Y-75220057D01*
X207326667Y-75220057D02*
X207374286Y-75172438D01*
X207374286Y-75172438D02*
X207469524Y-75124819D01*
X206738095Y-55954819D02*
X206738095Y-54954819D01*
X206738095Y-55431009D02*
X207309523Y-55431009D01*
X207309523Y-55954819D02*
X207309523Y-54954819D01*
X208309523Y-55954819D02*
X207738095Y-55954819D01*
X208023809Y-55954819D02*
X208023809Y-54954819D01*
X208023809Y-54954819D02*
X207928571Y-55097676D01*
X207928571Y-55097676D02*
X207833333Y-55192914D01*
X207833333Y-55192914D02*
X207738095Y-55240533D01*
D11*
X200632857Y-77028200D02*
X200546190Y-76904391D01*
X200484285Y-77028200D02*
X200484285Y-76768200D01*
X200484285Y-76768200D02*
X200583333Y-76768200D01*
X200583333Y-76768200D02*
X200608095Y-76780581D01*
X200608095Y-76780581D02*
X200620476Y-76792962D01*
X200620476Y-76792962D02*
X200632857Y-76817724D01*
X200632857Y-76817724D02*
X200632857Y-76854867D01*
X200632857Y-76854867D02*
X200620476Y-76879629D01*
X200620476Y-76879629D02*
X200608095Y-76892010D01*
X200608095Y-76892010D02*
X200583333Y-76904391D01*
X200583333Y-76904391D02*
X200484285Y-76904391D01*
X200731904Y-76792962D02*
X200744285Y-76780581D01*
X200744285Y-76780581D02*
X200769047Y-76768200D01*
X200769047Y-76768200D02*
X200830952Y-76768200D01*
X200830952Y-76768200D02*
X200855714Y-76780581D01*
X200855714Y-76780581D02*
X200868095Y-76792962D01*
X200868095Y-76792962D02*
X200880476Y-76817724D01*
X200880476Y-76817724D02*
X200880476Y-76842486D01*
X200880476Y-76842486D02*
X200868095Y-76879629D01*
X200868095Y-76879629D02*
X200719523Y-77028200D01*
X200719523Y-77028200D02*
X200880476Y-77028200D01*
X201103333Y-76854867D02*
X201103333Y-77028200D01*
X201041428Y-76755820D02*
X200979523Y-76941534D01*
X200979523Y-76941534D02*
X201140476Y-76941534D01*
X143089765Y-84061666D02*
X143101670Y-84073570D01*
X143101670Y-84073570D02*
X143113574Y-84109285D01*
X143113574Y-84109285D02*
X143113574Y-84133094D01*
X143113574Y-84133094D02*
X143101670Y-84168808D01*
X143101670Y-84168808D02*
X143077860Y-84192618D01*
X143077860Y-84192618D02*
X143054050Y-84204523D01*
X143054050Y-84204523D02*
X143006431Y-84216427D01*
X143006431Y-84216427D02*
X142970717Y-84216427D01*
X142970717Y-84216427D02*
X142923098Y-84204523D01*
X142923098Y-84204523D02*
X142899289Y-84192618D01*
X142899289Y-84192618D02*
X142875479Y-84168808D01*
X142875479Y-84168808D02*
X142863574Y-84133094D01*
X142863574Y-84133094D02*
X142863574Y-84109285D01*
X142863574Y-84109285D02*
X142875479Y-84073570D01*
X142875479Y-84073570D02*
X142887384Y-84061666D01*
X142863574Y-83835475D02*
X142863574Y-83954523D01*
X142863574Y-83954523D02*
X142982622Y-83966427D01*
X142982622Y-83966427D02*
X142970717Y-83954523D01*
X142970717Y-83954523D02*
X142958812Y-83930713D01*
X142958812Y-83930713D02*
X142958812Y-83871189D01*
X142958812Y-83871189D02*
X142970717Y-83847380D01*
X142970717Y-83847380D02*
X142982622Y-83835475D01*
X142982622Y-83835475D02*
X143006431Y-83823570D01*
X143006431Y-83823570D02*
X143065955Y-83823570D01*
X143065955Y-83823570D02*
X143089765Y-83835475D01*
X143089765Y-83835475D02*
X143101670Y-83847380D01*
X143101670Y-83847380D02*
X143113574Y-83871189D01*
X143113574Y-83871189D02*
X143113574Y-83930713D01*
X143113574Y-83930713D02*
X143101670Y-83954523D01*
X143101670Y-83954523D02*
X143089765Y-83966427D01*
D12*
X128738095Y-55954819D02*
X128738095Y-54954819D01*
X128738095Y-55431009D02*
X129309523Y-55431009D01*
X129309523Y-55954819D02*
X129309523Y-54954819D01*
X129690476Y-54954819D02*
X130309523Y-54954819D01*
X130309523Y-54954819D02*
X129976190Y-55335771D01*
X129976190Y-55335771D02*
X130119047Y-55335771D01*
X130119047Y-55335771D02*
X130214285Y-55383390D01*
X130214285Y-55383390D02*
X130261904Y-55431009D01*
X130261904Y-55431009D02*
X130309523Y-55526247D01*
X130309523Y-55526247D02*
X130309523Y-55764342D01*
X130309523Y-55764342D02*
X130261904Y-55859580D01*
X130261904Y-55859580D02*
X130214285Y-55907200D01*
X130214285Y-55907200D02*
X130119047Y-55954819D01*
X130119047Y-55954819D02*
X129833333Y-55954819D01*
X129833333Y-55954819D02*
X129738095Y-55907200D01*
X129738095Y-55907200D02*
X129690476Y-55859580D01*
D11*
X151868200Y-93283332D02*
X151744391Y-93369999D01*
X151868200Y-93431904D02*
X151608200Y-93431904D01*
X151608200Y-93431904D02*
X151608200Y-93332856D01*
X151608200Y-93332856D02*
X151620581Y-93308094D01*
X151620581Y-93308094D02*
X151632962Y-93295713D01*
X151632962Y-93295713D02*
X151657724Y-93283332D01*
X151657724Y-93283332D02*
X151694867Y-93283332D01*
X151694867Y-93283332D02*
X151719629Y-93295713D01*
X151719629Y-93295713D02*
X151732010Y-93308094D01*
X151732010Y-93308094D02*
X151744391Y-93332856D01*
X151744391Y-93332856D02*
X151744391Y-93431904D01*
X151694867Y-93060475D02*
X151868200Y-93060475D01*
X151595820Y-93122380D02*
X151781534Y-93184285D01*
X151781534Y-93184285D02*
X151781534Y-93023332D01*
D12*
X206296666Y-62714819D02*
X206296666Y-63429104D01*
X206296666Y-63429104D02*
X206249047Y-63571961D01*
X206249047Y-63571961D02*
X206153809Y-63667200D01*
X206153809Y-63667200D02*
X206010952Y-63714819D01*
X206010952Y-63714819D02*
X205915714Y-63714819D01*
X206915714Y-63143390D02*
X206820476Y-63095771D01*
X206820476Y-63095771D02*
X206772857Y-63048152D01*
X206772857Y-63048152D02*
X206725238Y-62952914D01*
X206725238Y-62952914D02*
X206725238Y-62905295D01*
X206725238Y-62905295D02*
X206772857Y-62810057D01*
X206772857Y-62810057D02*
X206820476Y-62762438D01*
X206820476Y-62762438D02*
X206915714Y-62714819D01*
X206915714Y-62714819D02*
X207106190Y-62714819D01*
X207106190Y-62714819D02*
X207201428Y-62762438D01*
X207201428Y-62762438D02*
X207249047Y-62810057D01*
X207249047Y-62810057D02*
X207296666Y-62905295D01*
X207296666Y-62905295D02*
X207296666Y-62952914D01*
X207296666Y-62952914D02*
X207249047Y-63048152D01*
X207249047Y-63048152D02*
X207201428Y-63095771D01*
X207201428Y-63095771D02*
X207106190Y-63143390D01*
X207106190Y-63143390D02*
X206915714Y-63143390D01*
X206915714Y-63143390D02*
X206820476Y-63191009D01*
X206820476Y-63191009D02*
X206772857Y-63238628D01*
X206772857Y-63238628D02*
X206725238Y-63333866D01*
X206725238Y-63333866D02*
X206725238Y-63524342D01*
X206725238Y-63524342D02*
X206772857Y-63619580D01*
X206772857Y-63619580D02*
X206820476Y-63667200D01*
X206820476Y-63667200D02*
X206915714Y-63714819D01*
X206915714Y-63714819D02*
X207106190Y-63714819D01*
X207106190Y-63714819D02*
X207201428Y-63667200D01*
X207201428Y-63667200D02*
X207249047Y-63619580D01*
X207249047Y-63619580D02*
X207296666Y-63524342D01*
X207296666Y-63524342D02*
X207296666Y-63333866D01*
X207296666Y-63333866D02*
X207249047Y-63238628D01*
X207249047Y-63238628D02*
X207201428Y-63191009D01*
X207201428Y-63191009D02*
X207106190Y-63143390D01*
D11*
X151868200Y-77727142D02*
X151744391Y-77813809D01*
X151868200Y-77875714D02*
X151608200Y-77875714D01*
X151608200Y-77875714D02*
X151608200Y-77776666D01*
X151608200Y-77776666D02*
X151620581Y-77751904D01*
X151620581Y-77751904D02*
X151632962Y-77739523D01*
X151632962Y-77739523D02*
X151657724Y-77727142D01*
X151657724Y-77727142D02*
X151694867Y-77727142D01*
X151694867Y-77727142D02*
X151719629Y-77739523D01*
X151719629Y-77739523D02*
X151732010Y-77751904D01*
X151732010Y-77751904D02*
X151744391Y-77776666D01*
X151744391Y-77776666D02*
X151744391Y-77875714D01*
X151868200Y-77479523D02*
X151868200Y-77628095D01*
X151868200Y-77553809D02*
X151608200Y-77553809D01*
X151608200Y-77553809D02*
X151645343Y-77578571D01*
X151645343Y-77578571D02*
X151670105Y-77603333D01*
X151670105Y-77603333D02*
X151682486Y-77628095D01*
X151868200Y-77231904D02*
X151868200Y-77380476D01*
X151868200Y-77306190D02*
X151608200Y-77306190D01*
X151608200Y-77306190D02*
X151645343Y-77330952D01*
X151645343Y-77330952D02*
X151670105Y-77355714D01*
X151670105Y-77355714D02*
X151682486Y-77380476D01*
X187368200Y-59793332D02*
X187244391Y-59879999D01*
X187368200Y-59941904D02*
X187108200Y-59941904D01*
X187108200Y-59941904D02*
X187108200Y-59842856D01*
X187108200Y-59842856D02*
X187120581Y-59818094D01*
X187120581Y-59818094D02*
X187132962Y-59805713D01*
X187132962Y-59805713D02*
X187157724Y-59793332D01*
X187157724Y-59793332D02*
X187194867Y-59793332D01*
X187194867Y-59793332D02*
X187219629Y-59805713D01*
X187219629Y-59805713D02*
X187232010Y-59818094D01*
X187232010Y-59818094D02*
X187244391Y-59842856D01*
X187244391Y-59842856D02*
X187244391Y-59941904D01*
X187368200Y-59545713D02*
X187368200Y-59694285D01*
X187368200Y-59619999D02*
X187108200Y-59619999D01*
X187108200Y-59619999D02*
X187145343Y-59644761D01*
X187145343Y-59644761D02*
X187170105Y-59669523D01*
X187170105Y-59669523D02*
X187182486Y-59694285D01*
D12*
X205481666Y-85744819D02*
X205481666Y-86459104D01*
X205481666Y-86459104D02*
X205434047Y-86601961D01*
X205434047Y-86601961D02*
X205338809Y-86697200D01*
X205338809Y-86697200D02*
X205195952Y-86744819D01*
X205195952Y-86744819D02*
X205100714Y-86744819D01*
X205862619Y-85744819D02*
X206529285Y-85744819D01*
X206529285Y-85744819D02*
X206100714Y-86744819D01*
X206296666Y-68924819D02*
X206296666Y-69639104D01*
X206296666Y-69639104D02*
X206249047Y-69781961D01*
X206249047Y-69781961D02*
X206153809Y-69877200D01*
X206153809Y-69877200D02*
X206010952Y-69924819D01*
X206010952Y-69924819D02*
X205915714Y-69924819D01*
X206820476Y-69924819D02*
X207010952Y-69924819D01*
X207010952Y-69924819D02*
X207106190Y-69877200D01*
X207106190Y-69877200D02*
X207153809Y-69829580D01*
X207153809Y-69829580D02*
X207249047Y-69686723D01*
X207249047Y-69686723D02*
X207296666Y-69496247D01*
X207296666Y-69496247D02*
X207296666Y-69115295D01*
X207296666Y-69115295D02*
X207249047Y-69020057D01*
X207249047Y-69020057D02*
X207201428Y-68972438D01*
X207201428Y-68972438D02*
X207106190Y-68924819D01*
X207106190Y-68924819D02*
X206915714Y-68924819D01*
X206915714Y-68924819D02*
X206820476Y-68972438D01*
X206820476Y-68972438D02*
X206772857Y-69020057D01*
X206772857Y-69020057D02*
X206725238Y-69115295D01*
X206725238Y-69115295D02*
X206725238Y-69353390D01*
X206725238Y-69353390D02*
X206772857Y-69448628D01*
X206772857Y-69448628D02*
X206820476Y-69496247D01*
X206820476Y-69496247D02*
X206915714Y-69543866D01*
X206915714Y-69543866D02*
X207106190Y-69543866D01*
X207106190Y-69543866D02*
X207201428Y-69496247D01*
X207201428Y-69496247D02*
X207249047Y-69448628D01*
X207249047Y-69448628D02*
X207296666Y-69353390D01*
D11*
X143089765Y-88771666D02*
X143101670Y-88783570D01*
X143101670Y-88783570D02*
X143113574Y-88819285D01*
X143113574Y-88819285D02*
X143113574Y-88843094D01*
X143113574Y-88843094D02*
X143101670Y-88878808D01*
X143101670Y-88878808D02*
X143077860Y-88902618D01*
X143077860Y-88902618D02*
X143054050Y-88914523D01*
X143054050Y-88914523D02*
X143006431Y-88926427D01*
X143006431Y-88926427D02*
X142970717Y-88926427D01*
X142970717Y-88926427D02*
X142923098Y-88914523D01*
X142923098Y-88914523D02*
X142899289Y-88902618D01*
X142899289Y-88902618D02*
X142875479Y-88878808D01*
X142875479Y-88878808D02*
X142863574Y-88843094D01*
X142863574Y-88843094D02*
X142863574Y-88819285D01*
X142863574Y-88819285D02*
X142875479Y-88783570D01*
X142875479Y-88783570D02*
X142887384Y-88771666D01*
X142946908Y-88557380D02*
X143113574Y-88557380D01*
X142851670Y-88616904D02*
X143030241Y-88676427D01*
X143030241Y-88676427D02*
X143030241Y-88521666D01*
X193589765Y-95561666D02*
X193601670Y-95573570D01*
X193601670Y-95573570D02*
X193613574Y-95609285D01*
X193613574Y-95609285D02*
X193613574Y-95633094D01*
X193613574Y-95633094D02*
X193601670Y-95668808D01*
X193601670Y-95668808D02*
X193577860Y-95692618D01*
X193577860Y-95692618D02*
X193554050Y-95704523D01*
X193554050Y-95704523D02*
X193506431Y-95716427D01*
X193506431Y-95716427D02*
X193470717Y-95716427D01*
X193470717Y-95716427D02*
X193423098Y-95704523D01*
X193423098Y-95704523D02*
X193399289Y-95692618D01*
X193399289Y-95692618D02*
X193375479Y-95668808D01*
X193375479Y-95668808D02*
X193363574Y-95633094D01*
X193363574Y-95633094D02*
X193363574Y-95609285D01*
X193363574Y-95609285D02*
X193375479Y-95573570D01*
X193375479Y-95573570D02*
X193387384Y-95561666D01*
X193470717Y-95418808D02*
X193458812Y-95442618D01*
X193458812Y-95442618D02*
X193446908Y-95454523D01*
X193446908Y-95454523D02*
X193423098Y-95466427D01*
X193423098Y-95466427D02*
X193411193Y-95466427D01*
X193411193Y-95466427D02*
X193387384Y-95454523D01*
X193387384Y-95454523D02*
X193375479Y-95442618D01*
X193375479Y-95442618D02*
X193363574Y-95418808D01*
X193363574Y-95418808D02*
X193363574Y-95371189D01*
X193363574Y-95371189D02*
X193375479Y-95347380D01*
X193375479Y-95347380D02*
X193387384Y-95335475D01*
X193387384Y-95335475D02*
X193411193Y-95323570D01*
X193411193Y-95323570D02*
X193423098Y-95323570D01*
X193423098Y-95323570D02*
X193446908Y-95335475D01*
X193446908Y-95335475D02*
X193458812Y-95347380D01*
X193458812Y-95347380D02*
X193470717Y-95371189D01*
X193470717Y-95371189D02*
X193470717Y-95418808D01*
X193470717Y-95418808D02*
X193482622Y-95442618D01*
X193482622Y-95442618D02*
X193494527Y-95454523D01*
X193494527Y-95454523D02*
X193518336Y-95466427D01*
X193518336Y-95466427D02*
X193565955Y-95466427D01*
X193565955Y-95466427D02*
X193589765Y-95454523D01*
X193589765Y-95454523D02*
X193601670Y-95442618D01*
X193601670Y-95442618D02*
X193613574Y-95418808D01*
X193613574Y-95418808D02*
X193613574Y-95371189D01*
X193613574Y-95371189D02*
X193601670Y-95347380D01*
X193601670Y-95347380D02*
X193589765Y-95335475D01*
X193589765Y-95335475D02*
X193565955Y-95323570D01*
X193565955Y-95323570D02*
X193518336Y-95323570D01*
X193518336Y-95323570D02*
X193494527Y-95335475D01*
X193494527Y-95335475D02*
X193482622Y-95347380D01*
X193482622Y-95347380D02*
X193470717Y-95371189D01*
D12*
X168279104Y-80084285D02*
X168279104Y-79608095D01*
X168564819Y-80179523D02*
X167564819Y-79846190D01*
X167564819Y-79846190D02*
X168564819Y-79512857D01*
X168564819Y-78655714D02*
X168564819Y-79227142D01*
X168564819Y-78941428D02*
X167564819Y-78941428D01*
X167564819Y-78941428D02*
X167707676Y-79036666D01*
X167707676Y-79036666D02*
X167802914Y-79131904D01*
X167802914Y-79131904D02*
X167850533Y-79227142D01*
D14*
X184301927Y-64904761D02*
X184625737Y-64904761D01*
X184625737Y-64904761D02*
X184663832Y-64885714D01*
X184663832Y-64885714D02*
X184682880Y-64866666D01*
X184682880Y-64866666D02*
X184701927Y-64828571D01*
X184701927Y-64828571D02*
X184701927Y-64752380D01*
X184701927Y-64752380D02*
X184682880Y-64714285D01*
X184682880Y-64714285D02*
X184663832Y-64695238D01*
X184663832Y-64695238D02*
X184625737Y-64676190D01*
X184625737Y-64676190D02*
X184301927Y-64676190D01*
X184701927Y-64276190D02*
X184701927Y-64504761D01*
X184701927Y-64390475D02*
X184301927Y-64390475D01*
X184301927Y-64390475D02*
X184359070Y-64428571D01*
X184359070Y-64428571D02*
X184397165Y-64466666D01*
X184397165Y-64466666D02*
X184416213Y-64504761D01*
D11*
X193589765Y-100271666D02*
X193601670Y-100283570D01*
X193601670Y-100283570D02*
X193613574Y-100319285D01*
X193613574Y-100319285D02*
X193613574Y-100343094D01*
X193613574Y-100343094D02*
X193601670Y-100378808D01*
X193601670Y-100378808D02*
X193577860Y-100402618D01*
X193577860Y-100402618D02*
X193554050Y-100414523D01*
X193554050Y-100414523D02*
X193506431Y-100426427D01*
X193506431Y-100426427D02*
X193470717Y-100426427D01*
X193470717Y-100426427D02*
X193423098Y-100414523D01*
X193423098Y-100414523D02*
X193399289Y-100402618D01*
X193399289Y-100402618D02*
X193375479Y-100378808D01*
X193375479Y-100378808D02*
X193363574Y-100343094D01*
X193363574Y-100343094D02*
X193363574Y-100319285D01*
X193363574Y-100319285D02*
X193375479Y-100283570D01*
X193375479Y-100283570D02*
X193387384Y-100271666D01*
X193613574Y-100152618D02*
X193613574Y-100104999D01*
X193613574Y-100104999D02*
X193601670Y-100081189D01*
X193601670Y-100081189D02*
X193589765Y-100069285D01*
X193589765Y-100069285D02*
X193554050Y-100045475D01*
X193554050Y-100045475D02*
X193506431Y-100033570D01*
X193506431Y-100033570D02*
X193411193Y-100033570D01*
X193411193Y-100033570D02*
X193387384Y-100045475D01*
X193387384Y-100045475D02*
X193375479Y-100057380D01*
X193375479Y-100057380D02*
X193363574Y-100081189D01*
X193363574Y-100081189D02*
X193363574Y-100128808D01*
X193363574Y-100128808D02*
X193375479Y-100152618D01*
X193375479Y-100152618D02*
X193387384Y-100164523D01*
X193387384Y-100164523D02*
X193411193Y-100176427D01*
X193411193Y-100176427D02*
X193470717Y-100176427D01*
X193470717Y-100176427D02*
X193494527Y-100164523D01*
X193494527Y-100164523D02*
X193506431Y-100152618D01*
X193506431Y-100152618D02*
X193518336Y-100128808D01*
X193518336Y-100128808D02*
X193518336Y-100081189D01*
X193518336Y-100081189D02*
X193506431Y-100057380D01*
X193506431Y-100057380D02*
X193494527Y-100045475D01*
X193494527Y-100045475D02*
X193470717Y-100033570D01*
X184868200Y-84167142D02*
X184744391Y-84253809D01*
X184868200Y-84315714D02*
X184608200Y-84315714D01*
X184608200Y-84315714D02*
X184608200Y-84216666D01*
X184608200Y-84216666D02*
X184620581Y-84191904D01*
X184620581Y-84191904D02*
X184632962Y-84179523D01*
X184632962Y-84179523D02*
X184657724Y-84167142D01*
X184657724Y-84167142D02*
X184694867Y-84167142D01*
X184694867Y-84167142D02*
X184719629Y-84179523D01*
X184719629Y-84179523D02*
X184732010Y-84191904D01*
X184732010Y-84191904D02*
X184744391Y-84216666D01*
X184744391Y-84216666D02*
X184744391Y-84315714D01*
X184868200Y-83919523D02*
X184868200Y-84068095D01*
X184868200Y-83993809D02*
X184608200Y-83993809D01*
X184608200Y-83993809D02*
X184645343Y-84018571D01*
X184645343Y-84018571D02*
X184670105Y-84043333D01*
X184670105Y-84043333D02*
X184682486Y-84068095D01*
X184608200Y-83684285D02*
X184608200Y-83808095D01*
X184608200Y-83808095D02*
X184732010Y-83820476D01*
X184732010Y-83820476D02*
X184719629Y-83808095D01*
X184719629Y-83808095D02*
X184707248Y-83783333D01*
X184707248Y-83783333D02*
X184707248Y-83721428D01*
X184707248Y-83721428D02*
X184719629Y-83696666D01*
X184719629Y-83696666D02*
X184732010Y-83684285D01*
X184732010Y-83684285D02*
X184756772Y-83671904D01*
X184756772Y-83671904D02*
X184818677Y-83671904D01*
X184818677Y-83671904D02*
X184843439Y-83684285D01*
X184843439Y-83684285D02*
X184855820Y-83696666D01*
X184855820Y-83696666D02*
X184868200Y-83721428D01*
X184868200Y-83721428D02*
X184868200Y-83783333D01*
X184868200Y-83783333D02*
X184855820Y-83808095D01*
X184855820Y-83808095D02*
X184843439Y-83820476D01*
D15*
X147195951Y-91826355D02*
X147119761Y-91788260D01*
X147119761Y-91788260D02*
X147081666Y-91750164D01*
X147081666Y-91750164D02*
X147043570Y-91673974D01*
X147043570Y-91673974D02*
X147043570Y-91445402D01*
X147043570Y-91445402D02*
X147081666Y-91369212D01*
X147081666Y-91369212D02*
X147119761Y-91331117D01*
X147119761Y-91331117D02*
X147195951Y-91293021D01*
X147195951Y-91293021D02*
X147310237Y-91293021D01*
X147310237Y-91293021D02*
X147386428Y-91331117D01*
X147386428Y-91331117D02*
X147424523Y-91369212D01*
X147424523Y-91369212D02*
X147462618Y-91445402D01*
X147462618Y-91445402D02*
X147462618Y-91673974D01*
X147462618Y-91673974D02*
X147424523Y-91750164D01*
X147424523Y-91750164D02*
X147386428Y-91788260D01*
X147386428Y-91788260D02*
X147310237Y-91826355D01*
X147310237Y-91826355D02*
X147195951Y-91826355D01*
X147805476Y-91293021D02*
X147805476Y-91826355D01*
X147805476Y-91369212D02*
X147843571Y-91331117D01*
X147843571Y-91331117D02*
X147919761Y-91293021D01*
X147919761Y-91293021D02*
X148034047Y-91293021D01*
X148034047Y-91293021D02*
X148110238Y-91331117D01*
X148110238Y-91331117D02*
X148148333Y-91407307D01*
X148148333Y-91407307D02*
X148148333Y-91826355D01*
X149845760Y-97836667D02*
X149883855Y-97722381D01*
X149883855Y-97722381D02*
X149883855Y-97531905D01*
X149883855Y-97531905D02*
X149845760Y-97455714D01*
X149845760Y-97455714D02*
X149807664Y-97417619D01*
X149807664Y-97417619D02*
X149731474Y-97379524D01*
X149731474Y-97379524D02*
X149655283Y-97379524D01*
X149655283Y-97379524D02*
X149579093Y-97417619D01*
X149579093Y-97417619D02*
X149540998Y-97455714D01*
X149540998Y-97455714D02*
X149502902Y-97531905D01*
X149502902Y-97531905D02*
X149464807Y-97684286D01*
X149464807Y-97684286D02*
X149426712Y-97760476D01*
X149426712Y-97760476D02*
X149388617Y-97798571D01*
X149388617Y-97798571D02*
X149312426Y-97836667D01*
X149312426Y-97836667D02*
X149236236Y-97836667D01*
X149236236Y-97836667D02*
X149160045Y-97798571D01*
X149160045Y-97798571D02*
X149121950Y-97760476D01*
X149121950Y-97760476D02*
X149083855Y-97684286D01*
X149083855Y-97684286D02*
X149083855Y-97493809D01*
X149083855Y-97493809D02*
X149121950Y-97379524D01*
X149083855Y-97112857D02*
X149883855Y-96922381D01*
X149883855Y-96922381D02*
X149312426Y-96770000D01*
X149312426Y-96770000D02*
X149883855Y-96617619D01*
X149883855Y-96617619D02*
X149083855Y-96427143D01*
X149160045Y-96160476D02*
X149121950Y-96122380D01*
X149121950Y-96122380D02*
X149083855Y-96046190D01*
X149083855Y-96046190D02*
X149083855Y-95855714D01*
X149083855Y-95855714D02*
X149121950Y-95779523D01*
X149121950Y-95779523D02*
X149160045Y-95741428D01*
X149160045Y-95741428D02*
X149236236Y-95703333D01*
X149236236Y-95703333D02*
X149312426Y-95703333D01*
X149312426Y-95703333D02*
X149426712Y-95741428D01*
X149426712Y-95741428D02*
X149883855Y-96198571D01*
X149883855Y-96198571D02*
X149883855Y-95703333D01*
D11*
X151868200Y-72603332D02*
X151744391Y-72689999D01*
X151868200Y-72751904D02*
X151608200Y-72751904D01*
X151608200Y-72751904D02*
X151608200Y-72652856D01*
X151608200Y-72652856D02*
X151620581Y-72628094D01*
X151620581Y-72628094D02*
X151632962Y-72615713D01*
X151632962Y-72615713D02*
X151657724Y-72603332D01*
X151657724Y-72603332D02*
X151694867Y-72603332D01*
X151694867Y-72603332D02*
X151719629Y-72615713D01*
X151719629Y-72615713D02*
X151732010Y-72628094D01*
X151732010Y-72628094D02*
X151744391Y-72652856D01*
X151744391Y-72652856D02*
X151744391Y-72751904D01*
X151868200Y-72479523D02*
X151868200Y-72429999D01*
X151868200Y-72429999D02*
X151855820Y-72405237D01*
X151855820Y-72405237D02*
X151843439Y-72392856D01*
X151843439Y-72392856D02*
X151806296Y-72368094D01*
X151806296Y-72368094D02*
X151756772Y-72355713D01*
X151756772Y-72355713D02*
X151657724Y-72355713D01*
X151657724Y-72355713D02*
X151632962Y-72368094D01*
X151632962Y-72368094D02*
X151620581Y-72380475D01*
X151620581Y-72380475D02*
X151608200Y-72405237D01*
X151608200Y-72405237D02*
X151608200Y-72454761D01*
X151608200Y-72454761D02*
X151620581Y-72479523D01*
X151620581Y-72479523D02*
X151632962Y-72491904D01*
X151632962Y-72491904D02*
X151657724Y-72504285D01*
X151657724Y-72504285D02*
X151719629Y-72504285D01*
X151719629Y-72504285D02*
X151744391Y-72491904D01*
X151744391Y-72491904D02*
X151756772Y-72479523D01*
X151756772Y-72479523D02*
X151769153Y-72454761D01*
X151769153Y-72454761D02*
X151769153Y-72405237D01*
X151769153Y-72405237D02*
X151756772Y-72380475D01*
X151756772Y-72380475D02*
X151744391Y-72368094D01*
X151744391Y-72368094D02*
X151719629Y-72355713D01*
X151868200Y-70593332D02*
X151744391Y-70679999D01*
X151868200Y-70741904D02*
X151608200Y-70741904D01*
X151608200Y-70741904D02*
X151608200Y-70642856D01*
X151608200Y-70642856D02*
X151620581Y-70618094D01*
X151620581Y-70618094D02*
X151632962Y-70605713D01*
X151632962Y-70605713D02*
X151657724Y-70593332D01*
X151657724Y-70593332D02*
X151694867Y-70593332D01*
X151694867Y-70593332D02*
X151719629Y-70605713D01*
X151719629Y-70605713D02*
X151732010Y-70618094D01*
X151732010Y-70618094D02*
X151744391Y-70642856D01*
X151744391Y-70642856D02*
X151744391Y-70741904D01*
X151719629Y-70444761D02*
X151707248Y-70469523D01*
X151707248Y-70469523D02*
X151694867Y-70481904D01*
X151694867Y-70481904D02*
X151670105Y-70494285D01*
X151670105Y-70494285D02*
X151657724Y-70494285D01*
X151657724Y-70494285D02*
X151632962Y-70481904D01*
X151632962Y-70481904D02*
X151620581Y-70469523D01*
X151620581Y-70469523D02*
X151608200Y-70444761D01*
X151608200Y-70444761D02*
X151608200Y-70395237D01*
X151608200Y-70395237D02*
X151620581Y-70370475D01*
X151620581Y-70370475D02*
X151632962Y-70358094D01*
X151632962Y-70358094D02*
X151657724Y-70345713D01*
X151657724Y-70345713D02*
X151670105Y-70345713D01*
X151670105Y-70345713D02*
X151694867Y-70358094D01*
X151694867Y-70358094D02*
X151707248Y-70370475D01*
X151707248Y-70370475D02*
X151719629Y-70395237D01*
X151719629Y-70395237D02*
X151719629Y-70444761D01*
X151719629Y-70444761D02*
X151732010Y-70469523D01*
X151732010Y-70469523D02*
X151744391Y-70481904D01*
X151744391Y-70481904D02*
X151769153Y-70494285D01*
X151769153Y-70494285D02*
X151818677Y-70494285D01*
X151818677Y-70494285D02*
X151843439Y-70481904D01*
X151843439Y-70481904D02*
X151855820Y-70469523D01*
X151855820Y-70469523D02*
X151868200Y-70444761D01*
X151868200Y-70444761D02*
X151868200Y-70395237D01*
X151868200Y-70395237D02*
X151855820Y-70370475D01*
X151855820Y-70370475D02*
X151843439Y-70358094D01*
X151843439Y-70358094D02*
X151818677Y-70345713D01*
X151818677Y-70345713D02*
X151769153Y-70345713D01*
X151769153Y-70345713D02*
X151744391Y-70358094D01*
X151744391Y-70358094D02*
X151732010Y-70370475D01*
X151732010Y-70370475D02*
X151719629Y-70395237D01*
%TO.C,SW1*%
D10*
X179900000Y-80300000D02*
X183600000Y-80300000D01*
X183600000Y-74200000D01*
X179900000Y-74200000D01*
X179900000Y-80300000D01*
%TO.C,D1*%
X186350000Y-54850000D02*
X188150000Y-54850000D01*
X186350000Y-57650000D02*
X186350000Y-54850000D01*
X186850000Y-56000000D02*
X187650000Y-56000000D01*
X187250000Y-56000000D02*
X187250000Y-55500000D01*
X187250000Y-56600000D02*
X186700000Y-56600000D01*
X187250000Y-56600000D02*
X186850000Y-56000000D01*
X187250000Y-56600000D02*
X187800000Y-56600000D01*
X187250000Y-57000000D02*
X187250000Y-56600000D01*
X187650000Y-56000000D02*
X187250000Y-56600000D01*
X188150000Y-54850000D02*
X188150000Y-57650000D01*
X188150000Y-57650000D02*
X186350000Y-57650000D01*
%TO.C,R16*%
X199130000Y-64275000D02*
X199670000Y-64275000D01*
X199130000Y-65325000D02*
X199130000Y-64275000D01*
X199670000Y-64275000D02*
X199670000Y-65325000D01*
X199670000Y-65325000D02*
X199130000Y-65325000D01*
%TO.C,U4*%
X143800000Y-61472500D02*
X148800000Y-61472500D01*
X143800000Y-64872500D02*
X143800000Y-61472500D01*
X144800000Y-65872500D02*
X143800000Y-64872500D01*
X148800000Y-61472500D02*
X148800000Y-65872500D01*
X148800000Y-65872500D02*
X144800000Y-65872500D01*
%TO.C,R2*%
X184730000Y-59235000D02*
X185270000Y-59235000D01*
X184730000Y-60285000D02*
X184730000Y-59235000D01*
X185270000Y-59235000D02*
X185270000Y-60285000D01*
X185270000Y-60285000D02*
X184730000Y-60285000D01*
%TO.C,J11*%
X200580000Y-106230000D02*
X203120000Y-106230000D01*
X200580000Y-108770000D02*
X200580000Y-106230000D01*
X202485000Y-108770000D02*
X200580000Y-108770000D01*
X203120000Y-106230000D02*
X203120000Y-108135000D01*
X203120000Y-108135000D02*
X202485000Y-108770000D01*
%TO.C,J5*%
X126430000Y-71460000D02*
X133970000Y-71460000D01*
X126430000Y-79080000D02*
X126430000Y-71460000D01*
X133970000Y-71460000D02*
X134940000Y-72430000D01*
X134940000Y-72430000D02*
X134940000Y-79080000D01*
X134940000Y-73030000D02*
X139000000Y-73030000D01*
X134940000Y-75570000D02*
X139000000Y-75570000D01*
X134940000Y-78110000D02*
X139000000Y-78110000D01*
X134940000Y-79080000D02*
X126430000Y-79080000D01*
X139000000Y-72430000D02*
X134940000Y-72430000D01*
X139000000Y-73030000D02*
X139000000Y-72430000D01*
X139000000Y-74970000D02*
X134940000Y-74970000D01*
X139000000Y-75570000D02*
X139000000Y-74970000D01*
X139000000Y-77510000D02*
X134940000Y-77510000D01*
X139000000Y-78110000D02*
X139000000Y-77510000D01*
%TO.C,U2*%
X181162500Y-55500000D02*
X182462500Y-55500000D01*
X181162500Y-58400000D02*
X181162500Y-55500000D01*
X182137500Y-58400000D02*
X181162500Y-58400000D01*
X182462500Y-55500000D02*
X182462500Y-58075000D01*
X182462500Y-58075000D02*
X182137500Y-58400000D01*
%TO.C,J1*%
X190440000Y-52430000D02*
X198060000Y-52430000D01*
X190440000Y-60940000D02*
X190440000Y-52430000D01*
X191410000Y-60940000D02*
X191410000Y-65000000D01*
X191410000Y-65000000D02*
X192010000Y-65000000D01*
X192010000Y-65000000D02*
X192010000Y-60940000D01*
X193950000Y-60940000D02*
X193950000Y-65000000D01*
X193950000Y-65000000D02*
X194550000Y-65000000D01*
X194550000Y-65000000D02*
X194550000Y-60940000D01*
X196490000Y-60940000D02*
X196490000Y-65000000D01*
X196490000Y-65000000D02*
X197090000Y-65000000D01*
X197090000Y-60940000D02*
X190440000Y-60940000D01*
X197090000Y-65000000D02*
X197090000Y-60940000D01*
X198060000Y-52430000D02*
X198060000Y-59970000D01*
X198060000Y-59970000D02*
X197090000Y-60940000D01*
%TO.C,C6*%
X142750000Y-65540000D02*
X143250000Y-65540000D01*
X142750000Y-66540000D02*
X142750000Y-65540000D01*
X143250000Y-65540000D02*
X143250000Y-66540000D01*
X143250000Y-66540000D02*
X142750000Y-66540000D01*
%TO.C,U3*%
X143800000Y-84162500D02*
X148800000Y-84162500D01*
X143800000Y-87562500D02*
X143800000Y-84162500D01*
X144800000Y-88562500D02*
X143800000Y-87562500D01*
X148800000Y-84162500D02*
X148800000Y-88562500D01*
X148800000Y-88562500D02*
X144800000Y-88562500D01*
%TO.C,R13*%
X184480000Y-88475000D02*
X185020000Y-88475000D01*
X184480000Y-89525000D02*
X184480000Y-88475000D01*
X185020000Y-88475000D02*
X185020000Y-89525000D01*
X185020000Y-89525000D02*
X184480000Y-89525000D01*
%TO.C,R7*%
X151480000Y-99725000D02*
X152020000Y-99725000D01*
X151480000Y-100775000D02*
X151480000Y-99725000D01*
X152020000Y-99725000D02*
X152020000Y-100775000D01*
X152020000Y-100775000D02*
X151480000Y-100775000D01*
%TO.C,J3*%
X126430000Y-94150000D02*
X133970000Y-94150000D01*
X126430000Y-101770000D02*
X126430000Y-94150000D01*
X133970000Y-94150000D02*
X134940000Y-95120000D01*
X134940000Y-95120000D02*
X134940000Y-101770000D01*
X134940000Y-95720000D02*
X139000000Y-95720000D01*
X134940000Y-98260000D02*
X139000000Y-98260000D01*
X134940000Y-100800000D02*
X139000000Y-100800000D01*
X134940000Y-101770000D02*
X126430000Y-101770000D01*
X139000000Y-95120000D02*
X134940000Y-95120000D01*
X139000000Y-95720000D02*
X139000000Y-95120000D01*
X139000000Y-97660000D02*
X134940000Y-97660000D01*
X139000000Y-98260000D02*
X139000000Y-97660000D01*
X139000000Y-100200000D02*
X134940000Y-100200000D01*
X139000000Y-100800000D02*
X139000000Y-100200000D01*
%TO.C,R3*%
X182730000Y-59225000D02*
X183270000Y-59225000D01*
X182730000Y-60275000D02*
X182730000Y-59225000D01*
X183270000Y-59225000D02*
X183270000Y-60275000D01*
X183270000Y-60275000D02*
X182730000Y-60275000D01*
%TO.C,R10*%
X151480000Y-75025000D02*
X152020000Y-75025000D01*
X151480000Y-76075000D02*
X151480000Y-75025000D01*
X152020000Y-75025000D02*
X152020000Y-76075000D01*
X152020000Y-76075000D02*
X151480000Y-76075000D01*
%TO.C,R21*%
X200285000Y-70140000D02*
X201335000Y-70140000D01*
X200285000Y-70680000D02*
X200285000Y-70140000D01*
X201335000Y-70140000D02*
X201335000Y-70680000D01*
X201335000Y-70680000D02*
X200285000Y-70680000D01*
%TO.C,C3*%
X184200000Y-61200000D02*
X185800000Y-61200000D01*
X184200000Y-62000000D02*
X184200000Y-61200000D01*
X185800000Y-61200000D02*
X185800000Y-62000000D01*
X185800000Y-62000000D02*
X184200000Y-62000000D01*
%TO.C,R18*%
X200375000Y-64030000D02*
X201425000Y-64030000D01*
X200375000Y-64570000D02*
X200375000Y-64030000D01*
X201425000Y-64030000D02*
X201425000Y-64570000D01*
X201425000Y-64570000D02*
X200375000Y-64570000D01*
%TO.C,R14*%
X184480000Y-85485000D02*
X185020000Y-85485000D01*
X184480000Y-86535000D02*
X184480000Y-85485000D01*
X185020000Y-85485000D02*
X185020000Y-86535000D01*
X185020000Y-86535000D02*
X184480000Y-86535000D01*
%TO.C,C2*%
X181600000Y-63300000D02*
X182400000Y-63300000D01*
X181600000Y-64900000D02*
X181600000Y-63300000D01*
X182400000Y-63300000D02*
X182400000Y-64900000D01*
X182400000Y-64900000D02*
X181600000Y-64900000D01*
%TO.C,R19*%
X199130000Y-69385000D02*
X199670000Y-69385000D01*
X199130000Y-70435000D02*
X199130000Y-69385000D01*
X199670000Y-69385000D02*
X199670000Y-70435000D01*
X199670000Y-70435000D02*
X199130000Y-70435000D01*
%TO.C,R23*%
X200275000Y-75640000D02*
X201325000Y-75640000D01*
X200275000Y-76180000D02*
X200275000Y-75640000D01*
X201325000Y-75640000D02*
X201325000Y-76180000D01*
X201325000Y-76180000D02*
X200275000Y-76180000D01*
%TO.C,J4*%
X133180000Y-63535000D02*
X134450000Y-62265000D01*
X133180000Y-69885000D02*
X133180000Y-63535000D01*
X134450000Y-62265000D02*
X138260000Y-62265000D01*
X138260000Y-62265000D02*
X138260000Y-69885000D01*
X138260000Y-69885000D02*
X133180000Y-69885000D01*
%TO.C,D2*%
X187600000Y-63350000D02*
X189400000Y-63350000D01*
X187600000Y-66150000D02*
X187600000Y-63350000D01*
X188100000Y-65000000D02*
X188500000Y-64400000D01*
X188500000Y-64000000D02*
X188500000Y-64400000D01*
X188500000Y-64400000D02*
X187950000Y-64400000D01*
X188500000Y-64400000D02*
X188900000Y-65000000D01*
X188500000Y-64400000D02*
X189050000Y-64400000D01*
X188500000Y-65000000D02*
X188500000Y-65500000D01*
X188900000Y-65000000D02*
X188100000Y-65000000D01*
X189400000Y-63350000D02*
X189400000Y-66150000D01*
X189400000Y-66150000D02*
X187600000Y-66150000D01*
%TO.C,R22*%
X199130000Y-75885000D02*
X199670000Y-75885000D01*
X199130000Y-76935000D02*
X199130000Y-75885000D01*
X199670000Y-75885000D02*
X199670000Y-76935000D01*
X199670000Y-76935000D02*
X199130000Y-76935000D01*
%TO.C,R17*%
X200375000Y-65030000D02*
X201425000Y-65030000D01*
X200375000Y-65570000D02*
X200375000Y-65030000D01*
X201425000Y-65030000D02*
X201425000Y-65570000D01*
X201425000Y-65570000D02*
X200375000Y-65570000D01*
%TO.C,U5*%
X187700000Y-95687500D02*
X191700000Y-95687500D01*
X187700000Y-100087500D02*
X187700000Y-95687500D01*
X191700000Y-95687500D02*
X192700000Y-96687500D01*
X192700000Y-96687500D02*
X192700000Y-100087500D01*
X192700000Y-100087500D02*
X187700000Y-100087500D01*
%TO.C,R6*%
X151480000Y-97715000D02*
X152020000Y-97715000D01*
X151480000Y-98765000D02*
X151480000Y-97715000D01*
X152020000Y-97715000D02*
X152020000Y-98765000D01*
X152020000Y-98765000D02*
X151480000Y-98765000D01*
%TO.C,R5*%
X151480000Y-94725000D02*
X152020000Y-94725000D01*
X151480000Y-95775000D02*
X151480000Y-94725000D01*
X152020000Y-94725000D02*
X152020000Y-95775000D01*
X152020000Y-95775000D02*
X151480000Y-95775000D01*
%TO.C,SW3*%
X141170000Y-68910000D02*
X142170000Y-67910000D01*
X141170000Y-80250000D02*
X141170000Y-68910000D01*
X142170000Y-67910000D02*
X150950000Y-67910000D01*
X144030000Y-69635000D02*
X144030000Y-70905000D01*
X144030000Y-69735000D02*
X145383333Y-69735000D01*
X144030000Y-69835000D02*
X145383333Y-69835000D01*
X144030000Y-69935000D02*
X145383333Y-69935000D01*
X144030000Y-70035000D02*
X145383333Y-70035000D01*
X144030000Y-70135000D02*
X145383333Y-70135000D01*
X144030000Y-70235000D02*
X145383333Y-70235000D01*
X144030000Y-70335000D02*
X145383333Y-70335000D01*
X144030000Y-70435000D02*
X145383333Y-70435000D01*
X144030000Y-70535000D02*
X145383333Y-70535000D01*
X144030000Y-70635000D02*
X145383333Y-70635000D01*
X144030000Y-70735000D02*
X145383333Y-70735000D01*
X144030000Y-70835000D02*
X145383333Y-70835000D01*
X144030000Y-70905000D02*
X148090000Y-70905000D01*
X144030000Y-72175000D02*
X144030000Y-73445000D01*
X144030000Y-72275000D02*
X145383333Y-72275000D01*
X144030000Y-72375000D02*
X145383333Y-72375000D01*
X144030000Y-72475000D02*
X145383333Y-72475000D01*
X144030000Y-72575000D02*
X145383333Y-72575000D01*
X144030000Y-72675000D02*
X145383333Y-72675000D01*
X144030000Y-72775000D02*
X145383333Y-72775000D01*
X144030000Y-72875000D02*
X145383333Y-72875000D01*
X144030000Y-72975000D02*
X145383333Y-72975000D01*
X144030000Y-73075000D02*
X145383333Y-73075000D01*
X144030000Y-73175000D02*
X145383333Y-73175000D01*
X144030000Y-73275000D02*
X145383333Y-73275000D01*
X144030000Y-73375000D02*
X145383333Y-73375000D01*
X144030000Y-73445000D02*
X148090000Y-73445000D01*
X144030000Y-74715000D02*
X144030000Y-75985000D01*
X144030000Y-74815000D02*
X145383333Y-74815000D01*
X144030000Y-74915000D02*
X145383333Y-74915000D01*
X144030000Y-75015000D02*
X145383333Y-75015000D01*
X144030000Y-75115000D02*
X145383333Y-75115000D01*
X144030000Y-75215000D02*
X145383333Y-75215000D01*
X144030000Y-75315000D02*
X145383333Y-75315000D01*
X144030000Y-75415000D02*
X145383333Y-75415000D01*
X144030000Y-75515000D02*
X145383333Y-75515000D01*
X144030000Y-75615000D02*
X145383333Y-75615000D01*
X144030000Y-75715000D02*
X145383333Y-75715000D01*
X144030000Y-75815000D02*
X145383333Y-75815000D01*
X144030000Y-75915000D02*
X145383333Y-75915000D01*
X144030000Y-75985000D02*
X148090000Y-75985000D01*
X144030000Y-77255000D02*
X144030000Y-78525000D01*
X144030000Y-77355000D02*
X145383333Y-77355000D01*
X144030000Y-77455000D02*
X145383333Y-77455000D01*
X144030000Y-77555000D02*
X145383333Y-77555000D01*
X144030000Y-77655000D02*
X145383333Y-77655000D01*
X144030000Y-77755000D02*
X145383333Y-77755000D01*
X144030000Y-77855000D02*
X145383333Y-77855000D01*
X144030000Y-77955000D02*
X145383333Y-77955000D01*
X144030000Y-78055000D02*
X145383333Y-78055000D01*
X144030000Y-78155000D02*
X145383333Y-78155000D01*
X144030000Y-78255000D02*
X145383333Y-78255000D01*
X144030000Y-78355000D02*
X145383333Y-78355000D01*
X144030000Y-78455000D02*
X145383333Y-78455000D01*
X144030000Y-78525000D02*
X148090000Y-78525000D01*
X145383333Y-69635000D02*
X145383333Y-70905000D01*
X145383333Y-72175000D02*
X145383333Y-73445000D01*
X145383333Y-74715000D02*
X145383333Y-75985000D01*
X145383333Y-77255000D02*
X145383333Y-78525000D01*
X148090000Y-69635000D02*
X144030000Y-69635000D01*
X148090000Y-70905000D02*
X148090000Y-69635000D01*
X148090000Y-72175000D02*
X144030000Y-72175000D01*
X148090000Y-73445000D02*
X148090000Y-72175000D01*
X148090000Y-74715000D02*
X144030000Y-74715000D01*
X148090000Y-75985000D02*
X148090000Y-74715000D01*
X148090000Y-77255000D02*
X144030000Y-77255000D01*
X148090000Y-78525000D02*
X148090000Y-77255000D01*
X150950000Y-67910000D02*
X150950000Y-80250000D01*
X150950000Y-80250000D02*
X141170000Y-80250000D01*
%TO.C,J6*%
X198240000Y-91675000D02*
X203320000Y-91675000D01*
X198240000Y-99295000D02*
X198240000Y-91675000D01*
X202050000Y-99295000D02*
X198240000Y-99295000D01*
X203320000Y-91675000D02*
X203320000Y-98025000D01*
X203320000Y-98025000D02*
X202050000Y-99295000D01*
%TO.C,R20*%
X200285000Y-69140000D02*
X201335000Y-69140000D01*
X200285000Y-69680000D02*
X200285000Y-69140000D01*
X201335000Y-69140000D02*
X201335000Y-69680000D01*
X201335000Y-69680000D02*
X200285000Y-69680000D01*
%TO.C,R12*%
X184480000Y-90485000D02*
X185020000Y-90485000D01*
X184480000Y-91535000D02*
X184480000Y-90485000D01*
X185020000Y-90485000D02*
X185020000Y-91535000D01*
X185020000Y-91535000D02*
X184480000Y-91535000D01*
%TO.C,C1*%
X183500000Y-67350000D02*
X184500000Y-67350000D01*
X183500000Y-67850000D02*
X183500000Y-67350000D01*
X184500000Y-67350000D02*
X184500000Y-67850000D01*
X184500000Y-67850000D02*
X183500000Y-67850000D01*
%TO.C,SW4*%
X185550000Y-81310000D02*
X195330000Y-81310000D01*
X185550000Y-93650000D02*
X185550000Y-81310000D01*
X188410000Y-83035000D02*
X188410000Y-84305000D01*
X188410000Y-84305000D02*
X192470000Y-84305000D01*
X188410000Y-85575000D02*
X188410000Y-86845000D01*
X188410000Y-86845000D02*
X192470000Y-86845000D01*
X188410000Y-88115000D02*
X188410000Y-89385000D01*
X188410000Y-89385000D02*
X192470000Y-89385000D01*
X188410000Y-90655000D02*
X188410000Y-91925000D01*
X188410000Y-91925000D02*
X192470000Y-91925000D01*
X191116667Y-84305000D02*
X191116667Y-83035000D01*
X191116667Y-86845000D02*
X191116667Y-85575000D01*
X191116667Y-89385000D02*
X191116667Y-88115000D01*
X191116667Y-91925000D02*
X191116667Y-90655000D01*
X192470000Y-83035000D02*
X188410000Y-83035000D01*
X192470000Y-83105000D02*
X191116667Y-83105000D01*
X192470000Y-83205000D02*
X191116667Y-83205000D01*
X192470000Y-83305000D02*
X191116667Y-83305000D01*
X192470000Y-83405000D02*
X191116667Y-83405000D01*
X192470000Y-83505000D02*
X191116667Y-83505000D01*
X192470000Y-83605000D02*
X191116667Y-83605000D01*
X192470000Y-83705000D02*
X191116667Y-83705000D01*
X192470000Y-83805000D02*
X191116667Y-83805000D01*
X192470000Y-83905000D02*
X191116667Y-83905000D01*
X192470000Y-84005000D02*
X191116667Y-84005000D01*
X192470000Y-84105000D02*
X191116667Y-84105000D01*
X192470000Y-84205000D02*
X191116667Y-84205000D01*
X192470000Y-84305000D02*
X192470000Y-83035000D01*
X192470000Y-85575000D02*
X188410000Y-85575000D01*
X192470000Y-85645000D02*
X191116667Y-85645000D01*
X192470000Y-85745000D02*
X191116667Y-85745000D01*
X192470000Y-85845000D02*
X191116667Y-85845000D01*
X192470000Y-85945000D02*
X191116667Y-85945000D01*
X192470000Y-86045000D02*
X191116667Y-86045000D01*
X192470000Y-86145000D02*
X191116667Y-86145000D01*
X192470000Y-86245000D02*
X191116667Y-86245000D01*
X192470000Y-86345000D02*
X191116667Y-86345000D01*
X192470000Y-86445000D02*
X191116667Y-86445000D01*
X192470000Y-86545000D02*
X191116667Y-86545000D01*
X192470000Y-86645000D02*
X191116667Y-86645000D01*
X192470000Y-86745000D02*
X191116667Y-86745000D01*
X192470000Y-86845000D02*
X192470000Y-85575000D01*
X192470000Y-88115000D02*
X188410000Y-88115000D01*
X192470000Y-88185000D02*
X191116667Y-88185000D01*
X192470000Y-88285000D02*
X191116667Y-88285000D01*
X192470000Y-88385000D02*
X191116667Y-88385000D01*
X192470000Y-88485000D02*
X191116667Y-88485000D01*
X192470000Y-88585000D02*
X191116667Y-88585000D01*
X192470000Y-88685000D02*
X191116667Y-88685000D01*
X192470000Y-88785000D02*
X191116667Y-88785000D01*
X192470000Y-88885000D02*
X191116667Y-88885000D01*
X192470000Y-88985000D02*
X191116667Y-88985000D01*
X192470000Y-89085000D02*
X191116667Y-89085000D01*
X192470000Y-89185000D02*
X191116667Y-89185000D01*
X192470000Y-89285000D02*
X191116667Y-89285000D01*
X192470000Y-89385000D02*
X192470000Y-88115000D01*
X192470000Y-90655000D02*
X188410000Y-90655000D01*
X192470000Y-90725000D02*
X191116667Y-90725000D01*
X192470000Y-90825000D02*
X191116667Y-90825000D01*
X192470000Y-90925000D02*
X191116667Y-90925000D01*
X192470000Y-91025000D02*
X191116667Y-91025000D01*
X192470000Y-91125000D02*
X191116667Y-91125000D01*
X192470000Y-91225000D02*
X191116667Y-91225000D01*
X192470000Y-91325000D02*
X191116667Y-91325000D01*
X192470000Y-91425000D02*
X191116667Y-91425000D01*
X192470000Y-91525000D02*
X191116667Y-91525000D01*
X192470000Y-91625000D02*
X191116667Y-91625000D01*
X192470000Y-91725000D02*
X191116667Y-91725000D01*
X192470000Y-91825000D02*
X191116667Y-91825000D01*
X192470000Y-91925000D02*
X192470000Y-90655000D01*
X194330000Y-93650000D02*
X185550000Y-93650000D01*
X195330000Y-81310000D02*
X195330000Y-92650000D01*
X195330000Y-92650000D02*
X194330000Y-93650000D01*
%TO.C,J2*%
X133180000Y-86225000D02*
X134450000Y-84955000D01*
X133180000Y-92575000D02*
X133180000Y-86225000D01*
X134450000Y-84955000D02*
X138260000Y-84955000D01*
X138260000Y-84955000D02*
X138260000Y-92575000D01*
X138260000Y-92575000D02*
X133180000Y-92575000D01*
%TO.C,C7*%
X142750000Y-60830000D02*
X143250000Y-60830000D01*
X142750000Y-61830000D02*
X142750000Y-60830000D01*
X143250000Y-60830000D02*
X143250000Y-61830000D01*
X143250000Y-61830000D02*
X142750000Y-61830000D01*
%TO.C,J10*%
X202850000Y-73130000D02*
X209200000Y-73130000D01*
X202850000Y-78210000D02*
X202850000Y-73130000D01*
X209200000Y-73130000D02*
X210470000Y-74400000D01*
X210470000Y-74400000D02*
X210470000Y-78210000D01*
X210470000Y-78210000D02*
X202850000Y-78210000D01*
%TO.C,R24*%
X200275000Y-76640000D02*
X201325000Y-76640000D01*
X200275000Y-77180000D02*
X200275000Y-76640000D01*
X201325000Y-76640000D02*
X201325000Y-77180000D01*
X201325000Y-77180000D02*
X200275000Y-77180000D01*
%TO.C,C5*%
X142750000Y-83520000D02*
X143250000Y-83520000D01*
X142750000Y-84520000D02*
X142750000Y-83520000D01*
X143250000Y-83520000D02*
X143250000Y-84520000D01*
X143250000Y-84520000D02*
X142750000Y-84520000D01*
%TO.C,R4*%
X151480000Y-92715000D02*
X152020000Y-92715000D01*
X151480000Y-93765000D02*
X151480000Y-92715000D01*
X152020000Y-92715000D02*
X152020000Y-93765000D01*
X152020000Y-93765000D02*
X151480000Y-93765000D01*
%TO.C,J8*%
X202820000Y-60720000D02*
X209170000Y-60720000D01*
X202820000Y-65800000D02*
X202820000Y-60720000D01*
X209170000Y-60720000D02*
X210440000Y-61990000D01*
X210440000Y-61990000D02*
X210440000Y-65800000D01*
X210440000Y-65800000D02*
X202820000Y-65800000D01*
%TO.C,R11*%
X151480000Y-77035000D02*
X152020000Y-77035000D01*
X151480000Y-78085000D02*
X151480000Y-77035000D01*
X152020000Y-77035000D02*
X152020000Y-78085000D01*
X152020000Y-78085000D02*
X151480000Y-78085000D01*
%TO.C,R1*%
X186980000Y-59225000D02*
X187520000Y-59225000D01*
X186980000Y-60275000D02*
X186980000Y-59225000D01*
X187520000Y-59225000D02*
X187520000Y-60275000D01*
X187520000Y-60275000D02*
X186980000Y-60275000D01*
%TO.C,J7*%
X197500000Y-83450000D02*
X197500000Y-84050000D01*
X197500000Y-84050000D02*
X201560000Y-84050000D01*
X197500000Y-85990000D02*
X197500000Y-86590000D01*
X197500000Y-86590000D02*
X201560000Y-86590000D01*
X197500000Y-88530000D02*
X197500000Y-89130000D01*
X197500000Y-89130000D02*
X201560000Y-89130000D01*
X201560000Y-82480000D02*
X210070000Y-82480000D01*
X201560000Y-83450000D02*
X197500000Y-83450000D01*
X201560000Y-85990000D02*
X197500000Y-85990000D01*
X201560000Y-88530000D02*
X197500000Y-88530000D01*
X201560000Y-89130000D02*
X201560000Y-82480000D01*
X202530000Y-90100000D02*
X201560000Y-89130000D01*
X210070000Y-82480000D02*
X210070000Y-90100000D01*
X210070000Y-90100000D02*
X202530000Y-90100000D01*
%TO.C,J9*%
X202820000Y-66930000D02*
X209170000Y-66930000D01*
X202820000Y-72010000D02*
X202820000Y-66930000D01*
X209170000Y-66930000D02*
X210440000Y-68200000D01*
X210440000Y-68200000D02*
X210440000Y-72010000D01*
X210440000Y-72010000D02*
X202820000Y-72010000D01*
%TO.C,C4*%
X142750000Y-88230000D02*
X143250000Y-88230000D01*
X142750000Y-89230000D02*
X142750000Y-88230000D01*
X143250000Y-88230000D02*
X143250000Y-89230000D01*
X143250000Y-89230000D02*
X142750000Y-89230000D01*
%TO.C,C8*%
X193250000Y-95020000D02*
X193750000Y-95020000D01*
X193250000Y-96020000D02*
X193250000Y-95020000D01*
X193750000Y-95020000D02*
X193750000Y-96020000D01*
X193750000Y-96020000D02*
X193250000Y-96020000D01*
%TO.C,A1*%
X157610000Y-54870000D02*
X158610000Y-53870000D01*
X157610000Y-104370000D02*
X157610000Y-54870000D01*
X158610000Y-53870000D02*
X178110000Y-53870000D01*
X163485000Y-65295000D02*
X163485000Y-66445000D01*
X165735000Y-65295000D02*
X165735000Y-66445000D01*
X178110000Y-104870000D02*
X158110000Y-104870000D01*
X178610000Y-54370000D02*
X178610000Y-104370000D01*
X161610000Y-58270000D02*
X163210000Y-58270000D01*
X163210000Y-59070000D01*
X161610000Y-59070000D01*
X161610000Y-58270000D01*
X161910000Y-58270000D02*
X162910000Y-58270000D01*
X162910000Y-59070000D01*
X161910000Y-59070000D01*
X161910000Y-58270000D01*
X163010000Y-63745000D02*
X166210000Y-63745000D01*
X166210000Y-67995000D01*
X163010000Y-67995000D01*
X163010000Y-63745000D01*
X158110000Y-104870000D02*
G75*
G02*
X157610000Y-104370000I1J500001D01*
G01*
X163485000Y-65295000D02*
G75*
G02*
X165735000Y-65295000I1125000J0D01*
G01*
X165735000Y-66445000D02*
G75*
G02*
X163485000Y-66445000I-1125000J0D01*
G01*
X178110000Y-53870000D02*
G75*
G02*
X178610000Y-54370000I0J-500000D01*
G01*
X178610000Y-104370000D02*
G75*
G02*
X178110000Y-104870000I-500000J0D01*
G01*
X172110000Y-53170000D02*
X171900000Y-53170000D01*
X171900000Y-58170000D01*
X164320000Y-58170000D01*
X164320000Y-53170000D01*
X164110000Y-53170000D01*
X164110000Y-52470000D01*
X172110000Y-52470000D01*
X172110000Y-53170000D01*
%TO.C,U1*%
X183070000Y-63800000D02*
X185970000Y-63800000D01*
X183070000Y-65000000D02*
X183070000Y-63800000D01*
X183470000Y-65400000D02*
X183070000Y-65000000D01*
X185970000Y-63800000D02*
X185970000Y-65400000D01*
X185970000Y-65400000D02*
X183470000Y-65400000D01*
%TO.C,C9*%
X193250000Y-99730000D02*
X193750000Y-99730000D01*
X193250000Y-100730000D02*
X193250000Y-99730000D01*
X193750000Y-99730000D02*
X193750000Y-100730000D01*
X193750000Y-100730000D02*
X193250000Y-100730000D01*
%TO.C,R15*%
X184480000Y-83475000D02*
X185020000Y-83475000D01*
X184480000Y-84525000D02*
X184480000Y-83475000D01*
X185020000Y-83475000D02*
X185020000Y-84525000D01*
X185020000Y-84525000D02*
X184480000Y-84525000D01*
%TO.C,SW2*%
X141170000Y-91600000D02*
X142170000Y-90600000D01*
X141170000Y-102940000D02*
X141170000Y-91600000D01*
X142170000Y-90600000D02*
X150950000Y-90600000D01*
X144030000Y-92325000D02*
X144030000Y-93595000D01*
X144030000Y-92425000D02*
X145383333Y-92425000D01*
X144030000Y-92525000D02*
X145383333Y-92525000D01*
X144030000Y-92625000D02*
X145383333Y-92625000D01*
X144030000Y-92725000D02*
X145383333Y-92725000D01*
X144030000Y-92825000D02*
X145383333Y-92825000D01*
X144030000Y-92925000D02*
X145383333Y-92925000D01*
X144030000Y-93025000D02*
X145383333Y-93025000D01*
X144030000Y-93125000D02*
X145383333Y-93125000D01*
X144030000Y-93225000D02*
X145383333Y-93225000D01*
X144030000Y-93325000D02*
X145383333Y-93325000D01*
X144030000Y-93425000D02*
X145383333Y-93425000D01*
X144030000Y-93525000D02*
X145383333Y-93525000D01*
X144030000Y-93595000D02*
X148090000Y-93595000D01*
X144030000Y-94865000D02*
X144030000Y-96135000D01*
X144030000Y-94965000D02*
X145383333Y-94965000D01*
X144030000Y-95065000D02*
X145383333Y-95065000D01*
X144030000Y-95165000D02*
X145383333Y-95165000D01*
X144030000Y-95265000D02*
X145383333Y-95265000D01*
X144030000Y-95365000D02*
X145383333Y-95365000D01*
X144030000Y-95465000D02*
X145383333Y-95465000D01*
X144030000Y-95565000D02*
X145383333Y-95565000D01*
X144030000Y-95665000D02*
X145383333Y-95665000D01*
X144030000Y-95765000D02*
X145383333Y-95765000D01*
X144030000Y-95865000D02*
X145383333Y-95865000D01*
X144030000Y-95965000D02*
X145383333Y-95965000D01*
X144030000Y-96065000D02*
X145383333Y-96065000D01*
X144030000Y-96135000D02*
X148090000Y-96135000D01*
X144030000Y-97405000D02*
X144030000Y-98675000D01*
X144030000Y-97505000D02*
X145383333Y-97505000D01*
X144030000Y-97605000D02*
X145383333Y-97605000D01*
X144030000Y-97705000D02*
X145383333Y-97705000D01*
X144030000Y-97805000D02*
X145383333Y-97805000D01*
X144030000Y-97905000D02*
X145383333Y-97905000D01*
X144030000Y-98005000D02*
X145383333Y-98005000D01*
X144030000Y-98105000D02*
X145383333Y-98105000D01*
X144030000Y-98205000D02*
X145383333Y-98205000D01*
X144030000Y-98305000D02*
X145383333Y-98305000D01*
X144030000Y-98405000D02*
X145383333Y-98405000D01*
X144030000Y-98505000D02*
X145383333Y-98505000D01*
X144030000Y-98605000D02*
X145383333Y-98605000D01*
X144030000Y-98675000D02*
X148090000Y-98675000D01*
X144030000Y-99945000D02*
X144030000Y-101215000D01*
X144030000Y-100045000D02*
X145383333Y-100045000D01*
X144030000Y-100145000D02*
X145383333Y-100145000D01*
X144030000Y-100245000D02*
X145383333Y-100245000D01*
X144030000Y-100345000D02*
X145383333Y-100345000D01*
X144030000Y-100445000D02*
X145383333Y-100445000D01*
X144030000Y-100545000D02*
X145383333Y-100545000D01*
X144030000Y-100645000D02*
X145383333Y-100645000D01*
X144030000Y-100745000D02*
X145383333Y-100745000D01*
X144030000Y-100845000D02*
X145383333Y-100845000D01*
X144030000Y-100945000D02*
X145383333Y-100945000D01*
X144030000Y-101045000D02*
X145383333Y-101045000D01*
X144030000Y-101145000D02*
X145383333Y-101145000D01*
X144030000Y-101215000D02*
X148090000Y-101215000D01*
X145383333Y-92325000D02*
X145383333Y-93595000D01*
X145383333Y-94865000D02*
X145383333Y-96135000D01*
X145383333Y-97405000D02*
X145383333Y-98675000D01*
X145383333Y-99945000D02*
X145383333Y-101215000D01*
X148090000Y-92325000D02*
X144030000Y-92325000D01*
X148090000Y-93595000D02*
X148090000Y-92325000D01*
X148090000Y-94865000D02*
X144030000Y-94865000D01*
X148090000Y-96135000D02*
X148090000Y-94865000D01*
X148090000Y-97405000D02*
X144030000Y-97405000D01*
X148090000Y-98675000D02*
X148090000Y-97405000D01*
X148090000Y-99945000D02*
X144030000Y-99945000D01*
X148090000Y-101215000D02*
X148090000Y-99945000D01*
X150950000Y-90600000D02*
X150950000Y-102940000D01*
X150950000Y-102940000D02*
X141170000Y-102940000D01*
%TO.C,D3*%
X184000000Y-54850000D02*
X185800000Y-54850000D01*
X184000000Y-57650000D02*
X184000000Y-54850000D01*
X184500000Y-56000000D02*
X185300000Y-56000000D01*
X184900000Y-56000000D02*
X184900000Y-55500000D01*
X184900000Y-56600000D02*
X184350000Y-56600000D01*
X184900000Y-56600000D02*
X184500000Y-56000000D01*
X184900000Y-56600000D02*
X185450000Y-56600000D01*
X184900000Y-57000000D02*
X184900000Y-56600000D01*
X185300000Y-56000000D02*
X184900000Y-56600000D01*
X185800000Y-54850000D02*
X185800000Y-57650000D01*
X185800000Y-57650000D02*
X184000000Y-57650000D01*
%TO.C,R9*%
X151480000Y-72035000D02*
X152020000Y-72035000D01*
X151480000Y-73085000D02*
X151480000Y-72035000D01*
X152020000Y-72035000D02*
X152020000Y-73085000D01*
X152020000Y-73085000D02*
X151480000Y-73085000D01*
%TO.C,R8*%
X151480000Y-70025000D02*
X152020000Y-70025000D01*
X151480000Y-71075000D02*
X151480000Y-70025000D01*
X152020000Y-70025000D02*
X152020000Y-71075000D01*
X152020000Y-71075000D02*
X151480000Y-71075000D01*
%TD*%
M02*
