%TF.GenerationSoftware,KiCad,Pcbnew,8.0.8+1*%
%TF.CreationDate,2025-01-27T22:00:13-08:00*%
%TF.ProjectId,pico-logic-analyzer,7069636f-2d6c-46f6-9769-632d616e616c,rev?*%
%TF.SameCoordinates,Original*%
%TF.FileFunction,Paste,Top*%
%TF.FilePolarity,Positive*%
%FSLAX46Y46*%
G04 Gerber Fmt 4.6, Leading zero omitted, Abs format (unit mm)*
G04 Created by KiCad (PCBNEW 8.0.8+1) date 2025-01-27 22:00:13*
%MOMM*%
%LPD*%
G01*
G04 APERTURE LIST*
G04 Aperture macros list*
%AMRoundRect*
0 Rectangle with rounded corners*
0 $1 Rounding radius*
0 $2 $3 $4 $5 $6 $7 $8 $9 X,Y pos of 4 corners*
0 Add a 4 corners polygon primitive as box body*
4,1,4,$2,$3,$4,$5,$6,$7,$8,$9,$2,$3,0*
0 Add four circle primitives for the rounded corners*
1,1,$1+$1,$2,$3*
1,1,$1+$1,$4,$5*
1,1,$1+$1,$6,$7*
1,1,$1+$1,$8,$9*
0 Add four rect primitives between the rounded corners*
20,1,$1+$1,$2,$3,$4,$5,0*
20,1,$1+$1,$4,$5,$6,$7,0*
20,1,$1+$1,$6,$7,$8,$9,0*
20,1,$1+$1,$8,$9,$2,$3,0*%
G04 Aperture macros list end*
%ADD10RoundRect,0.150000X-0.150000X0.587500X-0.150000X-0.587500X0.150000X-0.587500X0.150000X0.587500X0*%
%ADD11RoundRect,0.225000X0.250000X-0.225000X0.250000X0.225000X-0.250000X0.225000X-0.250000X-0.225000X0*%
%ADD12RoundRect,0.150000X0.150000X-0.587500X0.150000X0.587500X-0.150000X0.587500X-0.150000X-0.587500X0*%
%ADD13RoundRect,0.225000X-0.225000X-0.250000X0.225000X-0.250000X0.225000X0.250000X-0.225000X0.250000X0*%
%ADD14R,0.400000X0.500000*%
%ADD15R,0.300000X0.500000*%
%ADD16RoundRect,0.150000X-0.512500X-0.150000X0.512500X-0.150000X0.512500X0.150000X-0.512500X0.150000X0*%
%ADD17RoundRect,0.225000X-0.225000X-0.375000X0.225000X-0.375000X0.225000X0.375000X-0.225000X0.375000X0*%
%ADD18RoundRect,0.100000X-0.637500X-0.100000X0.637500X-0.100000X0.637500X0.100000X-0.637500X0.100000X0*%
%ADD19R,0.500000X0.400000*%
%ADD20R,0.500000X0.300000*%
%ADD21RoundRect,0.250000X0.300000X0.300000X-0.300000X0.300000X-0.300000X-0.300000X0.300000X-0.300000X0*%
%ADD22RoundRect,0.225000X-0.250000X0.225000X-0.250000X-0.225000X0.250000X-0.225000X0.250000X0.225000X0*%
%ADD23RoundRect,0.135000X-0.135000X-0.185000X0.135000X-0.185000X0.135000X0.185000X-0.135000X0.185000X0*%
%ADD24RoundRect,0.150000X-0.587500X-0.150000X0.587500X-0.150000X0.587500X0.150000X-0.587500X0.150000X0*%
%ADD25R,1.250000X1.000000*%
%ADD26RoundRect,0.100000X0.637500X0.100000X-0.637500X0.100000X-0.637500X-0.100000X0.637500X-0.100000X0*%
G04 APERTURE END LIST*
D10*
%TO.C,D7*%
X175985001Y-96920000D03*
X174085001Y-96920000D03*
X175035001Y-98795000D03*
%TD*%
D11*
%TO.C,C5*%
X171835000Y-98445000D03*
X171835000Y-96895000D03*
%TD*%
D12*
%TO.C,D4*%
X174185001Y-89170000D03*
X176085001Y-89170000D03*
X175135001Y-87295000D03*
%TD*%
%TO.C,D5*%
X174140001Y-63000000D03*
X176040001Y-63000000D03*
X175090001Y-61125000D03*
%TD*%
D11*
%TO.C,C1*%
X161375000Y-82075000D03*
X161375000Y-80525000D03*
%TD*%
D13*
%TO.C,C2*%
X163575000Y-78950000D03*
X165125000Y-78950000D03*
%TD*%
D12*
%TO.C,D9*%
X159350000Y-90750000D03*
X161250000Y-90750000D03*
X160300000Y-88875000D03*
%TD*%
D14*
%TO.C,RN5*%
X182040001Y-70500000D03*
D15*
X181540001Y-70500000D03*
X181040001Y-70500000D03*
D14*
X180540001Y-70500000D03*
X180540001Y-71500000D03*
D15*
X181040001Y-71500000D03*
X181540001Y-71500000D03*
D14*
X182040001Y-71500000D03*
%TD*%
D16*
%TO.C,U1*%
X163125000Y-80550000D03*
X163125000Y-81500000D03*
X163125000Y-82450000D03*
X165400000Y-82450000D03*
X165400000Y-81500000D03*
X165400000Y-80550000D03*
%TD*%
D11*
%TO.C,C3*%
X167125000Y-83075000D03*
X167125000Y-81525000D03*
%TD*%
D17*
%TO.C,D1*%
X170375000Y-77000000D03*
X173675000Y-77000000D03*
%TD*%
D18*
%TO.C,U5*%
X158000000Y-92600000D03*
X158000000Y-93250000D03*
X158000000Y-93900000D03*
X158000000Y-94550000D03*
X158000000Y-95200000D03*
X158000000Y-95850000D03*
X158000000Y-96500000D03*
X163725000Y-96500000D03*
X163725000Y-95850000D03*
X163725000Y-95200000D03*
X163725000Y-94550000D03*
X163725000Y-93900000D03*
X163725000Y-93250000D03*
X163725000Y-92600000D03*
%TD*%
D19*
%TO.C,RN3*%
X147500000Y-103250000D03*
D20*
X147500000Y-103750000D03*
X147500000Y-104250000D03*
D19*
X147500000Y-104750000D03*
X148500000Y-104750000D03*
D20*
X148500000Y-104250000D03*
X148500000Y-103750000D03*
D19*
X148500000Y-103250000D03*
%TD*%
D10*
%TO.C,D6*%
X161150000Y-98500000D03*
X159250000Y-98500000D03*
X160200000Y-100375000D03*
%TD*%
D21*
%TO.C,D2*%
X165675000Y-77050000D03*
X162875000Y-77050000D03*
%TD*%
D19*
%TO.C,RN2*%
X187790000Y-58250000D03*
D20*
X187790000Y-57750000D03*
X187790000Y-57250000D03*
D19*
X187790000Y-56750000D03*
X186790000Y-56750000D03*
D20*
X186790000Y-57250000D03*
X186790000Y-57750000D03*
D19*
X186790000Y-58250000D03*
%TD*%
D22*
%TO.C,C8*%
X157250000Y-89250000D03*
X157250000Y-90800000D03*
%TD*%
D23*
%TO.C,R1*%
X168125000Y-77300000D03*
X169145000Y-77300000D03*
%TD*%
%TO.C,R3*%
X169115000Y-79300000D03*
X170135000Y-79300000D03*
%TD*%
D10*
%TO.C,D8*%
X175940001Y-70750000D03*
X174040001Y-70750000D03*
X174990001Y-72625000D03*
%TD*%
D19*
%TO.C,RN1*%
X187835000Y-84420000D03*
D20*
X187835000Y-83920000D03*
X187835000Y-83420000D03*
D19*
X187835000Y-82920000D03*
X186835000Y-82920000D03*
D20*
X186835000Y-83420000D03*
X186835000Y-83920000D03*
D19*
X186835000Y-84420000D03*
%TD*%
D11*
%TO.C,C7*%
X171790000Y-72275000D03*
X171790000Y-70725000D03*
%TD*%
%TO.C,C6*%
X178040001Y-72250000D03*
X178040001Y-70700000D03*
%TD*%
D14*
%TO.C,RN4*%
X182085001Y-96670000D03*
D15*
X181585001Y-96670000D03*
X181085001Y-96670000D03*
D14*
X180585001Y-96670000D03*
X180585001Y-97670000D03*
D15*
X181085001Y-97670000D03*
X181585001Y-97670000D03*
D14*
X182085001Y-97670000D03*
%TD*%
%TO.C,RN6*%
X153250000Y-91000000D03*
D15*
X153750000Y-91000000D03*
X154250000Y-91000000D03*
D14*
X154750000Y-91000000D03*
X154750000Y-90000000D03*
D15*
X154250000Y-90000000D03*
X153750000Y-90000000D03*
D14*
X153250000Y-90000000D03*
%TD*%
D24*
%TO.C,U2*%
X171625000Y-79300000D03*
X171625000Y-81200000D03*
X173500000Y-80250000D03*
%TD*%
D25*
%TO.C,SW1*%
X155125000Y-78250000D03*
X147375000Y-78250000D03*
%TD*%
D22*
%TO.C,C9*%
X163500000Y-89225000D03*
X163500000Y-90775000D03*
%TD*%
D26*
%TO.C,U4*%
X177290001Y-68900000D03*
X177290001Y-68250000D03*
X177290001Y-67600000D03*
X177290001Y-66950000D03*
X177290001Y-66300000D03*
X177290001Y-65650000D03*
X177290001Y-65000000D03*
X171565001Y-65000000D03*
X171565001Y-65650000D03*
X171565001Y-66300000D03*
X171565001Y-66950000D03*
X171565001Y-67600000D03*
X171565001Y-68250000D03*
X171565001Y-68900000D03*
%TD*%
%TO.C,U3*%
X177335001Y-95070000D03*
X177335001Y-94420000D03*
X177335001Y-93770000D03*
X177335001Y-93120000D03*
X177335001Y-92470000D03*
X177335001Y-91820000D03*
X177335001Y-91170000D03*
X171610001Y-91170000D03*
X171610001Y-91820000D03*
X171610001Y-92470000D03*
X171610001Y-93120000D03*
X171610001Y-93770000D03*
X171610001Y-94420000D03*
X171610001Y-95070000D03*
%TD*%
D11*
%TO.C,C4*%
X178085001Y-98420000D03*
X178085001Y-96870000D03*
%TD*%
M02*
