%TF.GenerationSoftware,KiCad,Pcbnew,8.0.8+1*%
%TF.CreationDate,2025-01-27T22:00:13-08:00*%
%TF.ProjectId,pico-logic-analyzer,7069636f-2d6c-46f6-9769-632d616e616c,rev?*%
%TF.SameCoordinates,Original*%
%TF.FileFunction,Other,Comment*%
%FSLAX46Y46*%
G04 Gerber Fmt 4.6, Leading zero omitted, Abs format (unit mm)*
G04 Created by KiCad (PCBNEW 8.0.8+1) date 2025-01-27 22:00:13*
%MOMM*%
%LPD*%
G01*
G04 APERTURE LIST*
%ADD10C,0.050000*%
%ADD11C,0.075000*%
%ADD12C,0.150000*%
G04 APERTURE END LIST*
D10*
X166166243Y-73021591D02*
X166166243Y-72688291D01*
X166356700Y-73021591D02*
X166213857Y-72831134D01*
X166356700Y-72688291D02*
X166166243Y-72878748D01*
X166626514Y-73005720D02*
X166594771Y-73021591D01*
X166594771Y-73021591D02*
X166531286Y-73021591D01*
X166531286Y-73021591D02*
X166499543Y-73005720D01*
X166499543Y-73005720D02*
X166483671Y-72973977D01*
X166483671Y-72973977D02*
X166483671Y-72847005D01*
X166483671Y-72847005D02*
X166499543Y-72815262D01*
X166499543Y-72815262D02*
X166531286Y-72799391D01*
X166531286Y-72799391D02*
X166594771Y-72799391D01*
X166594771Y-72799391D02*
X166626514Y-72815262D01*
X166626514Y-72815262D02*
X166642386Y-72847005D01*
X166642386Y-72847005D02*
X166642386Y-72878748D01*
X166642386Y-72878748D02*
X166483671Y-72910491D01*
X166912200Y-73005720D02*
X166880457Y-73021591D01*
X166880457Y-73021591D02*
X166816972Y-73021591D01*
X166816972Y-73021591D02*
X166785229Y-73005720D01*
X166785229Y-73005720D02*
X166769357Y-72973977D01*
X166769357Y-72973977D02*
X166769357Y-72847005D01*
X166769357Y-72847005D02*
X166785229Y-72815262D01*
X166785229Y-72815262D02*
X166816972Y-72799391D01*
X166816972Y-72799391D02*
X166880457Y-72799391D01*
X166880457Y-72799391D02*
X166912200Y-72815262D01*
X166912200Y-72815262D02*
X166928072Y-72847005D01*
X166928072Y-72847005D02*
X166928072Y-72878748D01*
X166928072Y-72878748D02*
X166769357Y-72910491D01*
X167070915Y-72799391D02*
X167070915Y-73132691D01*
X167070915Y-72815262D02*
X167102658Y-72799391D01*
X167102658Y-72799391D02*
X167166143Y-72799391D01*
X167166143Y-72799391D02*
X167197886Y-72815262D01*
X167197886Y-72815262D02*
X167213758Y-72831134D01*
X167213758Y-72831134D02*
X167229629Y-72862877D01*
X167229629Y-72862877D02*
X167229629Y-72958105D01*
X167229629Y-72958105D02*
X167213758Y-72989848D01*
X167213758Y-72989848D02*
X167197886Y-73005720D01*
X167197886Y-73005720D02*
X167166143Y-73021591D01*
X167166143Y-73021591D02*
X167102658Y-73021591D01*
X167102658Y-73021591D02*
X167070915Y-73005720D01*
D11*
X162525447Y-68130953D02*
X162525447Y-68369048D01*
X162382590Y-68083334D02*
X162882590Y-68250000D01*
X162882590Y-68250000D02*
X162382590Y-68416667D01*
X162858780Y-68845238D02*
X162882590Y-68797619D01*
X162882590Y-68797619D02*
X162882590Y-68726190D01*
X162882590Y-68726190D02*
X162858780Y-68654762D01*
X162858780Y-68654762D02*
X162811161Y-68607143D01*
X162811161Y-68607143D02*
X162763542Y-68583333D01*
X162763542Y-68583333D02*
X162668304Y-68559524D01*
X162668304Y-68559524D02*
X162596876Y-68559524D01*
X162596876Y-68559524D02*
X162501638Y-68583333D01*
X162501638Y-68583333D02*
X162454019Y-68607143D01*
X162454019Y-68607143D02*
X162406400Y-68654762D01*
X162406400Y-68654762D02*
X162382590Y-68726190D01*
X162382590Y-68726190D02*
X162382590Y-68773809D01*
X162382590Y-68773809D02*
X162406400Y-68845238D01*
X162406400Y-68845238D02*
X162430209Y-68869047D01*
X162430209Y-68869047D02*
X162596876Y-68869047D01*
X162596876Y-68869047D02*
X162596876Y-68773809D01*
X162382590Y-69083333D02*
X162882590Y-69083333D01*
X162882590Y-69083333D02*
X162382590Y-69369047D01*
X162382590Y-69369047D02*
X162882590Y-69369047D01*
X162382590Y-69607143D02*
X162882590Y-69607143D01*
X162882590Y-69607143D02*
X162882590Y-69726191D01*
X162882590Y-69726191D02*
X162858780Y-69797619D01*
X162858780Y-69797619D02*
X162811161Y-69845238D01*
X162811161Y-69845238D02*
X162763542Y-69869048D01*
X162763542Y-69869048D02*
X162668304Y-69892857D01*
X162668304Y-69892857D02*
X162596876Y-69892857D01*
X162596876Y-69892857D02*
X162501638Y-69869048D01*
X162501638Y-69869048D02*
X162454019Y-69845238D01*
X162454019Y-69845238D02*
X162406400Y-69797619D01*
X162406400Y-69797619D02*
X162382590Y-69726191D01*
X162382590Y-69726191D02*
X162382590Y-69607143D01*
X162382590Y-70488095D02*
X162882590Y-70488095D01*
X162882590Y-70488095D02*
X162882590Y-70678571D01*
X162882590Y-70678571D02*
X162858780Y-70726190D01*
X162858780Y-70726190D02*
X162834971Y-70750000D01*
X162834971Y-70750000D02*
X162787352Y-70773809D01*
X162787352Y-70773809D02*
X162715923Y-70773809D01*
X162715923Y-70773809D02*
X162668304Y-70750000D01*
X162668304Y-70750000D02*
X162644495Y-70726190D01*
X162644495Y-70726190D02*
X162620685Y-70678571D01*
X162620685Y-70678571D02*
X162620685Y-70488095D01*
X162382590Y-71059524D02*
X162406400Y-71011905D01*
X162406400Y-71011905D02*
X162454019Y-70988095D01*
X162454019Y-70988095D02*
X162882590Y-70988095D01*
X162382590Y-71464286D02*
X162644495Y-71464286D01*
X162644495Y-71464286D02*
X162692114Y-71440476D01*
X162692114Y-71440476D02*
X162715923Y-71392857D01*
X162715923Y-71392857D02*
X162715923Y-71297619D01*
X162715923Y-71297619D02*
X162692114Y-71250000D01*
X162406400Y-71464286D02*
X162382590Y-71416667D01*
X162382590Y-71416667D02*
X162382590Y-71297619D01*
X162382590Y-71297619D02*
X162406400Y-71250000D01*
X162406400Y-71250000D02*
X162454019Y-71226191D01*
X162454019Y-71226191D02*
X162501638Y-71226191D01*
X162501638Y-71226191D02*
X162549257Y-71250000D01*
X162549257Y-71250000D02*
X162573066Y-71297619D01*
X162573066Y-71297619D02*
X162573066Y-71416667D01*
X162573066Y-71416667D02*
X162596876Y-71464286D01*
X162715923Y-71702381D02*
X162382590Y-71702381D01*
X162668304Y-71702381D02*
X162692114Y-71726191D01*
X162692114Y-71726191D02*
X162715923Y-71773810D01*
X162715923Y-71773810D02*
X162715923Y-71845238D01*
X162715923Y-71845238D02*
X162692114Y-71892857D01*
X162692114Y-71892857D02*
X162644495Y-71916667D01*
X162644495Y-71916667D02*
X162382590Y-71916667D01*
X162406400Y-72345238D02*
X162382590Y-72297619D01*
X162382590Y-72297619D02*
X162382590Y-72202381D01*
X162382590Y-72202381D02*
X162406400Y-72154762D01*
X162406400Y-72154762D02*
X162454019Y-72130953D01*
X162454019Y-72130953D02*
X162644495Y-72130953D01*
X162644495Y-72130953D02*
X162692114Y-72154762D01*
X162692114Y-72154762D02*
X162715923Y-72202381D01*
X162715923Y-72202381D02*
X162715923Y-72297619D01*
X162715923Y-72297619D02*
X162692114Y-72345238D01*
X162692114Y-72345238D02*
X162644495Y-72369048D01*
X162644495Y-72369048D02*
X162596876Y-72369048D01*
X162596876Y-72369048D02*
X162549257Y-72130953D01*
D10*
X166412250Y-73323291D02*
X166475736Y-73323291D01*
X166475736Y-73323291D02*
X166507479Y-73339162D01*
X166507479Y-73339162D02*
X166539222Y-73370905D01*
X166539222Y-73370905D02*
X166555093Y-73434391D01*
X166555093Y-73434391D02*
X166555093Y-73545491D01*
X166555093Y-73545491D02*
X166539222Y-73608977D01*
X166539222Y-73608977D02*
X166507479Y-73640720D01*
X166507479Y-73640720D02*
X166475736Y-73656591D01*
X166475736Y-73656591D02*
X166412250Y-73656591D01*
X166412250Y-73656591D02*
X166380508Y-73640720D01*
X166380508Y-73640720D02*
X166348765Y-73608977D01*
X166348765Y-73608977D02*
X166332893Y-73545491D01*
X166332893Y-73545491D02*
X166332893Y-73434391D01*
X166332893Y-73434391D02*
X166348765Y-73370905D01*
X166348765Y-73370905D02*
X166380508Y-73339162D01*
X166380508Y-73339162D02*
X166412250Y-73323291D01*
X166840779Y-73434391D02*
X166840779Y-73656591D01*
X166697936Y-73434391D02*
X166697936Y-73608977D01*
X166697936Y-73608977D02*
X166713807Y-73640720D01*
X166713807Y-73640720D02*
X166745550Y-73656591D01*
X166745550Y-73656591D02*
X166793164Y-73656591D01*
X166793164Y-73656591D02*
X166824907Y-73640720D01*
X166824907Y-73640720D02*
X166840779Y-73624848D01*
X166951878Y-73434391D02*
X167078850Y-73434391D01*
X166999493Y-73323291D02*
X166999493Y-73608977D01*
X166999493Y-73608977D02*
X167015364Y-73640720D01*
X167015364Y-73640720D02*
X167047107Y-73656591D01*
X167047107Y-73656591D02*
X167078850Y-73656591D01*
X166094821Y-72354848D02*
X166078949Y-72370720D01*
X166078949Y-72370720D02*
X166031335Y-72386591D01*
X166031335Y-72386591D02*
X165999592Y-72386591D01*
X165999592Y-72386591D02*
X165951978Y-72370720D01*
X165951978Y-72370720D02*
X165920235Y-72338977D01*
X165920235Y-72338977D02*
X165904364Y-72307234D01*
X165904364Y-72307234D02*
X165888492Y-72243748D01*
X165888492Y-72243748D02*
X165888492Y-72196134D01*
X165888492Y-72196134D02*
X165904364Y-72132648D01*
X165904364Y-72132648D02*
X165920235Y-72100905D01*
X165920235Y-72100905D02*
X165951978Y-72069162D01*
X165951978Y-72069162D02*
X165999592Y-72053291D01*
X165999592Y-72053291D02*
X166031335Y-72053291D01*
X166031335Y-72053291D02*
X166078949Y-72069162D01*
X166078949Y-72069162D02*
X166094821Y-72085034D01*
X166285278Y-72386591D02*
X166253535Y-72370720D01*
X166253535Y-72370720D02*
X166237664Y-72354848D01*
X166237664Y-72354848D02*
X166221792Y-72323105D01*
X166221792Y-72323105D02*
X166221792Y-72227877D01*
X166221792Y-72227877D02*
X166237664Y-72196134D01*
X166237664Y-72196134D02*
X166253535Y-72180262D01*
X166253535Y-72180262D02*
X166285278Y-72164391D01*
X166285278Y-72164391D02*
X166332892Y-72164391D01*
X166332892Y-72164391D02*
X166364635Y-72180262D01*
X166364635Y-72180262D02*
X166380507Y-72196134D01*
X166380507Y-72196134D02*
X166396378Y-72227877D01*
X166396378Y-72227877D02*
X166396378Y-72323105D01*
X166396378Y-72323105D02*
X166380507Y-72354848D01*
X166380507Y-72354848D02*
X166364635Y-72370720D01*
X166364635Y-72370720D02*
X166332892Y-72386591D01*
X166332892Y-72386591D02*
X166285278Y-72386591D01*
X166539221Y-72164391D02*
X166539221Y-72497691D01*
X166539221Y-72180262D02*
X166570964Y-72164391D01*
X166570964Y-72164391D02*
X166634449Y-72164391D01*
X166634449Y-72164391D02*
X166666192Y-72180262D01*
X166666192Y-72180262D02*
X166682064Y-72196134D01*
X166682064Y-72196134D02*
X166697935Y-72227877D01*
X166697935Y-72227877D02*
X166697935Y-72323105D01*
X166697935Y-72323105D02*
X166682064Y-72354848D01*
X166682064Y-72354848D02*
X166666192Y-72370720D01*
X166666192Y-72370720D02*
X166634449Y-72386591D01*
X166634449Y-72386591D02*
X166570964Y-72386591D01*
X166570964Y-72386591D02*
X166539221Y-72370720D01*
X166840778Y-72164391D02*
X166840778Y-72497691D01*
X166840778Y-72180262D02*
X166872521Y-72164391D01*
X166872521Y-72164391D02*
X166936006Y-72164391D01*
X166936006Y-72164391D02*
X166967749Y-72180262D01*
X166967749Y-72180262D02*
X166983621Y-72196134D01*
X166983621Y-72196134D02*
X166999492Y-72227877D01*
X166999492Y-72227877D02*
X166999492Y-72323105D01*
X166999492Y-72323105D02*
X166983621Y-72354848D01*
X166983621Y-72354848D02*
X166967749Y-72370720D01*
X166967749Y-72370720D02*
X166936006Y-72386591D01*
X166936006Y-72386591D02*
X166872521Y-72386591D01*
X166872521Y-72386591D02*
X166840778Y-72370720D01*
X167269306Y-72370720D02*
X167237563Y-72386591D01*
X167237563Y-72386591D02*
X167174078Y-72386591D01*
X167174078Y-72386591D02*
X167142335Y-72370720D01*
X167142335Y-72370720D02*
X167126463Y-72338977D01*
X167126463Y-72338977D02*
X167126463Y-72212005D01*
X167126463Y-72212005D02*
X167142335Y-72180262D01*
X167142335Y-72180262D02*
X167174078Y-72164391D01*
X167174078Y-72164391D02*
X167237563Y-72164391D01*
X167237563Y-72164391D02*
X167269306Y-72180262D01*
X167269306Y-72180262D02*
X167285178Y-72212005D01*
X167285178Y-72212005D02*
X167285178Y-72243748D01*
X167285178Y-72243748D02*
X167126463Y-72275491D01*
X167428021Y-72386591D02*
X167428021Y-72164391D01*
X167428021Y-72227877D02*
X167443892Y-72196134D01*
X167443892Y-72196134D02*
X167459764Y-72180262D01*
X167459764Y-72180262D02*
X167491506Y-72164391D01*
X167491506Y-72164391D02*
X167523249Y-72164391D01*
D12*
%TO.C,H4*%
X145700000Y-106000000D02*
G75*
G02*
X139300000Y-106000000I-3200000J0D01*
G01*
X139300000Y-106000000D02*
G75*
G02*
X145700000Y-106000000I3200000J0D01*
G01*
%TO.C,H1*%
X196200000Y-55500000D02*
G75*
G02*
X189800000Y-55500000I-3200000J0D01*
G01*
X189800000Y-55500000D02*
G75*
G02*
X196200000Y-55500000I3200000J0D01*
G01*
%TD*%
M02*
