%TF.GenerationSoftware,KiCad,Pcbnew,8.0.8+1*%
%TF.CreationDate,2025-01-27T22:00:13-08:00*%
%TF.ProjectId,pico-logic-analyzer,7069636f-2d6c-46f6-9769-632d616e616c,rev?*%
%TF.SameCoordinates,Original*%
%TF.FileFunction,Copper,L1,Top*%
%TF.FilePolarity,Positive*%
%FSLAX46Y46*%
G04 Gerber Fmt 4.6, Leading zero omitted, Abs format (unit mm)*
G04 Created by KiCad (PCBNEW 8.0.8+1) date 2025-01-27 22:00:13*
%MOMM*%
%LPD*%
G01*
G04 APERTURE LIST*
G04 Aperture macros list*
%AMRoundRect*
0 Rectangle with rounded corners*
0 $1 Rounding radius*
0 $2 $3 $4 $5 $6 $7 $8 $9 X,Y pos of 4 corners*
0 Add a 4 corners polygon primitive as box body*
4,1,4,$2,$3,$4,$5,$6,$7,$8,$9,$2,$3,0*
0 Add four circle primitives for the rounded corners*
1,1,$1+$1,$2,$3*
1,1,$1+$1,$4,$5*
1,1,$1+$1,$6,$7*
1,1,$1+$1,$8,$9*
0 Add four rect primitives between the rounded corners*
20,1,$1+$1,$2,$3,$4,$5,0*
20,1,$1+$1,$4,$5,$6,$7,0*
20,1,$1+$1,$6,$7,$8,$9,0*
20,1,$1+$1,$8,$9,$2,$3,0*%
G04 Aperture macros list end*
%ADD10C,0.300000*%
%TA.AperFunction,NonConductor*%
%ADD11C,0.300000*%
%TD*%
%TA.AperFunction,SMDPad,CuDef*%
%ADD12RoundRect,0.150000X-0.150000X0.587500X-0.150000X-0.587500X0.150000X-0.587500X0.150000X0.587500X0*%
%TD*%
%TA.AperFunction,SMDPad,CuDef*%
%ADD13RoundRect,0.225000X0.250000X-0.225000X0.250000X0.225000X-0.250000X0.225000X-0.250000X-0.225000X0*%
%TD*%
%TA.AperFunction,ComponentPad*%
%ADD14R,1.600000X1.600000*%
%TD*%
%TA.AperFunction,ComponentPad*%
%ADD15O,1.600000X1.600000*%
%TD*%
%TA.AperFunction,SMDPad,CuDef*%
%ADD16RoundRect,0.150000X0.150000X-0.587500X0.150000X0.587500X-0.150000X0.587500X-0.150000X-0.587500X0*%
%TD*%
%TA.AperFunction,ComponentPad*%
%ADD17R,1.700000X1.700000*%
%TD*%
%TA.AperFunction,SMDPad,CuDef*%
%ADD18RoundRect,0.225000X-0.225000X-0.250000X0.225000X-0.250000X0.225000X0.250000X-0.225000X0.250000X0*%
%TD*%
%TA.AperFunction,SMDPad,CuDef*%
%ADD19R,0.400000X0.500000*%
%TD*%
%TA.AperFunction,SMDPad,CuDef*%
%ADD20R,0.300000X0.500000*%
%TD*%
%TA.AperFunction,SMDPad,CuDef*%
%ADD21RoundRect,0.150000X-0.512500X-0.150000X0.512500X-0.150000X0.512500X0.150000X-0.512500X0.150000X0*%
%TD*%
%TA.AperFunction,ComponentPad*%
%ADD22O,1.700000X1.700000*%
%TD*%
%TA.AperFunction,SMDPad,CuDef*%
%ADD23RoundRect,0.225000X-0.225000X-0.375000X0.225000X-0.375000X0.225000X0.375000X-0.225000X0.375000X0*%
%TD*%
%TA.AperFunction,SMDPad,CuDef*%
%ADD24RoundRect,0.100000X-0.637500X-0.100000X0.637500X-0.100000X0.637500X0.100000X-0.637500X0.100000X0*%
%TD*%
%TA.AperFunction,SMDPad,CuDef*%
%ADD25R,0.500000X0.400000*%
%TD*%
%TA.AperFunction,SMDPad,CuDef*%
%ADD26R,0.500000X0.300000*%
%TD*%
%TA.AperFunction,SMDPad,CuDef*%
%ADD27RoundRect,0.250000X0.300000X0.300000X-0.300000X0.300000X-0.300000X-0.300000X0.300000X-0.300000X0*%
%TD*%
%TA.AperFunction,SMDPad,CuDef*%
%ADD28RoundRect,0.225000X-0.250000X0.225000X-0.250000X-0.225000X0.250000X-0.225000X0.250000X0.225000X0*%
%TD*%
%TA.AperFunction,SMDPad,CuDef*%
%ADD29RoundRect,0.135000X-0.135000X-0.185000X0.135000X-0.185000X0.135000X0.185000X-0.135000X0.185000X0*%
%TD*%
%TA.AperFunction,SMDPad,CuDef*%
%ADD30C,1.000000*%
%TD*%
%TA.AperFunction,SMDPad,CuDef*%
%ADD31RoundRect,0.150000X-0.587500X-0.150000X0.587500X-0.150000X0.587500X0.150000X-0.587500X0.150000X0*%
%TD*%
%TA.AperFunction,SMDPad,CuDef*%
%ADD32R,1.250000X1.000000*%
%TD*%
%TA.AperFunction,SMDPad,CuDef*%
%ADD33RoundRect,0.100000X0.637500X0.100000X-0.637500X0.100000X-0.637500X-0.100000X0.637500X-0.100000X0*%
%TD*%
%TA.AperFunction,ViaPad*%
%ADD34C,0.600000*%
%TD*%
%TA.AperFunction,Conductor*%
%ADD35C,0.500000*%
%TD*%
%TA.AperFunction,Conductor*%
%ADD36C,0.350000*%
%TD*%
%TA.AperFunction,Conductor*%
%ADD37C,0.200000*%
%TD*%
G04 APERTURE END LIST*
D10*
D11*
X174483082Y-108572257D02*
X175197368Y-108572257D01*
X174340225Y-109000828D02*
X174840225Y-107500828D01*
X174840225Y-107500828D02*
X175340225Y-109000828D01*
D10*
D11*
X173733082Y-107622257D02*
X174447368Y-107622257D01*
X173590225Y-108050828D02*
X174090225Y-106550828D01*
X174090225Y-106550828D02*
X174590225Y-108050828D01*
D12*
%TO.P,D7,1,K*%
%TO.N,/Buffer Block A/A0_{CL}*%
X175985001Y-96920000D03*
%TO.P,D7,2,K*%
%TO.N,/Buffer Block A/A1_{CL}*%
X174085001Y-96920000D03*
%TO.P,D7,3,A*%
%TO.N,GND*%
X175035001Y-98795000D03*
%TD*%
D13*
%TO.P,C5,1*%
%TO.N,GND*%
X171835000Y-98445000D03*
%TO.P,C5,2*%
%TO.N,+3V3*%
X171835000Y-96895000D03*
%TD*%
D14*
%TO.P,SW3,1*%
%TO.N,/Buffer Block B/A0_{CL}*%
X187290000Y-61750000D03*
D15*
%TO.P,SW3,2*%
%TO.N,/Buffer Block B/A1_{CL}*%
X187290000Y-64290000D03*
%TO.P,SW3,3*%
%TO.N,/Buffer Block B/A2_{CL}*%
X187290000Y-66830000D03*
%TO.P,SW3,4*%
%TO.N,/Buffer Block B/A3_{CL}*%
X187290000Y-69370000D03*
%TO.P,SW3,5*%
%TO.N,Net-(RN2A-R1.1)*%
X194910000Y-69370000D03*
%TO.P,SW3,6*%
%TO.N,Net-(RN2B-R2.1)*%
X194910000Y-66830000D03*
%TO.P,SW3,7*%
%TO.N,Net-(RN2C-R3.1)*%
X194910000Y-64290000D03*
%TO.P,SW3,8*%
%TO.N,Net-(RN2D-R4.1)*%
X194910000Y-61750000D03*
%TD*%
D16*
%TO.P,D4,1,K*%
%TO.N,/Buffer Block A/A2_{CL}*%
X174185001Y-89170000D03*
%TO.P,D4,2,K*%
%TO.N,/Buffer Block A/A3_{CL}*%
X176085001Y-89170000D03*
%TO.P,D4,3,A*%
%TO.N,GND*%
X175135001Y-87295000D03*
%TD*%
%TO.P,D5,1,K*%
%TO.N,/Buffer Block B/A2_{CL}*%
X174140001Y-63000000D03*
%TO.P,D5,2,K*%
%TO.N,/Buffer Block B/A3_{CL}*%
X176040001Y-63000000D03*
%TO.P,D5,3,A*%
%TO.N,GND*%
X175090001Y-61125000D03*
%TD*%
D17*
%TO.P,J11,1,Pin_1*%
%TO.N,GND*%
X157500000Y-107500000D03*
%TD*%
D13*
%TO.P,C1,1*%
%TO.N,GND*%
X161375000Y-82075000D03*
%TO.P,C1,2*%
%TO.N,+3V3*%
X161375000Y-80525000D03*
%TD*%
D18*
%TO.P,C2,1*%
%TO.N,Net-(U1-CAP-)*%
X163575000Y-78950000D03*
%TO.P,C2,2*%
%TO.N,Net-(U1-CAP+)*%
X165125000Y-78950000D03*
%TD*%
D16*
%TO.P,D9,1,K*%
%TO.N,/Buffer Block C/A0_{CL}*%
X159350000Y-90750000D03*
%TO.P,D9,2,K*%
%TO.N,/Buffer Block C/A1_{CL}*%
X161250000Y-90750000D03*
%TO.P,D9,3,A*%
%TO.N,GND*%
X160300000Y-88875000D03*
%TD*%
D19*
%TO.P,RN5,1,R1.1*%
%TO.N,/Buffer Block B/A3_{CL}*%
X182040001Y-70500000D03*
D20*
%TO.P,RN5,2,R2.1*%
%TO.N,/Buffer Block B/A2_{CL}*%
X181540001Y-70500000D03*
%TO.P,RN5,3,R3.1*%
%TO.N,/Buffer Block B/A1_{CL}*%
X181040001Y-70500000D03*
D19*
%TO.P,RN5,4,R4.1*%
%TO.N,/Buffer Block B/A0_{CL}*%
X180540001Y-70500000D03*
%TO.P,RN5,5,R4.2*%
%TO.N,/Buffer Block B/A0*%
X180540001Y-71500000D03*
D20*
%TO.P,RN5,6,R3.2*%
%TO.N,/Buffer Block B/A1*%
X181040001Y-71500000D03*
%TO.P,RN5,7,rR2.2*%
%TO.N,/Buffer Block B/A2*%
X181540001Y-71500000D03*
D19*
%TO.P,RN5,8,R1.2*%
%TO.N,/Buffer Block B/A3*%
X182040001Y-71500000D03*
%TD*%
D21*
%TO.P,U1,1,V+*%
%TO.N,+3V3*%
X163125000Y-80550000D03*
%TO.P,U1,2,GND*%
%TO.N,GND*%
X163125000Y-81500000D03*
%TO.P,U1,3,CAP-*%
%TO.N,Net-(U1-CAP-)*%
X163125000Y-82450000D03*
%TO.P,U1,4,SD*%
%TO.N,GND*%
X165400000Y-82450000D03*
%TO.P,U1,5,OUT*%
%TO.N,/+6.6V*%
X165400000Y-81500000D03*
%TO.P,U1,6,CAP+*%
%TO.N,Net-(U1-CAP+)*%
X165400000Y-80550000D03*
%TD*%
D13*
%TO.P,C3,1*%
%TO.N,GND*%
X167125000Y-83075000D03*
%TO.P,C3,2*%
%TO.N,/+6.6V*%
X167125000Y-81525000D03*
%TD*%
D17*
%TO.P,J4,1,Pin_1*%
%TO.N,+3V3*%
X181540001Y-56975000D03*
D22*
%TO.P,J4,2,Pin_2*%
%TO.N,/Buffer Block B/VCCA_SEL*%
X184080001Y-56975000D03*
%TO.P,J4,3,Pin_3*%
%TO.N,/+1.8V_REG*%
X181540001Y-59515000D03*
%TO.P,J4,4,Pin_4*%
%TO.N,/Buffer Block B/VCCA_SEL*%
X184080001Y-59515000D03*
%TO.P,J4,5,Pin_5*%
%TO.N,/+5V_REG*%
X181540001Y-62055000D03*
%TO.P,J4,6,Pin_6*%
%TO.N,/Buffer Block B/VCCA_SEL*%
X184080001Y-62055000D03*
%TD*%
D23*
%TO.P,D1,1,K*%
%TO.N,/+1.8V_REG*%
X170375000Y-77000000D03*
%TO.P,D1,2,A*%
%TO.N,GND*%
X173675000Y-77000000D03*
%TD*%
D24*
%TO.P,U5,1,VCCA*%
%TO.N,/Buffer Block C/VCCA_SEL*%
X158000000Y-92600000D03*
%TO.P,U5,2,A1*%
%TO.N,/Buffer Block C/A0_{CL}*%
X158000000Y-93250000D03*
%TO.P,U5,3,A2*%
%TO.N,/Buffer Block C/A1_{CL}*%
X158000000Y-93900000D03*
%TO.P,U5,4,A3*%
%TO.N,/Buffer Block C/A2_{CL}*%
X158000000Y-94550000D03*
%TO.P,U5,5,A4*%
%TO.N,/Buffer Block C/A3_{CL}*%
X158000000Y-95200000D03*
%TO.P,U5,6,NC*%
%TO.N,unconnected-(U5-NC-Pad6)*%
X158000000Y-95850000D03*
%TO.P,U5,7,GND*%
%TO.N,GND*%
X158000000Y-96500000D03*
%TO.P,U5,8,OE*%
%TO.N,+3V3*%
X163725000Y-96500000D03*
%TO.P,U5,9,NC*%
%TO.N,unconnected-(U5-NC-Pad9)*%
X163725000Y-95850000D03*
%TO.P,U5,10,B4*%
%TO.N,/IO16*%
X163725000Y-95200000D03*
%TO.P,U5,11,B3*%
%TO.N,/IO17*%
X163725000Y-94550000D03*
%TO.P,U5,12,B2*%
%TO.N,/IO18*%
X163725000Y-93900000D03*
%TO.P,U5,13,B1*%
%TO.N,/IO19*%
X163725000Y-93250000D03*
%TO.P,U5,14,VCCB*%
%TO.N,+3V3*%
X163725000Y-92600000D03*
%TD*%
D25*
%TO.P,RN3,1,R1.1*%
%TO.N,Net-(RN3A-R1.1)*%
X147500000Y-103250000D03*
D26*
%TO.P,RN3,2,R2.1*%
%TO.N,Net-(RN3B-R2.1)*%
X147500000Y-103750000D03*
%TO.P,RN3,3,R3.1*%
%TO.N,Net-(RN3C-R3.1)*%
X147500000Y-104250000D03*
D25*
%TO.P,RN3,4,R4.1*%
%TO.N,Net-(RN3D-R4.1)*%
X147500000Y-104750000D03*
%TO.P,RN3,5,R4.2*%
%TO.N,/Buffer Block C/VCCA_SEL*%
X148500000Y-104750000D03*
D26*
%TO.P,RN3,6,R3.2*%
X148500000Y-104250000D03*
%TO.P,RN3,7,R2.2*%
X148500000Y-103750000D03*
D25*
%TO.P,RN3,8,R1.2*%
X148500000Y-103250000D03*
%TD*%
D12*
%TO.P,D6,1,K*%
%TO.N,/Buffer Block C/A2_{CL}*%
X161150000Y-98500000D03*
%TO.P,D6,2,K*%
%TO.N,/Buffer Block C/A3_{CL}*%
X159250000Y-98500000D03*
%TO.P,D6,3,A*%
%TO.N,GND*%
X160200000Y-100375000D03*
%TD*%
D27*
%TO.P,D2,1,K*%
%TO.N,/+6.6V*%
X165675000Y-77050000D03*
%TO.P,D2,2,A*%
%TO.N,+3V3*%
X162875000Y-77050000D03*
%TD*%
D25*
%TO.P,RN2,1,R1.1*%
%TO.N,Net-(RN2A-R1.1)*%
X187790000Y-58250000D03*
D26*
%TO.P,RN2,2,R2.1*%
%TO.N,Net-(RN2B-R2.1)*%
X187790000Y-57750000D03*
%TO.P,RN2,3,R3.1*%
%TO.N,Net-(RN2C-R3.1)*%
X187790000Y-57250000D03*
D25*
%TO.P,RN2,4,R4.1*%
%TO.N,Net-(RN2D-R4.1)*%
X187790000Y-56750000D03*
%TO.P,RN2,5,R4.2*%
%TO.N,/Buffer Block B/VCCA_SEL*%
X186790000Y-56750000D03*
D26*
%TO.P,RN2,6,R3.2*%
X186790000Y-57250000D03*
%TO.P,RN2,7,R2.2*%
X186790000Y-57750000D03*
D25*
%TO.P,RN2,8,R1.2*%
X186790000Y-58250000D03*
%TD*%
D28*
%TO.P,C8,1*%
%TO.N,GND*%
X157250000Y-89250000D03*
%TO.P,C8,2*%
%TO.N,/Buffer Block C/VCCA_SEL*%
X157250000Y-90800000D03*
%TD*%
D29*
%TO.P,R1,1*%
%TO.N,/+6.6V*%
X168125000Y-77300000D03*
%TO.P,R1,2*%
%TO.N,/+1.8V_REG*%
X169145000Y-77300000D03*
%TD*%
%TO.P,R3,1*%
%TO.N,/+6.6V*%
X169115000Y-79300000D03*
%TO.P,R3,2*%
%TO.N,/+5V_REG*%
X170135000Y-79300000D03*
%TD*%
D17*
%TO.P,J6,1,Pin_1*%
%TO.N,+3V3*%
X153750000Y-104525000D03*
D22*
%TO.P,J6,2,Pin_2*%
%TO.N,/Buffer Block C/VCCA_SEL*%
X151210000Y-104525000D03*
%TO.P,J6,3,Pin_3*%
%TO.N,/+1.8V_REG*%
X153750000Y-101985000D03*
%TO.P,J6,4,Pin_4*%
%TO.N,/Buffer Block C/VCCA_SEL*%
X151210000Y-101985000D03*
%TO.P,J6,5,Pin_5*%
%TO.N,/+5V_REG*%
X153750000Y-99445000D03*
%TO.P,J6,6,Pin_6*%
%TO.N,/Buffer Block C/VCCA_SEL*%
X151210000Y-99445000D03*
%TD*%
D12*
%TO.P,D8,1,K*%
%TO.N,/Buffer Block B/A0_{CL}*%
X175940001Y-70750000D03*
%TO.P,D8,2,K*%
%TO.N,/Buffer Block B/A1_{CL}*%
X174040001Y-70750000D03*
%TO.P,D8,3,A*%
%TO.N,GND*%
X174990001Y-72625000D03*
%TD*%
D17*
%TO.P,J1,1,Pin_1*%
%TO.N,/A2*%
X152125000Y-69225000D03*
D22*
%TO.P,J1,2,Pin_2*%
%TO.N,GND*%
X149585000Y-69225000D03*
%TO.P,J1,3,Pin_3*%
%TO.N,/A1*%
X152125000Y-71765000D03*
%TO.P,J1,4,Pin_4*%
%TO.N,GND*%
X149585000Y-71765000D03*
%TO.P,J1,5,Pin_5*%
%TO.N,/A0*%
X152125000Y-74305000D03*
%TO.P,J1,6,Pin_6*%
%TO.N,GND*%
X149585000Y-74305000D03*
%TD*%
D25*
%TO.P,RN1,1,R1.1*%
%TO.N,Net-(RN1A-R1.1)*%
X187835000Y-84420000D03*
D26*
%TO.P,RN1,2,R2.1*%
%TO.N,Net-(RN1B-R2.1)*%
X187835000Y-83920000D03*
%TO.P,RN1,3,R3.1*%
%TO.N,Net-(RN1C-R3.1)*%
X187835000Y-83420000D03*
D25*
%TO.P,RN1,4,R4.1*%
%TO.N,Net-(RN1D-R4.1)*%
X187835000Y-82920000D03*
%TO.P,RN1,5,R4.2*%
%TO.N,/Buffer Block A/VCCA_SEL*%
X186835000Y-82920000D03*
D26*
%TO.P,RN1,6,R3.2*%
X186835000Y-83420000D03*
%TO.P,RN1,7,R2.2*%
X186835000Y-83920000D03*
D25*
%TO.P,RN1,8,R1.2*%
X186835000Y-84420000D03*
%TD*%
D17*
%TO.P,J5,1,Pin_1*%
%TO.N,/Buffer Block B/A0*%
X183250000Y-79080000D03*
D22*
%TO.P,J5,2,Pin_2*%
%TO.N,/Buffer Block B/A1*%
X185790000Y-79080000D03*
%TO.P,J5,3,Pin_3*%
%TO.N,/Buffer Block B/A2*%
X183250000Y-76540000D03*
%TO.P,J5,4,Pin_4*%
%TO.N,/Buffer Block B/A3*%
X185790000Y-76540000D03*
%TO.P,J5,5,Pin_5*%
%TO.N,GND*%
X183250000Y-74000000D03*
%TO.P,J5,6,Pin_6*%
X185790000Y-74000000D03*
%TD*%
D30*
%TO.P,TP4,1,1*%
%TO.N,/+6.6V*%
X167375000Y-79300000D03*
%TD*%
D17*
%TO.P,J7,1,Pin_1*%
%TO.N,/Buffer Block C/A0*%
X152040000Y-82420000D03*
D22*
%TO.P,J7,2,Pin_2*%
%TO.N,/Buffer Block C/A1*%
X149500000Y-82420000D03*
%TO.P,J7,3,Pin_3*%
%TO.N,/Buffer Block C/A2*%
X152040000Y-84960000D03*
%TO.P,J7,4,Pin_4*%
%TO.N,/Buffer Block C/A3*%
X149500000Y-84960000D03*
%TO.P,J7,5,Pin_5*%
%TO.N,GND*%
X152040000Y-87500000D03*
%TO.P,J7,6,Pin_6*%
X149500000Y-87500000D03*
%TD*%
D14*
%TO.P,SW4,1*%
%TO.N,/Buffer Block C/A0_{CL}*%
X148000000Y-99750000D03*
D15*
%TO.P,SW4,2*%
%TO.N,/Buffer Block C/A1_{CL}*%
X148000000Y-97210000D03*
%TO.P,SW4,3*%
%TO.N,/Buffer Block C/A2_{CL}*%
X148000000Y-94670000D03*
%TO.P,SW4,4*%
%TO.N,/Buffer Block C/A3_{CL}*%
X148000000Y-92130000D03*
%TO.P,SW4,5*%
%TO.N,Net-(RN3A-R1.1)*%
X140380000Y-92130000D03*
%TO.P,SW4,6*%
%TO.N,Net-(RN3B-R2.1)*%
X140380000Y-94670000D03*
%TO.P,SW4,7*%
%TO.N,Net-(RN3C-R3.1)*%
X140380000Y-97210000D03*
%TO.P,SW4,8*%
%TO.N,Net-(RN3D-R4.1)*%
X140380000Y-99750000D03*
%TD*%
D13*
%TO.P,C7,1*%
%TO.N,GND*%
X171790000Y-72275000D03*
%TO.P,C7,2*%
%TO.N,+3V3*%
X171790000Y-70725000D03*
%TD*%
D14*
%TO.P,SW2,1*%
%TO.N,/Buffer Block A/A0_{CL}*%
X187335000Y-87920000D03*
D15*
%TO.P,SW2,2*%
%TO.N,/Buffer Block A/A1_{CL}*%
X187335000Y-90460000D03*
%TO.P,SW2,3*%
%TO.N,/Buffer Block A/A2_{CL}*%
X187335000Y-93000000D03*
%TO.P,SW2,4*%
%TO.N,/Buffer Block A/A3_{CL}*%
X187335000Y-95540000D03*
%TO.P,SW2,5*%
%TO.N,Net-(RN1A-R1.1)*%
X194955000Y-95540000D03*
%TO.P,SW2,6*%
%TO.N,Net-(RN1B-R2.1)*%
X194955000Y-93000000D03*
%TO.P,SW2,7*%
%TO.N,Net-(RN1C-R3.1)*%
X194955000Y-90460000D03*
%TO.P,SW2,8*%
%TO.N,Net-(RN1D-R4.1)*%
X194955000Y-87920000D03*
%TD*%
D13*
%TO.P,C6,1*%
%TO.N,GND*%
X178040001Y-72250000D03*
%TO.P,C6,2*%
%TO.N,/Buffer Block B/VCCA_SEL*%
X178040001Y-70700000D03*
%TD*%
D19*
%TO.P,RN4,1,R1.1*%
%TO.N,/Buffer Block A/A3_{CL}*%
X182085001Y-96670000D03*
D20*
%TO.P,RN4,2,R2.1*%
%TO.N,/Buffer Block A/A2_{CL}*%
X181585001Y-96670000D03*
%TO.P,RN4,3,R3.1*%
%TO.N,/Buffer Block A/A1_{CL}*%
X181085001Y-96670000D03*
D19*
%TO.P,RN4,4,R4.1*%
%TO.N,/Buffer Block A/A0_{CL}*%
X180585001Y-96670000D03*
%TO.P,RN4,5,R4.2*%
%TO.N,/Buffer Block A/A0*%
X180585001Y-97670000D03*
D20*
%TO.P,RN4,6,R3.2*%
%TO.N,/Buffer Block A/A1*%
X181085001Y-97670000D03*
%TO.P,RN4,7,rR2.2*%
%TO.N,/Buffer Block A/A2*%
X181585001Y-97670000D03*
D19*
%TO.P,RN4,8,R1.2*%
%TO.N,/Buffer Block A/A3*%
X182085001Y-97670000D03*
%TD*%
%TO.P,RN6,1,R1.1*%
%TO.N,/Buffer Block C/A3_{CL}*%
X153250000Y-91000000D03*
D20*
%TO.P,RN6,2,R2.1*%
%TO.N,/Buffer Block C/A2_{CL}*%
X153750000Y-91000000D03*
%TO.P,RN6,3,R3.1*%
%TO.N,/Buffer Block C/A1_{CL}*%
X154250000Y-91000000D03*
D19*
%TO.P,RN6,4,R4.1*%
%TO.N,/Buffer Block C/A0_{CL}*%
X154750000Y-91000000D03*
%TO.P,RN6,5,R4.2*%
%TO.N,/Buffer Block C/A0*%
X154750000Y-90000000D03*
D20*
%TO.P,RN6,6,R3.2*%
%TO.N,/Buffer Block C/A1*%
X154250000Y-90000000D03*
%TO.P,RN6,7,rR2.2*%
%TO.N,/Buffer Block C/A2*%
X153750000Y-90000000D03*
D19*
%TO.P,RN6,8,R1.2*%
%TO.N,/Buffer Block C/A3*%
X153250000Y-90000000D03*
%TD*%
D17*
%TO.P,J2,1,Pin_1*%
%TO.N,+3V3*%
X181585001Y-83145000D03*
D22*
%TO.P,J2,2,Pin_2*%
%TO.N,/Buffer Block A/VCCA_SEL*%
X184125001Y-83145000D03*
%TO.P,J2,3,Pin_3*%
%TO.N,/+1.8V_REG*%
X181585001Y-85685000D03*
%TO.P,J2,4,Pin_4*%
%TO.N,/Buffer Block A/VCCA_SEL*%
X184125001Y-85685000D03*
%TO.P,J2,5,Pin_5*%
%TO.N,/+5V_REG*%
X181585001Y-88225000D03*
%TO.P,J2,6,Pin_6*%
%TO.N,/Buffer Block A/VCCA_SEL*%
X184125001Y-88225000D03*
%TD*%
D31*
%TO.P,U2,1,K*%
%TO.N,/+5V_REG*%
X171625000Y-79300000D03*
%TO.P,U2,2,A*%
%TO.N,GND*%
X171625000Y-81200000D03*
%TO.P,U2,3,NC*%
%TO.N,unconnected-(U2-NC-Pad3)*%
X173500000Y-80250000D03*
%TD*%
D32*
%TO.P,SW1,1,1*%
%TO.N,Net-(A2-RUN)*%
X155125000Y-78250000D03*
%TO.P,SW1,2,2*%
%TO.N,GND*%
X147375000Y-78250000D03*
%TD*%
D28*
%TO.P,C9,1*%
%TO.N,GND*%
X163500000Y-89225000D03*
%TO.P,C9,2*%
%TO.N,+3V3*%
X163500000Y-90775000D03*
%TD*%
D33*
%TO.P,U4,1,VCCA*%
%TO.N,/Buffer Block B/VCCA_SEL*%
X177290001Y-68900000D03*
%TO.P,U4,2,A1*%
%TO.N,/Buffer Block B/A0_{CL}*%
X177290001Y-68250000D03*
%TO.P,U4,3,A2*%
%TO.N,/Buffer Block B/A1_{CL}*%
X177290001Y-67600000D03*
%TO.P,U4,4,A3*%
%TO.N,/Buffer Block B/A2_{CL}*%
X177290001Y-66950000D03*
%TO.P,U4,5,A4*%
%TO.N,/Buffer Block B/A3_{CL}*%
X177290001Y-66300000D03*
%TO.P,U4,6,NC*%
%TO.N,unconnected-(U4-NC-Pad6)*%
X177290001Y-65650000D03*
%TO.P,U4,7,GND*%
%TO.N,GND*%
X177290001Y-65000000D03*
%TO.P,U4,8,OE*%
%TO.N,+3V3*%
X171565001Y-65000000D03*
%TO.P,U4,9,NC*%
%TO.N,unconnected-(U4-NC-Pad9)*%
X171565001Y-65650000D03*
%TO.P,U4,10,B4*%
%TO.N,/IO02*%
X171565001Y-66300000D03*
%TO.P,U4,11,B3*%
%TO.N,/IO03*%
X171565001Y-66950000D03*
%TO.P,U4,12,B2*%
%TO.N,/IO04*%
X171565001Y-67600000D03*
%TO.P,U4,13,B1*%
%TO.N,/IO05*%
X171565001Y-68250000D03*
%TO.P,U4,14,VCCB*%
%TO.N,+3V3*%
X171565001Y-68900000D03*
%TD*%
%TO.P,U3,1,VCCA*%
%TO.N,/Buffer Block A/VCCA_SEL*%
X177335001Y-95070000D03*
%TO.P,U3,2,A1*%
%TO.N,/Buffer Block A/A0_{CL}*%
X177335001Y-94420000D03*
%TO.P,U3,3,A2*%
%TO.N,/Buffer Block A/A1_{CL}*%
X177335001Y-93770000D03*
%TO.P,U3,4,A3*%
%TO.N,/Buffer Block A/A2_{CL}*%
X177335001Y-93120000D03*
%TO.P,U3,5,A4*%
%TO.N,/Buffer Block A/A3_{CL}*%
X177335001Y-92470000D03*
%TO.P,U3,6,NC*%
%TO.N,unconnected-(U3-NC-Pad6)*%
X177335001Y-91820000D03*
%TO.P,U3,7,GND*%
%TO.N,GND*%
X177335001Y-91170000D03*
%TO.P,U3,8,OE*%
%TO.N,+3V3*%
X171610001Y-91170000D03*
%TO.P,U3,9,NC*%
%TO.N,unconnected-(U3-NC-Pad9)*%
X171610001Y-91820000D03*
%TO.P,U3,10,B4*%
%TO.N,/IO12*%
X171610001Y-92470000D03*
%TO.P,U3,11,B3*%
%TO.N,/IO13*%
X171610001Y-93120000D03*
%TO.P,U3,12,B2*%
%TO.N,/IO14*%
X171610001Y-93770000D03*
%TO.P,U3,13,B1*%
%TO.N,/IO15*%
X171610001Y-94420000D03*
%TO.P,U3,14,VCCB*%
%TO.N,+3V3*%
X171610001Y-95070000D03*
%TD*%
D17*
%TO.P,J3,1,Pin_1*%
%TO.N,/Buffer Block A/A0*%
X183295000Y-105250000D03*
D22*
%TO.P,J3,2,Pin_2*%
%TO.N,/Buffer Block A/A1*%
X185835000Y-105250000D03*
%TO.P,J3,3,Pin_3*%
%TO.N,/Buffer Block A/A2*%
X183295000Y-102710000D03*
%TO.P,J3,4,Pin_4*%
%TO.N,/Buffer Block A/A3*%
X185835000Y-102710000D03*
%TO.P,J3,5,Pin_5*%
%TO.N,GND*%
X183295000Y-100170000D03*
%TO.P,J3,6,Pin_6*%
X185835000Y-100170000D03*
%TD*%
D13*
%TO.P,C4,1*%
%TO.N,GND*%
X178085001Y-98420000D03*
%TO.P,C4,2*%
%TO.N,/Buffer Block A/VCCA_SEL*%
X178085001Y-96870000D03*
%TD*%
D34*
%TO.N,/Buffer Block B/VCCA_SEL*%
X179290000Y-70750000D03*
%TO.N,/Buffer Block A/VCCA_SEL*%
X179335000Y-96920000D03*
%TO.N,/Buffer Block C/VCCA_SEL*%
X156000000Y-90750000D03*
%TO.N,/Buffer Block A/A2_{CL}*%
X180859263Y-94845734D03*
%TO.N,/Buffer Block B/A2_{CL}*%
X180814263Y-68675734D03*
%TO.N,/Buffer Block C/A2_{CL}*%
X154475737Y-92824266D03*
%TO.N,/Buffer Block A/A1_{CL}*%
X180835000Y-95670000D03*
%TO.N,/Buffer Block A/A0_{CL}*%
X180067694Y-95896375D03*
%TO.N,/Buffer Block B/A1_{CL}*%
X180790000Y-69500000D03*
%TO.N,/Buffer Block B/A0_{CL}*%
X180011347Y-69715028D03*
%TO.N,/Buffer Block C/A0_{CL}*%
X155267306Y-91773625D03*
%TO.N,/Buffer Block C/A1_{CL}*%
X154500000Y-92000000D03*
%TO.N,Net-(A2-RUN)*%
X155250000Y-79500000D03*
%TO.N,/IO18*%
X162750000Y-93750000D03*
%TO.N,/IO17*%
X162250000Y-95000000D03*
%TO.N,/IO04*%
X173500000Y-67500000D03*
%TO.N,/IO15*%
X173250000Y-94500000D03*
%TO.N,/IO13*%
X173250000Y-93000000D03*
%TO.N,/IO12*%
X173250000Y-92199997D03*
%TO.N,/IO03*%
X173500000Y-66500000D03*
%TO.N,/IO05*%
X173250000Y-68500000D03*
%TO.N,/IO02*%
X173250000Y-65500000D03*
%TO.N,/IO14*%
X173750000Y-93750000D03*
%TD*%
D35*
%TO.N,Net-(U1-CAP-)*%
X164237500Y-79612500D02*
X163575000Y-78950000D01*
X164237500Y-81999999D02*
X164237500Y-79612500D01*
X163787499Y-82450000D02*
X164237500Y-81999999D01*
X163125000Y-82450000D02*
X163787499Y-82450000D01*
%TO.N,Net-(U1-CAP+)*%
X165125000Y-78950000D02*
X165125000Y-80275000D01*
X165125000Y-80275000D02*
X165400000Y-80550000D01*
D36*
%TO.N,/Buffer Block B/VCCA_SEL*%
X179240000Y-70700000D02*
X179290000Y-70750000D01*
X178040000Y-70700000D02*
X179240000Y-70700000D01*
X178040000Y-70700000D02*
X178040000Y-69650000D01*
X178040000Y-69650000D02*
X177290000Y-68900000D01*
D37*
%TO.N,/Buffer Block B/A0*%
X180540000Y-77650000D02*
X181970000Y-79080000D01*
X181970000Y-79080000D02*
X183250000Y-79080000D01*
X180540000Y-71500000D02*
X180540000Y-77650000D01*
D35*
%TO.N,GND*%
X161950000Y-81500000D02*
X161375000Y-82075000D01*
X163125000Y-81500000D02*
X161950000Y-81500000D01*
D37*
%TO.N,/Buffer Block B/A3*%
X182040000Y-74750000D02*
X182680000Y-75390000D01*
X184640000Y-75390000D02*
X185790000Y-76540000D01*
X182040000Y-71500000D02*
X182040000Y-74750000D01*
X182680000Y-75390000D02*
X184640000Y-75390000D01*
%TO.N,/Buffer Block B/A1*%
X181040000Y-76950000D02*
X182020000Y-77930000D01*
X182020000Y-77930000D02*
X184640000Y-77930000D01*
X181040000Y-71500000D02*
X181040000Y-76950000D01*
X184640000Y-77930000D02*
X185790000Y-79080000D01*
%TO.N,/Buffer Block B/A2*%
X181540000Y-75650000D02*
X182430000Y-76540000D01*
X182430000Y-76540000D02*
X183250000Y-76540000D01*
X181540000Y-71500000D02*
X181540000Y-75650000D01*
D35*
%TO.N,/+6.6V*%
X165400000Y-81500000D02*
X167100000Y-81500000D01*
D36*
%TO.N,/Buffer Block A/VCCA_SEL*%
X179285000Y-96870000D02*
X179335000Y-96920000D01*
X178085000Y-96870000D02*
X179285000Y-96870000D01*
X178085000Y-95820000D02*
X177335000Y-95070000D01*
X178085000Y-96870000D02*
X178085000Y-95820000D01*
D35*
%TO.N,/+1.8V_REG*%
X169145000Y-77300000D02*
X170075000Y-77300000D01*
X170075000Y-77300000D02*
X170375000Y-77000000D01*
D37*
%TO.N,/Buffer Block A/A1*%
X184685000Y-104100000D02*
X185835000Y-105250000D01*
X181085000Y-103120000D02*
X182065000Y-104100000D01*
X181085000Y-97670000D02*
X181085000Y-103120000D01*
X182065000Y-104100000D02*
X184685000Y-104100000D01*
%TO.N,/Buffer Block A/A0*%
X180585000Y-97670000D02*
X180585000Y-103820000D01*
X180585000Y-103820000D02*
X182015000Y-105250000D01*
X182015000Y-105250000D02*
X183295000Y-105250000D01*
%TO.N,/Buffer Block A/A2*%
X182475000Y-102710000D02*
X183295000Y-102710000D01*
X181585000Y-97670000D02*
X181585000Y-101820000D01*
X181585000Y-101820000D02*
X182475000Y-102710000D01*
%TO.N,/Buffer Block A/A3*%
X184685000Y-101560000D02*
X185835000Y-102710000D01*
X182085000Y-97670000D02*
X182085000Y-100920000D01*
X182725000Y-101560000D02*
X184685000Y-101560000D01*
X182085000Y-100920000D02*
X182725000Y-101560000D01*
D35*
%TO.N,/+5V_REG*%
X170135000Y-79300000D02*
X171625000Y-79300000D01*
D36*
%TO.N,/Buffer Block C/VCCA_SEL*%
X157250000Y-90800000D02*
X157250000Y-91850000D01*
X157250000Y-91850000D02*
X158000000Y-92600000D01*
X157250000Y-90800000D02*
X156050000Y-90800000D01*
X156050000Y-90800000D02*
X156000000Y-90750000D01*
D37*
%TO.N,/Buffer Block C/A3*%
X152610000Y-86110000D02*
X150650000Y-86110000D01*
X150650000Y-86110000D02*
X149500000Y-84960000D01*
X153250000Y-90000000D02*
X153250000Y-86750000D01*
X153250000Y-86750000D02*
X152610000Y-86110000D01*
%TO.N,/Buffer Block C/A0*%
X154750000Y-90000000D02*
X154750000Y-83850000D01*
X154750000Y-83850000D02*
X153320000Y-82420000D01*
X153320000Y-82420000D02*
X152040000Y-82420000D01*
%TO.N,/Buffer Block C/A1*%
X154250000Y-90000000D02*
X154250000Y-84550000D01*
X154250000Y-84550000D02*
X153270000Y-83570000D01*
X153270000Y-83570000D02*
X150650000Y-83570000D01*
X150650000Y-83570000D02*
X149500000Y-82420000D01*
%TO.N,/Buffer Block C/A2*%
X152860000Y-84960000D02*
X152040000Y-84960000D01*
X153750000Y-90000000D02*
X153750000Y-85850000D01*
X153750000Y-85850000D02*
X152860000Y-84960000D01*
%TO.N,Net-(RN1B-R2.1)*%
X194955000Y-93000000D02*
X193335000Y-91380000D01*
X188385000Y-83920000D02*
X187835000Y-83920000D01*
X193335000Y-91380000D02*
X193335000Y-88870000D01*
X193335000Y-88870000D02*
X188385000Y-83920000D01*
%TO.N,Net-(RN1D-R4.1)*%
X188585000Y-82920000D02*
X187835000Y-82920000D01*
X193585000Y-87920000D02*
X188585000Y-82920000D01*
X194955000Y-87920000D02*
X193585000Y-87920000D01*
%TO.N,Net-(RN1C-R3.1)*%
X188450686Y-83420000D02*
X194955000Y-89924314D01*
X187835000Y-83420000D02*
X188450686Y-83420000D01*
%TO.N,Net-(RN1A-R1.1)*%
X192585000Y-89170000D02*
X192585000Y-93170000D01*
X187835000Y-84420000D02*
X192585000Y-89170000D01*
X192585000Y-93170000D02*
X194955000Y-95540000D01*
%TO.N,Net-(RN2C-R3.1)*%
X188405686Y-57250000D02*
X194910000Y-63754314D01*
X187790000Y-57250000D02*
X188405686Y-57250000D01*
%TO.N,Net-(RN2A-R1.1)*%
X192540000Y-63000000D02*
X192540000Y-67000000D01*
X192540000Y-67000000D02*
X194910000Y-69370000D01*
X187790000Y-58250000D02*
X192540000Y-63000000D01*
%TO.N,Net-(RN2B-R2.1)*%
X193290000Y-62700000D02*
X188340000Y-57750000D01*
X188340000Y-57750000D02*
X187790000Y-57750000D01*
X193290000Y-65210000D02*
X193290000Y-62700000D01*
X194910000Y-66830000D02*
X193290000Y-65210000D01*
%TO.N,Net-(RN2D-R4.1)*%
X194910000Y-61750000D02*
X193540000Y-61750000D01*
X188540000Y-56750000D02*
X187790000Y-56750000D01*
X193540000Y-61750000D02*
X188540000Y-56750000D01*
%TO.N,Net-(RN3B-R2.1)*%
X146950000Y-103750000D02*
X147500000Y-103750000D01*
X142000000Y-98800000D02*
X146950000Y-103750000D01*
X142000000Y-96290000D02*
X142000000Y-98800000D01*
X140380000Y-94670000D02*
X142000000Y-96290000D01*
%TO.N,Net-(RN3D-R4.1)*%
X140380000Y-99750000D02*
X141750000Y-99750000D01*
X146750000Y-104750000D02*
X147500000Y-104750000D01*
X141750000Y-99750000D02*
X146750000Y-104750000D01*
%TO.N,Net-(RN3C-R3.1)*%
X146884314Y-104250000D02*
X140380000Y-97745686D01*
X147500000Y-104250000D02*
X146884314Y-104250000D01*
%TO.N,Net-(RN3A-R1.1)*%
X142750000Y-94500000D02*
X140380000Y-92130000D01*
X142750000Y-98500000D02*
X142750000Y-94500000D01*
X147500000Y-103250000D02*
X142750000Y-98500000D01*
%TO.N,/Buffer Block A/A3_{CL}*%
X186205000Y-96670000D02*
X187335000Y-95540000D01*
X182085000Y-95222942D02*
X179332058Y-92470000D01*
X177335000Y-92470000D02*
X176597501Y-92470000D01*
X182085000Y-96670000D02*
X182085000Y-95222942D01*
X179332058Y-92470000D02*
X177335000Y-92470000D01*
X176597501Y-92470000D02*
X176085000Y-91957499D01*
X182085000Y-96670000D02*
X186205000Y-96670000D01*
X176085000Y-91957499D02*
X176085000Y-89170000D01*
%TO.N,/Buffer Block A/A2_{CL}*%
X179133529Y-93120000D02*
X177335000Y-93120000D01*
X176679044Y-93120000D02*
X174185000Y-90625956D01*
X174185000Y-90625956D02*
X174185000Y-89170000D01*
X180859263Y-94845734D02*
X179133529Y-93120000D01*
X177335000Y-93120000D02*
X176679044Y-93120000D01*
X181585000Y-96670000D02*
X181585000Y-95571471D01*
X181585000Y-95571471D02*
X180859263Y-94845734D01*
%TO.N,/Buffer Block B/A2_{CL}*%
X179088529Y-66950000D02*
X177290000Y-66950000D01*
X180814263Y-68675734D02*
X179088529Y-66950000D01*
X174140000Y-64455956D02*
X174140000Y-63000000D01*
X177290000Y-66950000D02*
X176634044Y-66950000D01*
X181540000Y-70500000D02*
X181540000Y-69401471D01*
X176634044Y-66950000D02*
X174140000Y-64455956D01*
X181540000Y-69401471D02*
X180814263Y-68675734D01*
%TO.N,/Buffer Block B/A3_{CL}*%
X176552501Y-66300000D02*
X176040000Y-65787499D01*
X182040000Y-70500000D02*
X186160000Y-70500000D01*
X182040000Y-70500000D02*
X182040000Y-69052942D01*
X176040000Y-65787499D02*
X176040000Y-63000000D01*
X182040000Y-69052942D02*
X179287058Y-66300000D01*
X179287058Y-66300000D02*
X177290000Y-66300000D01*
X177290000Y-66300000D02*
X176552501Y-66300000D01*
X186160000Y-70500000D02*
X187290000Y-69370000D01*
%TO.N,/Buffer Block C/A3_{CL}*%
X153250000Y-92447058D02*
X156002942Y-95200000D01*
X158000000Y-95200000D02*
X158737499Y-95200000D01*
X149130000Y-91000000D02*
X148000000Y-92130000D01*
X158737499Y-95200000D02*
X159250000Y-95712501D01*
X153250000Y-91000000D02*
X149130000Y-91000000D01*
X153250000Y-91000000D02*
X153250000Y-92447058D01*
X159250000Y-95712501D02*
X159250000Y-98500000D01*
X156002942Y-95200000D02*
X158000000Y-95200000D01*
%TO.N,/Buffer Block C/A2_{CL}*%
X154475737Y-92824266D02*
X153750000Y-92098529D01*
X154475737Y-92824266D02*
X156201471Y-94550000D01*
X156201471Y-94550000D02*
X158000000Y-94550000D01*
X161150000Y-97044044D02*
X161150000Y-98500000D01*
X153750000Y-92098529D02*
X153750000Y-91000000D01*
X158000000Y-94550000D02*
X158655956Y-94550000D01*
X158655956Y-94550000D02*
X161150000Y-97044044D01*
%TO.N,/Buffer Block A/A1_{CL}*%
X181085000Y-95920000D02*
X180835000Y-95670000D01*
X177335000Y-93770000D02*
X176597501Y-93770000D01*
X176597501Y-93770000D02*
X174085000Y-96282501D01*
X181085000Y-96670000D02*
X181085000Y-95920000D01*
X180835000Y-95670000D02*
X178935000Y-93770000D01*
X178935000Y-93770000D02*
X177335000Y-93770000D01*
%TO.N,/Buffer Block A/A0_{CL}*%
X180067694Y-95896375D02*
X180585000Y-96413681D01*
X175985000Y-95032501D02*
X175985000Y-96920000D01*
X178591319Y-94420000D02*
X177335000Y-94420000D01*
X180585000Y-96413681D02*
X178591319Y-94420000D01*
X177335000Y-94420000D02*
X176597501Y-94420000D01*
X180585000Y-96413681D02*
X180585000Y-96670000D01*
X176597501Y-94420000D02*
X175985000Y-95032501D01*
%TO.N,/Buffer Block B/A1_{CL}*%
X176552501Y-67600000D02*
X174040000Y-70112501D01*
X178890000Y-67600000D02*
X176552501Y-67600000D01*
X180790000Y-69500000D02*
X178890000Y-67600000D01*
X181040000Y-70500000D02*
X181040000Y-69750000D01*
X181040000Y-69750000D02*
X180790000Y-69500000D01*
%TO.N,/Buffer Block B/A0_{CL}*%
X180011347Y-69715028D02*
X180540000Y-70243681D01*
X180540000Y-70162632D02*
X178627368Y-68250000D01*
X176552501Y-68250000D02*
X175940000Y-68862501D01*
X175940000Y-68862501D02*
X175940000Y-70750000D01*
X180540000Y-70243681D02*
X180540000Y-70500000D01*
X180011347Y-69715028D02*
X178546319Y-68250000D01*
X178627368Y-68250000D02*
X177290000Y-68250000D01*
X180540000Y-70500000D02*
X180540000Y-70162632D01*
X178546319Y-68250000D02*
X177290000Y-68250000D01*
X177290000Y-68250000D02*
X176552501Y-68250000D01*
%TO.N,/Buffer Block C/A0_{CL}*%
X155267306Y-91773625D02*
X156743681Y-93250000D01*
X158737499Y-93250000D02*
X159350000Y-92637499D01*
X155267306Y-91773625D02*
X154750000Y-91256319D01*
X156743681Y-93250000D02*
X158000000Y-93250000D01*
X158000000Y-93250000D02*
X158737499Y-93250000D01*
X154750000Y-91256319D02*
X154750000Y-91000000D01*
X159350000Y-92637499D02*
X159350000Y-90750000D01*
%TO.N,/Buffer Block C/A1_{CL}*%
X156400000Y-93900000D02*
X158000000Y-93900000D01*
X158000000Y-93900000D02*
X158737499Y-93900000D01*
X158737499Y-93900000D02*
X161250000Y-91387499D01*
X154500000Y-92000000D02*
X156400000Y-93900000D01*
X154250000Y-91750000D02*
X154250000Y-91000000D01*
X154500000Y-92000000D02*
X154250000Y-91750000D01*
%TO.N,Net-(A2-RUN)*%
X155125000Y-78250000D02*
X155125000Y-79375000D01*
X155125000Y-79375000D02*
X155250000Y-79500000D01*
%TO.N,/IO18*%
X162900000Y-93900000D02*
X162750000Y-93750000D01*
X164225000Y-93900000D02*
X162900000Y-93900000D01*
%TO.N,/IO17*%
X164225000Y-94550000D02*
X162700000Y-94550000D01*
X162700000Y-94550000D02*
X162250000Y-95000000D01*
%TO.N,/IO04*%
X171565001Y-67600000D02*
X173400000Y-67600000D01*
X173400000Y-67600000D02*
X173500000Y-67500000D01*
%TO.N,/IO15*%
X173170000Y-94420000D02*
X173250000Y-94500000D01*
X171610001Y-94420000D02*
X173170000Y-94420000D01*
%TO.N,/IO13*%
X173130000Y-93120000D02*
X173250000Y-93000000D01*
X171610001Y-93120000D02*
X173130000Y-93120000D01*
%TO.N,/IO12*%
X172567500Y-92250000D02*
X173199997Y-92250000D01*
X172347500Y-92470000D02*
X172567500Y-92250000D01*
X173199997Y-92250000D02*
X173250000Y-92199997D01*
X171610001Y-92470000D02*
X172347500Y-92470000D01*
%TO.N,/IO03*%
X173050000Y-66950000D02*
X173500000Y-66500000D01*
X171565001Y-66950000D02*
X173050000Y-66950000D01*
%TO.N,/IO05*%
X173000000Y-68250000D02*
X173250000Y-68500000D01*
X171565001Y-68250000D02*
X173000000Y-68250000D01*
%TO.N,/IO02*%
X172450000Y-66300000D02*
X173250000Y-65500000D01*
X171565001Y-66300000D02*
X172450000Y-66300000D01*
%TO.N,/IO14*%
X173730000Y-93770000D02*
X173750000Y-93750000D01*
X171610001Y-93770000D02*
X173730000Y-93770000D01*
%TD*%
%TA.AperFunction,Conductor*%
%TO.N,/+6.6V*%
G36*
X166519089Y-76006363D02*
G01*
X168385065Y-76628355D01*
X168442439Y-76668228D01*
X168469147Y-76732792D01*
X168456711Y-76801546D01*
X168452585Y-76809110D01*
X168422132Y-76860604D01*
X168422129Y-76860611D01*
X168377335Y-77014791D01*
X168377334Y-77014797D01*
X168374500Y-77050811D01*
X168374500Y-77549169D01*
X168374501Y-77549191D01*
X168377335Y-77585205D01*
X168422129Y-77739388D01*
X168422131Y-77739393D01*
X168503863Y-77877595D01*
X168503869Y-77877603D01*
X168617396Y-77991130D01*
X168617400Y-77991133D01*
X168617402Y-77991135D01*
X168755607Y-78072869D01*
X168796268Y-78084682D01*
X168909791Y-78117664D01*
X168909794Y-78117664D01*
X168909796Y-78117665D01*
X168945819Y-78120500D01*
X168965871Y-78120499D01*
X169032909Y-78140181D01*
X169065074Y-78170099D01*
X169437760Y-78667014D01*
X169462236Y-78732454D01*
X169447446Y-78800740D01*
X169445293Y-78804531D01*
X169412132Y-78860604D01*
X169412129Y-78860611D01*
X169367335Y-79014791D01*
X169367334Y-79014797D01*
X169364500Y-79050811D01*
X169364500Y-79549169D01*
X169364501Y-79549191D01*
X169367335Y-79585205D01*
X169412129Y-79739388D01*
X169412131Y-79739393D01*
X169482732Y-79858773D01*
X169500000Y-79921894D01*
X169500000Y-79965654D01*
X169482329Y-80029451D01*
X169321541Y-80297432D01*
X168100839Y-82331934D01*
X168049468Y-82379292D01*
X167980648Y-82391359D01*
X167916230Y-82364303D01*
X167906829Y-82355817D01*
X167828044Y-82277032D01*
X167828040Y-82277029D01*
X167683705Y-82188001D01*
X167683699Y-82187998D01*
X167683697Y-82187997D01*
X167683694Y-82187996D01*
X167522709Y-82134651D01*
X167423346Y-82124500D01*
X166826662Y-82124500D01*
X166826644Y-82124501D01*
X166727292Y-82134650D01*
X166727285Y-82134652D01*
X166680313Y-82150217D01*
X166610484Y-82152618D01*
X166550443Y-82116886D01*
X166522234Y-82067105D01*
X166514244Y-82039602D01*
X166430581Y-81898135D01*
X166430579Y-81898133D01*
X166430576Y-81898129D01*
X166314370Y-81781923D01*
X166314362Y-81781917D01*
X166172896Y-81698255D01*
X166172893Y-81698254D01*
X166015073Y-81652402D01*
X166015067Y-81652401D01*
X165978201Y-81649500D01*
X165978194Y-81649500D01*
X165112000Y-81649500D01*
X165044961Y-81629815D01*
X164999206Y-81577011D01*
X164988000Y-81525500D01*
X164988000Y-81474500D01*
X165007685Y-81407461D01*
X165060489Y-81361706D01*
X165112000Y-81350500D01*
X165978186Y-81350500D01*
X165978194Y-81350500D01*
X166015069Y-81347598D01*
X166015071Y-81347597D01*
X166015073Y-81347597D01*
X166056691Y-81335505D01*
X166172898Y-81301744D01*
X166314365Y-81218081D01*
X166430581Y-81101865D01*
X166514244Y-80960398D01*
X166560098Y-80802569D01*
X166563000Y-80765694D01*
X166563000Y-80334306D01*
X166560098Y-80297431D01*
X166514244Y-80139602D01*
X166430581Y-79998135D01*
X166430579Y-79998133D01*
X166430576Y-79998129D01*
X166314368Y-79881921D01*
X166314362Y-79881916D01*
X166310875Y-79879854D01*
X166308701Y-79877525D01*
X166308204Y-79877140D01*
X166308266Y-79877059D01*
X166263193Y-79828783D01*
X166250000Y-79773125D01*
X166250000Y-79750001D01*
X166250000Y-79750000D01*
X166066286Y-79535667D01*
X166037604Y-79471959D01*
X166042728Y-79415973D01*
X166065349Y-79347708D01*
X166075500Y-79248345D01*
X166075499Y-78651656D01*
X166065349Y-78552292D01*
X166012003Y-78391303D01*
X166011999Y-78391297D01*
X166011998Y-78391294D01*
X165922970Y-78246959D01*
X165922967Y-78246955D01*
X165803044Y-78127032D01*
X165803040Y-78127029D01*
X165658705Y-78038001D01*
X165658699Y-78037998D01*
X165658697Y-78037997D01*
X165517261Y-77991130D01*
X165497709Y-77984651D01*
X165398352Y-77974500D01*
X164874000Y-77974500D01*
X164806961Y-77954815D01*
X164761206Y-77902011D01*
X164750000Y-77850500D01*
X164750000Y-76124000D01*
X164769685Y-76056961D01*
X164822489Y-76011206D01*
X164874000Y-76000000D01*
X166479877Y-76000000D01*
X166519089Y-76006363D01*
G37*
%TD.AperFunction*%
%TD*%
%TA.AperFunction,Conductor*%
%TO.N,/Buffer Block A/VCCA_SEL*%
G36*
X185357172Y-81928868D02*
G01*
X186585000Y-82420000D01*
X186984120Y-82420000D01*
X187051159Y-82439685D01*
X187096914Y-82492489D01*
X187106858Y-82561647D01*
X187100302Y-82587334D01*
X187090909Y-82612514D01*
X187090909Y-82612517D01*
X187084500Y-82672127D01*
X187084500Y-82672134D01*
X187084500Y-82672135D01*
X187084500Y-83167866D01*
X187084501Y-83167873D01*
X187085992Y-83181748D01*
X187085992Y-83208239D01*
X187084500Y-83222122D01*
X187084500Y-83617869D01*
X187084501Y-83617878D01*
X187088679Y-83656745D01*
X187088679Y-83683250D01*
X187084500Y-83722122D01*
X187084500Y-84117866D01*
X187084501Y-84117873D01*
X187085992Y-84131748D01*
X187085992Y-84158239D01*
X187084500Y-84172122D01*
X187084500Y-84667870D01*
X187084501Y-84667876D01*
X187090908Y-84727483D01*
X187141202Y-84862328D01*
X187141204Y-84862331D01*
X187175136Y-84907658D01*
X187199554Y-84973123D01*
X187184703Y-85041396D01*
X187157525Y-85075289D01*
X185335000Y-86669999D01*
X185335000Y-89296000D01*
X185315315Y-89363039D01*
X185262511Y-89408794D01*
X185211000Y-89420000D01*
X182959000Y-89420000D01*
X182891961Y-89400315D01*
X182846206Y-89347511D01*
X182835000Y-89296000D01*
X182835000Y-88767415D01*
X182846618Y-88715010D01*
X182858904Y-88688663D01*
X182920064Y-88460408D01*
X182940660Y-88225000D01*
X182920064Y-87989592D01*
X182858904Y-87761337D01*
X182846617Y-87734987D01*
X182835000Y-87682584D01*
X182835000Y-86227415D01*
X182846618Y-86175010D01*
X182858904Y-86148663D01*
X182920064Y-85920408D01*
X182940660Y-85685000D01*
X182920064Y-85449592D01*
X182858904Y-85221337D01*
X182846617Y-85194987D01*
X182835000Y-85142584D01*
X182835000Y-84337108D01*
X182854685Y-84270069D01*
X182859733Y-84262797D01*
X182878797Y-84237331D01*
X182929092Y-84102483D01*
X182935501Y-84042873D01*
X182935500Y-82247128D01*
X182929092Y-82187517D01*
X182891726Y-82087333D01*
X182886742Y-82017641D01*
X182920227Y-81956318D01*
X182981550Y-81922834D01*
X183007908Y-81920000D01*
X185311121Y-81920000D01*
X185357172Y-81928868D01*
G37*
%TD.AperFunction*%
%TD*%
%TA.AperFunction,Conductor*%
%TO.N,+3V3*%
G36*
X163568039Y-76319685D02*
G01*
X163613794Y-76372489D01*
X163625000Y-76424000D01*
X163625000Y-77850500D01*
X163605315Y-77917539D01*
X163552511Y-77963294D01*
X163501001Y-77974500D01*
X163301663Y-77974500D01*
X163301644Y-77974501D01*
X163202292Y-77984650D01*
X163202289Y-77984651D01*
X163041302Y-78037997D01*
X163040476Y-78038383D01*
X163039459Y-78038608D01*
X163034448Y-78040269D01*
X163034278Y-78039756D01*
X162988073Y-78050000D01*
X162875000Y-78050000D01*
X162875000Y-78097626D01*
X162855315Y-78164665D01*
X162838681Y-78185307D01*
X162777032Y-78246955D01*
X162777029Y-78246959D01*
X162688001Y-78391294D01*
X162687996Y-78391305D01*
X162634651Y-78552290D01*
X162624500Y-78651647D01*
X162624500Y-79248337D01*
X162624501Y-79248355D01*
X162634650Y-79347707D01*
X162634651Y-79347710D01*
X162687996Y-79508694D01*
X162688001Y-79508705D01*
X162777029Y-79653040D01*
X162777032Y-79653044D01*
X162838681Y-79714693D01*
X162872166Y-79776016D01*
X162874713Y-79799713D01*
X162875000Y-79800000D01*
X162905615Y-79800000D01*
X162970712Y-79818462D01*
X163041294Y-79861998D01*
X163041297Y-79861999D01*
X163041303Y-79862003D01*
X163202292Y-79915349D01*
X163301655Y-79925500D01*
X163363000Y-79925499D01*
X163430038Y-79945183D01*
X163475794Y-79997986D01*
X163487000Y-80049499D01*
X163487000Y-80575500D01*
X163467315Y-80642539D01*
X163414511Y-80688294D01*
X163363000Y-80699500D01*
X162546798Y-80699500D01*
X162509932Y-80702401D01*
X162509926Y-80702402D01*
X162364767Y-80744576D01*
X162330172Y-80749500D01*
X161876080Y-80749500D01*
X161731092Y-80778340D01*
X161731086Y-80778342D01*
X161594508Y-80834914D01*
X161594496Y-80834921D01*
X161545269Y-80867813D01*
X161471588Y-80917044D01*
X161471586Y-80917046D01*
X161471584Y-80917047D01*
X161471584Y-80917048D01*
X161374949Y-81013682D01*
X161313629Y-81047166D01*
X161287270Y-81050000D01*
X160499000Y-81050000D01*
X160431961Y-81030315D01*
X160386206Y-80977511D01*
X160375000Y-80926000D01*
X160375000Y-79777741D01*
X160386821Y-79724903D01*
X161966482Y-76371162D01*
X162012856Y-76318901D01*
X162078661Y-76300000D01*
X163501000Y-76300000D01*
X163568039Y-76319685D01*
G37*
%TD.AperFunction*%
%TD*%
%TA.AperFunction,Conductor*%
%TO.N,/Buffer Block B/VCCA_SEL*%
G36*
X185312172Y-55758868D02*
G01*
X186540000Y-56250000D01*
X186939120Y-56250000D01*
X187006159Y-56269685D01*
X187051914Y-56322489D01*
X187061858Y-56391647D01*
X187055302Y-56417334D01*
X187045909Y-56442514D01*
X187045909Y-56442517D01*
X187039500Y-56502127D01*
X187039500Y-56502134D01*
X187039500Y-56502135D01*
X187039500Y-56997866D01*
X187039501Y-56997873D01*
X187040992Y-57011748D01*
X187040992Y-57038239D01*
X187039500Y-57052122D01*
X187039500Y-57447869D01*
X187039501Y-57447878D01*
X187043679Y-57486745D01*
X187043679Y-57513250D01*
X187039500Y-57552122D01*
X187039500Y-57947866D01*
X187039501Y-57947873D01*
X187040992Y-57961748D01*
X187040992Y-57988239D01*
X187039500Y-58002122D01*
X187039500Y-58497870D01*
X187039501Y-58497876D01*
X187045908Y-58557483D01*
X187096202Y-58692328D01*
X187096204Y-58692331D01*
X187130136Y-58737658D01*
X187154554Y-58803123D01*
X187139703Y-58871396D01*
X187112525Y-58905289D01*
X185290000Y-60499999D01*
X185290000Y-63126000D01*
X185270315Y-63193039D01*
X185217511Y-63238794D01*
X185166000Y-63250000D01*
X182914000Y-63250000D01*
X182846961Y-63230315D01*
X182801206Y-63177511D01*
X182790000Y-63126000D01*
X182790000Y-62597415D01*
X182801618Y-62545010D01*
X182813904Y-62518663D01*
X182875064Y-62290408D01*
X182895660Y-62055000D01*
X182875064Y-61819592D01*
X182813904Y-61591337D01*
X182801617Y-61564987D01*
X182790000Y-61512584D01*
X182790000Y-60057415D01*
X182801618Y-60005010D01*
X182813904Y-59978663D01*
X182875064Y-59750408D01*
X182895660Y-59515000D01*
X182875064Y-59279592D01*
X182813904Y-59051337D01*
X182801617Y-59024987D01*
X182790000Y-58972584D01*
X182790000Y-58167108D01*
X182809685Y-58100069D01*
X182814733Y-58092797D01*
X182833797Y-58067331D01*
X182884092Y-57932483D01*
X182890501Y-57872873D01*
X182890500Y-56077128D01*
X182884092Y-56017517D01*
X182846726Y-55917333D01*
X182841742Y-55847641D01*
X182875227Y-55786318D01*
X182936550Y-55752834D01*
X182962908Y-55750000D01*
X185266121Y-55750000D01*
X185312172Y-55758868D01*
G37*
%TD.AperFunction*%
%TD*%
%TA.AperFunction,Conductor*%
%TO.N,/Buffer Block C/VCCA_SEL*%
G36*
X152443039Y-98269685D02*
G01*
X152488794Y-98322489D01*
X152500000Y-98374000D01*
X152500000Y-98902586D01*
X152488383Y-98954989D01*
X152476098Y-98981334D01*
X152476094Y-98981344D01*
X152414938Y-99209586D01*
X152414936Y-99209596D01*
X152394341Y-99444999D01*
X152394341Y-99445000D01*
X152414936Y-99680403D01*
X152414938Y-99680413D01*
X152476094Y-99908655D01*
X152476096Y-99908659D01*
X152476097Y-99908663D01*
X152488382Y-99935008D01*
X152500000Y-99987413D01*
X152500000Y-101442586D01*
X152488383Y-101494989D01*
X152476098Y-101521334D01*
X152476094Y-101521344D01*
X152414938Y-101749586D01*
X152414936Y-101749596D01*
X152394341Y-101984999D01*
X152394341Y-101985000D01*
X152414936Y-102220403D01*
X152414938Y-102220413D01*
X152476094Y-102448655D01*
X152476096Y-102448659D01*
X152476097Y-102448663D01*
X152488382Y-102475008D01*
X152500000Y-102527413D01*
X152500000Y-103332893D01*
X152480315Y-103399932D01*
X152475267Y-103407204D01*
X152456204Y-103432668D01*
X152456202Y-103432671D01*
X152405908Y-103567517D01*
X152399501Y-103627116D01*
X152399500Y-103627135D01*
X152399500Y-105422870D01*
X152399501Y-105422876D01*
X152405908Y-105482483D01*
X152443275Y-105582667D01*
X152448259Y-105652359D01*
X152414774Y-105713682D01*
X152353451Y-105747166D01*
X152327093Y-105750000D01*
X150023880Y-105750000D01*
X149977828Y-105741131D01*
X148750000Y-105250000D01*
X148350880Y-105250000D01*
X148283841Y-105230315D01*
X148238086Y-105177511D01*
X148228142Y-105108353D01*
X148234698Y-105082666D01*
X148244090Y-105057485D01*
X148244089Y-105057485D01*
X148244091Y-105057483D01*
X148250500Y-104997873D01*
X148250499Y-104502128D01*
X148249008Y-104488258D01*
X148249008Y-104461749D01*
X148250500Y-104447873D01*
X148250499Y-104052128D01*
X148250498Y-104052111D01*
X148246320Y-104013253D01*
X148246320Y-103986747D01*
X148250500Y-103947873D01*
X148250499Y-103552128D01*
X148249008Y-103538258D01*
X148249008Y-103511749D01*
X148250500Y-103497873D01*
X148250499Y-103002128D01*
X148244091Y-102942517D01*
X148193796Y-102807669D01*
X148159862Y-102762339D01*
X148135445Y-102696877D01*
X148150296Y-102628604D01*
X148177470Y-102594713D01*
X150000000Y-101000000D01*
X150000000Y-98374000D01*
X150019685Y-98306961D01*
X150072489Y-98261206D01*
X150124000Y-98250000D01*
X152376000Y-98250000D01*
X152443039Y-98269685D01*
G37*
%TD.AperFunction*%
%TD*%
%TA.AperFunction,Conductor*%
%TO.N,GND*%
G36*
X149835000Y-73871988D02*
G01*
X149777993Y-73839075D01*
X149650826Y-73805000D01*
X149519174Y-73805000D01*
X149392007Y-73839075D01*
X149335000Y-73871988D01*
X149335000Y-72198012D01*
X149392007Y-72230925D01*
X149519174Y-72265000D01*
X149650826Y-72265000D01*
X149777993Y-72230925D01*
X149835000Y-72198012D01*
X149835000Y-73871988D01*
G37*
%TD.AperFunction*%
%TA.AperFunction,Conductor*%
G36*
X149835000Y-71331988D02*
G01*
X149777993Y-71299075D01*
X149650826Y-71265000D01*
X149519174Y-71265000D01*
X149392007Y-71299075D01*
X149335000Y-71331988D01*
X149335000Y-69658012D01*
X149392007Y-69690925D01*
X149519174Y-69725000D01*
X149650826Y-69725000D01*
X149777993Y-69690925D01*
X149835000Y-69658012D01*
X149835000Y-71331988D01*
G37*
%TD.AperFunction*%
%TA.AperFunction,Conductor*%
G36*
X193503471Y-52250695D02*
G01*
X193544188Y-52252981D01*
X193800900Y-52267397D01*
X193814703Y-52268953D01*
X194104953Y-52318269D01*
X194118510Y-52321363D01*
X194401413Y-52402866D01*
X194414537Y-52407459D01*
X194686527Y-52520120D01*
X194699049Y-52526149D01*
X194897673Y-52635925D01*
X194956726Y-52668563D01*
X194968500Y-52675961D01*
X195208604Y-52846323D01*
X195219476Y-52854993D01*
X195438997Y-53051169D01*
X195448830Y-53061002D01*
X195645006Y-53280523D01*
X195653676Y-53291395D01*
X195824038Y-53531499D01*
X195831436Y-53543273D01*
X195973846Y-53800943D01*
X195979879Y-53813472D01*
X196092540Y-54085462D01*
X196097133Y-54098586D01*
X196178636Y-54381489D01*
X196181730Y-54395046D01*
X196231045Y-54685288D01*
X196232602Y-54699106D01*
X196249305Y-54996527D01*
X196249500Y-55003480D01*
X196249500Y-61002374D01*
X196229815Y-61069413D01*
X196177011Y-61115168D01*
X196107853Y-61125112D01*
X196044297Y-61096087D01*
X196023925Y-61073497D01*
X195910045Y-60910858D01*
X195749141Y-60749954D01*
X195562734Y-60619432D01*
X195562732Y-60619431D01*
X195356497Y-60523261D01*
X195356488Y-60523258D01*
X195136697Y-60464366D01*
X195136693Y-60464365D01*
X195136692Y-60464365D01*
X195136691Y-60464364D01*
X195136686Y-60464364D01*
X194910002Y-60444532D01*
X194909998Y-60444532D01*
X194683313Y-60464364D01*
X194683302Y-60464366D01*
X194463511Y-60523258D01*
X194463502Y-60523261D01*
X194257267Y-60619431D01*
X194257265Y-60619432D01*
X194070858Y-60749954D01*
X193909956Y-60910856D01*
X193846512Y-61001464D01*
X193791935Y-61045089D01*
X193722436Y-61052281D01*
X193660082Y-61020759D01*
X193657256Y-61018021D01*
X189027590Y-56388355D01*
X189027588Y-56388352D01*
X188908717Y-56269481D01*
X188908716Y-56269480D01*
X188821904Y-56219360D01*
X188821904Y-56219359D01*
X188821900Y-56219358D01*
X188771785Y-56190423D01*
X188619057Y-56149499D01*
X188460943Y-56149499D01*
X188453347Y-56149499D01*
X188453331Y-56149500D01*
X188381439Y-56149500D01*
X188314400Y-56129815D01*
X188307128Y-56124767D01*
X188282331Y-56106204D01*
X188282328Y-56106202D01*
X188147486Y-56055910D01*
X188147485Y-56055909D01*
X188147483Y-56055909D01*
X188087873Y-56049500D01*
X188087864Y-56049500D01*
X187538957Y-56049500D01*
X187471918Y-56029815D01*
X187436890Y-55994790D01*
X187436602Y-55995006D01*
X187435100Y-55993000D01*
X187434646Y-55992546D01*
X187433952Y-55991466D01*
X187433940Y-55991451D01*
X187388196Y-55938659D01*
X187388192Y-55938656D01*
X187388190Y-55938653D01*
X187279456Y-55844433D01*
X187279453Y-55844431D01*
X187279451Y-55844430D01*
X187148585Y-55784664D01*
X187148580Y-55784662D01*
X187148579Y-55784662D01*
X187081540Y-55764977D01*
X187081542Y-55764977D01*
X187081537Y-55764976D01*
X187034064Y-55758150D01*
X186939120Y-55744500D01*
X186939118Y-55744500D01*
X186661231Y-55744500D01*
X186615179Y-55735631D01*
X185848290Y-55428875D01*
X185722880Y-55378711D01*
X191149500Y-55378711D01*
X191149500Y-55621288D01*
X191178876Y-55844430D01*
X191181162Y-55861789D01*
X191186757Y-55882669D01*
X191243947Y-56096104D01*
X191336773Y-56320205D01*
X191336776Y-56320212D01*
X191458064Y-56530289D01*
X191458066Y-56530292D01*
X191458067Y-56530293D01*
X191605733Y-56722736D01*
X191605739Y-56722743D01*
X191777256Y-56894260D01*
X191777262Y-56894265D01*
X191969711Y-57041936D01*
X192179788Y-57163224D01*
X192403900Y-57256054D01*
X192638211Y-57318838D01*
X192818586Y-57342584D01*
X192878711Y-57350500D01*
X192878712Y-57350500D01*
X193121289Y-57350500D01*
X193169388Y-57344167D01*
X193361789Y-57318838D01*
X193596100Y-57256054D01*
X193820212Y-57163224D01*
X194030289Y-57041936D01*
X194222738Y-56894265D01*
X194394265Y-56722738D01*
X194541936Y-56530289D01*
X194663224Y-56320212D01*
X194756054Y-56096100D01*
X194818838Y-55861789D01*
X194850500Y-55621288D01*
X194850500Y-55378712D01*
X194845285Y-55339103D01*
X194834725Y-55258885D01*
X194818838Y-55138211D01*
X194756054Y-54903900D01*
X194663224Y-54679788D01*
X194541936Y-54469711D01*
X194394265Y-54277262D01*
X194394260Y-54277256D01*
X194222743Y-54105739D01*
X194222736Y-54105733D01*
X194030293Y-53958067D01*
X194030292Y-53958066D01*
X194030289Y-53958064D01*
X193820212Y-53836776D01*
X193812366Y-53833526D01*
X193596104Y-53743947D01*
X193361785Y-53681161D01*
X193121289Y-53649500D01*
X193121288Y-53649500D01*
X192878712Y-53649500D01*
X192878711Y-53649500D01*
X192638214Y-53681161D01*
X192403895Y-53743947D01*
X192179794Y-53836773D01*
X192179785Y-53836777D01*
X191969706Y-53958067D01*
X191777263Y-54105733D01*
X191777256Y-54105739D01*
X191605739Y-54277256D01*
X191605733Y-54277263D01*
X191458067Y-54469706D01*
X191336777Y-54679785D01*
X191336773Y-54679794D01*
X191243947Y-54903895D01*
X191181161Y-55138214D01*
X191149500Y-55378711D01*
X185722880Y-55378711D01*
X185499908Y-55289522D01*
X185407770Y-55262491D01*
X185407766Y-55262490D01*
X185407759Y-55262488D01*
X185395865Y-55260197D01*
X185361708Y-55253619D01*
X185266129Y-55244500D01*
X185266121Y-55244500D01*
X182962908Y-55244500D01*
X182962906Y-55244500D01*
X182908857Y-55247397D01*
X182908856Y-55247397D01*
X182882523Y-55250229D01*
X182882496Y-55250232D01*
X182829106Y-55258884D01*
X182829100Y-55258885D01*
X182694304Y-55309160D01*
X182694297Y-55309163D01*
X182639464Y-55339103D01*
X182638355Y-55339626D01*
X182632969Y-55342649D01*
X182517783Y-55428876D01*
X182431562Y-55544054D01*
X182431557Y-55544061D01*
X182422892Y-55559931D01*
X182373485Y-55609334D01*
X182314062Y-55624500D01*
X180642130Y-55624500D01*
X180642124Y-55624501D01*
X180582517Y-55630908D01*
X180447672Y-55681202D01*
X180447665Y-55681206D01*
X180332456Y-55767452D01*
X180332453Y-55767455D01*
X180246207Y-55882664D01*
X180246203Y-55882671D01*
X180195909Y-56017517D01*
X180189502Y-56077116D01*
X180189501Y-56077135D01*
X180189501Y-57872870D01*
X180189502Y-57872876D01*
X180195909Y-57932483D01*
X180246203Y-58067328D01*
X180246207Y-58067335D01*
X180332453Y-58182544D01*
X180332456Y-58182547D01*
X180447665Y-58268793D01*
X180447672Y-58268797D01*
X180579082Y-58317810D01*
X180635016Y-58359681D01*
X180659433Y-58425145D01*
X180644581Y-58493418D01*
X180623431Y-58521673D01*
X180501504Y-58643600D01*
X180365966Y-58837169D01*
X180365965Y-58837171D01*
X180266099Y-59051335D01*
X180266095Y-59051344D01*
X180204939Y-59279586D01*
X180204937Y-59279596D01*
X180184342Y-59514999D01*
X180184342Y-59515000D01*
X180204937Y-59750403D01*
X180204939Y-59750413D01*
X180266095Y-59978655D01*
X180266097Y-59978659D01*
X180266098Y-59978663D01*
X180365966Y-60192830D01*
X180365968Y-60192834D01*
X180501502Y-60386395D01*
X180501507Y-60386402D01*
X180668598Y-60553493D01*
X180668604Y-60553498D01*
X180854159Y-60683425D01*
X180897784Y-60738002D01*
X180904978Y-60807500D01*
X180873455Y-60869855D01*
X180854159Y-60886575D01*
X180668598Y-61016505D01*
X180501506Y-61183597D01*
X180365966Y-61377169D01*
X180365965Y-61377171D01*
X180266099Y-61591335D01*
X180266095Y-61591344D01*
X180204939Y-61819586D01*
X180204937Y-61819596D01*
X180184342Y-62054999D01*
X180184342Y-62055000D01*
X180204937Y-62290403D01*
X180204939Y-62290413D01*
X180266095Y-62518655D01*
X180266097Y-62518659D01*
X180266098Y-62518663D01*
X180303039Y-62597883D01*
X180365966Y-62732830D01*
X180365968Y-62732834D01*
X180418218Y-62807454D01*
X180501506Y-62926401D01*
X180668600Y-63093495D01*
X180762763Y-63159429D01*
X180862166Y-63229032D01*
X180862168Y-63229033D01*
X180862171Y-63229035D01*
X181076338Y-63328903D01*
X181076344Y-63328904D01*
X181076345Y-63328905D01*
X181100828Y-63335465D01*
X181304593Y-63390063D01*
X181492919Y-63406539D01*
X181540000Y-63410659D01*
X181540001Y-63410659D01*
X181540002Y-63410659D01*
X181579235Y-63407226D01*
X181775409Y-63390063D01*
X182003664Y-63328903D01*
X182153016Y-63259258D01*
X182222091Y-63248767D01*
X182285875Y-63277286D01*
X182323073Y-63332482D01*
X182341384Y-63387497D01*
X182341386Y-63387503D01*
X182419171Y-63508537D01*
X182419179Y-63508548D01*
X182464923Y-63561340D01*
X182464926Y-63561343D01*
X182464930Y-63561347D01*
X182573664Y-63655567D01*
X182573667Y-63655568D01*
X182573668Y-63655569D01*
X182667925Y-63698616D01*
X182704541Y-63715338D01*
X182771580Y-63735023D01*
X182771584Y-63735024D01*
X182914000Y-63755500D01*
X182914003Y-63755500D01*
X185165990Y-63755500D01*
X185166000Y-63755500D01*
X185273456Y-63743947D01*
X185324967Y-63732741D01*
X185359197Y-63721347D01*
X185427497Y-63698616D01*
X185427501Y-63698613D01*
X185427504Y-63698613D01*
X185548543Y-63620825D01*
X185601347Y-63575070D01*
X185695567Y-63466336D01*
X185755338Y-63335459D01*
X185775023Y-63268420D01*
X185775024Y-63268416D01*
X185795500Y-63126000D01*
X185795500Y-62807454D01*
X185815185Y-62740415D01*
X185867989Y-62694660D01*
X185937147Y-62684716D01*
X186000703Y-62713741D01*
X186035682Y-62764121D01*
X186046202Y-62792328D01*
X186046206Y-62792335D01*
X186132452Y-62907544D01*
X186132455Y-62907547D01*
X186247664Y-62993793D01*
X186247671Y-62993797D01*
X186292618Y-63010561D01*
X186382517Y-63044091D01*
X186417596Y-63047862D01*
X186482144Y-63074599D01*
X186521993Y-63131991D01*
X186524488Y-63201816D01*
X186488836Y-63261905D01*
X186475464Y-63272725D01*
X186450858Y-63289954D01*
X186289954Y-63450858D01*
X186159432Y-63637265D01*
X186159431Y-63637267D01*
X186063261Y-63843502D01*
X186063258Y-63843511D01*
X186004366Y-64063302D01*
X186004364Y-64063313D01*
X185984532Y-64289998D01*
X185984532Y-64290001D01*
X186004364Y-64516686D01*
X186004366Y-64516697D01*
X186063258Y-64736488D01*
X186063261Y-64736497D01*
X186159431Y-64942732D01*
X186159432Y-64942734D01*
X186289954Y-65129141D01*
X186450858Y-65290045D01*
X186450861Y-65290047D01*
X186637266Y-65420568D01*
X186695275Y-65447618D01*
X186747714Y-65493791D01*
X186766866Y-65560984D01*
X186746650Y-65627865D01*
X186695275Y-65672382D01*
X186637267Y-65699431D01*
X186637265Y-65699432D01*
X186450858Y-65829954D01*
X186289954Y-65990858D01*
X186159432Y-66177265D01*
X186159431Y-66177267D01*
X186063261Y-66383502D01*
X186063258Y-66383511D01*
X186004366Y-66603302D01*
X186004364Y-66603313D01*
X185984532Y-66829998D01*
X185984532Y-66830001D01*
X186004364Y-67056686D01*
X186004366Y-67056697D01*
X186063258Y-67276488D01*
X186063261Y-67276497D01*
X186159431Y-67482732D01*
X186159432Y-67482734D01*
X186289954Y-67669141D01*
X186450858Y-67830045D01*
X186450861Y-67830047D01*
X186637266Y-67960568D01*
X186695275Y-67987618D01*
X186747714Y-68033791D01*
X186766866Y-68100984D01*
X186746650Y-68167865D01*
X186695275Y-68212382D01*
X186637267Y-68239431D01*
X186637265Y-68239432D01*
X186450858Y-68369954D01*
X186289954Y-68530858D01*
X186159432Y-68717265D01*
X186159431Y-68717267D01*
X186063261Y-68923502D01*
X186063258Y-68923511D01*
X186004366Y-69143302D01*
X186004364Y-69143313D01*
X185984532Y-69369998D01*
X185984532Y-69370001D01*
X186004364Y-69596686D01*
X186004366Y-69596697D01*
X186030152Y-69692931D01*
X186028489Y-69762781D01*
X185998059Y-69812704D01*
X185947584Y-69863180D01*
X185886261Y-69896666D01*
X185859902Y-69899500D01*
X182764500Y-69899500D01*
X182697461Y-69879815D01*
X182651706Y-69827011D01*
X182640500Y-69775500D01*
X182640500Y-69142001D01*
X182640501Y-69141988D01*
X182640501Y-68973887D01*
X182640501Y-68973885D01*
X182599577Y-68821157D01*
X182570639Y-68771037D01*
X182520520Y-68684226D01*
X182408716Y-68572422D01*
X182408715Y-68572421D01*
X182404385Y-68568091D01*
X182404374Y-68568081D01*
X179774648Y-65938355D01*
X179774646Y-65938352D01*
X179655775Y-65819481D01*
X179655774Y-65819480D01*
X179568962Y-65769360D01*
X179568962Y-65769359D01*
X179568958Y-65769358D01*
X179518843Y-65740423D01*
X179366115Y-65699499D01*
X179208001Y-65699499D01*
X179200405Y-65699499D01*
X179200389Y-65699500D01*
X178652000Y-65699500D01*
X178584961Y-65679815D01*
X178539206Y-65627011D01*
X178528000Y-65575500D01*
X178528000Y-65510636D01*
X178512547Y-65393246D01*
X178512545Y-65393239D01*
X178512545Y-65393238D01*
X178452037Y-65247159D01*
X178355783Y-65121718D01*
X178230342Y-65025464D01*
X178186816Y-65007435D01*
X178084263Y-64964956D01*
X178084261Y-64964955D01*
X177966871Y-64949501D01*
X177966868Y-64949500D01*
X177966862Y-64949500D01*
X177966855Y-64949500D01*
X176764500Y-64949500D01*
X176697461Y-64929815D01*
X176651706Y-64877011D01*
X176640500Y-64825500D01*
X176640500Y-64108309D01*
X176660185Y-64041270D01*
X176676820Y-64020627D01*
X176708077Y-63989370D01*
X176708082Y-63989365D01*
X176791745Y-63847898D01*
X176830258Y-63715338D01*
X176837598Y-63690073D01*
X176837599Y-63690067D01*
X176840314Y-63655566D01*
X176840501Y-63653194D01*
X176840501Y-62346806D01*
X176837599Y-62309931D01*
X176831928Y-62290413D01*
X176791746Y-62152106D01*
X176791745Y-62152103D01*
X176791745Y-62152102D01*
X176708082Y-62010635D01*
X176708080Y-62010633D01*
X176708077Y-62010629D01*
X176591871Y-61894423D01*
X176591863Y-61894417D01*
X176513682Y-61848181D01*
X176450399Y-61810756D01*
X176450398Y-61810755D01*
X176450397Y-61810755D01*
X176450394Y-61810754D01*
X176292574Y-61764902D01*
X176292568Y-61764901D01*
X176255702Y-61762000D01*
X176255695Y-61762000D01*
X175824307Y-61762000D01*
X175824299Y-61762000D01*
X175787433Y-61764901D01*
X175787427Y-61764902D01*
X175629607Y-61810754D01*
X175629604Y-61810755D01*
X175488138Y-61894417D01*
X175488130Y-61894423D01*
X175371924Y-62010629D01*
X175371918Y-62010637D01*
X175288256Y-62152103D01*
X175288255Y-62152106D01*
X175242403Y-62309926D01*
X175242402Y-62309932D01*
X175239501Y-62346798D01*
X175239501Y-63653201D01*
X175242402Y-63690067D01*
X175242403Y-63690073D01*
X175288255Y-63847893D01*
X175288256Y-63847896D01*
X175371918Y-63989362D01*
X175371924Y-63989370D01*
X175403180Y-64020625D01*
X175436666Y-64081947D01*
X175439500Y-64108307D01*
X175439500Y-64606859D01*
X175419815Y-64673898D01*
X175367011Y-64719653D01*
X175297853Y-64729597D01*
X175234297Y-64700572D01*
X175227819Y-64694540D01*
X174776819Y-64243540D01*
X174743334Y-64182217D01*
X174740500Y-64155859D01*
X174740500Y-64108309D01*
X174760185Y-64041270D01*
X174776820Y-64020627D01*
X174808077Y-63989370D01*
X174808082Y-63989365D01*
X174891745Y-63847898D01*
X174930258Y-63715338D01*
X174937598Y-63690073D01*
X174937599Y-63690067D01*
X174940314Y-63655566D01*
X174940501Y-63653194D01*
X174940501Y-62346806D01*
X174937599Y-62309931D01*
X174931928Y-62290413D01*
X174891746Y-62152106D01*
X174891745Y-62152103D01*
X174891745Y-62152102D01*
X174808082Y-62010635D01*
X174808080Y-62010633D01*
X174808077Y-62010629D01*
X174691871Y-61894423D01*
X174691863Y-61894417D01*
X174613682Y-61848181D01*
X174550399Y-61810756D01*
X174550398Y-61810755D01*
X174550397Y-61810755D01*
X174550394Y-61810754D01*
X174392574Y-61764902D01*
X174392568Y-61764901D01*
X174355702Y-61762000D01*
X174355695Y-61762000D01*
X173924307Y-61762000D01*
X173924299Y-61762000D01*
X173887433Y-61764901D01*
X173887427Y-61764902D01*
X173729607Y-61810754D01*
X173729604Y-61810755D01*
X173588138Y-61894417D01*
X173588130Y-61894423D01*
X173471924Y-62010629D01*
X173471918Y-62010637D01*
X173388256Y-62152103D01*
X173388255Y-62152106D01*
X173342403Y-62309926D01*
X173342402Y-62309932D01*
X173339501Y-62346798D01*
X173339501Y-63653201D01*
X173342402Y-63690067D01*
X173342403Y-63690073D01*
X173388255Y-63847893D01*
X173388256Y-63847896D01*
X173471918Y-63989362D01*
X173471924Y-63989370D01*
X173503180Y-64020625D01*
X173536666Y-64081947D01*
X173539500Y-64108307D01*
X173539500Y-64369286D01*
X173539499Y-64369304D01*
X173539499Y-64535017D01*
X173545485Y-64557356D01*
X173543821Y-64627206D01*
X173504658Y-64685067D01*
X173440429Y-64712570D01*
X173411827Y-64712667D01*
X173250004Y-64694435D01*
X173249996Y-64694435D01*
X173070750Y-64714630D01*
X173070742Y-64714632D01*
X172923698Y-64766085D01*
X172853919Y-64769646D01*
X172793292Y-64734917D01*
X172768183Y-64696495D01*
X172767373Y-64694540D01*
X172727037Y-64597159D01*
X172630783Y-64471718D01*
X172505342Y-64375464D01*
X172490470Y-64369304D01*
X172359263Y-64314956D01*
X172359261Y-64314955D01*
X172241871Y-64299501D01*
X172241868Y-64299500D01*
X172241862Y-64299500D01*
X172241855Y-64299500D01*
X170888137Y-64299500D01*
X170770747Y-64314953D01*
X170770738Y-64314956D01*
X170624661Y-64375463D01*
X170499219Y-64471718D01*
X170402964Y-64597160D01*
X170342457Y-64743237D01*
X170342456Y-64743239D01*
X170327001Y-64860638D01*
X170327001Y-65139363D01*
X170342454Y-65256753D01*
X170342458Y-65256765D01*
X170351067Y-65277550D01*
X170358534Y-65347019D01*
X170351067Y-65372450D01*
X170342458Y-65393234D01*
X170342456Y-65393239D01*
X170327001Y-65510638D01*
X170327001Y-65789363D01*
X170342454Y-65906753D01*
X170342458Y-65906765D01*
X170351067Y-65927550D01*
X170358534Y-65997019D01*
X170351067Y-66022450D01*
X170342458Y-66043234D01*
X170342456Y-66043239D01*
X170327001Y-66160638D01*
X170327001Y-66439363D01*
X170342454Y-66556753D01*
X170342458Y-66556765D01*
X170351067Y-66577550D01*
X170358534Y-66647019D01*
X170351067Y-66672450D01*
X170342458Y-66693234D01*
X170342456Y-66693239D01*
X170327001Y-66810638D01*
X170327001Y-67089363D01*
X170342454Y-67206753D01*
X170342458Y-67206765D01*
X170351067Y-67227550D01*
X170358534Y-67297019D01*
X170351067Y-67322450D01*
X170342458Y-67343234D01*
X170342456Y-67343239D01*
X170327001Y-67460638D01*
X170327001Y-67739363D01*
X170342454Y-67856753D01*
X170342458Y-67856765D01*
X170351067Y-67877550D01*
X170358534Y-67947019D01*
X170351067Y-67972450D01*
X170342458Y-67993234D01*
X170342456Y-67993239D01*
X170327001Y-68110638D01*
X170327001Y-68389363D01*
X170342454Y-68506753D01*
X170342458Y-68506765D01*
X170351067Y-68527550D01*
X170358534Y-68597019D01*
X170351067Y-68622450D01*
X170342458Y-68643234D01*
X170342456Y-68643239D01*
X170327001Y-68760638D01*
X170327001Y-69039363D01*
X170342454Y-69156753D01*
X170342457Y-69156762D01*
X170397706Y-69290146D01*
X170402965Y-69302841D01*
X170499219Y-69428282D01*
X170624660Y-69524536D01*
X170770739Y-69585044D01*
X170888140Y-69600500D01*
X171181292Y-69600499D01*
X171248329Y-69620183D01*
X171294084Y-69672987D01*
X171304028Y-69742146D01*
X171275003Y-69805701D01*
X171237383Y-69834097D01*
X171237450Y-69834205D01*
X171236313Y-69834906D01*
X171233701Y-69836878D01*
X171231304Y-69837995D01*
X171086959Y-69927029D01*
X171086955Y-69927032D01*
X170967032Y-70046955D01*
X170967029Y-70046959D01*
X170878001Y-70191294D01*
X170877996Y-70191305D01*
X170824651Y-70352290D01*
X170814500Y-70451647D01*
X170814500Y-70998337D01*
X170814501Y-70998355D01*
X170824650Y-71097707D01*
X170824651Y-71097710D01*
X170877996Y-71258694D01*
X170878001Y-71258705D01*
X170967029Y-71403040D01*
X170967032Y-71403044D01*
X171086955Y-71522967D01*
X171086959Y-71522970D01*
X171231294Y-71611998D01*
X171231297Y-71611999D01*
X171231303Y-71612003D01*
X171392292Y-71665349D01*
X171491655Y-71675500D01*
X172088344Y-71675499D01*
X172088352Y-71675498D01*
X172088355Y-71675498D01*
X172142760Y-71669940D01*
X172187708Y-71665349D01*
X172348697Y-71612003D01*
X172493044Y-71522968D01*
X172612968Y-71403044D01*
X172702003Y-71258697D01*
X172755349Y-71097708D01*
X172765500Y-70998345D01*
X172765499Y-70451656D01*
X172762944Y-70426647D01*
X172755349Y-70352292D01*
X172755348Y-70352289D01*
X172743763Y-70317328D01*
X172702003Y-70191303D01*
X172701999Y-70191297D01*
X172701998Y-70191294D01*
X172612970Y-70046959D01*
X172612967Y-70046955D01*
X172493044Y-69927032D01*
X172493040Y-69927029D01*
X172348705Y-69838001D01*
X172348699Y-69837998D01*
X172348697Y-69837997D01*
X172318627Y-69828033D01*
X172261185Y-69788261D01*
X172234362Y-69723745D01*
X172246677Y-69654969D01*
X172294221Y-69603769D01*
X172341450Y-69587388D01*
X172359263Y-69585044D01*
X172505342Y-69524536D01*
X172630783Y-69428282D01*
X172727037Y-69302841D01*
X172732295Y-69290144D01*
X172776134Y-69235742D01*
X172842428Y-69213675D01*
X172893587Y-69224396D01*
X172893905Y-69223489D01*
X173070745Y-69285368D01*
X173070750Y-69285369D01*
X173249996Y-69305565D01*
X173250000Y-69305565D01*
X173250004Y-69305565D01*
X173429249Y-69285369D01*
X173429252Y-69285368D01*
X173429255Y-69285368D01*
X173599522Y-69225789D01*
X173752262Y-69129816D01*
X173879816Y-69002262D01*
X173975789Y-68849522D01*
X174035368Y-68679255D01*
X174039427Y-68643234D01*
X174055565Y-68500003D01*
X174055565Y-68499996D01*
X174035369Y-68320750D01*
X174035367Y-68320740D01*
X174003029Y-68228326D01*
X173999466Y-68158547D01*
X174032389Y-68099689D01*
X174080679Y-68051399D01*
X174129816Y-68002262D01*
X174225789Y-67849522D01*
X174285368Y-67679255D01*
X174296819Y-67577625D01*
X174305565Y-67500003D01*
X174305565Y-67499996D01*
X174285369Y-67320750D01*
X174285368Y-67320745D01*
X174225788Y-67150475D01*
X174172691Y-67065973D01*
X174153690Y-66998736D01*
X174172691Y-66934027D01*
X174225788Y-66849524D01*
X174232619Y-66830002D01*
X174285368Y-66679255D01*
X174293926Y-66603302D01*
X174305565Y-66500003D01*
X174305565Y-66499996D01*
X174285369Y-66320750D01*
X174285368Y-66320745D01*
X174225789Y-66150478D01*
X174220498Y-66142058D01*
X174158406Y-66043239D01*
X174129816Y-65997738D01*
X174032389Y-65900311D01*
X173998904Y-65838988D01*
X174003029Y-65771674D01*
X174003840Y-65769358D01*
X174028284Y-65699500D01*
X174035367Y-65679259D01*
X174035369Y-65679249D01*
X174055013Y-65504903D01*
X174082079Y-65440489D01*
X174139674Y-65400934D01*
X174209511Y-65398796D01*
X174265914Y-65431105D01*
X175981356Y-67146547D01*
X176014841Y-67207870D01*
X176009857Y-67277562D01*
X175981356Y-67321909D01*
X173811257Y-69492007D01*
X173758172Y-69523402D01*
X173629605Y-69560754D01*
X173629604Y-69560755D01*
X173488138Y-69644417D01*
X173488130Y-69644423D01*
X173371924Y-69760629D01*
X173371918Y-69760637D01*
X173288256Y-69902103D01*
X173288255Y-69902106D01*
X173242403Y-70059926D01*
X173242402Y-70059932D01*
X173239501Y-70096798D01*
X173239501Y-71403201D01*
X173242402Y-71440067D01*
X173242403Y-71440073D01*
X173288255Y-71597893D01*
X173288256Y-71597896D01*
X173371918Y-71739362D01*
X173371924Y-71739370D01*
X173488130Y-71855576D01*
X173488134Y-71855579D01*
X173488136Y-71855581D01*
X173629603Y-71939244D01*
X173671225Y-71951336D01*
X173787427Y-71985097D01*
X173787430Y-71985097D01*
X173787432Y-71985098D01*
X173824307Y-71988000D01*
X173824315Y-71988000D01*
X174255687Y-71988000D01*
X174255695Y-71988000D01*
X174292570Y-71985098D01*
X174292572Y-71985097D01*
X174292574Y-71985097D01*
X174334192Y-71973005D01*
X174450399Y-71939244D01*
X174591866Y-71855581D01*
X174708082Y-71739365D01*
X174791745Y-71597898D01*
X174837599Y-71440069D01*
X174840501Y-71403194D01*
X174840501Y-70212597D01*
X174860186Y-70145558D01*
X174876820Y-70124916D01*
X174927820Y-70073916D01*
X174989143Y-70040431D01*
X175058835Y-70045415D01*
X175114768Y-70087287D01*
X175139185Y-70152751D01*
X175139501Y-70161597D01*
X175139501Y-71403201D01*
X175142402Y-71440067D01*
X175142403Y-71440073D01*
X175188255Y-71597893D01*
X175188256Y-71597896D01*
X175271918Y-71739362D01*
X175271924Y-71739370D01*
X175388130Y-71855576D01*
X175388134Y-71855579D01*
X175388136Y-71855581D01*
X175529603Y-71939244D01*
X175571225Y-71951336D01*
X175687427Y-71985097D01*
X175687430Y-71985097D01*
X175687432Y-71985098D01*
X175724307Y-71988000D01*
X175724315Y-71988000D01*
X176155687Y-71988000D01*
X176155695Y-71988000D01*
X176192570Y-71985098D01*
X176192572Y-71985097D01*
X176192574Y-71985097D01*
X176234192Y-71973005D01*
X176350399Y-71939244D01*
X176491866Y-71855581D01*
X176608082Y-71739365D01*
X176691745Y-71597898D01*
X176737599Y-71440069D01*
X176740501Y-71403194D01*
X176740501Y-70096806D01*
X176737599Y-70059931D01*
X176733830Y-70046959D01*
X176691746Y-69902106D01*
X176691745Y-69902103D01*
X176691745Y-69902102D01*
X176624041Y-69787620D01*
X176606858Y-69719896D01*
X176629018Y-69653633D01*
X176683484Y-69609870D01*
X176730769Y-69600499D01*
X176983836Y-69600499D01*
X177050875Y-69620184D01*
X177071517Y-69636818D01*
X177249163Y-69814464D01*
X177282648Y-69875787D01*
X177277664Y-69945479D01*
X177249163Y-69989826D01*
X177217033Y-70021955D01*
X177217030Y-70021959D01*
X177128002Y-70166294D01*
X177127997Y-70166305D01*
X177074652Y-70327290D01*
X177064501Y-70426647D01*
X177064501Y-70973337D01*
X177064502Y-70973355D01*
X177074651Y-71072707D01*
X177074652Y-71072710D01*
X177127997Y-71233694D01*
X177128002Y-71233705D01*
X177217030Y-71378040D01*
X177217033Y-71378044D01*
X177336956Y-71497967D01*
X177336960Y-71497970D01*
X177481295Y-71586998D01*
X177481298Y-71586999D01*
X177481304Y-71587003D01*
X177642293Y-71640349D01*
X177741656Y-71650500D01*
X178338345Y-71650499D01*
X178338353Y-71650498D01*
X178338356Y-71650498D01*
X178392761Y-71644940D01*
X178437709Y-71640349D01*
X178598698Y-71587003D01*
X178743045Y-71497968D01*
X178762925Y-71478088D01*
X178824247Y-71444601D01*
X178893939Y-71449584D01*
X178916580Y-71460773D01*
X178940477Y-71475789D01*
X178940481Y-71475790D01*
X179110737Y-71535366D01*
X179110743Y-71535367D01*
X179110745Y-71535368D01*
X179110746Y-71535368D01*
X179110750Y-71535369D01*
X179289996Y-71555565D01*
X179290000Y-71555565D01*
X179290004Y-71555565D01*
X179469249Y-71535369D01*
X179469252Y-71535368D01*
X179469255Y-71535368D01*
X179639522Y-71475789D01*
X179641217Y-71474723D01*
X179649527Y-71469503D01*
X179716763Y-71450501D01*
X179783599Y-71470867D01*
X179828814Y-71524134D01*
X179839501Y-71574494D01*
X179839501Y-71797869D01*
X179839502Y-71797876D01*
X179845909Y-71857483D01*
X179896203Y-71992327D01*
X179896205Y-71992331D01*
X179914766Y-72017125D01*
X179939184Y-72082589D01*
X179939500Y-72091436D01*
X179939500Y-77563330D01*
X179939499Y-77563348D01*
X179939499Y-77729054D01*
X179939498Y-77729054D01*
X179980423Y-77881785D01*
X180009358Y-77931900D01*
X180009359Y-77931904D01*
X180009360Y-77931904D01*
X180059479Y-78018714D01*
X180059481Y-78018717D01*
X180178349Y-78137585D01*
X180178355Y-78137590D01*
X181485139Y-79444374D01*
X181485149Y-79444385D01*
X181489479Y-79448715D01*
X181489480Y-79448716D01*
X181601284Y-79560520D01*
X181601286Y-79560521D01*
X181601290Y-79560524D01*
X181694850Y-79614540D01*
X181738216Y-79639577D01*
X181807596Y-79658167D01*
X181867255Y-79694531D01*
X181897784Y-79757377D01*
X181899501Y-79777941D01*
X181899501Y-79977876D01*
X181905908Y-80037483D01*
X181956202Y-80172328D01*
X181956206Y-80172335D01*
X182042452Y-80287544D01*
X182042455Y-80287547D01*
X182157664Y-80373793D01*
X182157671Y-80373797D01*
X182292517Y-80424091D01*
X182292516Y-80424091D01*
X182299444Y-80424835D01*
X182352127Y-80430500D01*
X184147872Y-80430499D01*
X184207483Y-80424091D01*
X184342331Y-80373796D01*
X184457546Y-80287546D01*
X184543796Y-80172331D01*
X184592810Y-80040916D01*
X184634681Y-79984984D01*
X184700145Y-79960566D01*
X184768418Y-79975417D01*
X184796673Y-79996569D01*
X184918599Y-80118495D01*
X185015384Y-80186265D01*
X185112165Y-80254032D01*
X185112167Y-80254033D01*
X185112170Y-80254035D01*
X185326337Y-80353903D01*
X185554592Y-80415063D01*
X185731034Y-80430500D01*
X185789999Y-80435659D01*
X185790000Y-80435659D01*
X185790001Y-80435659D01*
X185848966Y-80430500D01*
X186025408Y-80415063D01*
X186253663Y-80353903D01*
X186467830Y-80254035D01*
X186661401Y-80118495D01*
X186828495Y-79951401D01*
X186964035Y-79757830D01*
X187063903Y-79543663D01*
X187125063Y-79315408D01*
X187145659Y-79080000D01*
X187125063Y-78844592D01*
X187063903Y-78616337D01*
X186964035Y-78402171D01*
X186937108Y-78363714D01*
X186828494Y-78208597D01*
X186661402Y-78041506D01*
X186661396Y-78041501D01*
X186475842Y-77911575D01*
X186432217Y-77856998D01*
X186425023Y-77787500D01*
X186456546Y-77725145D01*
X186475842Y-77708425D01*
X186569968Y-77642517D01*
X186661401Y-77578495D01*
X186828495Y-77411401D01*
X186964035Y-77217830D01*
X187063903Y-77003663D01*
X187125063Y-76775408D01*
X187145659Y-76540000D01*
X187125063Y-76304592D01*
X187076674Y-76124000D01*
X187063905Y-76076344D01*
X187063904Y-76076343D01*
X187063903Y-76076337D01*
X186964035Y-75862171D01*
X186944775Y-75834664D01*
X186828494Y-75668597D01*
X186661402Y-75501506D01*
X186661401Y-75501505D01*
X186475405Y-75371269D01*
X186431781Y-75316692D01*
X186424588Y-75247193D01*
X186456110Y-75184839D01*
X186475405Y-75168119D01*
X186661082Y-75038105D01*
X186828105Y-74871082D01*
X186963600Y-74677578D01*
X187063429Y-74463492D01*
X187063432Y-74463486D01*
X187120636Y-74250000D01*
X186223012Y-74250000D01*
X186255925Y-74192993D01*
X186290000Y-74065826D01*
X186290000Y-73934174D01*
X186255925Y-73807007D01*
X186223012Y-73750000D01*
X187120636Y-73750000D01*
X187120635Y-73749999D01*
X187063432Y-73536513D01*
X187063429Y-73536507D01*
X186963600Y-73322422D01*
X186963599Y-73322420D01*
X186828113Y-73128926D01*
X186828108Y-73128920D01*
X186661082Y-72961894D01*
X186467578Y-72826399D01*
X186253492Y-72726570D01*
X186253486Y-72726567D01*
X186040000Y-72669364D01*
X186040000Y-73566988D01*
X185982993Y-73534075D01*
X185855826Y-73500000D01*
X185724174Y-73500000D01*
X185597007Y-73534075D01*
X185540000Y-73566988D01*
X185540000Y-72669364D01*
X185539999Y-72669364D01*
X185326513Y-72726567D01*
X185326507Y-72726570D01*
X185112422Y-72826399D01*
X185112420Y-72826400D01*
X184918926Y-72961886D01*
X184918920Y-72961891D01*
X184751891Y-73128920D01*
X184751890Y-73128922D01*
X184621575Y-73315031D01*
X184566998Y-73358655D01*
X184497499Y-73365848D01*
X184435145Y-73334326D01*
X184418425Y-73315031D01*
X184288109Y-73128922D01*
X184288108Y-73128920D01*
X184121082Y-72961894D01*
X183927578Y-72826399D01*
X183713492Y-72726570D01*
X183713486Y-72726567D01*
X183500000Y-72669364D01*
X183500000Y-73566988D01*
X183442993Y-73534075D01*
X183315826Y-73500000D01*
X183184174Y-73500000D01*
X183057007Y-73534075D01*
X183000000Y-73566988D01*
X183000000Y-72669364D01*
X182999999Y-72669363D01*
X182796593Y-72723866D01*
X182726743Y-72722203D01*
X182668881Y-72683040D01*
X182641377Y-72618812D01*
X182640500Y-72604091D01*
X182640500Y-72091439D01*
X182660185Y-72024400D01*
X182665235Y-72017126D01*
X182677747Y-72000413D01*
X182683797Y-71992331D01*
X182734092Y-71857483D01*
X182740501Y-71797873D01*
X182740500Y-71224499D01*
X182760184Y-71157461D01*
X182812988Y-71111706D01*
X182864500Y-71100500D01*
X186073331Y-71100500D01*
X186073347Y-71100501D01*
X186080943Y-71100501D01*
X186239054Y-71100501D01*
X186239057Y-71100501D01*
X186391785Y-71059577D01*
X186441904Y-71030639D01*
X186528716Y-70980520D01*
X186640520Y-70868716D01*
X186640520Y-70868714D01*
X186650728Y-70858507D01*
X186650730Y-70858504D01*
X186847294Y-70661939D01*
X186908615Y-70628456D01*
X186967066Y-70629847D01*
X186986604Y-70635082D01*
X187063308Y-70655635D01*
X187225230Y-70669801D01*
X187289998Y-70675468D01*
X187290000Y-70675468D01*
X187290002Y-70675468D01*
X187346673Y-70670509D01*
X187516692Y-70655635D01*
X187736496Y-70596739D01*
X187942734Y-70500568D01*
X188129139Y-70370047D01*
X188290047Y-70209139D01*
X188420568Y-70022734D01*
X188516739Y-69816496D01*
X188575635Y-69596692D01*
X188595468Y-69370000D01*
X188575635Y-69143308D01*
X188516739Y-68923504D01*
X188420568Y-68717266D01*
X188319147Y-68572420D01*
X188290045Y-68530858D01*
X188129141Y-68369954D01*
X187942734Y-68239432D01*
X187942728Y-68239429D01*
X187884725Y-68212382D01*
X187832285Y-68166210D01*
X187813133Y-68099017D01*
X187833348Y-68032135D01*
X187884725Y-67987618D01*
X187942734Y-67960568D01*
X188129139Y-67830047D01*
X188290047Y-67669139D01*
X188420568Y-67482734D01*
X188516739Y-67276496D01*
X188575635Y-67056692D01*
X188595468Y-66830000D01*
X188575635Y-66603308D01*
X188516739Y-66383504D01*
X188420568Y-66177266D01*
X188290047Y-65990861D01*
X188290045Y-65990858D01*
X188129141Y-65829954D01*
X187942734Y-65699432D01*
X187942728Y-65699429D01*
X187899473Y-65679259D01*
X187884724Y-65672381D01*
X187832285Y-65626210D01*
X187813133Y-65559017D01*
X187833348Y-65492135D01*
X187884725Y-65447618D01*
X187942734Y-65420568D01*
X188129139Y-65290047D01*
X188290047Y-65129139D01*
X188420568Y-64942734D01*
X188516739Y-64736496D01*
X188575635Y-64516692D01*
X188595468Y-64290000D01*
X188575635Y-64063308D01*
X188516739Y-63843504D01*
X188420568Y-63637266D01*
X188290047Y-63450861D01*
X188290045Y-63450858D01*
X188129143Y-63289956D01*
X188104536Y-63272726D01*
X188060912Y-63218149D01*
X188053719Y-63148650D01*
X188085241Y-63086296D01*
X188145471Y-63050882D01*
X188162404Y-63047861D01*
X188197483Y-63044091D01*
X188332331Y-62993796D01*
X188447546Y-62907546D01*
X188533796Y-62792331D01*
X188584091Y-62657483D01*
X188590500Y-62597873D01*
X188590499Y-60902128D01*
X188584091Y-60842517D01*
X188549567Y-60749954D01*
X188533797Y-60707671D01*
X188533793Y-60707664D01*
X188447547Y-60592455D01*
X188447544Y-60592452D01*
X188332335Y-60506206D01*
X188332328Y-60506202D01*
X188197482Y-60455908D01*
X188197483Y-60455908D01*
X188137883Y-60449501D01*
X188137881Y-60449500D01*
X188137873Y-60449500D01*
X188137865Y-60449500D01*
X186445378Y-60449500D01*
X186378339Y-60429815D01*
X186332584Y-60377011D01*
X186322640Y-60307853D01*
X186351665Y-60244297D01*
X186363709Y-60232194D01*
X187445399Y-59285716D01*
X187506893Y-59221523D01*
X187534071Y-59187630D01*
X187583373Y-59113651D01*
X187583373Y-59113649D01*
X187587346Y-59107689D01*
X187589851Y-59109358D01*
X187628531Y-59068450D01*
X187696362Y-59051694D01*
X187762484Y-59074269D01*
X187778661Y-59087896D01*
X191903181Y-63212416D01*
X191936666Y-63273739D01*
X191939500Y-63300097D01*
X191939500Y-66913330D01*
X191939499Y-66913348D01*
X191939499Y-67079054D01*
X191939498Y-67079054D01*
X191973716Y-67206753D01*
X191980423Y-67231785D01*
X191994720Y-67256547D01*
X192025201Y-67309342D01*
X192059479Y-67368715D01*
X192178349Y-67487585D01*
X192178355Y-67487590D01*
X193618058Y-68927293D01*
X193651543Y-68988616D01*
X193650152Y-69047067D01*
X193624366Y-69143302D01*
X193624364Y-69143313D01*
X193604532Y-69369998D01*
X193604532Y-69370001D01*
X193624364Y-69596686D01*
X193624366Y-69596697D01*
X193683258Y-69816488D01*
X193683261Y-69816497D01*
X193779431Y-70022732D01*
X193779432Y-70022734D01*
X193909954Y-70209141D01*
X194070858Y-70370045D01*
X194070861Y-70370047D01*
X194257266Y-70500568D01*
X194463504Y-70596739D01*
X194683308Y-70655635D01*
X194845230Y-70669801D01*
X194909998Y-70675468D01*
X194910000Y-70675468D01*
X194910002Y-70675468D01*
X194966673Y-70670509D01*
X195136692Y-70655635D01*
X195356496Y-70596739D01*
X195562734Y-70500568D01*
X195749139Y-70370047D01*
X195910047Y-70209139D01*
X196023926Y-70046500D01*
X196078501Y-70002877D01*
X196147999Y-69995683D01*
X196210354Y-70027205D01*
X196245769Y-70087435D01*
X196249500Y-70117625D01*
X196249500Y-87108106D01*
X196229815Y-87175145D01*
X196177011Y-87220900D01*
X196107853Y-87230844D01*
X196044297Y-87201819D01*
X196023925Y-87179229D01*
X195955046Y-87080859D01*
X195794141Y-86919954D01*
X195607734Y-86789432D01*
X195607732Y-86789431D01*
X195401497Y-86693261D01*
X195401488Y-86693258D01*
X195181697Y-86634366D01*
X195181693Y-86634365D01*
X195181692Y-86634365D01*
X195181691Y-86634364D01*
X195181686Y-86634364D01*
X194955002Y-86614532D01*
X194954998Y-86614532D01*
X194728313Y-86634364D01*
X194728302Y-86634366D01*
X194508511Y-86693258D01*
X194508502Y-86693261D01*
X194302267Y-86789431D01*
X194302265Y-86789432D01*
X194115858Y-86919954D01*
X193954956Y-87080856D01*
X193891512Y-87171464D01*
X193836935Y-87215089D01*
X193767436Y-87222281D01*
X193705082Y-87190759D01*
X193702256Y-87188021D01*
X189072590Y-82558355D01*
X189072588Y-82558352D01*
X188953717Y-82439481D01*
X188953716Y-82439480D01*
X188866904Y-82389360D01*
X188866904Y-82389359D01*
X188866900Y-82389358D01*
X188816785Y-82360423D01*
X188664057Y-82319499D01*
X188505943Y-82319499D01*
X188498347Y-82319499D01*
X188498331Y-82319500D01*
X188426439Y-82319500D01*
X188359400Y-82299815D01*
X188352128Y-82294767D01*
X188327331Y-82276204D01*
X188327328Y-82276202D01*
X188192486Y-82225910D01*
X188192485Y-82225909D01*
X188192483Y-82225909D01*
X188132873Y-82219500D01*
X188132864Y-82219500D01*
X187583957Y-82219500D01*
X187516918Y-82199815D01*
X187481890Y-82164790D01*
X187481602Y-82165006D01*
X187480100Y-82163000D01*
X187479646Y-82162546D01*
X187478952Y-82161466D01*
X187478940Y-82161451D01*
X187433196Y-82108659D01*
X187433192Y-82108656D01*
X187433190Y-82108653D01*
X187324456Y-82014433D01*
X187324453Y-82014431D01*
X187324451Y-82014430D01*
X187193585Y-81954664D01*
X187193580Y-81954662D01*
X187193579Y-81954662D01*
X187126540Y-81934977D01*
X187126542Y-81934977D01*
X187126537Y-81934976D01*
X187079064Y-81928150D01*
X186984120Y-81914500D01*
X186984118Y-81914500D01*
X186706231Y-81914500D01*
X186660179Y-81905631D01*
X185767595Y-81548597D01*
X185544908Y-81459522D01*
X185452770Y-81432491D01*
X185452766Y-81432490D01*
X185452759Y-81432488D01*
X185440865Y-81430197D01*
X185406708Y-81423619D01*
X185311129Y-81414500D01*
X185311121Y-81414500D01*
X183007908Y-81414500D01*
X183007906Y-81414500D01*
X182953857Y-81417397D01*
X182953856Y-81417397D01*
X182927523Y-81420229D01*
X182927496Y-81420232D01*
X182874106Y-81428884D01*
X182874100Y-81428885D01*
X182739304Y-81479160D01*
X182739297Y-81479163D01*
X182684464Y-81509103D01*
X182683355Y-81509626D01*
X182677969Y-81512649D01*
X182562783Y-81598876D01*
X182476562Y-81714054D01*
X182476557Y-81714061D01*
X182467892Y-81729931D01*
X182418485Y-81779334D01*
X182359062Y-81794500D01*
X180687130Y-81794500D01*
X180687124Y-81794501D01*
X180627517Y-81800908D01*
X180492672Y-81851202D01*
X180492665Y-81851206D01*
X180377456Y-81937452D01*
X180377453Y-81937455D01*
X180291207Y-82052664D01*
X180291203Y-82052671D01*
X180240909Y-82187517D01*
X180234502Y-82247116D01*
X180234501Y-82247135D01*
X180234501Y-84042870D01*
X180234502Y-84042876D01*
X180240909Y-84102483D01*
X180291203Y-84237328D01*
X180291207Y-84237335D01*
X180377453Y-84352544D01*
X180377456Y-84352547D01*
X180492665Y-84438793D01*
X180492672Y-84438797D01*
X180624082Y-84487810D01*
X180680016Y-84529681D01*
X180704433Y-84595145D01*
X180689581Y-84663418D01*
X180668431Y-84691673D01*
X180546504Y-84813600D01*
X180410966Y-85007169D01*
X180410965Y-85007171D01*
X180311099Y-85221335D01*
X180311095Y-85221344D01*
X180249939Y-85449586D01*
X180249937Y-85449596D01*
X180229342Y-85684999D01*
X180229342Y-85685000D01*
X180249937Y-85920403D01*
X180249939Y-85920413D01*
X180311095Y-86148655D01*
X180311097Y-86148659D01*
X180311098Y-86148663D01*
X180379366Y-86295063D01*
X180410966Y-86362830D01*
X180410968Y-86362834D01*
X180546502Y-86556395D01*
X180546507Y-86556402D01*
X180713598Y-86723493D01*
X180713604Y-86723498D01*
X180899159Y-86853425D01*
X180942784Y-86908002D01*
X180949978Y-86977500D01*
X180918455Y-87039855D01*
X180899159Y-87056575D01*
X180713598Y-87186505D01*
X180546506Y-87353597D01*
X180410966Y-87547169D01*
X180410965Y-87547171D01*
X180311099Y-87761335D01*
X180311095Y-87761344D01*
X180249939Y-87989586D01*
X180249937Y-87989596D01*
X180229342Y-88224999D01*
X180229342Y-88225000D01*
X180249937Y-88460403D01*
X180249939Y-88460413D01*
X180311095Y-88688655D01*
X180311097Y-88688659D01*
X180311098Y-88688663D01*
X180388530Y-88854716D01*
X180410966Y-88902830D01*
X180410968Y-88902834D01*
X180463218Y-88977454D01*
X180546506Y-89096401D01*
X180713600Y-89263495D01*
X180807763Y-89329429D01*
X180907166Y-89399032D01*
X180907168Y-89399033D01*
X180907171Y-89399035D01*
X181121338Y-89498903D01*
X181121344Y-89498904D01*
X181121345Y-89498905D01*
X181154061Y-89507671D01*
X181349593Y-89560063D01*
X181537919Y-89576539D01*
X181585000Y-89580659D01*
X181585001Y-89580659D01*
X181585002Y-89580659D01*
X181624235Y-89577226D01*
X181820409Y-89560063D01*
X182048664Y-89498903D01*
X182198016Y-89429258D01*
X182267091Y-89418767D01*
X182330875Y-89447286D01*
X182368073Y-89502482D01*
X182386384Y-89557497D01*
X182386386Y-89557503D01*
X182464171Y-89678537D01*
X182464179Y-89678548D01*
X182509923Y-89731340D01*
X182509926Y-89731343D01*
X182509930Y-89731347D01*
X182618664Y-89825567D01*
X182618667Y-89825568D01*
X182618668Y-89825569D01*
X182712925Y-89868616D01*
X182749541Y-89885338D01*
X182816580Y-89905023D01*
X182816584Y-89905024D01*
X182959000Y-89925500D01*
X182959003Y-89925500D01*
X185210990Y-89925500D01*
X185211000Y-89925500D01*
X185318456Y-89913947D01*
X185369967Y-89902741D01*
X185414268Y-89887996D01*
X185472497Y-89868616D01*
X185472501Y-89868613D01*
X185472504Y-89868613D01*
X185593543Y-89790825D01*
X185646347Y-89745070D01*
X185740567Y-89636336D01*
X185800338Y-89505459D01*
X185820023Y-89438420D01*
X185820024Y-89438416D01*
X185840500Y-89296000D01*
X185840500Y-88977454D01*
X185860185Y-88910415D01*
X185912989Y-88864660D01*
X185982147Y-88854716D01*
X186045703Y-88883741D01*
X186080682Y-88934121D01*
X186091202Y-88962328D01*
X186091206Y-88962335D01*
X186177452Y-89077544D01*
X186177455Y-89077547D01*
X186292664Y-89163793D01*
X186292671Y-89163797D01*
X186337618Y-89180561D01*
X186427517Y-89214091D01*
X186462596Y-89217862D01*
X186527144Y-89244599D01*
X186566993Y-89301991D01*
X186569488Y-89371816D01*
X186533836Y-89431905D01*
X186520464Y-89442725D01*
X186495858Y-89459954D01*
X186334954Y-89620858D01*
X186204432Y-89807265D01*
X186204431Y-89807267D01*
X186108261Y-90013502D01*
X186108258Y-90013511D01*
X186049366Y-90233302D01*
X186049364Y-90233313D01*
X186029532Y-90459998D01*
X186029532Y-90460001D01*
X186049364Y-90686686D01*
X186049366Y-90686697D01*
X186108258Y-90906488D01*
X186108261Y-90906497D01*
X186204431Y-91112732D01*
X186204432Y-91112734D01*
X186334954Y-91299141D01*
X186495858Y-91460045D01*
X186520454Y-91477267D01*
X186682266Y-91590568D01*
X186740275Y-91617618D01*
X186792714Y-91663791D01*
X186811866Y-91730984D01*
X186791650Y-91797865D01*
X186740275Y-91842381D01*
X186731731Y-91846366D01*
X186682267Y-91869431D01*
X186682265Y-91869432D01*
X186495858Y-91999954D01*
X186334954Y-92160858D01*
X186204432Y-92347265D01*
X186204431Y-92347267D01*
X186108261Y-92553502D01*
X186108258Y-92553511D01*
X186049366Y-92773302D01*
X186049364Y-92773313D01*
X186029532Y-92999998D01*
X186029532Y-93000001D01*
X186049364Y-93226686D01*
X186049366Y-93226697D01*
X186108258Y-93446488D01*
X186108261Y-93446497D01*
X186204431Y-93652732D01*
X186204432Y-93652734D01*
X186334954Y-93839141D01*
X186495858Y-94000045D01*
X186520454Y-94017267D01*
X186682266Y-94130568D01*
X186738439Y-94156762D01*
X186740275Y-94157618D01*
X186792714Y-94203791D01*
X186811866Y-94270984D01*
X186791650Y-94337865D01*
X186740275Y-94382382D01*
X186682267Y-94409431D01*
X186682265Y-94409432D01*
X186495858Y-94539954D01*
X186334954Y-94700858D01*
X186204432Y-94887265D01*
X186204431Y-94887267D01*
X186108261Y-95093502D01*
X186108258Y-95093511D01*
X186049366Y-95313302D01*
X186049364Y-95313313D01*
X186029532Y-95539998D01*
X186029532Y-95540001D01*
X186049364Y-95766686D01*
X186049366Y-95766697D01*
X186075152Y-95862931D01*
X186073489Y-95932781D01*
X186043059Y-95982704D01*
X185992584Y-96033180D01*
X185931261Y-96066666D01*
X185904902Y-96069500D01*
X182809500Y-96069500D01*
X182742461Y-96049815D01*
X182696706Y-95997011D01*
X182685500Y-95945500D01*
X182685500Y-95312001D01*
X182685501Y-95311988D01*
X182685501Y-95143887D01*
X182685501Y-95143885D01*
X182644577Y-94991157D01*
X182615639Y-94941037D01*
X182565520Y-94854226D01*
X182453716Y-94742422D01*
X182453715Y-94742421D01*
X182449385Y-94738091D01*
X182449374Y-94738081D01*
X179819648Y-92108355D01*
X179819646Y-92108352D01*
X179700775Y-91989481D01*
X179700774Y-91989480D01*
X179598518Y-91930443D01*
X179598517Y-91930442D01*
X179571694Y-91914956D01*
X179563843Y-91910423D01*
X179563842Y-91910422D01*
X179563841Y-91910422D01*
X179507939Y-91895443D01*
X179411115Y-91869499D01*
X179253001Y-91869499D01*
X179245405Y-91869499D01*
X179245389Y-91869500D01*
X178697000Y-91869500D01*
X178629961Y-91849815D01*
X178584206Y-91797011D01*
X178573000Y-91745500D01*
X178573000Y-91680636D01*
X178557547Y-91563246D01*
X178557545Y-91563239D01*
X178557545Y-91563238D01*
X178497037Y-91417159D01*
X178400783Y-91291718D01*
X178275342Y-91195464D01*
X178220404Y-91172708D01*
X178129263Y-91134956D01*
X178129261Y-91134955D01*
X178011871Y-91119501D01*
X178011868Y-91119500D01*
X178011862Y-91119500D01*
X178011855Y-91119500D01*
X176809500Y-91119500D01*
X176742461Y-91099815D01*
X176696706Y-91047011D01*
X176685500Y-90995500D01*
X176685500Y-90278309D01*
X176705185Y-90211270D01*
X176721820Y-90190627D01*
X176753077Y-90159370D01*
X176753082Y-90159365D01*
X176836745Y-90017898D01*
X176875258Y-89885338D01*
X176882598Y-89860073D01*
X176882599Y-89860067D01*
X176882632Y-89859650D01*
X176885501Y-89823194D01*
X176885501Y-88516806D01*
X176882599Y-88479931D01*
X176876928Y-88460413D01*
X176836746Y-88322106D01*
X176836745Y-88322103D01*
X176836745Y-88322102D01*
X176753082Y-88180635D01*
X176753080Y-88180633D01*
X176753077Y-88180629D01*
X176636871Y-88064423D01*
X176636863Y-88064417D01*
X176527939Y-88000000D01*
X176495399Y-87980756D01*
X176495398Y-87980755D01*
X176495397Y-87980755D01*
X176495394Y-87980754D01*
X176337574Y-87934902D01*
X176337568Y-87934901D01*
X176300702Y-87932000D01*
X176300695Y-87932000D01*
X175869307Y-87932000D01*
X175869299Y-87932000D01*
X175832433Y-87934901D01*
X175832427Y-87934902D01*
X175674607Y-87980754D01*
X175674604Y-87980755D01*
X175533138Y-88064417D01*
X175533130Y-88064423D01*
X175416924Y-88180629D01*
X175416918Y-88180637D01*
X175333256Y-88322103D01*
X175333255Y-88322106D01*
X175287403Y-88479926D01*
X175287402Y-88479932D01*
X175284501Y-88516798D01*
X175284501Y-89823201D01*
X175287402Y-89860067D01*
X175287403Y-89860073D01*
X175333255Y-90017893D01*
X175333256Y-90017896D01*
X175333257Y-90017898D01*
X175339899Y-90029129D01*
X175416918Y-90159362D01*
X175416924Y-90159370D01*
X175448180Y-90190625D01*
X175481666Y-90251947D01*
X175484500Y-90278307D01*
X175484500Y-90776859D01*
X175464815Y-90843898D01*
X175412011Y-90889653D01*
X175342853Y-90899597D01*
X175279297Y-90870572D01*
X175272819Y-90864540D01*
X174821819Y-90413540D01*
X174788334Y-90352217D01*
X174785500Y-90325859D01*
X174785500Y-90278309D01*
X174805185Y-90211270D01*
X174821820Y-90190627D01*
X174853077Y-90159370D01*
X174853082Y-90159365D01*
X174936745Y-90017898D01*
X174975258Y-89885338D01*
X174982598Y-89860073D01*
X174982599Y-89860067D01*
X174982632Y-89859650D01*
X174985501Y-89823194D01*
X174985501Y-88516806D01*
X174982599Y-88479931D01*
X174976928Y-88460413D01*
X174936746Y-88322106D01*
X174936745Y-88322103D01*
X174936745Y-88322102D01*
X174853082Y-88180635D01*
X174853080Y-88180633D01*
X174853077Y-88180629D01*
X174736871Y-88064423D01*
X174736863Y-88064417D01*
X174627939Y-88000000D01*
X174595399Y-87980756D01*
X174595398Y-87980755D01*
X174595397Y-87980755D01*
X174595394Y-87980754D01*
X174437574Y-87934902D01*
X174437568Y-87934901D01*
X174400702Y-87932000D01*
X174400695Y-87932000D01*
X173969307Y-87932000D01*
X173969299Y-87932000D01*
X173932433Y-87934901D01*
X173932427Y-87934902D01*
X173774607Y-87980754D01*
X173774604Y-87980755D01*
X173633138Y-88064417D01*
X173633130Y-88064423D01*
X173516924Y-88180629D01*
X173516918Y-88180637D01*
X173433256Y-88322103D01*
X173433255Y-88322106D01*
X173387403Y-88479926D01*
X173387402Y-88479932D01*
X173384501Y-88516798D01*
X173384501Y-89823201D01*
X173387402Y-89860067D01*
X173387403Y-89860073D01*
X173433255Y-90017893D01*
X173433256Y-90017896D01*
X173433257Y-90017898D01*
X173439899Y-90029129D01*
X173516918Y-90159362D01*
X173516924Y-90159370D01*
X173548180Y-90190625D01*
X173581666Y-90251947D01*
X173584500Y-90278307D01*
X173584500Y-90539286D01*
X173584499Y-90539304D01*
X173584499Y-90705010D01*
X173584498Y-90705010D01*
X173584499Y-90705013D01*
X173621839Y-90844366D01*
X173625424Y-90857743D01*
X173642663Y-90887601D01*
X173642664Y-90887603D01*
X173704477Y-90994668D01*
X173704481Y-90994673D01*
X173823349Y-91113541D01*
X173823355Y-91113546D01*
X176026356Y-93316547D01*
X176059841Y-93377870D01*
X176054857Y-93447562D01*
X176026356Y-93491909D01*
X173856257Y-95662007D01*
X173803172Y-95693402D01*
X173674605Y-95730754D01*
X173674604Y-95730755D01*
X173533138Y-95814417D01*
X173533130Y-95814423D01*
X173416924Y-95930629D01*
X173416918Y-95930637D01*
X173333256Y-96072103D01*
X173333255Y-96072106D01*
X173287403Y-96229926D01*
X173287402Y-96229932D01*
X173284501Y-96266798D01*
X173284501Y-97573201D01*
X173287402Y-97610067D01*
X173287403Y-97610073D01*
X173333255Y-97767893D01*
X173333256Y-97767896D01*
X173416918Y-97909362D01*
X173416924Y-97909370D01*
X173533130Y-98025576D01*
X173533134Y-98025579D01*
X173533136Y-98025581D01*
X173674603Y-98109244D01*
X173685817Y-98112502D01*
X173832427Y-98155097D01*
X173832430Y-98155097D01*
X173832432Y-98155098D01*
X173869307Y-98158000D01*
X173869315Y-98158000D01*
X174300687Y-98158000D01*
X174300695Y-98158000D01*
X174337570Y-98155098D01*
X174337572Y-98155097D01*
X174337574Y-98155097D01*
X174419248Y-98131368D01*
X174495399Y-98109244D01*
X174636866Y-98025581D01*
X174753082Y-97909365D01*
X174836745Y-97767898D01*
X174882599Y-97610069D01*
X174885501Y-97573194D01*
X174885501Y-96382597D01*
X174905186Y-96315558D01*
X174921820Y-96294916D01*
X174972820Y-96243916D01*
X175034143Y-96210431D01*
X175103835Y-96215415D01*
X175159768Y-96257287D01*
X175184185Y-96322751D01*
X175184501Y-96331597D01*
X175184501Y-97573201D01*
X175187402Y-97610067D01*
X175187403Y-97610073D01*
X175233255Y-97767893D01*
X175233256Y-97767896D01*
X175316918Y-97909362D01*
X175316924Y-97909370D01*
X175433130Y-98025576D01*
X175433134Y-98025579D01*
X175433136Y-98025581D01*
X175574603Y-98109244D01*
X175585817Y-98112502D01*
X175732427Y-98155097D01*
X175732430Y-98155097D01*
X175732432Y-98155098D01*
X175769307Y-98158000D01*
X175769315Y-98158000D01*
X176200687Y-98158000D01*
X176200695Y-98158000D01*
X176237570Y-98155098D01*
X176237572Y-98155097D01*
X176237574Y-98155097D01*
X176319248Y-98131368D01*
X176395399Y-98109244D01*
X176536866Y-98025581D01*
X176653082Y-97909365D01*
X176736745Y-97767898D01*
X176782599Y-97610069D01*
X176785501Y-97573194D01*
X176785501Y-96266806D01*
X176782599Y-96229931D01*
X176778830Y-96216959D01*
X176739273Y-96080805D01*
X176736745Y-96072102D01*
X176669041Y-95957620D01*
X176651858Y-95889896D01*
X176674018Y-95823633D01*
X176728484Y-95779870D01*
X176775769Y-95770499D01*
X177028836Y-95770499D01*
X177095875Y-95790184D01*
X177116517Y-95806818D01*
X177294163Y-95984464D01*
X177327648Y-96045787D01*
X177322664Y-96115479D01*
X177294163Y-96159826D01*
X177262033Y-96191955D01*
X177262030Y-96191959D01*
X177173002Y-96336294D01*
X177172997Y-96336305D01*
X177119652Y-96497290D01*
X177109501Y-96596647D01*
X177109501Y-97143337D01*
X177109502Y-97143355D01*
X177119651Y-97242707D01*
X177119652Y-97242710D01*
X177172997Y-97403694D01*
X177173002Y-97403705D01*
X177262030Y-97548040D01*
X177262033Y-97548044D01*
X177381956Y-97667967D01*
X177381960Y-97667970D01*
X177526295Y-97756998D01*
X177526298Y-97756999D01*
X177526304Y-97757003D01*
X177687293Y-97810349D01*
X177786656Y-97820500D01*
X178383345Y-97820499D01*
X178383353Y-97820498D01*
X178383356Y-97820498D01*
X178437761Y-97814940D01*
X178482709Y-97810349D01*
X178643698Y-97757003D01*
X178788045Y-97667968D01*
X178807925Y-97648088D01*
X178869247Y-97614601D01*
X178938939Y-97619584D01*
X178961580Y-97630773D01*
X178985477Y-97645789D01*
X178985481Y-97645790D01*
X179155737Y-97705366D01*
X179155743Y-97705367D01*
X179155745Y-97705368D01*
X179155746Y-97705368D01*
X179155750Y-97705369D01*
X179334996Y-97725565D01*
X179335000Y-97725565D01*
X179335004Y-97725565D01*
X179514249Y-97705369D01*
X179514252Y-97705368D01*
X179514255Y-97705368D01*
X179684522Y-97645789D01*
X179686217Y-97644723D01*
X179694527Y-97639503D01*
X179761763Y-97620501D01*
X179828599Y-97640867D01*
X179873814Y-97694134D01*
X179884501Y-97744494D01*
X179884501Y-97967869D01*
X179884502Y-97967876D01*
X179890909Y-98027483D01*
X179941203Y-98162327D01*
X179941205Y-98162331D01*
X179959766Y-98187125D01*
X179984184Y-98252589D01*
X179984500Y-98261436D01*
X179984500Y-103733330D01*
X179984499Y-103733348D01*
X179984499Y-103899054D01*
X179984498Y-103899054D01*
X179984499Y-103899057D01*
X180025423Y-104051785D01*
X180039383Y-104075965D01*
X180041260Y-104079215D01*
X180041261Y-104079217D01*
X180104477Y-104188712D01*
X180104481Y-104188717D01*
X180223349Y-104307585D01*
X180223355Y-104307590D01*
X181530139Y-105614374D01*
X181530149Y-105614385D01*
X181534479Y-105618715D01*
X181534480Y-105618716D01*
X181646284Y-105730520D01*
X181646286Y-105730521D01*
X181646290Y-105730524D01*
X181783209Y-105809573D01*
X181783216Y-105809577D01*
X181852595Y-105828166D01*
X181912255Y-105864531D01*
X181942784Y-105927377D01*
X181944501Y-105947941D01*
X181944501Y-106147876D01*
X181950908Y-106207483D01*
X182001202Y-106342328D01*
X182001206Y-106342335D01*
X182087452Y-106457544D01*
X182087455Y-106457547D01*
X182202664Y-106543793D01*
X182202671Y-106543797D01*
X182337517Y-106594091D01*
X182337516Y-106594091D01*
X182344444Y-106594835D01*
X182397127Y-106600500D01*
X184192872Y-106600499D01*
X184252483Y-106594091D01*
X184387331Y-106543796D01*
X184502546Y-106457546D01*
X184588796Y-106342331D01*
X184637810Y-106210916D01*
X184679681Y-106154984D01*
X184745145Y-106130566D01*
X184813418Y-106145417D01*
X184841673Y-106166569D01*
X184963599Y-106288495D01*
X185060384Y-106356265D01*
X185157165Y-106424032D01*
X185157167Y-106424033D01*
X185157170Y-106424035D01*
X185371337Y-106523903D01*
X185599592Y-106585063D01*
X185776034Y-106600500D01*
X185834999Y-106605659D01*
X185835000Y-106605659D01*
X185835001Y-106605659D01*
X185893966Y-106600500D01*
X186070408Y-106585063D01*
X186298663Y-106523903D01*
X186512830Y-106424035D01*
X186706401Y-106288495D01*
X186873495Y-106121401D01*
X187009035Y-105927830D01*
X187108903Y-105713663D01*
X187170063Y-105485408D01*
X187190659Y-105250000D01*
X187170063Y-105014592D01*
X187108903Y-104786337D01*
X187009035Y-104572171D01*
X186873495Y-104378599D01*
X186873494Y-104378597D01*
X186706402Y-104211506D01*
X186706396Y-104211501D01*
X186520842Y-104081575D01*
X186477217Y-104026998D01*
X186470023Y-103957500D01*
X186501546Y-103895145D01*
X186520842Y-103878425D01*
X186543026Y-103862891D01*
X186706401Y-103748495D01*
X186873495Y-103581401D01*
X187009035Y-103387830D01*
X187108903Y-103173663D01*
X187170063Y-102945408D01*
X187190659Y-102710000D01*
X187170063Y-102474592D01*
X187108903Y-102246337D01*
X187009035Y-102032171D01*
X186873495Y-101838599D01*
X186873494Y-101838597D01*
X186706402Y-101671506D01*
X186706401Y-101671505D01*
X186520405Y-101541269D01*
X186476781Y-101486692D01*
X186469588Y-101417193D01*
X186501110Y-101354839D01*
X186520405Y-101338119D01*
X186706082Y-101208105D01*
X186873105Y-101041082D01*
X187008600Y-100847578D01*
X187108429Y-100633492D01*
X187108432Y-100633486D01*
X187165636Y-100420000D01*
X186268012Y-100420000D01*
X186300925Y-100362993D01*
X186335000Y-100235826D01*
X186335000Y-100104174D01*
X186300925Y-99977007D01*
X186268012Y-99920000D01*
X187165636Y-99920000D01*
X187165635Y-99919999D01*
X187108432Y-99706513D01*
X187108429Y-99706507D01*
X187008600Y-99492422D01*
X187008599Y-99492420D01*
X186873113Y-99298926D01*
X186873108Y-99298920D01*
X186706082Y-99131894D01*
X186512578Y-98996399D01*
X186298492Y-98896570D01*
X186298486Y-98896567D01*
X186085000Y-98839364D01*
X186085000Y-99736988D01*
X186027993Y-99704075D01*
X185900826Y-99670000D01*
X185769174Y-99670000D01*
X185642007Y-99704075D01*
X185585000Y-99736988D01*
X185585000Y-98839364D01*
X185584999Y-98839364D01*
X185371513Y-98896567D01*
X185371507Y-98896570D01*
X185157422Y-98996399D01*
X185157420Y-98996400D01*
X184963926Y-99131886D01*
X184963920Y-99131891D01*
X184796891Y-99298920D01*
X184796890Y-99298922D01*
X184666575Y-99485031D01*
X184611998Y-99528655D01*
X184542499Y-99535848D01*
X184480145Y-99504326D01*
X184463425Y-99485031D01*
X184333109Y-99298922D01*
X184333108Y-99298920D01*
X184166082Y-99131894D01*
X183972578Y-98996399D01*
X183758492Y-98896570D01*
X183758486Y-98896567D01*
X183545000Y-98839364D01*
X183545000Y-99736988D01*
X183487993Y-99704075D01*
X183360826Y-99670000D01*
X183229174Y-99670000D01*
X183102007Y-99704075D01*
X183045000Y-99736988D01*
X183045000Y-98839364D01*
X183044999Y-98839363D01*
X182841593Y-98893866D01*
X182771743Y-98892203D01*
X182713881Y-98853040D01*
X182686377Y-98788812D01*
X182685500Y-98774091D01*
X182685500Y-98261439D01*
X182705185Y-98194400D01*
X182710235Y-98187126D01*
X182722235Y-98171097D01*
X182728797Y-98162331D01*
X182779092Y-98027483D01*
X182785501Y-97967873D01*
X182785500Y-97394499D01*
X182805184Y-97327461D01*
X182857988Y-97281706D01*
X182909500Y-97270500D01*
X186118331Y-97270500D01*
X186118347Y-97270501D01*
X186125943Y-97270501D01*
X186284054Y-97270501D01*
X186284057Y-97270501D01*
X186436785Y-97229577D01*
X186487149Y-97200499D01*
X186573716Y-97150520D01*
X186685520Y-97038716D01*
X186685520Y-97038714D01*
X186695724Y-97028511D01*
X186695728Y-97028506D01*
X186892294Y-96831939D01*
X186953615Y-96798456D01*
X187012066Y-96799847D01*
X187031604Y-96805082D01*
X187108308Y-96825635D01*
X187270230Y-96839801D01*
X187334998Y-96845468D01*
X187335000Y-96845468D01*
X187335002Y-96845468D01*
X187391673Y-96840509D01*
X187561692Y-96825635D01*
X187781496Y-96766739D01*
X187987734Y-96670568D01*
X188174139Y-96540047D01*
X188335047Y-96379139D01*
X188465568Y-96192734D01*
X188561739Y-95986496D01*
X188620635Y-95766692D01*
X188640468Y-95540000D01*
X188620635Y-95313308D01*
X188561739Y-95093504D01*
X188465568Y-94887266D01*
X188364147Y-94742420D01*
X188335045Y-94700858D01*
X188174141Y-94539954D01*
X187987734Y-94409432D01*
X187987728Y-94409429D01*
X187929725Y-94382382D01*
X187877285Y-94336210D01*
X187858133Y-94269017D01*
X187878348Y-94202135D01*
X187929725Y-94157618D01*
X187931561Y-94156762D01*
X187987734Y-94130568D01*
X188174139Y-94000047D01*
X188335047Y-93839139D01*
X188465568Y-93652734D01*
X188561739Y-93446496D01*
X188620635Y-93226692D01*
X188640468Y-93000000D01*
X188639876Y-92993238D01*
X188633580Y-92921265D01*
X188620635Y-92773308D01*
X188562517Y-92556407D01*
X188561741Y-92553511D01*
X188561738Y-92553502D01*
X188547087Y-92522083D01*
X188465568Y-92347266D01*
X188354124Y-92188106D01*
X188335045Y-92160858D01*
X188174141Y-91999954D01*
X187987734Y-91869432D01*
X187987728Y-91869429D01*
X187947081Y-91850475D01*
X187929724Y-91842381D01*
X187877285Y-91796210D01*
X187858133Y-91729017D01*
X187878348Y-91662135D01*
X187929725Y-91617618D01*
X187987734Y-91590568D01*
X188174139Y-91460047D01*
X188335047Y-91299139D01*
X188465568Y-91112734D01*
X188561739Y-90906496D01*
X188620635Y-90686692D01*
X188640468Y-90460000D01*
X188638755Y-90440426D01*
X188628732Y-90325859D01*
X188620635Y-90233308D01*
X188561739Y-90013504D01*
X188465568Y-89807266D01*
X188335047Y-89620861D01*
X188335045Y-89620858D01*
X188174143Y-89459956D01*
X188149536Y-89442726D01*
X188105912Y-89388149D01*
X188098719Y-89318650D01*
X188130241Y-89256296D01*
X188190471Y-89220882D01*
X188207404Y-89217861D01*
X188242483Y-89214091D01*
X188377331Y-89163796D01*
X188492546Y-89077546D01*
X188578796Y-88962331D01*
X188629091Y-88827483D01*
X188635500Y-88767873D01*
X188635499Y-87072128D01*
X188629091Y-87012517D01*
X188624422Y-87000000D01*
X188578797Y-86877671D01*
X188578793Y-86877664D01*
X188492547Y-86762455D01*
X188492544Y-86762452D01*
X188377335Y-86676206D01*
X188377328Y-86676202D01*
X188242482Y-86625908D01*
X188242483Y-86625908D01*
X188182883Y-86619501D01*
X188182881Y-86619500D01*
X188182873Y-86619500D01*
X188182865Y-86619500D01*
X186490378Y-86619500D01*
X186423339Y-86599815D01*
X186377584Y-86547011D01*
X186367640Y-86477853D01*
X186396665Y-86414297D01*
X186408709Y-86402194D01*
X187490399Y-85455716D01*
X187551893Y-85391523D01*
X187579071Y-85357630D01*
X187628373Y-85283651D01*
X187628373Y-85283649D01*
X187632346Y-85277689D01*
X187634851Y-85279358D01*
X187673531Y-85238450D01*
X187741362Y-85221694D01*
X187807484Y-85244269D01*
X187823661Y-85257896D01*
X191948181Y-89382416D01*
X191981666Y-89443739D01*
X191984500Y-89470097D01*
X191984500Y-93083330D01*
X191984499Y-93083348D01*
X191984499Y-93249054D01*
X191984498Y-93249054D01*
X192025423Y-93401785D01*
X192050373Y-93445000D01*
X192050649Y-93445477D01*
X192104479Y-93538714D01*
X192104481Y-93538717D01*
X192223349Y-93657585D01*
X192223355Y-93657590D01*
X193663058Y-95097293D01*
X193696543Y-95158616D01*
X193695152Y-95217067D01*
X193669366Y-95313302D01*
X193669364Y-95313313D01*
X193649532Y-95539998D01*
X193649532Y-95540001D01*
X193669364Y-95766686D01*
X193669366Y-95766697D01*
X193728258Y-95986488D01*
X193728261Y-95986497D01*
X193824431Y-96192732D01*
X193824432Y-96192734D01*
X193954954Y-96379141D01*
X194115858Y-96540045D01*
X194140454Y-96557267D01*
X194302266Y-96670568D01*
X194508504Y-96766739D01*
X194728308Y-96825635D01*
X194890230Y-96839801D01*
X194954998Y-96845468D01*
X194955000Y-96845468D01*
X194955002Y-96845468D01*
X195011673Y-96840509D01*
X195181692Y-96825635D01*
X195401496Y-96766739D01*
X195607734Y-96670568D01*
X195794139Y-96540047D01*
X195955047Y-96379139D01*
X196023925Y-96280769D01*
X196078501Y-96237145D01*
X196148000Y-96229951D01*
X196210354Y-96261473D01*
X196245769Y-96321703D01*
X196249500Y-96351893D01*
X196249500Y-106496519D01*
X196249305Y-106503472D01*
X196232602Y-106800893D01*
X196231045Y-106814711D01*
X196181730Y-107104953D01*
X196178636Y-107118510D01*
X196097133Y-107401413D01*
X196092540Y-107414537D01*
X195979879Y-107686527D01*
X195973846Y-107699056D01*
X195831436Y-107956726D01*
X195824038Y-107968500D01*
X195653676Y-108208604D01*
X195645006Y-108219476D01*
X195448830Y-108438997D01*
X195438997Y-108448830D01*
X195219476Y-108645006D01*
X195208604Y-108653676D01*
X194968500Y-108824038D01*
X194956726Y-108831436D01*
X194699056Y-108973846D01*
X194686527Y-108979879D01*
X194414537Y-109092540D01*
X194401413Y-109097133D01*
X194118510Y-109178636D01*
X194104953Y-109181730D01*
X193814711Y-109231045D01*
X193800893Y-109232602D01*
X193503472Y-109249305D01*
X193496519Y-109249500D01*
X176121450Y-109249500D01*
X176054411Y-109229815D01*
X176008656Y-109177011D01*
X175997450Y-109125500D01*
X175997450Y-106843603D01*
X175371450Y-106843603D01*
X175304411Y-106823918D01*
X175258656Y-106771114D01*
X175247450Y-106719603D01*
X175247450Y-105893603D01*
X172933000Y-105893603D01*
X172933000Y-108708053D01*
X173559000Y-108708053D01*
X173626039Y-108727738D01*
X173671794Y-108780542D01*
X173683000Y-108832053D01*
X173683000Y-109125500D01*
X173663315Y-109192539D01*
X173610511Y-109238294D01*
X173559000Y-109249500D01*
X142003481Y-109249500D01*
X141996528Y-109249305D01*
X141699106Y-109232602D01*
X141685288Y-109231045D01*
X141395046Y-109181730D01*
X141381489Y-109178636D01*
X141098586Y-109097133D01*
X141085462Y-109092540D01*
X140813472Y-108979879D01*
X140800943Y-108973846D01*
X140543273Y-108831436D01*
X140531499Y-108824038D01*
X140291395Y-108653676D01*
X140280523Y-108645006D01*
X140061002Y-108448830D01*
X140051169Y-108438997D01*
X140014392Y-108397844D01*
X139854993Y-108219476D01*
X139846323Y-108208604D01*
X139675961Y-107968500D01*
X139668563Y-107956726D01*
X139526153Y-107699056D01*
X139520120Y-107686527D01*
X139510468Y-107663226D01*
X139460227Y-107541932D01*
X139407459Y-107414537D01*
X139402866Y-107401413D01*
X139321363Y-107118510D01*
X139318269Y-107104953D01*
X139301998Y-107009188D01*
X139268953Y-106814703D01*
X139267397Y-106800900D01*
X139250695Y-106503471D01*
X139250500Y-106496519D01*
X139250500Y-105878711D01*
X140649500Y-105878711D01*
X140649500Y-106121288D01*
X140681161Y-106361785D01*
X140743947Y-106596104D01*
X140795102Y-106719603D01*
X140836776Y-106820212D01*
X140958064Y-107030289D01*
X140958066Y-107030292D01*
X140958067Y-107030293D01*
X141105733Y-107222736D01*
X141105739Y-107222743D01*
X141277256Y-107394260D01*
X141277263Y-107394266D01*
X141390321Y-107481018D01*
X141469711Y-107541936D01*
X141679788Y-107663224D01*
X141903900Y-107756054D01*
X142138211Y-107818838D01*
X142318586Y-107842584D01*
X142378711Y-107850500D01*
X142378712Y-107850500D01*
X142621289Y-107850500D01*
X142669388Y-107844167D01*
X142861789Y-107818838D01*
X143096100Y-107756054D01*
X143320212Y-107663224D01*
X143530289Y-107541936D01*
X143722738Y-107394265D01*
X143894265Y-107222738D01*
X144041936Y-107030289D01*
X144163224Y-106820212D01*
X144253546Y-106602155D01*
X156150000Y-106602155D01*
X156150000Y-107250000D01*
X157066988Y-107250000D01*
X157034075Y-107307007D01*
X157000000Y-107434174D01*
X157000000Y-107565826D01*
X157034075Y-107692993D01*
X157066988Y-107750000D01*
X156150000Y-107750000D01*
X156150000Y-108397844D01*
X156156401Y-108457372D01*
X156156403Y-108457379D01*
X156206645Y-108592086D01*
X156206649Y-108592093D01*
X156292809Y-108707187D01*
X156292812Y-108707190D01*
X156407906Y-108793350D01*
X156407913Y-108793354D01*
X156542620Y-108843596D01*
X156542627Y-108843598D01*
X156602155Y-108849999D01*
X156602172Y-108850000D01*
X157250000Y-108850000D01*
X157250000Y-107933012D01*
X157307007Y-107965925D01*
X157434174Y-108000000D01*
X157565826Y-108000000D01*
X157692993Y-107965925D01*
X157750000Y-107933012D01*
X157750000Y-108850000D01*
X158397828Y-108850000D01*
X158397844Y-108849999D01*
X158457372Y-108843598D01*
X158457379Y-108843596D01*
X158592086Y-108793354D01*
X158592093Y-108793350D01*
X158707187Y-108707190D01*
X158707190Y-108707187D01*
X158793350Y-108592093D01*
X158793354Y-108592086D01*
X158843596Y-108457379D01*
X158843598Y-108457372D01*
X158849999Y-108397844D01*
X158850000Y-108397827D01*
X158850000Y-107750000D01*
X157933012Y-107750000D01*
X157965925Y-107692993D01*
X158000000Y-107565826D01*
X158000000Y-107434174D01*
X157965925Y-107307007D01*
X157933012Y-107250000D01*
X158850000Y-107250000D01*
X158850000Y-106602172D01*
X158849999Y-106602155D01*
X158843598Y-106542627D01*
X158843596Y-106542620D01*
X158793354Y-106407913D01*
X158793350Y-106407906D01*
X158707190Y-106292812D01*
X158707187Y-106292809D01*
X158592093Y-106206649D01*
X158592086Y-106206645D01*
X158457379Y-106156403D01*
X158457372Y-106156401D01*
X158397844Y-106150000D01*
X157750000Y-106150000D01*
X157750000Y-107066988D01*
X157692993Y-107034075D01*
X157565826Y-107000000D01*
X157434174Y-107000000D01*
X157307007Y-107034075D01*
X157250000Y-107066988D01*
X157250000Y-106150000D01*
X156602155Y-106150000D01*
X156542627Y-106156401D01*
X156542620Y-106156403D01*
X156407913Y-106206645D01*
X156407906Y-106206649D01*
X156292812Y-106292809D01*
X156292809Y-106292812D01*
X156206649Y-106407906D01*
X156206645Y-106407913D01*
X156156403Y-106542620D01*
X156156401Y-106542627D01*
X156150000Y-106602155D01*
X144253546Y-106602155D01*
X144256054Y-106596100D01*
X144318838Y-106361789D01*
X144350500Y-106121288D01*
X144350500Y-105878712D01*
X144349233Y-105869091D01*
X144330991Y-105730524D01*
X144318838Y-105638211D01*
X144256054Y-105403900D01*
X144163224Y-105179788D01*
X144041936Y-104969711D01*
X143901234Y-104786344D01*
X143894266Y-104777263D01*
X143894260Y-104777256D01*
X143722743Y-104605739D01*
X143722736Y-104605733D01*
X143530293Y-104458067D01*
X143530292Y-104458066D01*
X143530289Y-104458064D01*
X143320212Y-104336776D01*
X143249739Y-104307585D01*
X143096104Y-104243947D01*
X142889984Y-104188717D01*
X142861789Y-104181162D01*
X142861788Y-104181161D01*
X142861785Y-104181161D01*
X142621289Y-104149500D01*
X142621288Y-104149500D01*
X142378712Y-104149500D01*
X142378711Y-104149500D01*
X142138214Y-104181161D01*
X141903895Y-104243947D01*
X141679794Y-104336773D01*
X141679785Y-104336777D01*
X141469706Y-104458067D01*
X141277263Y-104605733D01*
X141277256Y-104605739D01*
X141105739Y-104777256D01*
X141105733Y-104777263D01*
X140958067Y-104969706D01*
X140836777Y-105179785D01*
X140836773Y-105179794D01*
X140743947Y-105403895D01*
X140681161Y-105638214D01*
X140649500Y-105878711D01*
X139250500Y-105878711D01*
X139250500Y-100759049D01*
X139270185Y-100692010D01*
X139322989Y-100646255D01*
X139392147Y-100636311D01*
X139455703Y-100665336D01*
X139462181Y-100671368D01*
X139540858Y-100750045D01*
X139540861Y-100750047D01*
X139727266Y-100880568D01*
X139933504Y-100976739D01*
X140153308Y-101035635D01*
X140315230Y-101049801D01*
X140379998Y-101055468D01*
X140380000Y-101055468D01*
X140380002Y-101055468D01*
X140436807Y-101050498D01*
X140606692Y-101035635D01*
X140826496Y-100976739D01*
X141032734Y-100880568D01*
X141219139Y-100750047D01*
X141380047Y-100589139D01*
X141443489Y-100498533D01*
X141498063Y-100454911D01*
X141567561Y-100447717D01*
X141629916Y-100479239D01*
X141632743Y-100481978D01*
X146265139Y-105114374D01*
X146265149Y-105114385D01*
X146269479Y-105118715D01*
X146269480Y-105118716D01*
X146381284Y-105230520D01*
X146468095Y-105280639D01*
X146468097Y-105280641D01*
X146506151Y-105302611D01*
X146518215Y-105309577D01*
X146670943Y-105350501D01*
X146670946Y-105350501D01*
X146836653Y-105350501D01*
X146836669Y-105350500D01*
X146908561Y-105350500D01*
X146975600Y-105370185D01*
X146982872Y-105375233D01*
X147007668Y-105393795D01*
X147007671Y-105393797D01*
X147034746Y-105403895D01*
X147142517Y-105444091D01*
X147202127Y-105450500D01*
X147751042Y-105450499D01*
X147818081Y-105470183D01*
X147853111Y-105505208D01*
X147853398Y-105504994D01*
X147854890Y-105506987D01*
X147855350Y-105507447D01*
X147856051Y-105508538D01*
X147856059Y-105508548D01*
X147901803Y-105561340D01*
X147901806Y-105561343D01*
X147901810Y-105561347D01*
X148010544Y-105655567D01*
X148010547Y-105655568D01*
X148010548Y-105655569D01*
X148137755Y-105713664D01*
X148141421Y-105715338D01*
X148208460Y-105735023D01*
X148208464Y-105735024D01*
X148350880Y-105755500D01*
X148628771Y-105755500D01*
X148674822Y-105764368D01*
X149790090Y-106210476D01*
X149790099Y-106210478D01*
X149790100Y-106210479D01*
X149882217Y-106237506D01*
X149882222Y-106237507D01*
X149882232Y-106237510D01*
X149928284Y-106246379D01*
X149963825Y-106249770D01*
X150023871Y-106255500D01*
X150023880Y-106255500D01*
X152327095Y-106255500D01*
X152337241Y-106254955D01*
X152381133Y-106252603D01*
X152381141Y-106252602D01*
X152381143Y-106252602D01*
X152381144Y-106252602D01*
X152388137Y-106251849D01*
X152407491Y-106249769D01*
X152407501Y-106249767D01*
X152407504Y-106249767D01*
X152417101Y-106248211D01*
X152460897Y-106241115D01*
X152470563Y-106237510D01*
X152595696Y-106190839D01*
X152595701Y-106190837D01*
X152595701Y-106190836D01*
X152595706Y-106190835D01*
X152650539Y-106160894D01*
X152651647Y-106160372D01*
X152657031Y-106157350D01*
X152657030Y-106157350D01*
X152657034Y-106157349D01*
X152772216Y-106071125D01*
X152858440Y-105955943D01*
X152858492Y-105955847D01*
X152867108Y-105940071D01*
X152916513Y-105890666D01*
X152975939Y-105875499D01*
X154647871Y-105875499D01*
X154647872Y-105875499D01*
X154707483Y-105869091D01*
X154842331Y-105818796D01*
X154957546Y-105732546D01*
X155043796Y-105617331D01*
X155094091Y-105482483D01*
X155100500Y-105422873D01*
X155100499Y-103627128D01*
X155094091Y-103567517D01*
X155068722Y-103499500D01*
X155043797Y-103432671D01*
X155043793Y-103432664D01*
X154957547Y-103317455D01*
X154957544Y-103317452D01*
X154842335Y-103231206D01*
X154842328Y-103231202D01*
X154710917Y-103182189D01*
X154654983Y-103140318D01*
X154630566Y-103074853D01*
X154645418Y-103006580D01*
X154666563Y-102978332D01*
X154788495Y-102856401D01*
X154924035Y-102662830D01*
X155023903Y-102448663D01*
X155085063Y-102220408D01*
X155105659Y-101985000D01*
X155085063Y-101749592D01*
X155023903Y-101521337D01*
X154924035Y-101307171D01*
X154887997Y-101255702D01*
X154788494Y-101113597D01*
X154621402Y-100946506D01*
X154621396Y-100946501D01*
X154435842Y-100816575D01*
X154392217Y-100761998D01*
X154385023Y-100692500D01*
X154416546Y-100630145D01*
X154435842Y-100613425D01*
X154599920Y-100498536D01*
X154621401Y-100483495D01*
X154788495Y-100316401D01*
X154924035Y-100122830D01*
X155023903Y-99908663D01*
X155085063Y-99680408D01*
X155105659Y-99445000D01*
X155085063Y-99209592D01*
X155023903Y-98981337D01*
X154924035Y-98767171D01*
X154902125Y-98735879D01*
X154788494Y-98573597D01*
X154621402Y-98406506D01*
X154621395Y-98406501D01*
X154427834Y-98270967D01*
X154427830Y-98270965D01*
X154407395Y-98261436D01*
X154213663Y-98171097D01*
X154213659Y-98171096D01*
X154213655Y-98171094D01*
X153985413Y-98109938D01*
X153985403Y-98109936D01*
X153750001Y-98089341D01*
X153749999Y-98089341D01*
X153514596Y-98109936D01*
X153514586Y-98109938D01*
X153286344Y-98171094D01*
X153286335Y-98171098D01*
X153136986Y-98240741D01*
X153067908Y-98251233D01*
X153004124Y-98222713D01*
X152966927Y-98167518D01*
X152948615Y-98112502D01*
X152948613Y-98112496D01*
X152870828Y-97991462D01*
X152870825Y-97991457D01*
X152850392Y-97967876D01*
X152825076Y-97938659D01*
X152825072Y-97938656D01*
X152825070Y-97938653D01*
X152716336Y-97844433D01*
X152716333Y-97844431D01*
X152716331Y-97844430D01*
X152585465Y-97784664D01*
X152585460Y-97784662D01*
X152585459Y-97784662D01*
X152518420Y-97764977D01*
X152518422Y-97764977D01*
X152518417Y-97764976D01*
X152456347Y-97756052D01*
X152376000Y-97744500D01*
X150124000Y-97744500D01*
X150123991Y-97744500D01*
X150123990Y-97744501D01*
X150016549Y-97756052D01*
X150016537Y-97756054D01*
X149965027Y-97767260D01*
X149862502Y-97801383D01*
X149862496Y-97801386D01*
X149741462Y-97879171D01*
X149741451Y-97879179D01*
X149688659Y-97924923D01*
X149594433Y-98033664D01*
X149594430Y-98033668D01*
X149534664Y-98164534D01*
X149514976Y-98231582D01*
X149494500Y-98374001D01*
X149494500Y-98692545D01*
X149474815Y-98759584D01*
X149422011Y-98805339D01*
X149352853Y-98815283D01*
X149289297Y-98786258D01*
X149254318Y-98735879D01*
X149243796Y-98707669D01*
X149243793Y-98707664D01*
X149157547Y-98592455D01*
X149157544Y-98592452D01*
X149042335Y-98506206D01*
X149042328Y-98506202D01*
X148907482Y-98455908D01*
X148907483Y-98455908D01*
X148872404Y-98452137D01*
X148807853Y-98425399D01*
X148768005Y-98368006D01*
X148765512Y-98298181D01*
X148801165Y-98238092D01*
X148814539Y-98227272D01*
X148821050Y-98222713D01*
X148839139Y-98210047D01*
X149000047Y-98049139D01*
X149130568Y-97862734D01*
X149226739Y-97656496D01*
X149285635Y-97436692D01*
X149305468Y-97210000D01*
X149285635Y-96983308D01*
X149226739Y-96763504D01*
X149130568Y-96557266D01*
X149005243Y-96378282D01*
X149000045Y-96370858D01*
X148839141Y-96209954D01*
X148652734Y-96079432D01*
X148652728Y-96079429D01*
X148622666Y-96065411D01*
X148594724Y-96052381D01*
X148542285Y-96006210D01*
X148523133Y-95939017D01*
X148543348Y-95872135D01*
X148594725Y-95827618D01*
X148610665Y-95820185D01*
X148652734Y-95800568D01*
X148839139Y-95670047D01*
X149000047Y-95509139D01*
X149130568Y-95322734D01*
X149226739Y-95116496D01*
X149285635Y-94896692D01*
X149305468Y-94670000D01*
X149285635Y-94443308D01*
X149226739Y-94223504D01*
X149130568Y-94017266D01*
X149000047Y-93830861D01*
X149000045Y-93830858D01*
X148839141Y-93669954D01*
X148652734Y-93539432D01*
X148652728Y-93539429D01*
X148596561Y-93513238D01*
X148594724Y-93512381D01*
X148542285Y-93466210D01*
X148523133Y-93399017D01*
X148543348Y-93332135D01*
X148594725Y-93287618D01*
X148652734Y-93260568D01*
X148839139Y-93130047D01*
X149000047Y-92969139D01*
X149130568Y-92782734D01*
X149226739Y-92576496D01*
X149285635Y-92356692D01*
X149305468Y-92130000D01*
X149300809Y-92076753D01*
X149295927Y-92020951D01*
X149285635Y-91903308D01*
X149259847Y-91807066D01*
X149261510Y-91737218D01*
X149291939Y-91687294D01*
X149342418Y-91636817D01*
X149403742Y-91603333D01*
X149430098Y-91600500D01*
X152525500Y-91600500D01*
X152592539Y-91620185D01*
X152638294Y-91672989D01*
X152649500Y-91724500D01*
X152649500Y-92360388D01*
X152649499Y-92360406D01*
X152649499Y-92526112D01*
X152649498Y-92526112D01*
X152690423Y-92678845D01*
X152690424Y-92678846D01*
X152712545Y-92717160D01*
X152769475Y-92815767D01*
X152769481Y-92815775D01*
X152888349Y-92934643D01*
X152888355Y-92934648D01*
X155518081Y-95564374D01*
X155518091Y-95564385D01*
X155522421Y-95568715D01*
X155522422Y-95568716D01*
X155634226Y-95680520D01*
X155634228Y-95680521D01*
X155634232Y-95680524D01*
X155697615Y-95717118D01*
X155697619Y-95717119D01*
X155697620Y-95717120D01*
X155771157Y-95759577D01*
X155923885Y-95800501D01*
X155923888Y-95800501D01*
X156089595Y-95800501D01*
X156089611Y-95800500D01*
X156638001Y-95800500D01*
X156705040Y-95820185D01*
X156750795Y-95872989D01*
X156762001Y-95924500D01*
X156762001Y-95989363D01*
X156777453Y-96106753D01*
X156777456Y-96106762D01*
X156833984Y-96243234D01*
X156837964Y-96252841D01*
X156934218Y-96378282D01*
X157059659Y-96474536D01*
X157205738Y-96535044D01*
X157323139Y-96550500D01*
X158525500Y-96550499D01*
X158592539Y-96570184D01*
X158638294Y-96622987D01*
X158649500Y-96674499D01*
X158649500Y-97391691D01*
X158629815Y-97458730D01*
X158613181Y-97479372D01*
X158581923Y-97510629D01*
X158581917Y-97510637D01*
X158498255Y-97652103D01*
X158498254Y-97652106D01*
X158452402Y-97809926D01*
X158452401Y-97809932D01*
X158449500Y-97846798D01*
X158449500Y-99153201D01*
X158452401Y-99190067D01*
X158452402Y-99190073D01*
X158498254Y-99347893D01*
X158498255Y-99347896D01*
X158581917Y-99489362D01*
X158581923Y-99489370D01*
X158698129Y-99605576D01*
X158698133Y-99605579D01*
X158698135Y-99605581D01*
X158839602Y-99689244D01*
X158881224Y-99701336D01*
X158997426Y-99735097D01*
X158997429Y-99735097D01*
X158997431Y-99735098D01*
X159034306Y-99738000D01*
X159034314Y-99738000D01*
X159465686Y-99738000D01*
X159465694Y-99738000D01*
X159502569Y-99735098D01*
X159502571Y-99735097D01*
X159502573Y-99735097D01*
X159600958Y-99706513D01*
X159660398Y-99689244D01*
X159801865Y-99605581D01*
X159918081Y-99489365D01*
X160001744Y-99347898D01*
X160047598Y-99190069D01*
X160050500Y-99153194D01*
X160050500Y-97846806D01*
X160047598Y-97809931D01*
X160045115Y-97801386D01*
X160006354Y-97667970D01*
X160001744Y-97652102D01*
X159918081Y-97510635D01*
X159918079Y-97510633D01*
X159918076Y-97510629D01*
X159886819Y-97479372D01*
X159853334Y-97418049D01*
X159850500Y-97391691D01*
X159850500Y-96893141D01*
X159870185Y-96826102D01*
X159922989Y-96780347D01*
X159992147Y-96770403D01*
X160055703Y-96799428D01*
X160062181Y-96805460D01*
X160513181Y-97256460D01*
X160546666Y-97317783D01*
X160549500Y-97344141D01*
X160549500Y-97391691D01*
X160529815Y-97458730D01*
X160513181Y-97479372D01*
X160481923Y-97510629D01*
X160481917Y-97510637D01*
X160398255Y-97652103D01*
X160398254Y-97652106D01*
X160352402Y-97809926D01*
X160352401Y-97809932D01*
X160349500Y-97846798D01*
X160349500Y-99153201D01*
X160352401Y-99190067D01*
X160352402Y-99190073D01*
X160398254Y-99347893D01*
X160398255Y-99347896D01*
X160481917Y-99489362D01*
X160481923Y-99489370D01*
X160598129Y-99605576D01*
X160598133Y-99605579D01*
X160598135Y-99605581D01*
X160739602Y-99689244D01*
X160781224Y-99701336D01*
X160897426Y-99735097D01*
X160897429Y-99735097D01*
X160897431Y-99735098D01*
X160934306Y-99738000D01*
X160934314Y-99738000D01*
X161365686Y-99738000D01*
X161365694Y-99738000D01*
X161402569Y-99735098D01*
X161402571Y-99735097D01*
X161402573Y-99735097D01*
X161500958Y-99706513D01*
X161560398Y-99689244D01*
X161701865Y-99605581D01*
X161818081Y-99489365D01*
X161901744Y-99347898D01*
X161947598Y-99190069D01*
X161950500Y-99153194D01*
X161950500Y-97846806D01*
X161947598Y-97809931D01*
X161945115Y-97801386D01*
X161906354Y-97667970D01*
X161901744Y-97652102D01*
X161818081Y-97510635D01*
X161818079Y-97510633D01*
X161818076Y-97510629D01*
X161786819Y-97479372D01*
X161753334Y-97418049D01*
X161750500Y-97391691D01*
X161750500Y-97133103D01*
X161750501Y-97133090D01*
X161750501Y-96964989D01*
X161750501Y-96964987D01*
X161709577Y-96812259D01*
X161680639Y-96762139D01*
X161630520Y-96675328D01*
X161518716Y-96563524D01*
X161518715Y-96563523D01*
X161514385Y-96559193D01*
X161514374Y-96559183D01*
X159955187Y-94999996D01*
X161444435Y-94999996D01*
X161444435Y-95000003D01*
X161464630Y-95179249D01*
X161464631Y-95179254D01*
X161524211Y-95349523D01*
X161604653Y-95477545D01*
X161620184Y-95502262D01*
X161747738Y-95629816D01*
X161828439Y-95680524D01*
X161876368Y-95710640D01*
X161900478Y-95725789D01*
X162028249Y-95770498D01*
X162070745Y-95785368D01*
X162070750Y-95785369D01*
X162249996Y-95805565D01*
X162250000Y-95805565D01*
X162250002Y-95805565D01*
X162294332Y-95800570D01*
X162349117Y-95794397D01*
X162417938Y-95806451D01*
X162469317Y-95853800D01*
X162487000Y-95917615D01*
X162487000Y-95989362D01*
X162502453Y-96106753D01*
X162502457Y-96106765D01*
X162511066Y-96127550D01*
X162518533Y-96197019D01*
X162511066Y-96222450D01*
X162502457Y-96243234D01*
X162502455Y-96243239D01*
X162487000Y-96360638D01*
X162487000Y-96639363D01*
X162502453Y-96756753D01*
X162502456Y-96756762D01*
X162562964Y-96902841D01*
X162659218Y-97028282D01*
X162784659Y-97124536D01*
X162930738Y-97185044D01*
X163048139Y-97200500D01*
X164401860Y-97200499D01*
X164401863Y-97200499D01*
X164519253Y-97185046D01*
X164519257Y-97185044D01*
X164519262Y-97185044D01*
X164665341Y-97124536D01*
X164790782Y-97028282D01*
X164887036Y-96902841D01*
X164947544Y-96756762D01*
X164963000Y-96639361D01*
X164962999Y-96360640D01*
X164959795Y-96336305D01*
X164957873Y-96321703D01*
X164947544Y-96243238D01*
X164947542Y-96243234D01*
X164938935Y-96222455D01*
X164931465Y-96152986D01*
X164938935Y-96127545D01*
X164947544Y-96106762D01*
X164963000Y-95989361D01*
X164962999Y-95710640D01*
X164947544Y-95593238D01*
X164946769Y-95591368D01*
X164938935Y-95572455D01*
X164931465Y-95502986D01*
X164938935Y-95477545D01*
X164947544Y-95456762D01*
X164963000Y-95339361D01*
X164962999Y-95060640D01*
X164961780Y-95051383D01*
X164955314Y-95002262D01*
X164947544Y-94943238D01*
X164938934Y-94922454D01*
X164931465Y-94852986D01*
X164938935Y-94827545D01*
X164941307Y-94821819D01*
X164947544Y-94806762D01*
X164963000Y-94689361D01*
X164962999Y-94410640D01*
X164947544Y-94293238D01*
X164938934Y-94272454D01*
X164931465Y-94202986D01*
X164938935Y-94177545D01*
X164947544Y-94156762D01*
X164963000Y-94039361D01*
X164962999Y-93760640D01*
X164947544Y-93643238D01*
X164938934Y-93622454D01*
X164931465Y-93552986D01*
X164938935Y-93527545D01*
X164947544Y-93506762D01*
X164963000Y-93389361D01*
X164962999Y-93110640D01*
X164947544Y-92993238D01*
X164938934Y-92972454D01*
X164931465Y-92902986D01*
X164938935Y-92877545D01*
X164947544Y-92856762D01*
X164963000Y-92739361D01*
X164962999Y-92460640D01*
X164962999Y-92460638D01*
X164962999Y-92460636D01*
X164947546Y-92343246D01*
X164947544Y-92343239D01*
X164947544Y-92343238D01*
X164887036Y-92197159D01*
X164790782Y-92071718D01*
X164665341Y-91975464D01*
X164556648Y-91930442D01*
X164519262Y-91914956D01*
X164519260Y-91914955D01*
X164401870Y-91899501D01*
X164401867Y-91899500D01*
X164401861Y-91899500D01*
X164401854Y-91899500D01*
X164108709Y-91899500D01*
X164041670Y-91879815D01*
X163995915Y-91827011D01*
X163985971Y-91757853D01*
X164014996Y-91694297D01*
X164052616Y-91665903D01*
X164052550Y-91665795D01*
X164053703Y-91665083D01*
X164056313Y-91663114D01*
X164058688Y-91662005D01*
X164058697Y-91662003D01*
X164203044Y-91572968D01*
X164322968Y-91453044D01*
X164412003Y-91308697D01*
X164465349Y-91147708D01*
X164475500Y-91048345D01*
X164475500Y-91030638D01*
X170372001Y-91030638D01*
X170372001Y-91309363D01*
X170387454Y-91426753D01*
X170387458Y-91426765D01*
X170396067Y-91447550D01*
X170403534Y-91517019D01*
X170396067Y-91542450D01*
X170387458Y-91563234D01*
X170387456Y-91563239D01*
X170372001Y-91680638D01*
X170372001Y-91959363D01*
X170387454Y-92076753D01*
X170387458Y-92076765D01*
X170396067Y-92097550D01*
X170403534Y-92167019D01*
X170396067Y-92192450D01*
X170387458Y-92213234D01*
X170387456Y-92213239D01*
X170372001Y-92330638D01*
X170372001Y-92609363D01*
X170387454Y-92726753D01*
X170387458Y-92726765D01*
X170396067Y-92747550D01*
X170403534Y-92817019D01*
X170396067Y-92842450D01*
X170387458Y-92863234D01*
X170387456Y-92863239D01*
X170372001Y-92980638D01*
X170372001Y-93259363D01*
X170387454Y-93376753D01*
X170387458Y-93376765D01*
X170396067Y-93397550D01*
X170403534Y-93467019D01*
X170396067Y-93492450D01*
X170387458Y-93513234D01*
X170387456Y-93513239D01*
X170372001Y-93630638D01*
X170372001Y-93909363D01*
X170387454Y-94026753D01*
X170387458Y-94026765D01*
X170396067Y-94047550D01*
X170403534Y-94117019D01*
X170396067Y-94142450D01*
X170387458Y-94163234D01*
X170387456Y-94163239D01*
X170372001Y-94280638D01*
X170372001Y-94559363D01*
X170387454Y-94676753D01*
X170387458Y-94676765D01*
X170396067Y-94697550D01*
X170403534Y-94767019D01*
X170396067Y-94792450D01*
X170387458Y-94813234D01*
X170387456Y-94813239D01*
X170372001Y-94930638D01*
X170372001Y-95209363D01*
X170387454Y-95326753D01*
X170387457Y-95326762D01*
X170423443Y-95413641D01*
X170447965Y-95472841D01*
X170544219Y-95598282D01*
X170669660Y-95694536D01*
X170815739Y-95755044D01*
X170933140Y-95770500D01*
X171226292Y-95770499D01*
X171293329Y-95790183D01*
X171339084Y-95842987D01*
X171349028Y-95912146D01*
X171320003Y-95975701D01*
X171282383Y-96004097D01*
X171282450Y-96004205D01*
X171281313Y-96004906D01*
X171278701Y-96006878D01*
X171276304Y-96007995D01*
X171131959Y-96097029D01*
X171131955Y-96097032D01*
X171012032Y-96216955D01*
X171012029Y-96216959D01*
X170923001Y-96361294D01*
X170922996Y-96361305D01*
X170869651Y-96522290D01*
X170859500Y-96621647D01*
X170859500Y-97168337D01*
X170859501Y-97168355D01*
X170869650Y-97267707D01*
X170869651Y-97267710D01*
X170922996Y-97428694D01*
X170923001Y-97428705D01*
X171012029Y-97573040D01*
X171012032Y-97573044D01*
X171131955Y-97692967D01*
X171131959Y-97692970D01*
X171276294Y-97781998D01*
X171276297Y-97781999D01*
X171276303Y-97782003D01*
X171437292Y-97835349D01*
X171536655Y-97845500D01*
X172133344Y-97845499D01*
X172133352Y-97845498D01*
X172133355Y-97845498D01*
X172187760Y-97839940D01*
X172232708Y-97835349D01*
X172393697Y-97782003D01*
X172538044Y-97692968D01*
X172657968Y-97573044D01*
X172747003Y-97428697D01*
X172800349Y-97267708D01*
X172810500Y-97168345D01*
X172810499Y-96621656D01*
X172807944Y-96596647D01*
X172800349Y-96522292D01*
X172800348Y-96522289D01*
X172784524Y-96474536D01*
X172747003Y-96361303D01*
X172746999Y-96361297D01*
X172746998Y-96361294D01*
X172657970Y-96216959D01*
X172657967Y-96216955D01*
X172538044Y-96097032D01*
X172538040Y-96097029D01*
X172393705Y-96008001D01*
X172393699Y-96007998D01*
X172393697Y-96007997D01*
X172363627Y-95998033D01*
X172306185Y-95958261D01*
X172279362Y-95893745D01*
X172291677Y-95824969D01*
X172339221Y-95773769D01*
X172386450Y-95757388D01*
X172404263Y-95755044D01*
X172550342Y-95694536D01*
X172675783Y-95598282D01*
X172772037Y-95472841D01*
X172832545Y-95326762D01*
X172832545Y-95326759D01*
X172832811Y-95326118D01*
X172876651Y-95271714D01*
X172942945Y-95249649D01*
X172988327Y-95256529D01*
X173070737Y-95285366D01*
X173070743Y-95285367D01*
X173070745Y-95285368D01*
X173070746Y-95285368D01*
X173070750Y-95285369D01*
X173249996Y-95305565D01*
X173250000Y-95305565D01*
X173250004Y-95305565D01*
X173429249Y-95285369D01*
X173429252Y-95285368D01*
X173429255Y-95285368D01*
X173599522Y-95225789D01*
X173752262Y-95129816D01*
X173879816Y-95002262D01*
X173975789Y-94849522D01*
X174035368Y-94679255D01*
X174048465Y-94563006D01*
X174075531Y-94498595D01*
X174105708Y-94471901D01*
X174252262Y-94379816D01*
X174379816Y-94252262D01*
X174475789Y-94099522D01*
X174535368Y-93929255D01*
X174535369Y-93929249D01*
X174555565Y-93750003D01*
X174555565Y-93749996D01*
X174535369Y-93570750D01*
X174535368Y-93570745D01*
X174499073Y-93467019D01*
X174475789Y-93400478D01*
X174461583Y-93377870D01*
X174387879Y-93260570D01*
X174379816Y-93247738D01*
X174252262Y-93120184D01*
X174105713Y-93028101D01*
X174059422Y-92975766D01*
X174048465Y-92936989D01*
X174048201Y-92934648D01*
X174035368Y-92820745D01*
X173975789Y-92650478D01*
X173975788Y-92650477D01*
X173973489Y-92643905D01*
X173975635Y-92643153D01*
X173966037Y-92584854D01*
X173974391Y-92556407D01*
X173973489Y-92556092D01*
X174035366Y-92379259D01*
X174035369Y-92379246D01*
X174055565Y-92200000D01*
X174055565Y-92199993D01*
X174035369Y-92020747D01*
X174035368Y-92020742D01*
X174019921Y-91976597D01*
X173975789Y-91850475D01*
X173975374Y-91849815D01*
X173917591Y-91757853D01*
X173879816Y-91697735D01*
X173752262Y-91570181D01*
X173727339Y-91554521D01*
X173599523Y-91474208D01*
X173429254Y-91414628D01*
X173429249Y-91414627D01*
X173250004Y-91394432D01*
X173249996Y-91394432D01*
X173070750Y-91414627D01*
X173070742Y-91414629D01*
X173012660Y-91434953D01*
X172942881Y-91438514D01*
X172882254Y-91403785D01*
X172850027Y-91341791D01*
X172848206Y-91313420D01*
X172848001Y-91313420D01*
X172848000Y-91310219D01*
X172847973Y-91309783D01*
X172847998Y-91309380D01*
X172848001Y-91309361D01*
X172848000Y-91030640D01*
X172848000Y-91030638D01*
X172848000Y-91030636D01*
X172832547Y-90913246D01*
X172832545Y-90913239D01*
X172832545Y-90913238D01*
X172772037Y-90767159D01*
X172675783Y-90641718D01*
X172550342Y-90545464D01*
X172535470Y-90539304D01*
X172404263Y-90484956D01*
X172404261Y-90484955D01*
X172286871Y-90469501D01*
X172286868Y-90469500D01*
X172286862Y-90469500D01*
X172286855Y-90469500D01*
X170933137Y-90469500D01*
X170815747Y-90484953D01*
X170815738Y-90484956D01*
X170669661Y-90545463D01*
X170544219Y-90641718D01*
X170447964Y-90767160D01*
X170387457Y-90913237D01*
X170387456Y-90913239D01*
X170372001Y-91030638D01*
X164475500Y-91030638D01*
X164475499Y-90501656D01*
X164472214Y-90469501D01*
X164465349Y-90402292D01*
X164465348Y-90402289D01*
X164424265Y-90278309D01*
X164412003Y-90241303D01*
X164411999Y-90241297D01*
X164411998Y-90241294D01*
X164322970Y-90096959D01*
X164322967Y-90096955D01*
X164203044Y-89977032D01*
X164203040Y-89977029D01*
X164058705Y-89888001D01*
X164058699Y-89887998D01*
X164058697Y-89887997D01*
X164050664Y-89885335D01*
X163897709Y-89834651D01*
X163798346Y-89824500D01*
X163201662Y-89824500D01*
X163201644Y-89824501D01*
X163102292Y-89834650D01*
X163102289Y-89834651D01*
X162941305Y-89887996D01*
X162941294Y-89888001D01*
X162796959Y-89977029D01*
X162796955Y-89977032D01*
X162677032Y-90096955D01*
X162677029Y-90096959D01*
X162588001Y-90241294D01*
X162587996Y-90241305D01*
X162534651Y-90402290D01*
X162524500Y-90501647D01*
X162524500Y-91048337D01*
X162524501Y-91048355D01*
X162534650Y-91147707D01*
X162534651Y-91147710D01*
X162587996Y-91308694D01*
X162588001Y-91308705D01*
X162677029Y-91453040D01*
X162677032Y-91453044D01*
X162796955Y-91572967D01*
X162796959Y-91572970D01*
X162941294Y-91661998D01*
X162941297Y-91661999D01*
X162941303Y-91662003D01*
X162971369Y-91671965D01*
X163028813Y-91711737D01*
X163055637Y-91776252D01*
X163043323Y-91845028D01*
X162995780Y-91896229D01*
X162948552Y-91912610D01*
X162930744Y-91914954D01*
X162930737Y-91914956D01*
X162784660Y-91975463D01*
X162659218Y-92071718D01*
X162562963Y-92197160D01*
X162502456Y-92343237D01*
X162502455Y-92343239D01*
X162487000Y-92460638D01*
X162487000Y-92739363D01*
X162502453Y-92856753D01*
X162504559Y-92864608D01*
X162501523Y-92865421D01*
X162507397Y-92920167D01*
X162476109Y-92982639D01*
X162426330Y-93015164D01*
X162400480Y-93024210D01*
X162400475Y-93024212D01*
X162247737Y-93120184D01*
X162120184Y-93247737D01*
X162024211Y-93400476D01*
X161964631Y-93570745D01*
X161964630Y-93570750D01*
X161944435Y-93749996D01*
X161944435Y-93750003D01*
X161964630Y-93929249D01*
X161964631Y-93929254D01*
X162024217Y-94099539D01*
X162027778Y-94169318D01*
X161993049Y-94229946D01*
X161948131Y-94257535D01*
X161900479Y-94274209D01*
X161747737Y-94370184D01*
X161620184Y-94497737D01*
X161524211Y-94650476D01*
X161464632Y-94820744D01*
X161464630Y-94820750D01*
X161444435Y-94999996D01*
X159955187Y-94999996D01*
X159308643Y-94353452D01*
X159275158Y-94292129D01*
X159280142Y-94222437D01*
X159308643Y-94178090D01*
X160376095Y-93110638D01*
X161478741Y-92007991D01*
X161531822Y-91976598D01*
X161660398Y-91939244D01*
X161801865Y-91855581D01*
X161918081Y-91739365D01*
X162001744Y-91597898D01*
X162047598Y-91440069D01*
X162050500Y-91403194D01*
X162050500Y-90096806D01*
X162047598Y-90059931D01*
X162037220Y-90024211D01*
X162008542Y-89925500D01*
X162001744Y-89902102D01*
X161918081Y-89760635D01*
X161918079Y-89760633D01*
X161918076Y-89760629D01*
X161801870Y-89644423D01*
X161801862Y-89644417D01*
X161660396Y-89560755D01*
X161660393Y-89560754D01*
X161502573Y-89514902D01*
X161502567Y-89514901D01*
X161465701Y-89512000D01*
X161465694Y-89512000D01*
X161034306Y-89512000D01*
X161034298Y-89512000D01*
X160997432Y-89514901D01*
X160997426Y-89514902D01*
X160839606Y-89560754D01*
X160839603Y-89560755D01*
X160698137Y-89644417D01*
X160698129Y-89644423D01*
X160581923Y-89760629D01*
X160581917Y-89760637D01*
X160498255Y-89902103D01*
X160498254Y-89902106D01*
X160452402Y-90059926D01*
X160452401Y-90059932D01*
X160449500Y-90096798D01*
X160449500Y-91287402D01*
X160429815Y-91354441D01*
X160413181Y-91375083D01*
X160362181Y-91426083D01*
X160300858Y-91459568D01*
X160231166Y-91454584D01*
X160175233Y-91412712D01*
X160150816Y-91347248D01*
X160150500Y-91338402D01*
X160150500Y-90096813D01*
X160150499Y-90096798D01*
X160147598Y-90059932D01*
X160147597Y-90059926D01*
X160108542Y-89925500D01*
X160101744Y-89902102D01*
X160018081Y-89760635D01*
X160018079Y-89760633D01*
X160018076Y-89760629D01*
X159901870Y-89644423D01*
X159901862Y-89644417D01*
X159760396Y-89560755D01*
X159760393Y-89560754D01*
X159602573Y-89514902D01*
X159602567Y-89514901D01*
X159565701Y-89512000D01*
X159565694Y-89512000D01*
X159134306Y-89512000D01*
X159134298Y-89512000D01*
X159097432Y-89514901D01*
X159097426Y-89514902D01*
X158939606Y-89560754D01*
X158939603Y-89560755D01*
X158798137Y-89644417D01*
X158798129Y-89644423D01*
X158681923Y-89760629D01*
X158681917Y-89760637D01*
X158598255Y-89902103D01*
X158598254Y-89902106D01*
X158552402Y-90059926D01*
X158552401Y-90059932D01*
X158549500Y-90096798D01*
X158549500Y-91403201D01*
X158552401Y-91440067D01*
X158552402Y-91440073D01*
X158598254Y-91597893D01*
X158598257Y-91597900D01*
X158665959Y-91712380D01*
X158683142Y-91780104D01*
X158660982Y-91846366D01*
X158606515Y-91890129D01*
X158559227Y-91899500D01*
X158306163Y-91899500D01*
X158239124Y-91879815D01*
X158218482Y-91863181D01*
X158040837Y-91685536D01*
X158007352Y-91624213D01*
X158012336Y-91554521D01*
X158040835Y-91510175D01*
X158072968Y-91478044D01*
X158162003Y-91333697D01*
X158215349Y-91172708D01*
X158225500Y-91073345D01*
X158225499Y-90526656D01*
X158224765Y-90519475D01*
X158215349Y-90427292D01*
X158215348Y-90427289D01*
X158187265Y-90342539D01*
X158162003Y-90266303D01*
X158161999Y-90266297D01*
X158161998Y-90266294D01*
X158072970Y-90121959D01*
X158072967Y-90121955D01*
X157953044Y-90002032D01*
X157953040Y-90002029D01*
X157808705Y-89913001D01*
X157808699Y-89912998D01*
X157808697Y-89912997D01*
X157775818Y-89902102D01*
X157647709Y-89859651D01*
X157548346Y-89849500D01*
X156951662Y-89849500D01*
X156951644Y-89849501D01*
X156852292Y-89859650D01*
X156852289Y-89859651D01*
X156691305Y-89912996D01*
X156691294Y-89913001D01*
X156546959Y-90002029D01*
X156546954Y-90002033D01*
X156527071Y-90021916D01*
X156465748Y-90055400D01*
X156396056Y-90050414D01*
X156373420Y-90039227D01*
X156349522Y-90024211D01*
X156179254Y-89964631D01*
X156179249Y-89964630D01*
X156000004Y-89944435D01*
X155999996Y-89944435D01*
X155820750Y-89964630D01*
X155820745Y-89964631D01*
X155650475Y-90024211D01*
X155640469Y-90030499D01*
X155573231Y-90049498D01*
X155506397Y-90029129D01*
X155461184Y-89975860D01*
X155450499Y-89925504D01*
X155450499Y-89702129D01*
X155450498Y-89702123D01*
X155447963Y-89678543D01*
X155444296Y-89644423D01*
X155444091Y-89642516D01*
X155393797Y-89507671D01*
X155393795Y-89507668D01*
X155392141Y-89505459D01*
X155375233Y-89482872D01*
X155350816Y-89417408D01*
X155350500Y-89408561D01*
X155350500Y-83770944D01*
X155350500Y-83770943D01*
X155350381Y-83770500D01*
X155336716Y-83719500D01*
X155309577Y-83618216D01*
X155292377Y-83588425D01*
X155230524Y-83481290D01*
X155230521Y-83481286D01*
X155230520Y-83481284D01*
X155118716Y-83369480D01*
X155118715Y-83369479D01*
X155114385Y-83365149D01*
X155114374Y-83365139D01*
X153807590Y-82058355D01*
X153807588Y-82058352D01*
X153688717Y-81939481D01*
X153688716Y-81939480D01*
X153601904Y-81889360D01*
X153601904Y-81889359D01*
X153601900Y-81889358D01*
X153551785Y-81860423D01*
X153551784Y-81860422D01*
X153551783Y-81860422D01*
X153551782Y-81860421D01*
X153482404Y-81841831D01*
X153422744Y-81805466D01*
X153392216Y-81742618D01*
X153390499Y-81722057D01*
X153390499Y-81522129D01*
X153390498Y-81522123D01*
X153389768Y-81515335D01*
X153385299Y-81473757D01*
X153384091Y-81462516D01*
X153333797Y-81327671D01*
X153333793Y-81327664D01*
X153247547Y-81212455D01*
X153247544Y-81212452D01*
X153132335Y-81126206D01*
X153132328Y-81126202D01*
X152997482Y-81075908D01*
X152997483Y-81075908D01*
X152937883Y-81069501D01*
X152937881Y-81069500D01*
X152937873Y-81069500D01*
X152937864Y-81069500D01*
X151142129Y-81069500D01*
X151142123Y-81069501D01*
X151082516Y-81075908D01*
X150947671Y-81126202D01*
X150947664Y-81126206D01*
X150832455Y-81212452D01*
X150832452Y-81212455D01*
X150746206Y-81327664D01*
X150746203Y-81327669D01*
X150697189Y-81459083D01*
X150655317Y-81515016D01*
X150589853Y-81539433D01*
X150521580Y-81524581D01*
X150493326Y-81503430D01*
X150371402Y-81381506D01*
X150371395Y-81381501D01*
X150177834Y-81245967D01*
X150177830Y-81245965D01*
X150177828Y-81245964D01*
X149963663Y-81146097D01*
X149963659Y-81146096D01*
X149963655Y-81146094D01*
X149735413Y-81084938D01*
X149735403Y-81084936D01*
X149500001Y-81064341D01*
X149499999Y-81064341D01*
X149264596Y-81084936D01*
X149264586Y-81084938D01*
X149036344Y-81146094D01*
X149036335Y-81146098D01*
X148822171Y-81245964D01*
X148822169Y-81245965D01*
X148628597Y-81381505D01*
X148461505Y-81548597D01*
X148325965Y-81742169D01*
X148325964Y-81742171D01*
X148226098Y-81956335D01*
X148226094Y-81956344D01*
X148164938Y-82184586D01*
X148164936Y-82184596D01*
X148144341Y-82419999D01*
X148144341Y-82420000D01*
X148164936Y-82655403D01*
X148164938Y-82655413D01*
X148226094Y-82883655D01*
X148226096Y-82883659D01*
X148226097Y-82883663D01*
X148281214Y-83001862D01*
X148325965Y-83097830D01*
X148325967Y-83097834D01*
X148461501Y-83291395D01*
X148461506Y-83291402D01*
X148628597Y-83458493D01*
X148628603Y-83458498D01*
X148814158Y-83588425D01*
X148857783Y-83643002D01*
X148864977Y-83712500D01*
X148833454Y-83774855D01*
X148814158Y-83791575D01*
X148628597Y-83921505D01*
X148461505Y-84088597D01*
X148325965Y-84282169D01*
X148325964Y-84282171D01*
X148226098Y-84496335D01*
X148226094Y-84496344D01*
X148164938Y-84724586D01*
X148164936Y-84724596D01*
X148144341Y-84959999D01*
X148144341Y-84960000D01*
X148164936Y-85195403D01*
X148164938Y-85195413D01*
X148226094Y-85423655D01*
X148226096Y-85423659D01*
X148226097Y-85423663D01*
X148241044Y-85455716D01*
X148325965Y-85637830D01*
X148325967Y-85637834D01*
X148461501Y-85831395D01*
X148461506Y-85831402D01*
X148628597Y-85998493D01*
X148628603Y-85998498D01*
X148814594Y-86128730D01*
X148858219Y-86183307D01*
X148865413Y-86252805D01*
X148833890Y-86315160D01*
X148814595Y-86331880D01*
X148628922Y-86461890D01*
X148628920Y-86461891D01*
X148461891Y-86628920D01*
X148461886Y-86628926D01*
X148326400Y-86822420D01*
X148326399Y-86822422D01*
X148226570Y-87036507D01*
X148226567Y-87036513D01*
X148169364Y-87249999D01*
X148169364Y-87250000D01*
X149066988Y-87250000D01*
X149034075Y-87307007D01*
X149000000Y-87434174D01*
X149000000Y-87565826D01*
X149034075Y-87692993D01*
X149066988Y-87750000D01*
X148169364Y-87750000D01*
X148226567Y-87963486D01*
X148226570Y-87963492D01*
X148326399Y-88177578D01*
X148461894Y-88371082D01*
X148628917Y-88538105D01*
X148822421Y-88673600D01*
X149036507Y-88773429D01*
X149036516Y-88773433D01*
X149250000Y-88830634D01*
X149250000Y-87933012D01*
X149307007Y-87965925D01*
X149434174Y-88000000D01*
X149565826Y-88000000D01*
X149692993Y-87965925D01*
X149750000Y-87933012D01*
X149750000Y-88830633D01*
X149963483Y-88773433D01*
X149963492Y-88773429D01*
X150177578Y-88673600D01*
X150371082Y-88538105D01*
X150538105Y-88371082D01*
X150668425Y-88184968D01*
X150723002Y-88141344D01*
X150792501Y-88134151D01*
X150854855Y-88165673D01*
X150871575Y-88184968D01*
X151001894Y-88371082D01*
X151168917Y-88538105D01*
X151362421Y-88673600D01*
X151576507Y-88773429D01*
X151576516Y-88773433D01*
X151790000Y-88830634D01*
X151790000Y-87933012D01*
X151847007Y-87965925D01*
X151974174Y-88000000D01*
X152105826Y-88000000D01*
X152232993Y-87965925D01*
X152290000Y-87933012D01*
X152290000Y-88830633D01*
X152493407Y-88776133D01*
X152563257Y-88777796D01*
X152621119Y-88816959D01*
X152648623Y-88881187D01*
X152649500Y-88895908D01*
X152649500Y-89408561D01*
X152629815Y-89475600D01*
X152624767Y-89482872D01*
X152606204Y-89507668D01*
X152606202Y-89507671D01*
X152558214Y-89636336D01*
X152555909Y-89642517D01*
X152549500Y-89702127D01*
X152549500Y-89702134D01*
X152549500Y-89702135D01*
X152549500Y-89702136D01*
X152549501Y-90275500D01*
X152529817Y-90342539D01*
X152477013Y-90388294D01*
X152425501Y-90399500D01*
X149050940Y-90399500D01*
X149010019Y-90410464D01*
X149010019Y-90410465D01*
X148972751Y-90420451D01*
X148898214Y-90440423D01*
X148898209Y-90440426D01*
X148761290Y-90519475D01*
X148761282Y-90519481D01*
X148649478Y-90631286D01*
X148442705Y-90838058D01*
X148381382Y-90871543D01*
X148322931Y-90870152D01*
X148226697Y-90844366D01*
X148226693Y-90844365D01*
X148226692Y-90844365D01*
X148226691Y-90844364D01*
X148226686Y-90844364D01*
X148000002Y-90824532D01*
X147999998Y-90824532D01*
X147773313Y-90844364D01*
X147773302Y-90844366D01*
X147553511Y-90903258D01*
X147553502Y-90903261D01*
X147347267Y-90999431D01*
X147347265Y-90999432D01*
X147160858Y-91129954D01*
X146999954Y-91290858D01*
X146869432Y-91477265D01*
X146869431Y-91477267D01*
X146773261Y-91683502D01*
X146773258Y-91683511D01*
X146714366Y-91903302D01*
X146714364Y-91903313D01*
X146694532Y-92129998D01*
X146694532Y-92130001D01*
X146714364Y-92356686D01*
X146714366Y-92356697D01*
X146773258Y-92576488D01*
X146773261Y-92576497D01*
X146869431Y-92782732D01*
X146869432Y-92782734D01*
X146999954Y-92969141D01*
X147160858Y-93130045D01*
X147160861Y-93130047D01*
X147347266Y-93260568D01*
X147405275Y-93287618D01*
X147457714Y-93333791D01*
X147476866Y-93400984D01*
X147456650Y-93467865D01*
X147405275Y-93512381D01*
X147403439Y-93513238D01*
X147347267Y-93539431D01*
X147347265Y-93539432D01*
X147160858Y-93669954D01*
X146999954Y-93830858D01*
X146869432Y-94017265D01*
X146869431Y-94017267D01*
X146773261Y-94223502D01*
X146773258Y-94223511D01*
X146714366Y-94443302D01*
X146714364Y-94443313D01*
X146694532Y-94669998D01*
X146694532Y-94670001D01*
X146714364Y-94896686D01*
X146714366Y-94896697D01*
X146773258Y-95116488D01*
X146773261Y-95116497D01*
X146869431Y-95322732D01*
X146869432Y-95322734D01*
X146999954Y-95509141D01*
X147160858Y-95670045D01*
X147175824Y-95680524D01*
X147347266Y-95800568D01*
X147389335Y-95820185D01*
X147405275Y-95827618D01*
X147457714Y-95873791D01*
X147476866Y-95940984D01*
X147456650Y-96007865D01*
X147405275Y-96052381D01*
X147388272Y-96060310D01*
X147347267Y-96079431D01*
X147347265Y-96079432D01*
X147160858Y-96209954D01*
X146999954Y-96370858D01*
X146869432Y-96557265D01*
X146869431Y-96557267D01*
X146773261Y-96763502D01*
X146773258Y-96763511D01*
X146714366Y-96983302D01*
X146714364Y-96983313D01*
X146694532Y-97209998D01*
X146694532Y-97210001D01*
X146714364Y-97436686D01*
X146714366Y-97436697D01*
X146773258Y-97656488D01*
X146773261Y-97656497D01*
X146869431Y-97862732D01*
X146869432Y-97862734D01*
X146999954Y-98049141D01*
X147160858Y-98210045D01*
X147185462Y-98227273D01*
X147229087Y-98281849D01*
X147236281Y-98351348D01*
X147204758Y-98413703D01*
X147144529Y-98449117D01*
X147127593Y-98452138D01*
X147092516Y-98455908D01*
X146957671Y-98506202D01*
X146957664Y-98506206D01*
X146842455Y-98592452D01*
X146842452Y-98592455D01*
X146756206Y-98707664D01*
X146756202Y-98707671D01*
X146705908Y-98842517D01*
X146699501Y-98902116D01*
X146699500Y-98902135D01*
X146699500Y-100597870D01*
X146699501Y-100597876D01*
X146705908Y-100657483D01*
X146756202Y-100792328D01*
X146756206Y-100792335D01*
X146842452Y-100907544D01*
X146842455Y-100907547D01*
X146957664Y-100993793D01*
X146957671Y-100993797D01*
X147092517Y-101044091D01*
X147092516Y-101044091D01*
X147099444Y-101044835D01*
X147152127Y-101050500D01*
X148844617Y-101050499D01*
X148911656Y-101070184D01*
X148957411Y-101122987D01*
X148967355Y-101192146D01*
X148938330Y-101255702D01*
X148926272Y-101267818D01*
X147844598Y-102214283D01*
X147844584Y-102214296D01*
X147783092Y-102278491D01*
X147783076Y-102278509D01*
X147755909Y-102312392D01*
X147755906Y-102312396D01*
X147702653Y-102392310D01*
X147700180Y-102390662D01*
X147661268Y-102431663D01*
X147593407Y-102448294D01*
X147527327Y-102425596D01*
X147511337Y-102412102D01*
X143386819Y-98287584D01*
X143353334Y-98226261D01*
X143350500Y-98199903D01*
X143350500Y-94420945D01*
X143350499Y-94420938D01*
X143348775Y-94414506D01*
X143347416Y-94409432D01*
X143309577Y-94268215D01*
X143278641Y-94214632D01*
X143230520Y-94131284D01*
X143118716Y-94019480D01*
X143118715Y-94019479D01*
X143114385Y-94015149D01*
X143114374Y-94015139D01*
X141671941Y-92572706D01*
X141638456Y-92511383D01*
X141639847Y-92452931D01*
X141665635Y-92356692D01*
X141685468Y-92130000D01*
X141680809Y-92076753D01*
X141675927Y-92020951D01*
X141665635Y-91903308D01*
X141607606Y-91686739D01*
X141606741Y-91683511D01*
X141606738Y-91683502D01*
X141605403Y-91680639D01*
X141510568Y-91477266D01*
X141395843Y-91313420D01*
X141380045Y-91290858D01*
X141219141Y-91129954D01*
X141032734Y-90999432D01*
X141032732Y-90999431D01*
X140826497Y-90903261D01*
X140826488Y-90903258D01*
X140606697Y-90844366D01*
X140606693Y-90844365D01*
X140606692Y-90844365D01*
X140606691Y-90844364D01*
X140606686Y-90844364D01*
X140380002Y-90824532D01*
X140379998Y-90824532D01*
X140153313Y-90844364D01*
X140153302Y-90844366D01*
X139933511Y-90903258D01*
X139933502Y-90903261D01*
X139727267Y-90999431D01*
X139727265Y-90999432D01*
X139540858Y-91129954D01*
X139462181Y-91208632D01*
X139400858Y-91242117D01*
X139331166Y-91237133D01*
X139275233Y-91195261D01*
X139250816Y-91129797D01*
X139250500Y-91120951D01*
X139250500Y-77702135D01*
X153999500Y-77702135D01*
X153999500Y-78797870D01*
X153999501Y-78797876D01*
X154005908Y-78857483D01*
X154056202Y-78992328D01*
X154056206Y-78992335D01*
X154142452Y-79107544D01*
X154142455Y-79107547D01*
X154257664Y-79193793D01*
X154257671Y-79193797D01*
X154379282Y-79239155D01*
X154435216Y-79281026D01*
X154459633Y-79346490D01*
X154459169Y-79369220D01*
X154444435Y-79499995D01*
X154444435Y-79500003D01*
X154464630Y-79679249D01*
X154464631Y-79679254D01*
X154524211Y-79849523D01*
X154616607Y-79996569D01*
X154620184Y-80002262D01*
X154747738Y-80129816D01*
X154838080Y-80186582D01*
X154898426Y-80224500D01*
X154900478Y-80225789D01*
X155070745Y-80285368D01*
X155070750Y-80285369D01*
X155249996Y-80305565D01*
X155250000Y-80305565D01*
X155250004Y-80305565D01*
X155429249Y-80285369D01*
X155429252Y-80285368D01*
X155429255Y-80285368D01*
X155599522Y-80225789D01*
X155752262Y-80129816D01*
X155879816Y-80002262D01*
X155975789Y-79849522D01*
X156000908Y-79777735D01*
X159869500Y-79777735D01*
X159869500Y-79777741D01*
X159869500Y-80926000D01*
X159869501Y-80926009D01*
X159881052Y-81033450D01*
X159881054Y-81033462D01*
X159892260Y-81084972D01*
X159926383Y-81187497D01*
X159926386Y-81187503D01*
X160004171Y-81308537D01*
X160004179Y-81308548D01*
X160049923Y-81361340D01*
X160049926Y-81361343D01*
X160049930Y-81361347D01*
X160158664Y-81455567D01*
X160158667Y-81455568D01*
X160158668Y-81455569D01*
X160277033Y-81509626D01*
X160289541Y-81515338D01*
X160356580Y-81535023D01*
X160356584Y-81535024D01*
X160499000Y-81555500D01*
X160499003Y-81555500D01*
X161287271Y-81555500D01*
X161294333Y-81555121D01*
X161341308Y-81552603D01*
X161341314Y-81552602D01*
X161341320Y-81552602D01*
X161350927Y-81551568D01*
X161367667Y-81549769D01*
X161367677Y-81549767D01*
X161367680Y-81549767D01*
X161421079Y-81541114D01*
X161421079Y-81541113D01*
X161421085Y-81541113D01*
X161555894Y-81490830D01*
X161556194Y-81490665D01*
X161556324Y-81490632D01*
X161559919Y-81488991D01*
X161560215Y-81489639D01*
X161615619Y-81475499D01*
X161673338Y-81475499D01*
X161673344Y-81475499D01*
X161673352Y-81475498D01*
X161673355Y-81475498D01*
X161727760Y-81469940D01*
X161772708Y-81465349D01*
X161933697Y-81412003D01*
X162078044Y-81322968D01*
X162109693Y-81291319D01*
X162171016Y-81257834D01*
X162197374Y-81255000D01*
X162239140Y-81255000D01*
X162302260Y-81272267D01*
X162352102Y-81301744D01*
X162393724Y-81313836D01*
X162509926Y-81347597D01*
X162509929Y-81347597D01*
X162509931Y-81347598D01*
X162546806Y-81350500D01*
X163363000Y-81350500D01*
X163430039Y-81370185D01*
X163475794Y-81422989D01*
X163487000Y-81474500D01*
X163487000Y-81525500D01*
X163467315Y-81592539D01*
X163414511Y-81638294D01*
X163363000Y-81649500D01*
X162546798Y-81649500D01*
X162509932Y-81652401D01*
X162509926Y-81652402D01*
X162352106Y-81698254D01*
X162352103Y-81698255D01*
X162210637Y-81781917D01*
X162210629Y-81781923D01*
X162094423Y-81898129D01*
X162094417Y-81898137D01*
X162010755Y-82039603D01*
X162010754Y-82039606D01*
X161964902Y-82197426D01*
X161964901Y-82197432D01*
X161962000Y-82234298D01*
X161962000Y-82665701D01*
X161964901Y-82702567D01*
X161964902Y-82702573D01*
X162010754Y-82860393D01*
X162010755Y-82860396D01*
X162010756Y-82860398D01*
X162027827Y-82889263D01*
X162094417Y-83001862D01*
X162094423Y-83001870D01*
X162210629Y-83118076D01*
X162210633Y-83118079D01*
X162210635Y-83118081D01*
X162352102Y-83201744D01*
X162352109Y-83201746D01*
X162509926Y-83247597D01*
X162509929Y-83247597D01*
X162509931Y-83247598D01*
X162546806Y-83250500D01*
X162546814Y-83250500D01*
X163703186Y-83250500D01*
X163703194Y-83250500D01*
X163740069Y-83247598D01*
X163740071Y-83247597D01*
X163740073Y-83247597D01*
X163897893Y-83201746D01*
X163897894Y-83201744D01*
X163897898Y-83201744D01*
X163901353Y-83199700D01*
X163940288Y-83184810D01*
X164006412Y-83171658D01*
X164142994Y-83115084D01*
X164228753Y-83057782D01*
X164265915Y-83032952D01*
X164820452Y-82478414D01*
X164859118Y-82420545D01*
X164872525Y-82400479D01*
X164902510Y-82355607D01*
X164956123Y-82310803D01*
X165005610Y-82300500D01*
X165978186Y-82300500D01*
X165978194Y-82300500D01*
X165990709Y-82299515D01*
X166059087Y-82313879D01*
X166108317Y-82361992D01*
X166110646Y-82366102D01*
X166150506Y-82420547D01*
X166180013Y-82460851D01*
X166291923Y-82551280D01*
X166291927Y-82551282D01*
X166291934Y-82551286D01*
X166351965Y-82587012D01*
X166484820Y-82642249D01*
X166627855Y-82657819D01*
X166695561Y-82655491D01*
X166697181Y-82655463D01*
X166697679Y-82655418D01*
X166697684Y-82655418D01*
X166697689Y-82655418D01*
X166818102Y-82633857D01*
X166827359Y-82632558D01*
X166846120Y-82630642D01*
X166858718Y-82630000D01*
X167390495Y-82630000D01*
X167429493Y-82636292D01*
X167454857Y-82644696D01*
X167480945Y-82656862D01*
X167500042Y-82668641D01*
X167522624Y-82686496D01*
X167538695Y-82702567D01*
X167549403Y-82713275D01*
X167568097Y-82731038D01*
X167568114Y-82731054D01*
X167577515Y-82739540D01*
X167585953Y-82746774D01*
X167597103Y-82756334D01*
X167597105Y-82756335D01*
X167597106Y-82756336D01*
X167720481Y-82830364D01*
X167784899Y-82857420D01*
X167784905Y-82857422D01*
X167924139Y-82893691D01*
X168067951Y-82889263D01*
X168136771Y-82877196D01*
X168273510Y-82832432D01*
X168392099Y-82750956D01*
X168443470Y-82703598D01*
X168443471Y-82703597D01*
X168534302Y-82592012D01*
X169755004Y-80557510D01*
X169755004Y-80557509D01*
X169915792Y-80289528D01*
X169956092Y-80195603D01*
X170000616Y-80141759D01*
X170067183Y-80120532D01*
X170070045Y-80120499D01*
X170334168Y-80120499D01*
X170334180Y-80120499D01*
X170370204Y-80117665D01*
X170524393Y-80072869D01*
X170533018Y-80067767D01*
X170596139Y-80050500D01*
X170755172Y-80050500D01*
X170789767Y-80055424D01*
X170934926Y-80097597D01*
X170934929Y-80097597D01*
X170934931Y-80097598D01*
X170971806Y-80100500D01*
X172138000Y-80100500D01*
X172205039Y-80120185D01*
X172250794Y-80172989D01*
X172262000Y-80224500D01*
X172262000Y-80465701D01*
X172264901Y-80502567D01*
X172264902Y-80502573D01*
X172310754Y-80660393D01*
X172310755Y-80660396D01*
X172394417Y-80801862D01*
X172394423Y-80801870D01*
X172510629Y-80918076D01*
X172510633Y-80918079D01*
X172510635Y-80918081D01*
X172652102Y-81001744D01*
X172693724Y-81013836D01*
X172809926Y-81047597D01*
X172809929Y-81047597D01*
X172809931Y-81047598D01*
X172846806Y-81050500D01*
X172846814Y-81050500D01*
X174153186Y-81050500D01*
X174153194Y-81050500D01*
X174190069Y-81047598D01*
X174190071Y-81047597D01*
X174190073Y-81047597D01*
X174238766Y-81033450D01*
X174347898Y-81001744D01*
X174489365Y-80918081D01*
X174605581Y-80801865D01*
X174689244Y-80660398D01*
X174735098Y-80502569D01*
X174738000Y-80465694D01*
X174738000Y-80034306D01*
X174735098Y-79997431D01*
X174728702Y-79975417D01*
X174689245Y-79839606D01*
X174689244Y-79839603D01*
X174689244Y-79839602D01*
X174605581Y-79698135D01*
X174605579Y-79698133D01*
X174605576Y-79698129D01*
X174489370Y-79581923D01*
X174489362Y-79581917D01*
X174366916Y-79509503D01*
X174347898Y-79498256D01*
X174347897Y-79498255D01*
X174347896Y-79498255D01*
X174347893Y-79498254D01*
X174190073Y-79452402D01*
X174190067Y-79452401D01*
X174153201Y-79449500D01*
X174153194Y-79449500D01*
X172987000Y-79449500D01*
X172919961Y-79429815D01*
X172874206Y-79377011D01*
X172863000Y-79325500D01*
X172863000Y-79084313D01*
X172862999Y-79084298D01*
X172860098Y-79047432D01*
X172860097Y-79047426D01*
X172814245Y-78889606D01*
X172814244Y-78889603D01*
X172814244Y-78889602D01*
X172730581Y-78748135D01*
X172730579Y-78748133D01*
X172730576Y-78748129D01*
X172614370Y-78631923D01*
X172614362Y-78631917D01*
X172472896Y-78548255D01*
X172472893Y-78548254D01*
X172315073Y-78502402D01*
X172315067Y-78502401D01*
X172278201Y-78499500D01*
X172278194Y-78499500D01*
X170971806Y-78499500D01*
X170971798Y-78499500D01*
X170934932Y-78502401D01*
X170934926Y-78502402D01*
X170789767Y-78544576D01*
X170755172Y-78549500D01*
X170596139Y-78549500D01*
X170533018Y-78532232D01*
X170524393Y-78527131D01*
X170524388Y-78527129D01*
X170370208Y-78482335D01*
X170370202Y-78482334D01*
X170334188Y-78479500D01*
X169979016Y-78479500D01*
X169911977Y-78459815D01*
X169870240Y-78415028D01*
X169842160Y-78363714D01*
X169756050Y-78248900D01*
X169731574Y-78183457D01*
X169746364Y-78115171D01*
X169795725Y-78065721D01*
X169855250Y-78050500D01*
X169862025Y-78050500D01*
X169901029Y-78056794D01*
X170002292Y-78090349D01*
X170101655Y-78100500D01*
X170648344Y-78100499D01*
X170648352Y-78100498D01*
X170648355Y-78100498D01*
X170702760Y-78094940D01*
X170747708Y-78090349D01*
X170908697Y-78037003D01*
X171053044Y-77947968D01*
X171172968Y-77828044D01*
X171262003Y-77683697D01*
X171315349Y-77522708D01*
X171325500Y-77423345D01*
X171325499Y-76576656D01*
X171321754Y-76539999D01*
X171315349Y-76477292D01*
X171315348Y-76477289D01*
X171287916Y-76394504D01*
X171262003Y-76316303D01*
X171261999Y-76316297D01*
X171261998Y-76316294D01*
X171172970Y-76171959D01*
X171172967Y-76171955D01*
X171053044Y-76052032D01*
X171053040Y-76052029D01*
X170908705Y-75963001D01*
X170908699Y-75962998D01*
X170908697Y-75962997D01*
X170908694Y-75962996D01*
X170747709Y-75909651D01*
X170648346Y-75899500D01*
X170101662Y-75899500D01*
X170101644Y-75899501D01*
X170002292Y-75909650D01*
X170002289Y-75909651D01*
X169841305Y-75962996D01*
X169841294Y-75963001D01*
X169696959Y-76052029D01*
X169696955Y-76052032D01*
X169577032Y-76171955D01*
X169577029Y-76171959D01*
X169488001Y-76316294D01*
X169487996Y-76316305D01*
X169462084Y-76394504D01*
X169422311Y-76451949D01*
X169357795Y-76478772D01*
X169344378Y-76479500D01*
X168982867Y-76479500D01*
X168915828Y-76459815D01*
X168876197Y-76418726D01*
X168836181Y-76351215D01*
X168730923Y-76253129D01*
X168730920Y-76253127D01*
X168673546Y-76213254D01*
X168591133Y-76171955D01*
X168544923Y-76148798D01*
X168544920Y-76148797D01*
X168544919Y-76148796D01*
X168544918Y-76148796D01*
X166678942Y-75526804D01*
X166678935Y-75526802D01*
X166678929Y-75526800D01*
X166600062Y-75507391D01*
X166600058Y-75507390D01*
X166560846Y-75501027D01*
X166560834Y-75501025D01*
X166495235Y-75495738D01*
X166479877Y-75494500D01*
X164874000Y-75494500D01*
X164873991Y-75494500D01*
X164873990Y-75494501D01*
X164766549Y-75506052D01*
X164766537Y-75506054D01*
X164715027Y-75517260D01*
X164612502Y-75551383D01*
X164612496Y-75551386D01*
X164491462Y-75629171D01*
X164491451Y-75629179D01*
X164438659Y-75674923D01*
X164344433Y-75783664D01*
X164344430Y-75783668D01*
X164284664Y-75914534D01*
X164264976Y-75981581D01*
X164256048Y-76043678D01*
X164227022Y-76107233D01*
X164168244Y-76145007D01*
X164098374Y-76145007D01*
X164039596Y-76107232D01*
X164028994Y-76093069D01*
X163995826Y-76041458D01*
X163995820Y-76041451D01*
X163950076Y-75988659D01*
X163950072Y-75988656D01*
X163950070Y-75988653D01*
X163841336Y-75894433D01*
X163841333Y-75894431D01*
X163841331Y-75894430D01*
X163710465Y-75834664D01*
X163710460Y-75834662D01*
X163710459Y-75834662D01*
X163643420Y-75814977D01*
X163643422Y-75814977D01*
X163643417Y-75814976D01*
X163595944Y-75808150D01*
X163501000Y-75794500D01*
X162078661Y-75794500D01*
X162078655Y-75794500D01*
X161939110Y-75814143D01*
X161939108Y-75814144D01*
X161873309Y-75833043D01*
X161873299Y-75833047D01*
X161744593Y-75890455D01*
X161634752Y-75983389D01*
X161588383Y-76035645D01*
X161588376Y-76035653D01*
X161509171Y-76155761D01*
X159929511Y-79509500D01*
X159929507Y-79509508D01*
X159893519Y-79614526D01*
X159893516Y-79614539D01*
X159881695Y-79667376D01*
X159869500Y-79777735D01*
X156000908Y-79777735D01*
X156035368Y-79679255D01*
X156035369Y-79679249D01*
X156055565Y-79500003D01*
X156055565Y-79499996D01*
X156035369Y-79320753D01*
X156035367Y-79320742D01*
X156021245Y-79280384D01*
X156017683Y-79210605D01*
X156052411Y-79149978D01*
X156063970Y-79140166D01*
X156107546Y-79107546D01*
X156193796Y-78992331D01*
X156244091Y-78857483D01*
X156250500Y-78797873D01*
X156250499Y-77702128D01*
X156244091Y-77642517D01*
X156220213Y-77578498D01*
X156193797Y-77507671D01*
X156193793Y-77507664D01*
X156107547Y-77392455D01*
X156107544Y-77392452D01*
X155992335Y-77306206D01*
X155992328Y-77306202D01*
X155857482Y-77255908D01*
X155857483Y-77255908D01*
X155797883Y-77249501D01*
X155797881Y-77249500D01*
X155797873Y-77249500D01*
X155797864Y-77249500D01*
X154452129Y-77249500D01*
X154452123Y-77249501D01*
X154392516Y-77255908D01*
X154257671Y-77306202D01*
X154257664Y-77306206D01*
X154142455Y-77392452D01*
X154142452Y-77392455D01*
X154056206Y-77507664D01*
X154056202Y-77507671D01*
X154005908Y-77642517D01*
X153999501Y-77702116D01*
X153999501Y-77702123D01*
X153999500Y-77702135D01*
X139250500Y-77702135D01*
X139250500Y-68974999D01*
X148254364Y-68974999D01*
X148254364Y-68975000D01*
X149151988Y-68975000D01*
X149119075Y-69032007D01*
X149085000Y-69159174D01*
X149085000Y-69290826D01*
X149119075Y-69417993D01*
X149151988Y-69475000D01*
X148254364Y-69475000D01*
X148311567Y-69688486D01*
X148311570Y-69688492D01*
X148411399Y-69902578D01*
X148546894Y-70096082D01*
X148713917Y-70263105D01*
X148900031Y-70393425D01*
X148943656Y-70448003D01*
X148950848Y-70517501D01*
X148919326Y-70579856D01*
X148900031Y-70596575D01*
X148713922Y-70726890D01*
X148713920Y-70726891D01*
X148546891Y-70893920D01*
X148546886Y-70893926D01*
X148411400Y-71087420D01*
X148411399Y-71087422D01*
X148311570Y-71301507D01*
X148311567Y-71301513D01*
X148254364Y-71514999D01*
X148254364Y-71515000D01*
X149151988Y-71515000D01*
X149119075Y-71572007D01*
X149085000Y-71699174D01*
X149085000Y-71830826D01*
X149119075Y-71957993D01*
X149151988Y-72015000D01*
X148254364Y-72015000D01*
X148311567Y-72228486D01*
X148311570Y-72228492D01*
X148411399Y-72442578D01*
X148546894Y-72636082D01*
X148713917Y-72803105D01*
X148900031Y-72933425D01*
X148943656Y-72988003D01*
X148950848Y-73057501D01*
X148919326Y-73119856D01*
X148900031Y-73136575D01*
X148713922Y-73266890D01*
X148713920Y-73266891D01*
X148546891Y-73433920D01*
X148546886Y-73433926D01*
X148411400Y-73627420D01*
X148411399Y-73627422D01*
X148311570Y-73841507D01*
X148311567Y-73841513D01*
X148254364Y-74054999D01*
X148254364Y-74055000D01*
X149151988Y-74055000D01*
X149119075Y-74112007D01*
X149085000Y-74239174D01*
X149085000Y-74370826D01*
X149119075Y-74497993D01*
X149151988Y-74555000D01*
X148254364Y-74555000D01*
X148311567Y-74768486D01*
X148311570Y-74768492D01*
X148411399Y-74982578D01*
X148546894Y-75176082D01*
X148713917Y-75343105D01*
X148907421Y-75478600D01*
X149121507Y-75578429D01*
X149121516Y-75578433D01*
X149335000Y-75635634D01*
X149335000Y-74738012D01*
X149392007Y-74770925D01*
X149519174Y-74805000D01*
X149650826Y-74805000D01*
X149777993Y-74770925D01*
X149835000Y-74738012D01*
X149835000Y-75635633D01*
X150048483Y-75578433D01*
X150048492Y-75578429D01*
X150262578Y-75478600D01*
X150456082Y-75343105D01*
X150623105Y-75176082D01*
X150753119Y-74990405D01*
X150807696Y-74946781D01*
X150877195Y-74939588D01*
X150939549Y-74971110D01*
X150956269Y-74990405D01*
X151086505Y-75176401D01*
X151253599Y-75343495D01*
X151350384Y-75411265D01*
X151447165Y-75479032D01*
X151447167Y-75479033D01*
X151447170Y-75479035D01*
X151661337Y-75578903D01*
X151889592Y-75640063D01*
X152077918Y-75656539D01*
X152124999Y-75660659D01*
X152125000Y-75660659D01*
X152125001Y-75660659D01*
X152164234Y-75657226D01*
X152360408Y-75640063D01*
X152588663Y-75578903D01*
X152802830Y-75479035D01*
X152996401Y-75343495D01*
X153163495Y-75176401D01*
X153299035Y-74982830D01*
X153398903Y-74768663D01*
X153460063Y-74540408D01*
X153480659Y-74305000D01*
X153460063Y-74069592D01*
X153398903Y-73841337D01*
X153299035Y-73627171D01*
X153293731Y-73619595D01*
X153163494Y-73433597D01*
X152996402Y-73266506D01*
X152996396Y-73266501D01*
X152810842Y-73136575D01*
X152767217Y-73081998D01*
X152760023Y-73012500D01*
X152791546Y-72950145D01*
X152810842Y-72933425D01*
X152963689Y-72826400D01*
X152996401Y-72803495D01*
X153163495Y-72636401D01*
X153299035Y-72442830D01*
X153398903Y-72228663D01*
X153460063Y-72000408D01*
X153480659Y-71765000D01*
X153460063Y-71529592D01*
X153398903Y-71301337D01*
X153299035Y-71087171D01*
X153293730Y-71079595D01*
X153163496Y-70893600D01*
X153128397Y-70858501D01*
X153041567Y-70771671D01*
X153008084Y-70710351D01*
X153013068Y-70640659D01*
X153054939Y-70584725D01*
X153085915Y-70567810D01*
X153217331Y-70518796D01*
X153332546Y-70432546D01*
X153418796Y-70317331D01*
X153469091Y-70182483D01*
X153475500Y-70122873D01*
X153475499Y-68327128D01*
X153469091Y-68267517D01*
X153468002Y-68264598D01*
X153418797Y-68132671D01*
X153418793Y-68132664D01*
X153332547Y-68017455D01*
X153332544Y-68017452D01*
X153217335Y-67931206D01*
X153217328Y-67931202D01*
X153082482Y-67880908D01*
X153082483Y-67880908D01*
X153022883Y-67874501D01*
X153022881Y-67874500D01*
X153022873Y-67874500D01*
X153022864Y-67874500D01*
X151227129Y-67874500D01*
X151227123Y-67874501D01*
X151167516Y-67880908D01*
X151032671Y-67931202D01*
X151032664Y-67931206D01*
X150917455Y-68017452D01*
X150917452Y-68017455D01*
X150831206Y-68132664D01*
X150831202Y-68132671D01*
X150781997Y-68264598D01*
X150740126Y-68320532D01*
X150674661Y-68344949D01*
X150606388Y-68330097D01*
X150578134Y-68308946D01*
X150456082Y-68186894D01*
X150262578Y-68051399D01*
X150048492Y-67951570D01*
X150048486Y-67951567D01*
X149835000Y-67894364D01*
X149835000Y-68791988D01*
X149777993Y-68759075D01*
X149650826Y-68725000D01*
X149519174Y-68725000D01*
X149392007Y-68759075D01*
X149335000Y-68791988D01*
X149335000Y-67894364D01*
X149334999Y-67894364D01*
X149121513Y-67951567D01*
X149121507Y-67951570D01*
X148907422Y-68051399D01*
X148907420Y-68051400D01*
X148713926Y-68186886D01*
X148713920Y-68186891D01*
X148546891Y-68353920D01*
X148546886Y-68353926D01*
X148411400Y-68547420D01*
X148411399Y-68547422D01*
X148311570Y-68761507D01*
X148311567Y-68761513D01*
X148254364Y-68974999D01*
X139250500Y-68974999D01*
X139250500Y-55003480D01*
X139250695Y-54996528D01*
X139255897Y-54903895D01*
X139267398Y-54699097D01*
X139268952Y-54685298D01*
X139318269Y-54395041D01*
X139321363Y-54381489D01*
X139351391Y-54277262D01*
X139402867Y-54098582D01*
X139407459Y-54085462D01*
X139510467Y-53836777D01*
X139520123Y-53813463D01*
X139526145Y-53800957D01*
X139668566Y-53543267D01*
X139675961Y-53531499D01*
X139682503Y-53522279D01*
X139846330Y-53291385D01*
X139854985Y-53280531D01*
X140051179Y-53060991D01*
X140060991Y-53051179D01*
X140280531Y-52854985D01*
X140291385Y-52846330D01*
X140531504Y-52675957D01*
X140543267Y-52668566D01*
X140800957Y-52526145D01*
X140813463Y-52520123D01*
X141085462Y-52407459D01*
X141098582Y-52402867D01*
X141381494Y-52321361D01*
X141395041Y-52318269D01*
X141685298Y-52268952D01*
X141699097Y-52267398D01*
X141959562Y-52252770D01*
X141996529Y-52250695D01*
X142003481Y-52250500D01*
X142044170Y-52250500D01*
X193455830Y-52250500D01*
X193496519Y-52250500D01*
X193503471Y-52250695D01*
G37*
%TD.AperFunction*%
%TA.AperFunction,Conductor*%
G36*
X185369075Y-99977007D02*
G01*
X185335000Y-100104174D01*
X185335000Y-100235826D01*
X185369075Y-100362993D01*
X185401988Y-100420000D01*
X183728012Y-100420000D01*
X183760925Y-100362993D01*
X183795000Y-100235826D01*
X183795000Y-100104174D01*
X183760925Y-99977007D01*
X183728012Y-99920000D01*
X185401988Y-99920000D01*
X185369075Y-99977007D01*
G37*
%TD.AperFunction*%
%TA.AperFunction,Conductor*%
G36*
X151574075Y-87307007D02*
G01*
X151540000Y-87434174D01*
X151540000Y-87565826D01*
X151574075Y-87692993D01*
X151606988Y-87750000D01*
X149933012Y-87750000D01*
X149965925Y-87692993D01*
X150000000Y-87565826D01*
X150000000Y-87434174D01*
X149965925Y-87307007D01*
X149933012Y-87250000D01*
X151606988Y-87250000D01*
X151574075Y-87307007D01*
G37*
%TD.AperFunction*%
%TA.AperFunction,Conductor*%
G36*
X185324075Y-73807007D02*
G01*
X185290000Y-73934174D01*
X185290000Y-74065826D01*
X185324075Y-74192993D01*
X185356988Y-74250000D01*
X183683012Y-74250000D01*
X183715925Y-74192993D01*
X183750000Y-74065826D01*
X183750000Y-73934174D01*
X183715925Y-73807007D01*
X183683012Y-73750000D01*
X185356988Y-73750000D01*
X185324075Y-73807007D01*
G37*
%TD.AperFunction*%
%TD*%
M02*
