%TF.GenerationSoftware,KiCad,Pcbnew,8.0.6+1*%
%TF.CreationDate,2024-12-27T01:31:40-08:00*%
%TF.ProjectId,pico-logic-analyzer,7069636f-2d6c-46f6-9769-632d616e616c,rev?*%
%TF.SameCoordinates,Original*%
%TF.FileFunction,OtherDrawing,Comment*%
%FSLAX46Y46*%
G04 Gerber Fmt 4.6, Leading zero omitted, Abs format (unit mm)*
G04 Created by KiCad (PCBNEW 8.0.6+1) date 2024-12-27 01:31:40*
%MOMM*%
%LPD*%
G01*
G04 APERTURE LIST*
%ADD10C,0.187500*%
%ADD11C,0.200000*%
%ADD12C,0.120000*%
G04 APERTURE END LIST*
D10*
X115418372Y-82735265D02*
X115417998Y-83092408D01*
X115417998Y-83092408D02*
X115775103Y-83128497D01*
X115775103Y-83128497D02*
X115739426Y-83092745D01*
X115739426Y-83092745D02*
X115703787Y-83021279D01*
X115703787Y-83021279D02*
X115703974Y-82842708D01*
X115703974Y-82842708D02*
X115739763Y-82771317D01*
X115739763Y-82771317D02*
X115775515Y-82735640D01*
X115775515Y-82735640D02*
X115846981Y-82700000D01*
X115846981Y-82700000D02*
X116025552Y-82700188D01*
X116025552Y-82700188D02*
X116096943Y-82735977D01*
X116096943Y-82735977D02*
X116132620Y-82771728D01*
X116132620Y-82771728D02*
X116168259Y-82843194D01*
X116168259Y-82843194D02*
X116168072Y-83021766D01*
X116168072Y-83021766D02*
X116132283Y-83093157D01*
X116132283Y-83093157D02*
X116096531Y-83128834D01*
X115418896Y-82235265D02*
X115418971Y-82163837D01*
X115418971Y-82163837D02*
X115454760Y-82092446D01*
X115454760Y-82092446D02*
X115490512Y-82056769D01*
X115490512Y-82056769D02*
X115561978Y-82021130D01*
X115561978Y-82021130D02*
X115704873Y-81985565D01*
X115704873Y-81985565D02*
X115883444Y-81985752D01*
X115883444Y-81985752D02*
X116026264Y-82021616D01*
X116026264Y-82021616D02*
X116097655Y-82057405D01*
X116097655Y-82057405D02*
X116133332Y-82093157D01*
X116133332Y-82093157D02*
X116168971Y-82164623D01*
X116168971Y-82164623D02*
X116168896Y-82236052D01*
X116168896Y-82236052D02*
X116133107Y-82307443D01*
X116133107Y-82307443D02*
X116097355Y-82343120D01*
X116097355Y-82343120D02*
X116025889Y-82378759D01*
X116025889Y-82378759D02*
X115882995Y-82414323D01*
X115882995Y-82414323D02*
X115704423Y-82414136D01*
X115704423Y-82414136D02*
X115561604Y-82378272D01*
X115561604Y-82378272D02*
X115490213Y-82342483D01*
X115490213Y-82342483D02*
X115454536Y-82306731D01*
X115454536Y-82306731D02*
X115418896Y-82235265D01*
X116098067Y-81664548D02*
X116133818Y-81628871D01*
X116133818Y-81628871D02*
X116169495Y-81664623D01*
X116169495Y-81664623D02*
X116133743Y-81700300D01*
X116133743Y-81700300D02*
X116098067Y-81664548D01*
X116098067Y-81664548D02*
X116169495Y-81664623D01*
X115420244Y-80949551D02*
X115419870Y-81306694D01*
X115419870Y-81306694D02*
X115776975Y-81342783D01*
X115776975Y-81342783D02*
X115741298Y-81307031D01*
X115741298Y-81307031D02*
X115705659Y-81235565D01*
X115705659Y-81235565D02*
X115705846Y-81056994D01*
X115705846Y-81056994D02*
X115741635Y-80985603D01*
X115741635Y-80985603D02*
X115777387Y-80949926D01*
X115777387Y-80949926D02*
X115848853Y-80914286D01*
X115848853Y-80914286D02*
X116027424Y-80914474D01*
X116027424Y-80914474D02*
X116098815Y-80950263D01*
X116098815Y-80950263D02*
X116134492Y-80986014D01*
X116134492Y-80986014D02*
X116170132Y-81057480D01*
X116170132Y-81057480D02*
X116169944Y-81236052D01*
X116169944Y-81236052D02*
X116134155Y-81307443D01*
X116134155Y-81307443D02*
X116098404Y-81343120D01*
X116171217Y-80021766D02*
X115671218Y-80021242D01*
X115742646Y-80021317D02*
X115706969Y-79985565D01*
X115706969Y-79985565D02*
X115671330Y-79914099D01*
X115671330Y-79914099D02*
X115671442Y-79806956D01*
X115671442Y-79806956D02*
X115707232Y-79735565D01*
X115707232Y-79735565D02*
X115778698Y-79699926D01*
X115778698Y-79699926D02*
X116171554Y-79700338D01*
X115778698Y-79699926D02*
X115707306Y-79664137D01*
X115707306Y-79664137D02*
X115671667Y-79592671D01*
X115671667Y-79592671D02*
X115671779Y-79485528D01*
X115671779Y-79485528D02*
X115707569Y-79414137D01*
X115707569Y-79414137D02*
X115779034Y-79378497D01*
X115779034Y-79378497D02*
X116171891Y-79378909D01*
X116172266Y-79021767D02*
X115672266Y-79021242D01*
X115743695Y-79021317D02*
X115708018Y-78985566D01*
X115708018Y-78985566D02*
X115672378Y-78914100D01*
X115672378Y-78914100D02*
X115672491Y-78806957D01*
X115672491Y-78806957D02*
X115708280Y-78735566D01*
X115708280Y-78735566D02*
X115779746Y-78699926D01*
X115779746Y-78699926D02*
X116172603Y-78700338D01*
X115779746Y-78699926D02*
X115708355Y-78664137D01*
X115708355Y-78664137D02*
X115672715Y-78592671D01*
X115672715Y-78592671D02*
X115672828Y-78485528D01*
X115672828Y-78485528D02*
X115708617Y-78414137D01*
X115708617Y-78414137D02*
X115780083Y-78378498D01*
X115780083Y-78378498D02*
X116172940Y-78378910D01*
D11*
X128947056Y-105999476D02*
X116157862Y-105986068D01*
X129000000Y-55499476D02*
X116210806Y-55486068D01*
X116744282Y-105986682D02*
X116797226Y-55486682D01*
X116744282Y-105986682D02*
X116797226Y-55486682D01*
X116744282Y-105986682D02*
X116159043Y-104859564D01*
X116744282Y-105986682D02*
X117331883Y-104860794D01*
X116797226Y-55486682D02*
X117382465Y-56613800D01*
X116797226Y-55486682D02*
X116209625Y-56612570D01*
D10*
X166607142Y-112649714D02*
X167107142Y-112649714D01*
X167107142Y-112649714D02*
X166785714Y-113399714D01*
X167500000Y-112971142D02*
X167428571Y-112935428D01*
X167428571Y-112935428D02*
X167392857Y-112899714D01*
X167392857Y-112899714D02*
X167357143Y-112828285D01*
X167357143Y-112828285D02*
X167357143Y-112792571D01*
X167357143Y-112792571D02*
X167392857Y-112721142D01*
X167392857Y-112721142D02*
X167428571Y-112685428D01*
X167428571Y-112685428D02*
X167500000Y-112649714D01*
X167500000Y-112649714D02*
X167642857Y-112649714D01*
X167642857Y-112649714D02*
X167714286Y-112685428D01*
X167714286Y-112685428D02*
X167750000Y-112721142D01*
X167750000Y-112721142D02*
X167785714Y-112792571D01*
X167785714Y-112792571D02*
X167785714Y-112828285D01*
X167785714Y-112828285D02*
X167750000Y-112899714D01*
X167750000Y-112899714D02*
X167714286Y-112935428D01*
X167714286Y-112935428D02*
X167642857Y-112971142D01*
X167642857Y-112971142D02*
X167500000Y-112971142D01*
X167500000Y-112971142D02*
X167428571Y-113006857D01*
X167428571Y-113006857D02*
X167392857Y-113042571D01*
X167392857Y-113042571D02*
X167357143Y-113114000D01*
X167357143Y-113114000D02*
X167357143Y-113256857D01*
X167357143Y-113256857D02*
X167392857Y-113328285D01*
X167392857Y-113328285D02*
X167428571Y-113364000D01*
X167428571Y-113364000D02*
X167500000Y-113399714D01*
X167500000Y-113399714D02*
X167642857Y-113399714D01*
X167642857Y-113399714D02*
X167714286Y-113364000D01*
X167714286Y-113364000D02*
X167750000Y-113328285D01*
X167750000Y-113328285D02*
X167785714Y-113256857D01*
X167785714Y-113256857D02*
X167785714Y-113114000D01*
X167785714Y-113114000D02*
X167750000Y-113042571D01*
X167750000Y-113042571D02*
X167714286Y-113006857D01*
X167714286Y-113006857D02*
X167642857Y-112971142D01*
X168678572Y-113399714D02*
X168678572Y-112899714D01*
X168678572Y-112971142D02*
X168714286Y-112935428D01*
X168714286Y-112935428D02*
X168785715Y-112899714D01*
X168785715Y-112899714D02*
X168892858Y-112899714D01*
X168892858Y-112899714D02*
X168964286Y-112935428D01*
X168964286Y-112935428D02*
X169000001Y-113006857D01*
X169000001Y-113006857D02*
X169000001Y-113399714D01*
X169000001Y-113006857D02*
X169035715Y-112935428D01*
X169035715Y-112935428D02*
X169107143Y-112899714D01*
X169107143Y-112899714D02*
X169214286Y-112899714D01*
X169214286Y-112899714D02*
X169285715Y-112935428D01*
X169285715Y-112935428D02*
X169321429Y-113006857D01*
X169321429Y-113006857D02*
X169321429Y-113399714D01*
X169678572Y-113399714D02*
X169678572Y-112899714D01*
X169678572Y-112971142D02*
X169714286Y-112935428D01*
X169714286Y-112935428D02*
X169785715Y-112899714D01*
X169785715Y-112899714D02*
X169892858Y-112899714D01*
X169892858Y-112899714D02*
X169964286Y-112935428D01*
X169964286Y-112935428D02*
X170000001Y-113006857D01*
X170000001Y-113006857D02*
X170000001Y-113399714D01*
X170000001Y-113006857D02*
X170035715Y-112935428D01*
X170035715Y-112935428D02*
X170107143Y-112899714D01*
X170107143Y-112899714D02*
X170214286Y-112899714D01*
X170214286Y-112899714D02*
X170285715Y-112935428D01*
X170285715Y-112935428D02*
X170321429Y-113006857D01*
X170321429Y-113006857D02*
X170321429Y-113399714D01*
D11*
X207500000Y-106500000D02*
X207500000Y-114586420D01*
X129500000Y-106500000D02*
X129500000Y-114586420D01*
X207500000Y-114000000D02*
X129500000Y-114000000D01*
X207500000Y-114000000D02*
X129500000Y-114000000D01*
X207500000Y-114000000D02*
X206373496Y-114586421D01*
X207500000Y-114000000D02*
X206373496Y-113413579D01*
X129500000Y-114000000D02*
X130626504Y-113413579D01*
X129500000Y-114000000D02*
X130626504Y-114586421D01*
D10*
X111149714Y-82750000D02*
X111149714Y-83107143D01*
X111149714Y-83107143D02*
X111506857Y-83142857D01*
X111506857Y-83142857D02*
X111471142Y-83107143D01*
X111471142Y-83107143D02*
X111435428Y-83035715D01*
X111435428Y-83035715D02*
X111435428Y-82857143D01*
X111435428Y-82857143D02*
X111471142Y-82785715D01*
X111471142Y-82785715D02*
X111506857Y-82750000D01*
X111506857Y-82750000D02*
X111578285Y-82714286D01*
X111578285Y-82714286D02*
X111756857Y-82714286D01*
X111756857Y-82714286D02*
X111828285Y-82750000D01*
X111828285Y-82750000D02*
X111864000Y-82785715D01*
X111864000Y-82785715D02*
X111899714Y-82857143D01*
X111899714Y-82857143D02*
X111899714Y-83035715D01*
X111899714Y-83035715D02*
X111864000Y-83107143D01*
X111864000Y-83107143D02*
X111828285Y-83142857D01*
X111149714Y-82464286D02*
X111149714Y-81964286D01*
X111149714Y-81964286D02*
X111899714Y-82285714D01*
X111828285Y-81678571D02*
X111864000Y-81642857D01*
X111864000Y-81642857D02*
X111899714Y-81678571D01*
X111899714Y-81678571D02*
X111864000Y-81714285D01*
X111864000Y-81714285D02*
X111828285Y-81678571D01*
X111828285Y-81678571D02*
X111899714Y-81678571D01*
X111149714Y-80964285D02*
X111149714Y-81321428D01*
X111149714Y-81321428D02*
X111506857Y-81357142D01*
X111506857Y-81357142D02*
X111471142Y-81321428D01*
X111471142Y-81321428D02*
X111435428Y-81250000D01*
X111435428Y-81250000D02*
X111435428Y-81071428D01*
X111435428Y-81071428D02*
X111471142Y-81000000D01*
X111471142Y-81000000D02*
X111506857Y-80964285D01*
X111506857Y-80964285D02*
X111578285Y-80928571D01*
X111578285Y-80928571D02*
X111756857Y-80928571D01*
X111756857Y-80928571D02*
X111828285Y-80964285D01*
X111828285Y-80964285D02*
X111864000Y-81000000D01*
X111864000Y-81000000D02*
X111899714Y-81071428D01*
X111899714Y-81071428D02*
X111899714Y-81250000D01*
X111899714Y-81250000D02*
X111864000Y-81321428D01*
X111864000Y-81321428D02*
X111828285Y-81357142D01*
X111899714Y-80035713D02*
X111399714Y-80035713D01*
X111471142Y-80035713D02*
X111435428Y-79999999D01*
X111435428Y-79999999D02*
X111399714Y-79928570D01*
X111399714Y-79928570D02*
X111399714Y-79821427D01*
X111399714Y-79821427D02*
X111435428Y-79749999D01*
X111435428Y-79749999D02*
X111506857Y-79714285D01*
X111506857Y-79714285D02*
X111899714Y-79714285D01*
X111506857Y-79714285D02*
X111435428Y-79678570D01*
X111435428Y-79678570D02*
X111399714Y-79607142D01*
X111399714Y-79607142D02*
X111399714Y-79499999D01*
X111399714Y-79499999D02*
X111435428Y-79428570D01*
X111435428Y-79428570D02*
X111506857Y-79392856D01*
X111506857Y-79392856D02*
X111899714Y-79392856D01*
X111899714Y-79035713D02*
X111399714Y-79035713D01*
X111471142Y-79035713D02*
X111435428Y-78999999D01*
X111435428Y-78999999D02*
X111399714Y-78928570D01*
X111399714Y-78928570D02*
X111399714Y-78821427D01*
X111399714Y-78821427D02*
X111435428Y-78749999D01*
X111435428Y-78749999D02*
X111506857Y-78714285D01*
X111506857Y-78714285D02*
X111899714Y-78714285D01*
X111506857Y-78714285D02*
X111435428Y-78678570D01*
X111435428Y-78678570D02*
X111399714Y-78607142D01*
X111399714Y-78607142D02*
X111399714Y-78499999D01*
X111399714Y-78499999D02*
X111435428Y-78428570D01*
X111435428Y-78428570D02*
X111506857Y-78392856D01*
X111506857Y-78392856D02*
X111899714Y-78392856D01*
D11*
X168000000Y-109500000D02*
X111913580Y-109500000D01*
X168000000Y-52000000D02*
X111913580Y-52000000D01*
X112500000Y-109500000D02*
X112500000Y-52000000D01*
X112500000Y-109500000D02*
X112500000Y-52000000D01*
X112500000Y-109500000D02*
X111913579Y-108373496D01*
X112500000Y-109500000D02*
X113086421Y-108373496D01*
X112500000Y-52000000D02*
X113086421Y-53126504D01*
X112500000Y-52000000D02*
X111913579Y-53126504D01*
D10*
X166785714Y-116721142D02*
X166714285Y-116685428D01*
X166714285Y-116685428D02*
X166678571Y-116649714D01*
X166678571Y-116649714D02*
X166642857Y-116578285D01*
X166642857Y-116578285D02*
X166642857Y-116542571D01*
X166642857Y-116542571D02*
X166678571Y-116471142D01*
X166678571Y-116471142D02*
X166714285Y-116435428D01*
X166714285Y-116435428D02*
X166785714Y-116399714D01*
X166785714Y-116399714D02*
X166928571Y-116399714D01*
X166928571Y-116399714D02*
X167000000Y-116435428D01*
X167000000Y-116435428D02*
X167035714Y-116471142D01*
X167035714Y-116471142D02*
X167071428Y-116542571D01*
X167071428Y-116542571D02*
X167071428Y-116578285D01*
X167071428Y-116578285D02*
X167035714Y-116649714D01*
X167035714Y-116649714D02*
X167000000Y-116685428D01*
X167000000Y-116685428D02*
X166928571Y-116721142D01*
X166928571Y-116721142D02*
X166785714Y-116721142D01*
X166785714Y-116721142D02*
X166714285Y-116756857D01*
X166714285Y-116756857D02*
X166678571Y-116792571D01*
X166678571Y-116792571D02*
X166642857Y-116864000D01*
X166642857Y-116864000D02*
X166642857Y-117006857D01*
X166642857Y-117006857D02*
X166678571Y-117078285D01*
X166678571Y-117078285D02*
X166714285Y-117114000D01*
X166714285Y-117114000D02*
X166785714Y-117149714D01*
X166785714Y-117149714D02*
X166928571Y-117149714D01*
X166928571Y-117149714D02*
X167000000Y-117114000D01*
X167000000Y-117114000D02*
X167035714Y-117078285D01*
X167035714Y-117078285D02*
X167071428Y-117006857D01*
X167071428Y-117006857D02*
X167071428Y-116864000D01*
X167071428Y-116864000D02*
X167035714Y-116792571D01*
X167035714Y-116792571D02*
X167000000Y-116756857D01*
X167000000Y-116756857D02*
X166928571Y-116721142D01*
X167750000Y-116399714D02*
X167392857Y-116399714D01*
X167392857Y-116399714D02*
X167357143Y-116756857D01*
X167357143Y-116756857D02*
X167392857Y-116721142D01*
X167392857Y-116721142D02*
X167464286Y-116685428D01*
X167464286Y-116685428D02*
X167642857Y-116685428D01*
X167642857Y-116685428D02*
X167714286Y-116721142D01*
X167714286Y-116721142D02*
X167750000Y-116756857D01*
X167750000Y-116756857D02*
X167785714Y-116828285D01*
X167785714Y-116828285D02*
X167785714Y-117006857D01*
X167785714Y-117006857D02*
X167750000Y-117078285D01*
X167750000Y-117078285D02*
X167714286Y-117114000D01*
X167714286Y-117114000D02*
X167642857Y-117149714D01*
X167642857Y-117149714D02*
X167464286Y-117149714D01*
X167464286Y-117149714D02*
X167392857Y-117114000D01*
X167392857Y-117114000D02*
X167357143Y-117078285D01*
X168678572Y-117149714D02*
X168678572Y-116649714D01*
X168678572Y-116721142D02*
X168714286Y-116685428D01*
X168714286Y-116685428D02*
X168785715Y-116649714D01*
X168785715Y-116649714D02*
X168892858Y-116649714D01*
X168892858Y-116649714D02*
X168964286Y-116685428D01*
X168964286Y-116685428D02*
X169000001Y-116756857D01*
X169000001Y-116756857D02*
X169000001Y-117149714D01*
X169000001Y-116756857D02*
X169035715Y-116685428D01*
X169035715Y-116685428D02*
X169107143Y-116649714D01*
X169107143Y-116649714D02*
X169214286Y-116649714D01*
X169214286Y-116649714D02*
X169285715Y-116685428D01*
X169285715Y-116685428D02*
X169321429Y-116756857D01*
X169321429Y-116756857D02*
X169321429Y-117149714D01*
X169678572Y-117149714D02*
X169678572Y-116649714D01*
X169678572Y-116721142D02*
X169714286Y-116685428D01*
X169714286Y-116685428D02*
X169785715Y-116649714D01*
X169785715Y-116649714D02*
X169892858Y-116649714D01*
X169892858Y-116649714D02*
X169964286Y-116685428D01*
X169964286Y-116685428D02*
X170000001Y-116756857D01*
X170000001Y-116756857D02*
X170000001Y-117149714D01*
X170000001Y-116756857D02*
X170035715Y-116685428D01*
X170035715Y-116685428D02*
X170107143Y-116649714D01*
X170107143Y-116649714D02*
X170214286Y-116649714D01*
X170214286Y-116649714D02*
X170285715Y-116685428D01*
X170285715Y-116685428D02*
X170321429Y-116756857D01*
X170321429Y-116756857D02*
X170321429Y-117149714D01*
D11*
X126000000Y-81250000D02*
X126000000Y-118336420D01*
X211000000Y-81250000D02*
X211000000Y-118336420D01*
X126000000Y-117750000D02*
X211000000Y-117750000D01*
X126000000Y-117750000D02*
X211000000Y-117750000D01*
X126000000Y-117750000D02*
X127126504Y-117163579D01*
X126000000Y-117750000D02*
X127126504Y-118336421D01*
X211000000Y-117750000D02*
X209873496Y-118336421D01*
X211000000Y-117750000D02*
X209873496Y-117163579D01*
%TO.C,SW1*%
D12*
X181100000Y-78600000D02*
X182400000Y-78600000D01*
X182400000Y-75900000D01*
X181100000Y-75900000D01*
X181100000Y-78600000D01*
%TD*%
M02*
