%TF.GenerationSoftware,KiCad,Pcbnew,8.0.8+1*%
%TF.CreationDate,2025-01-27T22:00:13-08:00*%
%TF.ProjectId,pico-logic-analyzer,7069636f-2d6c-46f6-9769-632d616e616c,rev?*%
%TF.SameCoordinates,Original*%
%TF.FileFunction,OtherDrawing,Comment*%
%FSLAX46Y46*%
G04 Gerber Fmt 4.6, Leading zero omitted, Abs format (unit mm)*
G04 Created by KiCad (PCBNEW 8.0.8+1) date 2025-01-27 22:00:13*
%MOMM*%
%LPD*%
G01*
G04 APERTURE LIST*
%ADD10C,0.150000*%
%ADD11C,0.100000*%
%ADD12C,0.120000*%
%ADD13C,0.050000*%
G04 APERTURE END LIST*
D10*
X163654762Y-113304819D02*
X163178572Y-113304819D01*
X163178572Y-113304819D02*
X163130953Y-113781009D01*
X163130953Y-113781009D02*
X163178572Y-113733390D01*
X163178572Y-113733390D02*
X163273810Y-113685771D01*
X163273810Y-113685771D02*
X163511905Y-113685771D01*
X163511905Y-113685771D02*
X163607143Y-113733390D01*
X163607143Y-113733390D02*
X163654762Y-113781009D01*
X163654762Y-113781009D02*
X163702381Y-113876247D01*
X163702381Y-113876247D02*
X163702381Y-114114342D01*
X163702381Y-114114342D02*
X163654762Y-114209580D01*
X163654762Y-114209580D02*
X163607143Y-114257200D01*
X163607143Y-114257200D02*
X163511905Y-114304819D01*
X163511905Y-114304819D02*
X163273810Y-114304819D01*
X163273810Y-114304819D02*
X163178572Y-114257200D01*
X163178572Y-114257200D02*
X163130953Y-114209580D01*
X164035715Y-113304819D02*
X164702381Y-113304819D01*
X164702381Y-113304819D02*
X164273810Y-114304819D01*
X165083334Y-114209580D02*
X165130953Y-114257200D01*
X165130953Y-114257200D02*
X165083334Y-114304819D01*
X165083334Y-114304819D02*
X165035715Y-114257200D01*
X165035715Y-114257200D02*
X165083334Y-114209580D01*
X165083334Y-114209580D02*
X165083334Y-114304819D01*
X166035714Y-113304819D02*
X165559524Y-113304819D01*
X165559524Y-113304819D02*
X165511905Y-113781009D01*
X165511905Y-113781009D02*
X165559524Y-113733390D01*
X165559524Y-113733390D02*
X165654762Y-113685771D01*
X165654762Y-113685771D02*
X165892857Y-113685771D01*
X165892857Y-113685771D02*
X165988095Y-113733390D01*
X165988095Y-113733390D02*
X166035714Y-113781009D01*
X166035714Y-113781009D02*
X166083333Y-113876247D01*
X166083333Y-113876247D02*
X166083333Y-114114342D01*
X166083333Y-114114342D02*
X166035714Y-114209580D01*
X166035714Y-114209580D02*
X165988095Y-114257200D01*
X165988095Y-114257200D02*
X165892857Y-114304819D01*
X165892857Y-114304819D02*
X165654762Y-114304819D01*
X165654762Y-114304819D02*
X165559524Y-114257200D01*
X165559524Y-114257200D02*
X165511905Y-114209580D01*
X166702381Y-113304819D02*
X166797619Y-113304819D01*
X166797619Y-113304819D02*
X166892857Y-113352438D01*
X166892857Y-113352438D02*
X166940476Y-113400057D01*
X166940476Y-113400057D02*
X166988095Y-113495295D01*
X166988095Y-113495295D02*
X167035714Y-113685771D01*
X167035714Y-113685771D02*
X167035714Y-113923866D01*
X167035714Y-113923866D02*
X166988095Y-114114342D01*
X166988095Y-114114342D02*
X166940476Y-114209580D01*
X166940476Y-114209580D02*
X166892857Y-114257200D01*
X166892857Y-114257200D02*
X166797619Y-114304819D01*
X166797619Y-114304819D02*
X166702381Y-114304819D01*
X166702381Y-114304819D02*
X166607143Y-114257200D01*
X166607143Y-114257200D02*
X166559524Y-114209580D01*
X166559524Y-114209580D02*
X166511905Y-114114342D01*
X166511905Y-114114342D02*
X166464286Y-113923866D01*
X166464286Y-113923866D02*
X166464286Y-113685771D01*
X166464286Y-113685771D02*
X166511905Y-113495295D01*
X166511905Y-113495295D02*
X166559524Y-113400057D01*
X166559524Y-113400057D02*
X166607143Y-113352438D01*
X166607143Y-113352438D02*
X166702381Y-113304819D01*
X167654762Y-113304819D02*
X167750000Y-113304819D01*
X167750000Y-113304819D02*
X167845238Y-113352438D01*
X167845238Y-113352438D02*
X167892857Y-113400057D01*
X167892857Y-113400057D02*
X167940476Y-113495295D01*
X167940476Y-113495295D02*
X167988095Y-113685771D01*
X167988095Y-113685771D02*
X167988095Y-113923866D01*
X167988095Y-113923866D02*
X167940476Y-114114342D01*
X167940476Y-114114342D02*
X167892857Y-114209580D01*
X167892857Y-114209580D02*
X167845238Y-114257200D01*
X167845238Y-114257200D02*
X167750000Y-114304819D01*
X167750000Y-114304819D02*
X167654762Y-114304819D01*
X167654762Y-114304819D02*
X167559524Y-114257200D01*
X167559524Y-114257200D02*
X167511905Y-114209580D01*
X167511905Y-114209580D02*
X167464286Y-114114342D01*
X167464286Y-114114342D02*
X167416667Y-113923866D01*
X167416667Y-113923866D02*
X167416667Y-113685771D01*
X167416667Y-113685771D02*
X167464286Y-113495295D01*
X167464286Y-113495295D02*
X167511905Y-113400057D01*
X167511905Y-113400057D02*
X167559524Y-113352438D01*
X167559524Y-113352438D02*
X167654762Y-113304819D01*
X168607143Y-113304819D02*
X168702381Y-113304819D01*
X168702381Y-113304819D02*
X168797619Y-113352438D01*
X168797619Y-113352438D02*
X168845238Y-113400057D01*
X168845238Y-113400057D02*
X168892857Y-113495295D01*
X168892857Y-113495295D02*
X168940476Y-113685771D01*
X168940476Y-113685771D02*
X168940476Y-113923866D01*
X168940476Y-113923866D02*
X168892857Y-114114342D01*
X168892857Y-114114342D02*
X168845238Y-114209580D01*
X168845238Y-114209580D02*
X168797619Y-114257200D01*
X168797619Y-114257200D02*
X168702381Y-114304819D01*
X168702381Y-114304819D02*
X168607143Y-114304819D01*
X168607143Y-114304819D02*
X168511905Y-114257200D01*
X168511905Y-114257200D02*
X168464286Y-114209580D01*
X168464286Y-114209580D02*
X168416667Y-114114342D01*
X168416667Y-114114342D02*
X168369048Y-113923866D01*
X168369048Y-113923866D02*
X168369048Y-113685771D01*
X168369048Y-113685771D02*
X168416667Y-113495295D01*
X168416667Y-113495295D02*
X168464286Y-113400057D01*
X168464286Y-113400057D02*
X168511905Y-113352438D01*
X168511905Y-113352438D02*
X168607143Y-113304819D01*
X170130953Y-114304819D02*
X170130953Y-113638152D01*
X170130953Y-113733390D02*
X170178572Y-113685771D01*
X170178572Y-113685771D02*
X170273810Y-113638152D01*
X170273810Y-113638152D02*
X170416667Y-113638152D01*
X170416667Y-113638152D02*
X170511905Y-113685771D01*
X170511905Y-113685771D02*
X170559524Y-113781009D01*
X170559524Y-113781009D02*
X170559524Y-114304819D01*
X170559524Y-113781009D02*
X170607143Y-113685771D01*
X170607143Y-113685771D02*
X170702381Y-113638152D01*
X170702381Y-113638152D02*
X170845238Y-113638152D01*
X170845238Y-113638152D02*
X170940477Y-113685771D01*
X170940477Y-113685771D02*
X170988096Y-113781009D01*
X170988096Y-113781009D02*
X170988096Y-114304819D01*
X171464286Y-114304819D02*
X171464286Y-113638152D01*
X171464286Y-113733390D02*
X171511905Y-113685771D01*
X171511905Y-113685771D02*
X171607143Y-113638152D01*
X171607143Y-113638152D02*
X171750000Y-113638152D01*
X171750000Y-113638152D02*
X171845238Y-113685771D01*
X171845238Y-113685771D02*
X171892857Y-113781009D01*
X171892857Y-113781009D02*
X171892857Y-114304819D01*
X171892857Y-113781009D02*
X171940476Y-113685771D01*
X171940476Y-113685771D02*
X172035714Y-113638152D01*
X172035714Y-113638152D02*
X172178571Y-113638152D01*
X172178571Y-113638152D02*
X172273810Y-113685771D01*
X172273810Y-113685771D02*
X172321429Y-113781009D01*
X172321429Y-113781009D02*
X172321429Y-114304819D01*
D11*
X139000000Y-107000000D02*
X139000000Y-115586420D01*
X196500000Y-115586420D02*
X196500000Y-107000000D01*
X139000000Y-115000000D02*
X196500000Y-115000000D01*
X139000000Y-115000000D02*
X196500000Y-115000000D01*
X139000000Y-115000000D02*
X140126504Y-114413579D01*
X139000000Y-115000000D02*
X140126504Y-115586421D01*
X196500000Y-115000000D02*
X195373496Y-115586421D01*
X196500000Y-115000000D02*
X195373496Y-114413579D01*
D10*
X131054819Y-84845237D02*
X131054819Y-85321427D01*
X131054819Y-85321427D02*
X131531009Y-85369046D01*
X131531009Y-85369046D02*
X131483390Y-85321427D01*
X131483390Y-85321427D02*
X131435771Y-85226189D01*
X131435771Y-85226189D02*
X131435771Y-84988094D01*
X131435771Y-84988094D02*
X131483390Y-84892856D01*
X131483390Y-84892856D02*
X131531009Y-84845237D01*
X131531009Y-84845237D02*
X131626247Y-84797618D01*
X131626247Y-84797618D02*
X131864342Y-84797618D01*
X131864342Y-84797618D02*
X131959580Y-84845237D01*
X131959580Y-84845237D02*
X132007200Y-84892856D01*
X132007200Y-84892856D02*
X132054819Y-84988094D01*
X132054819Y-84988094D02*
X132054819Y-85226189D01*
X132054819Y-85226189D02*
X132007200Y-85321427D01*
X132007200Y-85321427D02*
X131959580Y-85369046D01*
X131054819Y-84464284D02*
X131054819Y-83797618D01*
X131054819Y-83797618D02*
X132054819Y-84226189D01*
X131959580Y-83416665D02*
X132007200Y-83369046D01*
X132007200Y-83369046D02*
X132054819Y-83416665D01*
X132054819Y-83416665D02*
X132007200Y-83464284D01*
X132007200Y-83464284D02*
X131959580Y-83416665D01*
X131959580Y-83416665D02*
X132054819Y-83416665D01*
X131054819Y-82464285D02*
X131054819Y-82940475D01*
X131054819Y-82940475D02*
X131531009Y-82988094D01*
X131531009Y-82988094D02*
X131483390Y-82940475D01*
X131483390Y-82940475D02*
X131435771Y-82845237D01*
X131435771Y-82845237D02*
X131435771Y-82607142D01*
X131435771Y-82607142D02*
X131483390Y-82511904D01*
X131483390Y-82511904D02*
X131531009Y-82464285D01*
X131531009Y-82464285D02*
X131626247Y-82416666D01*
X131626247Y-82416666D02*
X131864342Y-82416666D01*
X131864342Y-82416666D02*
X131959580Y-82464285D01*
X131959580Y-82464285D02*
X132007200Y-82511904D01*
X132007200Y-82511904D02*
X132054819Y-82607142D01*
X132054819Y-82607142D02*
X132054819Y-82845237D01*
X132054819Y-82845237D02*
X132007200Y-82940475D01*
X132007200Y-82940475D02*
X131959580Y-82988094D01*
X131054819Y-81797618D02*
X131054819Y-81702380D01*
X131054819Y-81702380D02*
X131102438Y-81607142D01*
X131102438Y-81607142D02*
X131150057Y-81559523D01*
X131150057Y-81559523D02*
X131245295Y-81511904D01*
X131245295Y-81511904D02*
X131435771Y-81464285D01*
X131435771Y-81464285D02*
X131673866Y-81464285D01*
X131673866Y-81464285D02*
X131864342Y-81511904D01*
X131864342Y-81511904D02*
X131959580Y-81559523D01*
X131959580Y-81559523D02*
X132007200Y-81607142D01*
X132007200Y-81607142D02*
X132054819Y-81702380D01*
X132054819Y-81702380D02*
X132054819Y-81797618D01*
X132054819Y-81797618D02*
X132007200Y-81892856D01*
X132007200Y-81892856D02*
X131959580Y-81940475D01*
X131959580Y-81940475D02*
X131864342Y-81988094D01*
X131864342Y-81988094D02*
X131673866Y-82035713D01*
X131673866Y-82035713D02*
X131435771Y-82035713D01*
X131435771Y-82035713D02*
X131245295Y-81988094D01*
X131245295Y-81988094D02*
X131150057Y-81940475D01*
X131150057Y-81940475D02*
X131102438Y-81892856D01*
X131102438Y-81892856D02*
X131054819Y-81797618D01*
X131054819Y-80845237D02*
X131054819Y-80749999D01*
X131054819Y-80749999D02*
X131102438Y-80654761D01*
X131102438Y-80654761D02*
X131150057Y-80607142D01*
X131150057Y-80607142D02*
X131245295Y-80559523D01*
X131245295Y-80559523D02*
X131435771Y-80511904D01*
X131435771Y-80511904D02*
X131673866Y-80511904D01*
X131673866Y-80511904D02*
X131864342Y-80559523D01*
X131864342Y-80559523D02*
X131959580Y-80607142D01*
X131959580Y-80607142D02*
X132007200Y-80654761D01*
X132007200Y-80654761D02*
X132054819Y-80749999D01*
X132054819Y-80749999D02*
X132054819Y-80845237D01*
X132054819Y-80845237D02*
X132007200Y-80940475D01*
X132007200Y-80940475D02*
X131959580Y-80988094D01*
X131959580Y-80988094D02*
X131864342Y-81035713D01*
X131864342Y-81035713D02*
X131673866Y-81083332D01*
X131673866Y-81083332D02*
X131435771Y-81083332D01*
X131435771Y-81083332D02*
X131245295Y-81035713D01*
X131245295Y-81035713D02*
X131150057Y-80988094D01*
X131150057Y-80988094D02*
X131102438Y-80940475D01*
X131102438Y-80940475D02*
X131054819Y-80845237D01*
X131054819Y-79892856D02*
X131054819Y-79797618D01*
X131054819Y-79797618D02*
X131102438Y-79702380D01*
X131102438Y-79702380D02*
X131150057Y-79654761D01*
X131150057Y-79654761D02*
X131245295Y-79607142D01*
X131245295Y-79607142D02*
X131435771Y-79559523D01*
X131435771Y-79559523D02*
X131673866Y-79559523D01*
X131673866Y-79559523D02*
X131864342Y-79607142D01*
X131864342Y-79607142D02*
X131959580Y-79654761D01*
X131959580Y-79654761D02*
X132007200Y-79702380D01*
X132007200Y-79702380D02*
X132054819Y-79797618D01*
X132054819Y-79797618D02*
X132054819Y-79892856D01*
X132054819Y-79892856D02*
X132007200Y-79988094D01*
X132007200Y-79988094D02*
X131959580Y-80035713D01*
X131959580Y-80035713D02*
X131864342Y-80083332D01*
X131864342Y-80083332D02*
X131673866Y-80130951D01*
X131673866Y-80130951D02*
X131435771Y-80130951D01*
X131435771Y-80130951D02*
X131245295Y-80083332D01*
X131245295Y-80083332D02*
X131150057Y-80035713D01*
X131150057Y-80035713D02*
X131102438Y-79988094D01*
X131102438Y-79988094D02*
X131054819Y-79892856D01*
X132054819Y-78369046D02*
X131388152Y-78369046D01*
X131483390Y-78369046D02*
X131435771Y-78321427D01*
X131435771Y-78321427D02*
X131388152Y-78226189D01*
X131388152Y-78226189D02*
X131388152Y-78083332D01*
X131388152Y-78083332D02*
X131435771Y-77988094D01*
X131435771Y-77988094D02*
X131531009Y-77940475D01*
X131531009Y-77940475D02*
X132054819Y-77940475D01*
X131531009Y-77940475D02*
X131435771Y-77892856D01*
X131435771Y-77892856D02*
X131388152Y-77797618D01*
X131388152Y-77797618D02*
X131388152Y-77654761D01*
X131388152Y-77654761D02*
X131435771Y-77559522D01*
X131435771Y-77559522D02*
X131531009Y-77511903D01*
X131531009Y-77511903D02*
X132054819Y-77511903D01*
X132054819Y-77035713D02*
X131388152Y-77035713D01*
X131483390Y-77035713D02*
X131435771Y-76988094D01*
X131435771Y-76988094D02*
X131388152Y-76892856D01*
X131388152Y-76892856D02*
X131388152Y-76749999D01*
X131388152Y-76749999D02*
X131435771Y-76654761D01*
X131435771Y-76654761D02*
X131531009Y-76607142D01*
X131531009Y-76607142D02*
X132054819Y-76607142D01*
X131531009Y-76607142D02*
X131435771Y-76559523D01*
X131435771Y-76559523D02*
X131388152Y-76464285D01*
X131388152Y-76464285D02*
X131388152Y-76321428D01*
X131388152Y-76321428D02*
X131435771Y-76226189D01*
X131435771Y-76226189D02*
X131531009Y-76178570D01*
X131531009Y-76178570D02*
X132054819Y-76178570D01*
D11*
X142000000Y-109500000D02*
X132163580Y-109500000D01*
X132163580Y-52000000D02*
X142000000Y-52000000D01*
X132750000Y-109500000D02*
X132750000Y-52000000D01*
X132750000Y-109500000D02*
X132750000Y-52000000D01*
X132750000Y-109500000D02*
X132163579Y-108373496D01*
X132750000Y-109500000D02*
X133336421Y-108373496D01*
X132750000Y-52000000D02*
X133336421Y-53126504D01*
X132750000Y-52000000D02*
X132163579Y-53126504D01*
%TO.C,SW1*%
D12*
X152600000Y-78900000D02*
X149900000Y-78900000D01*
X149900000Y-77600000D01*
X152600000Y-77600000D01*
X152600000Y-78900000D01*
%TO.C,A2*%
X163040000Y-54370000D02*
G75*
G02*
X160940000Y-54370000I-1050000J0D01*
G01*
X160940000Y-54370000D02*
G75*
G02*
X163040000Y-54370000I1050000J0D01*
G01*
X163040000Y-101370000D02*
G75*
G02*
X160940000Y-101370000I-1050000J0D01*
G01*
X160940000Y-101370000D02*
G75*
G02*
X163040000Y-101370000I1050000J0D01*
G01*
X174440000Y-54370000D02*
G75*
G02*
X172340000Y-54370000I-1050000J0D01*
G01*
X172340000Y-54370000D02*
G75*
G02*
X174440000Y-54370000I1050000J0D01*
G01*
X174440000Y-101370000D02*
G75*
G02*
X172340000Y-101370000I-1050000J0D01*
G01*
X172340000Y-101370000D02*
G75*
G02*
X174440000Y-101370000I1050000J0D01*
G01*
D13*
X157190000Y-77400000D02*
X157740000Y-77400000D01*
X157940000Y-77400000D02*
X158490000Y-77400000D01*
X158690000Y-77400000D02*
X159240000Y-77400000D01*
X159440000Y-77400000D02*
X159990000Y-77400000D01*
X160190000Y-77400000D02*
X160740000Y-77400000D01*
X160940000Y-77400000D02*
X161490000Y-77400000D01*
X161690000Y-77400000D02*
X162240000Y-77400000D01*
X162440000Y-77400000D02*
X162990000Y-77400000D01*
X163190000Y-77400000D02*
X163740000Y-77400000D01*
X163940000Y-77400000D02*
X164490000Y-77400000D01*
X164690000Y-77400000D02*
X165240000Y-77400000D01*
X165440000Y-77400000D02*
X165570000Y-77400000D01*
X165570000Y-77400000D02*
X165789999Y-77170000D01*
X165790000Y-77170000D02*
X165790000Y-76620000D01*
X165790000Y-76420000D02*
X165790000Y-76270000D01*
X165790000Y-76270000D02*
X165401091Y-75881091D01*
X165320000Y-75800000D02*
X164770000Y-75800000D01*
X164570000Y-75800000D02*
X164020000Y-75800000D01*
X163820000Y-75800000D02*
X163270000Y-75800000D01*
X163070000Y-75800000D02*
X162520000Y-75800000D01*
X162320000Y-75800000D02*
X162040000Y-75800000D01*
X162040000Y-75800000D02*
X161790000Y-75570000D01*
X161790000Y-75570000D02*
X161790000Y-75020000D01*
X161790000Y-74820000D02*
X161790000Y-74670000D01*
X161790000Y-74670000D02*
X162178909Y-74281091D01*
X162320330Y-74139670D02*
X162490000Y-73970000D01*
X162490000Y-73970000D02*
X163040000Y-73970000D01*
X163140000Y-73970000D02*
X163390000Y-73720000D01*
X163390000Y-73720000D02*
X163390000Y-73170000D01*
X163390000Y-72970000D02*
X163390000Y-72420000D01*
X163390000Y-72220000D02*
X163390000Y-71670000D01*
X163390000Y-71470000D02*
X163390000Y-70920000D01*
X163390000Y-70720000D02*
X163390000Y-70170000D01*
X163390000Y-69970000D02*
X163390000Y-69420000D01*
X163390000Y-69220000D02*
X163390000Y-68670000D01*
X163390000Y-68470000D02*
X163390000Y-67920000D01*
X163390000Y-67720000D02*
X163390000Y-67170000D01*
X163390000Y-66970000D02*
X163390000Y-66820000D01*
X163390000Y-66820000D02*
X163001091Y-66431091D01*
X162859670Y-66289670D02*
X162840000Y-66270000D01*
X162840000Y-66270000D02*
X162290000Y-66270000D01*
X162090000Y-66270000D02*
X161540000Y-66270000D01*
X161340000Y-66270000D02*
X160790000Y-66270000D01*
X160590000Y-66270000D02*
X160540000Y-66270000D01*
X160540000Y-66270000D02*
X160151091Y-65881091D01*
X160009670Y-65739670D02*
X159910000Y-65640000D01*
X159910000Y-65640000D02*
X159360000Y-65640000D01*
X159160000Y-65640000D02*
X158610000Y-65640000D01*
X158410000Y-65640000D02*
X157860000Y-65640000D01*
X157660000Y-65640000D02*
X157190000Y-65640000D01*
X157190000Y-65640000D02*
X157190000Y-66190000D01*
X157190000Y-66390000D02*
X157190000Y-66940000D01*
X157190000Y-67140000D02*
X157190000Y-67690000D01*
X157190000Y-67890000D02*
X157190000Y-68440000D01*
X157190000Y-68640000D02*
X157190000Y-69190000D01*
X157190000Y-69390000D02*
X157190000Y-69940000D01*
X157190000Y-70140000D02*
X157190000Y-70690000D01*
X157190000Y-70890000D02*
X157190000Y-71440000D01*
X157190000Y-71640000D02*
X157190000Y-72190000D01*
X157190000Y-72390000D02*
X157190000Y-72940000D01*
X157190000Y-73140000D02*
X157190000Y-73690000D01*
X157190000Y-73890000D02*
X157190000Y-74440000D01*
X157190000Y-74640000D02*
X157190000Y-75190000D01*
X157190000Y-75390000D02*
X157190000Y-75940000D01*
X157190000Y-76140000D02*
X157190000Y-76690000D01*
X157190000Y-76890000D02*
X157190000Y-77400000D01*
%TD*%
M02*
