M48
; DRILL file {KiCad 8.0.6+1} date 2024-12-27T01:31:40-0800
; FORMAT={-:-/ absolute / metric / decimal}
; #@! TF.CreationDate,2024-12-27T01:31:40-08:00
; #@! TF.GenerationSoftware,Kicad,Pcbnew,8.0.6+1
; #@! TF.FileFunction,MixedPlating,1,4
FMAT,2
METRIC
; #@! TA.AperFunction,Plated,PTH,ViaDrill
T1C0.300
; #@! TA.AperFunction,Plated,PTH,ComponentDrill
T2C0.800
; #@! TA.AperFunction,Plated,PTH,ComponentDrill
T3C1.000
; #@! TA.AperFunction,NonPlated,NPTH,ComponentDrill
T4C3.200
%
G90
G05
T1
X131.5Y-85.5
X134.5Y-82.0
X134.75Y-107.5
X136.8Y-58.7
X139.75Y-82.25
X140.0Y-107.5
X141.4Y-60.4
X142.227Y-84.994
X143.0Y-62.6
X143.0Y-64.7
X143.0Y-85.2
X143.0Y-87.4
X147.8Y-90.9
X148.9Y-66.8
X180.4Y-58.9
X180.4Y-63.7
X182.6Y-74.7
X183.1Y-76.7
X183.25Y-56.85
X184.675Y-67.305
X184.9Y-56.9
X185.0Y-55.6
X185.5Y-62.35
X186.05Y-76.35
X187.25Y-55.6
X187.3Y-56.9
X187.4Y-94.9
X190.95Y-77.25
X193.5Y-96.6
X193.5Y-98.575
X194.9Y-100.1
X195.75Y-80.0
X198.25Y-75.0
X199.25Y-79.5
X199.4Y-68.6
T2
X142.25Y-70.27
X142.25Y-72.81
X142.25Y-75.35
X142.25Y-77.89
X142.25Y-92.96
X142.25Y-95.5
X142.25Y-98.04
X142.25Y-100.58
X149.87Y-70.27
X149.87Y-72.81
X149.87Y-75.35
X149.87Y-77.89
X149.87Y-92.96
X149.87Y-95.5
X149.87Y-98.04
X149.87Y-100.58
X186.63Y-83.67
X186.63Y-86.21
X186.63Y-88.75
X186.63Y-91.29
X194.25Y-83.67
X194.25Y-86.21
X194.25Y-88.75
X194.25Y-91.29
T3
X134.45Y-63.535
X134.45Y-66.075
X134.45Y-68.615
X134.45Y-86.225
X134.45Y-88.765
X134.45Y-91.305
X136.46Y-72.73
X136.46Y-75.27
X136.46Y-77.81
X136.46Y-95.42
X136.46Y-97.96
X136.46Y-100.5
X136.99Y-63.535
X136.99Y-66.075
X136.99Y-68.615
X136.99Y-86.225
X136.99Y-88.765
X136.99Y-91.305
X139.0Y-72.73
X139.0Y-75.27
X139.0Y-77.81
X139.0Y-95.42
X139.0Y-97.96
X139.0Y-100.5
X159.22Y-55.24
X159.22Y-57.78
X159.22Y-60.32
X159.22Y-62.86
X159.22Y-65.4
X159.22Y-67.94
X159.22Y-70.48
X159.22Y-73.02
X159.22Y-75.56
X159.22Y-78.1
X159.22Y-80.64
X159.22Y-83.18
X159.22Y-85.72
X159.22Y-88.26
X159.22Y-90.8
X159.22Y-93.34
X159.22Y-95.88
X159.22Y-98.42
X159.22Y-100.96
X159.22Y-103.5
X177.0Y-55.24
X177.0Y-57.78
X177.0Y-60.32
X177.0Y-62.86
X177.0Y-65.4
X177.0Y-67.94
X177.0Y-70.48
X177.0Y-73.02
X177.0Y-75.56
X177.0Y-78.1
X177.0Y-80.64
X177.0Y-83.18
X177.0Y-85.72
X177.0Y-88.26
X177.0Y-90.8
X177.0Y-93.34
X177.0Y-95.88
X177.0Y-98.42
X177.0Y-100.96
X177.0Y-103.5
X191.71Y-62.46
X191.71Y-65.0
X194.25Y-62.46
X194.25Y-65.0
X196.79Y-62.46
X196.79Y-65.0
X197.5Y-83.75
X197.5Y-86.29
X197.5Y-88.83
X199.51Y-92.945
X199.51Y-95.485
X199.51Y-98.025
X200.04Y-83.75
X200.04Y-86.29
X200.04Y-88.83
X201.85Y-107.5
X202.05Y-92.945
X202.05Y-95.485
X202.05Y-98.025
X204.09Y-61.99
X204.09Y-64.53
X204.09Y-68.2
X204.09Y-70.74
X204.12Y-74.4
X204.12Y-76.94
X206.63Y-61.99
X206.63Y-64.53
X206.63Y-68.2
X206.63Y-70.74
X206.66Y-74.4
X206.66Y-76.94
X209.17Y-61.99
X209.17Y-64.53
X209.17Y-68.2
X209.17Y-70.74
X209.2Y-74.4
X209.2Y-76.94
T4
X129.5Y-55.5
X129.5Y-106.0
X207.5Y-55.5
X207.5Y-106.0
M30
