%TF.GenerationSoftware,KiCad,Pcbnew,8.0.8+1*%
%TF.CreationDate,2025-01-27T22:00:13-08:00*%
%TF.ProjectId,pico-logic-analyzer,7069636f-2d6c-46f6-9769-632d616e616c,rev?*%
%TF.SameCoordinates,Original*%
%TF.FileFunction,Copper,L2,Inr*%
%TF.FilePolarity,Positive*%
%FSLAX46Y46*%
G04 Gerber Fmt 4.6, Leading zero omitted, Abs format (unit mm)*
G04 Created by KiCad (PCBNEW 8.0.8+1) date 2025-01-27 22:00:13*
%MOMM*%
%LPD*%
G01*
G04 APERTURE LIST*
%TA.AperFunction,ComponentPad*%
%ADD10R,1.600000X1.600000*%
%TD*%
%TA.AperFunction,ComponentPad*%
%ADD11O,1.600000X1.600000*%
%TD*%
%TA.AperFunction,ComponentPad*%
%ADD12R,1.700000X1.700000*%
%TD*%
%TA.AperFunction,ComponentPad*%
%ADD13O,1.700000X1.700000*%
%TD*%
%TA.AperFunction,ViaPad*%
%ADD14C,0.600000*%
%TD*%
G04 APERTURE END LIST*
D10*
%TO.N,/Buffer Block B/A0_{CL}*%
%TO.C,SW3*%
X187290000Y-61750000D03*
D11*
%TO.N,/Buffer Block B/A1_{CL}*%
X187290000Y-64290000D03*
%TO.N,/Buffer Block B/A2_{CL}*%
X187290000Y-66830000D03*
%TO.N,/Buffer Block B/A3_{CL}*%
X187290000Y-69370000D03*
%TO.N,Net-(RN2A-R1.1)*%
X194910000Y-69370000D03*
%TO.N,Net-(RN2B-R2.1)*%
X194910000Y-66830000D03*
%TO.N,Net-(RN2C-R3.1)*%
X194910000Y-64290000D03*
%TO.N,Net-(RN2D-R4.1)*%
X194910000Y-61750000D03*
%TD*%
D12*
%TO.N,GND*%
%TO.C,J11*%
X157500000Y-107500000D03*
%TD*%
%TO.N,+3V3*%
%TO.C,J4*%
X181540001Y-56975000D03*
D13*
%TO.N,/Buffer Block B/VCCA_SEL*%
X184080001Y-56975000D03*
%TO.N,/+1.8V_REG*%
X181540001Y-59515000D03*
%TO.N,/Buffer Block B/VCCA_SEL*%
X184080001Y-59515000D03*
%TO.N,/+5V_REG*%
X181540001Y-62055000D03*
%TO.N,/Buffer Block B/VCCA_SEL*%
X184080001Y-62055000D03*
%TD*%
D12*
%TO.N,+3V3*%
%TO.C,J6*%
X153750000Y-104525000D03*
D13*
%TO.N,/Buffer Block C/VCCA_SEL*%
X151210000Y-104525000D03*
%TO.N,/+1.8V_REG*%
X153750000Y-101985000D03*
%TO.N,/Buffer Block C/VCCA_SEL*%
X151210000Y-101985000D03*
%TO.N,/+5V_REG*%
X153750000Y-99445000D03*
%TO.N,/Buffer Block C/VCCA_SEL*%
X151210000Y-99445000D03*
%TD*%
D12*
%TO.N,/A2*%
%TO.C,J1*%
X152125000Y-69225000D03*
D13*
%TO.N,GND*%
X149585000Y-69225000D03*
%TO.N,/A1*%
X152125000Y-71765000D03*
%TO.N,GND*%
X149585000Y-71765000D03*
%TO.N,/A0*%
X152125000Y-74305000D03*
%TO.N,GND*%
X149585000Y-74305000D03*
%TD*%
D12*
%TO.N,/Buffer Block B/A0*%
%TO.C,J5*%
X183250000Y-79080000D03*
D13*
%TO.N,/Buffer Block B/A1*%
X185790000Y-79080000D03*
%TO.N,/Buffer Block B/A2*%
X183250000Y-76540000D03*
%TO.N,/Buffer Block B/A3*%
X185790000Y-76540000D03*
%TO.N,GND*%
X183250000Y-74000000D03*
X185790000Y-74000000D03*
%TD*%
D12*
%TO.N,/Buffer Block C/A0*%
%TO.C,J7*%
X152040000Y-82420000D03*
D13*
%TO.N,/Buffer Block C/A1*%
X149500000Y-82420000D03*
%TO.N,/Buffer Block C/A2*%
X152040000Y-84960000D03*
%TO.N,/Buffer Block C/A3*%
X149500000Y-84960000D03*
%TO.N,GND*%
X152040000Y-87500000D03*
X149500000Y-87500000D03*
%TD*%
D10*
%TO.N,/Buffer Block C/A0_{CL}*%
%TO.C,SW4*%
X148000000Y-99750000D03*
D11*
%TO.N,/Buffer Block C/A1_{CL}*%
X148000000Y-97210000D03*
%TO.N,/Buffer Block C/A2_{CL}*%
X148000000Y-94670000D03*
%TO.N,/Buffer Block C/A3_{CL}*%
X148000000Y-92130000D03*
%TO.N,Net-(RN3A-R1.1)*%
X140380000Y-92130000D03*
%TO.N,Net-(RN3B-R2.1)*%
X140380000Y-94670000D03*
%TO.N,Net-(RN3C-R3.1)*%
X140380000Y-97210000D03*
%TO.N,Net-(RN3D-R4.1)*%
X140380000Y-99750000D03*
%TD*%
D10*
%TO.N,/Buffer Block A/A0_{CL}*%
%TO.C,SW2*%
X187335000Y-87920000D03*
D11*
%TO.N,/Buffer Block A/A1_{CL}*%
X187335000Y-90460000D03*
%TO.N,/Buffer Block A/A2_{CL}*%
X187335000Y-93000000D03*
%TO.N,/Buffer Block A/A3_{CL}*%
X187335000Y-95540000D03*
%TO.N,Net-(RN1A-R1.1)*%
X194955000Y-95540000D03*
%TO.N,Net-(RN1B-R2.1)*%
X194955000Y-93000000D03*
%TO.N,Net-(RN1C-R3.1)*%
X194955000Y-90460000D03*
%TO.N,Net-(RN1D-R4.1)*%
X194955000Y-87920000D03*
%TD*%
D12*
%TO.N,+3V3*%
%TO.C,J2*%
X181585001Y-83145000D03*
D13*
%TO.N,/Buffer Block A/VCCA_SEL*%
X184125001Y-83145000D03*
%TO.N,/+1.8V_REG*%
X181585001Y-85685000D03*
%TO.N,/Buffer Block A/VCCA_SEL*%
X184125001Y-85685000D03*
%TO.N,/+5V_REG*%
X181585001Y-88225000D03*
%TO.N,/Buffer Block A/VCCA_SEL*%
X184125001Y-88225000D03*
%TD*%
D12*
%TO.N,/Buffer Block A/A0*%
%TO.C,J3*%
X183295000Y-105250000D03*
D13*
%TO.N,/Buffer Block A/A1*%
X185835000Y-105250000D03*
%TO.N,/Buffer Block A/A2*%
X183295000Y-102710000D03*
%TO.N,/Buffer Block A/A3*%
X185835000Y-102710000D03*
%TO.N,GND*%
X183295000Y-100170000D03*
X185835000Y-100170000D03*
%TD*%
D14*
%TO.N,/Buffer Block B/VCCA_SEL*%
X179290000Y-70750000D03*
%TO.N,/Buffer Block A/VCCA_SEL*%
X179335000Y-96920000D03*
%TO.N,/Buffer Block C/VCCA_SEL*%
X156000000Y-90750000D03*
%TO.N,/Buffer Block A/A2_{CL}*%
X180859263Y-94845734D03*
%TO.N,/Buffer Block B/A2_{CL}*%
X180814263Y-68675734D03*
%TO.N,/Buffer Block C/A2_{CL}*%
X154475737Y-92824266D03*
%TO.N,/Buffer Block A/A1_{CL}*%
X180835000Y-95670000D03*
%TO.N,/Buffer Block A/A0_{CL}*%
X180067694Y-95896375D03*
%TO.N,/Buffer Block B/A1_{CL}*%
X180790000Y-69500000D03*
%TO.N,/Buffer Block B/A0_{CL}*%
X180011347Y-69715028D03*
%TO.N,/Buffer Block C/A0_{CL}*%
X155267306Y-91773625D03*
%TO.N,/Buffer Block C/A1_{CL}*%
X154500000Y-92000000D03*
%TO.N,Net-(A2-RUN)*%
X155250000Y-79500000D03*
%TO.N,/IO18*%
X162750000Y-93750000D03*
%TO.N,/IO17*%
X162250000Y-95000000D03*
%TO.N,/IO04*%
X173500000Y-67500000D03*
%TO.N,/IO15*%
X173250000Y-94500000D03*
%TO.N,/IO13*%
X173250000Y-93000000D03*
%TO.N,/IO12*%
X173250000Y-92199997D03*
%TO.N,/IO03*%
X173500000Y-66500000D03*
%TO.N,/IO05*%
X173250000Y-68500000D03*
%TO.N,/IO02*%
X173250000Y-65500000D03*
%TO.N,/IO14*%
X173750000Y-93750000D03*
%TD*%
%TA.AperFunction,Conductor*%
%TO.N,GND*%
G36*
X185369075Y-99977007D02*
G01*
X185335000Y-100104174D01*
X185335000Y-100235826D01*
X185369075Y-100362993D01*
X185401988Y-100420000D01*
X183728012Y-100420000D01*
X183760925Y-100362993D01*
X183795000Y-100235826D01*
X183795000Y-100104174D01*
X183760925Y-99977007D01*
X183728012Y-99920000D01*
X185401988Y-99920000D01*
X185369075Y-99977007D01*
G37*
%TD.AperFunction*%
%TA.AperFunction,Conductor*%
G36*
X151574075Y-87307007D02*
G01*
X151540000Y-87434174D01*
X151540000Y-87565826D01*
X151574075Y-87692993D01*
X151606988Y-87750000D01*
X149933012Y-87750000D01*
X149965925Y-87692993D01*
X150000000Y-87565826D01*
X150000000Y-87434174D01*
X149965925Y-87307007D01*
X149933012Y-87250000D01*
X151606988Y-87250000D01*
X151574075Y-87307007D01*
G37*
%TD.AperFunction*%
%TA.AperFunction,Conductor*%
G36*
X185324075Y-73807007D02*
G01*
X185290000Y-73934174D01*
X185290000Y-74065826D01*
X185324075Y-74192993D01*
X185356988Y-74250000D01*
X183683012Y-74250000D01*
X183715925Y-74192993D01*
X183750000Y-74065826D01*
X183750000Y-73934174D01*
X183715925Y-73807007D01*
X183683012Y-73750000D01*
X185356988Y-73750000D01*
X185324075Y-73807007D01*
G37*
%TD.AperFunction*%
%TA.AperFunction,Conductor*%
G36*
X149835000Y-73871988D02*
G01*
X149777993Y-73839075D01*
X149650826Y-73805000D01*
X149519174Y-73805000D01*
X149392007Y-73839075D01*
X149335000Y-73871988D01*
X149335000Y-72198012D01*
X149392007Y-72230925D01*
X149519174Y-72265000D01*
X149650826Y-72265000D01*
X149777993Y-72230925D01*
X149835000Y-72198012D01*
X149835000Y-73871988D01*
G37*
%TD.AperFunction*%
%TA.AperFunction,Conductor*%
G36*
X149835000Y-71331988D02*
G01*
X149777993Y-71299075D01*
X149650826Y-71265000D01*
X149519174Y-71265000D01*
X149392007Y-71299075D01*
X149335000Y-71331988D01*
X149335000Y-69658012D01*
X149392007Y-69690925D01*
X149519174Y-69725000D01*
X149650826Y-69725000D01*
X149777993Y-69690925D01*
X149835000Y-69658012D01*
X149835000Y-71331988D01*
G37*
%TD.AperFunction*%
%TA.AperFunction,Conductor*%
G36*
X193503471Y-52250695D02*
G01*
X193544188Y-52252981D01*
X193800900Y-52267397D01*
X193814703Y-52268953D01*
X194104953Y-52318269D01*
X194118510Y-52321363D01*
X194401413Y-52402866D01*
X194414537Y-52407459D01*
X194686527Y-52520120D01*
X194699049Y-52526149D01*
X194897673Y-52635925D01*
X194956726Y-52668563D01*
X194968500Y-52675961D01*
X195208604Y-52846323D01*
X195219476Y-52854993D01*
X195438997Y-53051169D01*
X195448830Y-53061002D01*
X195645006Y-53280523D01*
X195653676Y-53291395D01*
X195824038Y-53531499D01*
X195831436Y-53543273D01*
X195973846Y-53800943D01*
X195979879Y-53813472D01*
X196092540Y-54085462D01*
X196097133Y-54098586D01*
X196178636Y-54381489D01*
X196181730Y-54395046D01*
X196231045Y-54685288D01*
X196232602Y-54699106D01*
X196249305Y-54996527D01*
X196249500Y-55003480D01*
X196249500Y-61002374D01*
X196229815Y-61069413D01*
X196177011Y-61115168D01*
X196107853Y-61125112D01*
X196044297Y-61096087D01*
X196023925Y-61073497D01*
X195910045Y-60910858D01*
X195749141Y-60749954D01*
X195562734Y-60619432D01*
X195562732Y-60619431D01*
X195356497Y-60523261D01*
X195356488Y-60523258D01*
X195136697Y-60464366D01*
X195136693Y-60464365D01*
X195136692Y-60464365D01*
X195136691Y-60464364D01*
X195136686Y-60464364D01*
X194910002Y-60444532D01*
X194909998Y-60444532D01*
X194683313Y-60464364D01*
X194683302Y-60464366D01*
X194463511Y-60523258D01*
X194463502Y-60523261D01*
X194257267Y-60619431D01*
X194257265Y-60619432D01*
X194070858Y-60749954D01*
X193909954Y-60910858D01*
X193779432Y-61097265D01*
X193779431Y-61097267D01*
X193683261Y-61303502D01*
X193683258Y-61303511D01*
X193624366Y-61523302D01*
X193624364Y-61523313D01*
X193604532Y-61749998D01*
X193604532Y-61750001D01*
X193624364Y-61976686D01*
X193624366Y-61976697D01*
X193683258Y-62196488D01*
X193683261Y-62196497D01*
X193779431Y-62402732D01*
X193779432Y-62402734D01*
X193909954Y-62589141D01*
X194070858Y-62750045D01*
X194070861Y-62750047D01*
X194257266Y-62880568D01*
X194315275Y-62907618D01*
X194367714Y-62953791D01*
X194386866Y-63020984D01*
X194366650Y-63087865D01*
X194315275Y-63132382D01*
X194257267Y-63159431D01*
X194257265Y-63159432D01*
X194070858Y-63289954D01*
X193909954Y-63450858D01*
X193779432Y-63637265D01*
X193779431Y-63637267D01*
X193683261Y-63843502D01*
X193683258Y-63843511D01*
X193624366Y-64063302D01*
X193624364Y-64063313D01*
X193604532Y-64289998D01*
X193604532Y-64290001D01*
X193624364Y-64516686D01*
X193624366Y-64516697D01*
X193683258Y-64736488D01*
X193683261Y-64736497D01*
X193779431Y-64942732D01*
X193779432Y-64942734D01*
X193909954Y-65129141D01*
X194070858Y-65290045D01*
X194070861Y-65290047D01*
X194257266Y-65420568D01*
X194315275Y-65447618D01*
X194367714Y-65493791D01*
X194386866Y-65560984D01*
X194366650Y-65627865D01*
X194315275Y-65672382D01*
X194257267Y-65699431D01*
X194257265Y-65699432D01*
X194070858Y-65829954D01*
X193909954Y-65990858D01*
X193779432Y-66177265D01*
X193779431Y-66177267D01*
X193683261Y-66383502D01*
X193683258Y-66383511D01*
X193624366Y-66603302D01*
X193624364Y-66603313D01*
X193604532Y-66829998D01*
X193604532Y-66830001D01*
X193624364Y-67056686D01*
X193624366Y-67056697D01*
X193683258Y-67276488D01*
X193683261Y-67276497D01*
X193779431Y-67482732D01*
X193779432Y-67482734D01*
X193909954Y-67669141D01*
X194070858Y-67830045D01*
X194117693Y-67862839D01*
X194257266Y-67960568D01*
X194315275Y-67987618D01*
X194367714Y-68033791D01*
X194386866Y-68100984D01*
X194366650Y-68167865D01*
X194315275Y-68212382D01*
X194257267Y-68239431D01*
X194257265Y-68239432D01*
X194070858Y-68369954D01*
X193909954Y-68530858D01*
X193779432Y-68717265D01*
X193779431Y-68717267D01*
X193683261Y-68923502D01*
X193683258Y-68923511D01*
X193624366Y-69143302D01*
X193624364Y-69143313D01*
X193604532Y-69369998D01*
X193604532Y-69370001D01*
X193624364Y-69596686D01*
X193624366Y-69596697D01*
X193683258Y-69816488D01*
X193683261Y-69816497D01*
X193779431Y-70022732D01*
X193779432Y-70022734D01*
X193909954Y-70209141D01*
X194070858Y-70370045D01*
X194070861Y-70370047D01*
X194257266Y-70500568D01*
X194463504Y-70596739D01*
X194683308Y-70655635D01*
X194845230Y-70669801D01*
X194909998Y-70675468D01*
X194910000Y-70675468D01*
X194910002Y-70675468D01*
X194966673Y-70670509D01*
X195136692Y-70655635D01*
X195356496Y-70596739D01*
X195562734Y-70500568D01*
X195749139Y-70370047D01*
X195910047Y-70209139D01*
X196023926Y-70046500D01*
X196078501Y-70002877D01*
X196147999Y-69995683D01*
X196210354Y-70027205D01*
X196245769Y-70087435D01*
X196249500Y-70117625D01*
X196249500Y-87108106D01*
X196229815Y-87175145D01*
X196177011Y-87220900D01*
X196107853Y-87230844D01*
X196044297Y-87201819D01*
X196023925Y-87179229D01*
X195955046Y-87080859D01*
X195794141Y-86919954D01*
X195607734Y-86789432D01*
X195607732Y-86789431D01*
X195401497Y-86693261D01*
X195401488Y-86693258D01*
X195181697Y-86634366D01*
X195181693Y-86634365D01*
X195181692Y-86634365D01*
X195181691Y-86634364D01*
X195181686Y-86634364D01*
X194955002Y-86614532D01*
X194954998Y-86614532D01*
X194728313Y-86634364D01*
X194728302Y-86634366D01*
X194508511Y-86693258D01*
X194508502Y-86693261D01*
X194302267Y-86789431D01*
X194302265Y-86789432D01*
X194115858Y-86919954D01*
X193954954Y-87080858D01*
X193824432Y-87267265D01*
X193824431Y-87267267D01*
X193728261Y-87473502D01*
X193728258Y-87473511D01*
X193669366Y-87693302D01*
X193669364Y-87693313D01*
X193649532Y-87919998D01*
X193649532Y-87920001D01*
X193669364Y-88146686D01*
X193669366Y-88146697D01*
X193728258Y-88366488D01*
X193728261Y-88366497D01*
X193824431Y-88572732D01*
X193824432Y-88572734D01*
X193954954Y-88759141D01*
X194115858Y-88920045D01*
X194115861Y-88920047D01*
X194302266Y-89050568D01*
X194360275Y-89077618D01*
X194412714Y-89123791D01*
X194431866Y-89190984D01*
X194411650Y-89257865D01*
X194360275Y-89302382D01*
X194302267Y-89329431D01*
X194302265Y-89329432D01*
X194115858Y-89459954D01*
X193954954Y-89620858D01*
X193824432Y-89807265D01*
X193824431Y-89807267D01*
X193728261Y-90013502D01*
X193728258Y-90013511D01*
X193669366Y-90233302D01*
X193669364Y-90233313D01*
X193649532Y-90459998D01*
X193649532Y-90460001D01*
X193669364Y-90686686D01*
X193669366Y-90686697D01*
X193728258Y-90906488D01*
X193728261Y-90906497D01*
X193824431Y-91112732D01*
X193824432Y-91112734D01*
X193954954Y-91299141D01*
X194115858Y-91460045D01*
X194140454Y-91477267D01*
X194302266Y-91590568D01*
X194360275Y-91617618D01*
X194412714Y-91663791D01*
X194431866Y-91730984D01*
X194411650Y-91797865D01*
X194360275Y-91842382D01*
X194302267Y-91869431D01*
X194302265Y-91869432D01*
X194115858Y-91999954D01*
X193954954Y-92160858D01*
X193824432Y-92347265D01*
X193824431Y-92347267D01*
X193728261Y-92553502D01*
X193728258Y-92553511D01*
X193669366Y-92773302D01*
X193669364Y-92773313D01*
X193649532Y-92999998D01*
X193649532Y-93000001D01*
X193669364Y-93226686D01*
X193669366Y-93226697D01*
X193728258Y-93446488D01*
X193728261Y-93446497D01*
X193824431Y-93652732D01*
X193824432Y-93652734D01*
X193954954Y-93839141D01*
X194115858Y-94000045D01*
X194140454Y-94017267D01*
X194302266Y-94130568D01*
X194344959Y-94150476D01*
X194360275Y-94157618D01*
X194412714Y-94203791D01*
X194431866Y-94270984D01*
X194411650Y-94337865D01*
X194360275Y-94382382D01*
X194302267Y-94409431D01*
X194302265Y-94409432D01*
X194115858Y-94539954D01*
X193954954Y-94700858D01*
X193824432Y-94887265D01*
X193824431Y-94887267D01*
X193728261Y-95093502D01*
X193728258Y-95093511D01*
X193669366Y-95313302D01*
X193669364Y-95313313D01*
X193649532Y-95539998D01*
X193649532Y-95540001D01*
X193669364Y-95766686D01*
X193669366Y-95766697D01*
X193728258Y-95986488D01*
X193728261Y-95986497D01*
X193824431Y-96192732D01*
X193824432Y-96192734D01*
X193954954Y-96379141D01*
X194115858Y-96540045D01*
X194140454Y-96557267D01*
X194302266Y-96670568D01*
X194508504Y-96766739D01*
X194728308Y-96825635D01*
X194890230Y-96839801D01*
X194954998Y-96845468D01*
X194955000Y-96845468D01*
X194955002Y-96845468D01*
X195011673Y-96840509D01*
X195181692Y-96825635D01*
X195401496Y-96766739D01*
X195607734Y-96670568D01*
X195794139Y-96540047D01*
X195955047Y-96379139D01*
X196023925Y-96280769D01*
X196078501Y-96237145D01*
X196148000Y-96229951D01*
X196210354Y-96261473D01*
X196245769Y-96321703D01*
X196249500Y-96351893D01*
X196249500Y-106496519D01*
X196249305Y-106503472D01*
X196232602Y-106800893D01*
X196231045Y-106814711D01*
X196181730Y-107104953D01*
X196178636Y-107118510D01*
X196097133Y-107401413D01*
X196092540Y-107414537D01*
X195979879Y-107686527D01*
X195973846Y-107699056D01*
X195831436Y-107956726D01*
X195824038Y-107968500D01*
X195653676Y-108208604D01*
X195645006Y-108219476D01*
X195448830Y-108438997D01*
X195438997Y-108448830D01*
X195219476Y-108645006D01*
X195208604Y-108653676D01*
X194968500Y-108824038D01*
X194956726Y-108831436D01*
X194699056Y-108973846D01*
X194686527Y-108979879D01*
X194414537Y-109092540D01*
X194401413Y-109097133D01*
X194118510Y-109178636D01*
X194104953Y-109181730D01*
X193814711Y-109231045D01*
X193800893Y-109232602D01*
X193503472Y-109249305D01*
X193496519Y-109249500D01*
X142003481Y-109249500D01*
X141996528Y-109249305D01*
X141699106Y-109232602D01*
X141685288Y-109231045D01*
X141395046Y-109181730D01*
X141381489Y-109178636D01*
X141098586Y-109097133D01*
X141085462Y-109092540D01*
X140813472Y-108979879D01*
X140800943Y-108973846D01*
X140543273Y-108831436D01*
X140531499Y-108824038D01*
X140291395Y-108653676D01*
X140280523Y-108645006D01*
X140061002Y-108448830D01*
X140051169Y-108438997D01*
X140014392Y-108397844D01*
X139854993Y-108219476D01*
X139846323Y-108208604D01*
X139675961Y-107968500D01*
X139668563Y-107956726D01*
X139526153Y-107699056D01*
X139520120Y-107686527D01*
X139510468Y-107663226D01*
X139460227Y-107541932D01*
X139407459Y-107414537D01*
X139402866Y-107401413D01*
X139321363Y-107118510D01*
X139318269Y-107104953D01*
X139301998Y-107009188D01*
X139268953Y-106814703D01*
X139267397Y-106800900D01*
X139250695Y-106503471D01*
X139250500Y-106496519D01*
X139250500Y-105878711D01*
X140649500Y-105878711D01*
X140649500Y-106121288D01*
X140681161Y-106361785D01*
X140743947Y-106596104D01*
X140828773Y-106800892D01*
X140836776Y-106820212D01*
X140958064Y-107030289D01*
X140958066Y-107030292D01*
X140958067Y-107030293D01*
X141105733Y-107222736D01*
X141105739Y-107222743D01*
X141277256Y-107394260D01*
X141277263Y-107394266D01*
X141390321Y-107481018D01*
X141469711Y-107541936D01*
X141679788Y-107663224D01*
X141903900Y-107756054D01*
X142138211Y-107818838D01*
X142318586Y-107842584D01*
X142378711Y-107850500D01*
X142378712Y-107850500D01*
X142621289Y-107850500D01*
X142669388Y-107844167D01*
X142861789Y-107818838D01*
X143096100Y-107756054D01*
X143320212Y-107663224D01*
X143530289Y-107541936D01*
X143722738Y-107394265D01*
X143894265Y-107222738D01*
X144041936Y-107030289D01*
X144163224Y-106820212D01*
X144253546Y-106602155D01*
X156150000Y-106602155D01*
X156150000Y-107250000D01*
X157066988Y-107250000D01*
X157034075Y-107307007D01*
X157000000Y-107434174D01*
X157000000Y-107565826D01*
X157034075Y-107692993D01*
X157066988Y-107750000D01*
X156150000Y-107750000D01*
X156150000Y-108397844D01*
X156156401Y-108457372D01*
X156156403Y-108457379D01*
X156206645Y-108592086D01*
X156206649Y-108592093D01*
X156292809Y-108707187D01*
X156292812Y-108707190D01*
X156407906Y-108793350D01*
X156407913Y-108793354D01*
X156542620Y-108843596D01*
X156542627Y-108843598D01*
X156602155Y-108849999D01*
X156602172Y-108850000D01*
X157250000Y-108850000D01*
X157250000Y-107933012D01*
X157307007Y-107965925D01*
X157434174Y-108000000D01*
X157565826Y-108000000D01*
X157692993Y-107965925D01*
X157750000Y-107933012D01*
X157750000Y-108850000D01*
X158397828Y-108850000D01*
X158397844Y-108849999D01*
X158457372Y-108843598D01*
X158457379Y-108843596D01*
X158592086Y-108793354D01*
X158592093Y-108793350D01*
X158707187Y-108707190D01*
X158707190Y-108707187D01*
X158793350Y-108592093D01*
X158793354Y-108592086D01*
X158843596Y-108457379D01*
X158843598Y-108457372D01*
X158849999Y-108397844D01*
X158850000Y-108397827D01*
X158850000Y-107750000D01*
X157933012Y-107750000D01*
X157965925Y-107692993D01*
X158000000Y-107565826D01*
X158000000Y-107434174D01*
X157965925Y-107307007D01*
X157933012Y-107250000D01*
X158850000Y-107250000D01*
X158850000Y-106602172D01*
X158849999Y-106602155D01*
X158843598Y-106542627D01*
X158843596Y-106542620D01*
X158793354Y-106407913D01*
X158793350Y-106407906D01*
X158707190Y-106292812D01*
X158707187Y-106292809D01*
X158592093Y-106206649D01*
X158592086Y-106206645D01*
X158457379Y-106156403D01*
X158457372Y-106156401D01*
X158397844Y-106150000D01*
X157750000Y-106150000D01*
X157750000Y-107066988D01*
X157692993Y-107034075D01*
X157565826Y-107000000D01*
X157434174Y-107000000D01*
X157307007Y-107034075D01*
X157250000Y-107066988D01*
X157250000Y-106150000D01*
X156602155Y-106150000D01*
X156542627Y-106156401D01*
X156542620Y-106156403D01*
X156407913Y-106206645D01*
X156407906Y-106206649D01*
X156292812Y-106292809D01*
X156292809Y-106292812D01*
X156206649Y-106407906D01*
X156206645Y-106407913D01*
X156156403Y-106542620D01*
X156156401Y-106542627D01*
X156150000Y-106602155D01*
X144253546Y-106602155D01*
X144256054Y-106596100D01*
X144318838Y-106361789D01*
X144350500Y-106121288D01*
X144350500Y-105878712D01*
X144349233Y-105869091D01*
X144318838Y-105638214D01*
X144318838Y-105638211D01*
X144256054Y-105403900D01*
X144163224Y-105179788D01*
X144041936Y-104969711D01*
X143901234Y-104786344D01*
X143894266Y-104777263D01*
X143894260Y-104777256D01*
X143722743Y-104605739D01*
X143722736Y-104605733D01*
X143530293Y-104458067D01*
X143530292Y-104458066D01*
X143530289Y-104458064D01*
X143346815Y-104352135D01*
X143320214Y-104336777D01*
X143320205Y-104336773D01*
X143096104Y-104243947D01*
X142861785Y-104181161D01*
X142621289Y-104149500D01*
X142621288Y-104149500D01*
X142378712Y-104149500D01*
X142378711Y-104149500D01*
X142138214Y-104181161D01*
X141903895Y-104243947D01*
X141679794Y-104336773D01*
X141679785Y-104336777D01*
X141469706Y-104458067D01*
X141277263Y-104605733D01*
X141277256Y-104605739D01*
X141105739Y-104777256D01*
X141105733Y-104777263D01*
X140958067Y-104969706D01*
X140958064Y-104969710D01*
X140958064Y-104969711D01*
X140941817Y-104997851D01*
X140836777Y-105179785D01*
X140836773Y-105179794D01*
X140743947Y-105403895D01*
X140681161Y-105638214D01*
X140649500Y-105878711D01*
X139250500Y-105878711D01*
X139250500Y-100759049D01*
X139270185Y-100692010D01*
X139322989Y-100646255D01*
X139392147Y-100636311D01*
X139455703Y-100665336D01*
X139462181Y-100671368D01*
X139540858Y-100750045D01*
X139540861Y-100750047D01*
X139727266Y-100880568D01*
X139933504Y-100976739D01*
X140153308Y-101035635D01*
X140315230Y-101049801D01*
X140379998Y-101055468D01*
X140380000Y-101055468D01*
X140380002Y-101055468D01*
X140436807Y-101050498D01*
X140606692Y-101035635D01*
X140826496Y-100976739D01*
X141032734Y-100880568D01*
X141219139Y-100750047D01*
X141380047Y-100589139D01*
X141510568Y-100402734D01*
X141606739Y-100196496D01*
X141665635Y-99976692D01*
X141685468Y-99750000D01*
X141665635Y-99523308D01*
X141606739Y-99303504D01*
X141510568Y-99097266D01*
X141380047Y-98910861D01*
X141380045Y-98910858D01*
X141219141Y-98749954D01*
X141032734Y-98619432D01*
X141032728Y-98619429D01*
X140974882Y-98592455D01*
X140974724Y-98592381D01*
X140922285Y-98546210D01*
X140903133Y-98479017D01*
X140923348Y-98412135D01*
X140974725Y-98367618D01*
X141032734Y-98340568D01*
X141219139Y-98210047D01*
X141380047Y-98049139D01*
X141510568Y-97862734D01*
X141606739Y-97656496D01*
X141665635Y-97436692D01*
X141685468Y-97210000D01*
X141665635Y-96983308D01*
X141606739Y-96763504D01*
X141510568Y-96557266D01*
X141380047Y-96370861D01*
X141380045Y-96370858D01*
X141219141Y-96209954D01*
X141032734Y-96079432D01*
X141032728Y-96079429D01*
X140974725Y-96052382D01*
X140922285Y-96006210D01*
X140903133Y-95939017D01*
X140923348Y-95872135D01*
X140974725Y-95827618D01*
X141032734Y-95800568D01*
X141219139Y-95670047D01*
X141380047Y-95509139D01*
X141510568Y-95322734D01*
X141606739Y-95116496D01*
X141665635Y-94896692D01*
X141685468Y-94670000D01*
X141685160Y-94666484D01*
X141674090Y-94539953D01*
X141665635Y-94443308D01*
X141606739Y-94223504D01*
X141510568Y-94017266D01*
X141380047Y-93830861D01*
X141380045Y-93830858D01*
X141219141Y-93669954D01*
X141032734Y-93539432D01*
X141032728Y-93539429D01*
X140974725Y-93512382D01*
X140922285Y-93466210D01*
X140903133Y-93399017D01*
X140923348Y-93332135D01*
X140974725Y-93287618D01*
X141032734Y-93260568D01*
X141219139Y-93130047D01*
X141380047Y-92969139D01*
X141510568Y-92782734D01*
X141606739Y-92576496D01*
X141665635Y-92356692D01*
X141685468Y-92130000D01*
X141685468Y-92129998D01*
X146694532Y-92129998D01*
X146694532Y-92130001D01*
X146714364Y-92356686D01*
X146714366Y-92356697D01*
X146773258Y-92576488D01*
X146773261Y-92576497D01*
X146869431Y-92782732D01*
X146869432Y-92782734D01*
X146999954Y-92969141D01*
X147160858Y-93130045D01*
X147160861Y-93130047D01*
X147347266Y-93260568D01*
X147405275Y-93287618D01*
X147457714Y-93333791D01*
X147476866Y-93400984D01*
X147456650Y-93467865D01*
X147405275Y-93512382D01*
X147347267Y-93539431D01*
X147347265Y-93539432D01*
X147160858Y-93669954D01*
X146999954Y-93830858D01*
X146869432Y-94017265D01*
X146869431Y-94017267D01*
X146773261Y-94223502D01*
X146773258Y-94223511D01*
X146714366Y-94443302D01*
X146714364Y-94443313D01*
X146694532Y-94669998D01*
X146694532Y-94670001D01*
X146714364Y-94896686D01*
X146714366Y-94896697D01*
X146773258Y-95116488D01*
X146773261Y-95116497D01*
X146869431Y-95322732D01*
X146869432Y-95322734D01*
X146999954Y-95509141D01*
X147160858Y-95670045D01*
X147160861Y-95670047D01*
X147347266Y-95800568D01*
X147405275Y-95827618D01*
X147457714Y-95873791D01*
X147476866Y-95940984D01*
X147456650Y-96007865D01*
X147405275Y-96052382D01*
X147347267Y-96079431D01*
X147347265Y-96079432D01*
X147160858Y-96209954D01*
X146999954Y-96370858D01*
X146869432Y-96557265D01*
X146869431Y-96557267D01*
X146773261Y-96763502D01*
X146773258Y-96763511D01*
X146714366Y-96983302D01*
X146714364Y-96983313D01*
X146694532Y-97209998D01*
X146694532Y-97210001D01*
X146714364Y-97436686D01*
X146714366Y-97436697D01*
X146773258Y-97656488D01*
X146773261Y-97656497D01*
X146869431Y-97862732D01*
X146869432Y-97862734D01*
X146999954Y-98049141D01*
X147160858Y-98210045D01*
X147185462Y-98227273D01*
X147229087Y-98281849D01*
X147236281Y-98351348D01*
X147204758Y-98413703D01*
X147144529Y-98449117D01*
X147127593Y-98452138D01*
X147092516Y-98455908D01*
X146957671Y-98506202D01*
X146957664Y-98506206D01*
X146842455Y-98592452D01*
X146842452Y-98592455D01*
X146756206Y-98707664D01*
X146756202Y-98707671D01*
X146705908Y-98842517D01*
X146700098Y-98896567D01*
X146699501Y-98902123D01*
X146699500Y-98902135D01*
X146699500Y-100597870D01*
X146699501Y-100597876D01*
X146705908Y-100657483D01*
X146756202Y-100792328D01*
X146756206Y-100792335D01*
X146842452Y-100907544D01*
X146842455Y-100907547D01*
X146957664Y-100993793D01*
X146957671Y-100993797D01*
X147092517Y-101044091D01*
X147092516Y-101044091D01*
X147099444Y-101044835D01*
X147152127Y-101050500D01*
X148847872Y-101050499D01*
X148907483Y-101044091D01*
X149042331Y-100993796D01*
X149157546Y-100907546D01*
X149243796Y-100792331D01*
X149294091Y-100657483D01*
X149300500Y-100597873D01*
X149300499Y-99444999D01*
X149854341Y-99444999D01*
X149854341Y-99445000D01*
X149874936Y-99680403D01*
X149874938Y-99680413D01*
X149936094Y-99908655D01*
X149936096Y-99908659D01*
X149936097Y-99908663D01*
X150016004Y-100080023D01*
X150035965Y-100122830D01*
X150035967Y-100122834D01*
X150087547Y-100196497D01*
X150171501Y-100316396D01*
X150171506Y-100316402D01*
X150338597Y-100483493D01*
X150338603Y-100483498D01*
X150524158Y-100613425D01*
X150567783Y-100668002D01*
X150574977Y-100737500D01*
X150543454Y-100799855D01*
X150524158Y-100816575D01*
X150338597Y-100946505D01*
X150171505Y-101113597D01*
X150035965Y-101307169D01*
X150035964Y-101307171D01*
X149936098Y-101521335D01*
X149936094Y-101521344D01*
X149874938Y-101749586D01*
X149874936Y-101749596D01*
X149854341Y-101984999D01*
X149854341Y-101985000D01*
X149874936Y-102220403D01*
X149874938Y-102220413D01*
X149936094Y-102448655D01*
X149936096Y-102448659D01*
X149936097Y-102448663D01*
X149948188Y-102474592D01*
X150035965Y-102662830D01*
X150035967Y-102662834D01*
X150144281Y-102817521D01*
X150171501Y-102856396D01*
X150171506Y-102856402D01*
X150338597Y-103023493D01*
X150338603Y-103023498D01*
X150524158Y-103153425D01*
X150567783Y-103208002D01*
X150574977Y-103277500D01*
X150543454Y-103339855D01*
X150524158Y-103356575D01*
X150338597Y-103486505D01*
X150171505Y-103653597D01*
X150035965Y-103847169D01*
X150035964Y-103847171D01*
X149936098Y-104061335D01*
X149936094Y-104061344D01*
X149874938Y-104289586D01*
X149874936Y-104289596D01*
X149854341Y-104524999D01*
X149854341Y-104525000D01*
X149874936Y-104760403D01*
X149874938Y-104760413D01*
X149936094Y-104988655D01*
X149936096Y-104988659D01*
X149936097Y-104988663D01*
X149948188Y-105014592D01*
X150035965Y-105202830D01*
X150035967Y-105202834D01*
X150144281Y-105357521D01*
X150171505Y-105396401D01*
X150338599Y-105563495D01*
X150435384Y-105631265D01*
X150532165Y-105699032D01*
X150532167Y-105699033D01*
X150532170Y-105699035D01*
X150746337Y-105798903D01*
X150974592Y-105860063D01*
X151151034Y-105875500D01*
X151209999Y-105880659D01*
X151210000Y-105880659D01*
X151210001Y-105880659D01*
X151268966Y-105875500D01*
X151445408Y-105860063D01*
X151673663Y-105798903D01*
X151887830Y-105699035D01*
X152081401Y-105563495D01*
X152203329Y-105441566D01*
X152264648Y-105408084D01*
X152334340Y-105413068D01*
X152390274Y-105454939D01*
X152407189Y-105485917D01*
X152456202Y-105617328D01*
X152456206Y-105617335D01*
X152542452Y-105732544D01*
X152542455Y-105732547D01*
X152657664Y-105818793D01*
X152657671Y-105818797D01*
X152792517Y-105869091D01*
X152792516Y-105869091D01*
X152799444Y-105869835D01*
X152852127Y-105875500D01*
X154647872Y-105875499D01*
X154707483Y-105869091D01*
X154842331Y-105818796D01*
X154957546Y-105732546D01*
X155043796Y-105617331D01*
X155094091Y-105482483D01*
X155100500Y-105422873D01*
X155100499Y-103627128D01*
X155094091Y-103567517D01*
X155092810Y-103564083D01*
X155043797Y-103432671D01*
X155043793Y-103432664D01*
X154957547Y-103317455D01*
X154957544Y-103317452D01*
X154842335Y-103231206D01*
X154842328Y-103231202D01*
X154710917Y-103182189D01*
X154654983Y-103140318D01*
X154630566Y-103074853D01*
X154645418Y-103006580D01*
X154666563Y-102978332D01*
X154788495Y-102856401D01*
X154891007Y-102709999D01*
X181939341Y-102709999D01*
X181939341Y-102710000D01*
X181959936Y-102945403D01*
X181959938Y-102945413D01*
X182021094Y-103173655D01*
X182021096Y-103173659D01*
X182021097Y-103173663D01*
X182069517Y-103277500D01*
X182120965Y-103387830D01*
X182120967Y-103387834D01*
X182229281Y-103542521D01*
X182256501Y-103581396D01*
X182256506Y-103581402D01*
X182378430Y-103703326D01*
X182411915Y-103764649D01*
X182406931Y-103834341D01*
X182365059Y-103890274D01*
X182334083Y-103907189D01*
X182202669Y-103956203D01*
X182202664Y-103956206D01*
X182087455Y-104042452D01*
X182087452Y-104042455D01*
X182001206Y-104157664D01*
X182001202Y-104157671D01*
X181950908Y-104292517D01*
X181944501Y-104352116D01*
X181944500Y-104352135D01*
X181944500Y-106147870D01*
X181944501Y-106147876D01*
X181950908Y-106207483D01*
X182001202Y-106342328D01*
X182001206Y-106342335D01*
X182087452Y-106457544D01*
X182087455Y-106457547D01*
X182202664Y-106543793D01*
X182202671Y-106543797D01*
X182337517Y-106594091D01*
X182337516Y-106594091D01*
X182344444Y-106594835D01*
X182397127Y-106600500D01*
X184192872Y-106600499D01*
X184252483Y-106594091D01*
X184387331Y-106543796D01*
X184502546Y-106457546D01*
X184588796Y-106342331D01*
X184637810Y-106210916D01*
X184679681Y-106154984D01*
X184745145Y-106130566D01*
X184813418Y-106145417D01*
X184841673Y-106166569D01*
X184963599Y-106288495D01*
X185060384Y-106356265D01*
X185157165Y-106424032D01*
X185157167Y-106424033D01*
X185157170Y-106424035D01*
X185371337Y-106523903D01*
X185599592Y-106585063D01*
X185776034Y-106600500D01*
X185834999Y-106605659D01*
X185835000Y-106605659D01*
X185835001Y-106605659D01*
X185893966Y-106600500D01*
X186070408Y-106585063D01*
X186298663Y-106523903D01*
X186512830Y-106424035D01*
X186706401Y-106288495D01*
X186873495Y-106121401D01*
X187009035Y-105927830D01*
X187108903Y-105713663D01*
X187170063Y-105485408D01*
X187190659Y-105250000D01*
X187170063Y-105014592D01*
X187108903Y-104786337D01*
X187009035Y-104572171D01*
X186873495Y-104378599D01*
X186873494Y-104378597D01*
X186706402Y-104211506D01*
X186706396Y-104211501D01*
X186520842Y-104081575D01*
X186477217Y-104026998D01*
X186470023Y-103957500D01*
X186501546Y-103895145D01*
X186520842Y-103878425D01*
X186633054Y-103799853D01*
X186706401Y-103748495D01*
X186873495Y-103581401D01*
X187009035Y-103387830D01*
X187108903Y-103173663D01*
X187170063Y-102945408D01*
X187190659Y-102710000D01*
X187170063Y-102474592D01*
X187108903Y-102246337D01*
X187009035Y-102032171D01*
X187003425Y-102024158D01*
X186873494Y-101838597D01*
X186706402Y-101671506D01*
X186706401Y-101671505D01*
X186520405Y-101541269D01*
X186476781Y-101486692D01*
X186469588Y-101417193D01*
X186501110Y-101354839D01*
X186520405Y-101338119D01*
X186706082Y-101208105D01*
X186873105Y-101041082D01*
X187008600Y-100847578D01*
X187108429Y-100633492D01*
X187108432Y-100633486D01*
X187165636Y-100420000D01*
X186268012Y-100420000D01*
X186300925Y-100362993D01*
X186335000Y-100235826D01*
X186335000Y-100104174D01*
X186300925Y-99977007D01*
X186268012Y-99920000D01*
X187165636Y-99920000D01*
X187165635Y-99919999D01*
X187108432Y-99706513D01*
X187108429Y-99706507D01*
X187008600Y-99492422D01*
X187008599Y-99492420D01*
X186873113Y-99298926D01*
X186873108Y-99298920D01*
X186706082Y-99131894D01*
X186512578Y-98996399D01*
X186298492Y-98896570D01*
X186298486Y-98896567D01*
X186085000Y-98839364D01*
X186085000Y-99736988D01*
X186027993Y-99704075D01*
X185900826Y-99670000D01*
X185769174Y-99670000D01*
X185642007Y-99704075D01*
X185585000Y-99736988D01*
X185585000Y-98839364D01*
X185584999Y-98839364D01*
X185371513Y-98896567D01*
X185371507Y-98896570D01*
X185157422Y-98996399D01*
X185157420Y-98996400D01*
X184963926Y-99131886D01*
X184963920Y-99131891D01*
X184796891Y-99298920D01*
X184796890Y-99298922D01*
X184666575Y-99485031D01*
X184611998Y-99528655D01*
X184542499Y-99535848D01*
X184480145Y-99504326D01*
X184463425Y-99485031D01*
X184333109Y-99298922D01*
X184333108Y-99298920D01*
X184166082Y-99131894D01*
X183972578Y-98996399D01*
X183758492Y-98896570D01*
X183758486Y-98896567D01*
X183545000Y-98839364D01*
X183545000Y-99736988D01*
X183487993Y-99704075D01*
X183360826Y-99670000D01*
X183229174Y-99670000D01*
X183102007Y-99704075D01*
X183045000Y-99736988D01*
X183045000Y-98839364D01*
X183044999Y-98839364D01*
X182831513Y-98896567D01*
X182831507Y-98896570D01*
X182617422Y-98996399D01*
X182617420Y-98996400D01*
X182423926Y-99131886D01*
X182423920Y-99131891D01*
X182256891Y-99298920D01*
X182256886Y-99298926D01*
X182121400Y-99492420D01*
X182121399Y-99492422D01*
X182021570Y-99706507D01*
X182021567Y-99706513D01*
X181964364Y-99919999D01*
X181964364Y-99920000D01*
X182861988Y-99920000D01*
X182829075Y-99977007D01*
X182795000Y-100104174D01*
X182795000Y-100235826D01*
X182829075Y-100362993D01*
X182861988Y-100420000D01*
X181964364Y-100420000D01*
X182021567Y-100633486D01*
X182021570Y-100633492D01*
X182121399Y-100847578D01*
X182256894Y-101041082D01*
X182423917Y-101208105D01*
X182609595Y-101338119D01*
X182653219Y-101392696D01*
X182660412Y-101462195D01*
X182628890Y-101524549D01*
X182609595Y-101541269D01*
X182423594Y-101671508D01*
X182256505Y-101838597D01*
X182120965Y-102032169D01*
X182120964Y-102032171D01*
X182021098Y-102246335D01*
X182021094Y-102246344D01*
X181959938Y-102474586D01*
X181959936Y-102474596D01*
X181939341Y-102709999D01*
X154891007Y-102709999D01*
X154924035Y-102662830D01*
X155023903Y-102448663D01*
X155085063Y-102220408D01*
X155105659Y-101985000D01*
X155085063Y-101749592D01*
X155023903Y-101521337D01*
X154924035Y-101307171D01*
X154918425Y-101299158D01*
X154788494Y-101113597D01*
X154621402Y-100946506D01*
X154621396Y-100946501D01*
X154435842Y-100816575D01*
X154392217Y-100761998D01*
X154385023Y-100692500D01*
X154416546Y-100630145D01*
X154435842Y-100613425D01*
X154497718Y-100570099D01*
X154621401Y-100483495D01*
X154788495Y-100316401D01*
X154924035Y-100122830D01*
X155023903Y-99908663D01*
X155085063Y-99680408D01*
X155105659Y-99445000D01*
X155085063Y-99209592D01*
X155023903Y-98981337D01*
X154924035Y-98767171D01*
X154918425Y-98759158D01*
X154788494Y-98573597D01*
X154621402Y-98406506D01*
X154621395Y-98406501D01*
X154427834Y-98270967D01*
X154427830Y-98270965D01*
X154427828Y-98270964D01*
X154213663Y-98171097D01*
X154213659Y-98171096D01*
X154213655Y-98171094D01*
X153985413Y-98109938D01*
X153985403Y-98109936D01*
X153750001Y-98089341D01*
X153749999Y-98089341D01*
X153514596Y-98109936D01*
X153514586Y-98109938D01*
X153286344Y-98171094D01*
X153286335Y-98171098D01*
X153072171Y-98270964D01*
X153072169Y-98270965D01*
X152878597Y-98406505D01*
X152711505Y-98573597D01*
X152581575Y-98759158D01*
X152526998Y-98802783D01*
X152457500Y-98809977D01*
X152395145Y-98778454D01*
X152378425Y-98759158D01*
X152248494Y-98573597D01*
X152081402Y-98406506D01*
X152081395Y-98406501D01*
X151887834Y-98270967D01*
X151887830Y-98270965D01*
X151887828Y-98270964D01*
X151673663Y-98171097D01*
X151673659Y-98171096D01*
X151673655Y-98171094D01*
X151445413Y-98109938D01*
X151445403Y-98109936D01*
X151210001Y-98089341D01*
X151209999Y-98089341D01*
X150974596Y-98109936D01*
X150974586Y-98109938D01*
X150746344Y-98171094D01*
X150746335Y-98171098D01*
X150532171Y-98270964D01*
X150532169Y-98270965D01*
X150338597Y-98406505D01*
X150171505Y-98573597D01*
X150035965Y-98767169D01*
X150035964Y-98767171D01*
X149936098Y-98981335D01*
X149936094Y-98981344D01*
X149874938Y-99209586D01*
X149874936Y-99209596D01*
X149854341Y-99444999D01*
X149300499Y-99444999D01*
X149300499Y-98902128D01*
X149294091Y-98842517D01*
X149288912Y-98828632D01*
X149243797Y-98707671D01*
X149243793Y-98707664D01*
X149157547Y-98592455D01*
X149157544Y-98592452D01*
X149042335Y-98506206D01*
X149042328Y-98506202D01*
X148907482Y-98455908D01*
X148907483Y-98455908D01*
X148872404Y-98452137D01*
X148807853Y-98425399D01*
X148768005Y-98368006D01*
X148765512Y-98298181D01*
X148801165Y-98238092D01*
X148814539Y-98227272D01*
X148839140Y-98210046D01*
X149000045Y-98049141D01*
X149000047Y-98049139D01*
X149130568Y-97862734D01*
X149226739Y-97656496D01*
X149285635Y-97436692D01*
X149305468Y-97210000D01*
X149285635Y-96983308D01*
X149268671Y-96919996D01*
X178529435Y-96919996D01*
X178529435Y-96920003D01*
X178549630Y-97099249D01*
X178549631Y-97099254D01*
X178609211Y-97269523D01*
X178705184Y-97422262D01*
X178832738Y-97549816D01*
X178985478Y-97645789D01*
X179016080Y-97656497D01*
X179155745Y-97705368D01*
X179155750Y-97705369D01*
X179334996Y-97725565D01*
X179335000Y-97725565D01*
X179335004Y-97725565D01*
X179514249Y-97705369D01*
X179514252Y-97705368D01*
X179514255Y-97705368D01*
X179684522Y-97645789D01*
X179837262Y-97549816D01*
X179964816Y-97422262D01*
X180060789Y-97269522D01*
X180120368Y-97099255D01*
X180120369Y-97099249D01*
X180140565Y-96920003D01*
X180140565Y-96919997D01*
X180129274Y-96819787D01*
X180141328Y-96750965D01*
X180188677Y-96699585D01*
X180238612Y-96682683D01*
X180246943Y-96681744D01*
X180246946Y-96681743D01*
X180246949Y-96681743D01*
X180417216Y-96622164D01*
X180569956Y-96526191D01*
X180600068Y-96496079D01*
X180661390Y-96462593D01*
X180701633Y-96460539D01*
X180834996Y-96475565D01*
X180835000Y-96475565D01*
X180835004Y-96475565D01*
X181014249Y-96455369D01*
X181014252Y-96455368D01*
X181014255Y-96455368D01*
X181184522Y-96395789D01*
X181337262Y-96299816D01*
X181464816Y-96172262D01*
X181560789Y-96019522D01*
X181620368Y-95849255D01*
X181625291Y-95805565D01*
X181640565Y-95670003D01*
X181640565Y-95669996D01*
X181620369Y-95490750D01*
X181620366Y-95490737D01*
X181561047Y-95321213D01*
X181557485Y-95251434D01*
X181573096Y-95214283D01*
X181585052Y-95195256D01*
X181644631Y-95024989D01*
X181647192Y-95002262D01*
X181664828Y-94845737D01*
X181664828Y-94845730D01*
X181644632Y-94666484D01*
X181644631Y-94666479D01*
X181600358Y-94539954D01*
X181585052Y-94496212D01*
X181582696Y-94492463D01*
X181530524Y-94409431D01*
X181489079Y-94343472D01*
X181361525Y-94215918D01*
X181287362Y-94169318D01*
X181208786Y-94119945D01*
X181038517Y-94060365D01*
X181038512Y-94060364D01*
X180859267Y-94040169D01*
X180859259Y-94040169D01*
X180680013Y-94060364D01*
X180680008Y-94060365D01*
X180509739Y-94119945D01*
X180357000Y-94215918D01*
X180229447Y-94343471D01*
X180133474Y-94496210D01*
X180073894Y-94666479D01*
X180073893Y-94666484D01*
X180053698Y-94845730D01*
X180053698Y-94845738D01*
X180067256Y-94966074D01*
X180055201Y-95034896D01*
X180007852Y-95086275D01*
X179957921Y-95103177D01*
X179888443Y-95111005D01*
X179888439Y-95111006D01*
X179718170Y-95170586D01*
X179565431Y-95266559D01*
X179437878Y-95394112D01*
X179341905Y-95546851D01*
X179282325Y-95717120D01*
X179282324Y-95717125D01*
X179262129Y-95896371D01*
X179262129Y-95896379D01*
X179273419Y-95996588D01*
X179261364Y-96065410D01*
X179214015Y-96116789D01*
X179164089Y-96133691D01*
X179155749Y-96134631D01*
X179155746Y-96134631D01*
X179155745Y-96134632D01*
X179107129Y-96151643D01*
X178985478Y-96194210D01*
X178832737Y-96290184D01*
X178705184Y-96417737D01*
X178609211Y-96570476D01*
X178549631Y-96740745D01*
X178549630Y-96740750D01*
X178529435Y-96919996D01*
X149268671Y-96919996D01*
X149226739Y-96763504D01*
X149130568Y-96557266D01*
X149000047Y-96370861D01*
X149000045Y-96370858D01*
X148839141Y-96209954D01*
X148652734Y-96079432D01*
X148652728Y-96079429D01*
X148594725Y-96052382D01*
X148542285Y-96006210D01*
X148523133Y-95939017D01*
X148543348Y-95872135D01*
X148594725Y-95827618D01*
X148652734Y-95800568D01*
X148839139Y-95670047D01*
X149000047Y-95509139D01*
X149130568Y-95322734D01*
X149226739Y-95116496D01*
X149257955Y-94999996D01*
X161444435Y-94999996D01*
X161444435Y-95000003D01*
X161464630Y-95179249D01*
X161464631Y-95179254D01*
X161524211Y-95349523D01*
X161620184Y-95502262D01*
X161747738Y-95629816D01*
X161900478Y-95725789D01*
X162070745Y-95785368D01*
X162070750Y-95785369D01*
X162249996Y-95805565D01*
X162250000Y-95805565D01*
X162250004Y-95805565D01*
X162429249Y-95785369D01*
X162429252Y-95785368D01*
X162429255Y-95785368D01*
X162599522Y-95725789D01*
X162752262Y-95629816D01*
X162879816Y-95502262D01*
X162975789Y-95349522D01*
X163035368Y-95179255D01*
X163036345Y-95170586D01*
X163055565Y-95000003D01*
X163055565Y-94999996D01*
X163035369Y-94820750D01*
X163035366Y-94820737D01*
X162975783Y-94650460D01*
X162972221Y-94580681D01*
X163006949Y-94520054D01*
X163051870Y-94492463D01*
X163054608Y-94491505D01*
X163099522Y-94475789D01*
X163252262Y-94379816D01*
X163379816Y-94252262D01*
X163475789Y-94099522D01*
X163535368Y-93929255D01*
X163543735Y-93854994D01*
X163555565Y-93750003D01*
X163555565Y-93749996D01*
X163535369Y-93570750D01*
X163535368Y-93570745D01*
X163499369Y-93467865D01*
X163475789Y-93400478D01*
X163379816Y-93247738D01*
X163252262Y-93120184D01*
X163175594Y-93072010D01*
X163099523Y-93024211D01*
X162929254Y-92964631D01*
X162929249Y-92964630D01*
X162750004Y-92944435D01*
X162749996Y-92944435D01*
X162570750Y-92964630D01*
X162570745Y-92964631D01*
X162400476Y-93024211D01*
X162247737Y-93120184D01*
X162120184Y-93247737D01*
X162024211Y-93400476D01*
X161964631Y-93570745D01*
X161964630Y-93570750D01*
X161944435Y-93749996D01*
X161944435Y-93750003D01*
X161964630Y-93929249D01*
X161964631Y-93929254D01*
X162024217Y-94099539D01*
X162027778Y-94169318D01*
X161993049Y-94229946D01*
X161948131Y-94257535D01*
X161900479Y-94274209D01*
X161747737Y-94370184D01*
X161620184Y-94497737D01*
X161524211Y-94650476D01*
X161464631Y-94820745D01*
X161464630Y-94820750D01*
X161444435Y-94999996D01*
X149257955Y-94999996D01*
X149285635Y-94896692D01*
X149305468Y-94670000D01*
X149305160Y-94666484D01*
X149294090Y-94539953D01*
X149285635Y-94443308D01*
X149226739Y-94223504D01*
X149130568Y-94017266D01*
X149000047Y-93830861D01*
X149000045Y-93830858D01*
X148839141Y-93669954D01*
X148652734Y-93539432D01*
X148652728Y-93539429D01*
X148594725Y-93512382D01*
X148542285Y-93466210D01*
X148523133Y-93399017D01*
X148543348Y-93332135D01*
X148594725Y-93287618D01*
X148652734Y-93260568D01*
X148839139Y-93130047D01*
X149000047Y-92969139D01*
X149101490Y-92824262D01*
X153670172Y-92824262D01*
X153670172Y-92824269D01*
X153690367Y-93003515D01*
X153690368Y-93003520D01*
X153749948Y-93173789D01*
X153804477Y-93260570D01*
X153845921Y-93326528D01*
X153973475Y-93454082D01*
X154050153Y-93502262D01*
X154109308Y-93539432D01*
X154126215Y-93550055D01*
X154185344Y-93570745D01*
X154296482Y-93609634D01*
X154296487Y-93609635D01*
X154475733Y-93629831D01*
X154475737Y-93629831D01*
X154475741Y-93629831D01*
X154654986Y-93609635D01*
X154654989Y-93609634D01*
X154654992Y-93609634D01*
X154825259Y-93550055D01*
X154977999Y-93454082D01*
X155105553Y-93326528D01*
X155201526Y-93173788D01*
X155261105Y-93003521D01*
X155261106Y-93003515D01*
X155281302Y-92824269D01*
X155281302Y-92824263D01*
X155267743Y-92703926D01*
X155279797Y-92635104D01*
X155327146Y-92583724D01*
X155377080Y-92566822D01*
X155446555Y-92558994D01*
X155446558Y-92558993D01*
X155446561Y-92558993D01*
X155616828Y-92499414D01*
X155769568Y-92403441D01*
X155897122Y-92275887D01*
X155944809Y-92199993D01*
X172444435Y-92199993D01*
X172444435Y-92200000D01*
X172464630Y-92379246D01*
X172464633Y-92379259D01*
X172526510Y-92556091D01*
X172524366Y-92556840D01*
X172533960Y-92615158D01*
X172525612Y-92643592D01*
X172526510Y-92643906D01*
X172464633Y-92820737D01*
X172464630Y-92820750D01*
X172444435Y-92999996D01*
X172444435Y-93000003D01*
X172464630Y-93179249D01*
X172464631Y-93179254D01*
X172524211Y-93349523D01*
X172583111Y-93443261D01*
X172620184Y-93502262D01*
X172747738Y-93629816D01*
X172747762Y-93629831D01*
X172771913Y-93645006D01*
X172818204Y-93697341D01*
X172828852Y-93766395D01*
X172800477Y-93830243D01*
X172771913Y-93854994D01*
X172747737Y-93870184D01*
X172620184Y-93997737D01*
X172524211Y-94150476D01*
X172464631Y-94320745D01*
X172464630Y-94320750D01*
X172444435Y-94499996D01*
X172444435Y-94500003D01*
X172464630Y-94679249D01*
X172464631Y-94679254D01*
X172524211Y-94849523D01*
X172618760Y-94999996D01*
X172620184Y-95002262D01*
X172747738Y-95129816D01*
X172900478Y-95225789D01*
X173016992Y-95266559D01*
X173070745Y-95285368D01*
X173070750Y-95285369D01*
X173249996Y-95305565D01*
X173250000Y-95305565D01*
X173250004Y-95305565D01*
X173429249Y-95285369D01*
X173429252Y-95285368D01*
X173429255Y-95285368D01*
X173599522Y-95225789D01*
X173752262Y-95129816D01*
X173879816Y-95002262D01*
X173975789Y-94849522D01*
X174035368Y-94679255D01*
X174036808Y-94666479D01*
X174039695Y-94640850D01*
X174048465Y-94563006D01*
X174075531Y-94498595D01*
X174105708Y-94471901D01*
X174252262Y-94379816D01*
X174379816Y-94252262D01*
X174475789Y-94099522D01*
X174535368Y-93929255D01*
X174543735Y-93854994D01*
X174555565Y-93750003D01*
X174555565Y-93749996D01*
X174535369Y-93570750D01*
X174535368Y-93570745D01*
X174499369Y-93467865D01*
X174475789Y-93400478D01*
X174379816Y-93247738D01*
X174252262Y-93120184D01*
X174105713Y-93028101D01*
X174059422Y-92975766D01*
X174048465Y-92936989D01*
X174035369Y-92820750D01*
X174035368Y-92820745D01*
X173973489Y-92643905D01*
X173975635Y-92643153D01*
X173966037Y-92584854D01*
X173974391Y-92556407D01*
X173973489Y-92556092D01*
X174035366Y-92379259D01*
X174035369Y-92379246D01*
X174055565Y-92200000D01*
X174055565Y-92199993D01*
X174035369Y-92020747D01*
X174035368Y-92020742D01*
X173975788Y-91850473D01*
X173879815Y-91697734D01*
X173752262Y-91570181D01*
X173599523Y-91474208D01*
X173429254Y-91414628D01*
X173429249Y-91414627D01*
X173250004Y-91394432D01*
X173249996Y-91394432D01*
X173070750Y-91414627D01*
X173070745Y-91414628D01*
X172900476Y-91474208D01*
X172747737Y-91570181D01*
X172620184Y-91697734D01*
X172524211Y-91850473D01*
X172464631Y-92020742D01*
X172464630Y-92020747D01*
X172444435Y-92199993D01*
X155944809Y-92199993D01*
X155993095Y-92123147D01*
X156052674Y-91952880D01*
X156058259Y-91903313D01*
X156072871Y-91773628D01*
X156072871Y-91773622D01*
X156061580Y-91673412D01*
X156073634Y-91604590D01*
X156120983Y-91553210D01*
X156170918Y-91536308D01*
X156179249Y-91535369D01*
X156179252Y-91535368D01*
X156179255Y-91535368D01*
X156349522Y-91475789D01*
X156502262Y-91379816D01*
X156629816Y-91252262D01*
X156725789Y-91099522D01*
X156785368Y-90929255D01*
X156786520Y-90919035D01*
X156805565Y-90750003D01*
X156805565Y-90749996D01*
X156785369Y-90570750D01*
X156785368Y-90570745D01*
X156746617Y-90460001D01*
X156746616Y-90459998D01*
X186029532Y-90459998D01*
X186029532Y-90460001D01*
X186049364Y-90686686D01*
X186049366Y-90686697D01*
X186108258Y-90906488D01*
X186108261Y-90906497D01*
X186204431Y-91112732D01*
X186204432Y-91112734D01*
X186334954Y-91299141D01*
X186495858Y-91460045D01*
X186520454Y-91477267D01*
X186682266Y-91590568D01*
X186740275Y-91617618D01*
X186792714Y-91663791D01*
X186811866Y-91730984D01*
X186791650Y-91797865D01*
X186740275Y-91842382D01*
X186682267Y-91869431D01*
X186682265Y-91869432D01*
X186495858Y-91999954D01*
X186334954Y-92160858D01*
X186204432Y-92347265D01*
X186204431Y-92347267D01*
X186108261Y-92553502D01*
X186108258Y-92553511D01*
X186049366Y-92773302D01*
X186049364Y-92773313D01*
X186029532Y-92999998D01*
X186029532Y-93000001D01*
X186049364Y-93226686D01*
X186049366Y-93226697D01*
X186108258Y-93446488D01*
X186108261Y-93446497D01*
X186204431Y-93652732D01*
X186204432Y-93652734D01*
X186334954Y-93839141D01*
X186495858Y-94000045D01*
X186520454Y-94017267D01*
X186682266Y-94130568D01*
X186724959Y-94150476D01*
X186740275Y-94157618D01*
X186792714Y-94203791D01*
X186811866Y-94270984D01*
X186791650Y-94337865D01*
X186740275Y-94382382D01*
X186682267Y-94409431D01*
X186682265Y-94409432D01*
X186495858Y-94539954D01*
X186334954Y-94700858D01*
X186204432Y-94887265D01*
X186204431Y-94887267D01*
X186108261Y-95093502D01*
X186108258Y-95093511D01*
X186049366Y-95313302D01*
X186049364Y-95313313D01*
X186029532Y-95539998D01*
X186029532Y-95540001D01*
X186049364Y-95766686D01*
X186049366Y-95766697D01*
X186108258Y-95986488D01*
X186108261Y-95986497D01*
X186204431Y-96192732D01*
X186204432Y-96192734D01*
X186334954Y-96379141D01*
X186495858Y-96540045D01*
X186520454Y-96557267D01*
X186682266Y-96670568D01*
X186888504Y-96766739D01*
X187108308Y-96825635D01*
X187270230Y-96839801D01*
X187334998Y-96845468D01*
X187335000Y-96845468D01*
X187335002Y-96845468D01*
X187391673Y-96840509D01*
X187561692Y-96825635D01*
X187781496Y-96766739D01*
X187987734Y-96670568D01*
X188174139Y-96540047D01*
X188335047Y-96379139D01*
X188465568Y-96192734D01*
X188561739Y-95986496D01*
X188620635Y-95766692D01*
X188639041Y-95556311D01*
X188640468Y-95540001D01*
X188640468Y-95539998D01*
X188629500Y-95414635D01*
X188620635Y-95313308D01*
X188561739Y-95093504D01*
X188465568Y-94887266D01*
X188335047Y-94700861D01*
X188335045Y-94700858D01*
X188174141Y-94539954D01*
X187987734Y-94409432D01*
X187987728Y-94409429D01*
X187929725Y-94382382D01*
X187877285Y-94336210D01*
X187858133Y-94269017D01*
X187878348Y-94202135D01*
X187929725Y-94157618D01*
X187987734Y-94130568D01*
X188174139Y-94000047D01*
X188335047Y-93839139D01*
X188465568Y-93652734D01*
X188561739Y-93446496D01*
X188620635Y-93226692D01*
X188640160Y-93003520D01*
X188640468Y-93000001D01*
X188640468Y-92999998D01*
X188629500Y-92874635D01*
X188620635Y-92773308D01*
X188562517Y-92556407D01*
X188561741Y-92553511D01*
X188561738Y-92553502D01*
X188491763Y-92403441D01*
X188465568Y-92347266D01*
X188335047Y-92160861D01*
X188335045Y-92160858D01*
X188174141Y-91999954D01*
X187987734Y-91869432D01*
X187987728Y-91869429D01*
X187947081Y-91850475D01*
X187929724Y-91842381D01*
X187877285Y-91796210D01*
X187858133Y-91729017D01*
X187878348Y-91662135D01*
X187929725Y-91617618D01*
X187987734Y-91590568D01*
X188174139Y-91460047D01*
X188335047Y-91299139D01*
X188465568Y-91112734D01*
X188561739Y-90906496D01*
X188620635Y-90686692D01*
X188640468Y-90460000D01*
X188635260Y-90400478D01*
X188620635Y-90233313D01*
X188620635Y-90233308D01*
X188561739Y-90013504D01*
X188465568Y-89807266D01*
X188335047Y-89620861D01*
X188335045Y-89620858D01*
X188174143Y-89459956D01*
X188149536Y-89442726D01*
X188105912Y-89388149D01*
X188098719Y-89318650D01*
X188130241Y-89256296D01*
X188190471Y-89220882D01*
X188207404Y-89217861D01*
X188242483Y-89214091D01*
X188377331Y-89163796D01*
X188492546Y-89077546D01*
X188578796Y-88962331D01*
X188629091Y-88827483D01*
X188635500Y-88767873D01*
X188635499Y-87072128D01*
X188629091Y-87012517D01*
X188624422Y-87000000D01*
X188578797Y-86877671D01*
X188578793Y-86877664D01*
X188492547Y-86762455D01*
X188492544Y-86762452D01*
X188377335Y-86676206D01*
X188377328Y-86676202D01*
X188242482Y-86625908D01*
X188242483Y-86625908D01*
X188182883Y-86619501D01*
X188182881Y-86619500D01*
X188182873Y-86619500D01*
X188182864Y-86619500D01*
X186487129Y-86619500D01*
X186487123Y-86619501D01*
X186427516Y-86625908D01*
X186292671Y-86676202D01*
X186292664Y-86676206D01*
X186177455Y-86762452D01*
X186177452Y-86762455D01*
X186091206Y-86877664D01*
X186091202Y-86877671D01*
X186040908Y-87012517D01*
X186036775Y-87050965D01*
X186034501Y-87072123D01*
X186034500Y-87072135D01*
X186034500Y-88767870D01*
X186034501Y-88767876D01*
X186040908Y-88827483D01*
X186091202Y-88962328D01*
X186091206Y-88962335D01*
X186177452Y-89077544D01*
X186177455Y-89077547D01*
X186292664Y-89163793D01*
X186292671Y-89163797D01*
X186337618Y-89180561D01*
X186427517Y-89214091D01*
X186462596Y-89217862D01*
X186527144Y-89244599D01*
X186566993Y-89301991D01*
X186569488Y-89371816D01*
X186533836Y-89431905D01*
X186520464Y-89442725D01*
X186495858Y-89459954D01*
X186334954Y-89620858D01*
X186204432Y-89807265D01*
X186204431Y-89807267D01*
X186108261Y-90013502D01*
X186108258Y-90013511D01*
X186049366Y-90233302D01*
X186049364Y-90233313D01*
X186029532Y-90459998D01*
X156746616Y-90459998D01*
X156725789Y-90400478D01*
X156629816Y-90247738D01*
X156502262Y-90120184D01*
X156349523Y-90024211D01*
X156179254Y-89964631D01*
X156179249Y-89964630D01*
X156000004Y-89944435D01*
X155999996Y-89944435D01*
X155820750Y-89964630D01*
X155820745Y-89964631D01*
X155650476Y-90024211D01*
X155497737Y-90120184D01*
X155370184Y-90247737D01*
X155274211Y-90400476D01*
X155214631Y-90570745D01*
X155214630Y-90570750D01*
X155194435Y-90749996D01*
X155194435Y-90750004D01*
X155205725Y-90850213D01*
X155193670Y-90919035D01*
X155146321Y-90970414D01*
X155096395Y-90987316D01*
X155088055Y-90988256D01*
X155088052Y-90988256D01*
X155088051Y-90988257D01*
X155056118Y-90999431D01*
X154917784Y-91047835D01*
X154765042Y-91143810D01*
X154734927Y-91173924D01*
X154673603Y-91207407D01*
X154633365Y-91209460D01*
X154500004Y-91194435D01*
X154499996Y-91194435D01*
X154320750Y-91214630D01*
X154320745Y-91214631D01*
X154150476Y-91274211D01*
X153997737Y-91370184D01*
X153870184Y-91497737D01*
X153774211Y-91650476D01*
X153714631Y-91820745D01*
X153714630Y-91820750D01*
X153694435Y-91999996D01*
X153694435Y-92000003D01*
X153714630Y-92179249D01*
X153714632Y-92179257D01*
X153773953Y-92348787D01*
X153777514Y-92418566D01*
X153761907Y-92455709D01*
X153749947Y-92474744D01*
X153690370Y-92645003D01*
X153690367Y-92645016D01*
X153670172Y-92824262D01*
X149101490Y-92824262D01*
X149130568Y-92782734D01*
X149226739Y-92576496D01*
X149285635Y-92356692D01*
X149305468Y-92130000D01*
X149304868Y-92123147D01*
X149299801Y-92065230D01*
X149285635Y-91903308D01*
X149226739Y-91683504D01*
X149130568Y-91477266D01*
X149000047Y-91290861D01*
X149000045Y-91290858D01*
X148839141Y-91129954D01*
X148652734Y-90999432D01*
X148652732Y-90999431D01*
X148446497Y-90903261D01*
X148446488Y-90903258D01*
X148226697Y-90844366D01*
X148226693Y-90844365D01*
X148226692Y-90844365D01*
X148226691Y-90844364D01*
X148226686Y-90844364D01*
X148000002Y-90824532D01*
X147999998Y-90824532D01*
X147773313Y-90844364D01*
X147773302Y-90844366D01*
X147553511Y-90903258D01*
X147553502Y-90903261D01*
X147347267Y-90999431D01*
X147347265Y-90999432D01*
X147160858Y-91129954D01*
X146999954Y-91290858D01*
X146869432Y-91477265D01*
X146869431Y-91477267D01*
X146773261Y-91683502D01*
X146773258Y-91683511D01*
X146714366Y-91903302D01*
X146714364Y-91903313D01*
X146694532Y-92129998D01*
X141685468Y-92129998D01*
X141684868Y-92123147D01*
X141679801Y-92065230D01*
X141665635Y-91903308D01*
X141606739Y-91683504D01*
X141510568Y-91477266D01*
X141380047Y-91290861D01*
X141380045Y-91290858D01*
X141219141Y-91129954D01*
X141032734Y-90999432D01*
X141032732Y-90999431D01*
X140826497Y-90903261D01*
X140826488Y-90903258D01*
X140606697Y-90844366D01*
X140606693Y-90844365D01*
X140606692Y-90844365D01*
X140606691Y-90844364D01*
X140606686Y-90844364D01*
X140380002Y-90824532D01*
X140379998Y-90824532D01*
X140153313Y-90844364D01*
X140153302Y-90844366D01*
X139933511Y-90903258D01*
X139933502Y-90903261D01*
X139727267Y-90999431D01*
X139727265Y-90999432D01*
X139540858Y-91129954D01*
X139462181Y-91208632D01*
X139400858Y-91242117D01*
X139331166Y-91237133D01*
X139275233Y-91195261D01*
X139250816Y-91129797D01*
X139250500Y-91120951D01*
X139250500Y-82419999D01*
X148144341Y-82419999D01*
X148144341Y-82420000D01*
X148164936Y-82655403D01*
X148164938Y-82655413D01*
X148226094Y-82883655D01*
X148226096Y-82883659D01*
X148226097Y-82883663D01*
X148238188Y-82909592D01*
X148325965Y-83097830D01*
X148325967Y-83097834D01*
X148461501Y-83291395D01*
X148461506Y-83291402D01*
X148628597Y-83458493D01*
X148628603Y-83458498D01*
X148814158Y-83588425D01*
X148857783Y-83643002D01*
X148864977Y-83712500D01*
X148833454Y-83774855D01*
X148814158Y-83791575D01*
X148628597Y-83921505D01*
X148461505Y-84088597D01*
X148325965Y-84282169D01*
X148325964Y-84282171D01*
X148226098Y-84496335D01*
X148226094Y-84496344D01*
X148164938Y-84724586D01*
X148164936Y-84724596D01*
X148144341Y-84959999D01*
X148144341Y-84960000D01*
X148164936Y-85195403D01*
X148164938Y-85195413D01*
X148226094Y-85423655D01*
X148226096Y-85423659D01*
X148226097Y-85423663D01*
X148238188Y-85449592D01*
X148325965Y-85637830D01*
X148325967Y-85637834D01*
X148434281Y-85792521D01*
X148461501Y-85831396D01*
X148461506Y-85831402D01*
X148628597Y-85998493D01*
X148628603Y-85998498D01*
X148814594Y-86128730D01*
X148858219Y-86183307D01*
X148865413Y-86252805D01*
X148833890Y-86315160D01*
X148814595Y-86331880D01*
X148628922Y-86461890D01*
X148628920Y-86461891D01*
X148461891Y-86628920D01*
X148461886Y-86628926D01*
X148326400Y-86822420D01*
X148326399Y-86822422D01*
X148226570Y-87036507D01*
X148226567Y-87036513D01*
X148169364Y-87249999D01*
X148169364Y-87250000D01*
X149066988Y-87250000D01*
X149034075Y-87307007D01*
X149000000Y-87434174D01*
X149000000Y-87565826D01*
X149034075Y-87692993D01*
X149066988Y-87750000D01*
X148169364Y-87750000D01*
X148226567Y-87963486D01*
X148226570Y-87963492D01*
X148326399Y-88177578D01*
X148461894Y-88371082D01*
X148628917Y-88538105D01*
X148822421Y-88673600D01*
X149036507Y-88773429D01*
X149036516Y-88773433D01*
X149250000Y-88830634D01*
X149250000Y-87933012D01*
X149307007Y-87965925D01*
X149434174Y-88000000D01*
X149565826Y-88000000D01*
X149692993Y-87965925D01*
X149750000Y-87933012D01*
X149750000Y-88830633D01*
X149963483Y-88773433D01*
X149963492Y-88773429D01*
X150177578Y-88673600D01*
X150371082Y-88538105D01*
X150538105Y-88371082D01*
X150668425Y-88184968D01*
X150723002Y-88141344D01*
X150792501Y-88134151D01*
X150854855Y-88165673D01*
X150871575Y-88184968D01*
X151001894Y-88371082D01*
X151168917Y-88538105D01*
X151362421Y-88673600D01*
X151576507Y-88773429D01*
X151576516Y-88773433D01*
X151790000Y-88830634D01*
X151790000Y-87933012D01*
X151847007Y-87965925D01*
X151974174Y-88000000D01*
X152105826Y-88000000D01*
X152232993Y-87965925D01*
X152290000Y-87933012D01*
X152290000Y-88830633D01*
X152503483Y-88773433D01*
X152503492Y-88773429D01*
X152717578Y-88673600D01*
X152911082Y-88538105D01*
X153078105Y-88371082D01*
X153213600Y-88177578D01*
X153313429Y-87963492D01*
X153313432Y-87963486D01*
X153370636Y-87750000D01*
X152473012Y-87750000D01*
X152505925Y-87692993D01*
X152540000Y-87565826D01*
X152540000Y-87434174D01*
X152505925Y-87307007D01*
X152473012Y-87250000D01*
X153370636Y-87250000D01*
X153370635Y-87249999D01*
X153313432Y-87036513D01*
X153313429Y-87036507D01*
X153213600Y-86822422D01*
X153213599Y-86822420D01*
X153078113Y-86628926D01*
X153078108Y-86628920D01*
X152911078Y-86461890D01*
X152725405Y-86331879D01*
X152681780Y-86277302D01*
X152674588Y-86207804D01*
X152706110Y-86145449D01*
X152725406Y-86128730D01*
X152911401Y-85998495D01*
X153078495Y-85831401D01*
X153181007Y-85684999D01*
X180229342Y-85684999D01*
X180229342Y-85685000D01*
X180249937Y-85920403D01*
X180249939Y-85920413D01*
X180311095Y-86148655D01*
X180311097Y-86148659D01*
X180311098Y-86148663D01*
X180371084Y-86277302D01*
X180410966Y-86362830D01*
X180410968Y-86362834D01*
X180480329Y-86461891D01*
X180546502Y-86556396D01*
X180546507Y-86556402D01*
X180713598Y-86723493D01*
X180713604Y-86723498D01*
X180899159Y-86853425D01*
X180942784Y-86908002D01*
X180949978Y-86977500D01*
X180918455Y-87039855D01*
X180899159Y-87056575D01*
X180713598Y-87186505D01*
X180546506Y-87353597D01*
X180410966Y-87547169D01*
X180410965Y-87547171D01*
X180311099Y-87761335D01*
X180311095Y-87761344D01*
X180249939Y-87989586D01*
X180249937Y-87989596D01*
X180229342Y-88224999D01*
X180229342Y-88225000D01*
X180249937Y-88460403D01*
X180249939Y-88460413D01*
X180311095Y-88688655D01*
X180311097Y-88688659D01*
X180311098Y-88688663D01*
X180391005Y-88860023D01*
X180410966Y-88902830D01*
X180410968Y-88902834D01*
X180514413Y-89050567D01*
X180546506Y-89096401D01*
X180713600Y-89263495D01*
X180807763Y-89329429D01*
X180907166Y-89399032D01*
X180907168Y-89399033D01*
X180907171Y-89399035D01*
X181121338Y-89498903D01*
X181349593Y-89560063D01*
X181537919Y-89576539D01*
X181585000Y-89580659D01*
X181585001Y-89580659D01*
X181585002Y-89580659D01*
X181624235Y-89577226D01*
X181820409Y-89560063D01*
X182048664Y-89498903D01*
X182262831Y-89399035D01*
X182456402Y-89263495D01*
X182623496Y-89096401D01*
X182753426Y-88910842D01*
X182808003Y-88867217D01*
X182877501Y-88860023D01*
X182939856Y-88891546D01*
X182956576Y-88910842D01*
X183086501Y-89096395D01*
X183086506Y-89096401D01*
X183253600Y-89263495D01*
X183347763Y-89329429D01*
X183447166Y-89399032D01*
X183447168Y-89399033D01*
X183447171Y-89399035D01*
X183661338Y-89498903D01*
X183889593Y-89560063D01*
X184077919Y-89576539D01*
X184125000Y-89580659D01*
X184125001Y-89580659D01*
X184125002Y-89580659D01*
X184164235Y-89577226D01*
X184360409Y-89560063D01*
X184588664Y-89498903D01*
X184802831Y-89399035D01*
X184996402Y-89263495D01*
X185163496Y-89096401D01*
X185299036Y-88902830D01*
X185398904Y-88688663D01*
X185460064Y-88460408D01*
X185480660Y-88225000D01*
X185460064Y-87989592D01*
X185398904Y-87761337D01*
X185299036Y-87547171D01*
X185293426Y-87539158D01*
X185163495Y-87353597D01*
X184996403Y-87186506D01*
X184996397Y-87186501D01*
X184810843Y-87056575D01*
X184767218Y-87001998D01*
X184760024Y-86932500D01*
X184791547Y-86870145D01*
X184810843Y-86853425D01*
X184855120Y-86822422D01*
X184996402Y-86723495D01*
X185163496Y-86556401D01*
X185299036Y-86362830D01*
X185398904Y-86148663D01*
X185460064Y-85920408D01*
X185480660Y-85685000D01*
X185460064Y-85449592D01*
X185398904Y-85221337D01*
X185299036Y-85007171D01*
X185293426Y-84999158D01*
X185163495Y-84813597D01*
X184996403Y-84646506D01*
X184996397Y-84646501D01*
X184810843Y-84516575D01*
X184767218Y-84461998D01*
X184760024Y-84392500D01*
X184791547Y-84330145D01*
X184810843Y-84313425D01*
X184866922Y-84274158D01*
X184996402Y-84183495D01*
X185163496Y-84016401D01*
X185299036Y-83822830D01*
X185398904Y-83608663D01*
X185460064Y-83380408D01*
X185480660Y-83145000D01*
X185460064Y-82909592D01*
X185398904Y-82681337D01*
X185299036Y-82467171D01*
X185163496Y-82273599D01*
X185163495Y-82273597D01*
X184996403Y-82106506D01*
X184996396Y-82106501D01*
X184802835Y-81970967D01*
X184802831Y-81970965D01*
X184771457Y-81956335D01*
X184588664Y-81871097D01*
X184588660Y-81871096D01*
X184588656Y-81871094D01*
X184360414Y-81809938D01*
X184360404Y-81809936D01*
X184125002Y-81789341D01*
X184125000Y-81789341D01*
X183889597Y-81809936D01*
X183889587Y-81809938D01*
X183661345Y-81871094D01*
X183661336Y-81871098D01*
X183447172Y-81970964D01*
X183447170Y-81970965D01*
X183253601Y-82106503D01*
X183131674Y-82228430D01*
X183070351Y-82261914D01*
X183000659Y-82256930D01*
X182944726Y-82215058D01*
X182927811Y-82184081D01*
X182878798Y-82052671D01*
X182878794Y-82052664D01*
X182792548Y-81937455D01*
X182792545Y-81937452D01*
X182677336Y-81851206D01*
X182677329Y-81851202D01*
X182542483Y-81800908D01*
X182542484Y-81800908D01*
X182482884Y-81794501D01*
X182482882Y-81794500D01*
X182482874Y-81794500D01*
X182482865Y-81794500D01*
X180687130Y-81794500D01*
X180687124Y-81794501D01*
X180627517Y-81800908D01*
X180492672Y-81851202D01*
X180492665Y-81851206D01*
X180377456Y-81937452D01*
X180377453Y-81937455D01*
X180291207Y-82052664D01*
X180291203Y-82052671D01*
X180240909Y-82187517D01*
X180234502Y-82247116D01*
X180234501Y-82247135D01*
X180234501Y-84042870D01*
X180234502Y-84042876D01*
X180240909Y-84102483D01*
X180291203Y-84237328D01*
X180291207Y-84237335D01*
X180377453Y-84352544D01*
X180377456Y-84352547D01*
X180492665Y-84438793D01*
X180492672Y-84438797D01*
X180624082Y-84487810D01*
X180680016Y-84529681D01*
X180704433Y-84595145D01*
X180689581Y-84663418D01*
X180668431Y-84691673D01*
X180546504Y-84813600D01*
X180410966Y-85007169D01*
X180410965Y-85007171D01*
X180311099Y-85221335D01*
X180311095Y-85221344D01*
X180249939Y-85449586D01*
X180249937Y-85449596D01*
X180229342Y-85684999D01*
X153181007Y-85684999D01*
X153214035Y-85637830D01*
X153313903Y-85423663D01*
X153375063Y-85195408D01*
X153395659Y-84960000D01*
X153375063Y-84724592D01*
X153313903Y-84496337D01*
X153214035Y-84282171D01*
X153208424Y-84274158D01*
X153078496Y-84088600D01*
X153030313Y-84040417D01*
X152956567Y-83966671D01*
X152923084Y-83905351D01*
X152928068Y-83835659D01*
X152969939Y-83779725D01*
X153000915Y-83762810D01*
X153132331Y-83713796D01*
X153247546Y-83627546D01*
X153333796Y-83512331D01*
X153384091Y-83377483D01*
X153390500Y-83317873D01*
X153390499Y-81522128D01*
X153384091Y-81462517D01*
X153382810Y-81459083D01*
X153333797Y-81327671D01*
X153333793Y-81327664D01*
X153247547Y-81212455D01*
X153247544Y-81212452D01*
X153132335Y-81126206D01*
X153132328Y-81126202D01*
X152997482Y-81075908D01*
X152997483Y-81075908D01*
X152937883Y-81069501D01*
X152937881Y-81069500D01*
X152937873Y-81069500D01*
X152937864Y-81069500D01*
X151142129Y-81069500D01*
X151142123Y-81069501D01*
X151082516Y-81075908D01*
X150947671Y-81126202D01*
X150947664Y-81126206D01*
X150832455Y-81212452D01*
X150832452Y-81212455D01*
X150746206Y-81327664D01*
X150746203Y-81327669D01*
X150697189Y-81459083D01*
X150655317Y-81515016D01*
X150589853Y-81539433D01*
X150521580Y-81524581D01*
X150493326Y-81503430D01*
X150371402Y-81381506D01*
X150371395Y-81381501D01*
X150177834Y-81245967D01*
X150177830Y-81245965D01*
X150177828Y-81245964D01*
X149963663Y-81146097D01*
X149963659Y-81146096D01*
X149963655Y-81146094D01*
X149735413Y-81084938D01*
X149735403Y-81084936D01*
X149500001Y-81064341D01*
X149499999Y-81064341D01*
X149264596Y-81084936D01*
X149264586Y-81084938D01*
X149036344Y-81146094D01*
X149036335Y-81146098D01*
X148822171Y-81245964D01*
X148822169Y-81245965D01*
X148628597Y-81381505D01*
X148461505Y-81548597D01*
X148325965Y-81742169D01*
X148325964Y-81742171D01*
X148226098Y-81956335D01*
X148226094Y-81956344D01*
X148164938Y-82184586D01*
X148164936Y-82184596D01*
X148144341Y-82419999D01*
X139250500Y-82419999D01*
X139250500Y-79499996D01*
X154444435Y-79499996D01*
X154444435Y-79500003D01*
X154464630Y-79679249D01*
X154464631Y-79679254D01*
X154524211Y-79849523D01*
X154616607Y-79996569D01*
X154620184Y-80002262D01*
X154747738Y-80129816D01*
X154900478Y-80225789D01*
X155070745Y-80285368D01*
X155070750Y-80285369D01*
X155249996Y-80305565D01*
X155250000Y-80305565D01*
X155250004Y-80305565D01*
X155429249Y-80285369D01*
X155429252Y-80285368D01*
X155429255Y-80285368D01*
X155599522Y-80225789D01*
X155752262Y-80129816D01*
X155879816Y-80002262D01*
X155975789Y-79849522D01*
X156035368Y-79679255D01*
X156035369Y-79679249D01*
X156055565Y-79500003D01*
X156055565Y-79499996D01*
X156035369Y-79320750D01*
X156035367Y-79320742D01*
X155975788Y-79150476D01*
X155879815Y-78997737D01*
X155752262Y-78870184D01*
X155599523Y-78774211D01*
X155429254Y-78714631D01*
X155429249Y-78714630D01*
X155250004Y-78694435D01*
X155249996Y-78694435D01*
X155070750Y-78714630D01*
X155070745Y-78714631D01*
X154900476Y-78774211D01*
X154747737Y-78870184D01*
X154620184Y-78997737D01*
X154524211Y-79150476D01*
X154464633Y-79320742D01*
X154464630Y-79320750D01*
X154444435Y-79499996D01*
X139250500Y-79499996D01*
X139250500Y-76539999D01*
X181894341Y-76539999D01*
X181894341Y-76540000D01*
X181914936Y-76775403D01*
X181914938Y-76775413D01*
X181976094Y-77003655D01*
X181976096Y-77003659D01*
X181976097Y-77003663D01*
X181980000Y-77012032D01*
X182075965Y-77217830D01*
X182075967Y-77217834D01*
X182184281Y-77372521D01*
X182211501Y-77411396D01*
X182211506Y-77411402D01*
X182333430Y-77533326D01*
X182366915Y-77594649D01*
X182361931Y-77664341D01*
X182320059Y-77720274D01*
X182289083Y-77737189D01*
X182157669Y-77786203D01*
X182157664Y-77786206D01*
X182042455Y-77872452D01*
X182042452Y-77872455D01*
X181956206Y-77987664D01*
X181956202Y-77987671D01*
X181905908Y-78122517D01*
X181899501Y-78182116D01*
X181899500Y-78182135D01*
X181899500Y-79977870D01*
X181899501Y-79977876D01*
X181905908Y-80037483D01*
X181956202Y-80172328D01*
X181956206Y-80172335D01*
X182042452Y-80287544D01*
X182042455Y-80287547D01*
X182157664Y-80373793D01*
X182157671Y-80373797D01*
X182292517Y-80424091D01*
X182292516Y-80424091D01*
X182299444Y-80424835D01*
X182352127Y-80430500D01*
X184147872Y-80430499D01*
X184207483Y-80424091D01*
X184342331Y-80373796D01*
X184457546Y-80287546D01*
X184543796Y-80172331D01*
X184592810Y-80040916D01*
X184634681Y-79984984D01*
X184700145Y-79960566D01*
X184768418Y-79975417D01*
X184796673Y-79996569D01*
X184918599Y-80118495D01*
X185015384Y-80186265D01*
X185112165Y-80254032D01*
X185112167Y-80254033D01*
X185112170Y-80254035D01*
X185326337Y-80353903D01*
X185554592Y-80415063D01*
X185731034Y-80430500D01*
X185789999Y-80435659D01*
X185790000Y-80435659D01*
X185790001Y-80435659D01*
X185848966Y-80430500D01*
X186025408Y-80415063D01*
X186253663Y-80353903D01*
X186467830Y-80254035D01*
X186661401Y-80118495D01*
X186828495Y-79951401D01*
X186964035Y-79757830D01*
X187063903Y-79543663D01*
X187125063Y-79315408D01*
X187145659Y-79080000D01*
X187125063Y-78844592D01*
X187063903Y-78616337D01*
X186964035Y-78402171D01*
X186828495Y-78208599D01*
X186828494Y-78208597D01*
X186661402Y-78041506D01*
X186661396Y-78041501D01*
X186475842Y-77911575D01*
X186432217Y-77856998D01*
X186425023Y-77787500D01*
X186456546Y-77725145D01*
X186475842Y-77708425D01*
X186588054Y-77629853D01*
X186661401Y-77578495D01*
X186828495Y-77411401D01*
X186964035Y-77217830D01*
X187063903Y-77003663D01*
X187125063Y-76775408D01*
X187145659Y-76540000D01*
X187125063Y-76304592D01*
X187063903Y-76076337D01*
X186964035Y-75862171D01*
X186958425Y-75854158D01*
X186828494Y-75668597D01*
X186661402Y-75501506D01*
X186661401Y-75501505D01*
X186475405Y-75371269D01*
X186431781Y-75316692D01*
X186424588Y-75247193D01*
X186456110Y-75184839D01*
X186475405Y-75168119D01*
X186661082Y-75038105D01*
X186828105Y-74871082D01*
X186963600Y-74677578D01*
X187063429Y-74463492D01*
X187063432Y-74463486D01*
X187120636Y-74250000D01*
X186223012Y-74250000D01*
X186255925Y-74192993D01*
X186290000Y-74065826D01*
X186290000Y-73934174D01*
X186255925Y-73807007D01*
X186223012Y-73750000D01*
X187120636Y-73750000D01*
X187120635Y-73749999D01*
X187063432Y-73536513D01*
X187063429Y-73536507D01*
X186963600Y-73322422D01*
X186963599Y-73322420D01*
X186828113Y-73128926D01*
X186828108Y-73128920D01*
X186661082Y-72961894D01*
X186467578Y-72826399D01*
X186253492Y-72726570D01*
X186253486Y-72726567D01*
X186040000Y-72669364D01*
X186040000Y-73566988D01*
X185982993Y-73534075D01*
X185855826Y-73500000D01*
X185724174Y-73500000D01*
X185597007Y-73534075D01*
X185540000Y-73566988D01*
X185540000Y-72669364D01*
X185539999Y-72669364D01*
X185326513Y-72726567D01*
X185326507Y-72726570D01*
X185112422Y-72826399D01*
X185112420Y-72826400D01*
X184918926Y-72961886D01*
X184918920Y-72961891D01*
X184751891Y-73128920D01*
X184751890Y-73128922D01*
X184621575Y-73315031D01*
X184566998Y-73358655D01*
X184497499Y-73365848D01*
X184435145Y-73334326D01*
X184418425Y-73315031D01*
X184288109Y-73128922D01*
X184288108Y-73128920D01*
X184121082Y-72961894D01*
X183927578Y-72826399D01*
X183713492Y-72726570D01*
X183713486Y-72726567D01*
X183500000Y-72669364D01*
X183500000Y-73566988D01*
X183442993Y-73534075D01*
X183315826Y-73500000D01*
X183184174Y-73500000D01*
X183057007Y-73534075D01*
X183000000Y-73566988D01*
X183000000Y-72669364D01*
X182999999Y-72669364D01*
X182786513Y-72726567D01*
X182786507Y-72726570D01*
X182572422Y-72826399D01*
X182572420Y-72826400D01*
X182378926Y-72961886D01*
X182378920Y-72961891D01*
X182211891Y-73128920D01*
X182211886Y-73128926D01*
X182076400Y-73322420D01*
X182076399Y-73322422D01*
X181976570Y-73536507D01*
X181976567Y-73536513D01*
X181919364Y-73749999D01*
X181919364Y-73750000D01*
X182816988Y-73750000D01*
X182784075Y-73807007D01*
X182750000Y-73934174D01*
X182750000Y-74065826D01*
X182784075Y-74192993D01*
X182816988Y-74250000D01*
X181919364Y-74250000D01*
X181976567Y-74463486D01*
X181976570Y-74463492D01*
X182076399Y-74677578D01*
X182211894Y-74871082D01*
X182378917Y-75038105D01*
X182564595Y-75168119D01*
X182608219Y-75222696D01*
X182615412Y-75292195D01*
X182583890Y-75354549D01*
X182564595Y-75371269D01*
X182378594Y-75501508D01*
X182211505Y-75668597D01*
X182075965Y-75862169D01*
X182075964Y-75862171D01*
X181976098Y-76076335D01*
X181976094Y-76076344D01*
X181914938Y-76304586D01*
X181914936Y-76304596D01*
X181894341Y-76539999D01*
X139250500Y-76539999D01*
X139250500Y-68974999D01*
X148254364Y-68974999D01*
X148254364Y-68975000D01*
X149151988Y-68975000D01*
X149119075Y-69032007D01*
X149085000Y-69159174D01*
X149085000Y-69290826D01*
X149119075Y-69417993D01*
X149151988Y-69475000D01*
X148254364Y-69475000D01*
X148311567Y-69688486D01*
X148311570Y-69688492D01*
X148411399Y-69902578D01*
X148546894Y-70096082D01*
X148713917Y-70263105D01*
X148900031Y-70393425D01*
X148943656Y-70448003D01*
X148950848Y-70517501D01*
X148919326Y-70579856D01*
X148900031Y-70596575D01*
X148713922Y-70726890D01*
X148713920Y-70726891D01*
X148546891Y-70893920D01*
X148546886Y-70893926D01*
X148411400Y-71087420D01*
X148411399Y-71087422D01*
X148311570Y-71301507D01*
X148311567Y-71301513D01*
X148254364Y-71514999D01*
X148254364Y-71515000D01*
X149151988Y-71515000D01*
X149119075Y-71572007D01*
X149085000Y-71699174D01*
X149085000Y-71830826D01*
X149119075Y-71957993D01*
X149151988Y-72015000D01*
X148254364Y-72015000D01*
X148311567Y-72228486D01*
X148311570Y-72228492D01*
X148411399Y-72442578D01*
X148546894Y-72636082D01*
X148713917Y-72803105D01*
X148900031Y-72933425D01*
X148943656Y-72988003D01*
X148950848Y-73057501D01*
X148919326Y-73119856D01*
X148900031Y-73136575D01*
X148713922Y-73266890D01*
X148713920Y-73266891D01*
X148546891Y-73433920D01*
X148546886Y-73433926D01*
X148411400Y-73627420D01*
X148411399Y-73627422D01*
X148311570Y-73841507D01*
X148311567Y-73841513D01*
X148254364Y-74054999D01*
X148254364Y-74055000D01*
X149151988Y-74055000D01*
X149119075Y-74112007D01*
X149085000Y-74239174D01*
X149085000Y-74370826D01*
X149119075Y-74497993D01*
X149151988Y-74555000D01*
X148254364Y-74555000D01*
X148311567Y-74768486D01*
X148311570Y-74768492D01*
X148411399Y-74982578D01*
X148546894Y-75176082D01*
X148713917Y-75343105D01*
X148907421Y-75478600D01*
X149121507Y-75578429D01*
X149121516Y-75578433D01*
X149335000Y-75635634D01*
X149335000Y-74738012D01*
X149392007Y-74770925D01*
X149519174Y-74805000D01*
X149650826Y-74805000D01*
X149777993Y-74770925D01*
X149835000Y-74738012D01*
X149835000Y-75635633D01*
X150048483Y-75578433D01*
X150048492Y-75578429D01*
X150262578Y-75478600D01*
X150456082Y-75343105D01*
X150623105Y-75176082D01*
X150753119Y-74990405D01*
X150807696Y-74946781D01*
X150877195Y-74939588D01*
X150939549Y-74971110D01*
X150956269Y-74990405D01*
X151086505Y-75176401D01*
X151253599Y-75343495D01*
X151350384Y-75411265D01*
X151447165Y-75479032D01*
X151447167Y-75479033D01*
X151447170Y-75479035D01*
X151661337Y-75578903D01*
X151889592Y-75640063D01*
X152077918Y-75656539D01*
X152124999Y-75660659D01*
X152125000Y-75660659D01*
X152125001Y-75660659D01*
X152164234Y-75657226D01*
X152360408Y-75640063D01*
X152588663Y-75578903D01*
X152802830Y-75479035D01*
X152996401Y-75343495D01*
X153163495Y-75176401D01*
X153299035Y-74982830D01*
X153398903Y-74768663D01*
X153460063Y-74540408D01*
X153480659Y-74305000D01*
X153460063Y-74069592D01*
X153398903Y-73841337D01*
X153299035Y-73627171D01*
X153293731Y-73619595D01*
X153163494Y-73433597D01*
X152996402Y-73266506D01*
X152996396Y-73266501D01*
X152810842Y-73136575D01*
X152767217Y-73081998D01*
X152760023Y-73012500D01*
X152791546Y-72950145D01*
X152810842Y-72933425D01*
X152963689Y-72826400D01*
X152996401Y-72803495D01*
X153163495Y-72636401D01*
X153299035Y-72442830D01*
X153398903Y-72228663D01*
X153460063Y-72000408D01*
X153480659Y-71765000D01*
X153460063Y-71529592D01*
X153398903Y-71301337D01*
X153299035Y-71087171D01*
X153293730Y-71079595D01*
X153163496Y-70893600D01*
X153163494Y-70893598D01*
X153041567Y-70771671D01*
X153029732Y-70749996D01*
X178484435Y-70749996D01*
X178484435Y-70750003D01*
X178504630Y-70929249D01*
X178504631Y-70929254D01*
X178564211Y-71099523D01*
X178583620Y-71130412D01*
X178660184Y-71252262D01*
X178787738Y-71379816D01*
X178940478Y-71475789D01*
X179052534Y-71514999D01*
X179110745Y-71535368D01*
X179110750Y-71535369D01*
X179289996Y-71555565D01*
X179290000Y-71555565D01*
X179290004Y-71555565D01*
X179469249Y-71535369D01*
X179469252Y-71535368D01*
X179469255Y-71535368D01*
X179639522Y-71475789D01*
X179792262Y-71379816D01*
X179919816Y-71252262D01*
X180015789Y-71099522D01*
X180075368Y-70929255D01*
X180079349Y-70893926D01*
X180095565Y-70750003D01*
X180095565Y-70749997D01*
X180082869Y-70637319D01*
X180094923Y-70568497D01*
X180142272Y-70517117D01*
X180184050Y-70502979D01*
X180183815Y-70501945D01*
X180190600Y-70500396D01*
X180190602Y-70500396D01*
X180360869Y-70440817D01*
X180513609Y-70344844D01*
X180534672Y-70323779D01*
X180595991Y-70290295D01*
X180636235Y-70288240D01*
X180713852Y-70296985D01*
X180789997Y-70305565D01*
X180790000Y-70305565D01*
X180790004Y-70305565D01*
X180969249Y-70285369D01*
X180969252Y-70285368D01*
X180969255Y-70285368D01*
X181139522Y-70225789D01*
X181292262Y-70129816D01*
X181419816Y-70002262D01*
X181515789Y-69849522D01*
X181575368Y-69679255D01*
X181584671Y-69596692D01*
X181595565Y-69500003D01*
X181595565Y-69499996D01*
X181575369Y-69320750D01*
X181575366Y-69320737D01*
X181516047Y-69151213D01*
X181512485Y-69081434D01*
X181528096Y-69044283D01*
X181540052Y-69025256D01*
X181599631Y-68854989D01*
X181599632Y-68854983D01*
X181619828Y-68675737D01*
X181619828Y-68675730D01*
X181599632Y-68496484D01*
X181599631Y-68496479D01*
X181555358Y-68369954D01*
X181540052Y-68326212D01*
X181444079Y-68173472D01*
X181316525Y-68045918D01*
X181294590Y-68032135D01*
X181163786Y-67949945D01*
X180993517Y-67890365D01*
X180993512Y-67890364D01*
X180814267Y-67870169D01*
X180814259Y-67870169D01*
X180635013Y-67890364D01*
X180635008Y-67890365D01*
X180464739Y-67949945D01*
X180312000Y-68045918D01*
X180184447Y-68173471D01*
X180088474Y-68326210D01*
X180028894Y-68496479D01*
X180028893Y-68496484D01*
X180008698Y-68675730D01*
X180008698Y-68675738D01*
X180020851Y-68783607D01*
X180008796Y-68852429D01*
X179961447Y-68903808D01*
X179911515Y-68920710D01*
X179832096Y-68929658D01*
X179832092Y-68929659D01*
X179661823Y-68989239D01*
X179509084Y-69085212D01*
X179381531Y-69212765D01*
X179285558Y-69365504D01*
X179225978Y-69535773D01*
X179225977Y-69535778D01*
X179205782Y-69715024D01*
X179205782Y-69715031D01*
X179218477Y-69827708D01*
X179206422Y-69896530D01*
X179159073Y-69947909D01*
X179117306Y-69962051D01*
X179117541Y-69963080D01*
X179110753Y-69964629D01*
X178940478Y-70024210D01*
X178787737Y-70120184D01*
X178660184Y-70247737D01*
X178564211Y-70400476D01*
X178504631Y-70570745D01*
X178504630Y-70570750D01*
X178484435Y-70749996D01*
X153029732Y-70749996D01*
X153008084Y-70710351D01*
X153013068Y-70640659D01*
X153054939Y-70584725D01*
X153085915Y-70567810D01*
X153217331Y-70518796D01*
X153332546Y-70432546D01*
X153418796Y-70317331D01*
X153469091Y-70182483D01*
X153475500Y-70122873D01*
X153475499Y-68327128D01*
X153469091Y-68267517D01*
X153468002Y-68264598D01*
X153418797Y-68132671D01*
X153418793Y-68132664D01*
X153332547Y-68017455D01*
X153332544Y-68017452D01*
X153217335Y-67931206D01*
X153217328Y-67931202D01*
X153082482Y-67880908D01*
X153082483Y-67880908D01*
X153022883Y-67874501D01*
X153022881Y-67874500D01*
X153022873Y-67874500D01*
X153022864Y-67874500D01*
X151227129Y-67874500D01*
X151227123Y-67874501D01*
X151167516Y-67880908D01*
X151032671Y-67931202D01*
X151032664Y-67931206D01*
X150917455Y-68017452D01*
X150917452Y-68017455D01*
X150831206Y-68132664D01*
X150831202Y-68132671D01*
X150781997Y-68264598D01*
X150740126Y-68320532D01*
X150674661Y-68344949D01*
X150606388Y-68330097D01*
X150578134Y-68308946D01*
X150456082Y-68186894D01*
X150262578Y-68051399D01*
X150048492Y-67951570D01*
X150048486Y-67951567D01*
X149835000Y-67894364D01*
X149835000Y-68791988D01*
X149777993Y-68759075D01*
X149650826Y-68725000D01*
X149519174Y-68725000D01*
X149392007Y-68759075D01*
X149335000Y-68791988D01*
X149335000Y-67894364D01*
X149334999Y-67894364D01*
X149121513Y-67951567D01*
X149121507Y-67951570D01*
X148907422Y-68051399D01*
X148907420Y-68051400D01*
X148713926Y-68186886D01*
X148713920Y-68186891D01*
X148546891Y-68353920D01*
X148546886Y-68353926D01*
X148411400Y-68547420D01*
X148411399Y-68547422D01*
X148311570Y-68761507D01*
X148311567Y-68761513D01*
X148254364Y-68974999D01*
X139250500Y-68974999D01*
X139250500Y-65499996D01*
X172444435Y-65499996D01*
X172444435Y-65500003D01*
X172464630Y-65679249D01*
X172464631Y-65679254D01*
X172524211Y-65849523D01*
X172620184Y-66002262D01*
X172717610Y-66099688D01*
X172751095Y-66161011D01*
X172746971Y-66228323D01*
X172714632Y-66320742D01*
X172714630Y-66320750D01*
X172694435Y-66499996D01*
X172694435Y-66500003D01*
X172714630Y-66679249D01*
X172714633Y-66679262D01*
X172774209Y-66849520D01*
X172827309Y-66934029D01*
X172846309Y-67001266D01*
X172827309Y-67065971D01*
X172774209Y-67150479D01*
X172714633Y-67320737D01*
X172714630Y-67320750D01*
X172694435Y-67499996D01*
X172694435Y-67500003D01*
X172714630Y-67679249D01*
X172714633Y-67679262D01*
X172746970Y-67771674D01*
X172750532Y-67841453D01*
X172717611Y-67900309D01*
X172620185Y-67997736D01*
X172620184Y-67997737D01*
X172524211Y-68150476D01*
X172464631Y-68320745D01*
X172464630Y-68320750D01*
X172444435Y-68499996D01*
X172444435Y-68500003D01*
X172464630Y-68679249D01*
X172464631Y-68679254D01*
X172524211Y-68849523D01*
X172603054Y-68975000D01*
X172620184Y-69002262D01*
X172747738Y-69129816D01*
X172900478Y-69225789D01*
X173070745Y-69285368D01*
X173070750Y-69285369D01*
X173249996Y-69305565D01*
X173250000Y-69305565D01*
X173250004Y-69305565D01*
X173429249Y-69285369D01*
X173429252Y-69285368D01*
X173429255Y-69285368D01*
X173599522Y-69225789D01*
X173752262Y-69129816D01*
X173879816Y-69002262D01*
X173975789Y-68849522D01*
X174035368Y-68679255D01*
X174035369Y-68679249D01*
X174055565Y-68500003D01*
X174055565Y-68499996D01*
X174035369Y-68320750D01*
X174035367Y-68320740D01*
X174003029Y-68228326D01*
X173999466Y-68158547D01*
X174032389Y-68099689D01*
X174080679Y-68051399D01*
X174129816Y-68002262D01*
X174225789Y-67849522D01*
X174285368Y-67679255D01*
X174296819Y-67577625D01*
X174305565Y-67500003D01*
X174305565Y-67499996D01*
X174285369Y-67320750D01*
X174285368Y-67320745D01*
X174225788Y-67150475D01*
X174172691Y-67065973D01*
X174153690Y-66998736D01*
X174172691Y-66934027D01*
X174225788Y-66849524D01*
X174225789Y-66849522D01*
X174285368Y-66679255D01*
X174305565Y-66500000D01*
X174292439Y-66383504D01*
X174285369Y-66320750D01*
X174285368Y-66320745D01*
X174244906Y-66205112D01*
X174225789Y-66150478D01*
X174223974Y-66147590D01*
X174182996Y-66082374D01*
X174129816Y-65997738D01*
X174032389Y-65900311D01*
X173998904Y-65838988D01*
X174003029Y-65771674D01*
X174035367Y-65679259D01*
X174035369Y-65679249D01*
X174055565Y-65500003D01*
X174055565Y-65499996D01*
X174035369Y-65320750D01*
X174035368Y-65320745D01*
X173975788Y-65150476D01*
X173936582Y-65088080D01*
X173879816Y-64997738D01*
X173752262Y-64870184D01*
X173599523Y-64774211D01*
X173429254Y-64714631D01*
X173429249Y-64714630D01*
X173250004Y-64694435D01*
X173249996Y-64694435D01*
X173070750Y-64714630D01*
X173070745Y-64714631D01*
X172900476Y-64774211D01*
X172747737Y-64870184D01*
X172620184Y-64997737D01*
X172524211Y-65150476D01*
X172464631Y-65320745D01*
X172464630Y-65320750D01*
X172444435Y-65499996D01*
X139250500Y-65499996D01*
X139250500Y-64289998D01*
X185984532Y-64289998D01*
X185984532Y-64290001D01*
X186004364Y-64516686D01*
X186004366Y-64516697D01*
X186063258Y-64736488D01*
X186063261Y-64736497D01*
X186159431Y-64942732D01*
X186159432Y-64942734D01*
X186289954Y-65129141D01*
X186450858Y-65290045D01*
X186450861Y-65290047D01*
X186637266Y-65420568D01*
X186695275Y-65447618D01*
X186747714Y-65493791D01*
X186766866Y-65560984D01*
X186746650Y-65627865D01*
X186695275Y-65672382D01*
X186637267Y-65699431D01*
X186637265Y-65699432D01*
X186450858Y-65829954D01*
X186289954Y-65990858D01*
X186159432Y-66177265D01*
X186159431Y-66177267D01*
X186063261Y-66383502D01*
X186063258Y-66383511D01*
X186004366Y-66603302D01*
X186004364Y-66603313D01*
X185984532Y-66829998D01*
X185984532Y-66830001D01*
X186004364Y-67056686D01*
X186004366Y-67056697D01*
X186063258Y-67276488D01*
X186063261Y-67276497D01*
X186159431Y-67482732D01*
X186159432Y-67482734D01*
X186289954Y-67669141D01*
X186450858Y-67830045D01*
X186497693Y-67862839D01*
X186637266Y-67960568D01*
X186695275Y-67987618D01*
X186747714Y-68033791D01*
X186766866Y-68100984D01*
X186746650Y-68167865D01*
X186695275Y-68212382D01*
X186637267Y-68239431D01*
X186637265Y-68239432D01*
X186450858Y-68369954D01*
X186289954Y-68530858D01*
X186159432Y-68717265D01*
X186159431Y-68717267D01*
X186063261Y-68923502D01*
X186063258Y-68923511D01*
X186004366Y-69143302D01*
X186004364Y-69143313D01*
X185984532Y-69369998D01*
X185984532Y-69370001D01*
X186004364Y-69596686D01*
X186004366Y-69596697D01*
X186063258Y-69816488D01*
X186063261Y-69816497D01*
X186159431Y-70022732D01*
X186159432Y-70022734D01*
X186289954Y-70209141D01*
X186450858Y-70370045D01*
X186450861Y-70370047D01*
X186637266Y-70500568D01*
X186843504Y-70596739D01*
X187063308Y-70655635D01*
X187225230Y-70669801D01*
X187289998Y-70675468D01*
X187290000Y-70675468D01*
X187290002Y-70675468D01*
X187346673Y-70670509D01*
X187516692Y-70655635D01*
X187736496Y-70596739D01*
X187942734Y-70500568D01*
X188129139Y-70370047D01*
X188290047Y-70209139D01*
X188420568Y-70022734D01*
X188516739Y-69816496D01*
X188575635Y-69596692D01*
X188595468Y-69370000D01*
X188575635Y-69143308D01*
X188530537Y-68974999D01*
X188516741Y-68923511D01*
X188516738Y-68923502D01*
X188512194Y-68913757D01*
X188420568Y-68717266D01*
X188290047Y-68530861D01*
X188290045Y-68530858D01*
X188129141Y-68369954D01*
X187942734Y-68239432D01*
X187942728Y-68239429D01*
X187884725Y-68212382D01*
X187832285Y-68166210D01*
X187813133Y-68099017D01*
X187833348Y-68032135D01*
X187884725Y-67987618D01*
X187942734Y-67960568D01*
X188129139Y-67830047D01*
X188290047Y-67669139D01*
X188420568Y-67482734D01*
X188516739Y-67276496D01*
X188575635Y-67056692D01*
X188595468Y-66830000D01*
X188575635Y-66603308D01*
X188516739Y-66383504D01*
X188420568Y-66177266D01*
X188290047Y-65990861D01*
X188290045Y-65990858D01*
X188129141Y-65829954D01*
X187942734Y-65699432D01*
X187942728Y-65699429D01*
X187899473Y-65679259D01*
X187884724Y-65672381D01*
X187832285Y-65626210D01*
X187813133Y-65559017D01*
X187833348Y-65492135D01*
X187884725Y-65447618D01*
X187942734Y-65420568D01*
X188129139Y-65290047D01*
X188290047Y-65129139D01*
X188420568Y-64942734D01*
X188516739Y-64736496D01*
X188575635Y-64516692D01*
X188595468Y-64290000D01*
X188575635Y-64063308D01*
X188516739Y-63843504D01*
X188420568Y-63637266D01*
X188290047Y-63450861D01*
X188290045Y-63450858D01*
X188129143Y-63289956D01*
X188104536Y-63272726D01*
X188060912Y-63218149D01*
X188053719Y-63148650D01*
X188085241Y-63086296D01*
X188145471Y-63050882D01*
X188162404Y-63047861D01*
X188197483Y-63044091D01*
X188332331Y-62993796D01*
X188447546Y-62907546D01*
X188533796Y-62792331D01*
X188584091Y-62657483D01*
X188590500Y-62597873D01*
X188590499Y-60902128D01*
X188584091Y-60842517D01*
X188549567Y-60749954D01*
X188533797Y-60707671D01*
X188533793Y-60707664D01*
X188447547Y-60592455D01*
X188447544Y-60592452D01*
X188332335Y-60506206D01*
X188332328Y-60506202D01*
X188197482Y-60455908D01*
X188197483Y-60455908D01*
X188137883Y-60449501D01*
X188137881Y-60449500D01*
X188137873Y-60449500D01*
X188137864Y-60449500D01*
X186442129Y-60449500D01*
X186442123Y-60449501D01*
X186382516Y-60455908D01*
X186247671Y-60506202D01*
X186247664Y-60506206D01*
X186132455Y-60592452D01*
X186132452Y-60592455D01*
X186046206Y-60707664D01*
X186046202Y-60707671D01*
X185995908Y-60842517D01*
X185991775Y-60880965D01*
X185989501Y-60902123D01*
X185989500Y-60902135D01*
X185989500Y-62597870D01*
X185989501Y-62597876D01*
X185995908Y-62657483D01*
X186046202Y-62792328D01*
X186046206Y-62792335D01*
X186132452Y-62907544D01*
X186132455Y-62907547D01*
X186247664Y-62993793D01*
X186247671Y-62993797D01*
X186292618Y-63010561D01*
X186382517Y-63044091D01*
X186417596Y-63047862D01*
X186482144Y-63074599D01*
X186521993Y-63131991D01*
X186524488Y-63201816D01*
X186488836Y-63261905D01*
X186475464Y-63272725D01*
X186450858Y-63289954D01*
X186289954Y-63450858D01*
X186159432Y-63637265D01*
X186159431Y-63637267D01*
X186063261Y-63843502D01*
X186063258Y-63843511D01*
X186004366Y-64063302D01*
X186004364Y-64063313D01*
X185984532Y-64289998D01*
X139250500Y-64289998D01*
X139250500Y-59514999D01*
X180184342Y-59514999D01*
X180184342Y-59515000D01*
X180204937Y-59750403D01*
X180204939Y-59750413D01*
X180266095Y-59978655D01*
X180266097Y-59978659D01*
X180266098Y-59978663D01*
X180270001Y-59987032D01*
X180365966Y-60192830D01*
X180365968Y-60192834D01*
X180474282Y-60347521D01*
X180501502Y-60386396D01*
X180501507Y-60386402D01*
X180668598Y-60553493D01*
X180668604Y-60553498D01*
X180854159Y-60683425D01*
X180897784Y-60738002D01*
X180904978Y-60807500D01*
X180873455Y-60869855D01*
X180854159Y-60886575D01*
X180668598Y-61016505D01*
X180501506Y-61183597D01*
X180365966Y-61377169D01*
X180365965Y-61377171D01*
X180266099Y-61591335D01*
X180266095Y-61591344D01*
X180204939Y-61819586D01*
X180204937Y-61819596D01*
X180184342Y-62054999D01*
X180184342Y-62055000D01*
X180204937Y-62290403D01*
X180204939Y-62290413D01*
X180266095Y-62518655D01*
X180266097Y-62518659D01*
X180266098Y-62518663D01*
X180303036Y-62597876D01*
X180365966Y-62732830D01*
X180365968Y-62732834D01*
X180469413Y-62880567D01*
X180501506Y-62926401D01*
X180668600Y-63093495D01*
X180762763Y-63159429D01*
X180862166Y-63229032D01*
X180862168Y-63229033D01*
X180862171Y-63229035D01*
X181076338Y-63328903D01*
X181304593Y-63390063D01*
X181492919Y-63406539D01*
X181540000Y-63410659D01*
X181540001Y-63410659D01*
X181540002Y-63410659D01*
X181579235Y-63407226D01*
X181775409Y-63390063D01*
X182003664Y-63328903D01*
X182217831Y-63229035D01*
X182411402Y-63093495D01*
X182578496Y-62926401D01*
X182708426Y-62740842D01*
X182763003Y-62697217D01*
X182832501Y-62690023D01*
X182894856Y-62721546D01*
X182911576Y-62740842D01*
X183041501Y-62926395D01*
X183041506Y-62926401D01*
X183208600Y-63093495D01*
X183302763Y-63159429D01*
X183402166Y-63229032D01*
X183402168Y-63229033D01*
X183402171Y-63229035D01*
X183616338Y-63328903D01*
X183844593Y-63390063D01*
X184032919Y-63406539D01*
X184080000Y-63410659D01*
X184080001Y-63410659D01*
X184080002Y-63410659D01*
X184119235Y-63407226D01*
X184315409Y-63390063D01*
X184543664Y-63328903D01*
X184757831Y-63229035D01*
X184951402Y-63093495D01*
X185118496Y-62926401D01*
X185254036Y-62732830D01*
X185353904Y-62518663D01*
X185415064Y-62290408D01*
X185435660Y-62055000D01*
X185415064Y-61819592D01*
X185353904Y-61591337D01*
X185254036Y-61377171D01*
X185248426Y-61369158D01*
X185118495Y-61183597D01*
X184951403Y-61016506D01*
X184951397Y-61016501D01*
X184765843Y-60886575D01*
X184722218Y-60831998D01*
X184715024Y-60762500D01*
X184746547Y-60700145D01*
X184765843Y-60683425D01*
X184857234Y-60619432D01*
X184951402Y-60553495D01*
X185118496Y-60386401D01*
X185254036Y-60192830D01*
X185353904Y-59978663D01*
X185415064Y-59750408D01*
X185435660Y-59515000D01*
X185415064Y-59279592D01*
X185353904Y-59051337D01*
X185254036Y-58837171D01*
X185248426Y-58829158D01*
X185118495Y-58643597D01*
X184951403Y-58476506D01*
X184951397Y-58476501D01*
X184765843Y-58346575D01*
X184722218Y-58291998D01*
X184715024Y-58222500D01*
X184746547Y-58160145D01*
X184765843Y-58143425D01*
X184788027Y-58127891D01*
X184951402Y-58013495D01*
X185118496Y-57846401D01*
X185254036Y-57652830D01*
X185353904Y-57438663D01*
X185415064Y-57210408D01*
X185435660Y-56975000D01*
X185415064Y-56739592D01*
X185353904Y-56511337D01*
X185254036Y-56297171D01*
X185118496Y-56103599D01*
X185118495Y-56103597D01*
X184951403Y-55936506D01*
X184951396Y-55936501D01*
X184757835Y-55800967D01*
X184757831Y-55800965D01*
X184757829Y-55800964D01*
X184543664Y-55701097D01*
X184543660Y-55701096D01*
X184543656Y-55701094D01*
X184315414Y-55639938D01*
X184315404Y-55639936D01*
X184080002Y-55619341D01*
X184080000Y-55619341D01*
X183844597Y-55639936D01*
X183844587Y-55639938D01*
X183616345Y-55701094D01*
X183616336Y-55701098D01*
X183402172Y-55800964D01*
X183402170Y-55800965D01*
X183208601Y-55936503D01*
X183086674Y-56058430D01*
X183025351Y-56091914D01*
X182955659Y-56086930D01*
X182899726Y-56045058D01*
X182882811Y-56014081D01*
X182833798Y-55882671D01*
X182833794Y-55882664D01*
X182747548Y-55767455D01*
X182747545Y-55767452D01*
X182632336Y-55681206D01*
X182632329Y-55681202D01*
X182497483Y-55630908D01*
X182497484Y-55630908D01*
X182437884Y-55624501D01*
X182437882Y-55624500D01*
X182437874Y-55624500D01*
X182437865Y-55624500D01*
X180642130Y-55624500D01*
X180642124Y-55624501D01*
X180582517Y-55630908D01*
X180447672Y-55681202D01*
X180447665Y-55681206D01*
X180332456Y-55767452D01*
X180332453Y-55767455D01*
X180246207Y-55882664D01*
X180246203Y-55882671D01*
X180195909Y-56017517D01*
X180189502Y-56077116D01*
X180189501Y-56077135D01*
X180189501Y-57872870D01*
X180189502Y-57872876D01*
X180195909Y-57932483D01*
X180246203Y-58067328D01*
X180246207Y-58067335D01*
X180332453Y-58182544D01*
X180332456Y-58182547D01*
X180447665Y-58268793D01*
X180447672Y-58268797D01*
X180579082Y-58317810D01*
X180635016Y-58359681D01*
X180659433Y-58425145D01*
X180644581Y-58493418D01*
X180623431Y-58521673D01*
X180501504Y-58643600D01*
X180365966Y-58837169D01*
X180365965Y-58837171D01*
X180266099Y-59051335D01*
X180266095Y-59051344D01*
X180204939Y-59279586D01*
X180204937Y-59279596D01*
X180184342Y-59514999D01*
X139250500Y-59514999D01*
X139250500Y-55378711D01*
X191149500Y-55378711D01*
X191149500Y-55621288D01*
X191173154Y-55800967D01*
X191181162Y-55861789D01*
X191186757Y-55882669D01*
X191243947Y-56096104D01*
X191247051Y-56103597D01*
X191336776Y-56320212D01*
X191458064Y-56530289D01*
X191458066Y-56530292D01*
X191458067Y-56530293D01*
X191605733Y-56722736D01*
X191605739Y-56722743D01*
X191777256Y-56894260D01*
X191777262Y-56894265D01*
X191969711Y-57041936D01*
X192179788Y-57163224D01*
X192403900Y-57256054D01*
X192638211Y-57318838D01*
X192818586Y-57342584D01*
X192878711Y-57350500D01*
X192878712Y-57350500D01*
X193121289Y-57350500D01*
X193169388Y-57344167D01*
X193361789Y-57318838D01*
X193596100Y-57256054D01*
X193820212Y-57163224D01*
X194030289Y-57041936D01*
X194222738Y-56894265D01*
X194394265Y-56722738D01*
X194541936Y-56530289D01*
X194663224Y-56320212D01*
X194756054Y-56096100D01*
X194818838Y-55861789D01*
X194850500Y-55621288D01*
X194850500Y-55378712D01*
X194818838Y-55138211D01*
X194756054Y-54903900D01*
X194663224Y-54679788D01*
X194541936Y-54469711D01*
X194394265Y-54277262D01*
X194394260Y-54277256D01*
X194222743Y-54105739D01*
X194222736Y-54105733D01*
X194030293Y-53958067D01*
X194030292Y-53958066D01*
X194030289Y-53958064D01*
X193820212Y-53836776D01*
X193812366Y-53833526D01*
X193596104Y-53743947D01*
X193361785Y-53681161D01*
X193121289Y-53649500D01*
X193121288Y-53649500D01*
X192878712Y-53649500D01*
X192878711Y-53649500D01*
X192638214Y-53681161D01*
X192403895Y-53743947D01*
X192179794Y-53836773D01*
X192179785Y-53836777D01*
X191969706Y-53958067D01*
X191777263Y-54105733D01*
X191777256Y-54105739D01*
X191605739Y-54277256D01*
X191605733Y-54277263D01*
X191458067Y-54469706D01*
X191336777Y-54679785D01*
X191336773Y-54679794D01*
X191243947Y-54903895D01*
X191181161Y-55138214D01*
X191149500Y-55378711D01*
X139250500Y-55378711D01*
X139250500Y-55003480D01*
X139250695Y-54996528D01*
X139255897Y-54903895D01*
X139267398Y-54699097D01*
X139268952Y-54685298D01*
X139318269Y-54395041D01*
X139321363Y-54381489D01*
X139351391Y-54277262D01*
X139402867Y-54098582D01*
X139407459Y-54085462D01*
X139510467Y-53836777D01*
X139520123Y-53813463D01*
X139526145Y-53800957D01*
X139668566Y-53543267D01*
X139675961Y-53531499D01*
X139682503Y-53522279D01*
X139846330Y-53291385D01*
X139854985Y-53280531D01*
X140051179Y-53060991D01*
X140060991Y-53051179D01*
X140280531Y-52854985D01*
X140291385Y-52846330D01*
X140531504Y-52675957D01*
X140543267Y-52668566D01*
X140800957Y-52526145D01*
X140813463Y-52520123D01*
X141085462Y-52407459D01*
X141098582Y-52402867D01*
X141381494Y-52321361D01*
X141395041Y-52318269D01*
X141685298Y-52268952D01*
X141699097Y-52267398D01*
X141959562Y-52252770D01*
X141996529Y-52250695D01*
X142003481Y-52250500D01*
X142044170Y-52250500D01*
X193455830Y-52250500D01*
X193496519Y-52250500D01*
X193503471Y-52250695D01*
G37*
%TD.AperFunction*%
%TD*%
M02*
