%TF.GenerationSoftware,KiCad,Pcbnew,8.0.6+1*%
%TF.CreationDate,2024-11-29T05:26:26-08:00*%
%TF.ProjectId,pico-logic-analyzer,7069636f-2d6c-46f6-9769-632d616e616c,rev?*%
%TF.SameCoordinates,Original*%
%TF.FileFunction,Paste,Top*%
%TF.FilePolarity,Positive*%
%FSLAX46Y46*%
G04 Gerber Fmt 4.6, Leading zero omitted, Abs format (unit mm)*
G04 Created by KiCad (PCBNEW 8.0.6+1) date 2024-11-29 05:26:26*
%MOMM*%
%LPD*%
G01*
G04 APERTURE LIST*
G04 Aperture macros list*
%AMRoundRect*
0 Rectangle with rounded corners*
0 $1 Rounding radius*
0 $2 $3 $4 $5 $6 $7 $8 $9 X,Y pos of 4 corners*
0 Add a 4 corners polygon primitive as box body*
4,1,4,$2,$3,$4,$5,$6,$7,$8,$9,$2,$3,0*
0 Add four circle primitives for the rounded corners*
1,1,$1+$1,$2,$3*
1,1,$1+$1,$4,$5*
1,1,$1+$1,$6,$7*
1,1,$1+$1,$8,$9*
0 Add four rect primitives between the rounded corners*
20,1,$1+$1,$2,$3,$4,$5,0*
20,1,$1+$1,$4,$5,$6,$7,0*
20,1,$1+$1,$6,$7,$8,$9,0*
20,1,$1+$1,$8,$9,$2,$3,0*%
G04 Aperture macros list end*
%ADD10R,1.000000X1.250000*%
%ADD11RoundRect,0.225000X0.375000X-0.225000X0.375000X0.225000X-0.375000X0.225000X-0.375000X-0.225000X0*%
%ADD12RoundRect,0.135000X-0.185000X0.135000X-0.185000X-0.135000X0.185000X-0.135000X0.185000X0.135000X0*%
%ADD13RoundRect,0.100000X0.100000X-0.637500X0.100000X0.637500X-0.100000X0.637500X-0.100000X-0.637500X0*%
%ADD14RoundRect,0.135000X0.185000X-0.135000X0.185000X0.135000X-0.185000X0.135000X-0.185000X-0.135000X0*%
%ADD15RoundRect,0.150000X0.587500X0.150000X-0.587500X0.150000X-0.587500X-0.150000X0.587500X-0.150000X0*%
%ADD16RoundRect,0.140000X-0.170000X0.140000X-0.170000X-0.140000X0.170000X-0.140000X0.170000X0.140000X0*%
%ADD17RoundRect,0.135000X0.135000X0.185000X-0.135000X0.185000X-0.135000X-0.185000X0.135000X-0.185000X0*%
%ADD18RoundRect,0.225000X0.225000X0.250000X-0.225000X0.250000X-0.225000X-0.250000X0.225000X-0.250000X0*%
%ADD19RoundRect,0.225000X0.250000X-0.225000X0.250000X0.225000X-0.250000X0.225000X-0.250000X-0.225000X0*%
%ADD20RoundRect,0.250000X-0.300000X0.300000X-0.300000X-0.300000X0.300000X-0.300000X0.300000X0.300000X0*%
%ADD21RoundRect,0.100000X-0.100000X0.637500X-0.100000X-0.637500X0.100000X-0.637500X0.100000X0.637500X0*%
%ADD22RoundRect,0.140000X0.140000X0.170000X-0.140000X0.170000X-0.140000X-0.170000X0.140000X-0.170000X0*%
%ADD23RoundRect,0.140000X0.170000X-0.140000X0.170000X0.140000X-0.170000X0.140000X-0.170000X-0.140000X0*%
%ADD24RoundRect,0.150000X0.150000X-0.512500X0.150000X0.512500X-0.150000X0.512500X-0.150000X-0.512500X0*%
G04 APERTURE END LIST*
D10*
%TO.C,SW1*%
X181750000Y-81125000D03*
X181750000Y-73375000D03*
%TD*%
D11*
%TO.C,D1*%
X187250000Y-57900000D03*
X187250000Y-54600000D03*
%TD*%
D12*
%TO.C,R16*%
X199400000Y-64290000D03*
X199400000Y-65310000D03*
%TD*%
D13*
%TO.C,U4*%
X144350000Y-66535000D03*
X145000000Y-66535000D03*
X145650000Y-66535000D03*
X146300000Y-66535000D03*
X146950000Y-66535000D03*
X147600000Y-66535000D03*
X148250000Y-66535000D03*
X148250000Y-60810000D03*
X147600000Y-60810000D03*
X146950000Y-60810000D03*
X146300000Y-60810000D03*
X145650000Y-60810000D03*
X145000000Y-60810000D03*
X144350000Y-60810000D03*
%TD*%
D14*
%TO.C,R2*%
X185000000Y-60270000D03*
X185000000Y-59250000D03*
%TD*%
D15*
%TO.C,U2*%
X182750000Y-57900000D03*
X182750000Y-56000000D03*
X180875000Y-56950000D03*
%TD*%
D16*
%TO.C,C6*%
X143000000Y-65560000D03*
X143000000Y-66520000D03*
%TD*%
D13*
%TO.C,U3*%
X144350000Y-89225000D03*
X145000000Y-89225000D03*
X145650000Y-89225000D03*
X146300000Y-89225000D03*
X146950000Y-89225000D03*
X147600000Y-89225000D03*
X148250000Y-89225000D03*
X148250000Y-83500000D03*
X147600000Y-83500000D03*
X146950000Y-83500000D03*
X146300000Y-83500000D03*
X145650000Y-83500000D03*
X145000000Y-83500000D03*
X144350000Y-83500000D03*
%TD*%
D12*
%TO.C,R13*%
X184750000Y-88490000D03*
X184750000Y-89510000D03*
%TD*%
D14*
%TO.C,R7*%
X151750000Y-100760000D03*
X151750000Y-99740000D03*
%TD*%
%TO.C,R3*%
X183000000Y-60260000D03*
X183000000Y-59240000D03*
%TD*%
D12*
%TO.C,R10*%
X151750000Y-75040000D03*
X151750000Y-76060000D03*
%TD*%
D17*
%TO.C,R21*%
X201320000Y-70410000D03*
X200300000Y-70410000D03*
%TD*%
D18*
%TO.C,C3*%
X185775000Y-61600000D03*
X184225000Y-61600000D03*
%TD*%
D17*
%TO.C,R18*%
X201410000Y-64300000D03*
X200390000Y-64300000D03*
%TD*%
D14*
%TO.C,R14*%
X184750000Y-86520000D03*
X184750000Y-85500000D03*
%TD*%
D19*
%TO.C,C2*%
X182000000Y-64875000D03*
X182000000Y-63325000D03*
%TD*%
D12*
%TO.C,R19*%
X199400000Y-69400000D03*
X199400000Y-70420000D03*
%TD*%
D17*
%TO.C,R23*%
X201310000Y-75910000D03*
X200290000Y-75910000D03*
%TD*%
D20*
%TO.C,D2*%
X188500000Y-63350000D03*
X188500000Y-66150000D03*
%TD*%
D12*
%TO.C,R22*%
X199400000Y-75900000D03*
X199400000Y-76920000D03*
%TD*%
D17*
%TO.C,R17*%
X201410000Y-65300000D03*
X200390000Y-65300000D03*
%TD*%
D21*
%TO.C,U5*%
X192150000Y-95025000D03*
X191500000Y-95025000D03*
X190850000Y-95025000D03*
X190200000Y-95025000D03*
X189550000Y-95025000D03*
X188900000Y-95025000D03*
X188250000Y-95025000D03*
X188250000Y-100750000D03*
X188900000Y-100750000D03*
X189550000Y-100750000D03*
X190200000Y-100750000D03*
X190850000Y-100750000D03*
X191500000Y-100750000D03*
X192150000Y-100750000D03*
%TD*%
D12*
%TO.C,R6*%
X151750000Y-97730000D03*
X151750000Y-98750000D03*
%TD*%
D14*
%TO.C,R5*%
X151750000Y-95760000D03*
X151750000Y-94740000D03*
%TD*%
D17*
%TO.C,R20*%
X201320000Y-69410000D03*
X200300000Y-69410000D03*
%TD*%
D14*
%TO.C,R12*%
X184750000Y-91520000D03*
X184750000Y-90500000D03*
%TD*%
D22*
%TO.C,C1*%
X184480000Y-67600000D03*
X183520000Y-67600000D03*
%TD*%
D23*
%TO.C,C7*%
X143000000Y-61810000D03*
X143000000Y-60850000D03*
%TD*%
D17*
%TO.C,R24*%
X201310000Y-76910000D03*
X200290000Y-76910000D03*
%TD*%
D23*
%TO.C,C5*%
X143000000Y-84500000D03*
X143000000Y-83540000D03*
%TD*%
D12*
%TO.C,R4*%
X151750000Y-92730000D03*
X151750000Y-93750000D03*
%TD*%
D14*
%TO.C,R11*%
X151750000Y-78070000D03*
X151750000Y-77050000D03*
%TD*%
%TO.C,R1*%
X187250000Y-60260000D03*
X187250000Y-59240000D03*
%TD*%
D16*
%TO.C,C4*%
X143000000Y-88250000D03*
X143000000Y-89210000D03*
%TD*%
D23*
%TO.C,C8*%
X193500000Y-96000000D03*
X193500000Y-95040000D03*
%TD*%
D24*
%TO.C,U1*%
X183570000Y-65737500D03*
X184520000Y-65737500D03*
X185470000Y-65737500D03*
X185470000Y-63462500D03*
X184520000Y-63462500D03*
X183570000Y-63462500D03*
%TD*%
D16*
%TO.C,C9*%
X193500000Y-99750000D03*
X193500000Y-100710000D03*
%TD*%
D12*
%TO.C,R15*%
X184750000Y-83490000D03*
X184750000Y-84510000D03*
%TD*%
D11*
%TO.C,D3*%
X184900000Y-57900000D03*
X184900000Y-54600000D03*
%TD*%
D14*
%TO.C,R9*%
X151750000Y-73070000D03*
X151750000Y-72050000D03*
%TD*%
D12*
%TO.C,R8*%
X151750000Y-70040000D03*
X151750000Y-71060000D03*
%TD*%
M02*
