%TF.GenerationSoftware,KiCad,Pcbnew,8.0.6+1*%
%TF.CreationDate,2024-11-30T18:30:32-08:00*%
%TF.ProjectId,pico-logic-analyzer,7069636f-2d6c-46f6-9769-632d616e616c,rev?*%
%TF.SameCoordinates,Original*%
%TF.FileFunction,Copper,L2,Inr*%
%TF.FilePolarity,Positive*%
%FSLAX46Y46*%
G04 Gerber Fmt 4.6, Leading zero omitted, Abs format (unit mm)*
G04 Created by KiCad (PCBNEW 8.0.6+1) date 2024-11-30 18:30:32*
%MOMM*%
%LPD*%
G01*
G04 APERTURE LIST*
G04 Aperture macros list*
%AMRoundRect*
0 Rectangle with rounded corners*
0 $1 Rounding radius*
0 $2 $3 $4 $5 $6 $7 $8 $9 X,Y pos of 4 corners*
0 Add a 4 corners polygon primitive as box body*
4,1,4,$2,$3,$4,$5,$6,$7,$8,$9,$2,$3,0*
0 Add four circle primitives for the rounded corners*
1,1,$1+$1,$2,$3*
1,1,$1+$1,$4,$5*
1,1,$1+$1,$6,$7*
1,1,$1+$1,$8,$9*
0 Add four rect primitives between the rounded corners*
20,1,$1+$1,$2,$3,$4,$5,0*
20,1,$1+$1,$4,$5,$6,$7,0*
20,1,$1+$1,$6,$7,$8,$9,0*
20,1,$1+$1,$8,$9,$2,$3,0*%
%AMFreePoly0*
4,1,28,0.605014,0.794986,0.644504,0.794986,0.724698,0.756366,0.780194,0.686777,0.800000,0.600000,0.800000,-0.600000,0.780194,-0.686777,0.724698,-0.756366,0.644504,-0.794986,0.605014,-0.794986,0.600000,-0.800000,0.000000,-0.800000,-0.178017,-0.779942,-0.347107,-0.720775,-0.498792,-0.625465,-0.625465,-0.498792,-0.720775,-0.347107,-0.779942,-0.178017,-0.800000,0.000000,-0.779942,0.178017,
-0.720775,0.347107,-0.625465,0.498792,-0.498792,0.625465,-0.347107,0.720775,-0.178017,0.779942,0.000000,0.800000,0.600000,0.800000,0.605014,0.794986,0.605014,0.794986,$1*%
%AMFreePoly1*
4,1,28,0.178017,0.779942,0.347107,0.720775,0.498792,0.625465,0.625465,0.498792,0.720775,0.347107,0.779942,0.178017,0.800000,0.000000,0.779942,-0.178017,0.720775,-0.347107,0.625465,-0.498792,0.498792,-0.625465,0.347107,-0.720775,0.178017,-0.779942,0.000000,-0.800000,-0.600000,-0.800000,-0.605014,-0.794986,-0.644504,-0.794986,-0.724698,-0.756366,-0.780194,-0.686777,-0.800000,-0.600000,
-0.800000,0.600000,-0.780194,0.686777,-0.724698,0.756366,-0.644504,0.794986,-0.605014,0.794986,-0.600000,0.800000,0.000000,0.800000,0.178017,0.779942,0.178017,0.779942,$1*%
G04 Aperture macros list end*
%TA.AperFunction,ComponentPad*%
%ADD10R,1.700000X1.700000*%
%TD*%
%TA.AperFunction,ComponentPad*%
%ADD11O,1.700000X1.700000*%
%TD*%
%TA.AperFunction,ComponentPad*%
%ADD12R,1.600000X1.600000*%
%TD*%
%TA.AperFunction,ComponentPad*%
%ADD13O,1.600000X1.600000*%
%TD*%
%TA.AperFunction,ComponentPad*%
%ADD14RoundRect,0.200000X-0.600000X-0.600000X0.600000X-0.600000X0.600000X0.600000X-0.600000X0.600000X0*%
%TD*%
%TA.AperFunction,ComponentPad*%
%ADD15C,1.600000*%
%TD*%
%TA.AperFunction,ComponentPad*%
%ADD16FreePoly0,0.000000*%
%TD*%
%TA.AperFunction,ComponentPad*%
%ADD17FreePoly1,0.000000*%
%TD*%
%TA.AperFunction,ViaPad*%
%ADD18C,0.600000*%
%TD*%
G04 APERTURE END LIST*
D10*
%TO.N,GND*%
%TO.C,J11*%
X201850000Y-107500000D03*
%TD*%
%TO.N,/Buffer Block B/A1*%
%TO.C,J5*%
X139000000Y-72730000D03*
D11*
%TO.N,/Buffer Block B/A0*%
X136460000Y-72730000D03*
%TO.N,/Buffer Block B/A2*%
X139000000Y-75270000D03*
%TO.N,/Buffer Block B/A3*%
X136460000Y-75270000D03*
%TO.N,GND*%
X139000000Y-77810000D03*
X136460000Y-77810000D03*
%TD*%
D10*
%TO.N,/A2_IN*%
%TO.C,J1*%
X196790000Y-65000000D03*
D11*
%TO.N,GND*%
X196790000Y-62460000D03*
%TO.N,/A1_IN*%
X194250000Y-65000000D03*
%TO.N,GND*%
X194250000Y-62460000D03*
%TO.N,/A0_IN*%
X191710000Y-65000000D03*
%TO.N,GND*%
X191710000Y-62460000D03*
%TD*%
D10*
%TO.N,/Buffer Block A/A1*%
%TO.C,J3*%
X139000000Y-95420000D03*
D11*
%TO.N,/Buffer Block A/A0*%
X136460000Y-95420000D03*
%TO.N,/Buffer Block A/A2*%
X139000000Y-97960000D03*
%TO.N,/Buffer Block A/A3*%
X136460000Y-97960000D03*
%TO.N,GND*%
X139000000Y-100500000D03*
X136460000Y-100500000D03*
%TD*%
D10*
%TO.N,/+5V_REG*%
%TO.C,J4*%
X134450000Y-63535000D03*
D11*
%TO.N,/Buffer Block B/VCCA_SEL*%
X136990000Y-63535000D03*
%TO.N,/+3.3V_REG*%
X134450000Y-66075000D03*
%TO.N,/Buffer Block B/VCCA_SEL*%
X136990000Y-66075000D03*
%TO.N,/+1.8V_REG*%
X134450000Y-68615000D03*
%TO.N,/Buffer Block B/VCCA_SEL*%
X136990000Y-68615000D03*
%TD*%
D12*
%TO.N,/Buffer Block B/A0*%
%TO.C,SW3*%
X142250000Y-70270000D03*
D13*
%TO.N,/Buffer Block B/A1*%
X142250000Y-72810000D03*
%TO.N,/Buffer Block B/A2*%
X142250000Y-75350000D03*
%TO.N,/Buffer Block B/A3*%
X142250000Y-77890000D03*
%TO.N,Net-(R11-Pad1)*%
X149870000Y-77890000D03*
%TO.N,Net-(R10-Pad1)*%
X149870000Y-75350000D03*
%TO.N,Net-(R9-Pad1)*%
X149870000Y-72810000D03*
%TO.N,Net-(R8-Pad1)*%
X149870000Y-70270000D03*
%TD*%
D10*
%TO.N,/+5V_REG*%
%TO.C,J6*%
X202050000Y-98025000D03*
D11*
%TO.N,/Buffer Block C/VCCA_SEL*%
X199510000Y-98025000D03*
%TO.N,/+3.3V_REG*%
X202050000Y-95485000D03*
%TO.N,/Buffer Block C/VCCA_SEL*%
X199510000Y-95485000D03*
%TO.N,/+1.8V_REG*%
X202050000Y-92945000D03*
%TO.N,/Buffer Block C/VCCA_SEL*%
X199510000Y-92945000D03*
%TD*%
D12*
%TO.N,/Buffer Block C/A0*%
%TO.C,SW4*%
X194250000Y-91290000D03*
D13*
%TO.N,/Buffer Block C/A1*%
X194250000Y-88750000D03*
%TO.N,/Buffer Block C/A2*%
X194250000Y-86210000D03*
%TO.N,/Buffer Block C/A3*%
X194250000Y-83670000D03*
%TO.N,Net-(R15-Pad1)*%
X186630000Y-83670000D03*
%TO.N,Net-(R14-Pad1)*%
X186630000Y-86210000D03*
%TO.N,Net-(R13-Pad1)*%
X186630000Y-88750000D03*
%TO.N,Net-(R12-Pad1)*%
X186630000Y-91290000D03*
%TD*%
D10*
%TO.N,/+5V_REG*%
%TO.C,J2*%
X134450000Y-86225000D03*
D11*
%TO.N,/Buffer Block A/VCCA_SEL*%
X136990000Y-86225000D03*
%TO.N,/+3.3V_REG*%
X134450000Y-88765000D03*
%TO.N,/Buffer Block A/VCCA_SEL*%
X136990000Y-88765000D03*
%TO.N,/+1.8V_REG*%
X134450000Y-91305000D03*
%TO.N,/Buffer Block A/VCCA_SEL*%
X136990000Y-91305000D03*
%TD*%
D10*
%TO.N,Net-(J10-Pin_1)*%
%TO.C,J10*%
X209200000Y-74400000D03*
D11*
%TO.N,/A0_DIV*%
X209200000Y-76940000D03*
%TO.N,/Analog Divider Selector 0/half_sel*%
X206660000Y-74400000D03*
%TO.N,/A0_DIV*%
X206660000Y-76940000D03*
%TO.N,/Analog Divider Selector 0/eleventh_sel*%
X204120000Y-74400000D03*
%TO.N,/A0_DIV*%
X204120000Y-76940000D03*
%TD*%
D10*
%TO.N,Net-(J8-Pin_1)*%
%TO.C,J8*%
X209170000Y-61990000D03*
D11*
%TO.N,/A2_DIV*%
X209170000Y-64530000D03*
%TO.N,/Analog Divider Selector 2/half_sel*%
X206630000Y-61990000D03*
%TO.N,/A2_DIV*%
X206630000Y-64530000D03*
%TO.N,/Analog Divider Selector 2/eleventh_sel*%
X204090000Y-61990000D03*
%TO.N,/A2_DIV*%
X204090000Y-64530000D03*
%TD*%
D10*
%TO.N,/Buffer Block C/A1*%
%TO.C,J7*%
X197500000Y-88830000D03*
D11*
%TO.N,/Buffer Block C/A0*%
X200040000Y-88830000D03*
%TO.N,/Buffer Block C/A2*%
X197500000Y-86290000D03*
%TO.N,/Buffer Block C/A3*%
X200040000Y-86290000D03*
%TO.N,GND*%
X197500000Y-83750000D03*
X200040000Y-83750000D03*
%TD*%
D10*
%TO.N,Net-(J9-Pin_1)*%
%TO.C,J9*%
X209170000Y-68200000D03*
D11*
%TO.N,/A1_DIV*%
X209170000Y-70740000D03*
%TO.N,/Analog Divider Selector 1/half_sel*%
X206630000Y-68200000D03*
%TO.N,/A1_DIV*%
X206630000Y-70740000D03*
%TO.N,/Analog Divider Selector 1/eleventh_sel*%
X204090000Y-68200000D03*
%TO.N,/A1_DIV*%
X204090000Y-70740000D03*
%TD*%
D14*
%TO.N,unconnected-(A1-GPIO0-Pad1)*%
%TO.C,A1*%
X159220000Y-55240000D03*
D15*
%TO.N,unconnected-(A1-GPIO1-Pad2)*%
X159220000Y-57780000D03*
D16*
%TO.N,GND*%
X159220000Y-60320000D03*
D15*
%TO.N,/B0 {slash} IO02*%
X159220000Y-62860000D03*
%TO.N,/B1 {slash} IO03*%
X159220000Y-65400000D03*
%TO.N,/B2 {slash} IO04*%
X159220000Y-67940000D03*
%TO.N,/B3 {slash} IO05*%
X159220000Y-70480000D03*
D16*
%TO.N,GND*%
X159220000Y-73020000D03*
D15*
%TO.N,unconnected-(A1-GPIO6-Pad9)*%
X159220000Y-75560000D03*
%TO.N,unconnected-(A1-GPIO7-Pad10)*%
X159220000Y-78100000D03*
%TO.N,unconnected-(A1-GPIO8-Pad11)*%
X159220000Y-80640000D03*
%TO.N,unconnected-(A1-GPIO9-Pad12)*%
X159220000Y-83180000D03*
D16*
%TO.N,GND*%
X159220000Y-85720000D03*
D15*
%TO.N,unconnected-(A1-GPIO10-Pad14)*%
X159220000Y-88260000D03*
%TO.N,unconnected-(A1-GPIO11-Pad15)*%
X159220000Y-90800000D03*
%TO.N,/A0 {slash} IO12*%
X159220000Y-93340000D03*
%TO.N,/A1 {slash} IO13*%
X159220000Y-95880000D03*
D16*
%TO.N,GND*%
X159220000Y-98420000D03*
D15*
%TO.N,/A2 {slash} IO14*%
X159220000Y-100960000D03*
%TO.N,/A3 {slash} IO15*%
X159220000Y-103500000D03*
%TO.N,/C0 {slash} IO16*%
X177000000Y-103500000D03*
%TO.N,/C1 {slash} IO17*%
X177000000Y-100960000D03*
D17*
%TO.N,GND*%
X177000000Y-98420000D03*
D15*
%TO.N,/C2 {slash} IO018*%
X177000000Y-95880000D03*
%TO.N,/C3 {slash} IO019*%
X177000000Y-93340000D03*
%TO.N,unconnected-(A1-GPIO20-Pad26)*%
X177000000Y-90800000D03*
%TO.N,unconnected-(A1-GPIO21-Pad27)*%
X177000000Y-88260000D03*
D17*
%TO.N,GND*%
X177000000Y-85720000D03*
D15*
%TO.N,unconnected-(A1-GPIO22-Pad29)*%
X177000000Y-83180000D03*
%TO.N,Net-(A1-RUN)*%
X177000000Y-80640000D03*
%TO.N,/A0_DIV*%
X177000000Y-78100000D03*
%TO.N,/A1_DIV*%
X177000000Y-75560000D03*
D17*
%TO.N,GND*%
X177000000Y-73020000D03*
D15*
%TO.N,/A2_DIV*%
X177000000Y-70480000D03*
%TO.N,/+3.3V_REG*%
X177000000Y-67940000D03*
%TO.N,+3V3*%
X177000000Y-65400000D03*
%TO.N,unconnected-(A1-3V3_EN-Pad37)*%
X177000000Y-62860000D03*
D17*
%TO.N,GND*%
X177000000Y-60320000D03*
D15*
%TO.N,unconnected-(A1-VSYS-Pad39)*%
X177000000Y-57780000D03*
%TO.N,unconnected-(A1-VBUS-Pad40)*%
X177000000Y-55240000D03*
%TD*%
D12*
%TO.N,/Buffer Block A/A0*%
%TO.C,SW2*%
X142250000Y-92960000D03*
D13*
%TO.N,/Buffer Block A/A1*%
X142250000Y-95500000D03*
%TO.N,/Buffer Block A/A2*%
X142250000Y-98040000D03*
%TO.N,/Buffer Block A/A3*%
X142250000Y-100580000D03*
%TO.N,Net-(R7-Pad1)*%
X149870000Y-100580000D03*
%TO.N,Net-(R6-Pad1)*%
X149870000Y-98040000D03*
%TO.N,Net-(R5-Pad1)*%
X149870000Y-95500000D03*
%TO.N,Net-(R4-Pad1)*%
X149870000Y-92960000D03*
%TD*%
D18*
%TO.N,GND*%
X167887237Y-94394457D03*
X204713621Y-80599400D03*
X207779916Y-95767580D03*
X173016754Y-80525865D03*
X163808309Y-85077718D03*
X133577129Y-54643524D03*
X193500000Y-96600000D03*
X128665160Y-99420369D03*
X198559230Y-105513248D03*
X192773550Y-80629839D03*
X164027627Y-64830442D03*
X162876062Y-95944151D03*
X139267779Y-54792213D03*
X174313558Y-84864384D03*
X185000000Y-55600000D03*
X143000000Y-85200000D03*
X138112049Y-104429804D03*
X169369212Y-85890515D03*
X163363675Y-89707590D03*
X198956914Y-54200733D03*
X143969312Y-79128972D03*
X173392453Y-70366706D03*
X209350571Y-90069828D03*
X184750000Y-66850000D03*
X187250000Y-55600000D03*
X129525254Y-60548518D03*
X148740852Y-104712102D03*
X198960675Y-79171292D03*
X193819272Y-55619457D03*
X143694719Y-55689644D03*
X142830881Y-105436600D03*
X182600000Y-74700000D03*
X164778963Y-55343597D03*
X173363766Y-55429675D03*
X204695484Y-95365803D03*
X204605066Y-85393093D03*
X187400000Y-94900000D03*
X162801436Y-79135664D03*
X129280144Y-65132498D03*
X128689618Y-95089121D03*
X128205739Y-74937080D03*
X185500000Y-62350000D03*
X169507760Y-64037184D03*
X168561333Y-54913463D03*
X143000000Y-62600000D03*
X127811483Y-69621620D03*
X154200000Y-75200000D03*
X134405346Y-104272873D03*
X179220004Y-55391929D03*
X169165453Y-105878096D03*
X153697738Y-104819990D03*
X133981687Y-95655073D03*
X173231490Y-65894883D03*
X179674791Y-90510729D03*
X208300905Y-79958468D03*
X133650443Y-99616269D03*
X148900000Y-66800000D03*
X174009390Y-89531334D03*
X172982509Y-105539874D03*
X203785208Y-89347166D03*
X139419318Y-65799726D03*
X147800000Y-90900000D03*
X129764952Y-90167566D03*
X138000779Y-85315896D03*
X129019432Y-79398919D03*
X143000000Y-87400000D03*
X163980989Y-69474937D03*
X168617109Y-75852300D03*
X192799668Y-105475252D03*
X182962367Y-79713445D03*
X199234422Y-59620262D03*
X168749391Y-69341716D03*
X194485643Y-60587573D03*
X174239492Y-76047619D03*
X167877271Y-79062523D03*
X179093470Y-80313924D03*
X164185284Y-104982399D03*
X143000000Y-64700000D03*
X128683694Y-85787490D03*
X208735371Y-85759336D03*
X138242252Y-79657180D03*
X173575454Y-95118455D03*
X168060255Y-89145686D03*
X208345966Y-99858809D03*
X164329503Y-74511290D03*
X183250000Y-56850000D03*
X193500000Y-98575000D03*
%TO.N,/+3.3V_REG*%
X140800000Y-83100000D03*
X141400000Y-60400000D03*
X183100000Y-76700000D03*
X184900000Y-56900000D03*
X194900000Y-100100000D03*
%TO.N,/+1.8V_REG*%
X190950000Y-77250000D03*
X136800000Y-58700000D03*
X133400000Y-80600000D03*
X187300000Y-56900000D03*
%TO.N,/+5V_REG*%
X186050000Y-76350000D03*
X131500000Y-82400000D03*
X180400000Y-58900000D03*
X180400000Y-63700000D03*
%TO.N,/A1_IN*%
X199400000Y-68600000D03*
%TO.N,/A0_IN*%
X199300000Y-75000000D03*
%TD*%
%TA.AperFunction,Conductor*%
%TO.N,GND*%
G36*
X208003471Y-52250695D02*
G01*
X208044188Y-52252981D01*
X208300900Y-52267397D01*
X208314703Y-52268953D01*
X208604953Y-52318269D01*
X208618510Y-52321363D01*
X208901413Y-52402866D01*
X208914537Y-52407459D01*
X209186527Y-52520120D01*
X209199049Y-52526149D01*
X209397673Y-52635925D01*
X209456726Y-52668563D01*
X209468500Y-52675961D01*
X209708604Y-52846323D01*
X209719476Y-52854993D01*
X209938997Y-53051169D01*
X209948830Y-53061002D01*
X210145006Y-53280523D01*
X210153676Y-53291395D01*
X210324038Y-53531499D01*
X210331436Y-53543273D01*
X210473846Y-53800943D01*
X210479879Y-53813472D01*
X210592540Y-54085462D01*
X210597133Y-54098586D01*
X210678636Y-54381489D01*
X210681730Y-54395046D01*
X210731045Y-54685288D01*
X210732602Y-54699106D01*
X210749305Y-54996527D01*
X210749500Y-55003480D01*
X210749500Y-60976386D01*
X210729815Y-61043425D01*
X210677011Y-61089180D01*
X210607853Y-61099124D01*
X210544297Y-61070099D01*
X210509318Y-61019719D01*
X210463797Y-60897671D01*
X210463793Y-60897664D01*
X210377547Y-60782455D01*
X210377544Y-60782452D01*
X210262335Y-60696206D01*
X210262328Y-60696202D01*
X210127482Y-60645908D01*
X210127483Y-60645908D01*
X210067883Y-60639501D01*
X210067881Y-60639500D01*
X210067873Y-60639500D01*
X210067864Y-60639500D01*
X208272129Y-60639500D01*
X208272123Y-60639501D01*
X208212516Y-60645908D01*
X208077671Y-60696202D01*
X208077664Y-60696206D01*
X207962455Y-60782452D01*
X207962452Y-60782455D01*
X207876206Y-60897664D01*
X207876203Y-60897669D01*
X207827189Y-61029083D01*
X207785317Y-61085016D01*
X207719853Y-61109433D01*
X207651580Y-61094581D01*
X207623326Y-61073430D01*
X207501402Y-60951506D01*
X207501395Y-60951501D01*
X207307834Y-60815967D01*
X207307830Y-60815965D01*
X207307828Y-60815964D01*
X207093663Y-60716097D01*
X207093659Y-60716096D01*
X207093655Y-60716094D01*
X206865413Y-60654938D01*
X206865403Y-60654936D01*
X206630001Y-60634341D01*
X206629999Y-60634341D01*
X206394596Y-60654936D01*
X206394586Y-60654938D01*
X206166344Y-60716094D01*
X206166335Y-60716098D01*
X205952171Y-60815964D01*
X205952169Y-60815965D01*
X205758597Y-60951505D01*
X205591505Y-61118597D01*
X205461575Y-61304158D01*
X205406998Y-61347783D01*
X205337500Y-61354977D01*
X205275145Y-61323454D01*
X205258425Y-61304158D01*
X205128494Y-61118597D01*
X204961402Y-60951506D01*
X204961395Y-60951501D01*
X204767834Y-60815967D01*
X204767830Y-60815965D01*
X204767828Y-60815964D01*
X204553663Y-60716097D01*
X204553659Y-60716096D01*
X204553655Y-60716094D01*
X204325413Y-60654938D01*
X204325403Y-60654936D01*
X204090001Y-60634341D01*
X204089999Y-60634341D01*
X203854596Y-60654936D01*
X203854586Y-60654938D01*
X203626344Y-60716094D01*
X203626335Y-60716098D01*
X203412171Y-60815964D01*
X203412169Y-60815965D01*
X203218597Y-60951505D01*
X203051505Y-61118597D01*
X202915965Y-61312169D01*
X202915964Y-61312171D01*
X202816098Y-61526335D01*
X202816094Y-61526344D01*
X202754938Y-61754586D01*
X202754936Y-61754596D01*
X202734341Y-61989999D01*
X202734341Y-61990000D01*
X202754936Y-62225403D01*
X202754938Y-62225413D01*
X202816094Y-62453655D01*
X202816096Y-62453659D01*
X202816097Y-62453663D01*
X202872249Y-62574081D01*
X202915965Y-62667830D01*
X202915967Y-62667834D01*
X203024281Y-62822521D01*
X203051501Y-62861396D01*
X203051506Y-62861402D01*
X203218597Y-63028493D01*
X203218603Y-63028498D01*
X203404158Y-63158425D01*
X203447783Y-63213002D01*
X203454977Y-63282500D01*
X203423454Y-63344855D01*
X203404158Y-63361575D01*
X203218597Y-63491505D01*
X203051505Y-63658597D01*
X202915965Y-63852169D01*
X202915964Y-63852171D01*
X202816098Y-64066335D01*
X202816094Y-64066344D01*
X202754938Y-64294586D01*
X202754936Y-64294596D01*
X202734341Y-64529999D01*
X202734341Y-64530000D01*
X202754936Y-64765403D01*
X202754938Y-64765413D01*
X202816094Y-64993655D01*
X202816096Y-64993659D01*
X202816097Y-64993663D01*
X202896004Y-65165023D01*
X202915965Y-65207830D01*
X202915967Y-65207834D01*
X203024281Y-65362521D01*
X203051505Y-65401401D01*
X203218599Y-65568495D01*
X203267830Y-65602967D01*
X203412165Y-65704032D01*
X203412167Y-65704033D01*
X203412170Y-65704035D01*
X203626337Y-65803903D01*
X203854592Y-65865063D01*
X204042918Y-65881539D01*
X204089999Y-65885659D01*
X204090000Y-65885659D01*
X204090001Y-65885659D01*
X204129234Y-65882226D01*
X204325408Y-65865063D01*
X204553663Y-65803903D01*
X204767830Y-65704035D01*
X204961401Y-65568495D01*
X205128495Y-65401401D01*
X205258425Y-65215842D01*
X205313002Y-65172217D01*
X205382500Y-65165023D01*
X205444855Y-65196546D01*
X205461575Y-65215842D01*
X205591500Y-65401395D01*
X205591505Y-65401401D01*
X205758599Y-65568495D01*
X205807830Y-65602967D01*
X205952165Y-65704032D01*
X205952167Y-65704033D01*
X205952170Y-65704035D01*
X206166337Y-65803903D01*
X206394592Y-65865063D01*
X206582918Y-65881539D01*
X206629999Y-65885659D01*
X206630000Y-65885659D01*
X206630001Y-65885659D01*
X206669234Y-65882226D01*
X206865408Y-65865063D01*
X207093663Y-65803903D01*
X207307830Y-65704035D01*
X207501401Y-65568495D01*
X207668495Y-65401401D01*
X207798425Y-65215842D01*
X207853002Y-65172217D01*
X207922500Y-65165023D01*
X207984855Y-65196546D01*
X208001575Y-65215842D01*
X208131500Y-65401395D01*
X208131505Y-65401401D01*
X208298599Y-65568495D01*
X208347830Y-65602967D01*
X208492165Y-65704032D01*
X208492167Y-65704033D01*
X208492170Y-65704035D01*
X208706337Y-65803903D01*
X208934592Y-65865063D01*
X209122918Y-65881539D01*
X209169999Y-65885659D01*
X209170000Y-65885659D01*
X209170001Y-65885659D01*
X209209234Y-65882226D01*
X209405408Y-65865063D01*
X209633663Y-65803903D01*
X209847830Y-65704035D01*
X210041401Y-65568495D01*
X210208495Y-65401401D01*
X210344035Y-65207830D01*
X210443903Y-64993663D01*
X210505063Y-64765408D01*
X210505063Y-64765407D01*
X210505725Y-64762937D01*
X210542090Y-64703276D01*
X210604936Y-64672747D01*
X210674312Y-64681041D01*
X210728190Y-64725527D01*
X210749465Y-64792078D01*
X210749500Y-64795030D01*
X210749500Y-67186386D01*
X210729815Y-67253425D01*
X210677011Y-67299180D01*
X210607853Y-67309124D01*
X210544297Y-67280099D01*
X210509318Y-67229719D01*
X210463797Y-67107671D01*
X210463793Y-67107664D01*
X210377547Y-66992455D01*
X210377544Y-66992452D01*
X210262335Y-66906206D01*
X210262328Y-66906202D01*
X210127482Y-66855908D01*
X210127483Y-66855908D01*
X210067883Y-66849501D01*
X210067881Y-66849500D01*
X210067873Y-66849500D01*
X210067864Y-66849500D01*
X208272129Y-66849500D01*
X208272123Y-66849501D01*
X208212516Y-66855908D01*
X208077671Y-66906202D01*
X208077664Y-66906206D01*
X207962455Y-66992452D01*
X207962452Y-66992455D01*
X207876206Y-67107664D01*
X207876203Y-67107669D01*
X207827189Y-67239083D01*
X207785317Y-67295016D01*
X207719853Y-67319433D01*
X207651580Y-67304581D01*
X207623326Y-67283430D01*
X207501402Y-67161506D01*
X207501395Y-67161501D01*
X207307834Y-67025967D01*
X207307830Y-67025965D01*
X207307828Y-67025964D01*
X207093663Y-66926097D01*
X207093659Y-66926096D01*
X207093655Y-66926094D01*
X206865413Y-66864938D01*
X206865403Y-66864936D01*
X206630001Y-66844341D01*
X206629999Y-66844341D01*
X206394596Y-66864936D01*
X206394586Y-66864938D01*
X206166344Y-66926094D01*
X206166335Y-66926098D01*
X205952171Y-67025964D01*
X205952169Y-67025965D01*
X205758597Y-67161505D01*
X205591505Y-67328597D01*
X205461575Y-67514158D01*
X205406998Y-67557783D01*
X205337500Y-67564977D01*
X205275145Y-67533454D01*
X205258425Y-67514158D01*
X205128494Y-67328597D01*
X204961402Y-67161506D01*
X204961395Y-67161501D01*
X204767834Y-67025967D01*
X204767830Y-67025965D01*
X204767828Y-67025964D01*
X204553663Y-66926097D01*
X204553659Y-66926096D01*
X204553655Y-66926094D01*
X204325413Y-66864938D01*
X204325403Y-66864936D01*
X204090001Y-66844341D01*
X204089999Y-66844341D01*
X203854596Y-66864936D01*
X203854586Y-66864938D01*
X203626344Y-66926094D01*
X203626335Y-66926098D01*
X203412171Y-67025964D01*
X203412169Y-67025965D01*
X203218597Y-67161505D01*
X203051505Y-67328597D01*
X202915965Y-67522169D01*
X202915964Y-67522171D01*
X202816098Y-67736335D01*
X202816094Y-67736344D01*
X202754938Y-67964586D01*
X202754936Y-67964596D01*
X202734341Y-68199999D01*
X202734341Y-68200000D01*
X202754936Y-68435403D01*
X202754938Y-68435413D01*
X202816094Y-68663655D01*
X202816096Y-68663659D01*
X202816097Y-68663663D01*
X202869996Y-68779249D01*
X202915965Y-68877830D01*
X202915967Y-68877834D01*
X202990562Y-68984366D01*
X203051501Y-69071396D01*
X203051506Y-69071402D01*
X203218597Y-69238493D01*
X203218603Y-69238498D01*
X203404158Y-69368425D01*
X203447783Y-69423002D01*
X203454977Y-69492500D01*
X203423454Y-69554855D01*
X203404158Y-69571575D01*
X203218597Y-69701505D01*
X203051505Y-69868597D01*
X202915965Y-70062169D01*
X202915964Y-70062171D01*
X202816098Y-70276335D01*
X202816094Y-70276344D01*
X202754938Y-70504586D01*
X202754936Y-70504596D01*
X202734341Y-70739999D01*
X202734341Y-70740000D01*
X202754936Y-70975403D01*
X202754938Y-70975413D01*
X202816094Y-71203655D01*
X202816096Y-71203659D01*
X202816097Y-71203663D01*
X202901080Y-71385909D01*
X202915965Y-71417830D01*
X202915967Y-71417834D01*
X203012688Y-71555965D01*
X203051505Y-71611401D01*
X203218599Y-71778495D01*
X203295195Y-71832128D01*
X203412165Y-71914032D01*
X203412167Y-71914033D01*
X203412170Y-71914035D01*
X203626337Y-72013903D01*
X203854592Y-72075063D01*
X204042918Y-72091539D01*
X204089999Y-72095659D01*
X204090000Y-72095659D01*
X204090001Y-72095659D01*
X204129234Y-72092226D01*
X204325408Y-72075063D01*
X204553663Y-72013903D01*
X204767830Y-71914035D01*
X204961401Y-71778495D01*
X205128495Y-71611401D01*
X205258425Y-71425842D01*
X205313002Y-71382217D01*
X205382500Y-71375023D01*
X205444855Y-71406546D01*
X205461575Y-71425842D01*
X205591500Y-71611395D01*
X205591505Y-71611401D01*
X205758599Y-71778495D01*
X205835195Y-71832128D01*
X205952165Y-71914032D01*
X205952167Y-71914033D01*
X205952170Y-71914035D01*
X206166337Y-72013903D01*
X206394592Y-72075063D01*
X206582918Y-72091539D01*
X206629999Y-72095659D01*
X206630000Y-72095659D01*
X206630001Y-72095659D01*
X206669234Y-72092226D01*
X206865408Y-72075063D01*
X207093663Y-72013903D01*
X207307830Y-71914035D01*
X207501401Y-71778495D01*
X207668495Y-71611401D01*
X207798425Y-71425842D01*
X207853002Y-71382217D01*
X207922500Y-71375023D01*
X207984855Y-71406546D01*
X208001575Y-71425842D01*
X208131500Y-71611395D01*
X208131505Y-71611401D01*
X208298599Y-71778495D01*
X208375195Y-71832128D01*
X208492165Y-71914032D01*
X208492167Y-71914033D01*
X208492170Y-71914035D01*
X208706337Y-72013903D01*
X208934592Y-72075063D01*
X209122918Y-72091539D01*
X209169999Y-72095659D01*
X209170000Y-72095659D01*
X209170001Y-72095659D01*
X209209234Y-72092226D01*
X209405408Y-72075063D01*
X209633663Y-72013903D01*
X209847830Y-71914035D01*
X210041401Y-71778495D01*
X210208495Y-71611401D01*
X210344035Y-71417830D01*
X210443903Y-71203663D01*
X210505063Y-70975408D01*
X210505063Y-70975407D01*
X210505725Y-70972937D01*
X210542090Y-70913276D01*
X210604936Y-70882747D01*
X210674312Y-70891041D01*
X210728190Y-70935527D01*
X210749465Y-71002078D01*
X210749500Y-71005030D01*
X210749500Y-73305951D01*
X210729815Y-73372990D01*
X210677011Y-73418745D01*
X210607853Y-73428689D01*
X210544297Y-73399664D01*
X210509318Y-73349284D01*
X210493797Y-73307671D01*
X210493793Y-73307664D01*
X210407547Y-73192455D01*
X210407544Y-73192452D01*
X210292335Y-73106206D01*
X210292328Y-73106202D01*
X210157482Y-73055908D01*
X210157483Y-73055908D01*
X210097883Y-73049501D01*
X210097881Y-73049500D01*
X210097873Y-73049500D01*
X210097864Y-73049500D01*
X208302129Y-73049500D01*
X208302123Y-73049501D01*
X208242516Y-73055908D01*
X208107671Y-73106202D01*
X208107664Y-73106206D01*
X207992455Y-73192452D01*
X207992452Y-73192455D01*
X207906206Y-73307664D01*
X207906203Y-73307669D01*
X207857189Y-73439083D01*
X207815317Y-73495016D01*
X207749853Y-73519433D01*
X207681580Y-73504581D01*
X207653326Y-73483430D01*
X207531402Y-73361506D01*
X207531395Y-73361501D01*
X207513947Y-73349284D01*
X207454518Y-73307671D01*
X207337834Y-73225967D01*
X207337830Y-73225965D01*
X207268541Y-73193655D01*
X207123663Y-73126097D01*
X207123659Y-73126096D01*
X207123655Y-73126094D01*
X206895413Y-73064938D01*
X206895403Y-73064936D01*
X206660001Y-73044341D01*
X206659999Y-73044341D01*
X206424596Y-73064936D01*
X206424586Y-73064938D01*
X206196344Y-73126094D01*
X206196335Y-73126098D01*
X205982171Y-73225964D01*
X205982169Y-73225965D01*
X205788597Y-73361505D01*
X205621505Y-73528597D01*
X205491575Y-73714158D01*
X205436998Y-73757783D01*
X205367500Y-73764977D01*
X205305145Y-73733454D01*
X205288425Y-73714158D01*
X205158494Y-73528597D01*
X204991402Y-73361506D01*
X204991395Y-73361501D01*
X204973947Y-73349284D01*
X204914518Y-73307671D01*
X204797834Y-73225967D01*
X204797830Y-73225965D01*
X204728541Y-73193655D01*
X204583663Y-73126097D01*
X204583659Y-73126096D01*
X204583655Y-73126094D01*
X204355413Y-73064938D01*
X204355403Y-73064936D01*
X204120001Y-73044341D01*
X204119999Y-73044341D01*
X203884596Y-73064936D01*
X203884586Y-73064938D01*
X203656344Y-73126094D01*
X203656335Y-73126098D01*
X203442171Y-73225964D01*
X203442169Y-73225965D01*
X203248597Y-73361505D01*
X203081505Y-73528597D01*
X202945965Y-73722169D01*
X202945964Y-73722171D01*
X202846098Y-73936335D01*
X202846094Y-73936344D01*
X202784938Y-74164586D01*
X202784936Y-74164596D01*
X202764341Y-74399999D01*
X202764341Y-74400000D01*
X202784936Y-74635403D01*
X202784938Y-74635413D01*
X202846094Y-74863655D01*
X202846096Y-74863659D01*
X202846097Y-74863663D01*
X202866430Y-74907267D01*
X202945965Y-75077830D01*
X202945967Y-75077834D01*
X203054281Y-75232521D01*
X203081501Y-75271396D01*
X203081506Y-75271402D01*
X203248597Y-75438493D01*
X203248603Y-75438498D01*
X203434158Y-75568425D01*
X203477783Y-75623002D01*
X203484977Y-75692500D01*
X203453454Y-75754855D01*
X203434158Y-75771575D01*
X203248597Y-75901505D01*
X203081505Y-76068597D01*
X202945965Y-76262169D01*
X202945964Y-76262171D01*
X202846098Y-76476335D01*
X202846094Y-76476344D01*
X202784938Y-76704586D01*
X202784936Y-76704596D01*
X202764341Y-76939999D01*
X202764341Y-76940000D01*
X202784936Y-77175403D01*
X202784938Y-77175413D01*
X202846094Y-77403655D01*
X202846096Y-77403659D01*
X202846097Y-77403663D01*
X202893615Y-77505565D01*
X202945965Y-77617830D01*
X202945967Y-77617834D01*
X203040095Y-77752262D01*
X203081505Y-77811401D01*
X203248599Y-77978495D01*
X203345384Y-78046265D01*
X203442165Y-78114032D01*
X203442167Y-78114033D01*
X203442170Y-78114035D01*
X203656337Y-78213903D01*
X203884592Y-78275063D01*
X204072918Y-78291539D01*
X204119999Y-78295659D01*
X204120000Y-78295659D01*
X204120001Y-78295659D01*
X204159234Y-78292226D01*
X204355408Y-78275063D01*
X204583663Y-78213903D01*
X204797830Y-78114035D01*
X204991401Y-77978495D01*
X205158495Y-77811401D01*
X205288425Y-77625842D01*
X205343002Y-77582217D01*
X205412500Y-77575023D01*
X205474855Y-77606546D01*
X205491575Y-77625842D01*
X205621500Y-77811395D01*
X205621505Y-77811401D01*
X205788599Y-77978495D01*
X205885384Y-78046265D01*
X205982165Y-78114032D01*
X205982167Y-78114033D01*
X205982170Y-78114035D01*
X206196337Y-78213903D01*
X206424592Y-78275063D01*
X206612918Y-78291539D01*
X206659999Y-78295659D01*
X206660000Y-78295659D01*
X206660001Y-78295659D01*
X206699234Y-78292226D01*
X206895408Y-78275063D01*
X207123663Y-78213903D01*
X207337830Y-78114035D01*
X207531401Y-77978495D01*
X207698495Y-77811401D01*
X207828425Y-77625842D01*
X207883002Y-77582217D01*
X207952500Y-77575023D01*
X208014855Y-77606546D01*
X208031575Y-77625842D01*
X208161500Y-77811395D01*
X208161505Y-77811401D01*
X208328599Y-77978495D01*
X208425384Y-78046265D01*
X208522165Y-78114032D01*
X208522167Y-78114033D01*
X208522170Y-78114035D01*
X208736337Y-78213903D01*
X208964592Y-78275063D01*
X209152918Y-78291539D01*
X209199999Y-78295659D01*
X209200000Y-78295659D01*
X209200001Y-78295659D01*
X209239234Y-78292226D01*
X209435408Y-78275063D01*
X209663663Y-78213903D01*
X209877830Y-78114035D01*
X210071401Y-77978495D01*
X210238495Y-77811401D01*
X210374035Y-77617830D01*
X210473903Y-77403663D01*
X210505725Y-77284899D01*
X210542090Y-77225240D01*
X210604936Y-77194710D01*
X210674312Y-77203004D01*
X210728190Y-77247489D01*
X210749465Y-77314041D01*
X210749500Y-77316993D01*
X210749500Y-106496519D01*
X210749305Y-106503472D01*
X210732602Y-106800893D01*
X210731045Y-106814711D01*
X210681730Y-107104953D01*
X210678636Y-107118510D01*
X210597133Y-107401413D01*
X210592540Y-107414537D01*
X210479879Y-107686527D01*
X210473846Y-107699056D01*
X210331436Y-107956726D01*
X210324038Y-107968500D01*
X210153676Y-108208604D01*
X210145006Y-108219476D01*
X209948830Y-108438997D01*
X209938997Y-108448830D01*
X209719476Y-108645006D01*
X209708604Y-108653676D01*
X209468500Y-108824038D01*
X209456726Y-108831436D01*
X209199056Y-108973846D01*
X209186527Y-108979879D01*
X208914537Y-109092540D01*
X208901413Y-109097133D01*
X208618510Y-109178636D01*
X208604953Y-109181730D01*
X208314711Y-109231045D01*
X208300893Y-109232602D01*
X208003472Y-109249305D01*
X207996519Y-109249500D01*
X129003481Y-109249500D01*
X128996528Y-109249305D01*
X128699106Y-109232602D01*
X128685288Y-109231045D01*
X128395046Y-109181730D01*
X128381489Y-109178636D01*
X128098586Y-109097133D01*
X128085462Y-109092540D01*
X127813472Y-108979879D01*
X127800943Y-108973846D01*
X127543273Y-108831436D01*
X127531499Y-108824038D01*
X127291395Y-108653676D01*
X127280523Y-108645006D01*
X127061002Y-108448830D01*
X127051169Y-108438997D01*
X126902627Y-108272779D01*
X126854993Y-108219476D01*
X126846323Y-108208604D01*
X126675961Y-107968500D01*
X126668563Y-107956726D01*
X126526153Y-107699056D01*
X126520120Y-107686527D01*
X126510468Y-107663226D01*
X126460227Y-107541932D01*
X126407459Y-107414537D01*
X126402866Y-107401413D01*
X126321363Y-107118510D01*
X126318269Y-107104953D01*
X126269889Y-106820212D01*
X126268953Y-106814703D01*
X126267397Y-106800900D01*
X126250695Y-106503471D01*
X126250500Y-106496519D01*
X126250500Y-105878711D01*
X127649500Y-105878711D01*
X127649500Y-106121288D01*
X127681161Y-106361785D01*
X127743947Y-106596104D01*
X127828773Y-106800892D01*
X127836776Y-106820212D01*
X127958064Y-107030289D01*
X127958066Y-107030292D01*
X127958067Y-107030293D01*
X128105733Y-107222736D01*
X128105739Y-107222743D01*
X128277256Y-107394260D01*
X128277262Y-107394265D01*
X128469711Y-107541936D01*
X128679788Y-107663224D01*
X128903900Y-107756054D01*
X129138211Y-107818838D01*
X129318586Y-107842584D01*
X129378711Y-107850500D01*
X129378712Y-107850500D01*
X129621289Y-107850500D01*
X129669388Y-107844167D01*
X129861789Y-107818838D01*
X130096100Y-107756054D01*
X130320212Y-107663224D01*
X130530289Y-107541936D01*
X130722738Y-107394265D01*
X130894265Y-107222738D01*
X131041936Y-107030289D01*
X131163224Y-106820212D01*
X131256054Y-106596100D01*
X131318838Y-106361789D01*
X131350500Y-106121288D01*
X131350500Y-105878712D01*
X131350500Y-105878711D01*
X205649500Y-105878711D01*
X205649500Y-106121288D01*
X205681161Y-106361785D01*
X205743947Y-106596104D01*
X205828773Y-106800892D01*
X205836776Y-106820212D01*
X205958064Y-107030289D01*
X205958066Y-107030292D01*
X205958067Y-107030293D01*
X206105733Y-107222736D01*
X206105739Y-107222743D01*
X206277256Y-107394260D01*
X206277262Y-107394265D01*
X206469711Y-107541936D01*
X206679788Y-107663224D01*
X206903900Y-107756054D01*
X207138211Y-107818838D01*
X207318586Y-107842584D01*
X207378711Y-107850500D01*
X207378712Y-107850500D01*
X207621289Y-107850500D01*
X207669388Y-107844167D01*
X207861789Y-107818838D01*
X208096100Y-107756054D01*
X208320212Y-107663224D01*
X208530289Y-107541936D01*
X208722738Y-107394265D01*
X208894265Y-107222738D01*
X209041936Y-107030289D01*
X209163224Y-106820212D01*
X209256054Y-106596100D01*
X209318838Y-106361789D01*
X209350500Y-106121288D01*
X209350500Y-105878712D01*
X209318838Y-105638211D01*
X209256054Y-105403900D01*
X209163224Y-105179788D01*
X209041936Y-104969711D01*
X208894265Y-104777262D01*
X208894260Y-104777256D01*
X208722743Y-104605739D01*
X208722736Y-104605733D01*
X208530293Y-104458067D01*
X208530292Y-104458066D01*
X208530289Y-104458064D01*
X208349279Y-104353558D01*
X208320214Y-104336777D01*
X208320205Y-104336773D01*
X208096104Y-104243947D01*
X207861785Y-104181161D01*
X207621289Y-104149500D01*
X207621288Y-104149500D01*
X207378712Y-104149500D01*
X207378711Y-104149500D01*
X207138214Y-104181161D01*
X206903895Y-104243947D01*
X206679794Y-104336773D01*
X206679785Y-104336777D01*
X206469706Y-104458067D01*
X206277263Y-104605733D01*
X206277256Y-104605739D01*
X206105739Y-104777256D01*
X206105733Y-104777263D01*
X205958067Y-104969706D01*
X205836777Y-105179785D01*
X205836773Y-105179794D01*
X205743947Y-105403895D01*
X205681161Y-105638214D01*
X205649500Y-105878711D01*
X131350500Y-105878711D01*
X131318838Y-105638211D01*
X131256054Y-105403900D01*
X131163224Y-105179788D01*
X131041936Y-104969711D01*
X130894265Y-104777262D01*
X130894260Y-104777256D01*
X130722743Y-104605739D01*
X130722736Y-104605733D01*
X130530293Y-104458067D01*
X130530292Y-104458066D01*
X130530289Y-104458064D01*
X130349279Y-104353558D01*
X130320214Y-104336777D01*
X130320205Y-104336773D01*
X130096104Y-104243947D01*
X129861785Y-104181161D01*
X129621289Y-104149500D01*
X129621288Y-104149500D01*
X129378712Y-104149500D01*
X129378711Y-104149500D01*
X129138214Y-104181161D01*
X128903895Y-104243947D01*
X128679794Y-104336773D01*
X128679785Y-104336777D01*
X128469706Y-104458067D01*
X128277263Y-104605733D01*
X128277256Y-104605739D01*
X128105739Y-104777256D01*
X128105733Y-104777263D01*
X127958067Y-104969706D01*
X127836777Y-105179785D01*
X127836773Y-105179794D01*
X127743947Y-105403895D01*
X127681161Y-105638214D01*
X127649500Y-105878711D01*
X126250500Y-105878711D01*
X126250500Y-95419999D01*
X135104341Y-95419999D01*
X135104341Y-95420000D01*
X135124936Y-95655403D01*
X135124938Y-95655413D01*
X135186094Y-95883655D01*
X135186096Y-95883659D01*
X135186097Y-95883663D01*
X135216407Y-95948663D01*
X135285965Y-96097830D01*
X135285967Y-96097834D01*
X135421501Y-96291395D01*
X135421506Y-96291402D01*
X135588597Y-96458493D01*
X135588603Y-96458498D01*
X135774158Y-96588425D01*
X135817783Y-96643002D01*
X135824977Y-96712500D01*
X135793454Y-96774855D01*
X135774158Y-96791575D01*
X135588597Y-96921505D01*
X135421505Y-97088597D01*
X135285965Y-97282169D01*
X135285964Y-97282171D01*
X135186098Y-97496335D01*
X135186094Y-97496344D01*
X135124938Y-97724586D01*
X135124936Y-97724596D01*
X135104341Y-97959999D01*
X135104341Y-97960000D01*
X135124936Y-98195403D01*
X135124938Y-98195413D01*
X135186094Y-98423655D01*
X135186096Y-98423659D01*
X135186097Y-98423663D01*
X135216407Y-98488663D01*
X135285965Y-98637830D01*
X135285967Y-98637834D01*
X135331481Y-98702834D01*
X135421505Y-98831401D01*
X135588599Y-98998495D01*
X135681426Y-99063493D01*
X135782165Y-99134032D01*
X135782167Y-99134033D01*
X135782170Y-99134035D01*
X135996337Y-99233903D01*
X135996343Y-99233904D01*
X135996344Y-99233905D01*
X136033240Y-99243791D01*
X136224592Y-99295063D01*
X136395319Y-99310000D01*
X136459999Y-99315659D01*
X136460000Y-99315659D01*
X136460001Y-99315659D01*
X136524681Y-99310000D01*
X136695408Y-99295063D01*
X136923663Y-99233903D01*
X137137830Y-99134035D01*
X137331401Y-98998495D01*
X137498495Y-98831401D01*
X137628425Y-98645842D01*
X137683002Y-98602217D01*
X137752500Y-98595023D01*
X137814855Y-98626546D01*
X137831575Y-98645842D01*
X137961500Y-98831395D01*
X137961505Y-98831401D01*
X138128599Y-98998495D01*
X138221426Y-99063493D01*
X138322165Y-99134032D01*
X138322167Y-99134033D01*
X138322170Y-99134035D01*
X138536337Y-99233903D01*
X138536343Y-99233904D01*
X138536344Y-99233905D01*
X138573240Y-99243791D01*
X138764592Y-99295063D01*
X138935319Y-99310000D01*
X138999999Y-99315659D01*
X139000000Y-99315659D01*
X139000001Y-99315659D01*
X139064681Y-99310000D01*
X139235408Y-99295063D01*
X139463663Y-99233903D01*
X139677830Y-99134035D01*
X139871401Y-98998495D01*
X140038495Y-98831401D01*
X140174035Y-98637830D01*
X140273903Y-98423663D01*
X140335063Y-98195408D01*
X140355659Y-97960000D01*
X140335063Y-97724592D01*
X140273903Y-97496337D01*
X140174035Y-97282171D01*
X140168424Y-97274158D01*
X140038496Y-97088600D01*
X139989849Y-97039953D01*
X139916567Y-96966671D01*
X139883084Y-96905351D01*
X139888068Y-96835659D01*
X139929939Y-96779725D01*
X139960915Y-96762810D01*
X140092331Y-96713796D01*
X140207546Y-96627546D01*
X140293796Y-96512331D01*
X140344091Y-96377483D01*
X140350500Y-96317873D01*
X140350500Y-95499998D01*
X140944532Y-95499998D01*
X140944532Y-95500001D01*
X140964364Y-95726686D01*
X140964366Y-95726697D01*
X141023258Y-95946488D01*
X141023261Y-95946497D01*
X141119431Y-96152732D01*
X141119432Y-96152734D01*
X141249954Y-96339141D01*
X141410858Y-96500045D01*
X141444353Y-96523498D01*
X141597266Y-96630568D01*
X141623931Y-96643002D01*
X141655275Y-96657618D01*
X141707714Y-96703791D01*
X141726866Y-96770984D01*
X141706650Y-96837865D01*
X141655275Y-96882382D01*
X141597267Y-96909431D01*
X141597265Y-96909432D01*
X141410858Y-97039954D01*
X141249954Y-97200858D01*
X141119432Y-97387265D01*
X141119431Y-97387267D01*
X141023261Y-97593502D01*
X141023258Y-97593511D01*
X140964366Y-97813302D01*
X140964364Y-97813313D01*
X140944532Y-98039998D01*
X140944532Y-98040001D01*
X140964364Y-98266686D01*
X140964366Y-98266697D01*
X141023258Y-98486488D01*
X141023261Y-98486497D01*
X141119431Y-98692732D01*
X141119432Y-98692734D01*
X141249954Y-98879141D01*
X141410858Y-99040045D01*
X141444353Y-99063498D01*
X141597266Y-99170568D01*
X141655275Y-99197618D01*
X141707714Y-99243791D01*
X141726866Y-99310984D01*
X141706650Y-99377865D01*
X141655275Y-99422382D01*
X141597267Y-99449431D01*
X141597265Y-99449432D01*
X141410858Y-99579954D01*
X141249954Y-99740858D01*
X141119432Y-99927265D01*
X141119431Y-99927267D01*
X141023261Y-100133502D01*
X141023258Y-100133511D01*
X140964366Y-100353302D01*
X140964364Y-100353313D01*
X140944532Y-100579998D01*
X140944532Y-100580001D01*
X140964364Y-100806686D01*
X140964366Y-100806697D01*
X141023258Y-101026488D01*
X141023261Y-101026497D01*
X141119431Y-101232732D01*
X141119432Y-101232734D01*
X141249954Y-101419141D01*
X141410858Y-101580045D01*
X141410861Y-101580047D01*
X141597266Y-101710568D01*
X141803504Y-101806739D01*
X142023308Y-101865635D01*
X142185230Y-101879801D01*
X142249998Y-101885468D01*
X142250000Y-101885468D01*
X142250002Y-101885468D01*
X142306673Y-101880509D01*
X142476692Y-101865635D01*
X142696496Y-101806739D01*
X142902734Y-101710568D01*
X143089139Y-101580047D01*
X143250047Y-101419139D01*
X143380568Y-101232734D01*
X143476739Y-101026496D01*
X143535635Y-100806692D01*
X143555468Y-100580000D01*
X143535635Y-100353308D01*
X143476739Y-100133504D01*
X143380568Y-99927266D01*
X143256781Y-99750478D01*
X143250045Y-99740858D01*
X143089141Y-99579954D01*
X142902734Y-99449432D01*
X142902728Y-99449429D01*
X142844725Y-99422382D01*
X142792285Y-99376210D01*
X142773133Y-99309017D01*
X142793348Y-99242135D01*
X142844725Y-99197618D01*
X142902734Y-99170568D01*
X143089139Y-99040047D01*
X143250047Y-98879139D01*
X143380568Y-98692734D01*
X143476739Y-98486496D01*
X143535635Y-98266692D01*
X143555468Y-98040000D01*
X143535635Y-97813308D01*
X143476739Y-97593504D01*
X143380568Y-97387266D01*
X143250047Y-97200861D01*
X143250045Y-97200858D01*
X143089141Y-97039954D01*
X142902734Y-96909432D01*
X142902728Y-96909429D01*
X142844725Y-96882382D01*
X142792285Y-96836210D01*
X142773133Y-96769017D01*
X142793348Y-96702135D01*
X142844725Y-96657618D01*
X142853717Y-96653425D01*
X142902734Y-96630568D01*
X143089139Y-96500047D01*
X143250047Y-96339139D01*
X143380568Y-96152734D01*
X143476739Y-95946496D01*
X143535635Y-95726692D01*
X143555468Y-95500000D01*
X143535635Y-95273308D01*
X143476739Y-95053504D01*
X143380568Y-94847266D01*
X143250047Y-94660861D01*
X143250045Y-94660858D01*
X143089143Y-94499956D01*
X143064536Y-94482726D01*
X143020912Y-94428149D01*
X143013719Y-94358650D01*
X143045241Y-94296296D01*
X143105471Y-94260882D01*
X143122404Y-94257861D01*
X143157483Y-94254091D01*
X143292331Y-94203796D01*
X143407546Y-94117546D01*
X143493796Y-94002331D01*
X143544091Y-93867483D01*
X143550500Y-93807873D01*
X143550499Y-92959998D01*
X148564532Y-92959998D01*
X148564532Y-92960001D01*
X148584364Y-93186686D01*
X148584366Y-93186697D01*
X148643258Y-93406488D01*
X148643261Y-93406497D01*
X148739431Y-93612732D01*
X148739432Y-93612734D01*
X148869954Y-93799141D01*
X149030858Y-93960045D01*
X149064353Y-93983498D01*
X149217266Y-94090568D01*
X149275275Y-94117618D01*
X149327714Y-94163791D01*
X149346866Y-94230984D01*
X149326650Y-94297865D01*
X149275275Y-94342382D01*
X149217267Y-94369431D01*
X149217265Y-94369432D01*
X149030858Y-94499954D01*
X148869954Y-94660858D01*
X148739432Y-94847265D01*
X148739431Y-94847267D01*
X148643261Y-95053502D01*
X148643258Y-95053511D01*
X148584366Y-95273302D01*
X148584364Y-95273313D01*
X148564532Y-95499998D01*
X148564532Y-95500001D01*
X148584364Y-95726686D01*
X148584366Y-95726697D01*
X148643258Y-95946488D01*
X148643261Y-95946497D01*
X148739431Y-96152732D01*
X148739432Y-96152734D01*
X148869954Y-96339141D01*
X149030858Y-96500045D01*
X149064353Y-96523498D01*
X149217266Y-96630568D01*
X149243931Y-96643002D01*
X149275275Y-96657618D01*
X149327714Y-96703791D01*
X149346866Y-96770984D01*
X149326650Y-96837865D01*
X149275275Y-96882382D01*
X149217267Y-96909431D01*
X149217265Y-96909432D01*
X149030858Y-97039954D01*
X148869954Y-97200858D01*
X148739432Y-97387265D01*
X148739431Y-97387267D01*
X148643261Y-97593502D01*
X148643258Y-97593511D01*
X148584366Y-97813302D01*
X148584364Y-97813313D01*
X148564532Y-98039998D01*
X148564532Y-98040001D01*
X148584364Y-98266686D01*
X148584366Y-98266697D01*
X148643258Y-98486488D01*
X148643261Y-98486497D01*
X148739431Y-98692732D01*
X148739432Y-98692734D01*
X148869954Y-98879141D01*
X149030858Y-99040045D01*
X149064353Y-99063498D01*
X149217266Y-99170568D01*
X149275275Y-99197618D01*
X149327714Y-99243791D01*
X149346866Y-99310984D01*
X149326650Y-99377865D01*
X149275275Y-99422382D01*
X149217267Y-99449431D01*
X149217265Y-99449432D01*
X149030858Y-99579954D01*
X148869954Y-99740858D01*
X148739432Y-99927265D01*
X148739431Y-99927267D01*
X148643261Y-100133502D01*
X148643258Y-100133511D01*
X148584366Y-100353302D01*
X148584364Y-100353313D01*
X148564532Y-100579998D01*
X148564532Y-100580001D01*
X148584364Y-100806686D01*
X148584366Y-100806697D01*
X148643258Y-101026488D01*
X148643261Y-101026497D01*
X148739431Y-101232732D01*
X148739432Y-101232734D01*
X148869954Y-101419141D01*
X149030858Y-101580045D01*
X149030861Y-101580047D01*
X149217266Y-101710568D01*
X149423504Y-101806739D01*
X149643308Y-101865635D01*
X149805230Y-101879801D01*
X149869998Y-101885468D01*
X149870000Y-101885468D01*
X149870002Y-101885468D01*
X149926673Y-101880509D01*
X150096692Y-101865635D01*
X150316496Y-101806739D01*
X150522734Y-101710568D01*
X150709139Y-101580047D01*
X150870047Y-101419139D01*
X151000568Y-101232734D01*
X151096739Y-101026496D01*
X151114557Y-100959998D01*
X157914532Y-100959998D01*
X157914532Y-100960001D01*
X157934364Y-101186686D01*
X157934366Y-101186697D01*
X157993258Y-101406488D01*
X157993261Y-101406497D01*
X158089431Y-101612732D01*
X158089432Y-101612734D01*
X158219954Y-101799141D01*
X158380858Y-101960045D01*
X158380861Y-101960047D01*
X158567266Y-102090568D01*
X158625275Y-102117618D01*
X158677714Y-102163791D01*
X158696866Y-102230984D01*
X158676650Y-102297865D01*
X158625275Y-102342382D01*
X158567267Y-102369431D01*
X158567265Y-102369432D01*
X158380858Y-102499954D01*
X158219954Y-102660858D01*
X158089432Y-102847265D01*
X158089431Y-102847267D01*
X157993261Y-103053502D01*
X157993258Y-103053511D01*
X157934366Y-103273302D01*
X157934364Y-103273313D01*
X157914532Y-103499998D01*
X157914532Y-103500001D01*
X157934364Y-103726686D01*
X157934366Y-103726697D01*
X157993258Y-103946488D01*
X157993261Y-103946497D01*
X158089431Y-104152732D01*
X158089432Y-104152734D01*
X158219954Y-104339141D01*
X158380858Y-104500045D01*
X158380861Y-104500047D01*
X158567266Y-104630568D01*
X158773504Y-104726739D01*
X158993308Y-104785635D01*
X159155230Y-104799801D01*
X159219998Y-104805468D01*
X159220000Y-104805468D01*
X159220002Y-104805468D01*
X159276673Y-104800509D01*
X159446692Y-104785635D01*
X159666496Y-104726739D01*
X159872734Y-104630568D01*
X160059139Y-104500047D01*
X160220047Y-104339139D01*
X160350568Y-104152734D01*
X160446739Y-103946496D01*
X160505635Y-103726692D01*
X160525468Y-103500000D01*
X160505635Y-103273308D01*
X160446739Y-103053504D01*
X160350568Y-102847266D01*
X160220047Y-102660861D01*
X160220045Y-102660858D01*
X160059141Y-102499954D01*
X159872734Y-102369432D01*
X159872728Y-102369429D01*
X159814725Y-102342382D01*
X159762285Y-102296210D01*
X159743133Y-102229017D01*
X159763348Y-102162135D01*
X159814725Y-102117618D01*
X159872734Y-102090568D01*
X160059139Y-101960047D01*
X160220047Y-101799139D01*
X160350568Y-101612734D01*
X160446739Y-101406496D01*
X160505635Y-101186692D01*
X160525468Y-100960000D01*
X160505635Y-100733308D01*
X160499362Y-100709895D01*
X161010000Y-100709895D01*
X165662057Y-104322663D01*
X165702931Y-104379327D01*
X165710000Y-104420597D01*
X165710000Y-105370000D01*
X170510000Y-105370000D01*
X170510000Y-104420597D01*
X170529685Y-104353558D01*
X170557941Y-104322664D01*
X174887950Y-100959998D01*
X175694532Y-100959998D01*
X175694532Y-100960001D01*
X175714364Y-101186686D01*
X175714366Y-101186697D01*
X175773258Y-101406488D01*
X175773261Y-101406497D01*
X175869431Y-101612732D01*
X175869432Y-101612734D01*
X175999954Y-101799141D01*
X176160858Y-101960045D01*
X176160861Y-101960047D01*
X176347266Y-102090568D01*
X176405275Y-102117618D01*
X176457714Y-102163791D01*
X176476866Y-102230984D01*
X176456650Y-102297865D01*
X176405275Y-102342382D01*
X176347267Y-102369431D01*
X176347265Y-102369432D01*
X176160858Y-102499954D01*
X175999954Y-102660858D01*
X175869432Y-102847265D01*
X175869431Y-102847267D01*
X175773261Y-103053502D01*
X175773258Y-103053511D01*
X175714366Y-103273302D01*
X175714364Y-103273313D01*
X175694532Y-103499998D01*
X175694532Y-103500001D01*
X175714364Y-103726686D01*
X175714366Y-103726697D01*
X175773258Y-103946488D01*
X175773261Y-103946497D01*
X175869431Y-104152732D01*
X175869432Y-104152734D01*
X175999954Y-104339141D01*
X176160858Y-104500045D01*
X176160861Y-104500047D01*
X176347266Y-104630568D01*
X176553504Y-104726739D01*
X176773308Y-104785635D01*
X176935230Y-104799801D01*
X176999998Y-104805468D01*
X177000000Y-104805468D01*
X177000002Y-104805468D01*
X177056673Y-104800509D01*
X177226692Y-104785635D01*
X177446496Y-104726739D01*
X177652734Y-104630568D01*
X177839139Y-104500047D01*
X178000047Y-104339139D01*
X178130568Y-104152734D01*
X178226739Y-103946496D01*
X178285635Y-103726692D01*
X178305468Y-103500000D01*
X178285635Y-103273308D01*
X178226739Y-103053504D01*
X178130568Y-102847266D01*
X178000047Y-102660861D01*
X178000045Y-102660858D01*
X177839141Y-102499954D01*
X177652734Y-102369432D01*
X177652728Y-102369429D01*
X177594725Y-102342382D01*
X177542285Y-102296210D01*
X177523133Y-102229017D01*
X177543348Y-102162135D01*
X177594725Y-102117618D01*
X177652734Y-102090568D01*
X177839139Y-101960047D01*
X178000047Y-101799139D01*
X178130568Y-101612734D01*
X178226739Y-101406496D01*
X178285635Y-101186692D01*
X178305468Y-100960000D01*
X178285635Y-100733308D01*
X178226739Y-100513504D01*
X178130568Y-100307266D01*
X178000047Y-100120861D01*
X178000045Y-100120858D01*
X177979183Y-100099996D01*
X194094435Y-100099996D01*
X194094435Y-100100003D01*
X194114630Y-100279249D01*
X194114631Y-100279254D01*
X194174211Y-100449523D01*
X194256196Y-100580000D01*
X194270184Y-100602262D01*
X194397738Y-100729816D01*
X194550478Y-100825789D01*
X194720745Y-100885368D01*
X194720750Y-100885369D01*
X194899996Y-100905565D01*
X194900000Y-100905565D01*
X194900004Y-100905565D01*
X195079249Y-100885369D01*
X195079252Y-100885368D01*
X195079255Y-100885368D01*
X195249522Y-100825789D01*
X195402262Y-100729816D01*
X195529816Y-100602262D01*
X195625789Y-100449522D01*
X195685368Y-100279255D01*
X195685369Y-100279249D01*
X195705565Y-100100003D01*
X195705565Y-100099996D01*
X195685369Y-99920750D01*
X195685368Y-99920745D01*
X195625788Y-99750476D01*
X195529815Y-99597737D01*
X195402262Y-99470184D01*
X195249523Y-99374211D01*
X195079254Y-99314631D01*
X195079249Y-99314630D01*
X194900004Y-99294435D01*
X194899996Y-99294435D01*
X194720750Y-99314630D01*
X194720745Y-99314631D01*
X194550476Y-99374211D01*
X194397737Y-99470184D01*
X194270184Y-99597737D01*
X194174211Y-99750476D01*
X194114631Y-99920745D01*
X194114630Y-99920750D01*
X194094435Y-100099996D01*
X177979183Y-100099996D01*
X177839141Y-99959954D01*
X177652734Y-99829432D01*
X177652732Y-99829431D01*
X177446497Y-99733261D01*
X177446488Y-99733258D01*
X177226697Y-99674366D01*
X177226693Y-99674365D01*
X177226692Y-99674365D01*
X177226691Y-99674364D01*
X177226686Y-99674364D01*
X177000002Y-99654532D01*
X176999998Y-99654532D01*
X176773313Y-99674364D01*
X176773302Y-99674366D01*
X176553511Y-99733258D01*
X176553502Y-99733261D01*
X176347267Y-99829431D01*
X176347265Y-99829432D01*
X176160858Y-99959954D01*
X175999954Y-100120858D01*
X175869432Y-100307265D01*
X175869431Y-100307267D01*
X175773261Y-100513502D01*
X175773258Y-100513511D01*
X175714366Y-100733302D01*
X175714364Y-100733313D01*
X175694532Y-100959998D01*
X174887950Y-100959998D01*
X175210000Y-100709895D01*
X175210000Y-96370000D01*
X161010000Y-96370000D01*
X161010000Y-100709895D01*
X160499362Y-100709895D01*
X160446739Y-100513504D01*
X160350568Y-100307266D01*
X160220047Y-100120861D01*
X160220045Y-100120858D01*
X160059141Y-99959954D01*
X159872734Y-99829432D01*
X159872732Y-99829431D01*
X159666497Y-99733261D01*
X159666488Y-99733258D01*
X159446697Y-99674366D01*
X159446693Y-99674365D01*
X159446692Y-99674365D01*
X159446691Y-99674364D01*
X159446686Y-99674364D01*
X159220002Y-99654532D01*
X159219998Y-99654532D01*
X158993313Y-99674364D01*
X158993302Y-99674366D01*
X158773511Y-99733258D01*
X158773502Y-99733261D01*
X158567267Y-99829431D01*
X158567265Y-99829432D01*
X158380858Y-99959954D01*
X158219954Y-100120858D01*
X158089432Y-100307265D01*
X158089431Y-100307267D01*
X157993261Y-100513502D01*
X157993258Y-100513511D01*
X157934366Y-100733302D01*
X157934364Y-100733313D01*
X157914532Y-100959998D01*
X151114557Y-100959998D01*
X151155635Y-100806692D01*
X151175468Y-100580000D01*
X151155635Y-100353308D01*
X151096739Y-100133504D01*
X151000568Y-99927266D01*
X150876781Y-99750478D01*
X150870045Y-99740858D01*
X150709141Y-99579954D01*
X150522734Y-99449432D01*
X150522728Y-99449429D01*
X150464725Y-99422382D01*
X150412285Y-99376210D01*
X150393133Y-99309017D01*
X150413348Y-99242135D01*
X150464725Y-99197618D01*
X150522734Y-99170568D01*
X150709139Y-99040047D01*
X150870047Y-98879139D01*
X151000568Y-98692734D01*
X151096739Y-98486496D01*
X151155635Y-98266692D01*
X151175468Y-98040000D01*
X151155635Y-97813308D01*
X151096739Y-97593504D01*
X151000568Y-97387266D01*
X150870047Y-97200861D01*
X150870045Y-97200858D01*
X150709141Y-97039954D01*
X150522734Y-96909432D01*
X150522728Y-96909429D01*
X150464725Y-96882382D01*
X150412285Y-96836210D01*
X150393133Y-96769017D01*
X150413348Y-96702135D01*
X150464725Y-96657618D01*
X150473717Y-96653425D01*
X150522734Y-96630568D01*
X150709139Y-96500047D01*
X150870047Y-96339139D01*
X151000568Y-96152734D01*
X151096739Y-95946496D01*
X151155635Y-95726692D01*
X151175468Y-95500000D01*
X151155635Y-95273308D01*
X151096739Y-95053504D01*
X151000568Y-94847266D01*
X150870047Y-94660861D01*
X150870045Y-94660858D01*
X150709141Y-94499954D01*
X150522734Y-94369432D01*
X150522728Y-94369429D01*
X150464725Y-94342382D01*
X150412285Y-94296210D01*
X150393133Y-94229017D01*
X150413348Y-94162135D01*
X150464725Y-94117618D01*
X150522734Y-94090568D01*
X150709139Y-93960047D01*
X150870047Y-93799139D01*
X151000568Y-93612734D01*
X151096739Y-93406496D01*
X151155635Y-93186692D01*
X151175468Y-92960000D01*
X151155635Y-92733308D01*
X151110916Y-92566415D01*
X151096741Y-92513511D01*
X151096738Y-92513502D01*
X151077836Y-92472967D01*
X151000568Y-92307266D01*
X150870047Y-92120861D01*
X150870045Y-92120858D01*
X150709141Y-91959954D01*
X150522734Y-91829432D01*
X150522732Y-91829431D01*
X150316497Y-91733261D01*
X150316488Y-91733258D01*
X150096697Y-91674366D01*
X150096693Y-91674365D01*
X150096692Y-91674365D01*
X150096691Y-91674364D01*
X150096686Y-91674364D01*
X149870002Y-91654532D01*
X149869998Y-91654532D01*
X149643313Y-91674364D01*
X149643302Y-91674366D01*
X149423511Y-91733258D01*
X149423502Y-91733261D01*
X149217267Y-91829431D01*
X149217265Y-91829432D01*
X149030858Y-91959954D01*
X148869954Y-92120858D01*
X148739432Y-92307265D01*
X148739431Y-92307267D01*
X148643261Y-92513502D01*
X148643258Y-92513511D01*
X148584366Y-92733302D01*
X148584364Y-92733313D01*
X148564532Y-92959998D01*
X143550499Y-92959998D01*
X143550499Y-92112128D01*
X143544091Y-92052517D01*
X143534476Y-92026739D01*
X143493797Y-91917671D01*
X143493793Y-91917664D01*
X143407547Y-91802455D01*
X143407544Y-91802452D01*
X143292335Y-91716206D01*
X143292328Y-91716202D01*
X143157482Y-91665908D01*
X143157483Y-91665908D01*
X143097883Y-91659501D01*
X143097881Y-91659500D01*
X143097873Y-91659500D01*
X143097864Y-91659500D01*
X141402129Y-91659500D01*
X141402123Y-91659501D01*
X141342516Y-91665908D01*
X141207671Y-91716202D01*
X141207664Y-91716206D01*
X141092455Y-91802452D01*
X141092452Y-91802455D01*
X141006206Y-91917664D01*
X141006202Y-91917671D01*
X140955908Y-92052517D01*
X140953642Y-92073599D01*
X140949501Y-92112123D01*
X140949500Y-92112135D01*
X140949500Y-93807870D01*
X140949501Y-93807876D01*
X140955908Y-93867483D01*
X141006202Y-94002328D01*
X141006206Y-94002335D01*
X141092452Y-94117544D01*
X141092455Y-94117547D01*
X141207664Y-94203793D01*
X141207671Y-94203797D01*
X141252618Y-94220561D01*
X141342517Y-94254091D01*
X141377596Y-94257862D01*
X141442144Y-94284599D01*
X141481993Y-94341991D01*
X141484488Y-94411816D01*
X141448836Y-94471905D01*
X141435464Y-94482725D01*
X141410858Y-94499954D01*
X141249954Y-94660858D01*
X141119432Y-94847265D01*
X141119431Y-94847267D01*
X141023261Y-95053502D01*
X141023258Y-95053511D01*
X140964366Y-95273302D01*
X140964364Y-95273313D01*
X140944532Y-95499998D01*
X140350500Y-95499998D01*
X140350499Y-94522128D01*
X140344091Y-94462517D01*
X140342810Y-94459083D01*
X140293797Y-94327671D01*
X140293793Y-94327664D01*
X140207547Y-94212455D01*
X140207544Y-94212452D01*
X140092335Y-94126206D01*
X140092328Y-94126202D01*
X139957482Y-94075908D01*
X139957483Y-94075908D01*
X139897883Y-94069501D01*
X139897881Y-94069500D01*
X139897873Y-94069500D01*
X139897864Y-94069500D01*
X138102129Y-94069500D01*
X138102123Y-94069501D01*
X138042516Y-94075908D01*
X137907671Y-94126202D01*
X137907664Y-94126206D01*
X137792455Y-94212452D01*
X137792452Y-94212455D01*
X137706206Y-94327664D01*
X137706203Y-94327669D01*
X137657189Y-94459083D01*
X137615317Y-94515016D01*
X137549853Y-94539433D01*
X137481580Y-94524581D01*
X137453326Y-94503430D01*
X137331402Y-94381506D01*
X137331395Y-94381501D01*
X137314157Y-94369431D01*
X137254518Y-94327671D01*
X137137834Y-94245967D01*
X137137830Y-94245965D01*
X137101485Y-94229017D01*
X136923663Y-94146097D01*
X136923659Y-94146096D01*
X136923655Y-94146094D01*
X136695413Y-94084938D01*
X136695403Y-94084936D01*
X136460001Y-94064341D01*
X136459999Y-94064341D01*
X136224596Y-94084936D01*
X136224586Y-94084938D01*
X135996344Y-94146094D01*
X135996335Y-94146098D01*
X135782171Y-94245964D01*
X135782169Y-94245965D01*
X135588597Y-94381505D01*
X135421505Y-94548597D01*
X135285965Y-94742169D01*
X135285964Y-94742171D01*
X135186098Y-94956335D01*
X135186094Y-94956344D01*
X135124938Y-95184586D01*
X135124936Y-95184596D01*
X135104341Y-95419999D01*
X126250500Y-95419999D01*
X126250500Y-88764999D01*
X133094341Y-88764999D01*
X133094341Y-88765000D01*
X133114936Y-89000403D01*
X133114938Y-89000413D01*
X133176094Y-89228655D01*
X133176096Y-89228659D01*
X133176097Y-89228663D01*
X133206407Y-89293663D01*
X133275965Y-89442830D01*
X133275967Y-89442834D01*
X133337002Y-89530000D01*
X133411501Y-89636396D01*
X133411506Y-89636402D01*
X133578597Y-89803493D01*
X133578603Y-89803498D01*
X133764158Y-89933425D01*
X133807783Y-89988002D01*
X133814977Y-90057500D01*
X133783454Y-90119855D01*
X133764158Y-90136575D01*
X133578597Y-90266505D01*
X133411505Y-90433597D01*
X133275965Y-90627169D01*
X133275964Y-90627171D01*
X133176098Y-90841335D01*
X133176094Y-90841344D01*
X133114938Y-91069586D01*
X133114936Y-91069596D01*
X133094341Y-91304999D01*
X133094341Y-91305000D01*
X133114936Y-91540403D01*
X133114938Y-91540413D01*
X133176094Y-91768655D01*
X133176096Y-91768659D01*
X133176097Y-91768663D01*
X133245578Y-91917664D01*
X133275965Y-91982830D01*
X133275967Y-91982834D01*
X133366501Y-92112129D01*
X133411505Y-92176401D01*
X133578599Y-92343495D01*
X133675384Y-92411265D01*
X133772165Y-92479032D01*
X133772167Y-92479033D01*
X133772170Y-92479035D01*
X133986337Y-92578903D01*
X134214592Y-92640063D01*
X134402918Y-92656539D01*
X134449999Y-92660659D01*
X134450000Y-92660659D01*
X134450001Y-92660659D01*
X134489234Y-92657226D01*
X134685408Y-92640063D01*
X134913663Y-92578903D01*
X135127830Y-92479035D01*
X135321401Y-92343495D01*
X135488495Y-92176401D01*
X135609358Y-92003791D01*
X135618425Y-91990842D01*
X135673002Y-91947217D01*
X135742500Y-91940023D01*
X135804855Y-91971546D01*
X135821575Y-91990842D01*
X135951500Y-92176395D01*
X135951505Y-92176401D01*
X136118599Y-92343495D01*
X136215384Y-92411265D01*
X136312165Y-92479032D01*
X136312167Y-92479033D01*
X136312170Y-92479035D01*
X136526337Y-92578903D01*
X136754592Y-92640063D01*
X136942918Y-92656539D01*
X136989999Y-92660659D01*
X136990000Y-92660659D01*
X136990001Y-92660659D01*
X137029234Y-92657226D01*
X137225408Y-92640063D01*
X137453663Y-92578903D01*
X137667830Y-92479035D01*
X137861401Y-92343495D01*
X138028495Y-92176401D01*
X138164035Y-91982830D01*
X138263903Y-91768663D01*
X138325063Y-91540408D01*
X138345659Y-91305000D01*
X138344346Y-91289998D01*
X138325063Y-91069596D01*
X138325063Y-91069592D01*
X138263903Y-90841337D01*
X138164035Y-90627171D01*
X138158425Y-90619158D01*
X138028494Y-90433597D01*
X137861402Y-90266506D01*
X137861396Y-90266501D01*
X137675842Y-90136575D01*
X137632217Y-90081998D01*
X137625023Y-90012500D01*
X137656546Y-89950145D01*
X137675842Y-89933425D01*
X137735934Y-89891348D01*
X137861401Y-89803495D01*
X138028495Y-89636401D01*
X138164035Y-89442830D01*
X138263903Y-89228663D01*
X138325063Y-89000408D01*
X138345659Y-88765000D01*
X138344346Y-88749998D01*
X138325063Y-88529596D01*
X138325063Y-88529592D01*
X138263903Y-88301337D01*
X138244626Y-88259998D01*
X157914532Y-88259998D01*
X157914532Y-88260001D01*
X157934364Y-88486686D01*
X157934366Y-88486697D01*
X157993258Y-88706488D01*
X157993261Y-88706497D01*
X158089431Y-88912732D01*
X158089432Y-88912734D01*
X158219954Y-89099141D01*
X158380858Y-89260045D01*
X158380861Y-89260047D01*
X158567266Y-89390568D01*
X158602970Y-89407217D01*
X158625275Y-89417618D01*
X158677714Y-89463791D01*
X158696866Y-89530984D01*
X158676650Y-89597865D01*
X158625275Y-89642382D01*
X158567267Y-89669431D01*
X158567265Y-89669432D01*
X158380858Y-89799954D01*
X158219954Y-89960858D01*
X158089432Y-90147265D01*
X158089431Y-90147267D01*
X157993261Y-90353502D01*
X157993258Y-90353511D01*
X157934366Y-90573302D01*
X157934364Y-90573313D01*
X157914532Y-90799998D01*
X157914532Y-90800001D01*
X157934364Y-91026686D01*
X157934366Y-91026697D01*
X157993258Y-91246488D01*
X157993261Y-91246497D01*
X158089431Y-91452732D01*
X158089432Y-91452734D01*
X158219954Y-91639141D01*
X158380858Y-91800045D01*
X158427693Y-91832839D01*
X158567266Y-91930568D01*
X158602970Y-91947217D01*
X158625275Y-91957618D01*
X158677714Y-92003791D01*
X158696866Y-92070984D01*
X158676650Y-92137865D01*
X158625275Y-92182382D01*
X158567267Y-92209431D01*
X158567265Y-92209432D01*
X158380858Y-92339954D01*
X158219954Y-92500858D01*
X158089432Y-92687265D01*
X158089431Y-92687267D01*
X157993261Y-92893502D01*
X157993258Y-92893511D01*
X157934366Y-93113302D01*
X157934364Y-93113313D01*
X157914532Y-93339998D01*
X157914532Y-93340001D01*
X157934364Y-93566686D01*
X157934366Y-93566697D01*
X157993258Y-93786488D01*
X157993261Y-93786497D01*
X158089431Y-93992732D01*
X158089432Y-93992734D01*
X158219954Y-94179141D01*
X158380858Y-94340045D01*
X158427693Y-94372839D01*
X158567266Y-94470568D01*
X158625275Y-94497618D01*
X158677714Y-94543791D01*
X158696866Y-94610984D01*
X158676650Y-94677865D01*
X158625275Y-94722382D01*
X158567267Y-94749431D01*
X158567265Y-94749432D01*
X158380858Y-94879954D01*
X158219954Y-95040858D01*
X158089432Y-95227265D01*
X158089431Y-95227267D01*
X157993261Y-95433502D01*
X157993258Y-95433511D01*
X157934366Y-95653302D01*
X157934364Y-95653313D01*
X157914532Y-95879998D01*
X157914532Y-95880001D01*
X157934364Y-96106686D01*
X157934366Y-96106697D01*
X157993258Y-96326488D01*
X157993261Y-96326497D01*
X158089431Y-96532732D01*
X158089432Y-96532734D01*
X158219954Y-96719141D01*
X158380858Y-96880045D01*
X158427693Y-96912839D01*
X158567266Y-97010568D01*
X158773504Y-97106739D01*
X158993308Y-97165635D01*
X159155230Y-97179801D01*
X159219998Y-97185468D01*
X159220000Y-97185468D01*
X159220002Y-97185468D01*
X159276673Y-97180509D01*
X159446692Y-97165635D01*
X159666496Y-97106739D01*
X159872734Y-97010568D01*
X160059139Y-96880047D01*
X160220047Y-96719139D01*
X160350568Y-96532734D01*
X160446739Y-96326496D01*
X160505635Y-96106692D01*
X160522634Y-95912384D01*
X160525468Y-95880001D01*
X160525468Y-95879998D01*
X160519801Y-95815230D01*
X160505635Y-95653308D01*
X160446739Y-95433504D01*
X160350568Y-95227266D01*
X160220047Y-95040861D01*
X160220045Y-95040858D01*
X160059141Y-94879954D01*
X159872734Y-94749432D01*
X159872728Y-94749429D01*
X159814725Y-94722382D01*
X159762285Y-94676210D01*
X159743133Y-94609017D01*
X159763348Y-94542135D01*
X159814725Y-94497618D01*
X159872734Y-94470568D01*
X160059139Y-94340047D01*
X160220047Y-94179139D01*
X160350568Y-93992734D01*
X160446739Y-93786496D01*
X160505635Y-93566692D01*
X160525468Y-93340000D01*
X160505635Y-93113308D01*
X160446739Y-92893504D01*
X160350568Y-92687266D01*
X160220047Y-92500861D01*
X160220045Y-92500858D01*
X160059141Y-92339954D01*
X159872734Y-92209432D01*
X159872728Y-92209429D01*
X159814725Y-92182382D01*
X159762285Y-92136210D01*
X159743133Y-92069017D01*
X159763348Y-92002135D01*
X159814725Y-91957618D01*
X159872734Y-91930568D01*
X160059139Y-91800047D01*
X160220047Y-91639139D01*
X160350568Y-91452734D01*
X160446739Y-91246496D01*
X160505635Y-91026692D01*
X160525468Y-90800000D01*
X160505635Y-90573308D01*
X160446739Y-90353504D01*
X160350568Y-90147266D01*
X160241947Y-89992138D01*
X160220045Y-89960858D01*
X160059141Y-89799954D01*
X159872734Y-89669432D01*
X159872728Y-89669429D01*
X159814725Y-89642382D01*
X159762285Y-89596210D01*
X159743133Y-89529017D01*
X159763348Y-89462135D01*
X159814725Y-89417618D01*
X159872734Y-89390568D01*
X160059139Y-89260047D01*
X160220047Y-89099139D01*
X160350568Y-88912734D01*
X160446739Y-88706496D01*
X160505635Y-88486692D01*
X160525468Y-88260000D01*
X160525468Y-88259998D01*
X175694532Y-88259998D01*
X175694532Y-88260001D01*
X175714364Y-88486686D01*
X175714366Y-88486697D01*
X175773258Y-88706488D01*
X175773261Y-88706497D01*
X175869431Y-88912732D01*
X175869432Y-88912734D01*
X175999954Y-89099141D01*
X176160858Y-89260045D01*
X176160861Y-89260047D01*
X176347266Y-89390568D01*
X176382970Y-89407217D01*
X176405275Y-89417618D01*
X176457714Y-89463791D01*
X176476866Y-89530984D01*
X176456650Y-89597865D01*
X176405275Y-89642382D01*
X176347267Y-89669431D01*
X176347265Y-89669432D01*
X176160858Y-89799954D01*
X175999954Y-89960858D01*
X175869432Y-90147265D01*
X175869431Y-90147267D01*
X175773261Y-90353502D01*
X175773258Y-90353511D01*
X175714366Y-90573302D01*
X175714364Y-90573313D01*
X175694532Y-90799998D01*
X175694532Y-90800001D01*
X175714364Y-91026686D01*
X175714366Y-91026697D01*
X175773258Y-91246488D01*
X175773261Y-91246497D01*
X175869431Y-91452732D01*
X175869432Y-91452734D01*
X175999954Y-91639141D01*
X176160858Y-91800045D01*
X176207693Y-91832839D01*
X176347266Y-91930568D01*
X176382970Y-91947217D01*
X176405275Y-91957618D01*
X176457714Y-92003791D01*
X176476866Y-92070984D01*
X176456650Y-92137865D01*
X176405275Y-92182382D01*
X176347267Y-92209431D01*
X176347265Y-92209432D01*
X176160858Y-92339954D01*
X175999954Y-92500858D01*
X175869432Y-92687265D01*
X175869431Y-92687267D01*
X175773261Y-92893502D01*
X175773258Y-92893511D01*
X175714366Y-93113302D01*
X175714364Y-93113313D01*
X175694532Y-93339998D01*
X175694532Y-93340001D01*
X175714364Y-93566686D01*
X175714366Y-93566697D01*
X175773258Y-93786488D01*
X175773261Y-93786497D01*
X175869431Y-93992732D01*
X175869432Y-93992734D01*
X175999954Y-94179141D01*
X176160858Y-94340045D01*
X176207693Y-94372839D01*
X176347266Y-94470568D01*
X176405275Y-94497618D01*
X176457714Y-94543791D01*
X176476866Y-94610984D01*
X176456650Y-94677865D01*
X176405275Y-94722382D01*
X176347267Y-94749431D01*
X176347265Y-94749432D01*
X176160858Y-94879954D01*
X175999954Y-95040858D01*
X175869432Y-95227265D01*
X175869431Y-95227267D01*
X175773261Y-95433502D01*
X175773258Y-95433511D01*
X175714366Y-95653302D01*
X175714364Y-95653313D01*
X175694532Y-95879998D01*
X175694532Y-95880001D01*
X175714364Y-96106686D01*
X175714366Y-96106697D01*
X175773258Y-96326488D01*
X175773261Y-96326497D01*
X175869431Y-96532732D01*
X175869432Y-96532734D01*
X175999954Y-96719141D01*
X176160858Y-96880045D01*
X176207693Y-96912839D01*
X176347266Y-97010568D01*
X176553504Y-97106739D01*
X176773308Y-97165635D01*
X176935230Y-97179801D01*
X176999998Y-97185468D01*
X177000000Y-97185468D01*
X177000002Y-97185468D01*
X177056673Y-97180509D01*
X177226692Y-97165635D01*
X177446496Y-97106739D01*
X177652734Y-97010568D01*
X177839139Y-96880047D01*
X178000047Y-96719139D01*
X178130568Y-96532734D01*
X178226739Y-96326496D01*
X178285635Y-96106692D01*
X178302634Y-95912384D01*
X178305468Y-95880001D01*
X178305468Y-95879998D01*
X178299801Y-95815230D01*
X178285635Y-95653308D01*
X178226739Y-95433504D01*
X178130568Y-95227266D01*
X178000047Y-95040861D01*
X178000045Y-95040858D01*
X177839141Y-94879954D01*
X177652734Y-94749432D01*
X177652728Y-94749429D01*
X177594725Y-94722382D01*
X177542285Y-94676210D01*
X177523133Y-94609017D01*
X177543348Y-94542135D01*
X177594725Y-94497618D01*
X177652734Y-94470568D01*
X177839139Y-94340047D01*
X178000047Y-94179139D01*
X178130568Y-93992734D01*
X178226739Y-93786496D01*
X178285635Y-93566692D01*
X178305468Y-93340000D01*
X178285635Y-93113308D01*
X178240537Y-92944999D01*
X198154341Y-92944999D01*
X198154341Y-92945000D01*
X198174936Y-93180403D01*
X198174938Y-93180413D01*
X198236094Y-93408655D01*
X198236096Y-93408659D01*
X198236097Y-93408663D01*
X198240000Y-93417032D01*
X198335965Y-93622830D01*
X198335967Y-93622834D01*
X198444281Y-93777521D01*
X198471501Y-93816396D01*
X198471506Y-93816402D01*
X198638597Y-93983493D01*
X198638603Y-93983498D01*
X198824158Y-94113425D01*
X198867783Y-94168002D01*
X198874977Y-94237500D01*
X198843454Y-94299855D01*
X198824158Y-94316575D01*
X198638597Y-94446505D01*
X198471505Y-94613597D01*
X198335965Y-94807169D01*
X198335964Y-94807171D01*
X198236098Y-95021335D01*
X198236094Y-95021344D01*
X198174938Y-95249586D01*
X198174936Y-95249596D01*
X198154341Y-95484999D01*
X198154341Y-95485000D01*
X198174936Y-95720403D01*
X198174938Y-95720413D01*
X198236094Y-95948655D01*
X198236096Y-95948659D01*
X198236097Y-95948663D01*
X198240000Y-95957032D01*
X198335965Y-96162830D01*
X198335967Y-96162834D01*
X198425987Y-96291395D01*
X198471501Y-96356396D01*
X198471506Y-96356402D01*
X198638597Y-96523493D01*
X198638603Y-96523498D01*
X198824158Y-96653425D01*
X198867783Y-96708002D01*
X198874977Y-96777500D01*
X198843454Y-96839855D01*
X198824158Y-96856575D01*
X198638597Y-96986505D01*
X198471505Y-97153597D01*
X198335965Y-97347169D01*
X198335964Y-97347171D01*
X198236098Y-97561335D01*
X198236094Y-97561344D01*
X198174938Y-97789586D01*
X198174936Y-97789596D01*
X198154341Y-98024999D01*
X198154341Y-98025000D01*
X198174936Y-98260403D01*
X198174938Y-98260413D01*
X198236094Y-98488655D01*
X198236096Y-98488659D01*
X198236097Y-98488663D01*
X198300393Y-98626546D01*
X198335965Y-98702830D01*
X198335967Y-98702834D01*
X198425987Y-98831395D01*
X198471505Y-98896401D01*
X198638599Y-99063495D01*
X198735384Y-99131265D01*
X198832165Y-99199032D01*
X198832167Y-99199033D01*
X198832170Y-99199035D01*
X199046337Y-99298903D01*
X199274592Y-99360063D01*
X199451034Y-99375500D01*
X199509999Y-99380659D01*
X199510000Y-99380659D01*
X199510001Y-99380659D01*
X199568966Y-99375500D01*
X199745408Y-99360063D01*
X199973663Y-99298903D01*
X200187830Y-99199035D01*
X200381401Y-99063495D01*
X200503329Y-98941566D01*
X200564648Y-98908084D01*
X200634340Y-98913068D01*
X200690274Y-98954939D01*
X200707189Y-98985917D01*
X200756202Y-99117328D01*
X200756206Y-99117335D01*
X200842452Y-99232544D01*
X200842455Y-99232547D01*
X200957664Y-99318793D01*
X200957671Y-99318797D01*
X201092517Y-99369091D01*
X201092516Y-99369091D01*
X201099444Y-99369835D01*
X201152127Y-99375500D01*
X202947872Y-99375499D01*
X203007483Y-99369091D01*
X203142331Y-99318796D01*
X203257546Y-99232546D01*
X203343796Y-99117331D01*
X203394091Y-98982483D01*
X203400500Y-98922873D01*
X203400499Y-97127128D01*
X203394091Y-97067517D01*
X203392810Y-97064083D01*
X203343797Y-96932671D01*
X203343793Y-96932664D01*
X203257547Y-96817455D01*
X203257544Y-96817452D01*
X203142335Y-96731206D01*
X203142328Y-96731202D01*
X203010917Y-96682189D01*
X202954983Y-96640318D01*
X202930566Y-96574853D01*
X202945418Y-96506580D01*
X202966563Y-96478332D01*
X203088495Y-96356401D01*
X203224035Y-96162830D01*
X203323903Y-95948663D01*
X203385063Y-95720408D01*
X203405659Y-95485000D01*
X203385063Y-95249592D01*
X203332522Y-95053504D01*
X203323905Y-95021344D01*
X203323904Y-95021343D01*
X203323903Y-95021337D01*
X203224035Y-94807171D01*
X203218425Y-94799158D01*
X203088494Y-94613597D01*
X202921402Y-94446506D01*
X202921396Y-94446501D01*
X202735842Y-94316575D01*
X202692217Y-94261998D01*
X202685023Y-94192500D01*
X202716546Y-94130145D01*
X202735842Y-94113425D01*
X202768486Y-94090567D01*
X202921401Y-93983495D01*
X203088495Y-93816401D01*
X203224035Y-93622830D01*
X203323903Y-93408663D01*
X203385063Y-93180408D01*
X203405659Y-92945000D01*
X203385063Y-92709592D01*
X203332522Y-92513504D01*
X203323905Y-92481344D01*
X203323904Y-92481343D01*
X203323903Y-92481337D01*
X203224035Y-92267171D01*
X203218425Y-92259158D01*
X203088494Y-92073597D01*
X202921402Y-91906506D01*
X202921395Y-91906501D01*
X202727834Y-91770967D01*
X202727830Y-91770965D01*
X202727828Y-91770964D01*
X202513663Y-91671097D01*
X202513659Y-91671096D01*
X202513655Y-91671094D01*
X202285413Y-91609938D01*
X202285403Y-91609936D01*
X202050001Y-91589341D01*
X202049999Y-91589341D01*
X201814596Y-91609936D01*
X201814586Y-91609938D01*
X201586344Y-91671094D01*
X201586335Y-91671098D01*
X201372171Y-91770964D01*
X201372169Y-91770965D01*
X201178597Y-91906505D01*
X201011505Y-92073597D01*
X200881575Y-92259158D01*
X200826998Y-92302783D01*
X200757500Y-92309977D01*
X200695145Y-92278454D01*
X200678425Y-92259158D01*
X200548494Y-92073597D01*
X200381402Y-91906506D01*
X200381395Y-91906501D01*
X200187834Y-91770967D01*
X200187830Y-91770965D01*
X200187828Y-91770964D01*
X199973663Y-91671097D01*
X199973659Y-91671096D01*
X199973655Y-91671094D01*
X199745413Y-91609938D01*
X199745403Y-91609936D01*
X199510001Y-91589341D01*
X199509999Y-91589341D01*
X199274596Y-91609936D01*
X199274586Y-91609938D01*
X199046344Y-91671094D01*
X199046335Y-91671098D01*
X198832171Y-91770964D01*
X198832169Y-91770965D01*
X198638597Y-91906505D01*
X198471505Y-92073597D01*
X198335965Y-92267169D01*
X198335964Y-92267171D01*
X198264434Y-92420568D01*
X198237171Y-92479035D01*
X198236098Y-92481335D01*
X198236094Y-92481344D01*
X198174938Y-92709586D01*
X198174936Y-92709596D01*
X198154341Y-92944999D01*
X178240537Y-92944999D01*
X178226739Y-92893504D01*
X178130568Y-92687266D01*
X178000047Y-92500861D01*
X178000045Y-92500858D01*
X177839141Y-92339954D01*
X177652734Y-92209432D01*
X177652728Y-92209429D01*
X177594725Y-92182382D01*
X177542285Y-92136210D01*
X177523133Y-92069017D01*
X177543348Y-92002135D01*
X177594725Y-91957618D01*
X177652734Y-91930568D01*
X177839139Y-91800047D01*
X178000047Y-91639139D01*
X178130568Y-91452734D01*
X178226739Y-91246496D01*
X178285635Y-91026692D01*
X178305468Y-90800000D01*
X178285635Y-90573308D01*
X178226739Y-90353504D01*
X178130568Y-90147266D01*
X178021947Y-89992138D01*
X178000045Y-89960858D01*
X177839141Y-89799954D01*
X177652734Y-89669432D01*
X177652728Y-89669429D01*
X177594725Y-89642382D01*
X177542285Y-89596210D01*
X177523133Y-89529017D01*
X177543348Y-89462135D01*
X177594725Y-89417618D01*
X177652734Y-89390568D01*
X177839139Y-89260047D01*
X178000047Y-89099139D01*
X178130568Y-88912734D01*
X178226739Y-88706496D01*
X178285635Y-88486692D01*
X178305468Y-88260000D01*
X178285635Y-88033308D01*
X178226739Y-87813504D01*
X178130568Y-87607266D01*
X178008229Y-87432546D01*
X178000045Y-87420858D01*
X177839141Y-87259954D01*
X177652734Y-87129432D01*
X177652732Y-87129431D01*
X177446497Y-87033261D01*
X177446488Y-87033258D01*
X177226697Y-86974366D01*
X177226693Y-86974365D01*
X177226692Y-86974365D01*
X177226691Y-86974364D01*
X177226686Y-86974364D01*
X177000002Y-86954532D01*
X176999998Y-86954532D01*
X176773313Y-86974364D01*
X176773302Y-86974366D01*
X176553511Y-87033258D01*
X176553502Y-87033261D01*
X176347267Y-87129431D01*
X176347265Y-87129432D01*
X176160858Y-87259954D01*
X175999954Y-87420858D01*
X175869432Y-87607265D01*
X175869431Y-87607267D01*
X175773261Y-87813502D01*
X175773258Y-87813511D01*
X175714366Y-88033302D01*
X175714364Y-88033313D01*
X175694532Y-88259998D01*
X160525468Y-88259998D01*
X160505635Y-88033308D01*
X160446739Y-87813504D01*
X160350568Y-87607266D01*
X160228229Y-87432546D01*
X160220045Y-87420858D01*
X160059141Y-87259954D01*
X159872734Y-87129432D01*
X159872732Y-87129431D01*
X159666497Y-87033261D01*
X159666488Y-87033258D01*
X159446697Y-86974366D01*
X159446693Y-86974365D01*
X159446692Y-86974365D01*
X159446691Y-86974364D01*
X159446686Y-86974364D01*
X159220002Y-86954532D01*
X159219998Y-86954532D01*
X158993313Y-86974364D01*
X158993302Y-86974366D01*
X158773511Y-87033258D01*
X158773502Y-87033261D01*
X158567267Y-87129431D01*
X158567265Y-87129432D01*
X158380858Y-87259954D01*
X158219954Y-87420858D01*
X158089432Y-87607265D01*
X158089431Y-87607267D01*
X157993261Y-87813502D01*
X157993258Y-87813511D01*
X157934366Y-88033302D01*
X157934364Y-88033313D01*
X157914532Y-88259998D01*
X138244626Y-88259998D01*
X138164035Y-88087171D01*
X138158425Y-88079158D01*
X138028494Y-87893597D01*
X137861402Y-87726506D01*
X137861396Y-87726501D01*
X137675842Y-87596575D01*
X137632217Y-87541998D01*
X137625023Y-87472500D01*
X137656546Y-87410145D01*
X137675842Y-87393425D01*
X137745501Y-87344649D01*
X137861401Y-87263495D01*
X138028495Y-87096401D01*
X138164035Y-86902830D01*
X138263903Y-86688663D01*
X138325063Y-86460408D01*
X138345659Y-86225000D01*
X138344346Y-86209998D01*
X138325063Y-85989596D01*
X138325063Y-85989592D01*
X138263903Y-85761337D01*
X138164035Y-85547171D01*
X138074009Y-85418599D01*
X138028494Y-85353597D01*
X137861402Y-85186506D01*
X137861395Y-85186501D01*
X137667834Y-85050967D01*
X137667830Y-85050965D01*
X137667828Y-85050964D01*
X137453663Y-84951097D01*
X137453659Y-84951096D01*
X137453655Y-84951094D01*
X137225413Y-84889938D01*
X137225403Y-84889936D01*
X136990001Y-84869341D01*
X136989999Y-84869341D01*
X136754596Y-84889936D01*
X136754586Y-84889938D01*
X136526344Y-84951094D01*
X136526335Y-84951098D01*
X136312171Y-85050964D01*
X136312169Y-85050965D01*
X136118600Y-85186503D01*
X135996673Y-85308430D01*
X135935350Y-85341914D01*
X135865658Y-85336930D01*
X135809725Y-85295058D01*
X135792810Y-85264081D01*
X135743797Y-85132671D01*
X135743793Y-85132664D01*
X135657547Y-85017455D01*
X135657544Y-85017452D01*
X135542335Y-84931206D01*
X135542328Y-84931202D01*
X135407482Y-84880908D01*
X135407483Y-84880908D01*
X135347883Y-84874501D01*
X135347881Y-84874500D01*
X135347873Y-84874500D01*
X135347864Y-84874500D01*
X133552129Y-84874500D01*
X133552123Y-84874501D01*
X133492516Y-84880908D01*
X133357671Y-84931202D01*
X133357664Y-84931206D01*
X133242455Y-85017452D01*
X133242452Y-85017455D01*
X133156206Y-85132664D01*
X133156202Y-85132671D01*
X133105908Y-85267517D01*
X133099501Y-85327116D01*
X133099500Y-85327135D01*
X133099500Y-87122870D01*
X133099501Y-87122876D01*
X133105908Y-87182483D01*
X133156202Y-87317328D01*
X133156206Y-87317335D01*
X133242452Y-87432544D01*
X133242455Y-87432547D01*
X133357664Y-87518793D01*
X133357671Y-87518797D01*
X133489081Y-87567810D01*
X133545015Y-87609681D01*
X133569432Y-87675145D01*
X133554580Y-87743418D01*
X133533430Y-87771673D01*
X133411503Y-87893600D01*
X133275965Y-88087169D01*
X133275964Y-88087171D01*
X133176098Y-88301335D01*
X133176094Y-88301344D01*
X133114938Y-88529586D01*
X133114936Y-88529596D01*
X133094341Y-88764999D01*
X126250500Y-88764999D01*
X126250500Y-82399996D01*
X130694435Y-82399996D01*
X130694435Y-82400003D01*
X130714630Y-82579249D01*
X130714631Y-82579254D01*
X130774211Y-82749523D01*
X130870184Y-82902262D01*
X130997738Y-83029816D01*
X131150478Y-83125789D01*
X131305398Y-83179998D01*
X131320745Y-83185368D01*
X131320750Y-83185369D01*
X131499996Y-83205565D01*
X131500000Y-83205565D01*
X131500004Y-83205565D01*
X131679249Y-83185369D01*
X131679252Y-83185368D01*
X131679255Y-83185368D01*
X131849522Y-83125789D01*
X131890571Y-83099996D01*
X139994435Y-83099996D01*
X139994435Y-83100003D01*
X140014630Y-83279249D01*
X140014631Y-83279254D01*
X140074211Y-83449523D01*
X140170184Y-83602262D01*
X140297738Y-83729816D01*
X140450478Y-83825789D01*
X140470326Y-83832734D01*
X140620745Y-83885368D01*
X140620750Y-83885369D01*
X140799996Y-83905565D01*
X140800000Y-83905565D01*
X140800004Y-83905565D01*
X140979249Y-83885369D01*
X140979252Y-83885368D01*
X140979255Y-83885368D01*
X141149522Y-83825789D01*
X141302262Y-83729816D01*
X141429816Y-83602262D01*
X141525789Y-83449522D01*
X141585368Y-83279255D01*
X141593671Y-83205565D01*
X141605565Y-83100003D01*
X141605565Y-83099996D01*
X141585369Y-82920750D01*
X141585368Y-82920745D01*
X141525789Y-82750478D01*
X141525188Y-82749522D01*
X141429815Y-82597737D01*
X141302262Y-82470184D01*
X141149523Y-82374211D01*
X140979254Y-82314631D01*
X140979249Y-82314630D01*
X140800004Y-82294435D01*
X140799996Y-82294435D01*
X140620750Y-82314630D01*
X140620745Y-82314631D01*
X140450476Y-82374211D01*
X140297737Y-82470184D01*
X140170184Y-82597737D01*
X140074211Y-82750476D01*
X140014631Y-82920745D01*
X140014630Y-82920750D01*
X139994435Y-83099996D01*
X131890571Y-83099996D01*
X132002262Y-83029816D01*
X132129816Y-82902262D01*
X132225789Y-82749522D01*
X132285368Y-82579255D01*
X132291226Y-82527265D01*
X132305565Y-82400003D01*
X132305565Y-82399996D01*
X132285369Y-82220750D01*
X132285368Y-82220745D01*
X132225788Y-82050476D01*
X132138139Y-81910984D01*
X132129816Y-81897738D01*
X132002262Y-81770184D01*
X131849523Y-81674211D01*
X131679254Y-81614631D01*
X131679249Y-81614630D01*
X131500004Y-81594435D01*
X131499996Y-81594435D01*
X131320750Y-81614630D01*
X131320745Y-81614631D01*
X131150476Y-81674211D01*
X130997737Y-81770184D01*
X130870184Y-81897737D01*
X130774211Y-82050476D01*
X130714631Y-82220745D01*
X130714630Y-82220750D01*
X130694435Y-82399996D01*
X126250500Y-82399996D01*
X126250500Y-80599996D01*
X132594435Y-80599996D01*
X132594435Y-80600003D01*
X132614630Y-80779249D01*
X132614631Y-80779254D01*
X132674211Y-80949523D01*
X132760278Y-81086497D01*
X132770184Y-81102262D01*
X132897738Y-81229816D01*
X133050478Y-81325789D01*
X133220745Y-81385368D01*
X133220750Y-81385369D01*
X133399996Y-81405565D01*
X133400000Y-81405565D01*
X133400004Y-81405565D01*
X133579249Y-81385369D01*
X133579252Y-81385368D01*
X133579255Y-81385368D01*
X133749522Y-81325789D01*
X133902262Y-81229816D01*
X134029816Y-81102262D01*
X134125789Y-80949522D01*
X134185368Y-80779255D01*
X134201058Y-80640000D01*
X134205565Y-80600003D01*
X134205565Y-80599996D01*
X134185369Y-80420750D01*
X134185368Y-80420745D01*
X134125788Y-80250476D01*
X134029815Y-80097737D01*
X133902262Y-79970184D01*
X133749523Y-79874211D01*
X133579254Y-79814631D01*
X133579249Y-79814630D01*
X133400004Y-79794435D01*
X133399996Y-79794435D01*
X133220750Y-79814630D01*
X133220745Y-79814631D01*
X133050476Y-79874211D01*
X132897737Y-79970184D01*
X132770184Y-80097737D01*
X132674211Y-80250476D01*
X132614631Y-80420745D01*
X132614630Y-80420750D01*
X132594435Y-80599996D01*
X126250500Y-80599996D01*
X126250500Y-72729999D01*
X135104341Y-72729999D01*
X135104341Y-72730000D01*
X135124936Y-72965403D01*
X135124938Y-72965413D01*
X135186094Y-73193655D01*
X135186096Y-73193659D01*
X135186097Y-73193663D01*
X135264361Y-73361501D01*
X135285965Y-73407830D01*
X135285967Y-73407834D01*
X135421501Y-73601395D01*
X135421506Y-73601402D01*
X135588597Y-73768493D01*
X135588603Y-73768498D01*
X135774158Y-73898425D01*
X135817783Y-73953002D01*
X135824977Y-74022500D01*
X135793454Y-74084855D01*
X135774158Y-74101575D01*
X135588597Y-74231505D01*
X135421505Y-74398597D01*
X135285965Y-74592169D01*
X135285964Y-74592171D01*
X135186098Y-74806335D01*
X135186094Y-74806344D01*
X135124938Y-75034586D01*
X135124936Y-75034596D01*
X135104341Y-75269999D01*
X135104341Y-75270000D01*
X135124936Y-75505403D01*
X135124938Y-75505413D01*
X135186094Y-75733655D01*
X135186096Y-75733659D01*
X135186097Y-75733663D01*
X135272250Y-75918418D01*
X135285965Y-75947830D01*
X135285967Y-75947834D01*
X135327043Y-76006496D01*
X135421505Y-76141401D01*
X135588599Y-76308495D01*
X135648554Y-76350476D01*
X135782165Y-76444032D01*
X135782167Y-76444033D01*
X135782170Y-76444035D01*
X135996337Y-76543903D01*
X135996343Y-76543904D01*
X135996344Y-76543905D01*
X136033240Y-76553791D01*
X136224592Y-76605063D01*
X136395319Y-76620000D01*
X136459999Y-76625659D01*
X136460000Y-76625659D01*
X136460001Y-76625659D01*
X136524681Y-76620000D01*
X136695408Y-76605063D01*
X136923663Y-76543903D01*
X137137830Y-76444035D01*
X137331401Y-76308495D01*
X137498495Y-76141401D01*
X137628425Y-75955842D01*
X137683002Y-75912217D01*
X137752500Y-75905023D01*
X137814855Y-75936546D01*
X137831575Y-75955842D01*
X137961500Y-76141395D01*
X137961505Y-76141401D01*
X138128599Y-76308495D01*
X138188554Y-76350476D01*
X138322165Y-76444032D01*
X138322167Y-76444033D01*
X138322170Y-76444035D01*
X138536337Y-76543903D01*
X138536343Y-76543904D01*
X138536344Y-76543905D01*
X138573240Y-76553791D01*
X138764592Y-76605063D01*
X138935319Y-76620000D01*
X138999999Y-76625659D01*
X139000000Y-76625659D01*
X139000001Y-76625659D01*
X139064681Y-76620000D01*
X139235408Y-76605063D01*
X139463663Y-76543903D01*
X139677830Y-76444035D01*
X139871401Y-76308495D01*
X140038495Y-76141401D01*
X140174035Y-75947830D01*
X140273903Y-75733663D01*
X140335063Y-75505408D01*
X140355659Y-75270000D01*
X140335063Y-75034592D01*
X140273903Y-74806337D01*
X140174035Y-74592171D01*
X140168424Y-74584158D01*
X140038496Y-74398600D01*
X139989849Y-74349953D01*
X139916567Y-74276671D01*
X139883084Y-74215351D01*
X139888068Y-74145659D01*
X139929939Y-74089725D01*
X139960915Y-74072810D01*
X140092331Y-74023796D01*
X140207546Y-73937546D01*
X140293796Y-73822331D01*
X140344091Y-73687483D01*
X140350500Y-73627873D01*
X140350500Y-72809998D01*
X140944532Y-72809998D01*
X140944532Y-72810001D01*
X140964364Y-73036686D01*
X140964366Y-73036697D01*
X141023258Y-73256488D01*
X141023261Y-73256497D01*
X141119431Y-73462732D01*
X141119432Y-73462734D01*
X141249954Y-73649141D01*
X141410858Y-73810045D01*
X141428410Y-73822335D01*
X141597266Y-73940568D01*
X141623931Y-73953002D01*
X141655275Y-73967618D01*
X141707714Y-74013791D01*
X141726866Y-74080984D01*
X141706650Y-74147865D01*
X141655275Y-74192382D01*
X141597267Y-74219431D01*
X141597265Y-74219432D01*
X141410858Y-74349954D01*
X141249954Y-74510858D01*
X141119432Y-74697265D01*
X141119431Y-74697267D01*
X141023261Y-74903502D01*
X141023258Y-74903511D01*
X140964366Y-75123302D01*
X140964364Y-75123313D01*
X140944532Y-75349998D01*
X140944532Y-75350001D01*
X140964364Y-75576686D01*
X140964366Y-75576697D01*
X141023258Y-75796488D01*
X141023261Y-75796497D01*
X141119431Y-76002732D01*
X141119432Y-76002734D01*
X141249954Y-76189141D01*
X141410858Y-76350045D01*
X141457693Y-76382839D01*
X141597266Y-76480568D01*
X141655275Y-76507618D01*
X141707714Y-76553791D01*
X141726866Y-76620984D01*
X141706650Y-76687865D01*
X141655275Y-76732382D01*
X141597267Y-76759431D01*
X141597265Y-76759432D01*
X141410858Y-76889954D01*
X141249954Y-77050858D01*
X141119432Y-77237265D01*
X141119431Y-77237267D01*
X141023261Y-77443502D01*
X141023258Y-77443511D01*
X140964366Y-77663302D01*
X140964364Y-77663313D01*
X140944532Y-77889998D01*
X140944532Y-77890001D01*
X140964364Y-78116686D01*
X140964366Y-78116697D01*
X141023258Y-78336488D01*
X141023261Y-78336497D01*
X141119431Y-78542732D01*
X141119432Y-78542734D01*
X141249954Y-78729141D01*
X141410858Y-78890045D01*
X141410861Y-78890047D01*
X141597266Y-79020568D01*
X141803504Y-79116739D01*
X142023308Y-79175635D01*
X142185230Y-79189801D01*
X142249998Y-79195468D01*
X142250000Y-79195468D01*
X142250002Y-79195468D01*
X142306673Y-79190509D01*
X142476692Y-79175635D01*
X142696496Y-79116739D01*
X142902734Y-79020568D01*
X143089139Y-78890047D01*
X143250047Y-78729139D01*
X143380568Y-78542734D01*
X143476739Y-78336496D01*
X143535635Y-78116692D01*
X143555468Y-77890000D01*
X143535635Y-77663308D01*
X143476739Y-77443504D01*
X143380568Y-77237266D01*
X143250047Y-77050861D01*
X143250045Y-77050858D01*
X143089141Y-76889954D01*
X142902734Y-76759432D01*
X142902728Y-76759429D01*
X142844725Y-76732382D01*
X142792285Y-76686210D01*
X142773133Y-76619017D01*
X142793348Y-76552135D01*
X142844725Y-76507618D01*
X142902734Y-76480568D01*
X143089139Y-76350047D01*
X143250047Y-76189139D01*
X143380568Y-76002734D01*
X143476739Y-75796496D01*
X143535635Y-75576692D01*
X143555468Y-75350000D01*
X143550907Y-75297873D01*
X143548469Y-75269999D01*
X143535635Y-75123308D01*
X143476739Y-74903504D01*
X143380568Y-74697266D01*
X143250047Y-74510861D01*
X143250045Y-74510858D01*
X143089141Y-74349954D01*
X142902734Y-74219432D01*
X142902728Y-74219429D01*
X142844725Y-74192382D01*
X142792285Y-74146210D01*
X142773133Y-74079017D01*
X142793348Y-74012135D01*
X142844725Y-73967618D01*
X142902734Y-73940568D01*
X143089139Y-73810047D01*
X143250047Y-73649139D01*
X143380568Y-73462734D01*
X143476739Y-73256496D01*
X143535635Y-73036692D01*
X143555468Y-72810000D01*
X143535635Y-72583308D01*
X143476739Y-72363504D01*
X143380568Y-72157266D01*
X143250047Y-71970861D01*
X143250045Y-71970858D01*
X143089143Y-71809956D01*
X143064536Y-71792726D01*
X143020912Y-71738149D01*
X143013719Y-71668650D01*
X143045241Y-71606296D01*
X143105471Y-71570882D01*
X143122404Y-71567861D01*
X143157483Y-71564091D01*
X143292331Y-71513796D01*
X143407546Y-71427546D01*
X143493796Y-71312331D01*
X143544091Y-71177483D01*
X143550500Y-71117873D01*
X143550499Y-70269998D01*
X148564532Y-70269998D01*
X148564532Y-70270001D01*
X148584364Y-70496686D01*
X148584366Y-70496697D01*
X148643258Y-70716488D01*
X148643261Y-70716497D01*
X148739431Y-70922732D01*
X148739432Y-70922734D01*
X148869954Y-71109141D01*
X149030858Y-71270045D01*
X149030861Y-71270047D01*
X149217266Y-71400568D01*
X149275275Y-71427618D01*
X149327714Y-71473791D01*
X149346866Y-71540984D01*
X149326650Y-71607865D01*
X149275275Y-71652382D01*
X149217267Y-71679431D01*
X149217265Y-71679432D01*
X149030858Y-71809954D01*
X148869954Y-71970858D01*
X148739432Y-72157265D01*
X148739431Y-72157267D01*
X148643261Y-72363502D01*
X148643258Y-72363511D01*
X148584366Y-72583302D01*
X148584364Y-72583313D01*
X148564532Y-72809998D01*
X148564532Y-72810001D01*
X148584364Y-73036686D01*
X148584366Y-73036697D01*
X148643258Y-73256488D01*
X148643261Y-73256497D01*
X148739431Y-73462732D01*
X148739432Y-73462734D01*
X148869954Y-73649141D01*
X149030858Y-73810045D01*
X149048410Y-73822335D01*
X149217266Y-73940568D01*
X149243931Y-73953002D01*
X149275275Y-73967618D01*
X149327714Y-74013791D01*
X149346866Y-74080984D01*
X149326650Y-74147865D01*
X149275275Y-74192382D01*
X149217267Y-74219431D01*
X149217265Y-74219432D01*
X149030858Y-74349954D01*
X148869954Y-74510858D01*
X148739432Y-74697265D01*
X148739431Y-74697267D01*
X148643261Y-74903502D01*
X148643258Y-74903511D01*
X148584366Y-75123302D01*
X148584364Y-75123313D01*
X148564532Y-75349998D01*
X148564532Y-75350001D01*
X148584364Y-75576686D01*
X148584366Y-75576697D01*
X148643258Y-75796488D01*
X148643261Y-75796497D01*
X148739431Y-76002732D01*
X148739432Y-76002734D01*
X148869954Y-76189141D01*
X149030858Y-76350045D01*
X149077693Y-76382839D01*
X149217266Y-76480568D01*
X149275275Y-76507618D01*
X149327714Y-76553791D01*
X149346866Y-76620984D01*
X149326650Y-76687865D01*
X149275275Y-76732382D01*
X149217267Y-76759431D01*
X149217265Y-76759432D01*
X149030858Y-76889954D01*
X148869954Y-77050858D01*
X148739432Y-77237265D01*
X148739431Y-77237267D01*
X148643261Y-77443502D01*
X148643258Y-77443511D01*
X148584366Y-77663302D01*
X148584364Y-77663313D01*
X148564532Y-77889998D01*
X148564532Y-77890001D01*
X148584364Y-78116686D01*
X148584366Y-78116697D01*
X148643258Y-78336488D01*
X148643261Y-78336497D01*
X148739431Y-78542732D01*
X148739432Y-78542734D01*
X148869954Y-78729141D01*
X149030858Y-78890045D01*
X149030861Y-78890047D01*
X149217266Y-79020568D01*
X149423504Y-79116739D01*
X149643308Y-79175635D01*
X149805230Y-79189801D01*
X149869998Y-79195468D01*
X149870000Y-79195468D01*
X149870002Y-79195468D01*
X149926673Y-79190509D01*
X150096692Y-79175635D01*
X150316496Y-79116739D01*
X150522734Y-79020568D01*
X150709139Y-78890047D01*
X150870047Y-78729139D01*
X151000568Y-78542734D01*
X151096739Y-78336496D01*
X151155635Y-78116692D01*
X151175468Y-77890000D01*
X151155635Y-77663308D01*
X151096739Y-77443504D01*
X151000568Y-77237266D01*
X150870047Y-77050861D01*
X150870045Y-77050858D01*
X150709141Y-76889954D01*
X150522734Y-76759432D01*
X150522728Y-76759429D01*
X150464725Y-76732382D01*
X150412285Y-76686210D01*
X150393133Y-76619017D01*
X150413348Y-76552135D01*
X150464725Y-76507618D01*
X150522734Y-76480568D01*
X150709139Y-76350047D01*
X150870047Y-76189139D01*
X151000568Y-76002734D01*
X151096739Y-75796496D01*
X151155635Y-75576692D01*
X151157096Y-75559998D01*
X157914532Y-75559998D01*
X157914532Y-75560001D01*
X157934364Y-75786686D01*
X157934366Y-75786697D01*
X157993258Y-76006488D01*
X157993261Y-76006497D01*
X158089431Y-76212732D01*
X158089432Y-76212734D01*
X158219954Y-76399141D01*
X158380858Y-76560045D01*
X158380861Y-76560047D01*
X158567266Y-76690568D01*
X158625275Y-76717618D01*
X158677714Y-76763791D01*
X158696866Y-76830984D01*
X158676650Y-76897865D01*
X158625275Y-76942382D01*
X158567267Y-76969431D01*
X158567265Y-76969432D01*
X158380858Y-77099954D01*
X158219954Y-77260858D01*
X158089432Y-77447265D01*
X158089431Y-77447267D01*
X157993261Y-77653502D01*
X157993258Y-77653511D01*
X157934366Y-77873302D01*
X157934364Y-77873313D01*
X157914532Y-78099998D01*
X157914532Y-78100001D01*
X157934364Y-78326686D01*
X157934366Y-78326697D01*
X157993258Y-78546488D01*
X157993261Y-78546497D01*
X158089431Y-78752732D01*
X158089432Y-78752734D01*
X158219954Y-78939141D01*
X158380858Y-79100045D01*
X158380861Y-79100047D01*
X158567266Y-79230568D01*
X158625275Y-79257618D01*
X158677714Y-79303791D01*
X158696866Y-79370984D01*
X158676650Y-79437865D01*
X158625275Y-79482382D01*
X158567267Y-79509431D01*
X158567265Y-79509432D01*
X158380858Y-79639954D01*
X158219954Y-79800858D01*
X158089432Y-79987265D01*
X158089431Y-79987267D01*
X157993261Y-80193502D01*
X157993258Y-80193511D01*
X157934366Y-80413302D01*
X157934364Y-80413313D01*
X157914532Y-80639998D01*
X157914532Y-80640001D01*
X157934364Y-80866686D01*
X157934366Y-80866697D01*
X157993258Y-81086488D01*
X157993261Y-81086497D01*
X158089431Y-81292732D01*
X158089432Y-81292734D01*
X158219954Y-81479141D01*
X158380858Y-81640045D01*
X158380861Y-81640047D01*
X158567266Y-81770568D01*
X158625275Y-81797618D01*
X158677714Y-81843791D01*
X158696866Y-81910984D01*
X158676650Y-81977865D01*
X158625275Y-82022382D01*
X158567267Y-82049431D01*
X158567265Y-82049432D01*
X158380858Y-82179954D01*
X158219954Y-82340858D01*
X158089432Y-82527265D01*
X158089431Y-82527267D01*
X157993261Y-82733502D01*
X157993258Y-82733511D01*
X157934366Y-82953302D01*
X157934364Y-82953313D01*
X157914532Y-83179998D01*
X157914532Y-83180001D01*
X157934364Y-83406686D01*
X157934366Y-83406697D01*
X157993258Y-83626488D01*
X157993261Y-83626497D01*
X158089431Y-83832732D01*
X158089432Y-83832734D01*
X158219954Y-84019141D01*
X158380858Y-84180045D01*
X158380861Y-84180047D01*
X158567266Y-84310568D01*
X158773504Y-84406739D01*
X158993308Y-84465635D01*
X159155230Y-84479801D01*
X159219998Y-84485468D01*
X159220000Y-84485468D01*
X159220002Y-84485468D01*
X159276673Y-84480509D01*
X159446692Y-84465635D01*
X159666496Y-84406739D01*
X159872734Y-84310568D01*
X160059139Y-84180047D01*
X160220047Y-84019139D01*
X160350568Y-83832734D01*
X160446739Y-83626496D01*
X160505635Y-83406692D01*
X160525468Y-83180000D01*
X160505635Y-82953308D01*
X160446739Y-82733504D01*
X160350568Y-82527266D01*
X160243399Y-82374211D01*
X160220045Y-82340858D01*
X160059141Y-82179954D01*
X159872734Y-82049432D01*
X159872728Y-82049429D01*
X159814725Y-82022382D01*
X159762285Y-81976210D01*
X159743133Y-81909017D01*
X159763348Y-81842135D01*
X159814725Y-81797618D01*
X159872734Y-81770568D01*
X160059139Y-81640047D01*
X160220047Y-81479139D01*
X160350568Y-81292734D01*
X160446739Y-81086496D01*
X160505635Y-80866692D01*
X160525468Y-80640000D01*
X160521968Y-80600000D01*
X160506286Y-80420750D01*
X160505635Y-80413308D01*
X160446739Y-80193504D01*
X160350568Y-79987266D01*
X160252839Y-79847693D01*
X160220045Y-79800858D01*
X160059141Y-79639954D01*
X159872734Y-79509432D01*
X159872728Y-79509429D01*
X159814725Y-79482382D01*
X159762285Y-79436210D01*
X159743133Y-79369017D01*
X159763348Y-79302135D01*
X159814725Y-79257618D01*
X159872734Y-79230568D01*
X160059139Y-79100047D01*
X160220047Y-78939139D01*
X160350568Y-78752734D01*
X160446739Y-78546496D01*
X160505635Y-78326692D01*
X160525468Y-78100000D01*
X160505635Y-77873308D01*
X160446739Y-77653504D01*
X160350568Y-77447266D01*
X160220047Y-77260861D01*
X160220045Y-77260858D01*
X160059141Y-77099954D01*
X159872734Y-76969432D01*
X159872728Y-76969429D01*
X159814725Y-76942382D01*
X159762285Y-76896210D01*
X159743133Y-76829017D01*
X159763348Y-76762135D01*
X159814725Y-76717618D01*
X159872734Y-76690568D01*
X160059139Y-76560047D01*
X160220047Y-76399139D01*
X160350568Y-76212734D01*
X160446739Y-76006496D01*
X160505635Y-75786692D01*
X160525468Y-75560000D01*
X160525468Y-75559998D01*
X175694532Y-75559998D01*
X175694532Y-75560001D01*
X175714364Y-75786686D01*
X175714366Y-75786697D01*
X175773258Y-76006488D01*
X175773261Y-76006497D01*
X175869431Y-76212732D01*
X175869432Y-76212734D01*
X175999954Y-76399141D01*
X176160858Y-76560045D01*
X176160861Y-76560047D01*
X176347266Y-76690568D01*
X176405275Y-76717618D01*
X176457714Y-76763791D01*
X176476866Y-76830984D01*
X176456650Y-76897865D01*
X176405275Y-76942382D01*
X176347267Y-76969431D01*
X176347265Y-76969432D01*
X176160858Y-77099954D01*
X175999954Y-77260858D01*
X175869432Y-77447265D01*
X175869431Y-77447267D01*
X175773261Y-77653502D01*
X175773258Y-77653511D01*
X175714366Y-77873302D01*
X175714364Y-77873313D01*
X175694532Y-78099998D01*
X175694532Y-78100001D01*
X175714364Y-78326686D01*
X175714366Y-78326697D01*
X175773258Y-78546488D01*
X175773261Y-78546497D01*
X175869431Y-78752732D01*
X175869432Y-78752734D01*
X175999954Y-78939141D01*
X176160858Y-79100045D01*
X176160861Y-79100047D01*
X176347266Y-79230568D01*
X176405275Y-79257618D01*
X176457714Y-79303791D01*
X176476866Y-79370984D01*
X176456650Y-79437865D01*
X176405275Y-79482382D01*
X176347267Y-79509431D01*
X176347265Y-79509432D01*
X176160858Y-79639954D01*
X175999954Y-79800858D01*
X175869432Y-79987265D01*
X175869431Y-79987267D01*
X175773261Y-80193502D01*
X175773258Y-80193511D01*
X175714366Y-80413302D01*
X175714364Y-80413313D01*
X175694532Y-80639998D01*
X175694532Y-80640001D01*
X175714364Y-80866686D01*
X175714366Y-80866697D01*
X175773258Y-81086488D01*
X175773261Y-81086497D01*
X175869431Y-81292732D01*
X175869432Y-81292734D01*
X175999954Y-81479141D01*
X176160858Y-81640045D01*
X176160861Y-81640047D01*
X176347266Y-81770568D01*
X176405275Y-81797618D01*
X176457714Y-81843791D01*
X176476866Y-81910984D01*
X176456650Y-81977865D01*
X176405275Y-82022382D01*
X176347267Y-82049431D01*
X176347265Y-82049432D01*
X176160858Y-82179954D01*
X175999954Y-82340858D01*
X175869432Y-82527265D01*
X175869431Y-82527267D01*
X175773261Y-82733502D01*
X175773258Y-82733511D01*
X175714366Y-82953302D01*
X175714364Y-82953313D01*
X175694532Y-83179998D01*
X175694532Y-83180001D01*
X175714364Y-83406686D01*
X175714366Y-83406697D01*
X175773258Y-83626488D01*
X175773261Y-83626497D01*
X175869431Y-83832732D01*
X175869432Y-83832734D01*
X175999954Y-84019141D01*
X176160858Y-84180045D01*
X176160861Y-84180047D01*
X176347266Y-84310568D01*
X176553504Y-84406739D01*
X176773308Y-84465635D01*
X176935230Y-84479801D01*
X176999998Y-84485468D01*
X177000000Y-84485468D01*
X177000002Y-84485468D01*
X177056673Y-84480509D01*
X177226692Y-84465635D01*
X177446496Y-84406739D01*
X177652734Y-84310568D01*
X177839139Y-84180047D01*
X178000047Y-84019139D01*
X178130568Y-83832734D01*
X178206454Y-83669998D01*
X185324532Y-83669998D01*
X185324532Y-83670001D01*
X185344364Y-83896686D01*
X185344366Y-83896697D01*
X185403258Y-84116488D01*
X185403261Y-84116497D01*
X185499431Y-84322732D01*
X185499432Y-84322734D01*
X185629954Y-84509141D01*
X185790858Y-84670045D01*
X185790861Y-84670047D01*
X185977266Y-84800568D01*
X186035275Y-84827618D01*
X186087714Y-84873791D01*
X186106866Y-84940984D01*
X186086650Y-85007865D01*
X186035275Y-85052382D01*
X185977267Y-85079431D01*
X185977265Y-85079432D01*
X185790858Y-85209954D01*
X185629954Y-85370858D01*
X185499432Y-85557265D01*
X185499431Y-85557267D01*
X185403261Y-85763502D01*
X185403258Y-85763511D01*
X185344366Y-85983302D01*
X185344364Y-85983313D01*
X185324532Y-86209998D01*
X185324532Y-86210001D01*
X185344364Y-86436686D01*
X185344366Y-86436697D01*
X185403258Y-86656488D01*
X185403261Y-86656497D01*
X185499431Y-86862732D01*
X185499432Y-86862734D01*
X185629954Y-87049141D01*
X185790858Y-87210045D01*
X185790861Y-87210047D01*
X185977266Y-87340568D01*
X186035275Y-87367618D01*
X186087714Y-87413791D01*
X186106866Y-87480984D01*
X186086650Y-87547865D01*
X186035275Y-87592382D01*
X185977267Y-87619431D01*
X185977265Y-87619432D01*
X185790858Y-87749954D01*
X185629954Y-87910858D01*
X185499432Y-88097265D01*
X185499431Y-88097267D01*
X185403261Y-88303502D01*
X185403258Y-88303511D01*
X185344366Y-88523302D01*
X185344364Y-88523313D01*
X185324532Y-88749998D01*
X185324532Y-88750001D01*
X185344364Y-88976686D01*
X185344366Y-88976697D01*
X185403258Y-89196488D01*
X185403261Y-89196497D01*
X185499431Y-89402732D01*
X185499432Y-89402734D01*
X185629954Y-89589141D01*
X185790858Y-89750045D01*
X185830914Y-89778092D01*
X185977266Y-89880568D01*
X186000384Y-89891348D01*
X186035275Y-89907618D01*
X186087714Y-89953791D01*
X186106866Y-90020984D01*
X186086650Y-90087865D01*
X186035275Y-90132381D01*
X186035118Y-90132455D01*
X185977267Y-90159431D01*
X185977265Y-90159432D01*
X185790858Y-90289954D01*
X185629954Y-90450858D01*
X185499432Y-90637265D01*
X185499431Y-90637267D01*
X185403261Y-90843502D01*
X185403258Y-90843511D01*
X185344366Y-91063302D01*
X185344364Y-91063313D01*
X185324532Y-91289998D01*
X185324532Y-91290001D01*
X185344364Y-91516686D01*
X185344366Y-91516697D01*
X185403258Y-91736488D01*
X185403261Y-91736497D01*
X185499431Y-91942732D01*
X185499432Y-91942734D01*
X185629954Y-92129141D01*
X185790858Y-92290045D01*
X185815454Y-92307267D01*
X185977266Y-92420568D01*
X186183504Y-92516739D01*
X186403308Y-92575635D01*
X186565230Y-92589801D01*
X186629998Y-92595468D01*
X186630000Y-92595468D01*
X186630002Y-92595468D01*
X186686807Y-92590498D01*
X186856692Y-92575635D01*
X187076496Y-92516739D01*
X187282734Y-92420568D01*
X187469139Y-92290047D01*
X187630047Y-92129139D01*
X187760568Y-91942734D01*
X187856739Y-91736496D01*
X187915635Y-91516692D01*
X187935468Y-91290000D01*
X187915635Y-91063308D01*
X187856739Y-90843504D01*
X187760568Y-90637266D01*
X187630047Y-90450861D01*
X187630045Y-90450858D01*
X187469141Y-90289954D01*
X187282734Y-90159432D01*
X187282728Y-90159429D01*
X187224882Y-90132455D01*
X187224724Y-90132381D01*
X187172285Y-90086210D01*
X187153133Y-90019017D01*
X187173348Y-89952135D01*
X187224725Y-89907618D01*
X187282734Y-89880568D01*
X187469139Y-89750047D01*
X187630047Y-89589139D01*
X187760568Y-89402734D01*
X187856739Y-89196496D01*
X187915635Y-88976692D01*
X187935468Y-88750000D01*
X187915635Y-88523308D01*
X187856739Y-88303504D01*
X187760568Y-88097266D01*
X187644938Y-87932128D01*
X187630045Y-87910858D01*
X187469141Y-87749954D01*
X187282734Y-87619432D01*
X187282728Y-87619429D01*
X187224725Y-87592382D01*
X187172285Y-87546210D01*
X187153133Y-87479017D01*
X187173348Y-87412135D01*
X187224725Y-87367618D01*
X187282734Y-87340568D01*
X187469139Y-87210047D01*
X187630047Y-87049139D01*
X187760568Y-86862734D01*
X187856739Y-86656496D01*
X187915635Y-86436692D01*
X187935468Y-86210000D01*
X187915635Y-85983308D01*
X187856739Y-85763504D01*
X187760568Y-85557266D01*
X187630047Y-85370861D01*
X187630045Y-85370858D01*
X187469141Y-85209954D01*
X187282734Y-85079432D01*
X187282728Y-85079429D01*
X187224725Y-85052382D01*
X187172285Y-85006210D01*
X187153133Y-84939017D01*
X187173348Y-84872135D01*
X187224725Y-84827618D01*
X187282734Y-84800568D01*
X187469139Y-84670047D01*
X187630047Y-84509139D01*
X187760568Y-84322734D01*
X187856739Y-84116496D01*
X187915635Y-83896692D01*
X187935468Y-83670000D01*
X187935468Y-83669998D01*
X192944532Y-83669998D01*
X192944532Y-83670001D01*
X192964364Y-83896686D01*
X192964366Y-83896697D01*
X193023258Y-84116488D01*
X193023261Y-84116497D01*
X193119431Y-84322732D01*
X193119432Y-84322734D01*
X193249954Y-84509141D01*
X193410858Y-84670045D01*
X193410861Y-84670047D01*
X193597266Y-84800568D01*
X193655275Y-84827618D01*
X193707714Y-84873791D01*
X193726866Y-84940984D01*
X193706650Y-85007865D01*
X193655275Y-85052382D01*
X193597267Y-85079431D01*
X193597265Y-85079432D01*
X193410858Y-85209954D01*
X193249954Y-85370858D01*
X193119432Y-85557265D01*
X193119431Y-85557267D01*
X193023261Y-85763502D01*
X193023258Y-85763511D01*
X192964366Y-85983302D01*
X192964364Y-85983313D01*
X192944532Y-86209998D01*
X192944532Y-86210001D01*
X192964364Y-86436686D01*
X192964366Y-86436697D01*
X193023258Y-86656488D01*
X193023261Y-86656497D01*
X193119431Y-86862732D01*
X193119432Y-86862734D01*
X193249954Y-87049141D01*
X193410858Y-87210045D01*
X193410861Y-87210047D01*
X193597266Y-87340568D01*
X193655275Y-87367618D01*
X193707714Y-87413791D01*
X193726866Y-87480984D01*
X193706650Y-87547865D01*
X193655275Y-87592382D01*
X193597267Y-87619431D01*
X193597265Y-87619432D01*
X193410858Y-87749954D01*
X193249954Y-87910858D01*
X193119432Y-88097265D01*
X193119431Y-88097267D01*
X193023261Y-88303502D01*
X193023258Y-88303511D01*
X192964366Y-88523302D01*
X192964364Y-88523313D01*
X192944532Y-88749998D01*
X192944532Y-88750001D01*
X192964364Y-88976686D01*
X192964366Y-88976697D01*
X193023258Y-89196488D01*
X193023261Y-89196497D01*
X193119431Y-89402732D01*
X193119432Y-89402734D01*
X193249954Y-89589141D01*
X193410858Y-89750045D01*
X193435462Y-89767273D01*
X193479087Y-89821849D01*
X193486281Y-89891348D01*
X193454758Y-89953703D01*
X193394529Y-89989117D01*
X193377593Y-89992138D01*
X193342516Y-89995908D01*
X193207671Y-90046202D01*
X193207664Y-90046206D01*
X193092455Y-90132452D01*
X193092452Y-90132455D01*
X193006206Y-90247664D01*
X193006202Y-90247671D01*
X192955908Y-90382517D01*
X192950417Y-90433597D01*
X192949501Y-90442123D01*
X192949500Y-90442135D01*
X192949501Y-92137865D01*
X192949501Y-92137876D01*
X192955908Y-92197483D01*
X193006202Y-92332328D01*
X193006206Y-92332335D01*
X193092452Y-92447544D01*
X193092455Y-92447547D01*
X193207664Y-92533793D01*
X193207671Y-92533797D01*
X193342517Y-92584091D01*
X193342516Y-92584091D01*
X193349444Y-92584835D01*
X193402127Y-92590500D01*
X195097872Y-92590499D01*
X195157483Y-92584091D01*
X195292331Y-92533796D01*
X195407546Y-92447546D01*
X195493796Y-92332331D01*
X195544091Y-92197483D01*
X195550500Y-92137873D01*
X195550499Y-90442128D01*
X195544091Y-90382517D01*
X195533272Y-90353511D01*
X195493797Y-90247671D01*
X195493793Y-90247664D01*
X195407547Y-90132455D01*
X195407544Y-90132452D01*
X195292335Y-90046206D01*
X195292328Y-90046202D01*
X195157482Y-89995908D01*
X195157483Y-89995908D01*
X195122404Y-89992137D01*
X195057853Y-89965399D01*
X195018005Y-89908006D01*
X195015512Y-89838181D01*
X195051165Y-89778092D01*
X195064539Y-89767272D01*
X195089140Y-89750046D01*
X195250045Y-89589141D01*
X195250047Y-89589139D01*
X195380568Y-89402734D01*
X195476739Y-89196496D01*
X195535635Y-88976692D01*
X195555468Y-88750000D01*
X195535635Y-88523308D01*
X195476739Y-88303504D01*
X195380568Y-88097266D01*
X195264938Y-87932128D01*
X195250045Y-87910858D01*
X195089141Y-87749954D01*
X194902734Y-87619432D01*
X194902728Y-87619429D01*
X194844725Y-87592382D01*
X194792285Y-87546210D01*
X194773133Y-87479017D01*
X194793348Y-87412135D01*
X194844725Y-87367618D01*
X194902734Y-87340568D01*
X195089139Y-87210047D01*
X195250047Y-87049139D01*
X195380568Y-86862734D01*
X195476739Y-86656496D01*
X195535635Y-86436692D01*
X195548469Y-86289999D01*
X196144341Y-86289999D01*
X196144341Y-86290000D01*
X196164936Y-86525403D01*
X196164938Y-86525413D01*
X196226094Y-86753655D01*
X196226096Y-86753659D01*
X196226097Y-86753663D01*
X196295655Y-86902830D01*
X196325965Y-86967830D01*
X196325967Y-86967834D01*
X196415987Y-87096395D01*
X196461501Y-87161396D01*
X196461506Y-87161402D01*
X196583430Y-87283326D01*
X196616915Y-87344649D01*
X196611931Y-87414341D01*
X196570059Y-87470274D01*
X196539083Y-87487189D01*
X196407669Y-87536203D01*
X196407664Y-87536206D01*
X196292455Y-87622452D01*
X196292452Y-87622455D01*
X196206206Y-87737664D01*
X196206202Y-87737671D01*
X196155908Y-87872517D01*
X196149501Y-87932116D01*
X196149500Y-87932135D01*
X196149500Y-89727870D01*
X196149501Y-89727876D01*
X196155908Y-89787483D01*
X196206202Y-89922328D01*
X196206206Y-89922335D01*
X196292452Y-90037544D01*
X196292455Y-90037547D01*
X196407664Y-90123793D01*
X196407671Y-90123797D01*
X196542517Y-90174091D01*
X196542516Y-90174091D01*
X196549444Y-90174835D01*
X196602127Y-90180500D01*
X198397872Y-90180499D01*
X198457483Y-90174091D01*
X198592331Y-90123796D01*
X198707546Y-90037546D01*
X198793796Y-89922331D01*
X198842810Y-89790916D01*
X198884681Y-89734984D01*
X198950145Y-89710566D01*
X199018418Y-89725417D01*
X199046673Y-89746569D01*
X199168599Y-89868495D01*
X199261329Y-89933425D01*
X199362165Y-90004032D01*
X199362167Y-90004033D01*
X199362170Y-90004035D01*
X199576337Y-90103903D01*
X199804592Y-90165063D01*
X199981034Y-90180500D01*
X200039999Y-90185659D01*
X200040000Y-90185659D01*
X200040001Y-90185659D01*
X200098966Y-90180500D01*
X200275408Y-90165063D01*
X200503663Y-90103903D01*
X200717830Y-90004035D01*
X200911401Y-89868495D01*
X201078495Y-89701401D01*
X201214035Y-89507830D01*
X201313903Y-89293663D01*
X201375063Y-89065408D01*
X201395659Y-88830000D01*
X201375063Y-88594592D01*
X201313903Y-88366337D01*
X201214035Y-88152171D01*
X201193458Y-88122783D01*
X201078494Y-87958597D01*
X200911402Y-87791506D01*
X200911396Y-87791501D01*
X200725842Y-87661575D01*
X200682217Y-87606998D01*
X200675023Y-87537500D01*
X200706546Y-87475145D01*
X200725842Y-87458425D01*
X200794793Y-87410145D01*
X200911401Y-87328495D01*
X201078495Y-87161401D01*
X201214035Y-86967830D01*
X201313903Y-86753663D01*
X201375063Y-86525408D01*
X201395659Y-86290000D01*
X201375063Y-86054592D01*
X201313903Y-85826337D01*
X201214035Y-85612171D01*
X201208425Y-85604158D01*
X201078494Y-85418597D01*
X200911402Y-85251506D01*
X200911395Y-85251501D01*
X200717834Y-85115967D01*
X200717830Y-85115965D01*
X200639485Y-85079432D01*
X200503663Y-85016097D01*
X200503659Y-85016096D01*
X200503655Y-85016094D01*
X200275413Y-84954938D01*
X200275403Y-84954936D01*
X200040001Y-84934341D01*
X200039999Y-84934341D01*
X199804596Y-84954936D01*
X199804586Y-84954938D01*
X199576344Y-85016094D01*
X199576335Y-85016098D01*
X199362171Y-85115964D01*
X199362169Y-85115965D01*
X199168597Y-85251505D01*
X199001505Y-85418597D01*
X198871575Y-85604158D01*
X198816998Y-85647783D01*
X198747500Y-85654977D01*
X198685145Y-85623454D01*
X198668425Y-85604158D01*
X198538494Y-85418597D01*
X198371402Y-85251506D01*
X198371395Y-85251501D01*
X198177834Y-85115967D01*
X198177830Y-85115965D01*
X198099485Y-85079432D01*
X197963663Y-85016097D01*
X197963659Y-85016096D01*
X197963655Y-85016094D01*
X197735413Y-84954938D01*
X197735403Y-84954936D01*
X197500001Y-84934341D01*
X197499999Y-84934341D01*
X197264596Y-84954936D01*
X197264586Y-84954938D01*
X197036344Y-85016094D01*
X197036335Y-85016098D01*
X196822171Y-85115964D01*
X196822169Y-85115965D01*
X196628597Y-85251505D01*
X196461505Y-85418597D01*
X196325965Y-85612169D01*
X196325964Y-85612171D01*
X196226098Y-85826335D01*
X196226094Y-85826344D01*
X196164938Y-86054586D01*
X196164936Y-86054596D01*
X196144341Y-86289999D01*
X195548469Y-86289999D01*
X195555468Y-86210000D01*
X195535635Y-85983308D01*
X195476739Y-85763504D01*
X195380568Y-85557266D01*
X195250047Y-85370861D01*
X195250045Y-85370858D01*
X195089141Y-85209954D01*
X194902734Y-85079432D01*
X194902728Y-85079429D01*
X194844725Y-85052382D01*
X194792285Y-85006210D01*
X194773133Y-84939017D01*
X194793348Y-84872135D01*
X194844725Y-84827618D01*
X194902734Y-84800568D01*
X195089139Y-84670047D01*
X195250047Y-84509139D01*
X195380568Y-84322734D01*
X195476739Y-84116496D01*
X195535635Y-83896692D01*
X195555468Y-83670000D01*
X195535635Y-83443308D01*
X195476739Y-83223504D01*
X195380568Y-83017266D01*
X195250047Y-82830861D01*
X195250045Y-82830858D01*
X195089141Y-82669954D01*
X194902734Y-82539432D01*
X194902732Y-82539431D01*
X194696497Y-82443261D01*
X194696488Y-82443258D01*
X194476697Y-82384366D01*
X194476693Y-82384365D01*
X194476692Y-82384365D01*
X194476691Y-82384364D01*
X194476686Y-82384364D01*
X194250002Y-82364532D01*
X194249998Y-82364532D01*
X194023313Y-82384364D01*
X194023302Y-82384366D01*
X193803511Y-82443258D01*
X193803502Y-82443261D01*
X193597267Y-82539431D01*
X193597265Y-82539432D01*
X193410858Y-82669954D01*
X193249954Y-82830858D01*
X193119432Y-83017265D01*
X193119431Y-83017267D01*
X193023261Y-83223502D01*
X193023258Y-83223511D01*
X192964366Y-83443302D01*
X192964364Y-83443313D01*
X192944532Y-83669998D01*
X187935468Y-83669998D01*
X187915635Y-83443308D01*
X187856739Y-83223504D01*
X187760568Y-83017266D01*
X187630047Y-82830861D01*
X187630045Y-82830858D01*
X187469141Y-82669954D01*
X187282734Y-82539432D01*
X187282732Y-82539431D01*
X187076497Y-82443261D01*
X187076488Y-82443258D01*
X186856697Y-82384366D01*
X186856693Y-82384365D01*
X186856692Y-82384365D01*
X186856691Y-82384364D01*
X186856686Y-82384364D01*
X186630002Y-82364532D01*
X186629998Y-82364532D01*
X186403313Y-82384364D01*
X186403302Y-82384366D01*
X186183511Y-82443258D01*
X186183502Y-82443261D01*
X185977267Y-82539431D01*
X185977265Y-82539432D01*
X185790858Y-82669954D01*
X185629954Y-82830858D01*
X185499432Y-83017265D01*
X185499431Y-83017267D01*
X185403261Y-83223502D01*
X185403258Y-83223511D01*
X185344366Y-83443302D01*
X185344364Y-83443313D01*
X185324532Y-83669998D01*
X178206454Y-83669998D01*
X178226739Y-83626496D01*
X178285635Y-83406692D01*
X178305468Y-83180000D01*
X178285635Y-82953308D01*
X178226739Y-82733504D01*
X178130568Y-82527266D01*
X178023399Y-82374211D01*
X178000045Y-82340858D01*
X177839141Y-82179954D01*
X177652734Y-82049432D01*
X177652728Y-82049429D01*
X177594725Y-82022382D01*
X177542285Y-81976210D01*
X177523133Y-81909017D01*
X177543348Y-81842135D01*
X177594725Y-81797618D01*
X177652734Y-81770568D01*
X177839139Y-81640047D01*
X178000047Y-81479139D01*
X178130568Y-81292734D01*
X178226739Y-81086496D01*
X178285635Y-80866692D01*
X178305468Y-80640000D01*
X178301968Y-80600000D01*
X178286286Y-80420750D01*
X178285635Y-80413308D01*
X178226739Y-80193504D01*
X178130568Y-79987266D01*
X178032839Y-79847693D01*
X178000045Y-79800858D01*
X177839141Y-79639954D01*
X177652734Y-79509432D01*
X177652728Y-79509429D01*
X177594725Y-79482382D01*
X177542285Y-79436210D01*
X177523133Y-79369017D01*
X177543348Y-79302135D01*
X177594725Y-79257618D01*
X177652734Y-79230568D01*
X177839139Y-79100047D01*
X178000047Y-78939139D01*
X178130568Y-78752734D01*
X178226739Y-78546496D01*
X178285635Y-78326692D01*
X178305468Y-78100000D01*
X178285635Y-77873308D01*
X178226739Y-77653504D01*
X178130568Y-77447266D01*
X178000047Y-77260861D01*
X178000045Y-77260858D01*
X177839141Y-77099954D01*
X177652734Y-76969432D01*
X177652728Y-76969429D01*
X177594725Y-76942382D01*
X177542285Y-76896210D01*
X177523133Y-76829017D01*
X177543348Y-76762135D01*
X177594725Y-76717618D01*
X177632516Y-76699996D01*
X182294435Y-76699996D01*
X182294435Y-76700003D01*
X182314630Y-76879249D01*
X182314631Y-76879254D01*
X182374211Y-77049523D01*
X182428152Y-77135369D01*
X182470184Y-77202262D01*
X182597738Y-77329816D01*
X182750478Y-77425789D01*
X182801099Y-77443502D01*
X182920745Y-77485368D01*
X182920750Y-77485369D01*
X183099996Y-77505565D01*
X183100000Y-77505565D01*
X183100004Y-77505565D01*
X183279249Y-77485369D01*
X183279252Y-77485368D01*
X183279255Y-77485368D01*
X183449522Y-77425789D01*
X183602262Y-77329816D01*
X183682082Y-77249996D01*
X190144435Y-77249996D01*
X190144435Y-77250003D01*
X190164630Y-77429249D01*
X190164631Y-77429254D01*
X190224211Y-77599523D01*
X190320184Y-77752262D01*
X190447738Y-77879816D01*
X190600478Y-77975789D01*
X190770745Y-78035368D01*
X190770750Y-78035369D01*
X190949996Y-78055565D01*
X190950000Y-78055565D01*
X190950004Y-78055565D01*
X191129249Y-78035369D01*
X191129252Y-78035368D01*
X191129255Y-78035368D01*
X191299522Y-77975789D01*
X191452262Y-77879816D01*
X191579816Y-77752262D01*
X191675789Y-77599522D01*
X191735368Y-77429255D01*
X191737309Y-77412032D01*
X191755565Y-77250003D01*
X191755565Y-77249996D01*
X191735369Y-77070750D01*
X191735368Y-77070745D01*
X191727942Y-77049522D01*
X191675789Y-76900478D01*
X191669176Y-76889954D01*
X191604322Y-76786739D01*
X191579816Y-76747738D01*
X191452262Y-76620184D01*
X191416863Y-76597941D01*
X191299523Y-76524211D01*
X191129254Y-76464631D01*
X191129249Y-76464630D01*
X190950004Y-76444435D01*
X190949996Y-76444435D01*
X190770750Y-76464630D01*
X190770745Y-76464631D01*
X190600476Y-76524211D01*
X190447737Y-76620184D01*
X190320184Y-76747737D01*
X190224211Y-76900476D01*
X190164631Y-77070745D01*
X190164630Y-77070750D01*
X190144435Y-77249996D01*
X183682082Y-77249996D01*
X183729816Y-77202262D01*
X183825789Y-77049522D01*
X183885368Y-76879255D01*
X183885369Y-76879249D01*
X183905565Y-76700003D01*
X183905565Y-76699996D01*
X183885369Y-76520750D01*
X183885368Y-76520745D01*
X183865733Y-76464631D01*
X183825789Y-76350478D01*
X183825486Y-76349996D01*
X185244435Y-76349996D01*
X185244435Y-76350003D01*
X185264630Y-76529249D01*
X185264631Y-76529254D01*
X185324211Y-76699523D01*
X185354507Y-76747738D01*
X185420184Y-76852262D01*
X185547738Y-76979816D01*
X185638080Y-77036582D01*
X185692450Y-77070745D01*
X185700478Y-77075789D01*
X185769535Y-77099953D01*
X185870745Y-77135368D01*
X185870750Y-77135369D01*
X186049996Y-77155565D01*
X186050000Y-77155565D01*
X186050004Y-77155565D01*
X186229249Y-77135369D01*
X186229252Y-77135368D01*
X186229255Y-77135368D01*
X186399522Y-77075789D01*
X186552262Y-76979816D01*
X186679816Y-76852262D01*
X186775789Y-76699522D01*
X186835368Y-76529255D01*
X186835369Y-76529249D01*
X186855565Y-76350003D01*
X186855565Y-76349996D01*
X186835369Y-76170750D01*
X186835368Y-76170745D01*
X186799626Y-76068600D01*
X186775789Y-76000478D01*
X186679816Y-75847738D01*
X186552262Y-75720184D01*
X186547192Y-75716998D01*
X186399523Y-75624211D01*
X186229254Y-75564631D01*
X186229249Y-75564630D01*
X186050004Y-75544435D01*
X186049996Y-75544435D01*
X185870750Y-75564630D01*
X185870745Y-75564631D01*
X185700476Y-75624211D01*
X185547737Y-75720184D01*
X185420184Y-75847737D01*
X185324211Y-76000476D01*
X185264631Y-76170745D01*
X185264630Y-76170750D01*
X185244435Y-76349996D01*
X183825486Y-76349996D01*
X183729816Y-76197738D01*
X183602262Y-76070184D01*
X183599741Y-76068600D01*
X183449523Y-75974211D01*
X183279254Y-75914631D01*
X183279249Y-75914630D01*
X183100004Y-75894435D01*
X183099996Y-75894435D01*
X182920750Y-75914630D01*
X182920745Y-75914631D01*
X182750476Y-75974211D01*
X182597737Y-76070184D01*
X182470184Y-76197737D01*
X182374211Y-76350476D01*
X182314631Y-76520745D01*
X182314630Y-76520750D01*
X182294435Y-76699996D01*
X177632516Y-76699996D01*
X177652734Y-76690568D01*
X177839139Y-76560047D01*
X178000047Y-76399139D01*
X178130568Y-76212734D01*
X178226739Y-76006496D01*
X178285635Y-75786692D01*
X178305468Y-75560000D01*
X178285635Y-75333308D01*
X178226739Y-75113504D01*
X178173809Y-74999996D01*
X198494435Y-74999996D01*
X198494435Y-75000003D01*
X198514630Y-75179249D01*
X198514631Y-75179254D01*
X198574211Y-75349523D01*
X198630115Y-75438493D01*
X198670184Y-75502262D01*
X198797738Y-75629816D01*
X198888080Y-75686582D01*
X198941557Y-75720184D01*
X198950478Y-75725789D01*
X199081327Y-75771575D01*
X199120745Y-75785368D01*
X199120750Y-75785369D01*
X199299996Y-75805565D01*
X199300000Y-75805565D01*
X199300004Y-75805565D01*
X199479249Y-75785369D01*
X199479252Y-75785368D01*
X199479255Y-75785368D01*
X199649522Y-75725789D01*
X199802262Y-75629816D01*
X199929816Y-75502262D01*
X200025789Y-75349522D01*
X200085368Y-75179255D01*
X200091672Y-75123308D01*
X200105565Y-75000003D01*
X200105565Y-74999996D01*
X200085369Y-74820750D01*
X200085368Y-74820745D01*
X200025788Y-74650476D01*
X199968908Y-74559953D01*
X199929816Y-74497738D01*
X199802262Y-74370184D01*
X199770065Y-74349953D01*
X199649523Y-74274211D01*
X199479254Y-74214631D01*
X199479249Y-74214630D01*
X199300004Y-74194435D01*
X199299996Y-74194435D01*
X199120750Y-74214630D01*
X199120745Y-74214631D01*
X198950476Y-74274211D01*
X198797737Y-74370184D01*
X198670184Y-74497737D01*
X198574211Y-74650476D01*
X198514631Y-74820745D01*
X198514630Y-74820750D01*
X198494435Y-74999996D01*
X178173809Y-74999996D01*
X178130568Y-74907266D01*
X178000047Y-74720861D01*
X178000045Y-74720858D01*
X177839141Y-74559954D01*
X177652734Y-74429432D01*
X177652732Y-74429431D01*
X177446497Y-74333261D01*
X177446488Y-74333258D01*
X177226697Y-74274366D01*
X177226693Y-74274365D01*
X177226692Y-74274365D01*
X177226691Y-74274364D01*
X177226686Y-74274364D01*
X177000002Y-74254532D01*
X176999998Y-74254532D01*
X176773313Y-74274364D01*
X176773302Y-74274366D01*
X176553511Y-74333258D01*
X176553502Y-74333261D01*
X176347267Y-74429431D01*
X176347265Y-74429432D01*
X176160858Y-74559954D01*
X175999954Y-74720858D01*
X175869432Y-74907265D01*
X175869431Y-74907267D01*
X175773261Y-75113502D01*
X175773258Y-75113511D01*
X175714366Y-75333302D01*
X175714364Y-75333313D01*
X175694532Y-75559998D01*
X160525468Y-75559998D01*
X160505635Y-75333308D01*
X160446739Y-75113504D01*
X160350568Y-74907266D01*
X160220047Y-74720861D01*
X160220045Y-74720858D01*
X160059141Y-74559954D01*
X159872734Y-74429432D01*
X159872732Y-74429431D01*
X159666497Y-74333261D01*
X159666488Y-74333258D01*
X159446697Y-74274366D01*
X159446693Y-74274365D01*
X159446692Y-74274365D01*
X159446691Y-74274364D01*
X159446686Y-74274364D01*
X159220002Y-74254532D01*
X159219998Y-74254532D01*
X158993313Y-74274364D01*
X158993302Y-74274366D01*
X158773511Y-74333258D01*
X158773502Y-74333261D01*
X158567267Y-74429431D01*
X158567265Y-74429432D01*
X158380858Y-74559954D01*
X158219954Y-74720858D01*
X158089432Y-74907265D01*
X158089431Y-74907267D01*
X157993261Y-75113502D01*
X157993258Y-75113511D01*
X157934366Y-75333302D01*
X157934364Y-75333313D01*
X157914532Y-75559998D01*
X151157096Y-75559998D01*
X151175468Y-75350000D01*
X151170907Y-75297873D01*
X151168469Y-75269999D01*
X151155635Y-75123308D01*
X151096739Y-74903504D01*
X151000568Y-74697266D01*
X150870047Y-74510861D01*
X150870045Y-74510858D01*
X150709141Y-74349954D01*
X150522734Y-74219432D01*
X150522728Y-74219429D01*
X150464725Y-74192382D01*
X150412285Y-74146210D01*
X150393133Y-74079017D01*
X150413348Y-74012135D01*
X150464725Y-73967618D01*
X150522734Y-73940568D01*
X150709139Y-73810047D01*
X150870047Y-73649139D01*
X151000568Y-73462734D01*
X151096739Y-73256496D01*
X151155635Y-73036692D01*
X151175468Y-72810000D01*
X151155635Y-72583308D01*
X151096739Y-72363504D01*
X151000568Y-72157266D01*
X150870047Y-71970861D01*
X150870045Y-71970858D01*
X150709141Y-71809954D01*
X150522734Y-71679432D01*
X150522728Y-71679429D01*
X150464725Y-71652382D01*
X150412285Y-71606210D01*
X150393133Y-71539017D01*
X150413348Y-71472135D01*
X150464725Y-71427618D01*
X150522734Y-71400568D01*
X150709139Y-71270047D01*
X150870047Y-71109139D01*
X151000568Y-70922734D01*
X151096739Y-70716496D01*
X151155635Y-70496692D01*
X151175468Y-70270000D01*
X151155635Y-70043308D01*
X151096739Y-69823504D01*
X151000568Y-69617266D01*
X150870047Y-69430861D01*
X150870045Y-69430858D01*
X150709141Y-69269954D01*
X150522734Y-69139432D01*
X150522732Y-69139431D01*
X150316497Y-69043261D01*
X150316488Y-69043258D01*
X150096697Y-68984366D01*
X150096693Y-68984365D01*
X150096692Y-68984365D01*
X150096691Y-68984364D01*
X150096686Y-68984364D01*
X149870002Y-68964532D01*
X149869998Y-68964532D01*
X149643313Y-68984364D01*
X149643302Y-68984366D01*
X149423511Y-69043258D01*
X149423502Y-69043261D01*
X149217267Y-69139431D01*
X149217265Y-69139432D01*
X149030858Y-69269954D01*
X148869954Y-69430858D01*
X148739432Y-69617265D01*
X148739431Y-69617267D01*
X148643261Y-69823502D01*
X148643258Y-69823511D01*
X148584366Y-70043302D01*
X148584364Y-70043313D01*
X148564532Y-70269998D01*
X143550499Y-70269998D01*
X143550499Y-69422128D01*
X143544091Y-69362517D01*
X143539210Y-69349431D01*
X143493797Y-69227671D01*
X143493793Y-69227664D01*
X143407547Y-69112455D01*
X143407544Y-69112452D01*
X143292335Y-69026206D01*
X143292328Y-69026202D01*
X143157482Y-68975908D01*
X143157483Y-68975908D01*
X143097883Y-68969501D01*
X143097881Y-68969500D01*
X143097873Y-68969500D01*
X143097864Y-68969500D01*
X141402129Y-68969500D01*
X141402123Y-68969501D01*
X141342516Y-68975908D01*
X141207671Y-69026202D01*
X141207664Y-69026206D01*
X141092455Y-69112452D01*
X141092452Y-69112455D01*
X141006206Y-69227664D01*
X141006202Y-69227671D01*
X140955908Y-69362517D01*
X140949501Y-69422116D01*
X140949501Y-69422123D01*
X140949500Y-69422135D01*
X140949500Y-71117870D01*
X140949501Y-71117876D01*
X140955908Y-71177483D01*
X141006202Y-71312328D01*
X141006206Y-71312335D01*
X141092452Y-71427544D01*
X141092455Y-71427547D01*
X141207664Y-71513793D01*
X141207671Y-71513797D01*
X141230877Y-71522452D01*
X141342517Y-71564091D01*
X141377596Y-71567862D01*
X141442144Y-71594599D01*
X141481993Y-71651991D01*
X141484488Y-71721816D01*
X141448836Y-71781905D01*
X141435464Y-71792725D01*
X141410858Y-71809954D01*
X141249954Y-71970858D01*
X141119432Y-72157265D01*
X141119431Y-72157267D01*
X141023261Y-72363502D01*
X141023258Y-72363511D01*
X140964366Y-72583302D01*
X140964364Y-72583313D01*
X140944532Y-72809998D01*
X140350500Y-72809998D01*
X140350499Y-71832128D01*
X140344091Y-71772517D01*
X140342810Y-71769083D01*
X140293797Y-71637671D01*
X140293793Y-71637664D01*
X140207547Y-71522455D01*
X140207544Y-71522452D01*
X140092335Y-71436206D01*
X140092328Y-71436202D01*
X139957482Y-71385908D01*
X139957483Y-71385908D01*
X139897883Y-71379501D01*
X139897881Y-71379500D01*
X139897873Y-71379500D01*
X139897864Y-71379500D01*
X138102129Y-71379500D01*
X138102123Y-71379501D01*
X138042516Y-71385908D01*
X137907671Y-71436202D01*
X137907664Y-71436206D01*
X137792455Y-71522452D01*
X137792452Y-71522455D01*
X137706206Y-71637664D01*
X137706203Y-71637669D01*
X137657189Y-71769083D01*
X137615317Y-71825016D01*
X137549853Y-71849433D01*
X137481580Y-71834581D01*
X137453326Y-71813430D01*
X137331402Y-71691506D01*
X137331395Y-71691501D01*
X137314157Y-71679431D01*
X137254518Y-71637671D01*
X137137834Y-71555967D01*
X137137830Y-71555965D01*
X137101485Y-71539017D01*
X136923663Y-71456097D01*
X136923659Y-71456096D01*
X136923655Y-71456094D01*
X136695413Y-71394938D01*
X136695403Y-71394936D01*
X136460001Y-71374341D01*
X136459999Y-71374341D01*
X136224596Y-71394936D01*
X136224586Y-71394938D01*
X135996344Y-71456094D01*
X135996335Y-71456098D01*
X135782171Y-71555964D01*
X135782169Y-71555965D01*
X135588597Y-71691505D01*
X135421505Y-71858597D01*
X135285965Y-72052169D01*
X135285964Y-72052171D01*
X135186098Y-72266335D01*
X135186094Y-72266344D01*
X135124938Y-72494586D01*
X135124936Y-72494596D01*
X135104341Y-72729999D01*
X126250500Y-72729999D01*
X126250500Y-66074999D01*
X133094341Y-66074999D01*
X133094341Y-66075000D01*
X133114936Y-66310403D01*
X133114938Y-66310413D01*
X133176094Y-66538655D01*
X133176096Y-66538659D01*
X133176097Y-66538663D01*
X133256004Y-66710023D01*
X133275965Y-66752830D01*
X133275967Y-66752834D01*
X133354463Y-66864937D01*
X133411501Y-66946396D01*
X133411506Y-66946402D01*
X133578597Y-67113493D01*
X133578603Y-67113498D01*
X133764158Y-67243425D01*
X133807783Y-67298002D01*
X133814977Y-67367500D01*
X133783454Y-67429855D01*
X133764158Y-67446575D01*
X133578597Y-67576505D01*
X133411505Y-67743597D01*
X133275965Y-67937169D01*
X133275964Y-67937171D01*
X133176098Y-68151335D01*
X133176094Y-68151344D01*
X133114938Y-68379586D01*
X133114936Y-68379596D01*
X133094341Y-68614999D01*
X133094341Y-68615000D01*
X133114936Y-68850403D01*
X133114938Y-68850413D01*
X133176094Y-69078655D01*
X133176096Y-69078659D01*
X133176097Y-69078663D01*
X133256004Y-69250023D01*
X133275965Y-69292830D01*
X133275967Y-69292834D01*
X133372613Y-69430858D01*
X133411505Y-69486401D01*
X133578599Y-69653495D01*
X133647166Y-69701506D01*
X133772165Y-69789032D01*
X133772167Y-69789033D01*
X133772170Y-69789035D01*
X133986337Y-69888903D01*
X134214592Y-69950063D01*
X134402918Y-69966539D01*
X134449999Y-69970659D01*
X134450000Y-69970659D01*
X134450001Y-69970659D01*
X134489234Y-69967226D01*
X134685408Y-69950063D01*
X134913663Y-69888903D01*
X135127830Y-69789035D01*
X135321401Y-69653495D01*
X135488495Y-69486401D01*
X135618425Y-69300842D01*
X135673002Y-69257217D01*
X135742500Y-69250023D01*
X135804855Y-69281546D01*
X135821575Y-69300842D01*
X135951500Y-69486395D01*
X135951505Y-69486401D01*
X136118599Y-69653495D01*
X136187166Y-69701506D01*
X136312165Y-69789032D01*
X136312167Y-69789033D01*
X136312170Y-69789035D01*
X136526337Y-69888903D01*
X136754592Y-69950063D01*
X136942918Y-69966539D01*
X136989999Y-69970659D01*
X136990000Y-69970659D01*
X136990001Y-69970659D01*
X137029234Y-69967226D01*
X137225408Y-69950063D01*
X137453663Y-69888903D01*
X137667830Y-69789035D01*
X137861401Y-69653495D01*
X138028495Y-69486401D01*
X138164035Y-69292830D01*
X138263903Y-69078663D01*
X138325063Y-68850408D01*
X138345659Y-68615000D01*
X138325063Y-68379592D01*
X138263903Y-68151337D01*
X138164035Y-67937171D01*
X138158425Y-67929158D01*
X138028494Y-67743597D01*
X137861402Y-67576506D01*
X137861396Y-67576501D01*
X137675842Y-67446575D01*
X137632217Y-67391998D01*
X137625023Y-67322500D01*
X137656546Y-67260145D01*
X137675842Y-67243425D01*
X137792834Y-67161506D01*
X137861401Y-67113495D01*
X138028495Y-66946401D01*
X138164035Y-66752830D01*
X138263903Y-66538663D01*
X138325063Y-66310408D01*
X138345659Y-66075000D01*
X138325063Y-65839592D01*
X138263903Y-65611337D01*
X138164035Y-65397171D01*
X138158425Y-65389158D01*
X138028494Y-65203597D01*
X137861402Y-65036506D01*
X137861396Y-65036501D01*
X137675842Y-64906575D01*
X137632217Y-64851998D01*
X137625023Y-64782500D01*
X137656546Y-64720145D01*
X137675842Y-64703425D01*
X137698026Y-64687891D01*
X137861401Y-64573495D01*
X138028495Y-64406401D01*
X138164035Y-64212830D01*
X138263903Y-63998663D01*
X138325063Y-63770408D01*
X138345659Y-63535000D01*
X138325063Y-63299592D01*
X138263903Y-63071337D01*
X138165353Y-62859998D01*
X157914532Y-62859998D01*
X157914532Y-62860001D01*
X157934364Y-63086686D01*
X157934366Y-63086697D01*
X157993258Y-63306488D01*
X157993261Y-63306497D01*
X158089431Y-63512732D01*
X158089432Y-63512734D01*
X158219954Y-63699141D01*
X158380858Y-63860045D01*
X158408292Y-63879254D01*
X158567266Y-63990568D01*
X158625275Y-64017618D01*
X158677714Y-64063791D01*
X158696866Y-64130984D01*
X158676650Y-64197865D01*
X158625275Y-64242382D01*
X158567267Y-64269431D01*
X158567265Y-64269432D01*
X158380858Y-64399954D01*
X158219954Y-64560858D01*
X158089432Y-64747265D01*
X158089431Y-64747267D01*
X157993261Y-64953502D01*
X157993258Y-64953511D01*
X157934366Y-65173302D01*
X157934364Y-65173313D01*
X157914532Y-65399998D01*
X157914532Y-65400001D01*
X157934364Y-65626686D01*
X157934366Y-65626697D01*
X157993258Y-65846488D01*
X157993261Y-65846497D01*
X158089431Y-66052732D01*
X158089432Y-66052734D01*
X158219954Y-66239141D01*
X158380858Y-66400045D01*
X158380861Y-66400047D01*
X158567266Y-66530568D01*
X158625275Y-66557618D01*
X158677714Y-66603791D01*
X158696866Y-66670984D01*
X158676650Y-66737865D01*
X158625275Y-66782382D01*
X158567267Y-66809431D01*
X158567265Y-66809432D01*
X158380858Y-66939954D01*
X158219954Y-67100858D01*
X158089432Y-67287265D01*
X158089431Y-67287267D01*
X157993261Y-67493502D01*
X157993258Y-67493511D01*
X157934366Y-67713302D01*
X157934364Y-67713313D01*
X157914532Y-67939998D01*
X157914532Y-67940001D01*
X157934364Y-68166686D01*
X157934366Y-68166697D01*
X157993258Y-68386488D01*
X157993261Y-68386497D01*
X158089431Y-68592732D01*
X158089432Y-68592734D01*
X158219954Y-68779141D01*
X158380858Y-68940045D01*
X158422925Y-68969500D01*
X158567266Y-69070568D01*
X158604795Y-69088068D01*
X158625275Y-69097618D01*
X158677714Y-69143791D01*
X158696866Y-69210984D01*
X158676650Y-69277865D01*
X158625275Y-69322381D01*
X158608272Y-69330310D01*
X158567267Y-69349431D01*
X158567265Y-69349432D01*
X158380858Y-69479954D01*
X158219954Y-69640858D01*
X158089432Y-69827265D01*
X158089431Y-69827267D01*
X157993261Y-70033502D01*
X157993258Y-70033511D01*
X157934366Y-70253302D01*
X157934364Y-70253313D01*
X157914532Y-70479998D01*
X157914532Y-70480001D01*
X157934364Y-70706686D01*
X157934366Y-70706697D01*
X157993258Y-70926488D01*
X157993261Y-70926497D01*
X158089431Y-71132732D01*
X158089432Y-71132734D01*
X158219954Y-71319141D01*
X158380858Y-71480045D01*
X158380861Y-71480047D01*
X158567266Y-71610568D01*
X158773504Y-71706739D01*
X158993308Y-71765635D01*
X159140333Y-71778498D01*
X159219998Y-71785468D01*
X159220000Y-71785468D01*
X159220002Y-71785468D01*
X159299667Y-71778498D01*
X159446692Y-71765635D01*
X159666496Y-71706739D01*
X159872734Y-71610568D01*
X160059139Y-71480047D01*
X160220047Y-71319139D01*
X160350568Y-71132734D01*
X160446739Y-70926496D01*
X160505635Y-70706692D01*
X160525468Y-70480000D01*
X160505635Y-70253308D01*
X160446739Y-70033504D01*
X160350568Y-69827266D01*
X160251199Y-69685351D01*
X160220045Y-69640858D01*
X160059141Y-69479954D01*
X159872734Y-69349432D01*
X159872728Y-69349429D01*
X159845038Y-69336517D01*
X159814724Y-69322381D01*
X159762285Y-69276210D01*
X159743133Y-69209017D01*
X159763348Y-69142135D01*
X159814725Y-69097618D01*
X159831214Y-69089929D01*
X159872734Y-69070568D01*
X160059139Y-68940047D01*
X160220047Y-68779139D01*
X160350568Y-68592734D01*
X160446739Y-68386496D01*
X160505635Y-68166692D01*
X160525468Y-67940000D01*
X160525220Y-67937171D01*
X160514500Y-67814632D01*
X160505635Y-67713308D01*
X160446739Y-67493504D01*
X160350568Y-67287266D01*
X160252839Y-67147693D01*
X160220045Y-67100858D01*
X160059141Y-66939954D01*
X159872734Y-66809432D01*
X159872728Y-66809429D01*
X159814725Y-66782382D01*
X159762285Y-66736210D01*
X159743133Y-66669017D01*
X159763348Y-66602135D01*
X159814725Y-66557618D01*
X159872734Y-66530568D01*
X160059139Y-66400047D01*
X160220047Y-66239139D01*
X160350568Y-66052734D01*
X160446739Y-65846496D01*
X160505635Y-65626692D01*
X160525345Y-65401402D01*
X160525468Y-65400001D01*
X160525468Y-65399998D01*
X160511068Y-65235408D01*
X160505635Y-65173308D01*
X160446739Y-64953504D01*
X160350568Y-64747266D01*
X160252839Y-64607693D01*
X160220045Y-64560858D01*
X160059141Y-64399954D01*
X159872734Y-64269432D01*
X159872728Y-64269429D01*
X159814725Y-64242382D01*
X159762285Y-64196210D01*
X159743133Y-64129017D01*
X159763348Y-64062135D01*
X159814725Y-64017618D01*
X159872734Y-63990568D01*
X160059139Y-63860047D01*
X160220047Y-63699139D01*
X160350568Y-63512734D01*
X160446739Y-63306496D01*
X160505635Y-63086692D01*
X160525345Y-62861402D01*
X160525468Y-62860001D01*
X160525468Y-62859998D01*
X175694532Y-62859998D01*
X175694532Y-62860001D01*
X175714364Y-63086686D01*
X175714366Y-63086697D01*
X175773258Y-63306488D01*
X175773261Y-63306497D01*
X175869431Y-63512732D01*
X175869432Y-63512734D01*
X175999954Y-63699141D01*
X176160858Y-63860045D01*
X176188292Y-63879254D01*
X176347266Y-63990568D01*
X176405275Y-64017618D01*
X176457714Y-64063791D01*
X176476866Y-64130984D01*
X176456650Y-64197865D01*
X176405275Y-64242382D01*
X176347267Y-64269431D01*
X176347265Y-64269432D01*
X176160858Y-64399954D01*
X175999954Y-64560858D01*
X175869432Y-64747265D01*
X175869431Y-64747267D01*
X175773261Y-64953502D01*
X175773258Y-64953511D01*
X175714366Y-65173302D01*
X175714364Y-65173313D01*
X175694532Y-65399998D01*
X175694532Y-65400001D01*
X175714364Y-65626686D01*
X175714366Y-65626697D01*
X175773258Y-65846488D01*
X175773261Y-65846497D01*
X175869431Y-66052732D01*
X175869432Y-66052734D01*
X175999954Y-66239141D01*
X176160858Y-66400045D01*
X176160861Y-66400047D01*
X176347266Y-66530568D01*
X176405275Y-66557618D01*
X176457714Y-66603791D01*
X176476866Y-66670984D01*
X176456650Y-66737865D01*
X176405275Y-66782382D01*
X176347267Y-66809431D01*
X176347265Y-66809432D01*
X176160858Y-66939954D01*
X175999954Y-67100858D01*
X175869432Y-67287265D01*
X175869431Y-67287267D01*
X175773261Y-67493502D01*
X175773258Y-67493511D01*
X175714366Y-67713302D01*
X175714364Y-67713313D01*
X175694532Y-67939998D01*
X175694532Y-67940001D01*
X175714364Y-68166686D01*
X175714366Y-68166697D01*
X175773258Y-68386488D01*
X175773261Y-68386497D01*
X175869431Y-68592732D01*
X175869432Y-68592734D01*
X175999954Y-68779141D01*
X176160858Y-68940045D01*
X176202925Y-68969500D01*
X176347266Y-69070568D01*
X176384795Y-69088068D01*
X176405275Y-69097618D01*
X176457714Y-69143791D01*
X176476866Y-69210984D01*
X176456650Y-69277865D01*
X176405275Y-69322381D01*
X176388272Y-69330310D01*
X176347267Y-69349431D01*
X176347265Y-69349432D01*
X176160858Y-69479954D01*
X175999954Y-69640858D01*
X175869432Y-69827265D01*
X175869431Y-69827267D01*
X175773261Y-70033502D01*
X175773258Y-70033511D01*
X175714366Y-70253302D01*
X175714364Y-70253313D01*
X175694532Y-70479998D01*
X175694532Y-70480001D01*
X175714364Y-70706686D01*
X175714366Y-70706697D01*
X175773258Y-70926488D01*
X175773261Y-70926497D01*
X175869431Y-71132732D01*
X175869432Y-71132734D01*
X175999954Y-71319141D01*
X176160858Y-71480045D01*
X176160861Y-71480047D01*
X176347266Y-71610568D01*
X176553504Y-71706739D01*
X176773308Y-71765635D01*
X176920333Y-71778498D01*
X176999998Y-71785468D01*
X177000000Y-71785468D01*
X177000002Y-71785468D01*
X177079667Y-71778498D01*
X177226692Y-71765635D01*
X177446496Y-71706739D01*
X177652734Y-71610568D01*
X177839139Y-71480047D01*
X178000047Y-71319139D01*
X178130568Y-71132734D01*
X178226739Y-70926496D01*
X178285635Y-70706692D01*
X178305468Y-70480000D01*
X178285635Y-70253308D01*
X178226739Y-70033504D01*
X178130568Y-69827266D01*
X178031199Y-69685351D01*
X178000045Y-69640858D01*
X177839141Y-69479954D01*
X177652734Y-69349432D01*
X177652728Y-69349429D01*
X177625038Y-69336517D01*
X177594724Y-69322381D01*
X177542285Y-69276210D01*
X177523133Y-69209017D01*
X177543348Y-69142135D01*
X177594725Y-69097618D01*
X177611214Y-69089929D01*
X177652734Y-69070568D01*
X177839139Y-68940047D01*
X178000047Y-68779139D01*
X178125483Y-68599996D01*
X198594435Y-68599996D01*
X198594435Y-68600003D01*
X198614630Y-68779249D01*
X198614631Y-68779254D01*
X198674211Y-68949523D01*
X198750793Y-69071401D01*
X198770184Y-69102262D01*
X198897738Y-69229816D01*
X198980066Y-69281546D01*
X199045055Y-69322382D01*
X199050478Y-69325789D01*
X199118043Y-69349431D01*
X199220745Y-69385368D01*
X199220750Y-69385369D01*
X199399996Y-69405565D01*
X199400000Y-69405565D01*
X199400004Y-69405565D01*
X199579249Y-69385369D01*
X199579252Y-69385368D01*
X199579255Y-69385368D01*
X199749522Y-69325789D01*
X199902262Y-69229816D01*
X200029816Y-69102262D01*
X200125789Y-68949522D01*
X200185368Y-68779255D01*
X200205565Y-68600000D01*
X200204746Y-68592734D01*
X200185369Y-68420750D01*
X200185368Y-68420745D01*
X200125788Y-68250476D01*
X200063499Y-68151344D01*
X200029816Y-68097738D01*
X199902262Y-67970184D01*
X199854226Y-67940001D01*
X199749523Y-67874211D01*
X199579254Y-67814631D01*
X199579249Y-67814630D01*
X199400004Y-67794435D01*
X199399996Y-67794435D01*
X199220750Y-67814630D01*
X199220745Y-67814631D01*
X199050476Y-67874211D01*
X198897737Y-67970184D01*
X198770184Y-68097737D01*
X198674211Y-68250476D01*
X198614631Y-68420745D01*
X198614630Y-68420750D01*
X198594435Y-68599996D01*
X178125483Y-68599996D01*
X178130568Y-68592734D01*
X178226739Y-68386496D01*
X178285635Y-68166692D01*
X178305468Y-67940000D01*
X178305220Y-67937171D01*
X178294500Y-67814632D01*
X178285635Y-67713308D01*
X178226739Y-67493504D01*
X178130568Y-67287266D01*
X178032839Y-67147693D01*
X178000045Y-67100858D01*
X177839141Y-66939954D01*
X177652734Y-66809432D01*
X177652728Y-66809429D01*
X177594725Y-66782382D01*
X177542285Y-66736210D01*
X177523133Y-66669017D01*
X177543348Y-66602135D01*
X177594725Y-66557618D01*
X177652734Y-66530568D01*
X177839139Y-66400047D01*
X178000047Y-66239139D01*
X178130568Y-66052734D01*
X178226739Y-65846496D01*
X178285635Y-65626692D01*
X178305345Y-65401402D01*
X178305468Y-65400001D01*
X178305468Y-65399998D01*
X178291068Y-65235408D01*
X178285635Y-65173308D01*
X178239197Y-64999999D01*
X190354341Y-64999999D01*
X190354341Y-65000000D01*
X190374936Y-65235403D01*
X190374938Y-65235413D01*
X190436094Y-65463655D01*
X190436096Y-65463659D01*
X190436097Y-65463663D01*
X190440000Y-65472032D01*
X190535965Y-65677830D01*
X190535967Y-65677834D01*
X190624241Y-65803901D01*
X190671505Y-65871401D01*
X190838599Y-66038495D01*
X190935384Y-66106265D01*
X191032165Y-66174032D01*
X191032167Y-66174033D01*
X191032170Y-66174035D01*
X191246337Y-66273903D01*
X191474592Y-66335063D01*
X191651034Y-66350500D01*
X191709999Y-66355659D01*
X191710000Y-66355659D01*
X191710001Y-66355659D01*
X191768966Y-66350500D01*
X191945408Y-66335063D01*
X192173663Y-66273903D01*
X192387830Y-66174035D01*
X192581401Y-66038495D01*
X192748495Y-65871401D01*
X192878425Y-65685842D01*
X192933002Y-65642217D01*
X193002500Y-65635023D01*
X193064855Y-65666546D01*
X193081575Y-65685842D01*
X193211500Y-65871395D01*
X193211505Y-65871401D01*
X193378599Y-66038495D01*
X193475384Y-66106265D01*
X193572165Y-66174032D01*
X193572167Y-66174033D01*
X193572170Y-66174035D01*
X193786337Y-66273903D01*
X194014592Y-66335063D01*
X194191034Y-66350500D01*
X194249999Y-66355659D01*
X194250000Y-66355659D01*
X194250001Y-66355659D01*
X194308966Y-66350500D01*
X194485408Y-66335063D01*
X194713663Y-66273903D01*
X194927830Y-66174035D01*
X195121401Y-66038495D01*
X195243329Y-65916566D01*
X195304648Y-65883084D01*
X195374340Y-65888068D01*
X195430274Y-65929939D01*
X195447189Y-65960917D01*
X195496202Y-66092328D01*
X195496206Y-66092335D01*
X195582452Y-66207544D01*
X195582455Y-66207547D01*
X195697664Y-66293793D01*
X195697671Y-66293797D01*
X195832517Y-66344091D01*
X195832516Y-66344091D01*
X195839444Y-66344835D01*
X195892127Y-66350500D01*
X197687872Y-66350499D01*
X197747483Y-66344091D01*
X197882331Y-66293796D01*
X197997546Y-66207546D01*
X198083796Y-66092331D01*
X198134091Y-65957483D01*
X198140500Y-65897873D01*
X198140499Y-64102128D01*
X198134091Y-64042517D01*
X198132810Y-64039083D01*
X198083797Y-63907671D01*
X198083793Y-63907664D01*
X197997547Y-63792455D01*
X197997544Y-63792452D01*
X197882335Y-63706206D01*
X197882328Y-63706202D01*
X197747482Y-63655908D01*
X197747483Y-63655908D01*
X197687883Y-63649501D01*
X197687881Y-63649500D01*
X197687873Y-63649500D01*
X197687864Y-63649500D01*
X195892129Y-63649500D01*
X195892123Y-63649501D01*
X195832516Y-63655908D01*
X195697671Y-63706202D01*
X195697664Y-63706206D01*
X195582455Y-63792452D01*
X195582452Y-63792455D01*
X195496206Y-63907664D01*
X195496203Y-63907669D01*
X195447189Y-64039083D01*
X195405317Y-64095016D01*
X195339853Y-64119433D01*
X195271580Y-64104581D01*
X195243326Y-64083430D01*
X195121402Y-63961506D01*
X195121395Y-63961501D01*
X194927834Y-63825967D01*
X194927830Y-63825965D01*
X194927828Y-63825964D01*
X194713663Y-63726097D01*
X194713659Y-63726096D01*
X194713655Y-63726094D01*
X194485413Y-63664938D01*
X194485403Y-63664936D01*
X194250001Y-63644341D01*
X194249999Y-63644341D01*
X194014596Y-63664936D01*
X194014586Y-63664938D01*
X193786344Y-63726094D01*
X193786335Y-63726098D01*
X193572171Y-63825964D01*
X193572169Y-63825965D01*
X193378597Y-63961505D01*
X193211505Y-64128597D01*
X193081575Y-64314158D01*
X193026998Y-64357783D01*
X192957500Y-64364977D01*
X192895145Y-64333454D01*
X192878425Y-64314158D01*
X192748494Y-64128597D01*
X192581402Y-63961506D01*
X192581395Y-63961501D01*
X192387834Y-63825967D01*
X192387830Y-63825965D01*
X192387828Y-63825964D01*
X192173663Y-63726097D01*
X192173659Y-63726096D01*
X192173655Y-63726094D01*
X191945413Y-63664938D01*
X191945403Y-63664936D01*
X191710001Y-63644341D01*
X191709999Y-63644341D01*
X191474596Y-63664936D01*
X191474586Y-63664938D01*
X191246344Y-63726094D01*
X191246335Y-63726098D01*
X191032171Y-63825964D01*
X191032169Y-63825965D01*
X190838597Y-63961505D01*
X190671505Y-64128597D01*
X190535965Y-64322169D01*
X190535964Y-64322171D01*
X190454945Y-64495917D01*
X190439053Y-64529999D01*
X190436098Y-64536335D01*
X190436094Y-64536344D01*
X190374938Y-64764586D01*
X190374936Y-64764596D01*
X190354341Y-64999999D01*
X178239197Y-64999999D01*
X178226739Y-64953504D01*
X178130568Y-64747266D01*
X178032839Y-64607693D01*
X178000045Y-64560858D01*
X177839141Y-64399954D01*
X177652734Y-64269432D01*
X177652728Y-64269429D01*
X177594725Y-64242382D01*
X177542285Y-64196210D01*
X177523133Y-64129017D01*
X177543348Y-64062135D01*
X177594725Y-64017618D01*
X177652734Y-63990568D01*
X177839139Y-63860047D01*
X177999190Y-63699996D01*
X179594435Y-63699996D01*
X179594435Y-63700003D01*
X179614630Y-63879249D01*
X179614631Y-63879254D01*
X179674211Y-64049523D01*
X179725397Y-64130984D01*
X179770184Y-64202262D01*
X179897738Y-64329816D01*
X179974045Y-64377763D01*
X180019612Y-64406395D01*
X180050478Y-64425789D01*
X180124153Y-64451569D01*
X180220745Y-64485368D01*
X180220750Y-64485369D01*
X180399996Y-64505565D01*
X180400000Y-64505565D01*
X180400004Y-64505565D01*
X180579249Y-64485369D01*
X180579252Y-64485368D01*
X180579255Y-64485368D01*
X180749522Y-64425789D01*
X180902262Y-64329816D01*
X181029816Y-64202262D01*
X181125789Y-64049522D01*
X181185368Y-63879255D01*
X181185369Y-63879249D01*
X181205565Y-63700003D01*
X181205565Y-63699996D01*
X181185369Y-63520750D01*
X181185368Y-63520745D01*
X181157165Y-63440145D01*
X181125789Y-63350478D01*
X181119519Y-63340500D01*
X181086582Y-63288080D01*
X181029816Y-63197738D01*
X180902262Y-63070184D01*
X180749523Y-62974211D01*
X180579254Y-62914631D01*
X180579249Y-62914630D01*
X180400004Y-62894435D01*
X180399996Y-62894435D01*
X180220750Y-62914630D01*
X180220745Y-62914631D01*
X180050476Y-62974211D01*
X179897737Y-63070184D01*
X179770184Y-63197737D01*
X179674211Y-63350476D01*
X179614631Y-63520745D01*
X179614630Y-63520750D01*
X179594435Y-63699996D01*
X177999190Y-63699996D01*
X178000047Y-63699139D01*
X178130568Y-63512734D01*
X178226739Y-63306496D01*
X178285635Y-63086692D01*
X178305345Y-62861402D01*
X178305468Y-62860001D01*
X178305468Y-62859998D01*
X178289356Y-62675842D01*
X178285635Y-62633308D01*
X178226739Y-62413504D01*
X178130568Y-62207266D01*
X178000047Y-62020861D01*
X178000045Y-62020858D01*
X177839141Y-61859954D01*
X177652734Y-61729432D01*
X177652732Y-61729431D01*
X177446497Y-61633261D01*
X177446488Y-61633258D01*
X177226697Y-61574366D01*
X177226693Y-61574365D01*
X177226692Y-61574365D01*
X177226691Y-61574364D01*
X177226686Y-61574364D01*
X177000002Y-61554532D01*
X176999998Y-61554532D01*
X176773313Y-61574364D01*
X176773302Y-61574366D01*
X176553511Y-61633258D01*
X176553502Y-61633261D01*
X176347267Y-61729431D01*
X176347265Y-61729432D01*
X176160858Y-61859954D01*
X175999954Y-62020858D01*
X175869432Y-62207265D01*
X175869431Y-62207267D01*
X175773261Y-62413502D01*
X175773258Y-62413511D01*
X175714366Y-62633302D01*
X175714364Y-62633313D01*
X175694532Y-62859998D01*
X160525468Y-62859998D01*
X160509356Y-62675842D01*
X160505635Y-62633308D01*
X160446739Y-62413504D01*
X160350568Y-62207266D01*
X160220047Y-62020861D01*
X160220045Y-62020858D01*
X160059141Y-61859954D01*
X159872734Y-61729432D01*
X159872732Y-61729431D01*
X159666497Y-61633261D01*
X159666488Y-61633258D01*
X159446697Y-61574366D01*
X159446693Y-61574365D01*
X159446692Y-61574365D01*
X159446691Y-61574364D01*
X159446686Y-61574364D01*
X159220002Y-61554532D01*
X159219998Y-61554532D01*
X158993313Y-61574364D01*
X158993302Y-61574366D01*
X158773511Y-61633258D01*
X158773502Y-61633261D01*
X158567267Y-61729431D01*
X158567265Y-61729432D01*
X158380858Y-61859954D01*
X158219954Y-62020858D01*
X158089432Y-62207265D01*
X158089431Y-62207267D01*
X157993261Y-62413502D01*
X157993258Y-62413511D01*
X157934366Y-62633302D01*
X157934364Y-62633313D01*
X157914532Y-62859998D01*
X138165353Y-62859998D01*
X138164035Y-62857171D01*
X138031461Y-62667834D01*
X138028494Y-62663597D01*
X137861402Y-62496506D01*
X137861395Y-62496501D01*
X137667834Y-62360967D01*
X137667830Y-62360965D01*
X137667828Y-62360964D01*
X137453663Y-62261097D01*
X137453659Y-62261096D01*
X137453655Y-62261094D01*
X137225413Y-62199938D01*
X137225403Y-62199936D01*
X136990001Y-62179341D01*
X136989999Y-62179341D01*
X136754596Y-62199936D01*
X136754586Y-62199938D01*
X136526344Y-62261094D01*
X136526335Y-62261098D01*
X136312171Y-62360964D01*
X136312169Y-62360965D01*
X136118600Y-62496503D01*
X135996673Y-62618430D01*
X135935350Y-62651914D01*
X135865658Y-62646930D01*
X135809725Y-62605058D01*
X135792810Y-62574081D01*
X135743797Y-62442671D01*
X135743793Y-62442664D01*
X135657547Y-62327455D01*
X135657544Y-62327452D01*
X135542335Y-62241206D01*
X135542328Y-62241202D01*
X135407482Y-62190908D01*
X135407483Y-62190908D01*
X135347883Y-62184501D01*
X135347881Y-62184500D01*
X135347873Y-62184500D01*
X135347864Y-62184500D01*
X133552129Y-62184500D01*
X133552123Y-62184501D01*
X133492516Y-62190908D01*
X133357671Y-62241202D01*
X133357664Y-62241206D01*
X133242455Y-62327452D01*
X133242452Y-62327455D01*
X133156206Y-62442664D01*
X133156202Y-62442671D01*
X133105908Y-62577517D01*
X133099501Y-62637116D01*
X133099500Y-62637135D01*
X133099500Y-64432870D01*
X133099501Y-64432876D01*
X133105908Y-64492483D01*
X133156202Y-64627328D01*
X133156206Y-64627335D01*
X133242452Y-64742544D01*
X133242455Y-64742547D01*
X133357664Y-64828793D01*
X133357671Y-64828797D01*
X133489081Y-64877810D01*
X133545015Y-64919681D01*
X133569432Y-64985145D01*
X133554580Y-65053418D01*
X133533430Y-65081673D01*
X133411503Y-65203600D01*
X133275965Y-65397169D01*
X133275964Y-65397171D01*
X133176098Y-65611335D01*
X133176094Y-65611344D01*
X133114938Y-65839586D01*
X133114936Y-65839596D01*
X133094341Y-66074999D01*
X126250500Y-66074999D01*
X126250500Y-60399996D01*
X140594435Y-60399996D01*
X140594435Y-60400003D01*
X140614630Y-60579249D01*
X140614631Y-60579254D01*
X140674211Y-60749523D01*
X140694904Y-60782455D01*
X140770184Y-60902262D01*
X140897738Y-61029816D01*
X140902037Y-61032517D01*
X141024447Y-61109433D01*
X141050478Y-61125789D01*
X141220745Y-61185368D01*
X141220750Y-61185369D01*
X141399996Y-61205565D01*
X141400000Y-61205565D01*
X141400004Y-61205565D01*
X141579249Y-61185369D01*
X141579252Y-61185368D01*
X141579255Y-61185368D01*
X141749522Y-61125789D01*
X141902262Y-61029816D01*
X142029816Y-60902262D01*
X142125789Y-60749522D01*
X142185368Y-60579255D01*
X142205565Y-60400000D01*
X142185368Y-60220745D01*
X142125789Y-60050478D01*
X142029816Y-59897738D01*
X141902262Y-59770184D01*
X141799422Y-59705565D01*
X141749523Y-59674211D01*
X141579254Y-59614631D01*
X141579249Y-59614630D01*
X141400004Y-59594435D01*
X141399996Y-59594435D01*
X141220750Y-59614630D01*
X141220745Y-59614631D01*
X141050476Y-59674211D01*
X140897737Y-59770184D01*
X140770184Y-59897737D01*
X140674211Y-60050476D01*
X140614631Y-60220745D01*
X140614630Y-60220750D01*
X140594435Y-60399996D01*
X126250500Y-60399996D01*
X126250500Y-58699996D01*
X135994435Y-58699996D01*
X135994435Y-58700003D01*
X136014630Y-58879249D01*
X136014631Y-58879254D01*
X136074211Y-59049523D01*
X136096797Y-59085468D01*
X136170184Y-59202262D01*
X136297738Y-59329816D01*
X136450478Y-59425789D01*
X136620745Y-59485368D01*
X136620750Y-59485369D01*
X136799996Y-59505565D01*
X136800000Y-59505565D01*
X136800004Y-59505565D01*
X136979249Y-59485369D01*
X136979252Y-59485368D01*
X136979255Y-59485368D01*
X137149522Y-59425789D01*
X137302262Y-59329816D01*
X137429816Y-59202262D01*
X137525789Y-59049522D01*
X137585368Y-58879255D01*
X137596546Y-58780047D01*
X137605565Y-58700003D01*
X137605565Y-58699996D01*
X137585369Y-58520750D01*
X137585368Y-58520745D01*
X137525789Y-58350478D01*
X137429816Y-58197738D01*
X137302262Y-58070184D01*
X137149523Y-57974211D01*
X136979254Y-57914631D01*
X136979249Y-57914630D01*
X136800004Y-57894435D01*
X136799996Y-57894435D01*
X136620750Y-57914630D01*
X136620745Y-57914631D01*
X136450476Y-57974211D01*
X136297737Y-58070184D01*
X136170184Y-58197737D01*
X136074211Y-58350476D01*
X136014631Y-58520745D01*
X136014630Y-58520750D01*
X135994435Y-58699996D01*
X126250500Y-58699996D01*
X126250500Y-57779998D01*
X157914532Y-57779998D01*
X157914532Y-57780001D01*
X157934364Y-58006686D01*
X157934366Y-58006697D01*
X157993258Y-58226488D01*
X157993261Y-58226497D01*
X158089431Y-58432732D01*
X158089432Y-58432734D01*
X158219954Y-58619141D01*
X158380858Y-58780045D01*
X158380861Y-58780047D01*
X158567266Y-58910568D01*
X158773504Y-59006739D01*
X158993308Y-59065635D01*
X159148917Y-59079249D01*
X159219998Y-59085468D01*
X159220000Y-59085468D01*
X159220002Y-59085468D01*
X159276673Y-59080509D01*
X159446692Y-59065635D01*
X159666496Y-59006739D01*
X159872734Y-58910568D01*
X160059139Y-58780047D01*
X160220047Y-58619139D01*
X160350568Y-58432734D01*
X160446739Y-58226496D01*
X160505635Y-58006692D01*
X160525468Y-57780000D01*
X160505635Y-57553308D01*
X160446739Y-57333504D01*
X160350568Y-57127266D01*
X160220047Y-56940861D01*
X160220045Y-56940858D01*
X160059142Y-56779955D01*
X160049106Y-56772927D01*
X159988515Y-56730502D01*
X159944891Y-56675927D01*
X159937697Y-56606429D01*
X159969219Y-56544074D01*
X160022747Y-56510543D01*
X160109606Y-56483478D01*
X160255185Y-56395472D01*
X160375472Y-56275185D01*
X160463478Y-56129606D01*
X160514086Y-55967196D01*
X160520500Y-55896616D01*
X160520500Y-55239998D01*
X175694532Y-55239998D01*
X175694532Y-55240001D01*
X175714364Y-55466686D01*
X175714366Y-55466697D01*
X175773258Y-55686488D01*
X175773261Y-55686497D01*
X175869431Y-55892732D01*
X175869432Y-55892734D01*
X175999954Y-56079141D01*
X176160858Y-56240045D01*
X176160861Y-56240047D01*
X176347266Y-56370568D01*
X176405275Y-56397618D01*
X176457714Y-56443791D01*
X176476866Y-56510984D01*
X176456650Y-56577865D01*
X176405275Y-56622382D01*
X176347267Y-56649431D01*
X176347265Y-56649432D01*
X176160858Y-56779954D01*
X175999954Y-56940858D01*
X175869432Y-57127265D01*
X175869431Y-57127267D01*
X175773261Y-57333502D01*
X175773258Y-57333511D01*
X175714366Y-57553302D01*
X175714364Y-57553313D01*
X175694532Y-57779998D01*
X175694532Y-57780001D01*
X175714364Y-58006686D01*
X175714366Y-58006697D01*
X175773258Y-58226488D01*
X175773261Y-58226497D01*
X175869431Y-58432732D01*
X175869432Y-58432734D01*
X175999954Y-58619141D01*
X176160858Y-58780045D01*
X176160861Y-58780047D01*
X176347266Y-58910568D01*
X176553504Y-59006739D01*
X176773308Y-59065635D01*
X176928917Y-59079249D01*
X176999998Y-59085468D01*
X177000000Y-59085468D01*
X177000002Y-59085468D01*
X177056673Y-59080509D01*
X177226692Y-59065635D01*
X177446496Y-59006739D01*
X177652734Y-58910568D01*
X177667833Y-58899996D01*
X179594435Y-58899996D01*
X179594435Y-58900003D01*
X179614630Y-59079249D01*
X179614631Y-59079254D01*
X179674211Y-59249523D01*
X179724662Y-59329815D01*
X179770184Y-59402262D01*
X179897738Y-59529816D01*
X179988080Y-59586582D01*
X180032721Y-59614632D01*
X180050478Y-59625789D01*
X180188860Y-59674211D01*
X180220745Y-59685368D01*
X180220750Y-59685369D01*
X180399996Y-59705565D01*
X180400000Y-59705565D01*
X180400004Y-59705565D01*
X180579249Y-59685369D01*
X180579252Y-59685368D01*
X180579255Y-59685368D01*
X180749522Y-59625789D01*
X180902262Y-59529816D01*
X181029816Y-59402262D01*
X181125789Y-59249522D01*
X181185368Y-59079255D01*
X181188718Y-59049522D01*
X181205565Y-58900003D01*
X181205565Y-58899996D01*
X181185369Y-58720750D01*
X181185368Y-58720745D01*
X181149815Y-58619141D01*
X181125789Y-58550478D01*
X181107106Y-58520745D01*
X181029815Y-58397737D01*
X180902262Y-58270184D01*
X180749523Y-58174211D01*
X180579254Y-58114631D01*
X180579249Y-58114630D01*
X180400004Y-58094435D01*
X180399996Y-58094435D01*
X180220750Y-58114630D01*
X180220745Y-58114631D01*
X180050476Y-58174211D01*
X179897737Y-58270184D01*
X179770184Y-58397737D01*
X179674211Y-58550476D01*
X179614631Y-58720745D01*
X179614630Y-58720750D01*
X179594435Y-58899996D01*
X177667833Y-58899996D01*
X177839139Y-58780047D01*
X178000047Y-58619139D01*
X178130568Y-58432734D01*
X178226739Y-58226496D01*
X178285635Y-58006692D01*
X178305468Y-57780000D01*
X178285635Y-57553308D01*
X178226739Y-57333504D01*
X178130568Y-57127266D01*
X178000047Y-56940861D01*
X178000045Y-56940858D01*
X177959183Y-56899996D01*
X184094435Y-56899996D01*
X184094435Y-56900003D01*
X184114630Y-57079249D01*
X184114631Y-57079254D01*
X184174211Y-57249523D01*
X184178315Y-57256054D01*
X184270184Y-57402262D01*
X184397738Y-57529816D01*
X184550478Y-57625789D01*
X184720745Y-57685368D01*
X184720750Y-57685369D01*
X184899996Y-57705565D01*
X184900000Y-57705565D01*
X184900004Y-57705565D01*
X185079249Y-57685369D01*
X185079252Y-57685368D01*
X185079255Y-57685368D01*
X185249522Y-57625789D01*
X185402262Y-57529816D01*
X185529816Y-57402262D01*
X185625789Y-57249522D01*
X185685368Y-57079255D01*
X185689573Y-57041936D01*
X185705565Y-56900003D01*
X185705565Y-56899996D01*
X186494435Y-56899996D01*
X186494435Y-56900003D01*
X186514630Y-57079249D01*
X186514631Y-57079254D01*
X186574211Y-57249523D01*
X186578315Y-57256054D01*
X186670184Y-57402262D01*
X186797738Y-57529816D01*
X186950478Y-57625789D01*
X187120745Y-57685368D01*
X187120750Y-57685369D01*
X187299996Y-57705565D01*
X187300000Y-57705565D01*
X187300004Y-57705565D01*
X187479249Y-57685369D01*
X187479252Y-57685368D01*
X187479255Y-57685368D01*
X187649522Y-57625789D01*
X187802262Y-57529816D01*
X187929816Y-57402262D01*
X188025789Y-57249522D01*
X188085368Y-57079255D01*
X188089573Y-57041936D01*
X188105565Y-56900003D01*
X188105565Y-56899996D01*
X188085369Y-56720750D01*
X188085368Y-56720745D01*
X188071912Y-56682290D01*
X188025789Y-56550478D01*
X188019519Y-56540500D01*
X187958753Y-56443791D01*
X187929816Y-56397738D01*
X187802262Y-56270184D01*
X187649523Y-56174211D01*
X187479254Y-56114631D01*
X187479249Y-56114630D01*
X187300004Y-56094435D01*
X187299996Y-56094435D01*
X187120750Y-56114630D01*
X187120745Y-56114631D01*
X186950476Y-56174211D01*
X186797737Y-56270184D01*
X186670184Y-56397737D01*
X186574211Y-56550476D01*
X186514631Y-56720745D01*
X186514630Y-56720750D01*
X186494435Y-56899996D01*
X185705565Y-56899996D01*
X185685369Y-56720750D01*
X185685368Y-56720745D01*
X185671912Y-56682290D01*
X185625789Y-56550478D01*
X185619519Y-56540500D01*
X185558753Y-56443791D01*
X185529816Y-56397738D01*
X185402262Y-56270184D01*
X185249523Y-56174211D01*
X185079254Y-56114631D01*
X185079249Y-56114630D01*
X184900004Y-56094435D01*
X184899996Y-56094435D01*
X184720750Y-56114630D01*
X184720745Y-56114631D01*
X184550476Y-56174211D01*
X184397737Y-56270184D01*
X184270184Y-56397737D01*
X184174211Y-56550476D01*
X184114631Y-56720745D01*
X184114630Y-56720750D01*
X184094435Y-56899996D01*
X177959183Y-56899996D01*
X177839141Y-56779954D01*
X177652734Y-56649432D01*
X177652728Y-56649429D01*
X177594725Y-56622382D01*
X177542285Y-56576210D01*
X177523133Y-56509017D01*
X177543348Y-56442135D01*
X177594725Y-56397618D01*
X177652734Y-56370568D01*
X177839139Y-56240047D01*
X178000047Y-56079139D01*
X178130568Y-55892734D01*
X178226739Y-55686496D01*
X178285635Y-55466692D01*
X178293332Y-55378711D01*
X205649500Y-55378711D01*
X205649500Y-55621288D01*
X205681161Y-55861785D01*
X205743947Y-56096104D01*
X205816054Y-56270184D01*
X205836776Y-56320212D01*
X205958064Y-56530289D01*
X205958066Y-56530292D01*
X205958067Y-56530293D01*
X206105733Y-56722736D01*
X206105739Y-56722743D01*
X206277256Y-56894260D01*
X206277262Y-56894265D01*
X206469711Y-57041936D01*
X206679788Y-57163224D01*
X206903900Y-57256054D01*
X207138211Y-57318838D01*
X207318586Y-57342584D01*
X207378711Y-57350500D01*
X207378712Y-57350500D01*
X207621289Y-57350500D01*
X207669388Y-57344167D01*
X207861789Y-57318838D01*
X208096100Y-57256054D01*
X208320212Y-57163224D01*
X208530289Y-57041936D01*
X208722738Y-56894265D01*
X208894265Y-56722738D01*
X209041936Y-56530289D01*
X209163224Y-56320212D01*
X209256054Y-56096100D01*
X209318838Y-55861789D01*
X209350500Y-55621288D01*
X209350500Y-55378712D01*
X209318838Y-55138211D01*
X209256054Y-54903900D01*
X209163224Y-54679788D01*
X209041936Y-54469711D01*
X208894265Y-54277262D01*
X208894260Y-54277256D01*
X208722743Y-54105739D01*
X208722736Y-54105733D01*
X208530293Y-53958067D01*
X208530292Y-53958066D01*
X208530289Y-53958064D01*
X208320212Y-53836776D01*
X208312366Y-53833526D01*
X208096104Y-53743947D01*
X207861785Y-53681161D01*
X207621289Y-53649500D01*
X207621288Y-53649500D01*
X207378712Y-53649500D01*
X207378711Y-53649500D01*
X207138214Y-53681161D01*
X206903895Y-53743947D01*
X206679794Y-53836773D01*
X206679785Y-53836777D01*
X206469706Y-53958067D01*
X206277263Y-54105733D01*
X206277256Y-54105739D01*
X206105739Y-54277256D01*
X206105733Y-54277263D01*
X205958067Y-54469706D01*
X205836777Y-54679785D01*
X205836773Y-54679794D01*
X205743947Y-54903895D01*
X205681161Y-55138214D01*
X205649500Y-55378711D01*
X178293332Y-55378711D01*
X178305468Y-55240000D01*
X178285635Y-55013308D01*
X178226739Y-54793504D01*
X178130568Y-54587266D01*
X178000047Y-54400861D01*
X178000045Y-54400858D01*
X177839141Y-54239954D01*
X177652734Y-54109432D01*
X177652732Y-54109431D01*
X177446497Y-54013261D01*
X177446488Y-54013258D01*
X177226697Y-53954366D01*
X177226693Y-53954365D01*
X177226692Y-53954365D01*
X177226691Y-53954364D01*
X177226686Y-53954364D01*
X177000002Y-53934532D01*
X176999998Y-53934532D01*
X176773313Y-53954364D01*
X176773302Y-53954366D01*
X176553511Y-54013258D01*
X176553502Y-54013261D01*
X176347267Y-54109431D01*
X176347265Y-54109432D01*
X176160858Y-54239954D01*
X175999954Y-54400858D01*
X175869432Y-54587265D01*
X175869431Y-54587267D01*
X175773261Y-54793502D01*
X175773258Y-54793511D01*
X175714366Y-55013302D01*
X175714364Y-55013313D01*
X175694532Y-55239998D01*
X160520500Y-55239998D01*
X160520500Y-54583384D01*
X160514086Y-54512804D01*
X160463478Y-54350394D01*
X160375472Y-54204815D01*
X160375470Y-54204813D01*
X160375469Y-54204811D01*
X160255188Y-54084530D01*
X160137295Y-54013261D01*
X160109606Y-53996522D01*
X159947196Y-53945914D01*
X159947194Y-53945913D01*
X159947192Y-53945913D01*
X159897778Y-53941423D01*
X159876616Y-53939500D01*
X158563384Y-53939500D01*
X158544145Y-53941248D01*
X158492807Y-53945913D01*
X158330393Y-53996522D01*
X158184811Y-54084530D01*
X158064530Y-54204811D01*
X157976522Y-54350393D01*
X157925913Y-54512807D01*
X157919500Y-54583386D01*
X157919500Y-55896613D01*
X157925913Y-55967192D01*
X157925913Y-55967194D01*
X157925914Y-55967196D01*
X157966081Y-56096100D01*
X157976522Y-56129606D01*
X158064530Y-56275188D01*
X158184811Y-56395469D01*
X158184813Y-56395470D01*
X158184815Y-56395472D01*
X158330394Y-56483478D01*
X158417250Y-56510543D01*
X158475397Y-56549280D01*
X158503372Y-56613305D01*
X158492291Y-56682290D01*
X158451483Y-56730503D01*
X158380858Y-56779954D01*
X158219954Y-56940858D01*
X158089432Y-57127265D01*
X158089431Y-57127267D01*
X157993261Y-57333502D01*
X157993258Y-57333511D01*
X157934366Y-57553302D01*
X157934364Y-57553313D01*
X157914532Y-57779998D01*
X126250500Y-57779998D01*
X126250500Y-55378711D01*
X127649500Y-55378711D01*
X127649500Y-55621288D01*
X127681161Y-55861785D01*
X127743947Y-56096104D01*
X127816054Y-56270184D01*
X127836776Y-56320212D01*
X127958064Y-56530289D01*
X127958066Y-56530292D01*
X127958067Y-56530293D01*
X128105733Y-56722736D01*
X128105739Y-56722743D01*
X128277256Y-56894260D01*
X128277262Y-56894265D01*
X128469711Y-57041936D01*
X128679788Y-57163224D01*
X128903900Y-57256054D01*
X129138211Y-57318838D01*
X129318586Y-57342584D01*
X129378711Y-57350500D01*
X129378712Y-57350500D01*
X129621289Y-57350500D01*
X129669388Y-57344167D01*
X129861789Y-57318838D01*
X130096100Y-57256054D01*
X130320212Y-57163224D01*
X130530289Y-57041936D01*
X130722738Y-56894265D01*
X130894265Y-56722738D01*
X131041936Y-56530289D01*
X131163224Y-56320212D01*
X131256054Y-56096100D01*
X131318838Y-55861789D01*
X131350500Y-55621288D01*
X131350500Y-55378712D01*
X131318838Y-55138211D01*
X131256054Y-54903900D01*
X131163224Y-54679788D01*
X131041936Y-54469711D01*
X130894265Y-54277262D01*
X130894260Y-54277256D01*
X130722743Y-54105739D01*
X130722736Y-54105733D01*
X130530293Y-53958067D01*
X130530292Y-53958066D01*
X130530289Y-53958064D01*
X130320212Y-53836776D01*
X130312366Y-53833526D01*
X130096104Y-53743947D01*
X129861785Y-53681161D01*
X129621289Y-53649500D01*
X129621288Y-53649500D01*
X129378712Y-53649500D01*
X129378711Y-53649500D01*
X129138214Y-53681161D01*
X128903895Y-53743947D01*
X128679794Y-53836773D01*
X128679785Y-53836777D01*
X128469706Y-53958067D01*
X128277263Y-54105733D01*
X128277256Y-54105739D01*
X128105739Y-54277256D01*
X128105733Y-54277263D01*
X127958067Y-54469706D01*
X127836777Y-54679785D01*
X127836773Y-54679794D01*
X127743947Y-54903895D01*
X127681161Y-55138214D01*
X127649500Y-55378711D01*
X126250500Y-55378711D01*
X126250500Y-55003480D01*
X126250695Y-54996528D01*
X126255897Y-54903895D01*
X126267398Y-54699097D01*
X126268952Y-54685298D01*
X126318269Y-54395041D01*
X126321363Y-54381489D01*
X126330322Y-54350394D01*
X126402867Y-54098582D01*
X126407459Y-54085462D01*
X126510467Y-53836777D01*
X126520123Y-53813463D01*
X126526145Y-53800957D01*
X126668566Y-53543267D01*
X126675961Y-53531499D01*
X126682503Y-53522279D01*
X126846330Y-53291385D01*
X126854985Y-53280531D01*
X127051179Y-53060991D01*
X127060991Y-53051179D01*
X127280531Y-52854985D01*
X127291385Y-52846330D01*
X127531504Y-52675957D01*
X127543267Y-52668566D01*
X127800957Y-52526145D01*
X127813463Y-52520123D01*
X128085462Y-52407459D01*
X128098582Y-52402867D01*
X128381494Y-52321361D01*
X128395041Y-52318269D01*
X128685298Y-52268952D01*
X128699097Y-52267398D01*
X128959562Y-52252770D01*
X128996529Y-52250695D01*
X129003481Y-52250500D01*
X129044170Y-52250500D01*
X207955830Y-52250500D01*
X207996519Y-52250500D01*
X208003471Y-52250695D01*
G37*
%TD.AperFunction*%
%TD*%
M02*
