%TF.GenerationSoftware,KiCad,Pcbnew,8.0.8+1*%
%TF.CreationDate,2025-01-27T22:00:13-08:00*%
%TF.ProjectId,pico-logic-analyzer,7069636f-2d6c-46f6-9769-632d616e616c,rev?*%
%TF.SameCoordinates,Original*%
%TF.FileFunction,Legend,Top*%
%TF.FilePolarity,Positive*%
%FSLAX46Y46*%
G04 Gerber Fmt 4.6, Leading zero omitted, Abs format (unit mm)*
G04 Created by KiCad (PCBNEW 8.0.8+1) date 2025-01-27 22:00:13*
%MOMM*%
%LPD*%
G01*
G04 APERTURE LIST*
%ADD10C,0.425000*%
%ADD11C,0.187500*%
%ADD12C,0.250000*%
%ADD13C,0.120000*%
%ADD14C,0.010000*%
G04 APERTURE END LIST*
D10*
X141174247Y-55258852D02*
X141386747Y-53558852D01*
X141386747Y-53558852D02*
X142034366Y-53558852D01*
X142034366Y-53558852D02*
X142186152Y-53639804D01*
X142186152Y-53639804D02*
X142256985Y-53720757D01*
X142256985Y-53720757D02*
X142317700Y-53882661D01*
X142317700Y-53882661D02*
X142287343Y-54125519D01*
X142287343Y-54125519D02*
X142186152Y-54287423D01*
X142186152Y-54287423D02*
X142095081Y-54368376D01*
X142095081Y-54368376D02*
X141923057Y-54449328D01*
X141923057Y-54449328D02*
X141275438Y-54449328D01*
X142874247Y-55258852D02*
X143086747Y-53558852D01*
X144675438Y-55096947D02*
X144584367Y-55177900D01*
X144584367Y-55177900D02*
X144331390Y-55258852D01*
X144331390Y-55258852D02*
X144169486Y-55258852D01*
X144169486Y-55258852D02*
X143936748Y-55177900D01*
X143936748Y-55177900D02*
X143795081Y-55015995D01*
X143795081Y-55015995D02*
X143734367Y-54854090D01*
X143734367Y-54854090D02*
X143693890Y-54530280D01*
X143693890Y-54530280D02*
X143724248Y-54287423D01*
X143724248Y-54287423D02*
X143845676Y-53963614D01*
X143845676Y-53963614D02*
X143946867Y-53801709D01*
X143946867Y-53801709D02*
X144129009Y-53639804D01*
X144129009Y-53639804D02*
X144381986Y-53558852D01*
X144381986Y-53558852D02*
X144543890Y-53558852D01*
X144543890Y-53558852D02*
X144776629Y-53639804D01*
X144776629Y-53639804D02*
X144847462Y-53720757D01*
X145920081Y-53558852D02*
X146243890Y-53558852D01*
X146243890Y-53558852D02*
X146395676Y-53639804D01*
X146395676Y-53639804D02*
X146537343Y-53801709D01*
X146537343Y-53801709D02*
X146577819Y-54125519D01*
X146577819Y-54125519D02*
X146506986Y-54692185D01*
X146506986Y-54692185D02*
X146385557Y-55015995D01*
X146385557Y-55015995D02*
X146203414Y-55177900D01*
X146203414Y-55177900D02*
X146031390Y-55258852D01*
X146031390Y-55258852D02*
X145707581Y-55258852D01*
X145707581Y-55258852D02*
X145555795Y-55177900D01*
X145555795Y-55177900D02*
X145414129Y-55015995D01*
X145414129Y-55015995D02*
X145373652Y-54692185D01*
X145373652Y-54692185D02*
X145444486Y-54125519D01*
X145444486Y-54125519D02*
X145565914Y-53801709D01*
X145565914Y-53801709D02*
X145748057Y-53639804D01*
X145748057Y-53639804D02*
X145920081Y-53558852D01*
X147245676Y-54611233D02*
X148540914Y-54611233D01*
X150079009Y-55258852D02*
X149269485Y-55258852D01*
X149269485Y-55258852D02*
X149481985Y-53558852D01*
X150625437Y-54773138D02*
X151434961Y-54773138D01*
X150402818Y-55258852D02*
X151181985Y-53558852D01*
X151181985Y-53558852D02*
X151536152Y-55258852D01*
X152183771Y-54611233D02*
X153479009Y-54611233D01*
X155199247Y-55096947D02*
X155108176Y-55177900D01*
X155108176Y-55177900D02*
X154855199Y-55258852D01*
X154855199Y-55258852D02*
X154693295Y-55258852D01*
X154693295Y-55258852D02*
X154460557Y-55177900D01*
X154460557Y-55177900D02*
X154318890Y-55015995D01*
X154318890Y-55015995D02*
X154258176Y-54854090D01*
X154258176Y-54854090D02*
X154217699Y-54530280D01*
X154217699Y-54530280D02*
X154248057Y-54287423D01*
X154248057Y-54287423D02*
X154369485Y-53963614D01*
X154369485Y-53963614D02*
X154470676Y-53801709D01*
X154470676Y-53801709D02*
X154652818Y-53639804D01*
X154652818Y-53639804D02*
X154905795Y-53558852D01*
X154905795Y-53558852D02*
X155067699Y-53558852D01*
X155067699Y-53558852D02*
X155300438Y-53639804D01*
X155300438Y-53639804D02*
X155371271Y-53720757D01*
X155887342Y-54773138D02*
X156696866Y-54773138D01*
X155664723Y-55258852D02*
X156443890Y-53558852D01*
X156443890Y-53558852D02*
X156798057Y-55258852D01*
X158336152Y-55258852D02*
X157870676Y-54449328D01*
X157364723Y-55258852D02*
X157577223Y-53558852D01*
X157577223Y-53558852D02*
X158224842Y-53558852D01*
X158224842Y-53558852D02*
X158376628Y-53639804D01*
X158376628Y-53639804D02*
X158447461Y-53720757D01*
X158447461Y-53720757D02*
X158508176Y-53882661D01*
X158508176Y-53882661D02*
X158477819Y-54125519D01*
X158477819Y-54125519D02*
X158376628Y-54287423D01*
X158376628Y-54287423D02*
X158285557Y-54368376D01*
X158285557Y-54368376D02*
X158113533Y-54449328D01*
X158113533Y-54449328D02*
X157465914Y-54449328D01*
X160036152Y-55258852D02*
X159570676Y-54449328D01*
X159064723Y-55258852D02*
X159277223Y-53558852D01*
X159277223Y-53558852D02*
X159924842Y-53558852D01*
X159924842Y-53558852D02*
X160076628Y-53639804D01*
X160076628Y-53639804D02*
X160147461Y-53720757D01*
X160147461Y-53720757D02*
X160208176Y-53882661D01*
X160208176Y-53882661D02*
X160177819Y-54125519D01*
X160177819Y-54125519D02*
X160076628Y-54287423D01*
X160076628Y-54287423D02*
X159985557Y-54368376D01*
X159985557Y-54368376D02*
X159813533Y-54449328D01*
X159813533Y-54449328D02*
X159165914Y-54449328D01*
X160764723Y-55258852D02*
X160977223Y-53558852D01*
X161685557Y-54368376D02*
X162252224Y-54368376D01*
X162383771Y-55258852D02*
X161574247Y-55258852D01*
X161574247Y-55258852D02*
X161786747Y-53558852D01*
X161786747Y-53558852D02*
X162596271Y-53558852D01*
X164083771Y-55258852D02*
X163618295Y-54449328D01*
X163112342Y-55258852D02*
X163324842Y-53558852D01*
X163324842Y-53558852D02*
X163972461Y-53558852D01*
X163972461Y-53558852D02*
X164124247Y-53639804D01*
X164124247Y-53639804D02*
X164195080Y-53720757D01*
X164195080Y-53720757D02*
X164255795Y-53882661D01*
X164255795Y-53882661D02*
X164225438Y-54125519D01*
X164225438Y-54125519D02*
X164124247Y-54287423D01*
X164124247Y-54287423D02*
X164033176Y-54368376D01*
X164033176Y-54368376D02*
X163861152Y-54449328D01*
X163861152Y-54449328D02*
X163213533Y-54449328D01*
D11*
X141431390Y-56025964D02*
X140833176Y-56240250D01*
X140833176Y-56240250D02*
X141377819Y-56454535D01*
X141748354Y-55775964D02*
X142212640Y-55775964D01*
X142212640Y-55775964D02*
X141926926Y-56061678D01*
X141926926Y-56061678D02*
X142034068Y-56061678D01*
X142034068Y-56061678D02*
X142101033Y-56097392D01*
X142101033Y-56097392D02*
X142132283Y-56133107D01*
X142132283Y-56133107D02*
X142159068Y-56204535D01*
X142159068Y-56204535D02*
X142136747Y-56383107D01*
X142136747Y-56383107D02*
X142092104Y-56454535D01*
X142092104Y-56454535D02*
X142051926Y-56490250D01*
X142051926Y-56490250D02*
X141976033Y-56525964D01*
X141976033Y-56525964D02*
X141761747Y-56525964D01*
X141761747Y-56525964D02*
X141694783Y-56490250D01*
X141694783Y-56490250D02*
X141663533Y-56454535D01*
X142967105Y-56025964D02*
X143252819Y-56025964D01*
X143011748Y-56525964D02*
X143092105Y-55883107D01*
X143092105Y-55883107D02*
X143136748Y-55811678D01*
X143136748Y-55811678D02*
X143212641Y-55775964D01*
X143212641Y-55775964D02*
X143284069Y-55775964D01*
X143440319Y-56525964D02*
X143502819Y-56025964D01*
X143484962Y-56168821D02*
X143529604Y-56097392D01*
X143529604Y-56097392D02*
X143569783Y-56061678D01*
X143569783Y-56061678D02*
X143645676Y-56025964D01*
X143645676Y-56025964D02*
X143717104Y-56025964D01*
X144011748Y-56525964D02*
X143944783Y-56490250D01*
X143944783Y-56490250D02*
X143913533Y-56454535D01*
X143913533Y-56454535D02*
X143886748Y-56383107D01*
X143886748Y-56383107D02*
X143913533Y-56168821D01*
X143913533Y-56168821D02*
X143958176Y-56097392D01*
X143958176Y-56097392D02*
X143998355Y-56061678D01*
X143998355Y-56061678D02*
X144074248Y-56025964D01*
X144074248Y-56025964D02*
X144181390Y-56025964D01*
X144181390Y-56025964D02*
X144248355Y-56061678D01*
X144248355Y-56061678D02*
X144279605Y-56097392D01*
X144279605Y-56097392D02*
X144306390Y-56168821D01*
X144306390Y-56168821D02*
X144279605Y-56383107D01*
X144279605Y-56383107D02*
X144234962Y-56454535D01*
X144234962Y-56454535D02*
X144194783Y-56490250D01*
X144194783Y-56490250D02*
X144118890Y-56525964D01*
X144118890Y-56525964D02*
X144011748Y-56525964D01*
X144583176Y-56525964D02*
X144645676Y-56025964D01*
X144636747Y-56097392D02*
X144676926Y-56061678D01*
X144676926Y-56061678D02*
X144752819Y-56025964D01*
X144752819Y-56025964D02*
X144859961Y-56025964D01*
X144859961Y-56025964D02*
X144926926Y-56061678D01*
X144926926Y-56061678D02*
X144953711Y-56133107D01*
X144953711Y-56133107D02*
X144904604Y-56525964D01*
X144953711Y-56133107D02*
X144998354Y-56061678D01*
X144998354Y-56061678D02*
X145074247Y-56025964D01*
X145074247Y-56025964D02*
X145181390Y-56025964D01*
X145181390Y-56025964D02*
X145248354Y-56061678D01*
X145248354Y-56061678D02*
X145275140Y-56133107D01*
X145275140Y-56133107D02*
X145226033Y-56525964D01*
X146145676Y-56311678D02*
X146502819Y-56311678D01*
X146047462Y-56525964D02*
X146391212Y-55775964D01*
X146391212Y-55775964D02*
X146547462Y-56525964D01*
X146766212Y-56490250D02*
X146833176Y-56525964D01*
X146833176Y-56525964D02*
X146976033Y-56525964D01*
X146976033Y-56525964D02*
X147051926Y-56490250D01*
X147051926Y-56490250D02*
X147096569Y-56418821D01*
X147096569Y-56418821D02*
X147101033Y-56383107D01*
X147101033Y-56383107D02*
X147074247Y-56311678D01*
X147074247Y-56311678D02*
X147007283Y-56275964D01*
X147007283Y-56275964D02*
X146900140Y-56275964D01*
X146900140Y-56275964D02*
X146833176Y-56240250D01*
X146833176Y-56240250D02*
X146806390Y-56168821D01*
X146806390Y-56168821D02*
X146810855Y-56133107D01*
X146810855Y-56133107D02*
X146855497Y-56061678D01*
X146855497Y-56061678D02*
X146931390Y-56025964D01*
X146931390Y-56025964D02*
X147038533Y-56025964D01*
X147038533Y-56025964D02*
X147105497Y-56061678D01*
X147726033Y-56525964D02*
X147775140Y-56133107D01*
X147775140Y-56133107D02*
X147748355Y-56061678D01*
X147748355Y-56061678D02*
X147681390Y-56025964D01*
X147681390Y-56025964D02*
X147538533Y-56025964D01*
X147538533Y-56025964D02*
X147462640Y-56061678D01*
X147730498Y-56490250D02*
X147654605Y-56525964D01*
X147654605Y-56525964D02*
X147476033Y-56525964D01*
X147476033Y-56525964D02*
X147409069Y-56490250D01*
X147409069Y-56490250D02*
X147382283Y-56418821D01*
X147382283Y-56418821D02*
X147391212Y-56347392D01*
X147391212Y-56347392D02*
X147435855Y-56275964D01*
X147435855Y-56275964D02*
X147511748Y-56240250D01*
X147511748Y-56240250D02*
X147690319Y-56240250D01*
X147690319Y-56240250D02*
X147766212Y-56204535D01*
X148645676Y-56311678D02*
X149002819Y-56311678D01*
X148547462Y-56525964D02*
X148891212Y-55775964D01*
X148891212Y-55775964D02*
X149047462Y-56525964D01*
X149359962Y-56025964D02*
X149297462Y-56525964D01*
X149351033Y-56097392D02*
X149391212Y-56061678D01*
X149391212Y-56061678D02*
X149467105Y-56025964D01*
X149467105Y-56025964D02*
X149574247Y-56025964D01*
X149574247Y-56025964D02*
X149641212Y-56061678D01*
X149641212Y-56061678D02*
X149667997Y-56133107D01*
X149667997Y-56133107D02*
X149618890Y-56525964D01*
X150297461Y-56525964D02*
X150391211Y-55775964D01*
X150301926Y-56490250D02*
X150226033Y-56525964D01*
X150226033Y-56525964D02*
X150083176Y-56525964D01*
X150083176Y-56525964D02*
X150016211Y-56490250D01*
X150016211Y-56490250D02*
X149984961Y-56454535D01*
X149984961Y-56454535D02*
X149958176Y-56383107D01*
X149958176Y-56383107D02*
X149984961Y-56168821D01*
X149984961Y-56168821D02*
X150029604Y-56097392D01*
X150029604Y-56097392D02*
X150069783Y-56061678D01*
X150069783Y-56061678D02*
X150145676Y-56025964D01*
X150145676Y-56025964D02*
X150288533Y-56025964D01*
X150288533Y-56025964D02*
X150355497Y-56061678D01*
X150944782Y-56490250D02*
X150868889Y-56525964D01*
X150868889Y-56525964D02*
X150726032Y-56525964D01*
X150726032Y-56525964D02*
X150659068Y-56490250D01*
X150659068Y-56490250D02*
X150632282Y-56418821D01*
X150632282Y-56418821D02*
X150667997Y-56133107D01*
X150667997Y-56133107D02*
X150712639Y-56061678D01*
X150712639Y-56061678D02*
X150788532Y-56025964D01*
X150788532Y-56025964D02*
X150931389Y-56025964D01*
X150931389Y-56025964D02*
X150998354Y-56061678D01*
X150998354Y-56061678D02*
X151025139Y-56133107D01*
X151025139Y-56133107D02*
X151016211Y-56204535D01*
X151016211Y-56204535D02*
X150650139Y-56275964D01*
X151297461Y-56525964D02*
X151359961Y-56025964D01*
X151342104Y-56168821D02*
X151386746Y-56097392D01*
X151386746Y-56097392D02*
X151426925Y-56061678D01*
X151426925Y-56061678D02*
X151502818Y-56025964D01*
X151502818Y-56025964D02*
X151574246Y-56025964D01*
X151730497Y-56490250D02*
X151797461Y-56525964D01*
X151797461Y-56525964D02*
X151940318Y-56525964D01*
X151940318Y-56525964D02*
X152016211Y-56490250D01*
X152016211Y-56490250D02*
X152060854Y-56418821D01*
X152060854Y-56418821D02*
X152065318Y-56383107D01*
X152065318Y-56383107D02*
X152038532Y-56311678D01*
X152038532Y-56311678D02*
X151971568Y-56275964D01*
X151971568Y-56275964D02*
X151864425Y-56275964D01*
X151864425Y-56275964D02*
X151797461Y-56240250D01*
X151797461Y-56240250D02*
X151770675Y-56168821D01*
X151770675Y-56168821D02*
X151775140Y-56133107D01*
X151775140Y-56133107D02*
X151819782Y-56061678D01*
X151819782Y-56061678D02*
X151895675Y-56025964D01*
X151895675Y-56025964D02*
X152002818Y-56025964D01*
X152002818Y-56025964D02*
X152069782Y-56061678D01*
X152476033Y-56525964D02*
X152409068Y-56490250D01*
X152409068Y-56490250D02*
X152377818Y-56454535D01*
X152377818Y-56454535D02*
X152351033Y-56383107D01*
X152351033Y-56383107D02*
X152377818Y-56168821D01*
X152377818Y-56168821D02*
X152422461Y-56097392D01*
X152422461Y-56097392D02*
X152462640Y-56061678D01*
X152462640Y-56061678D02*
X152538533Y-56025964D01*
X152538533Y-56025964D02*
X152645675Y-56025964D01*
X152645675Y-56025964D02*
X152712640Y-56061678D01*
X152712640Y-56061678D02*
X152743890Y-56097392D01*
X152743890Y-56097392D02*
X152770675Y-56168821D01*
X152770675Y-56168821D02*
X152743890Y-56383107D01*
X152743890Y-56383107D02*
X152699247Y-56454535D01*
X152699247Y-56454535D02*
X152659068Y-56490250D01*
X152659068Y-56490250D02*
X152583175Y-56525964D01*
X152583175Y-56525964D02*
X152476033Y-56525964D01*
X153109961Y-56025964D02*
X153047461Y-56525964D01*
X153101032Y-56097392D02*
X153141211Y-56061678D01*
X153141211Y-56061678D02*
X153217104Y-56025964D01*
X153217104Y-56025964D02*
X153324246Y-56025964D01*
X153324246Y-56025964D02*
X153391211Y-56061678D01*
X153391211Y-56061678D02*
X153417996Y-56133107D01*
X153417996Y-56133107D02*
X153368889Y-56525964D01*
X141181390Y-57233422D02*
X141105497Y-57840565D01*
X141105497Y-57840565D02*
X141060855Y-57911993D01*
X141060855Y-57911993D02*
X141020676Y-57947708D01*
X141020676Y-57947708D02*
X140944783Y-57983422D01*
X140944783Y-57983422D02*
X140837640Y-57983422D01*
X140837640Y-57983422D02*
X140770676Y-57947708D01*
X141123355Y-57697708D02*
X141047462Y-57733422D01*
X141047462Y-57733422D02*
X140904605Y-57733422D01*
X140904605Y-57733422D02*
X140837640Y-57697708D01*
X140837640Y-57697708D02*
X140806390Y-57661993D01*
X140806390Y-57661993D02*
X140779605Y-57590565D01*
X140779605Y-57590565D02*
X140806390Y-57376279D01*
X140806390Y-57376279D02*
X140851033Y-57304850D01*
X140851033Y-57304850D02*
X140891212Y-57269136D01*
X140891212Y-57269136D02*
X140967105Y-57233422D01*
X140967105Y-57233422D02*
X141109962Y-57233422D01*
X141109962Y-57233422D02*
X141176926Y-57269136D01*
X141476033Y-57733422D02*
X141538533Y-57233422D01*
X141569783Y-56983422D02*
X141529604Y-57019136D01*
X141529604Y-57019136D02*
X141560854Y-57054850D01*
X141560854Y-57054850D02*
X141601033Y-57019136D01*
X141601033Y-57019136D02*
X141569783Y-56983422D01*
X141569783Y-56983422D02*
X141560854Y-57054850D01*
X141788533Y-57233422D02*
X142074247Y-57233422D01*
X141926926Y-56983422D02*
X141846569Y-57626279D01*
X141846569Y-57626279D02*
X141873354Y-57697708D01*
X141873354Y-57697708D02*
X141940319Y-57733422D01*
X141940319Y-57733422D02*
X142011747Y-57733422D01*
X142261747Y-57733422D02*
X142355497Y-56983422D01*
X142583175Y-57733422D02*
X142632282Y-57340565D01*
X142632282Y-57340565D02*
X142605497Y-57269136D01*
X142605497Y-57269136D02*
X142538532Y-57233422D01*
X142538532Y-57233422D02*
X142431390Y-57233422D01*
X142431390Y-57233422D02*
X142355497Y-57269136D01*
X142355497Y-57269136D02*
X142315318Y-57304850D01*
X143324246Y-57233422D02*
X143261746Y-57733422D01*
X143002818Y-57233422D02*
X142953711Y-57626279D01*
X142953711Y-57626279D02*
X142980496Y-57697708D01*
X142980496Y-57697708D02*
X143047461Y-57733422D01*
X143047461Y-57733422D02*
X143154603Y-57733422D01*
X143154603Y-57733422D02*
X143230496Y-57697708D01*
X143230496Y-57697708D02*
X143270675Y-57661993D01*
X143618889Y-57733422D02*
X143712639Y-56983422D01*
X143676924Y-57269136D02*
X143752817Y-57233422D01*
X143752817Y-57233422D02*
X143895674Y-57233422D01*
X143895674Y-57233422D02*
X143962639Y-57269136D01*
X143962639Y-57269136D02*
X143993889Y-57304850D01*
X143993889Y-57304850D02*
X144020674Y-57376279D01*
X144020674Y-57376279D02*
X143993889Y-57590565D01*
X143993889Y-57590565D02*
X143949246Y-57661993D01*
X143949246Y-57661993D02*
X143909067Y-57697708D01*
X143909067Y-57697708D02*
X143833174Y-57733422D01*
X143833174Y-57733422D02*
X143690317Y-57733422D01*
X143690317Y-57733422D02*
X143623353Y-57697708D01*
X144306388Y-57661993D02*
X144337638Y-57697708D01*
X144337638Y-57697708D02*
X144297460Y-57733422D01*
X144297460Y-57733422D02*
X144266210Y-57697708D01*
X144266210Y-57697708D02*
X144306388Y-57661993D01*
X144306388Y-57661993D02*
X144297460Y-57733422D01*
X144980496Y-57697708D02*
X144904603Y-57733422D01*
X144904603Y-57733422D02*
X144761746Y-57733422D01*
X144761746Y-57733422D02*
X144694781Y-57697708D01*
X144694781Y-57697708D02*
X144663531Y-57661993D01*
X144663531Y-57661993D02*
X144636746Y-57590565D01*
X144636746Y-57590565D02*
X144663531Y-57376279D01*
X144663531Y-57376279D02*
X144708174Y-57304850D01*
X144708174Y-57304850D02*
X144748353Y-57269136D01*
X144748353Y-57269136D02*
X144824246Y-57233422D01*
X144824246Y-57233422D02*
X144967103Y-57233422D01*
X144967103Y-57233422D02*
X145034067Y-57269136D01*
X145404603Y-57733422D02*
X145337638Y-57697708D01*
X145337638Y-57697708D02*
X145306388Y-57661993D01*
X145306388Y-57661993D02*
X145279603Y-57590565D01*
X145279603Y-57590565D02*
X145306388Y-57376279D01*
X145306388Y-57376279D02*
X145351031Y-57304850D01*
X145351031Y-57304850D02*
X145391210Y-57269136D01*
X145391210Y-57269136D02*
X145467103Y-57233422D01*
X145467103Y-57233422D02*
X145574245Y-57233422D01*
X145574245Y-57233422D02*
X145641210Y-57269136D01*
X145641210Y-57269136D02*
X145672460Y-57304850D01*
X145672460Y-57304850D02*
X145699245Y-57376279D01*
X145699245Y-57376279D02*
X145672460Y-57590565D01*
X145672460Y-57590565D02*
X145627817Y-57661993D01*
X145627817Y-57661993D02*
X145587638Y-57697708D01*
X145587638Y-57697708D02*
X145511745Y-57733422D01*
X145511745Y-57733422D02*
X145404603Y-57733422D01*
X145976031Y-57733422D02*
X146038531Y-57233422D01*
X146029602Y-57304850D02*
X146069781Y-57269136D01*
X146069781Y-57269136D02*
X146145674Y-57233422D01*
X146145674Y-57233422D02*
X146252816Y-57233422D01*
X146252816Y-57233422D02*
X146319781Y-57269136D01*
X146319781Y-57269136D02*
X146346566Y-57340565D01*
X146346566Y-57340565D02*
X146297459Y-57733422D01*
X146346566Y-57340565D02*
X146391209Y-57269136D01*
X146391209Y-57269136D02*
X146467102Y-57233422D01*
X146467102Y-57233422D02*
X146574245Y-57233422D01*
X146574245Y-57233422D02*
X146641209Y-57269136D01*
X146641209Y-57269136D02*
X146667995Y-57340565D01*
X146667995Y-57340565D02*
X146618888Y-57733422D01*
X147609959Y-56947708D02*
X146846566Y-57911993D01*
X147717102Y-57233422D02*
X148002816Y-57233422D01*
X147855495Y-56983422D02*
X147775138Y-57626279D01*
X147775138Y-57626279D02*
X147801923Y-57697708D01*
X147801923Y-57697708D02*
X147868888Y-57733422D01*
X147868888Y-57733422D02*
X147940316Y-57733422D01*
X148511744Y-57733422D02*
X148560851Y-57340565D01*
X148560851Y-57340565D02*
X148534066Y-57269136D01*
X148534066Y-57269136D02*
X148467101Y-57233422D01*
X148467101Y-57233422D02*
X148324244Y-57233422D01*
X148324244Y-57233422D02*
X148248351Y-57269136D01*
X148516209Y-57697708D02*
X148440316Y-57733422D01*
X148440316Y-57733422D02*
X148261744Y-57733422D01*
X148261744Y-57733422D02*
X148194780Y-57697708D01*
X148194780Y-57697708D02*
X148167994Y-57626279D01*
X148167994Y-57626279D02*
X148176923Y-57554850D01*
X148176923Y-57554850D02*
X148221566Y-57483422D01*
X148221566Y-57483422D02*
X148297459Y-57447708D01*
X148297459Y-57447708D02*
X148476030Y-57447708D01*
X148476030Y-57447708D02*
X148551923Y-57411993D01*
X148931387Y-57233422D02*
X148868887Y-57733422D01*
X148922458Y-57304850D02*
X148962637Y-57269136D01*
X148962637Y-57269136D02*
X149038530Y-57233422D01*
X149038530Y-57233422D02*
X149145672Y-57233422D01*
X149145672Y-57233422D02*
X149212637Y-57269136D01*
X149212637Y-57269136D02*
X149239422Y-57340565D01*
X149239422Y-57340565D02*
X149190315Y-57733422D01*
X149868886Y-57733422D02*
X149962636Y-56983422D01*
X149873351Y-57697708D02*
X149797458Y-57733422D01*
X149797458Y-57733422D02*
X149654601Y-57733422D01*
X149654601Y-57733422D02*
X149587636Y-57697708D01*
X149587636Y-57697708D02*
X149556386Y-57661993D01*
X149556386Y-57661993D02*
X149529601Y-57590565D01*
X149529601Y-57590565D02*
X149556386Y-57376279D01*
X149556386Y-57376279D02*
X149601029Y-57304850D01*
X149601029Y-57304850D02*
X149641208Y-57269136D01*
X149641208Y-57269136D02*
X149717101Y-57233422D01*
X149717101Y-57233422D02*
X149859958Y-57233422D01*
X149859958Y-57233422D02*
X149926922Y-57269136D01*
X150516207Y-57697708D02*
X150440314Y-57733422D01*
X150440314Y-57733422D02*
X150297457Y-57733422D01*
X150297457Y-57733422D02*
X150230493Y-57697708D01*
X150230493Y-57697708D02*
X150203707Y-57626279D01*
X150203707Y-57626279D02*
X150239422Y-57340565D01*
X150239422Y-57340565D02*
X150284064Y-57269136D01*
X150284064Y-57269136D02*
X150359957Y-57233422D01*
X150359957Y-57233422D02*
X150502814Y-57233422D01*
X150502814Y-57233422D02*
X150569779Y-57269136D01*
X150569779Y-57269136D02*
X150596564Y-57340565D01*
X150596564Y-57340565D02*
X150587636Y-57411993D01*
X150587636Y-57411993D02*
X150221564Y-57483422D01*
X150931386Y-57233422D02*
X150851029Y-57876279D01*
X150851029Y-57876279D02*
X150806386Y-57947708D01*
X150806386Y-57947708D02*
X150730493Y-57983422D01*
X150730493Y-57983422D02*
X150694779Y-57983422D01*
X150962636Y-56983422D02*
X150922457Y-57019136D01*
X150922457Y-57019136D02*
X150953707Y-57054850D01*
X150953707Y-57054850D02*
X150993886Y-57019136D01*
X150993886Y-57019136D02*
X150962636Y-56983422D01*
X150962636Y-56983422D02*
X150953707Y-57054850D01*
X151859957Y-56947708D02*
X151096564Y-57911993D01*
X152074243Y-57233422D02*
X151980493Y-57983422D01*
X152069778Y-57269136D02*
X152145671Y-57233422D01*
X152145671Y-57233422D02*
X152288528Y-57233422D01*
X152288528Y-57233422D02*
X152355493Y-57269136D01*
X152355493Y-57269136D02*
X152386743Y-57304850D01*
X152386743Y-57304850D02*
X152413528Y-57376279D01*
X152413528Y-57376279D02*
X152386743Y-57590565D01*
X152386743Y-57590565D02*
X152342100Y-57661993D01*
X152342100Y-57661993D02*
X152301921Y-57697708D01*
X152301921Y-57697708D02*
X152226028Y-57733422D01*
X152226028Y-57733422D02*
X152083171Y-57733422D01*
X152083171Y-57733422D02*
X152016207Y-57697708D01*
X152690314Y-57733422D02*
X152752814Y-57233422D01*
X152784064Y-56983422D02*
X152743885Y-57019136D01*
X152743885Y-57019136D02*
X152775135Y-57054850D01*
X152775135Y-57054850D02*
X152815314Y-57019136D01*
X152815314Y-57019136D02*
X152784064Y-56983422D01*
X152784064Y-56983422D02*
X152775135Y-57054850D01*
X153373350Y-57697708D02*
X153297457Y-57733422D01*
X153297457Y-57733422D02*
X153154600Y-57733422D01*
X153154600Y-57733422D02*
X153087635Y-57697708D01*
X153087635Y-57697708D02*
X153056385Y-57661993D01*
X153056385Y-57661993D02*
X153029600Y-57590565D01*
X153029600Y-57590565D02*
X153056385Y-57376279D01*
X153056385Y-57376279D02*
X153101028Y-57304850D01*
X153101028Y-57304850D02*
X153141207Y-57269136D01*
X153141207Y-57269136D02*
X153217100Y-57233422D01*
X153217100Y-57233422D02*
X153359957Y-57233422D01*
X153359957Y-57233422D02*
X153426921Y-57269136D01*
X153797457Y-57733422D02*
X153730492Y-57697708D01*
X153730492Y-57697708D02*
X153699242Y-57661993D01*
X153699242Y-57661993D02*
X153672457Y-57590565D01*
X153672457Y-57590565D02*
X153699242Y-57376279D01*
X153699242Y-57376279D02*
X153743885Y-57304850D01*
X153743885Y-57304850D02*
X153784064Y-57269136D01*
X153784064Y-57269136D02*
X153859957Y-57233422D01*
X153859957Y-57233422D02*
X153967099Y-57233422D01*
X153967099Y-57233422D02*
X154034064Y-57269136D01*
X154034064Y-57269136D02*
X154065314Y-57304850D01*
X154065314Y-57304850D02*
X154092099Y-57376279D01*
X154092099Y-57376279D02*
X154065314Y-57590565D01*
X154065314Y-57590565D02*
X154020671Y-57661993D01*
X154020671Y-57661993D02*
X153980492Y-57697708D01*
X153980492Y-57697708D02*
X153904599Y-57733422D01*
X153904599Y-57733422D02*
X153797457Y-57733422D01*
X154404599Y-57447708D02*
X154976028Y-57447708D01*
X155404599Y-57733422D02*
X155337634Y-57697708D01*
X155337634Y-57697708D02*
X155310849Y-57626279D01*
X155310849Y-57626279D02*
X155391206Y-56983422D01*
X155797456Y-57733422D02*
X155730491Y-57697708D01*
X155730491Y-57697708D02*
X155699241Y-57661993D01*
X155699241Y-57661993D02*
X155672456Y-57590565D01*
X155672456Y-57590565D02*
X155699241Y-57376279D01*
X155699241Y-57376279D02*
X155743884Y-57304850D01*
X155743884Y-57304850D02*
X155784063Y-57269136D01*
X155784063Y-57269136D02*
X155859956Y-57233422D01*
X155859956Y-57233422D02*
X155967098Y-57233422D01*
X155967098Y-57233422D02*
X156034063Y-57269136D01*
X156034063Y-57269136D02*
X156065313Y-57304850D01*
X156065313Y-57304850D02*
X156092098Y-57376279D01*
X156092098Y-57376279D02*
X156065313Y-57590565D01*
X156065313Y-57590565D02*
X156020670Y-57661993D01*
X156020670Y-57661993D02*
X155980491Y-57697708D01*
X155980491Y-57697708D02*
X155904598Y-57733422D01*
X155904598Y-57733422D02*
X155797456Y-57733422D01*
X156752812Y-57233422D02*
X156676919Y-57840565D01*
X156676919Y-57840565D02*
X156632277Y-57911993D01*
X156632277Y-57911993D02*
X156592098Y-57947708D01*
X156592098Y-57947708D02*
X156516205Y-57983422D01*
X156516205Y-57983422D02*
X156409062Y-57983422D01*
X156409062Y-57983422D02*
X156342098Y-57947708D01*
X156694777Y-57697708D02*
X156618884Y-57733422D01*
X156618884Y-57733422D02*
X156476027Y-57733422D01*
X156476027Y-57733422D02*
X156409062Y-57697708D01*
X156409062Y-57697708D02*
X156377812Y-57661993D01*
X156377812Y-57661993D02*
X156351027Y-57590565D01*
X156351027Y-57590565D02*
X156377812Y-57376279D01*
X156377812Y-57376279D02*
X156422455Y-57304850D01*
X156422455Y-57304850D02*
X156462634Y-57269136D01*
X156462634Y-57269136D02*
X156538527Y-57233422D01*
X156538527Y-57233422D02*
X156681384Y-57233422D01*
X156681384Y-57233422D02*
X156748348Y-57269136D01*
X157047455Y-57733422D02*
X157109955Y-57233422D01*
X157141205Y-56983422D02*
X157101026Y-57019136D01*
X157101026Y-57019136D02*
X157132276Y-57054850D01*
X157132276Y-57054850D02*
X157172455Y-57019136D01*
X157172455Y-57019136D02*
X157141205Y-56983422D01*
X157141205Y-56983422D02*
X157132276Y-57054850D01*
X157730491Y-57697708D02*
X157654598Y-57733422D01*
X157654598Y-57733422D02*
X157511741Y-57733422D01*
X157511741Y-57733422D02*
X157444776Y-57697708D01*
X157444776Y-57697708D02*
X157413526Y-57661993D01*
X157413526Y-57661993D02*
X157386741Y-57590565D01*
X157386741Y-57590565D02*
X157413526Y-57376279D01*
X157413526Y-57376279D02*
X157458169Y-57304850D01*
X157458169Y-57304850D02*
X157498348Y-57269136D01*
X157498348Y-57269136D02*
X157574241Y-57233422D01*
X157574241Y-57233422D02*
X157717098Y-57233422D01*
X157717098Y-57233422D02*
X157784062Y-57269136D01*
X158083169Y-57447708D02*
X158654598Y-57447708D01*
X159297454Y-57733422D02*
X159346561Y-57340565D01*
X159346561Y-57340565D02*
X159319776Y-57269136D01*
X159319776Y-57269136D02*
X159252811Y-57233422D01*
X159252811Y-57233422D02*
X159109954Y-57233422D01*
X159109954Y-57233422D02*
X159034061Y-57269136D01*
X159301919Y-57697708D02*
X159226026Y-57733422D01*
X159226026Y-57733422D02*
X159047454Y-57733422D01*
X159047454Y-57733422D02*
X158980490Y-57697708D01*
X158980490Y-57697708D02*
X158953704Y-57626279D01*
X158953704Y-57626279D02*
X158962633Y-57554850D01*
X158962633Y-57554850D02*
X159007276Y-57483422D01*
X159007276Y-57483422D02*
X159083169Y-57447708D01*
X159083169Y-57447708D02*
X159261740Y-57447708D01*
X159261740Y-57447708D02*
X159337633Y-57411993D01*
X159717097Y-57233422D02*
X159654597Y-57733422D01*
X159708168Y-57304850D02*
X159748347Y-57269136D01*
X159748347Y-57269136D02*
X159824240Y-57233422D01*
X159824240Y-57233422D02*
X159931382Y-57233422D01*
X159931382Y-57233422D02*
X159998347Y-57269136D01*
X159998347Y-57269136D02*
X160025132Y-57340565D01*
X160025132Y-57340565D02*
X159976025Y-57733422D01*
X160654596Y-57733422D02*
X160703703Y-57340565D01*
X160703703Y-57340565D02*
X160676918Y-57269136D01*
X160676918Y-57269136D02*
X160609953Y-57233422D01*
X160609953Y-57233422D02*
X160467096Y-57233422D01*
X160467096Y-57233422D02*
X160391203Y-57269136D01*
X160659061Y-57697708D02*
X160583168Y-57733422D01*
X160583168Y-57733422D02*
X160404596Y-57733422D01*
X160404596Y-57733422D02*
X160337632Y-57697708D01*
X160337632Y-57697708D02*
X160310846Y-57626279D01*
X160310846Y-57626279D02*
X160319775Y-57554850D01*
X160319775Y-57554850D02*
X160364418Y-57483422D01*
X160364418Y-57483422D02*
X160440311Y-57447708D01*
X160440311Y-57447708D02*
X160618882Y-57447708D01*
X160618882Y-57447708D02*
X160694775Y-57411993D01*
X161118882Y-57733422D02*
X161051917Y-57697708D01*
X161051917Y-57697708D02*
X161025132Y-57626279D01*
X161025132Y-57626279D02*
X161105489Y-56983422D01*
X161395667Y-57233422D02*
X161511739Y-57733422D01*
X161752810Y-57233422D02*
X161511739Y-57733422D01*
X161511739Y-57733422D02*
X161417989Y-57911993D01*
X161417989Y-57911993D02*
X161377810Y-57947708D01*
X161377810Y-57947708D02*
X161301917Y-57983422D01*
X161967096Y-57233422D02*
X162359953Y-57233422D01*
X162359953Y-57233422D02*
X161904596Y-57733422D01*
X161904596Y-57733422D02*
X162297453Y-57733422D01*
X162873346Y-57697708D02*
X162797453Y-57733422D01*
X162797453Y-57733422D02*
X162654596Y-57733422D01*
X162654596Y-57733422D02*
X162587632Y-57697708D01*
X162587632Y-57697708D02*
X162560846Y-57626279D01*
X162560846Y-57626279D02*
X162596561Y-57340565D01*
X162596561Y-57340565D02*
X162641203Y-57269136D01*
X162641203Y-57269136D02*
X162717096Y-57233422D01*
X162717096Y-57233422D02*
X162859953Y-57233422D01*
X162859953Y-57233422D02*
X162926918Y-57269136D01*
X162926918Y-57269136D02*
X162953703Y-57340565D01*
X162953703Y-57340565D02*
X162944775Y-57411993D01*
X162944775Y-57411993D02*
X162578703Y-57483422D01*
X163226025Y-57733422D02*
X163288525Y-57233422D01*
X163270668Y-57376279D02*
X163315310Y-57304850D01*
X163315310Y-57304850D02*
X163355489Y-57269136D01*
X163355489Y-57269136D02*
X163431382Y-57233422D01*
X163431382Y-57233422D02*
X163502810Y-57233422D01*
X141181390Y-58440880D02*
X141105497Y-59048023D01*
X141105497Y-59048023D02*
X141060855Y-59119451D01*
X141060855Y-59119451D02*
X141020676Y-59155166D01*
X141020676Y-59155166D02*
X140944783Y-59190880D01*
X140944783Y-59190880D02*
X140837640Y-59190880D01*
X140837640Y-59190880D02*
X140770676Y-59155166D01*
X141123355Y-58905166D02*
X141047462Y-58940880D01*
X141047462Y-58940880D02*
X140904605Y-58940880D01*
X140904605Y-58940880D02*
X140837640Y-58905166D01*
X140837640Y-58905166D02*
X140806390Y-58869451D01*
X140806390Y-58869451D02*
X140779605Y-58798023D01*
X140779605Y-58798023D02*
X140806390Y-58583737D01*
X140806390Y-58583737D02*
X140851033Y-58512308D01*
X140851033Y-58512308D02*
X140891212Y-58476594D01*
X140891212Y-58476594D02*
X140967105Y-58440880D01*
X140967105Y-58440880D02*
X141109962Y-58440880D01*
X141109962Y-58440880D02*
X141176926Y-58476594D01*
X141476033Y-58940880D02*
X141538533Y-58440880D01*
X141569783Y-58190880D02*
X141529604Y-58226594D01*
X141529604Y-58226594D02*
X141560854Y-58262308D01*
X141560854Y-58262308D02*
X141601033Y-58226594D01*
X141601033Y-58226594D02*
X141569783Y-58190880D01*
X141569783Y-58190880D02*
X141560854Y-58262308D01*
X141788533Y-58440880D02*
X142074247Y-58440880D01*
X141926926Y-58190880D02*
X141846569Y-58833737D01*
X141846569Y-58833737D02*
X141873354Y-58905166D01*
X141873354Y-58905166D02*
X141940319Y-58940880D01*
X141940319Y-58940880D02*
X142011747Y-58940880D01*
X142261747Y-58940880D02*
X142355497Y-58190880D01*
X142583175Y-58940880D02*
X142632282Y-58548023D01*
X142632282Y-58548023D02*
X142605497Y-58476594D01*
X142605497Y-58476594D02*
X142538532Y-58440880D01*
X142538532Y-58440880D02*
X142431390Y-58440880D01*
X142431390Y-58440880D02*
X142355497Y-58476594D01*
X142355497Y-58476594D02*
X142315318Y-58512308D01*
X143324246Y-58440880D02*
X143261746Y-58940880D01*
X143002818Y-58440880D02*
X142953711Y-58833737D01*
X142953711Y-58833737D02*
X142980496Y-58905166D01*
X142980496Y-58905166D02*
X143047461Y-58940880D01*
X143047461Y-58940880D02*
X143154603Y-58940880D01*
X143154603Y-58940880D02*
X143230496Y-58905166D01*
X143230496Y-58905166D02*
X143270675Y-58869451D01*
X143618889Y-58940880D02*
X143712639Y-58190880D01*
X143676924Y-58476594D02*
X143752817Y-58440880D01*
X143752817Y-58440880D02*
X143895674Y-58440880D01*
X143895674Y-58440880D02*
X143962639Y-58476594D01*
X143962639Y-58476594D02*
X143993889Y-58512308D01*
X143993889Y-58512308D02*
X144020674Y-58583737D01*
X144020674Y-58583737D02*
X143993889Y-58798023D01*
X143993889Y-58798023D02*
X143949246Y-58869451D01*
X143949246Y-58869451D02*
X143909067Y-58905166D01*
X143909067Y-58905166D02*
X143833174Y-58940880D01*
X143833174Y-58940880D02*
X143690317Y-58940880D01*
X143690317Y-58940880D02*
X143623353Y-58905166D01*
X144306388Y-58869451D02*
X144337638Y-58905166D01*
X144337638Y-58905166D02*
X144297460Y-58940880D01*
X144297460Y-58940880D02*
X144266210Y-58905166D01*
X144266210Y-58905166D02*
X144306388Y-58869451D01*
X144306388Y-58869451D02*
X144297460Y-58940880D01*
X144980496Y-58905166D02*
X144904603Y-58940880D01*
X144904603Y-58940880D02*
X144761746Y-58940880D01*
X144761746Y-58940880D02*
X144694781Y-58905166D01*
X144694781Y-58905166D02*
X144663531Y-58869451D01*
X144663531Y-58869451D02*
X144636746Y-58798023D01*
X144636746Y-58798023D02*
X144663531Y-58583737D01*
X144663531Y-58583737D02*
X144708174Y-58512308D01*
X144708174Y-58512308D02*
X144748353Y-58476594D01*
X144748353Y-58476594D02*
X144824246Y-58440880D01*
X144824246Y-58440880D02*
X144967103Y-58440880D01*
X144967103Y-58440880D02*
X145034067Y-58476594D01*
X145404603Y-58940880D02*
X145337638Y-58905166D01*
X145337638Y-58905166D02*
X145306388Y-58869451D01*
X145306388Y-58869451D02*
X145279603Y-58798023D01*
X145279603Y-58798023D02*
X145306388Y-58583737D01*
X145306388Y-58583737D02*
X145351031Y-58512308D01*
X145351031Y-58512308D02*
X145391210Y-58476594D01*
X145391210Y-58476594D02*
X145467103Y-58440880D01*
X145467103Y-58440880D02*
X145574245Y-58440880D01*
X145574245Y-58440880D02*
X145641210Y-58476594D01*
X145641210Y-58476594D02*
X145672460Y-58512308D01*
X145672460Y-58512308D02*
X145699245Y-58583737D01*
X145699245Y-58583737D02*
X145672460Y-58798023D01*
X145672460Y-58798023D02*
X145627817Y-58869451D01*
X145627817Y-58869451D02*
X145587638Y-58905166D01*
X145587638Y-58905166D02*
X145511745Y-58940880D01*
X145511745Y-58940880D02*
X145404603Y-58940880D01*
X145976031Y-58940880D02*
X146038531Y-58440880D01*
X146029602Y-58512308D02*
X146069781Y-58476594D01*
X146069781Y-58476594D02*
X146145674Y-58440880D01*
X146145674Y-58440880D02*
X146252816Y-58440880D01*
X146252816Y-58440880D02*
X146319781Y-58476594D01*
X146319781Y-58476594D02*
X146346566Y-58548023D01*
X146346566Y-58548023D02*
X146297459Y-58940880D01*
X146346566Y-58548023D02*
X146391209Y-58476594D01*
X146391209Y-58476594D02*
X146467102Y-58440880D01*
X146467102Y-58440880D02*
X146574245Y-58440880D01*
X146574245Y-58440880D02*
X146641209Y-58476594D01*
X146641209Y-58476594D02*
X146667995Y-58548023D01*
X146667995Y-58548023D02*
X146618888Y-58940880D01*
X147609959Y-58155166D02*
X146846566Y-59119451D01*
X147824245Y-58440880D02*
X147730495Y-59190880D01*
X147819780Y-58476594D02*
X147895673Y-58440880D01*
X147895673Y-58440880D02*
X148038530Y-58440880D01*
X148038530Y-58440880D02*
X148105495Y-58476594D01*
X148105495Y-58476594D02*
X148136745Y-58512308D01*
X148136745Y-58512308D02*
X148163530Y-58583737D01*
X148163530Y-58583737D02*
X148136745Y-58798023D01*
X148136745Y-58798023D02*
X148092102Y-58869451D01*
X148092102Y-58869451D02*
X148051923Y-58905166D01*
X148051923Y-58905166D02*
X147976030Y-58940880D01*
X147976030Y-58940880D02*
X147833173Y-58940880D01*
X147833173Y-58940880D02*
X147766209Y-58905166D01*
X148440316Y-58940880D02*
X148502816Y-58440880D01*
X148534066Y-58190880D02*
X148493887Y-58226594D01*
X148493887Y-58226594D02*
X148525137Y-58262308D01*
X148525137Y-58262308D02*
X148565316Y-58226594D01*
X148565316Y-58226594D02*
X148534066Y-58190880D01*
X148534066Y-58190880D02*
X148525137Y-58262308D01*
X149123352Y-58905166D02*
X149047459Y-58940880D01*
X149047459Y-58940880D02*
X148904602Y-58940880D01*
X148904602Y-58940880D02*
X148837637Y-58905166D01*
X148837637Y-58905166D02*
X148806387Y-58869451D01*
X148806387Y-58869451D02*
X148779602Y-58798023D01*
X148779602Y-58798023D02*
X148806387Y-58583737D01*
X148806387Y-58583737D02*
X148851030Y-58512308D01*
X148851030Y-58512308D02*
X148891209Y-58476594D01*
X148891209Y-58476594D02*
X148967102Y-58440880D01*
X148967102Y-58440880D02*
X149109959Y-58440880D01*
X149109959Y-58440880D02*
X149176923Y-58476594D01*
X149547459Y-58940880D02*
X149480494Y-58905166D01*
X149480494Y-58905166D02*
X149449244Y-58869451D01*
X149449244Y-58869451D02*
X149422459Y-58798023D01*
X149422459Y-58798023D02*
X149449244Y-58583737D01*
X149449244Y-58583737D02*
X149493887Y-58512308D01*
X149493887Y-58512308D02*
X149534066Y-58476594D01*
X149534066Y-58476594D02*
X149609959Y-58440880D01*
X149609959Y-58440880D02*
X149717101Y-58440880D01*
X149717101Y-58440880D02*
X149784066Y-58476594D01*
X149784066Y-58476594D02*
X149815316Y-58512308D01*
X149815316Y-58512308D02*
X149842101Y-58583737D01*
X149842101Y-58583737D02*
X149815316Y-58798023D01*
X149815316Y-58798023D02*
X149770673Y-58869451D01*
X149770673Y-58869451D02*
X149730494Y-58905166D01*
X149730494Y-58905166D02*
X149654601Y-58940880D01*
X149654601Y-58940880D02*
X149547459Y-58940880D01*
X150154601Y-58655166D02*
X150726030Y-58655166D01*
X151373351Y-58905166D02*
X151297458Y-58940880D01*
X151297458Y-58940880D02*
X151154601Y-58940880D01*
X151154601Y-58940880D02*
X151087636Y-58905166D01*
X151087636Y-58905166D02*
X151056386Y-58869451D01*
X151056386Y-58869451D02*
X151029601Y-58798023D01*
X151029601Y-58798023D02*
X151056386Y-58583737D01*
X151056386Y-58583737D02*
X151101029Y-58512308D01*
X151101029Y-58512308D02*
X151141208Y-58476594D01*
X151141208Y-58476594D02*
X151217101Y-58440880D01*
X151217101Y-58440880D02*
X151359958Y-58440880D01*
X151359958Y-58440880D02*
X151426922Y-58476594D01*
X151797458Y-58940880D02*
X151730493Y-58905166D01*
X151730493Y-58905166D02*
X151699243Y-58869451D01*
X151699243Y-58869451D02*
X151672458Y-58798023D01*
X151672458Y-58798023D02*
X151699243Y-58583737D01*
X151699243Y-58583737D02*
X151743886Y-58512308D01*
X151743886Y-58512308D02*
X151784065Y-58476594D01*
X151784065Y-58476594D02*
X151859958Y-58440880D01*
X151859958Y-58440880D02*
X151967100Y-58440880D01*
X151967100Y-58440880D02*
X152034065Y-58476594D01*
X152034065Y-58476594D02*
X152065315Y-58512308D01*
X152065315Y-58512308D02*
X152092100Y-58583737D01*
X152092100Y-58583737D02*
X152065315Y-58798023D01*
X152065315Y-58798023D02*
X152020672Y-58869451D01*
X152020672Y-58869451D02*
X151980493Y-58905166D01*
X151980493Y-58905166D02*
X151904600Y-58940880D01*
X151904600Y-58940880D02*
X151797458Y-58940880D01*
X152690314Y-58940880D02*
X152784064Y-58190880D01*
X152694779Y-58905166D02*
X152618886Y-58940880D01*
X152618886Y-58940880D02*
X152476029Y-58940880D01*
X152476029Y-58940880D02*
X152409064Y-58905166D01*
X152409064Y-58905166D02*
X152377814Y-58869451D01*
X152377814Y-58869451D02*
X152351029Y-58798023D01*
X152351029Y-58798023D02*
X152377814Y-58583737D01*
X152377814Y-58583737D02*
X152422457Y-58512308D01*
X152422457Y-58512308D02*
X152462636Y-58476594D01*
X152462636Y-58476594D02*
X152538529Y-58440880D01*
X152538529Y-58440880D02*
X152681386Y-58440880D01*
X152681386Y-58440880D02*
X152748350Y-58476594D01*
X153337635Y-58905166D02*
X153261742Y-58940880D01*
X153261742Y-58940880D02*
X153118885Y-58940880D01*
X153118885Y-58940880D02*
X153051921Y-58905166D01*
X153051921Y-58905166D02*
X153025135Y-58833737D01*
X153025135Y-58833737D02*
X153060850Y-58548023D01*
X153060850Y-58548023D02*
X153105492Y-58476594D01*
X153105492Y-58476594D02*
X153181385Y-58440880D01*
X153181385Y-58440880D02*
X153324242Y-58440880D01*
X153324242Y-58440880D02*
X153391207Y-58476594D01*
X153391207Y-58476594D02*
X153417992Y-58548023D01*
X153417992Y-58548023D02*
X153409064Y-58619451D01*
X153409064Y-58619451D02*
X153042992Y-58690880D01*
X153690314Y-58940880D02*
X153752814Y-58440880D01*
X153734957Y-58583737D02*
X153779599Y-58512308D01*
X153779599Y-58512308D02*
X153819778Y-58476594D01*
X153819778Y-58476594D02*
X153895671Y-58440880D01*
X153895671Y-58440880D02*
X153967099Y-58440880D01*
X154788528Y-58155166D02*
X154025135Y-59119451D01*
X154909064Y-58905166D02*
X154976028Y-58940880D01*
X154976028Y-58940880D02*
X155118885Y-58940880D01*
X155118885Y-58940880D02*
X155194778Y-58905166D01*
X155194778Y-58905166D02*
X155239421Y-58833737D01*
X155239421Y-58833737D02*
X155243885Y-58798023D01*
X155243885Y-58798023D02*
X155217099Y-58726594D01*
X155217099Y-58726594D02*
X155150135Y-58690880D01*
X155150135Y-58690880D02*
X155042992Y-58690880D01*
X155042992Y-58690880D02*
X154976028Y-58655166D01*
X154976028Y-58655166D02*
X154949242Y-58583737D01*
X154949242Y-58583737D02*
X154953707Y-58548023D01*
X154953707Y-58548023D02*
X154998349Y-58476594D01*
X154998349Y-58476594D02*
X155074242Y-58440880D01*
X155074242Y-58440880D02*
X155181385Y-58440880D01*
X155181385Y-58440880D02*
X155248349Y-58476594D01*
X155547457Y-58940880D02*
X155609957Y-58440880D01*
X155641207Y-58190880D02*
X155601028Y-58226594D01*
X155601028Y-58226594D02*
X155632278Y-58262308D01*
X155632278Y-58262308D02*
X155672457Y-58226594D01*
X155672457Y-58226594D02*
X155641207Y-58190880D01*
X155641207Y-58190880D02*
X155632278Y-58262308D01*
X156288528Y-58440880D02*
X156212635Y-59048023D01*
X156212635Y-59048023D02*
X156167993Y-59119451D01*
X156167993Y-59119451D02*
X156127814Y-59155166D01*
X156127814Y-59155166D02*
X156051921Y-59190880D01*
X156051921Y-59190880D02*
X155944778Y-59190880D01*
X155944778Y-59190880D02*
X155877814Y-59155166D01*
X156230493Y-58905166D02*
X156154600Y-58940880D01*
X156154600Y-58940880D02*
X156011743Y-58940880D01*
X156011743Y-58940880D02*
X155944778Y-58905166D01*
X155944778Y-58905166D02*
X155913528Y-58869451D01*
X155913528Y-58869451D02*
X155886743Y-58798023D01*
X155886743Y-58798023D02*
X155913528Y-58583737D01*
X155913528Y-58583737D02*
X155958171Y-58512308D01*
X155958171Y-58512308D02*
X155998350Y-58476594D01*
X155998350Y-58476594D02*
X156074243Y-58440880D01*
X156074243Y-58440880D02*
X156217100Y-58440880D01*
X156217100Y-58440880D02*
X156284064Y-58476594D01*
X156583171Y-58940880D02*
X156645671Y-58440880D01*
X156627814Y-58583737D02*
X156672456Y-58512308D01*
X156672456Y-58512308D02*
X156712635Y-58476594D01*
X156712635Y-58476594D02*
X156788528Y-58440880D01*
X156788528Y-58440880D02*
X156859956Y-58440880D01*
X157154600Y-58940880D02*
X157087635Y-58905166D01*
X157087635Y-58905166D02*
X157056385Y-58869451D01*
X157056385Y-58869451D02*
X157029600Y-58798023D01*
X157029600Y-58798023D02*
X157056385Y-58583737D01*
X157056385Y-58583737D02*
X157101028Y-58512308D01*
X157101028Y-58512308D02*
X157141207Y-58476594D01*
X157141207Y-58476594D02*
X157217100Y-58440880D01*
X157217100Y-58440880D02*
X157324242Y-58440880D01*
X157324242Y-58440880D02*
X157391207Y-58476594D01*
X157391207Y-58476594D02*
X157422457Y-58512308D01*
X157422457Y-58512308D02*
X157449242Y-58583737D01*
X157449242Y-58583737D02*
X157422457Y-58798023D01*
X157422457Y-58798023D02*
X157377814Y-58869451D01*
X157377814Y-58869451D02*
X157337635Y-58905166D01*
X157337635Y-58905166D02*
X157261742Y-58940880D01*
X157261742Y-58940880D02*
X157154600Y-58940880D01*
X157726028Y-58940880D02*
X157819778Y-58190880D01*
X157833171Y-58655166D02*
X158011742Y-58940880D01*
X158074242Y-58440880D02*
X157752813Y-58726594D01*
X158368885Y-58655166D02*
X158940314Y-58655166D01*
X159324242Y-58440880D02*
X159230492Y-59190880D01*
X159319777Y-58476594D02*
X159395670Y-58440880D01*
X159395670Y-58440880D02*
X159538527Y-58440880D01*
X159538527Y-58440880D02*
X159605492Y-58476594D01*
X159605492Y-58476594D02*
X159636742Y-58512308D01*
X159636742Y-58512308D02*
X159663527Y-58583737D01*
X159663527Y-58583737D02*
X159636742Y-58798023D01*
X159636742Y-58798023D02*
X159592099Y-58869451D01*
X159592099Y-58869451D02*
X159551920Y-58905166D01*
X159551920Y-58905166D02*
X159476027Y-58940880D01*
X159476027Y-58940880D02*
X159333170Y-58940880D01*
X159333170Y-58940880D02*
X159266206Y-58905166D01*
X159940313Y-58940880D02*
X160002813Y-58440880D01*
X160034063Y-58190880D02*
X159993884Y-58226594D01*
X159993884Y-58226594D02*
X160025134Y-58262308D01*
X160025134Y-58262308D02*
X160065313Y-58226594D01*
X160065313Y-58226594D02*
X160034063Y-58190880D01*
X160034063Y-58190880D02*
X160025134Y-58262308D01*
X160623349Y-58905166D02*
X160547456Y-58940880D01*
X160547456Y-58940880D02*
X160404599Y-58940880D01*
X160404599Y-58940880D02*
X160337634Y-58905166D01*
X160337634Y-58905166D02*
X160306384Y-58869451D01*
X160306384Y-58869451D02*
X160279599Y-58798023D01*
X160279599Y-58798023D02*
X160306384Y-58583737D01*
X160306384Y-58583737D02*
X160351027Y-58512308D01*
X160351027Y-58512308D02*
X160391206Y-58476594D01*
X160391206Y-58476594D02*
X160467099Y-58440880D01*
X160467099Y-58440880D02*
X160609956Y-58440880D01*
X160609956Y-58440880D02*
X160676920Y-58476594D01*
X161047456Y-58940880D02*
X160980491Y-58905166D01*
X160980491Y-58905166D02*
X160949241Y-58869451D01*
X160949241Y-58869451D02*
X160922456Y-58798023D01*
X160922456Y-58798023D02*
X160949241Y-58583737D01*
X160949241Y-58583737D02*
X160993884Y-58512308D01*
X160993884Y-58512308D02*
X161034063Y-58476594D01*
X161034063Y-58476594D02*
X161109956Y-58440880D01*
X161109956Y-58440880D02*
X161217098Y-58440880D01*
X161217098Y-58440880D02*
X161284063Y-58476594D01*
X161284063Y-58476594D02*
X161315313Y-58512308D01*
X161315313Y-58512308D02*
X161342098Y-58583737D01*
X161342098Y-58583737D02*
X161315313Y-58798023D01*
X161315313Y-58798023D02*
X161270670Y-58869451D01*
X161270670Y-58869451D02*
X161230491Y-58905166D01*
X161230491Y-58905166D02*
X161154598Y-58940880D01*
X161154598Y-58940880D02*
X161047456Y-58940880D01*
D12*
X163595237Y-107504675D02*
X163261904Y-107028484D01*
X163023809Y-107504675D02*
X163023809Y-106504675D01*
X163023809Y-106504675D02*
X163404761Y-106504675D01*
X163404761Y-106504675D02*
X163499999Y-106552294D01*
X163499999Y-106552294D02*
X163547618Y-106599913D01*
X163547618Y-106599913D02*
X163595237Y-106695151D01*
X163595237Y-106695151D02*
X163595237Y-106838008D01*
X163595237Y-106838008D02*
X163547618Y-106933246D01*
X163547618Y-106933246D02*
X163499999Y-106980865D01*
X163499999Y-106980865D02*
X163404761Y-107028484D01*
X163404761Y-107028484D02*
X163023809Y-107028484D01*
X164023809Y-106980865D02*
X164357142Y-106980865D01*
X164499999Y-107504675D02*
X164023809Y-107504675D01*
X164023809Y-107504675D02*
X164023809Y-106504675D01*
X164023809Y-106504675D02*
X164499999Y-106504675D01*
X164785714Y-106504675D02*
X165119047Y-107504675D01*
X165119047Y-107504675D02*
X165452380Y-106504675D01*
X166500000Y-106599913D02*
X166547619Y-106552294D01*
X166547619Y-106552294D02*
X166642857Y-106504675D01*
X166642857Y-106504675D02*
X166880952Y-106504675D01*
X166880952Y-106504675D02*
X166976190Y-106552294D01*
X166976190Y-106552294D02*
X167023809Y-106599913D01*
X167023809Y-106599913D02*
X167071428Y-106695151D01*
X167071428Y-106695151D02*
X167071428Y-106790389D01*
X167071428Y-106790389D02*
X167023809Y-106933246D01*
X167023809Y-106933246D02*
X166452381Y-107504675D01*
X166452381Y-107504675D02*
X167071428Y-107504675D01*
X167500000Y-107409436D02*
X167547619Y-107457056D01*
X167547619Y-107457056D02*
X167500000Y-107504675D01*
X167500000Y-107504675D02*
X167452381Y-107457056D01*
X167452381Y-107457056D02*
X167500000Y-107409436D01*
X167500000Y-107409436D02*
X167500000Y-107504675D01*
X168166666Y-106504675D02*
X168261904Y-106504675D01*
X168261904Y-106504675D02*
X168357142Y-106552294D01*
X168357142Y-106552294D02*
X168404761Y-106599913D01*
X168404761Y-106599913D02*
X168452380Y-106695151D01*
X168452380Y-106695151D02*
X168499999Y-106885627D01*
X168499999Y-106885627D02*
X168499999Y-107123722D01*
X168499999Y-107123722D02*
X168452380Y-107314198D01*
X168452380Y-107314198D02*
X168404761Y-107409436D01*
X168404761Y-107409436D02*
X168357142Y-107457056D01*
X168357142Y-107457056D02*
X168261904Y-107504675D01*
X168261904Y-107504675D02*
X168166666Y-107504675D01*
X168166666Y-107504675D02*
X168071428Y-107457056D01*
X168071428Y-107457056D02*
X168023809Y-107409436D01*
X168023809Y-107409436D02*
X167976190Y-107314198D01*
X167976190Y-107314198D02*
X167928571Y-107123722D01*
X167928571Y-107123722D02*
X167928571Y-106885627D01*
X167928571Y-106885627D02*
X167976190Y-106695151D01*
X167976190Y-106695151D02*
X168023809Y-106599913D01*
X168023809Y-106599913D02*
X168071428Y-106552294D01*
X168071428Y-106552294D02*
X168166666Y-106504675D01*
X169690476Y-107504675D02*
X169690476Y-106504675D01*
X169690476Y-106504675D02*
X169928571Y-106504675D01*
X169928571Y-106504675D02*
X170071428Y-106552294D01*
X170071428Y-106552294D02*
X170166666Y-106647532D01*
X170166666Y-106647532D02*
X170214285Y-106742770D01*
X170214285Y-106742770D02*
X170261904Y-106933246D01*
X170261904Y-106933246D02*
X170261904Y-107076103D01*
X170261904Y-107076103D02*
X170214285Y-107266579D01*
X170214285Y-107266579D02*
X170166666Y-107361817D01*
X170166666Y-107361817D02*
X170071428Y-107457056D01*
X170071428Y-107457056D02*
X169928571Y-107504675D01*
X169928571Y-107504675D02*
X169690476Y-107504675D01*
X170690476Y-106980865D02*
X171023809Y-106980865D01*
X171166666Y-107504675D02*
X170690476Y-107504675D01*
X170690476Y-107504675D02*
X170690476Y-106504675D01*
X170690476Y-106504675D02*
X171166666Y-106504675D01*
X171452381Y-106504675D02*
X171785714Y-107504675D01*
X171785714Y-107504675D02*
X172119047Y-106504675D01*
X162642857Y-108114619D02*
X162642857Y-108828904D01*
X162642857Y-108828904D02*
X162595238Y-108971761D01*
X162595238Y-108971761D02*
X162500000Y-109067000D01*
X162500000Y-109067000D02*
X162357143Y-109114619D01*
X162357143Y-109114619D02*
X162261905Y-109114619D01*
X163547619Y-109114619D02*
X163547619Y-108590809D01*
X163547619Y-108590809D02*
X163500000Y-108495571D01*
X163500000Y-108495571D02*
X163404762Y-108447952D01*
X163404762Y-108447952D02*
X163214286Y-108447952D01*
X163214286Y-108447952D02*
X163119048Y-108495571D01*
X163547619Y-109067000D02*
X163452381Y-109114619D01*
X163452381Y-109114619D02*
X163214286Y-109114619D01*
X163214286Y-109114619D02*
X163119048Y-109067000D01*
X163119048Y-109067000D02*
X163071429Y-108971761D01*
X163071429Y-108971761D02*
X163071429Y-108876523D01*
X163071429Y-108876523D02*
X163119048Y-108781285D01*
X163119048Y-108781285D02*
X163214286Y-108733666D01*
X163214286Y-108733666D02*
X163452381Y-108733666D01*
X163452381Y-108733666D02*
X163547619Y-108686047D01*
X164023810Y-108447952D02*
X164023810Y-109114619D01*
X164023810Y-108543190D02*
X164071429Y-108495571D01*
X164071429Y-108495571D02*
X164166667Y-108447952D01*
X164166667Y-108447952D02*
X164309524Y-108447952D01*
X164309524Y-108447952D02*
X164404762Y-108495571D01*
X164404762Y-108495571D02*
X164452381Y-108590809D01*
X164452381Y-108590809D02*
X164452381Y-109114619D01*
X164928572Y-108733666D02*
X165690477Y-108733666D01*
X166119048Y-108209857D02*
X166166667Y-108162238D01*
X166166667Y-108162238D02*
X166261905Y-108114619D01*
X166261905Y-108114619D02*
X166500000Y-108114619D01*
X166500000Y-108114619D02*
X166595238Y-108162238D01*
X166595238Y-108162238D02*
X166642857Y-108209857D01*
X166642857Y-108209857D02*
X166690476Y-108305095D01*
X166690476Y-108305095D02*
X166690476Y-108400333D01*
X166690476Y-108400333D02*
X166642857Y-108543190D01*
X166642857Y-108543190D02*
X166071429Y-109114619D01*
X166071429Y-109114619D02*
X166690476Y-109114619D01*
X167023810Y-108114619D02*
X167690476Y-108114619D01*
X167690476Y-108114619D02*
X167261905Y-109114619D01*
X168071429Y-108733666D02*
X168833334Y-108733666D01*
X169261905Y-108209857D02*
X169309524Y-108162238D01*
X169309524Y-108162238D02*
X169404762Y-108114619D01*
X169404762Y-108114619D02*
X169642857Y-108114619D01*
X169642857Y-108114619D02*
X169738095Y-108162238D01*
X169738095Y-108162238D02*
X169785714Y-108209857D01*
X169785714Y-108209857D02*
X169833333Y-108305095D01*
X169833333Y-108305095D02*
X169833333Y-108400333D01*
X169833333Y-108400333D02*
X169785714Y-108543190D01*
X169785714Y-108543190D02*
X169214286Y-109114619D01*
X169214286Y-109114619D02*
X169833333Y-109114619D01*
X170452381Y-108114619D02*
X170547619Y-108114619D01*
X170547619Y-108114619D02*
X170642857Y-108162238D01*
X170642857Y-108162238D02*
X170690476Y-108209857D01*
X170690476Y-108209857D02*
X170738095Y-108305095D01*
X170738095Y-108305095D02*
X170785714Y-108495571D01*
X170785714Y-108495571D02*
X170785714Y-108733666D01*
X170785714Y-108733666D02*
X170738095Y-108924142D01*
X170738095Y-108924142D02*
X170690476Y-109019380D01*
X170690476Y-109019380D02*
X170642857Y-109067000D01*
X170642857Y-109067000D02*
X170547619Y-109114619D01*
X170547619Y-109114619D02*
X170452381Y-109114619D01*
X170452381Y-109114619D02*
X170357143Y-109067000D01*
X170357143Y-109067000D02*
X170309524Y-109019380D01*
X170309524Y-109019380D02*
X170261905Y-108924142D01*
X170261905Y-108924142D02*
X170214286Y-108733666D01*
X170214286Y-108733666D02*
X170214286Y-108495571D01*
X170214286Y-108495571D02*
X170261905Y-108305095D01*
X170261905Y-108305095D02*
X170309524Y-108209857D01*
X170309524Y-108209857D02*
X170357143Y-108162238D01*
X170357143Y-108162238D02*
X170452381Y-108114619D01*
X171166667Y-108209857D02*
X171214286Y-108162238D01*
X171214286Y-108162238D02*
X171309524Y-108114619D01*
X171309524Y-108114619D02*
X171547619Y-108114619D01*
X171547619Y-108114619D02*
X171642857Y-108162238D01*
X171642857Y-108162238D02*
X171690476Y-108209857D01*
X171690476Y-108209857D02*
X171738095Y-108305095D01*
X171738095Y-108305095D02*
X171738095Y-108400333D01*
X171738095Y-108400333D02*
X171690476Y-108543190D01*
X171690476Y-108543190D02*
X171119048Y-109114619D01*
X171119048Y-109114619D02*
X171738095Y-109114619D01*
X172642857Y-108114619D02*
X172166667Y-108114619D01*
X172166667Y-108114619D02*
X172119048Y-108590809D01*
X172119048Y-108590809D02*
X172166667Y-108543190D01*
X172166667Y-108543190D02*
X172261905Y-108495571D01*
X172261905Y-108495571D02*
X172500000Y-108495571D01*
X172500000Y-108495571D02*
X172595238Y-108543190D01*
X172595238Y-108543190D02*
X172642857Y-108590809D01*
X172642857Y-108590809D02*
X172690476Y-108686047D01*
X172690476Y-108686047D02*
X172690476Y-108924142D01*
X172690476Y-108924142D02*
X172642857Y-109019380D01*
X172642857Y-109019380D02*
X172595238Y-109067000D01*
X172595238Y-109067000D02*
X172500000Y-109114619D01*
X172500000Y-109114619D02*
X172261905Y-109114619D01*
X172261905Y-109114619D02*
X172166667Y-109067000D01*
X172166667Y-109067000D02*
X172119048Y-109019380D01*
D11*
X168744392Y-80551926D02*
X168708678Y-80659069D01*
X168708678Y-80659069D02*
X168672964Y-80694783D01*
X168672964Y-80694783D02*
X168601535Y-80730497D01*
X168601535Y-80730497D02*
X168494392Y-80730497D01*
X168494392Y-80730497D02*
X168422964Y-80694783D01*
X168422964Y-80694783D02*
X168387250Y-80659069D01*
X168387250Y-80659069D02*
X168351535Y-80587640D01*
X168351535Y-80587640D02*
X168351535Y-80301926D01*
X168351535Y-80301926D02*
X169101535Y-80301926D01*
X169101535Y-80301926D02*
X169101535Y-80551926D01*
X169101535Y-80551926D02*
X169065821Y-80623355D01*
X169065821Y-80623355D02*
X169030107Y-80659069D01*
X169030107Y-80659069D02*
X168958678Y-80694783D01*
X168958678Y-80694783D02*
X168887250Y-80694783D01*
X168887250Y-80694783D02*
X168815821Y-80659069D01*
X168815821Y-80659069D02*
X168780107Y-80623355D01*
X168780107Y-80623355D02*
X168744392Y-80551926D01*
X168744392Y-80551926D02*
X168744392Y-80301926D01*
X169101535Y-81194783D02*
X169101535Y-81337640D01*
X169101535Y-81337640D02*
X169065821Y-81409069D01*
X169065821Y-81409069D02*
X168994392Y-81480497D01*
X168994392Y-81480497D02*
X168851535Y-81516212D01*
X168851535Y-81516212D02*
X168601535Y-81516212D01*
X168601535Y-81516212D02*
X168458678Y-81480497D01*
X168458678Y-81480497D02*
X168387250Y-81409069D01*
X168387250Y-81409069D02*
X168351535Y-81337640D01*
X168351535Y-81337640D02*
X168351535Y-81194783D01*
X168351535Y-81194783D02*
X168387250Y-81123355D01*
X168387250Y-81123355D02*
X168458678Y-81051926D01*
X168458678Y-81051926D02*
X168601535Y-81016212D01*
X168601535Y-81016212D02*
X168851535Y-81016212D01*
X168851535Y-81016212D02*
X168994392Y-81051926D01*
X168994392Y-81051926D02*
X169065821Y-81123355D01*
X169065821Y-81123355D02*
X169101535Y-81194783D01*
X169101535Y-81980497D02*
X169101535Y-82123354D01*
X169101535Y-82123354D02*
X169065821Y-82194783D01*
X169065821Y-82194783D02*
X168994392Y-82266211D01*
X168994392Y-82266211D02*
X168851535Y-82301926D01*
X168851535Y-82301926D02*
X168601535Y-82301926D01*
X168601535Y-82301926D02*
X168458678Y-82266211D01*
X168458678Y-82266211D02*
X168387250Y-82194783D01*
X168387250Y-82194783D02*
X168351535Y-82123354D01*
X168351535Y-82123354D02*
X168351535Y-81980497D01*
X168351535Y-81980497D02*
X168387250Y-81909069D01*
X168387250Y-81909069D02*
X168458678Y-81837640D01*
X168458678Y-81837640D02*
X168601535Y-81801926D01*
X168601535Y-81801926D02*
X168851535Y-81801926D01*
X168851535Y-81801926D02*
X168994392Y-81837640D01*
X168994392Y-81837640D02*
X169065821Y-81909069D01*
X169065821Y-81909069D02*
X169101535Y-81980497D01*
X168387250Y-82587640D02*
X168351535Y-82694783D01*
X168351535Y-82694783D02*
X168351535Y-82873354D01*
X168351535Y-82873354D02*
X168387250Y-82944783D01*
X168387250Y-82944783D02*
X168422964Y-82980497D01*
X168422964Y-82980497D02*
X168494392Y-83016211D01*
X168494392Y-83016211D02*
X168565821Y-83016211D01*
X168565821Y-83016211D02*
X168637250Y-82980497D01*
X168637250Y-82980497D02*
X168672964Y-82944783D01*
X168672964Y-82944783D02*
X168708678Y-82873354D01*
X168708678Y-82873354D02*
X168744392Y-82730497D01*
X168744392Y-82730497D02*
X168780107Y-82659068D01*
X168780107Y-82659068D02*
X168815821Y-82623354D01*
X168815821Y-82623354D02*
X168887250Y-82587640D01*
X168887250Y-82587640D02*
X168958678Y-82587640D01*
X168958678Y-82587640D02*
X169030107Y-82623354D01*
X169030107Y-82623354D02*
X169065821Y-82659068D01*
X169065821Y-82659068D02*
X169101535Y-82730497D01*
X169101535Y-82730497D02*
X169101535Y-82909068D01*
X169101535Y-82909068D02*
X169065821Y-83016211D01*
X169101535Y-83230497D02*
X169101535Y-83659069D01*
X168351535Y-83444783D02*
X169101535Y-83444783D01*
D13*
%TO.C,D7*%
X173475001Y-97857500D02*
X173475001Y-97207500D01*
X173475001Y-97857500D02*
X173475001Y-98507500D01*
X176595001Y-97857500D02*
X176595001Y-97207500D01*
X176595001Y-97857500D02*
X176595001Y-98507500D01*
X176875001Y-96935000D02*
X176545001Y-96695000D01*
X176875001Y-96455000D01*
X176875001Y-96935000D01*
G36*
X176875001Y-96935000D02*
G01*
X176545001Y-96695000D01*
X176875001Y-96455000D01*
X176875001Y-96935000D01*
G37*
%TO.C,C5*%
X171325000Y-97810580D02*
X171325000Y-97529420D01*
X172345000Y-97810580D02*
X172345000Y-97529420D01*
%TO.C,SW3*%
X185910000Y-59090000D02*
X185910000Y-60473000D01*
X185910000Y-59090000D02*
X187294000Y-59090000D01*
X186150000Y-59330000D02*
X186150000Y-71790000D01*
X186150000Y-59330000D02*
X196050000Y-59330000D01*
X186150000Y-71790000D02*
X196050000Y-71790000D01*
X189070000Y-61115000D02*
X189070000Y-62385000D01*
X189070000Y-61235000D02*
X190423333Y-61235000D01*
X189070000Y-61355000D02*
X190423333Y-61355000D01*
X189070000Y-61475000D02*
X190423333Y-61475000D01*
X189070000Y-61595000D02*
X190423333Y-61595000D01*
X189070000Y-61715000D02*
X190423333Y-61715000D01*
X189070000Y-61835000D02*
X190423333Y-61835000D01*
X189070000Y-61955000D02*
X190423333Y-61955000D01*
X189070000Y-62075000D02*
X190423333Y-62075000D01*
X189070000Y-62195000D02*
X190423333Y-62195000D01*
X189070000Y-62315000D02*
X190423333Y-62315000D01*
X189070000Y-62385000D02*
X193130000Y-62385000D01*
X189070000Y-63655000D02*
X189070000Y-64925000D01*
X189070000Y-63775000D02*
X190423333Y-63775000D01*
X189070000Y-63895000D02*
X190423333Y-63895000D01*
X189070000Y-64015000D02*
X190423333Y-64015000D01*
X189070000Y-64135000D02*
X190423333Y-64135000D01*
X189070000Y-64255000D02*
X190423333Y-64255000D01*
X189070000Y-64375000D02*
X190423333Y-64375000D01*
X189070000Y-64495000D02*
X190423333Y-64495000D01*
X189070000Y-64615000D02*
X190423333Y-64615000D01*
X189070000Y-64735000D02*
X190423333Y-64735000D01*
X189070000Y-64855000D02*
X190423333Y-64855000D01*
X189070000Y-64925000D02*
X193130000Y-64925000D01*
X189070000Y-66195000D02*
X189070000Y-67465000D01*
X189070000Y-66315000D02*
X190423333Y-66315000D01*
X189070000Y-66435000D02*
X190423333Y-66435000D01*
X189070000Y-66555000D02*
X190423333Y-66555000D01*
X189070000Y-66675000D02*
X190423333Y-66675000D01*
X189070000Y-66795000D02*
X190423333Y-66795000D01*
X189070000Y-66915000D02*
X190423333Y-66915000D01*
X189070000Y-67035000D02*
X190423333Y-67035000D01*
X189070000Y-67155000D02*
X190423333Y-67155000D01*
X189070000Y-67275000D02*
X190423333Y-67275000D01*
X189070000Y-67395000D02*
X190423333Y-67395000D01*
X189070000Y-67465000D02*
X193130000Y-67465000D01*
X189070000Y-68735000D02*
X189070000Y-70005000D01*
X189070000Y-68855000D02*
X190423333Y-68855000D01*
X189070000Y-68975000D02*
X190423333Y-68975000D01*
X189070000Y-69095000D02*
X190423333Y-69095000D01*
X189070000Y-69215000D02*
X190423333Y-69215000D01*
X189070000Y-69335000D02*
X190423333Y-69335000D01*
X189070000Y-69455000D02*
X190423333Y-69455000D01*
X189070000Y-69575000D02*
X190423333Y-69575000D01*
X189070000Y-69695000D02*
X190423333Y-69695000D01*
X189070000Y-69815000D02*
X190423333Y-69815000D01*
X189070000Y-69935000D02*
X190423333Y-69935000D01*
X189070000Y-70005000D02*
X193130000Y-70005000D01*
X190423333Y-61115000D02*
X190423333Y-62385000D01*
X190423333Y-63655000D02*
X190423333Y-64925000D01*
X190423333Y-66195000D02*
X190423333Y-67465000D01*
X190423333Y-68735000D02*
X190423333Y-70005000D01*
X193130000Y-61115000D02*
X189070000Y-61115000D01*
X193130000Y-62385000D02*
X193130000Y-61115000D01*
X193130000Y-63655000D02*
X189070000Y-63655000D01*
X193130000Y-64925000D02*
X193130000Y-63655000D01*
X193130000Y-66195000D02*
X189070000Y-66195000D01*
X193130000Y-67465000D02*
X193130000Y-66195000D01*
X193130000Y-68735000D02*
X189070000Y-68735000D01*
X193130000Y-70005000D02*
X193130000Y-68735000D01*
X196050000Y-59330000D02*
X196050000Y-71790000D01*
%TO.C,D4*%
X173575001Y-88232500D02*
X173575001Y-87582500D01*
X173575001Y-88232500D02*
X173575001Y-88882500D01*
X176695001Y-88232500D02*
X176695001Y-87582500D01*
X176695001Y-88232500D02*
X176695001Y-88882500D01*
X173625001Y-89395000D02*
X173295001Y-89635000D01*
X173295001Y-89155000D01*
X173625001Y-89395000D01*
G36*
X173625001Y-89395000D02*
G01*
X173295001Y-89635000D01*
X173295001Y-89155000D01*
X173625001Y-89395000D01*
G37*
%TO.C,D5*%
X173530001Y-62062500D02*
X173530001Y-61412500D01*
X173530001Y-62062500D02*
X173530001Y-62712500D01*
X176650001Y-62062500D02*
X176650001Y-61412500D01*
X176650001Y-62062500D02*
X176650001Y-62712500D01*
X173580001Y-63225000D02*
X173250001Y-63465000D01*
X173250001Y-62985000D01*
X173580001Y-63225000D01*
G36*
X173580001Y-63225000D02*
G01*
X173250001Y-63465000D01*
X173250001Y-62985000D01*
X173580001Y-63225000D01*
G37*
%TO.C,J11*%
X156170000Y-106230000D02*
X156170000Y-106170000D01*
X158830000Y-106170000D02*
X156170000Y-106170000D01*
X158830000Y-106230000D02*
X156170000Y-106230000D01*
X158830000Y-106230000D02*
X158830000Y-106170000D01*
X158830000Y-107500000D02*
X158830000Y-108830000D01*
X158830000Y-108830000D02*
X157500000Y-108830000D01*
%TO.C,C1*%
X160865000Y-81440580D02*
X160865000Y-81159420D01*
X161885000Y-81440580D02*
X161885000Y-81159420D01*
%TO.C,C2*%
X164209420Y-78440000D02*
X164490580Y-78440000D01*
X164209420Y-79460000D02*
X164490580Y-79460000D01*
%TO.C,D9*%
X158740000Y-89812500D02*
X158740000Y-89162500D01*
X158740000Y-89812500D02*
X158740000Y-90462500D01*
X161860000Y-89812500D02*
X161860000Y-89162500D01*
X161860000Y-89812500D02*
X161860000Y-90462500D01*
X158790000Y-90975000D02*
X158460000Y-91215000D01*
X158460000Y-90735000D01*
X158790000Y-90975000D01*
G36*
X158790000Y-90975000D02*
G01*
X158460000Y-91215000D01*
X158460000Y-90735000D01*
X158790000Y-90975000D01*
G37*
%TO.C,RN5*%
X180110001Y-71250000D02*
X180110001Y-70750000D01*
X182470001Y-71250000D02*
X182470001Y-70750000D01*
%TO.C,U1*%
X164262500Y-79940000D02*
X163462500Y-79940000D01*
X164262500Y-79940000D02*
X165062500Y-79940000D01*
X164262500Y-83060000D02*
X163462500Y-83060000D01*
X164262500Y-83060000D02*
X165062500Y-83060000D01*
X162962500Y-79990000D02*
X162722500Y-79660000D01*
X163202500Y-79660000D01*
X162962500Y-79990000D01*
G36*
X162962500Y-79990000D02*
G01*
X162722500Y-79660000D01*
X163202500Y-79660000D01*
X162962500Y-79990000D01*
G37*
%TO.C,C3*%
X166615000Y-82440580D02*
X166615000Y-82159420D01*
X167635000Y-82440580D02*
X167635000Y-82159420D01*
D14*
%TO.C,G1*%
X206652600Y-108458752D02*
X206669948Y-108466334D01*
X206711356Y-108499128D01*
X206746765Y-108546547D01*
X206768664Y-108597151D01*
X206772229Y-108622098D01*
X206760279Y-108656927D01*
X206734067Y-108675357D01*
X206705964Y-108686516D01*
X206693095Y-108688572D01*
X206686829Y-108673649D01*
X206674456Y-108641175D01*
X206669028Y-108626502D01*
X206638590Y-108575744D01*
X206594520Y-108550427D01*
X206538010Y-108551206D01*
X206533825Y-108552203D01*
X206503655Y-108566507D01*
X206481476Y-108594393D01*
X206466327Y-108639287D01*
X206457250Y-108704615D01*
X206453286Y-108793804D01*
X206452914Y-108841261D01*
X206452730Y-108916071D01*
X206451522Y-108967069D01*
X206448309Y-108999471D01*
X206442109Y-109018495D01*
X206431940Y-109029356D01*
X206416819Y-109037272D01*
X206415946Y-109037670D01*
X206386828Y-109049981D01*
X206372403Y-109054514D01*
X206370186Y-109040809D01*
X206368289Y-109002925D01*
X206366847Y-108945715D01*
X206365998Y-108874027D01*
X206365829Y-108821565D01*
X206366692Y-108720047D01*
X206370070Y-108643032D01*
X206377142Y-108586023D01*
X206389088Y-108544526D01*
X206407090Y-108514043D01*
X206432327Y-108490080D01*
X206457247Y-108473355D01*
X206517171Y-108451097D01*
X206586911Y-108446076D01*
X206652600Y-108458752D01*
G36*
X206652600Y-108458752D02*
G01*
X206669948Y-108466334D01*
X206711356Y-108499128D01*
X206746765Y-108546547D01*
X206768664Y-108597151D01*
X206772229Y-108622098D01*
X206760279Y-108656927D01*
X206734067Y-108675357D01*
X206705964Y-108686516D01*
X206693095Y-108688572D01*
X206686829Y-108673649D01*
X206674456Y-108641175D01*
X206669028Y-108626502D01*
X206638590Y-108575744D01*
X206594520Y-108550427D01*
X206538010Y-108551206D01*
X206533825Y-108552203D01*
X206503655Y-108566507D01*
X206481476Y-108594393D01*
X206466327Y-108639287D01*
X206457250Y-108704615D01*
X206453286Y-108793804D01*
X206452914Y-108841261D01*
X206452730Y-108916071D01*
X206451522Y-108967069D01*
X206448309Y-108999471D01*
X206442109Y-109018495D01*
X206431940Y-109029356D01*
X206416819Y-109037272D01*
X206415946Y-109037670D01*
X206386828Y-109049981D01*
X206372403Y-109054514D01*
X206370186Y-109040809D01*
X206368289Y-109002925D01*
X206366847Y-108945715D01*
X206365998Y-108874027D01*
X206365829Y-108821565D01*
X206366692Y-108720047D01*
X206370070Y-108643032D01*
X206377142Y-108586023D01*
X206389088Y-108544526D01*
X206407090Y-108514043D01*
X206432327Y-108490080D01*
X206457247Y-108473355D01*
X206517171Y-108451097D01*
X206586911Y-108446076D01*
X206652600Y-108458752D01*
G37*
X202716093Y-108427780D02*
X202762672Y-108454723D01*
X202795057Y-108481466D01*
X202818742Y-108509484D01*
X202835059Y-108543748D01*
X202845339Y-108589227D01*
X202850914Y-108650892D01*
X202853116Y-108733711D01*
X202853371Y-108793246D01*
X202853371Y-109012391D01*
X202791686Y-109040044D01*
X202730000Y-109067697D01*
X202722743Y-108827670D01*
X202719744Y-108738028D01*
X202716598Y-108672962D01*
X202712701Y-108628026D01*
X202707447Y-108598770D01*
X202700231Y-108580748D01*
X202690450Y-108569511D01*
X202687312Y-108567079D01*
X202639761Y-108548083D01*
X202591697Y-108555600D01*
X202563086Y-108575543D01*
X202551447Y-108589675D01*
X202543391Y-108608220D01*
X202538271Y-108636334D01*
X202535441Y-108679173D01*
X202534256Y-108741895D01*
X202534057Y-108807261D01*
X202534018Y-108889268D01*
X202532614Y-108947316D01*
X202527914Y-108986465D01*
X202517987Y-109011780D01*
X202500903Y-109028323D01*
X202474732Y-109041156D01*
X202439775Y-109054491D01*
X202401596Y-109069007D01*
X202406141Y-108811389D01*
X202407971Y-108718519D01*
X202410112Y-108649889D01*
X202413181Y-108600711D01*
X202417794Y-108566198D01*
X202424568Y-108541562D01*
X202434119Y-108522016D01*
X202445634Y-108504770D01*
X202501190Y-108449680D01*
X202568980Y-108417822D01*
X202642713Y-108410191D01*
X202716093Y-108427780D01*
G36*
X202716093Y-108427780D02*
G01*
X202762672Y-108454723D01*
X202795057Y-108481466D01*
X202818742Y-108509484D01*
X202835059Y-108543748D01*
X202845339Y-108589227D01*
X202850914Y-108650892D01*
X202853116Y-108733711D01*
X202853371Y-108793246D01*
X202853371Y-109012391D01*
X202791686Y-109040044D01*
X202730000Y-109067697D01*
X202722743Y-108827670D01*
X202719744Y-108738028D01*
X202716598Y-108672962D01*
X202712701Y-108628026D01*
X202707447Y-108598770D01*
X202700231Y-108580748D01*
X202690450Y-108569511D01*
X202687312Y-108567079D01*
X202639761Y-108548083D01*
X202591697Y-108555600D01*
X202563086Y-108575543D01*
X202551447Y-108589675D01*
X202543391Y-108608220D01*
X202538271Y-108636334D01*
X202535441Y-108679173D01*
X202534256Y-108741895D01*
X202534057Y-108807261D01*
X202534018Y-108889268D01*
X202532614Y-108947316D01*
X202527914Y-108986465D01*
X202517987Y-109011780D01*
X202500903Y-109028323D01*
X202474732Y-109041156D01*
X202439775Y-109054491D01*
X202401596Y-109069007D01*
X202406141Y-108811389D01*
X202407971Y-108718519D01*
X202410112Y-108649889D01*
X202413181Y-108600711D01*
X202417794Y-108566198D01*
X202424568Y-108541562D01*
X202434119Y-108522016D01*
X202445634Y-108504770D01*
X202501190Y-108449680D01*
X202568980Y-108417822D01*
X202642713Y-108410191D01*
X202716093Y-108427780D01*
G37*
X204529926Y-108449755D02*
X204595858Y-108474084D01*
X204649273Y-108517117D01*
X204670164Y-108547409D01*
X204692939Y-108602994D01*
X204692466Y-108643186D01*
X204668562Y-108670217D01*
X204659717Y-108674813D01*
X204621530Y-108689144D01*
X204602028Y-108685472D01*
X204595422Y-108661407D01*
X204595086Y-108648114D01*
X204582992Y-108599210D01*
X204551471Y-108564999D01*
X204507659Y-108548476D01*
X204458695Y-108552634D01*
X204418894Y-108574227D01*
X204405450Y-108586544D01*
X204395921Y-108601487D01*
X204389485Y-108624075D01*
X204385317Y-108659328D01*
X204382597Y-108712266D01*
X204380502Y-108787907D01*
X204379960Y-108811857D01*
X204377981Y-108893790D01*
X204375731Y-108951455D01*
X204372357Y-108989608D01*
X204367006Y-109013004D01*
X204358824Y-109026398D01*
X204346959Y-109034545D01*
X204339362Y-109038144D01*
X204307102Y-109050452D01*
X204288111Y-109054514D01*
X204281836Y-109040948D01*
X204278006Y-108999934D01*
X204276600Y-108930999D01*
X204277598Y-108833669D01*
X204277908Y-108818657D01*
X204280101Y-108729859D01*
X204282693Y-108665019D01*
X204286382Y-108619067D01*
X204291864Y-108586935D01*
X204299835Y-108563553D01*
X204310993Y-108543852D01*
X204316830Y-108535410D01*
X204350296Y-108498057D01*
X204387727Y-108469003D01*
X204392309Y-108466467D01*
X204459426Y-108446443D01*
X204529926Y-108449755D01*
G36*
X204529926Y-108449755D02*
G01*
X204595858Y-108474084D01*
X204649273Y-108517117D01*
X204670164Y-108547409D01*
X204692939Y-108602994D01*
X204692466Y-108643186D01*
X204668562Y-108670217D01*
X204659717Y-108674813D01*
X204621530Y-108689144D01*
X204602028Y-108685472D01*
X204595422Y-108661407D01*
X204595086Y-108648114D01*
X204582992Y-108599210D01*
X204551471Y-108564999D01*
X204507659Y-108548476D01*
X204458695Y-108552634D01*
X204418894Y-108574227D01*
X204405450Y-108586544D01*
X204395921Y-108601487D01*
X204389485Y-108624075D01*
X204385317Y-108659328D01*
X204382597Y-108712266D01*
X204380502Y-108787907D01*
X204379960Y-108811857D01*
X204377981Y-108893790D01*
X204375731Y-108951455D01*
X204372357Y-108989608D01*
X204367006Y-109013004D01*
X204358824Y-109026398D01*
X204346959Y-109034545D01*
X204339362Y-109038144D01*
X204307102Y-109050452D01*
X204288111Y-109054514D01*
X204281836Y-109040948D01*
X204278006Y-108999934D01*
X204276600Y-108930999D01*
X204277598Y-108833669D01*
X204277908Y-108818657D01*
X204280101Y-108729859D01*
X204282693Y-108665019D01*
X204286382Y-108619067D01*
X204291864Y-108586935D01*
X204299835Y-108563553D01*
X204310993Y-108543852D01*
X204316830Y-108535410D01*
X204350296Y-108498057D01*
X204387727Y-108469003D01*
X204392309Y-108466467D01*
X204459426Y-108446443D01*
X204529926Y-108449755D01*
G37*
X203375886Y-108351289D02*
X203380139Y-108410613D01*
X203385025Y-108445572D01*
X203391795Y-108460820D01*
X203401702Y-108461015D01*
X203404914Y-108459195D01*
X203447644Y-108446015D01*
X203503227Y-108446785D01*
X203559737Y-108460333D01*
X203595082Y-108477861D01*
X203631321Y-108505861D01*
X203657813Y-108537549D01*
X203675999Y-108577813D01*
X203687322Y-108631543D01*
X203693222Y-108703626D01*
X203695143Y-108798951D01*
X203695177Y-108817237D01*
X203695200Y-109022646D01*
X203649491Y-109038580D01*
X203617027Y-109049420D01*
X203599215Y-109054468D01*
X203598691Y-109054514D01*
X203596937Y-109040828D01*
X203595444Y-109003076D01*
X203594326Y-108946224D01*
X203593697Y-108875234D01*
X203593600Y-108832073D01*
X203593398Y-108746973D01*
X203592358Y-108685981D01*
X203589831Y-108644177D01*
X203585164Y-108616642D01*
X203577707Y-108598456D01*
X203566811Y-108584698D01*
X203560007Y-108578073D01*
X203513272Y-108551375D01*
X203462272Y-108549375D01*
X203416001Y-108571955D01*
X203407444Y-108580107D01*
X203394893Y-108595436D01*
X203386188Y-108613618D01*
X203380631Y-108639909D01*
X203377526Y-108679562D01*
X203376176Y-108737832D01*
X203375886Y-108818173D01*
X203375886Y-109022646D01*
X203330177Y-109038580D01*
X203297713Y-109049420D01*
X203279901Y-109054468D01*
X203279377Y-109054514D01*
X203278037Y-109040623D01*
X203276828Y-109001439D01*
X203275801Y-108940700D01*
X203275002Y-108862141D01*
X203274481Y-108769498D01*
X203274286Y-108666509D01*
X203274286Y-108269342D01*
X203321457Y-108249444D01*
X203368629Y-108229547D01*
X203375886Y-108351289D01*
G36*
X203375886Y-108351289D02*
G01*
X203380139Y-108410613D01*
X203385025Y-108445572D01*
X203391795Y-108460820D01*
X203401702Y-108461015D01*
X203404914Y-108459195D01*
X203447644Y-108446015D01*
X203503227Y-108446785D01*
X203559737Y-108460333D01*
X203595082Y-108477861D01*
X203631321Y-108505861D01*
X203657813Y-108537549D01*
X203675999Y-108577813D01*
X203687322Y-108631543D01*
X203693222Y-108703626D01*
X203695143Y-108798951D01*
X203695177Y-108817237D01*
X203695200Y-109022646D01*
X203649491Y-109038580D01*
X203617027Y-109049420D01*
X203599215Y-109054468D01*
X203598691Y-109054514D01*
X203596937Y-109040828D01*
X203595444Y-109003076D01*
X203594326Y-108946224D01*
X203593697Y-108875234D01*
X203593600Y-108832073D01*
X203593398Y-108746973D01*
X203592358Y-108685981D01*
X203589831Y-108644177D01*
X203585164Y-108616642D01*
X203577707Y-108598456D01*
X203566811Y-108584698D01*
X203560007Y-108578073D01*
X203513272Y-108551375D01*
X203462272Y-108549375D01*
X203416001Y-108571955D01*
X203407444Y-108580107D01*
X203394893Y-108595436D01*
X203386188Y-108613618D01*
X203380631Y-108639909D01*
X203377526Y-108679562D01*
X203376176Y-108737832D01*
X203375886Y-108818173D01*
X203375886Y-109022646D01*
X203330177Y-109038580D01*
X203297713Y-109049420D01*
X203279901Y-109054468D01*
X203279377Y-109054514D01*
X203278037Y-109040623D01*
X203276828Y-109001439D01*
X203275801Y-108940700D01*
X203275002Y-108862141D01*
X203274481Y-108769498D01*
X203274286Y-108666509D01*
X203274286Y-108269342D01*
X203321457Y-108249444D01*
X203368629Y-108229547D01*
X203375886Y-108351289D01*
G37*
X205779833Y-108458663D02*
X205782048Y-108496850D01*
X205783784Y-108554886D01*
X205784899Y-108628180D01*
X205785257Y-108705055D01*
X205785257Y-108965196D01*
X205739326Y-109011127D01*
X205707675Y-109039429D01*
X205679890Y-109050893D01*
X205641915Y-109050168D01*
X205626840Y-109048321D01*
X205579726Y-109042948D01*
X205540756Y-109039869D01*
X205531257Y-109039585D01*
X205499233Y-109041445D01*
X205453432Y-109046114D01*
X205435674Y-109048321D01*
X205392057Y-109051735D01*
X205362745Y-109044320D01*
X205333680Y-109021427D01*
X205323188Y-109011127D01*
X205277257Y-108965196D01*
X205277257Y-108478602D01*
X205314226Y-108461758D01*
X205346059Y-108449282D01*
X205364683Y-108444914D01*
X205369458Y-108458718D01*
X205373921Y-108497286D01*
X205377775Y-108556356D01*
X205380722Y-108631663D01*
X205382143Y-108695286D01*
X205386114Y-108945657D01*
X205420759Y-108950556D01*
X205452268Y-108947131D01*
X205467708Y-108936041D01*
X205472023Y-108915308D01*
X205475708Y-108871145D01*
X205478469Y-108809146D01*
X205480012Y-108734909D01*
X205480235Y-108696706D01*
X205480457Y-108476783D01*
X205526166Y-108460849D01*
X205558518Y-108450015D01*
X205576115Y-108444962D01*
X205576623Y-108444914D01*
X205578388Y-108458648D01*
X205580329Y-108496730D01*
X205582282Y-108554482D01*
X205584084Y-108627227D01*
X205585343Y-108695286D01*
X205589314Y-108945657D01*
X205676400Y-108945657D01*
X205680396Y-108717240D01*
X205684392Y-108488822D01*
X205726847Y-108466868D01*
X205758192Y-108451793D01*
X205776744Y-108444951D01*
X205777279Y-108444914D01*
X205779833Y-108458663D01*
G36*
X205779833Y-108458663D02*
G01*
X205782048Y-108496850D01*
X205783784Y-108554886D01*
X205784899Y-108628180D01*
X205785257Y-108705055D01*
X205785257Y-108965196D01*
X205739326Y-109011127D01*
X205707675Y-109039429D01*
X205679890Y-109050893D01*
X205641915Y-109050168D01*
X205626840Y-109048321D01*
X205579726Y-109042948D01*
X205540756Y-109039869D01*
X205531257Y-109039585D01*
X205499233Y-109041445D01*
X205453432Y-109046114D01*
X205435674Y-109048321D01*
X205392057Y-109051735D01*
X205362745Y-109044320D01*
X205333680Y-109021427D01*
X205323188Y-109011127D01*
X205277257Y-108965196D01*
X205277257Y-108478602D01*
X205314226Y-108461758D01*
X205346059Y-108449282D01*
X205364683Y-108444914D01*
X205369458Y-108458718D01*
X205373921Y-108497286D01*
X205377775Y-108556356D01*
X205380722Y-108631663D01*
X205382143Y-108695286D01*
X205386114Y-108945657D01*
X205420759Y-108950556D01*
X205452268Y-108947131D01*
X205467708Y-108936041D01*
X205472023Y-108915308D01*
X205475708Y-108871145D01*
X205478469Y-108809146D01*
X205480012Y-108734909D01*
X205480235Y-108696706D01*
X205480457Y-108476783D01*
X205526166Y-108460849D01*
X205558518Y-108450015D01*
X205576115Y-108444962D01*
X205576623Y-108444914D01*
X205578388Y-108458648D01*
X205580329Y-108496730D01*
X205582282Y-108554482D01*
X205584084Y-108627227D01*
X205585343Y-108695286D01*
X205589314Y-108945657D01*
X205676400Y-108945657D01*
X205680396Y-108717240D01*
X205684392Y-108488822D01*
X205726847Y-108466868D01*
X205758192Y-108451793D01*
X205776744Y-108444951D01*
X205777279Y-108444914D01*
X205779833Y-108458663D01*
G37*
X201041115Y-108421962D02*
X201109145Y-108457733D01*
X201159351Y-108515301D01*
X201177185Y-108552312D01*
X201191063Y-108607882D01*
X201198167Y-108678096D01*
X201198840Y-108754727D01*
X201193427Y-108829552D01*
X201182270Y-108894342D01*
X201165714Y-108940873D01*
X201160626Y-108948887D01*
X201100355Y-109008707D01*
X201028769Y-109044535D01*
X200951092Y-109055020D01*
X200872548Y-109038810D01*
X200850689Y-109029092D01*
X200808122Y-108999143D01*
X200770763Y-108959433D01*
X200767232Y-108954397D01*
X200752881Y-108930124D01*
X200743394Y-108904178D01*
X200737790Y-108870022D01*
X200735086Y-108821119D01*
X200734299Y-108750935D01*
X200734286Y-108735200D01*
X200734322Y-108730192D01*
X200879429Y-108730192D01*
X200880273Y-108796430D01*
X200883596Y-108840386D01*
X200890583Y-108868779D01*
X200902416Y-108888325D01*
X200908457Y-108894857D01*
X200943186Y-108919680D01*
X200976903Y-108918548D01*
X201010995Y-108897016D01*
X201031329Y-108874029D01*
X201043371Y-108840478D01*
X201050134Y-108787569D01*
X201050598Y-108781399D01*
X201051752Y-108685513D01*
X201039688Y-108614299D01*
X201014570Y-108568194D01*
X200976560Y-108547635D01*
X200962992Y-108546514D01*
X200927364Y-108552152D01*
X200902994Y-108571686D01*
X200888093Y-108609042D01*
X200880875Y-108668150D01*
X200879429Y-108730192D01*
X200734322Y-108730192D01*
X200734826Y-108660413D01*
X200737096Y-108608159D01*
X200742068Y-108571949D01*
X200750713Y-108545299D01*
X200764005Y-108521722D01*
X200766943Y-108517338D01*
X200816313Y-108458249D01*
X200870109Y-108423947D01*
X200935602Y-108410331D01*
X200957842Y-108409665D01*
X201041115Y-108421962D01*
G36*
X201041115Y-108421962D02*
G01*
X201109145Y-108457733D01*
X201159351Y-108515301D01*
X201177185Y-108552312D01*
X201191063Y-108607882D01*
X201198167Y-108678096D01*
X201198840Y-108754727D01*
X201193427Y-108829552D01*
X201182270Y-108894342D01*
X201165714Y-108940873D01*
X201160626Y-108948887D01*
X201100355Y-109008707D01*
X201028769Y-109044535D01*
X200951092Y-109055020D01*
X200872548Y-109038810D01*
X200850689Y-109029092D01*
X200808122Y-108999143D01*
X200770763Y-108959433D01*
X200767232Y-108954397D01*
X200752881Y-108930124D01*
X200743394Y-108904178D01*
X200737790Y-108870022D01*
X200735086Y-108821119D01*
X200734299Y-108750935D01*
X200734286Y-108735200D01*
X200734322Y-108730192D01*
X200879429Y-108730192D01*
X200880273Y-108796430D01*
X200883596Y-108840386D01*
X200890583Y-108868779D01*
X200902416Y-108888325D01*
X200908457Y-108894857D01*
X200943186Y-108919680D01*
X200976903Y-108918548D01*
X201010995Y-108897016D01*
X201031329Y-108874029D01*
X201043371Y-108840478D01*
X201050134Y-108787569D01*
X201050598Y-108781399D01*
X201051752Y-108685513D01*
X201039688Y-108614299D01*
X201014570Y-108568194D01*
X200976560Y-108547635D01*
X200962992Y-108546514D01*
X200927364Y-108552152D01*
X200902994Y-108571686D01*
X200888093Y-108609042D01*
X200880875Y-108668150D01*
X200879429Y-108730192D01*
X200734322Y-108730192D01*
X200734826Y-108660413D01*
X200737096Y-108608159D01*
X200742068Y-108571949D01*
X200750713Y-108545299D01*
X200764005Y-108521722D01*
X200766943Y-108517338D01*
X200816313Y-108458249D01*
X200870109Y-108423947D01*
X200935602Y-108410331D01*
X200957842Y-108409665D01*
X201041115Y-108421962D01*
G37*
X207153595Y-108466966D02*
X207211021Y-108504497D01*
X207238719Y-108538096D01*
X207260662Y-108599064D01*
X207262405Y-108647308D01*
X207258457Y-108711816D01*
X207109686Y-108776934D01*
X207037349Y-108810202D01*
X206990084Y-108836964D01*
X206965507Y-108860144D01*
X206961237Y-108882667D01*
X206974889Y-108907455D01*
X206989943Y-108923886D01*
X207033746Y-108950235D01*
X207081389Y-108952081D01*
X207125145Y-108931546D01*
X207157289Y-108890752D01*
X207163038Y-108876347D01*
X207190576Y-108831356D01*
X207222258Y-108812182D01*
X207265714Y-108795779D01*
X207265714Y-108857966D01*
X207261872Y-108900283D01*
X207246823Y-108935969D01*
X207215280Y-108976943D01*
X207210592Y-108982267D01*
X207175506Y-109018720D01*
X207145347Y-109038283D01*
X207107615Y-109047283D01*
X207076335Y-109050230D01*
X207020385Y-109050965D01*
X206980555Y-109041660D01*
X206955708Y-109027846D01*
X206916656Y-108997467D01*
X206889625Y-108964613D01*
X206872517Y-108923294D01*
X206863238Y-108867521D01*
X206859693Y-108791305D01*
X206859410Y-108752622D01*
X206860372Y-108706247D01*
X206948007Y-108706247D01*
X206949023Y-108731126D01*
X206951556Y-108735200D01*
X206968274Y-108729665D01*
X207004249Y-108715017D01*
X207052331Y-108694190D01*
X207062386Y-108689714D01*
X207123152Y-108658814D01*
X207156632Y-108631657D01*
X207163990Y-108606220D01*
X207146391Y-108580481D01*
X207131856Y-108569109D01*
X207079410Y-108546364D01*
X207030322Y-108550122D01*
X206989227Y-108577884D01*
X206960758Y-108627152D01*
X206951631Y-108666257D01*
X206948007Y-108706247D01*
X206860372Y-108706247D01*
X206861285Y-108662249D01*
X206868196Y-108595384D01*
X206881884Y-108546695D01*
X206904096Y-108510849D01*
X206936574Y-108482513D01*
X206950733Y-108473355D01*
X207015053Y-108449507D01*
X207085473Y-108448006D01*
X207153595Y-108466966D01*
G36*
X207153595Y-108466966D02*
G01*
X207211021Y-108504497D01*
X207238719Y-108538096D01*
X207260662Y-108599064D01*
X207262405Y-108647308D01*
X207258457Y-108711816D01*
X207109686Y-108776934D01*
X207037349Y-108810202D01*
X206990084Y-108836964D01*
X206965507Y-108860144D01*
X206961237Y-108882667D01*
X206974889Y-108907455D01*
X206989943Y-108923886D01*
X207033746Y-108950235D01*
X207081389Y-108952081D01*
X207125145Y-108931546D01*
X207157289Y-108890752D01*
X207163038Y-108876347D01*
X207190576Y-108831356D01*
X207222258Y-108812182D01*
X207265714Y-108795779D01*
X207265714Y-108857966D01*
X207261872Y-108900283D01*
X207246823Y-108935969D01*
X207215280Y-108976943D01*
X207210592Y-108982267D01*
X207175506Y-109018720D01*
X207145347Y-109038283D01*
X207107615Y-109047283D01*
X207076335Y-109050230D01*
X207020385Y-109050965D01*
X206980555Y-109041660D01*
X206955708Y-109027846D01*
X206916656Y-108997467D01*
X206889625Y-108964613D01*
X206872517Y-108923294D01*
X206863238Y-108867521D01*
X206859693Y-108791305D01*
X206859410Y-108752622D01*
X206860372Y-108706247D01*
X206948007Y-108706247D01*
X206949023Y-108731126D01*
X206951556Y-108735200D01*
X206968274Y-108729665D01*
X207004249Y-108715017D01*
X207052331Y-108694190D01*
X207062386Y-108689714D01*
X207123152Y-108658814D01*
X207156632Y-108631657D01*
X207163990Y-108606220D01*
X207146391Y-108580481D01*
X207131856Y-108569109D01*
X207079410Y-108546364D01*
X207030322Y-108550122D01*
X206989227Y-108577884D01*
X206960758Y-108627152D01*
X206951631Y-108666257D01*
X206948007Y-108706247D01*
X206860372Y-108706247D01*
X206861285Y-108662249D01*
X206868196Y-108595384D01*
X206881884Y-108546695D01*
X206904096Y-108510849D01*
X206936574Y-108482513D01*
X206950733Y-108473355D01*
X207015053Y-108449507D01*
X207085473Y-108448006D01*
X207153595Y-108466966D01*
G37*
X205190117Y-108565358D02*
X205189933Y-108673837D01*
X205189219Y-108757287D01*
X205187675Y-108819704D01*
X205185001Y-108865085D01*
X205180894Y-108897429D01*
X205175055Y-108920733D01*
X205167182Y-108938995D01*
X205161221Y-108949418D01*
X205111855Y-109005945D01*
X205049264Y-109041377D01*
X204980013Y-109054090D01*
X204910668Y-109042463D01*
X204869375Y-109021568D01*
X204826025Y-108985422D01*
X204796481Y-108941276D01*
X204778655Y-108883462D01*
X204770463Y-108806313D01*
X204769302Y-108749714D01*
X204769458Y-108745647D01*
X204870857Y-108745647D01*
X204871476Y-108810550D01*
X204874314Y-108853514D01*
X204880840Y-108881622D01*
X204892523Y-108901953D01*
X204906483Y-108917288D01*
X204953365Y-108946890D01*
X205003701Y-108949419D01*
X205051276Y-108924705D01*
X205054979Y-108921356D01*
X205070783Y-108903935D01*
X205080693Y-108883209D01*
X205086058Y-108852362D01*
X205088228Y-108804577D01*
X205088571Y-108751748D01*
X205087827Y-108685381D01*
X205084748Y-108641106D01*
X205078061Y-108612009D01*
X205066496Y-108591173D01*
X205057013Y-108580107D01*
X205012960Y-108552198D01*
X204962224Y-108548843D01*
X204913796Y-108570159D01*
X204904450Y-108578073D01*
X204888540Y-108595647D01*
X204878610Y-108616587D01*
X204873278Y-108647782D01*
X204871163Y-108696122D01*
X204870857Y-108745647D01*
X204769458Y-108745647D01*
X204772810Y-108658568D01*
X204784726Y-108590086D01*
X204807135Y-108538600D01*
X204842124Y-108498443D01*
X204869375Y-108477861D01*
X204918907Y-108455625D01*
X204976316Y-108445304D01*
X205029682Y-108448067D01*
X205059543Y-108459212D01*
X205071261Y-108462383D01*
X205079037Y-108450557D01*
X205084465Y-108418866D01*
X205088571Y-108370593D01*
X205093067Y-108316829D01*
X205099313Y-108284482D01*
X205110676Y-108265985D01*
X205130528Y-108253770D01*
X205143000Y-108248362D01*
X205190171Y-108228601D01*
X205190117Y-108565358D01*
G36*
X205190117Y-108565358D02*
G01*
X205189933Y-108673837D01*
X205189219Y-108757287D01*
X205187675Y-108819704D01*
X205185001Y-108865085D01*
X205180894Y-108897429D01*
X205175055Y-108920733D01*
X205167182Y-108938995D01*
X205161221Y-108949418D01*
X205111855Y-109005945D01*
X205049264Y-109041377D01*
X204980013Y-109054090D01*
X204910668Y-109042463D01*
X204869375Y-109021568D01*
X204826025Y-108985422D01*
X204796481Y-108941276D01*
X204778655Y-108883462D01*
X204770463Y-108806313D01*
X204769302Y-108749714D01*
X204769458Y-108745647D01*
X204870857Y-108745647D01*
X204871476Y-108810550D01*
X204874314Y-108853514D01*
X204880840Y-108881622D01*
X204892523Y-108901953D01*
X204906483Y-108917288D01*
X204953365Y-108946890D01*
X205003701Y-108949419D01*
X205051276Y-108924705D01*
X205054979Y-108921356D01*
X205070783Y-108903935D01*
X205080693Y-108883209D01*
X205086058Y-108852362D01*
X205088228Y-108804577D01*
X205088571Y-108751748D01*
X205087827Y-108685381D01*
X205084748Y-108641106D01*
X205078061Y-108612009D01*
X205066496Y-108591173D01*
X205057013Y-108580107D01*
X205012960Y-108552198D01*
X204962224Y-108548843D01*
X204913796Y-108570159D01*
X204904450Y-108578073D01*
X204888540Y-108595647D01*
X204878610Y-108616587D01*
X204873278Y-108647782D01*
X204871163Y-108696122D01*
X204870857Y-108745647D01*
X204769458Y-108745647D01*
X204772810Y-108658568D01*
X204784726Y-108590086D01*
X204807135Y-108538600D01*
X204842124Y-108498443D01*
X204869375Y-108477861D01*
X204918907Y-108455625D01*
X204976316Y-108445304D01*
X205029682Y-108448067D01*
X205059543Y-108459212D01*
X205071261Y-108462383D01*
X205079037Y-108450557D01*
X205084465Y-108418866D01*
X205088571Y-108370593D01*
X205093067Y-108316829D01*
X205099313Y-108284482D01*
X205110676Y-108265985D01*
X205130528Y-108253770D01*
X205143000Y-108248362D01*
X205190171Y-108228601D01*
X205190117Y-108565358D01*
G37*
X202168303Y-108431239D02*
X202225527Y-108469735D01*
X202269749Y-108525335D01*
X202296167Y-108596086D01*
X202301510Y-108648162D01*
X202300903Y-108669893D01*
X202295822Y-108686531D01*
X202281855Y-108701437D01*
X202254589Y-108717973D01*
X202209612Y-108739498D01*
X202142511Y-108769374D01*
X202142171Y-108769524D01*
X202080407Y-108797813D01*
X202029759Y-108822933D01*
X201995404Y-108842179D01*
X201982518Y-108852848D01*
X201982514Y-108852934D01*
X201993872Y-108876166D01*
X202020431Y-108901774D01*
X202050923Y-108920221D01*
X202066370Y-108923886D01*
X202108515Y-108911212D01*
X202144808Y-108879471D01*
X202162517Y-108844572D01*
X202179552Y-108818845D01*
X202212922Y-108789546D01*
X202252149Y-108764235D01*
X202286756Y-108750471D01*
X202293993Y-108749714D01*
X202302139Y-108762160D01*
X202302630Y-108793972D01*
X202296643Y-108836866D01*
X202285357Y-108882558D01*
X202269950Y-108922761D01*
X202269171Y-108924322D01*
X202222804Y-108989062D01*
X202162711Y-109033097D01*
X202094465Y-109054711D01*
X202023638Y-109052185D01*
X201955804Y-109023804D01*
X201952788Y-109021808D01*
X201899427Y-108973448D01*
X201864340Y-108910352D01*
X201844922Y-108827387D01*
X201842316Y-108804078D01*
X201837701Y-108694055D01*
X201843233Y-108642748D01*
X201982514Y-108642748D01*
X201984324Y-108674753D01*
X201994222Y-108684093D01*
X202018898Y-108677105D01*
X202057795Y-108660587D01*
X202101275Y-108639881D01*
X202102356Y-108639333D01*
X202139209Y-108619949D01*
X202154000Y-108607013D01*
X202150353Y-108593451D01*
X202134995Y-108575632D01*
X202095923Y-108549845D01*
X202053846Y-108547950D01*
X202016103Y-108566717D01*
X201990034Y-108602915D01*
X201982514Y-108642748D01*
X201843233Y-108642748D01*
X201847194Y-108606027D01*
X201871550Y-108536212D01*
X201905456Y-108487302D01*
X201966653Y-108437878D01*
X202034063Y-108413359D01*
X202102880Y-108411797D01*
X202168303Y-108431239D01*
G36*
X202168303Y-108431239D02*
G01*
X202225527Y-108469735D01*
X202269749Y-108525335D01*
X202296167Y-108596086D01*
X202301510Y-108648162D01*
X202300903Y-108669893D01*
X202295822Y-108686531D01*
X202281855Y-108701437D01*
X202254589Y-108717973D01*
X202209612Y-108739498D01*
X202142511Y-108769374D01*
X202142171Y-108769524D01*
X202080407Y-108797813D01*
X202029759Y-108822933D01*
X201995404Y-108842179D01*
X201982518Y-108852848D01*
X201982514Y-108852934D01*
X201993872Y-108876166D01*
X202020431Y-108901774D01*
X202050923Y-108920221D01*
X202066370Y-108923886D01*
X202108515Y-108911212D01*
X202144808Y-108879471D01*
X202162517Y-108844572D01*
X202179552Y-108818845D01*
X202212922Y-108789546D01*
X202252149Y-108764235D01*
X202286756Y-108750471D01*
X202293993Y-108749714D01*
X202302139Y-108762160D01*
X202302630Y-108793972D01*
X202296643Y-108836866D01*
X202285357Y-108882558D01*
X202269950Y-108922761D01*
X202269171Y-108924322D01*
X202222804Y-108989062D01*
X202162711Y-109033097D01*
X202094465Y-109054711D01*
X202023638Y-109052185D01*
X201955804Y-109023804D01*
X201952788Y-109021808D01*
X201899427Y-108973448D01*
X201864340Y-108910352D01*
X201844922Y-108827387D01*
X201842316Y-108804078D01*
X201837701Y-108694055D01*
X201843233Y-108642748D01*
X201982514Y-108642748D01*
X201984324Y-108674753D01*
X201994222Y-108684093D01*
X202018898Y-108677105D01*
X202057795Y-108660587D01*
X202101275Y-108639881D01*
X202102356Y-108639333D01*
X202139209Y-108619949D01*
X202154000Y-108607013D01*
X202150353Y-108593451D01*
X202134995Y-108575632D01*
X202095923Y-108549845D01*
X202053846Y-108547950D01*
X202016103Y-108566717D01*
X201990034Y-108602915D01*
X201982514Y-108642748D01*
X201843233Y-108642748D01*
X201847194Y-108606027D01*
X201871550Y-108536212D01*
X201905456Y-108487302D01*
X201966653Y-108437878D01*
X202034063Y-108413359D01*
X202102880Y-108411797D01*
X202168303Y-108431239D01*
G37*
X204039744Y-108450968D02*
X204096616Y-108472087D01*
X204097267Y-108472493D01*
X204132440Y-108498380D01*
X204158407Y-108528633D01*
X204176670Y-108568058D01*
X204188732Y-108621462D01*
X204196096Y-108693651D01*
X204200264Y-108789432D01*
X204200629Y-108803078D01*
X204205876Y-109008842D01*
X204161716Y-109031678D01*
X204129763Y-109047110D01*
X204110470Y-109054423D01*
X204109578Y-109054514D01*
X204106239Y-109041022D01*
X204103587Y-109004626D01*
X204101956Y-108951452D01*
X204101600Y-108908393D01*
X204101592Y-108838641D01*
X204098403Y-108794837D01*
X204087288Y-108773944D01*
X204063501Y-108772925D01*
X204022296Y-108788741D01*
X203960086Y-108817815D01*
X203914341Y-108841963D01*
X203890813Y-108862913D01*
X203883896Y-108885747D01*
X203883886Y-108886877D01*
X203895299Y-108926212D01*
X203929092Y-108947462D01*
X203980809Y-108950539D01*
X204018061Y-108950006D01*
X204037703Y-108960735D01*
X204049952Y-108986505D01*
X204057002Y-109019337D01*
X204046842Y-109037966D01*
X204043017Y-109040632D01*
X204007001Y-109051340D01*
X203956566Y-109052856D01*
X203904626Y-109045759D01*
X203867822Y-109032788D01*
X203816938Y-108989585D01*
X203788014Y-108929446D01*
X203782286Y-108882462D01*
X203786657Y-108840082D01*
X203802475Y-108805488D01*
X203833797Y-108774763D01*
X203884678Y-108743990D01*
X203959176Y-108709252D01*
X203963714Y-108707288D01*
X204030821Y-108676287D01*
X204072232Y-108650862D01*
X204089981Y-108628014D01*
X204086107Y-108604745D01*
X204062643Y-108578056D01*
X204055627Y-108571914D01*
X204008630Y-108548100D01*
X203959933Y-108549103D01*
X203917522Y-108572451D01*
X203889384Y-108615675D01*
X203886769Y-108624160D01*
X203861308Y-108665308D01*
X203829001Y-108685128D01*
X203782286Y-108704770D01*
X203782286Y-108653950D01*
X203796496Y-108580082D01*
X203838675Y-108512327D01*
X203860624Y-108489661D01*
X203910517Y-108460569D01*
X203973967Y-108447400D01*
X204039744Y-108450968D01*
G36*
X204039744Y-108450968D02*
G01*
X204096616Y-108472087D01*
X204097267Y-108472493D01*
X204132440Y-108498380D01*
X204158407Y-108528633D01*
X204176670Y-108568058D01*
X204188732Y-108621462D01*
X204196096Y-108693651D01*
X204200264Y-108789432D01*
X204200629Y-108803078D01*
X204205876Y-109008842D01*
X204161716Y-109031678D01*
X204129763Y-109047110D01*
X204110470Y-109054423D01*
X204109578Y-109054514D01*
X204106239Y-109041022D01*
X204103587Y-109004626D01*
X204101956Y-108951452D01*
X204101600Y-108908393D01*
X204101592Y-108838641D01*
X204098403Y-108794837D01*
X204087288Y-108773944D01*
X204063501Y-108772925D01*
X204022296Y-108788741D01*
X203960086Y-108817815D01*
X203914341Y-108841963D01*
X203890813Y-108862913D01*
X203883896Y-108885747D01*
X203883886Y-108886877D01*
X203895299Y-108926212D01*
X203929092Y-108947462D01*
X203980809Y-108950539D01*
X204018061Y-108950006D01*
X204037703Y-108960735D01*
X204049952Y-108986505D01*
X204057002Y-109019337D01*
X204046842Y-109037966D01*
X204043017Y-109040632D01*
X204007001Y-109051340D01*
X203956566Y-109052856D01*
X203904626Y-109045759D01*
X203867822Y-109032788D01*
X203816938Y-108989585D01*
X203788014Y-108929446D01*
X203782286Y-108882462D01*
X203786657Y-108840082D01*
X203802475Y-108805488D01*
X203833797Y-108774763D01*
X203884678Y-108743990D01*
X203959176Y-108709252D01*
X203963714Y-108707288D01*
X204030821Y-108676287D01*
X204072232Y-108650862D01*
X204089981Y-108628014D01*
X204086107Y-108604745D01*
X204062643Y-108578056D01*
X204055627Y-108571914D01*
X204008630Y-108548100D01*
X203959933Y-108549103D01*
X203917522Y-108572451D01*
X203889384Y-108615675D01*
X203886769Y-108624160D01*
X203861308Y-108665308D01*
X203829001Y-108685128D01*
X203782286Y-108704770D01*
X203782286Y-108653950D01*
X203796496Y-108580082D01*
X203838675Y-108512327D01*
X203860624Y-108489661D01*
X203910517Y-108460569D01*
X203973967Y-108447400D01*
X204039744Y-108450968D01*
G37*
X201599744Y-108419918D02*
X201655201Y-108447568D01*
X201704148Y-108498480D01*
X201717629Y-108517338D01*
X201732314Y-108542015D01*
X201741842Y-108568816D01*
X201747293Y-108604587D01*
X201749747Y-108656169D01*
X201750286Y-108724267D01*
X201747852Y-108817588D01*
X201739394Y-108887657D01*
X201723174Y-108939931D01*
X201697454Y-108979869D01*
X201660497Y-109012929D01*
X201657782Y-109014886D01*
X201621360Y-109034908D01*
X201577502Y-109044815D01*
X201521724Y-109047257D01*
X201431048Y-109047257D01*
X201431010Y-109135283D01*
X201430166Y-109184308D01*
X201425024Y-109213065D01*
X201411587Y-109230311D01*
X201385858Y-109244808D01*
X201379679Y-109247769D01*
X201350764Y-109261648D01*
X201328376Y-109270414D01*
X201311729Y-109271171D01*
X201300036Y-109261023D01*
X201292510Y-109237073D01*
X201288366Y-109196426D01*
X201286815Y-109136186D01*
X201287071Y-109053455D01*
X201288349Y-108945339D01*
X201288748Y-108913000D01*
X201290185Y-108801524D01*
X201291472Y-108728603D01*
X201430971Y-108728603D01*
X201431755Y-108790499D01*
X201435240Y-108830997D01*
X201443124Y-108857708D01*
X201457105Y-108878244D01*
X201466597Y-108888260D01*
X201505404Y-108917567D01*
X201539763Y-108919952D01*
X201575216Y-108895750D01*
X201576114Y-108894857D01*
X201590539Y-108876153D01*
X201599313Y-108850732D01*
X201603739Y-108811584D01*
X201605118Y-108751697D01*
X201605143Y-108738430D01*
X201601812Y-108655901D01*
X201590969Y-108598691D01*
X201571340Y-108563766D01*
X201541650Y-108548094D01*
X201524491Y-108546514D01*
X201483766Y-108553926D01*
X201455832Y-108578330D01*
X201439017Y-108622980D01*
X201431650Y-108691130D01*
X201430971Y-108728603D01*
X201291472Y-108728603D01*
X201291708Y-108715245D01*
X201293677Y-108650333D01*
X201296450Y-108602958D01*
X201300388Y-108569290D01*
X201305849Y-108545498D01*
X201313192Y-108527753D01*
X201322777Y-108512224D01*
X201326887Y-108506381D01*
X201381405Y-108451185D01*
X201450336Y-108419890D01*
X201530072Y-108411165D01*
X201599744Y-108419918D01*
G36*
X201599744Y-108419918D02*
G01*
X201655201Y-108447568D01*
X201704148Y-108498480D01*
X201717629Y-108517338D01*
X201732314Y-108542015D01*
X201741842Y-108568816D01*
X201747293Y-108604587D01*
X201749747Y-108656169D01*
X201750286Y-108724267D01*
X201747852Y-108817588D01*
X201739394Y-108887657D01*
X201723174Y-108939931D01*
X201697454Y-108979869D01*
X201660497Y-109012929D01*
X201657782Y-109014886D01*
X201621360Y-109034908D01*
X201577502Y-109044815D01*
X201521724Y-109047257D01*
X201431048Y-109047257D01*
X201431010Y-109135283D01*
X201430166Y-109184308D01*
X201425024Y-109213065D01*
X201411587Y-109230311D01*
X201385858Y-109244808D01*
X201379679Y-109247769D01*
X201350764Y-109261648D01*
X201328376Y-109270414D01*
X201311729Y-109271171D01*
X201300036Y-109261023D01*
X201292510Y-109237073D01*
X201288366Y-109196426D01*
X201286815Y-109136186D01*
X201287071Y-109053455D01*
X201288349Y-108945339D01*
X201288748Y-108913000D01*
X201290185Y-108801524D01*
X201291472Y-108728603D01*
X201430971Y-108728603D01*
X201431755Y-108790499D01*
X201435240Y-108830997D01*
X201443124Y-108857708D01*
X201457105Y-108878244D01*
X201466597Y-108888260D01*
X201505404Y-108917567D01*
X201539763Y-108919952D01*
X201575216Y-108895750D01*
X201576114Y-108894857D01*
X201590539Y-108876153D01*
X201599313Y-108850732D01*
X201603739Y-108811584D01*
X201605118Y-108751697D01*
X201605143Y-108738430D01*
X201601812Y-108655901D01*
X201590969Y-108598691D01*
X201571340Y-108563766D01*
X201541650Y-108548094D01*
X201524491Y-108546514D01*
X201483766Y-108553926D01*
X201455832Y-108578330D01*
X201439017Y-108622980D01*
X201431650Y-108691130D01*
X201430971Y-108728603D01*
X201291472Y-108728603D01*
X201291708Y-108715245D01*
X201293677Y-108650333D01*
X201296450Y-108602958D01*
X201300388Y-108569290D01*
X201305849Y-108545498D01*
X201313192Y-108527753D01*
X201322777Y-108512224D01*
X201326887Y-108506381D01*
X201381405Y-108451185D01*
X201450336Y-108419890D01*
X201530072Y-108411165D01*
X201599744Y-108419918D01*
G37*
X206144876Y-108456335D02*
X206186667Y-108475344D01*
X206219469Y-108498378D01*
X206243503Y-108524133D01*
X206260097Y-108557358D01*
X206270577Y-108602800D01*
X206276271Y-108665207D01*
X206278507Y-108749327D01*
X206278743Y-108804721D01*
X206278743Y-109020826D01*
X206241774Y-109037670D01*
X206212656Y-109049981D01*
X206198231Y-109054514D01*
X206195472Y-109041025D01*
X206193282Y-109004653D01*
X206191942Y-108951542D01*
X206191657Y-108909372D01*
X206190434Y-108848447D01*
X206187136Y-108800115D01*
X206182321Y-108770518D01*
X206178496Y-108764229D01*
X206152783Y-108770652D01*
X206112418Y-108787125D01*
X206065679Y-108809458D01*
X206020845Y-108833457D01*
X205986193Y-108854930D01*
X205970002Y-108869685D01*
X205969938Y-108869845D01*
X205971330Y-108897152D01*
X205983818Y-108923219D01*
X206005743Y-108944392D01*
X206037743Y-108951474D01*
X206065092Y-108950649D01*
X206103826Y-108950042D01*
X206124158Y-108959116D01*
X206136369Y-108983092D01*
X206137909Y-108987613D01*
X206143203Y-109021806D01*
X206129047Y-109042568D01*
X206092148Y-109052462D01*
X206052289Y-109054292D01*
X205980562Y-109040727D01*
X205943432Y-109021355D01*
X205897576Y-108975845D01*
X205873256Y-108919983D01*
X205871073Y-108860957D01*
X205891629Y-108805953D01*
X205922549Y-108771486D01*
X205953420Y-108752189D01*
X206001942Y-108727759D01*
X206058485Y-108702985D01*
X206067910Y-108699199D01*
X206130019Y-108671791D01*
X206165822Y-108647634D01*
X206177337Y-108623619D01*
X206166580Y-108596635D01*
X206148114Y-108575543D01*
X206104469Y-108549572D01*
X206056446Y-108547624D01*
X206012406Y-108567637D01*
X205980709Y-108607551D01*
X205976549Y-108617848D01*
X205952327Y-108655724D01*
X205916965Y-108683842D01*
X205872343Y-108706917D01*
X205872343Y-108641485D01*
X205874969Y-108601506D01*
X205886230Y-108569997D01*
X205911199Y-108536378D01*
X205935169Y-108510484D01*
X205972441Y-108473817D01*
X206001401Y-108454121D01*
X206032505Y-108446220D01*
X206067713Y-108444914D01*
X206144876Y-108456335D01*
G36*
X206144876Y-108456335D02*
G01*
X206186667Y-108475344D01*
X206219469Y-108498378D01*
X206243503Y-108524133D01*
X206260097Y-108557358D01*
X206270577Y-108602800D01*
X206276271Y-108665207D01*
X206278507Y-108749327D01*
X206278743Y-108804721D01*
X206278743Y-109020826D01*
X206241774Y-109037670D01*
X206212656Y-109049981D01*
X206198231Y-109054514D01*
X206195472Y-109041025D01*
X206193282Y-109004653D01*
X206191942Y-108951542D01*
X206191657Y-108909372D01*
X206190434Y-108848447D01*
X206187136Y-108800115D01*
X206182321Y-108770518D01*
X206178496Y-108764229D01*
X206152783Y-108770652D01*
X206112418Y-108787125D01*
X206065679Y-108809458D01*
X206020845Y-108833457D01*
X205986193Y-108854930D01*
X205970002Y-108869685D01*
X205969938Y-108869845D01*
X205971330Y-108897152D01*
X205983818Y-108923219D01*
X206005743Y-108944392D01*
X206037743Y-108951474D01*
X206065092Y-108950649D01*
X206103826Y-108950042D01*
X206124158Y-108959116D01*
X206136369Y-108983092D01*
X206137909Y-108987613D01*
X206143203Y-109021806D01*
X206129047Y-109042568D01*
X206092148Y-109052462D01*
X206052289Y-109054292D01*
X205980562Y-109040727D01*
X205943432Y-109021355D01*
X205897576Y-108975845D01*
X205873256Y-108919983D01*
X205871073Y-108860957D01*
X205891629Y-108805953D01*
X205922549Y-108771486D01*
X205953420Y-108752189D01*
X206001942Y-108727759D01*
X206058485Y-108702985D01*
X206067910Y-108699199D01*
X206130019Y-108671791D01*
X206165822Y-108647634D01*
X206177337Y-108623619D01*
X206166580Y-108596635D01*
X206148114Y-108575543D01*
X206104469Y-108549572D01*
X206056446Y-108547624D01*
X206012406Y-108567637D01*
X205980709Y-108607551D01*
X205976549Y-108617848D01*
X205952327Y-108655724D01*
X205916965Y-108683842D01*
X205872343Y-108706917D01*
X205872343Y-108641485D01*
X205874969Y-108601506D01*
X205886230Y-108569997D01*
X205911199Y-108536378D01*
X205935169Y-108510484D01*
X205972441Y-108473817D01*
X206001401Y-108454121D01*
X206032505Y-108446220D01*
X206067713Y-108444914D01*
X206144876Y-108456335D01*
G37*
X204103910Y-103742348D02*
X204182454Y-103742778D01*
X204239298Y-103743942D01*
X204278105Y-103746207D01*
X204302538Y-103749940D01*
X204316262Y-103755506D01*
X204322940Y-103763273D01*
X204326236Y-103773605D01*
X204326556Y-103774943D01*
X204331562Y-103799079D01*
X204340829Y-103846701D01*
X204353392Y-103912741D01*
X204368287Y-103992128D01*
X204384551Y-104079796D01*
X204385119Y-104082875D01*
X204401410Y-104168789D01*
X204416652Y-104244696D01*
X204429861Y-104306045D01*
X204440054Y-104348282D01*
X204446248Y-104366855D01*
X204446543Y-104367184D01*
X204464788Y-104376253D01*
X204502405Y-104391367D01*
X204551271Y-104409262D01*
X204551543Y-104409358D01*
X204613093Y-104432493D01*
X204685657Y-104461965D01*
X204754057Y-104491597D01*
X204757294Y-104493062D01*
X204868702Y-104543626D01*
X205115399Y-104375160D01*
X205191077Y-104323803D01*
X205259631Y-104277889D01*
X205317088Y-104240030D01*
X205359476Y-104212837D01*
X205382825Y-104198921D01*
X205385042Y-104197889D01*
X205402010Y-104202484D01*
X205433701Y-104224655D01*
X205481352Y-104265447D01*
X205546198Y-104325905D01*
X205612397Y-104390227D01*
X205676214Y-104453612D01*
X205733329Y-104511451D01*
X205780305Y-104560175D01*
X205813703Y-104596210D01*
X205830085Y-104615984D01*
X205830694Y-104617002D01*
X205832505Y-104630572D01*
X205825683Y-104652733D01*
X205808540Y-104686478D01*
X205779393Y-104734800D01*
X205736555Y-104800692D01*
X205679448Y-104885517D01*
X205628766Y-104960177D01*
X205583461Y-105027140D01*
X205546150Y-105082516D01*
X205519452Y-105122420D01*
X205505985Y-105142962D01*
X205505137Y-105144356D01*
X205506781Y-105164038D01*
X205519245Y-105202293D01*
X205540048Y-105251889D01*
X205547462Y-105267728D01*
X205579814Y-105338290D01*
X205614328Y-105418353D01*
X205642365Y-105487629D01*
X205662568Y-105539045D01*
X205678615Y-105578119D01*
X205687888Y-105598541D01*
X205689041Y-105600114D01*
X205706096Y-105602721D01*
X205746298Y-105609863D01*
X205804302Y-105620523D01*
X205874763Y-105633685D01*
X205952335Y-105648333D01*
X206031672Y-105663449D01*
X206107431Y-105678018D01*
X206174264Y-105691022D01*
X206226828Y-105701445D01*
X206259776Y-105708270D01*
X206267857Y-105710199D01*
X206276205Y-105714962D01*
X206282506Y-105725718D01*
X206287045Y-105746098D01*
X206290104Y-105779734D01*
X206291967Y-105830255D01*
X206292918Y-105901292D01*
X206293240Y-105996476D01*
X206293257Y-106035492D01*
X206293257Y-106352799D01*
X206217057Y-106367839D01*
X206174663Y-106375995D01*
X206111400Y-106387899D01*
X206034962Y-106402116D01*
X205953043Y-106417210D01*
X205930400Y-106421355D01*
X205854806Y-106436053D01*
X205788953Y-106450505D01*
X205738366Y-106463375D01*
X205708574Y-106473322D01*
X205703612Y-106476287D01*
X205691426Y-106497283D01*
X205673953Y-106537967D01*
X205654577Y-106590322D01*
X205650734Y-106601600D01*
X205625339Y-106671523D01*
X205593817Y-106750418D01*
X205562969Y-106821266D01*
X205562817Y-106821595D01*
X205511447Y-106932733D01*
X205680399Y-107181253D01*
X205849352Y-107429772D01*
X205632429Y-107647058D01*
X205566819Y-107711726D01*
X205506979Y-107768733D01*
X205456267Y-107815033D01*
X205418046Y-107847584D01*
X205395675Y-107863343D01*
X205392466Y-107864343D01*
X205373626Y-107856469D01*
X205335180Y-107834578D01*
X205281330Y-107801267D01*
X205216276Y-107759131D01*
X205145940Y-107711943D01*
X205074555Y-107663810D01*
X205010908Y-107621928D01*
X204959041Y-107588871D01*
X204922995Y-107567218D01*
X204906867Y-107559543D01*
X204887189Y-107566037D01*
X204849875Y-107583150D01*
X204802621Y-107607326D01*
X204797612Y-107610013D01*
X204733977Y-107641927D01*
X204690341Y-107657579D01*
X204663202Y-107657745D01*
X204649057Y-107643204D01*
X204648975Y-107643000D01*
X204641905Y-107625779D01*
X204625042Y-107584899D01*
X204599695Y-107523525D01*
X204567171Y-107444819D01*
X204528778Y-107351947D01*
X204485822Y-107248072D01*
X204444222Y-107147502D01*
X204398504Y-107036516D01*
X204356526Y-106933703D01*
X204319548Y-106842215D01*
X204288827Y-106765201D01*
X204265622Y-106705815D01*
X204251190Y-106667209D01*
X204246743Y-106652800D01*
X204257896Y-106636272D01*
X204287069Y-106609930D01*
X204325971Y-106580887D01*
X204436757Y-106489039D01*
X204523351Y-106383759D01*
X204584716Y-106267266D01*
X204619815Y-106141776D01*
X204627608Y-106009507D01*
X204621943Y-105948457D01*
X204591078Y-105821795D01*
X204537920Y-105709941D01*
X204465767Y-105614001D01*
X204377917Y-105535076D01*
X204277665Y-105474270D01*
X204168310Y-105432687D01*
X204053147Y-105411428D01*
X203935475Y-105411599D01*
X203818590Y-105434301D01*
X203705789Y-105480638D01*
X203600369Y-105551713D01*
X203556368Y-105591911D01*
X203471979Y-105695129D01*
X203413222Y-105807925D01*
X203379704Y-105927010D01*
X203371035Y-106049095D01*
X203386823Y-106170893D01*
X203426678Y-106289116D01*
X203490207Y-106400475D01*
X203577021Y-106501684D01*
X203674029Y-106580887D01*
X203714437Y-106611162D01*
X203742982Y-106637219D01*
X203753257Y-106652825D01*
X203747877Y-106669843D01*
X203732575Y-106710500D01*
X203708612Y-106771642D01*
X203677244Y-106850119D01*
X203639732Y-106942780D01*
X203597333Y-107046472D01*
X203555663Y-107147526D01*
X203509690Y-107258607D01*
X203467107Y-107361541D01*
X203429221Y-107453165D01*
X203397340Y-107530316D01*
X203372771Y-107589831D01*
X203356820Y-107628544D01*
X203350910Y-107643000D01*
X203336948Y-107657685D01*
X203309940Y-107657642D01*
X203266413Y-107642099D01*
X203202890Y-107610284D01*
X203202388Y-107610013D01*
X203154560Y-107585323D01*
X203115897Y-107567338D01*
X203094095Y-107559614D01*
X203093133Y-107559543D01*
X203076721Y-107567378D01*
X203040487Y-107589165D01*
X202988474Y-107622328D01*
X202924725Y-107664291D01*
X202854060Y-107711943D01*
X202782116Y-107760191D01*
X202717274Y-107802151D01*
X202663735Y-107835227D01*
X202625697Y-107856821D01*
X202607533Y-107864343D01*
X202590808Y-107854457D01*
X202557180Y-107826826D01*
X202510010Y-107784495D01*
X202452658Y-107730505D01*
X202388484Y-107667899D01*
X202367497Y-107646983D01*
X202150499Y-107429623D01*
X202315668Y-107187220D01*
X202365864Y-107112781D01*
X202409919Y-107045972D01*
X202445362Y-106990665D01*
X202469719Y-106950729D01*
X202480522Y-106930036D01*
X202480838Y-106928563D01*
X202475143Y-106909058D01*
X202459826Y-106869822D01*
X202437537Y-106817430D01*
X202421893Y-106782355D01*
X202392641Y-106715201D01*
X202365094Y-106647358D01*
X202343737Y-106590034D01*
X202337935Y-106572572D01*
X202321452Y-106525938D01*
X202305340Y-106489905D01*
X202296490Y-106476287D01*
X202276960Y-106467952D01*
X202234334Y-106456137D01*
X202174145Y-106442181D01*
X202101922Y-106427422D01*
X202069600Y-106421355D01*
X201987522Y-106406273D01*
X201908795Y-106391669D01*
X201841109Y-106378980D01*
X201792160Y-106369642D01*
X201782943Y-106367839D01*
X201706743Y-106352799D01*
X201706743Y-106035492D01*
X201706914Y-105931154D01*
X201707616Y-105852213D01*
X201709134Y-105795038D01*
X201711749Y-105755999D01*
X201715746Y-105731465D01*
X201721409Y-105717805D01*
X201729020Y-105711389D01*
X201732143Y-105710199D01*
X201750978Y-105705980D01*
X201792588Y-105697562D01*
X201851630Y-105685961D01*
X201922757Y-105672195D01*
X202000625Y-105657280D01*
X202079887Y-105642232D01*
X202155198Y-105628069D01*
X202221213Y-105615806D01*
X202272587Y-105606461D01*
X202303975Y-105601050D01*
X202310959Y-105600114D01*
X202317285Y-105587596D01*
X202331290Y-105554246D01*
X202350355Y-105506377D01*
X202357634Y-105487629D01*
X202386996Y-105415195D01*
X202421571Y-105335170D01*
X202452537Y-105267728D01*
X202475323Y-105216159D01*
X202490482Y-105173785D01*
X202495542Y-105147834D01*
X202494736Y-105144356D01*
X202484041Y-105127936D01*
X202459620Y-105091417D01*
X202424095Y-105038687D01*
X202380087Y-104973635D01*
X202330217Y-104900151D01*
X202320356Y-104885645D01*
X202262492Y-104799704D01*
X202219956Y-104734261D01*
X202191054Y-104686304D01*
X202174090Y-104652820D01*
X202167367Y-104630795D01*
X202169190Y-104617217D01*
X202169236Y-104617131D01*
X202183586Y-104599297D01*
X202215323Y-104564817D01*
X202261010Y-104517268D01*
X202317204Y-104460222D01*
X202380468Y-104397255D01*
X202387602Y-104390227D01*
X202467330Y-104313020D01*
X202528857Y-104256330D01*
X202573421Y-104219110D01*
X202602257Y-104200315D01*
X202614958Y-104197889D01*
X202633494Y-104208471D01*
X202671961Y-104232916D01*
X202726386Y-104268612D01*
X202792798Y-104312947D01*
X202867225Y-104363311D01*
X202884601Y-104375160D01*
X203131297Y-104543626D01*
X203242706Y-104493062D01*
X203310457Y-104463595D01*
X203383183Y-104433959D01*
X203445703Y-104410330D01*
X203448457Y-104409358D01*
X203497360Y-104391457D01*
X203535057Y-104376320D01*
X203553425Y-104367210D01*
X203553456Y-104367184D01*
X203559285Y-104350717D01*
X203569192Y-104310219D01*
X203582195Y-104250242D01*
X203597309Y-104175340D01*
X203613552Y-104090064D01*
X203614881Y-104082875D01*
X203631175Y-103995014D01*
X203646133Y-103915260D01*
X203658791Y-103848681D01*
X203668186Y-103800347D01*
X203673354Y-103775325D01*
X203673444Y-103774943D01*
X203676589Y-103764299D01*
X203682704Y-103756262D01*
X203695453Y-103750467D01*
X203718500Y-103746547D01*
X203755509Y-103744135D01*
X203810144Y-103742865D01*
X203886067Y-103742371D01*
X203986944Y-103742286D01*
X204000000Y-103742286D01*
X204103910Y-103742348D01*
G36*
X204103910Y-103742348D02*
G01*
X204182454Y-103742778D01*
X204239298Y-103743942D01*
X204278105Y-103746207D01*
X204302538Y-103749940D01*
X204316262Y-103755506D01*
X204322940Y-103763273D01*
X204326236Y-103773605D01*
X204326556Y-103774943D01*
X204331562Y-103799079D01*
X204340829Y-103846701D01*
X204353392Y-103912741D01*
X204368287Y-103992128D01*
X204384551Y-104079796D01*
X204385119Y-104082875D01*
X204401410Y-104168789D01*
X204416652Y-104244696D01*
X204429861Y-104306045D01*
X204440054Y-104348282D01*
X204446248Y-104366855D01*
X204446543Y-104367184D01*
X204464788Y-104376253D01*
X204502405Y-104391367D01*
X204551271Y-104409262D01*
X204551543Y-104409358D01*
X204613093Y-104432493D01*
X204685657Y-104461965D01*
X204754057Y-104491597D01*
X204757294Y-104493062D01*
X204868702Y-104543626D01*
X205115399Y-104375160D01*
X205191077Y-104323803D01*
X205259631Y-104277889D01*
X205317088Y-104240030D01*
X205359476Y-104212837D01*
X205382825Y-104198921D01*
X205385042Y-104197889D01*
X205402010Y-104202484D01*
X205433701Y-104224655D01*
X205481352Y-104265447D01*
X205546198Y-104325905D01*
X205612397Y-104390227D01*
X205676214Y-104453612D01*
X205733329Y-104511451D01*
X205780305Y-104560175D01*
X205813703Y-104596210D01*
X205830085Y-104615984D01*
X205830694Y-104617002D01*
X205832505Y-104630572D01*
X205825683Y-104652733D01*
X205808540Y-104686478D01*
X205779393Y-104734800D01*
X205736555Y-104800692D01*
X205679448Y-104885517D01*
X205628766Y-104960177D01*
X205583461Y-105027140D01*
X205546150Y-105082516D01*
X205519452Y-105122420D01*
X205505985Y-105142962D01*
X205505137Y-105144356D01*
X205506781Y-105164038D01*
X205519245Y-105202293D01*
X205540048Y-105251889D01*
X205547462Y-105267728D01*
X205579814Y-105338290D01*
X205614328Y-105418353D01*
X205642365Y-105487629D01*
X205662568Y-105539045D01*
X205678615Y-105578119D01*
X205687888Y-105598541D01*
X205689041Y-105600114D01*
X205706096Y-105602721D01*
X205746298Y-105609863D01*
X205804302Y-105620523D01*
X205874763Y-105633685D01*
X205952335Y-105648333D01*
X206031672Y-105663449D01*
X206107431Y-105678018D01*
X206174264Y-105691022D01*
X206226828Y-105701445D01*
X206259776Y-105708270D01*
X206267857Y-105710199D01*
X206276205Y-105714962D01*
X206282506Y-105725718D01*
X206287045Y-105746098D01*
X206290104Y-105779734D01*
X206291967Y-105830255D01*
X206292918Y-105901292D01*
X206293240Y-105996476D01*
X206293257Y-106035492D01*
X206293257Y-106352799D01*
X206217057Y-106367839D01*
X206174663Y-106375995D01*
X206111400Y-106387899D01*
X206034962Y-106402116D01*
X205953043Y-106417210D01*
X205930400Y-106421355D01*
X205854806Y-106436053D01*
X205788953Y-106450505D01*
X205738366Y-106463375D01*
X205708574Y-106473322D01*
X205703612Y-106476287D01*
X205691426Y-106497283D01*
X205673953Y-106537967D01*
X205654577Y-106590322D01*
X205650734Y-106601600D01*
X205625339Y-106671523D01*
X205593817Y-106750418D01*
X205562969Y-106821266D01*
X205562817Y-106821595D01*
X205511447Y-106932733D01*
X205680399Y-107181253D01*
X205849352Y-107429772D01*
X205632429Y-107647058D01*
X205566819Y-107711726D01*
X205506979Y-107768733D01*
X205456267Y-107815033D01*
X205418046Y-107847584D01*
X205395675Y-107863343D01*
X205392466Y-107864343D01*
X205373626Y-107856469D01*
X205335180Y-107834578D01*
X205281330Y-107801267D01*
X205216276Y-107759131D01*
X205145940Y-107711943D01*
X205074555Y-107663810D01*
X205010908Y-107621928D01*
X204959041Y-107588871D01*
X204922995Y-107567218D01*
X204906867Y-107559543D01*
X204887189Y-107566037D01*
X204849875Y-107583150D01*
X204802621Y-107607326D01*
X204797612Y-107610013D01*
X204733977Y-107641927D01*
X204690341Y-107657579D01*
X204663202Y-107657745D01*
X204649057Y-107643204D01*
X204648975Y-107643000D01*
X204641905Y-107625779D01*
X204625042Y-107584899D01*
X204599695Y-107523525D01*
X204567171Y-107444819D01*
X204528778Y-107351947D01*
X204485822Y-107248072D01*
X204444222Y-107147502D01*
X204398504Y-107036516D01*
X204356526Y-106933703D01*
X204319548Y-106842215D01*
X204288827Y-106765201D01*
X204265622Y-106705815D01*
X204251190Y-106667209D01*
X204246743Y-106652800D01*
X204257896Y-106636272D01*
X204287069Y-106609930D01*
X204325971Y-106580887D01*
X204436757Y-106489039D01*
X204523351Y-106383759D01*
X204584716Y-106267266D01*
X204619815Y-106141776D01*
X204627608Y-106009507D01*
X204621943Y-105948457D01*
X204591078Y-105821795D01*
X204537920Y-105709941D01*
X204465767Y-105614001D01*
X204377917Y-105535076D01*
X204277665Y-105474270D01*
X204168310Y-105432687D01*
X204053147Y-105411428D01*
X203935475Y-105411599D01*
X203818590Y-105434301D01*
X203705789Y-105480638D01*
X203600369Y-105551713D01*
X203556368Y-105591911D01*
X203471979Y-105695129D01*
X203413222Y-105807925D01*
X203379704Y-105927010D01*
X203371035Y-106049095D01*
X203386823Y-106170893D01*
X203426678Y-106289116D01*
X203490207Y-106400475D01*
X203577021Y-106501684D01*
X203674029Y-106580887D01*
X203714437Y-106611162D01*
X203742982Y-106637219D01*
X203753257Y-106652825D01*
X203747877Y-106669843D01*
X203732575Y-106710500D01*
X203708612Y-106771642D01*
X203677244Y-106850119D01*
X203639732Y-106942780D01*
X203597333Y-107046472D01*
X203555663Y-107147526D01*
X203509690Y-107258607D01*
X203467107Y-107361541D01*
X203429221Y-107453165D01*
X203397340Y-107530316D01*
X203372771Y-107589831D01*
X203356820Y-107628544D01*
X203350910Y-107643000D01*
X203336948Y-107657685D01*
X203309940Y-107657642D01*
X203266413Y-107642099D01*
X203202890Y-107610284D01*
X203202388Y-107610013D01*
X203154560Y-107585323D01*
X203115897Y-107567338D01*
X203094095Y-107559614D01*
X203093133Y-107559543D01*
X203076721Y-107567378D01*
X203040487Y-107589165D01*
X202988474Y-107622328D01*
X202924725Y-107664291D01*
X202854060Y-107711943D01*
X202782116Y-107760191D01*
X202717274Y-107802151D01*
X202663735Y-107835227D01*
X202625697Y-107856821D01*
X202607533Y-107864343D01*
X202590808Y-107854457D01*
X202557180Y-107826826D01*
X202510010Y-107784495D01*
X202452658Y-107730505D01*
X202388484Y-107667899D01*
X202367497Y-107646983D01*
X202150499Y-107429623D01*
X202315668Y-107187220D01*
X202365864Y-107112781D01*
X202409919Y-107045972D01*
X202445362Y-106990665D01*
X202469719Y-106950729D01*
X202480522Y-106930036D01*
X202480838Y-106928563D01*
X202475143Y-106909058D01*
X202459826Y-106869822D01*
X202437537Y-106817430D01*
X202421893Y-106782355D01*
X202392641Y-106715201D01*
X202365094Y-106647358D01*
X202343737Y-106590034D01*
X202337935Y-106572572D01*
X202321452Y-106525938D01*
X202305340Y-106489905D01*
X202296490Y-106476287D01*
X202276960Y-106467952D01*
X202234334Y-106456137D01*
X202174145Y-106442181D01*
X202101922Y-106427422D01*
X202069600Y-106421355D01*
X201987522Y-106406273D01*
X201908795Y-106391669D01*
X201841109Y-106378980D01*
X201792160Y-106369642D01*
X201782943Y-106367839D01*
X201706743Y-106352799D01*
X201706743Y-106035492D01*
X201706914Y-105931154D01*
X201707616Y-105852213D01*
X201709134Y-105795038D01*
X201711749Y-105755999D01*
X201715746Y-105731465D01*
X201721409Y-105717805D01*
X201729020Y-105711389D01*
X201732143Y-105710199D01*
X201750978Y-105705980D01*
X201792588Y-105697562D01*
X201851630Y-105685961D01*
X201922757Y-105672195D01*
X202000625Y-105657280D01*
X202079887Y-105642232D01*
X202155198Y-105628069D01*
X202221213Y-105615806D01*
X202272587Y-105606461D01*
X202303975Y-105601050D01*
X202310959Y-105600114D01*
X202317285Y-105587596D01*
X202331290Y-105554246D01*
X202350355Y-105506377D01*
X202357634Y-105487629D01*
X202386996Y-105415195D01*
X202421571Y-105335170D01*
X202452537Y-105267728D01*
X202475323Y-105216159D01*
X202490482Y-105173785D01*
X202495542Y-105147834D01*
X202494736Y-105144356D01*
X202484041Y-105127936D01*
X202459620Y-105091417D01*
X202424095Y-105038687D01*
X202380087Y-104973635D01*
X202330217Y-104900151D01*
X202320356Y-104885645D01*
X202262492Y-104799704D01*
X202219956Y-104734261D01*
X202191054Y-104686304D01*
X202174090Y-104652820D01*
X202167367Y-104630795D01*
X202169190Y-104617217D01*
X202169236Y-104617131D01*
X202183586Y-104599297D01*
X202215323Y-104564817D01*
X202261010Y-104517268D01*
X202317204Y-104460222D01*
X202380468Y-104397255D01*
X202387602Y-104390227D01*
X202467330Y-104313020D01*
X202528857Y-104256330D01*
X202573421Y-104219110D01*
X202602257Y-104200315D01*
X202614958Y-104197889D01*
X202633494Y-104208471D01*
X202671961Y-104232916D01*
X202726386Y-104268612D01*
X202792798Y-104312947D01*
X202867225Y-104363311D01*
X202884601Y-104375160D01*
X203131297Y-104543626D01*
X203242706Y-104493062D01*
X203310457Y-104463595D01*
X203383183Y-104433959D01*
X203445703Y-104410330D01*
X203448457Y-104409358D01*
X203497360Y-104391457D01*
X203535057Y-104376320D01*
X203553425Y-104367210D01*
X203553456Y-104367184D01*
X203559285Y-104350717D01*
X203569192Y-104310219D01*
X203582195Y-104250242D01*
X203597309Y-104175340D01*
X203613552Y-104090064D01*
X203614881Y-104082875D01*
X203631175Y-103995014D01*
X203646133Y-103915260D01*
X203658791Y-103848681D01*
X203668186Y-103800347D01*
X203673354Y-103775325D01*
X203673444Y-103774943D01*
X203676589Y-103764299D01*
X203682704Y-103756262D01*
X203695453Y-103750467D01*
X203718500Y-103746547D01*
X203755509Y-103744135D01*
X203810144Y-103742865D01*
X203886067Y-103742371D01*
X203986944Y-103742286D01*
X204000000Y-103742286D01*
X204103910Y-103742348D01*
G37*
D13*
%TO.C,J4*%
X180210001Y-55645000D02*
X181540001Y-55645000D01*
X180210001Y-56975000D02*
X180210001Y-55645000D01*
X180210001Y-58245000D02*
X180210001Y-63385000D01*
X180210001Y-58245000D02*
X182810001Y-58245000D01*
X180210001Y-63385000D02*
X185410001Y-63385000D01*
X182810001Y-55645000D02*
X185410001Y-55645000D01*
X182810001Y-58245000D02*
X182810001Y-55645000D01*
X185410001Y-55645000D02*
X185410001Y-63385000D01*
%TO.C,D1*%
X169665000Y-76000000D02*
X169665000Y-78000000D01*
X169665000Y-76000000D02*
X173675000Y-76000000D01*
X169665000Y-78000000D02*
X173675000Y-78000000D01*
%TO.C,U5*%
X160862500Y-91940000D02*
X158662500Y-91940000D01*
X160862500Y-91940000D02*
X163062500Y-91940000D01*
X160862500Y-97160000D02*
X158662500Y-97160000D01*
X160862500Y-97160000D02*
X163062500Y-97160000D01*
X157962500Y-92140000D02*
X157722500Y-91810000D01*
X158202500Y-91810000D01*
X157962500Y-92140000D01*
G36*
X157962500Y-92140000D02*
G01*
X157722500Y-91810000D01*
X158202500Y-91810000D01*
X157962500Y-92140000D01*
G37*
%TO.C,RN3*%
X148250000Y-102820000D02*
X147750000Y-102820000D01*
X148250000Y-105180000D02*
X147750000Y-105180000D01*
%TO.C,D6*%
X158640000Y-99437500D02*
X158640000Y-98787500D01*
X158640000Y-99437500D02*
X158640000Y-100087500D01*
X161760000Y-99437500D02*
X161760000Y-98787500D01*
X161760000Y-99437500D02*
X161760000Y-100087500D01*
X162040000Y-98515000D02*
X161710000Y-98275000D01*
X162040000Y-98035000D01*
X162040000Y-98515000D01*
G36*
X162040000Y-98515000D02*
G01*
X161710000Y-98275000D01*
X162040000Y-98035000D01*
X162040000Y-98515000D01*
G37*
%TO.C,D2*%
X166485000Y-76050000D02*
X162625000Y-76050000D01*
X166485000Y-78050000D02*
X162625000Y-78050000D01*
X166485000Y-78050000D02*
X166485000Y-76050000D01*
%TO.C,RN2*%
X187040000Y-56320000D02*
X187540000Y-56320000D01*
X187040000Y-58680000D02*
X187540000Y-58680000D01*
%TO.C,C8*%
X156740000Y-89884420D02*
X156740000Y-90165580D01*
X157760000Y-89884420D02*
X157760000Y-90165580D01*
%TO.C,R1*%
X168481359Y-76920000D02*
X168788641Y-76920000D01*
X168481359Y-77680000D02*
X168788641Y-77680000D01*
%TO.C,R3*%
X169471359Y-78920000D02*
X169778641Y-78920000D01*
X169471359Y-79680000D02*
X169778641Y-79680000D01*
%TO.C,J6*%
X149880000Y-105855000D02*
X149880000Y-98115000D01*
X152480000Y-103255000D02*
X152480000Y-105855000D01*
X152480000Y-105855000D02*
X149880000Y-105855000D01*
X155080000Y-98115000D02*
X149880000Y-98115000D01*
X155080000Y-103255000D02*
X152480000Y-103255000D01*
X155080000Y-103255000D02*
X155080000Y-98115000D01*
X155080000Y-104525000D02*
X155080000Y-105855000D01*
X155080000Y-105855000D02*
X153750000Y-105855000D01*
%TO.C,D8*%
X173430001Y-71687500D02*
X173430001Y-71037500D01*
X173430001Y-71687500D02*
X173430001Y-72337500D01*
X176550001Y-71687500D02*
X176550001Y-71037500D01*
X176550001Y-71687500D02*
X176550001Y-72337500D01*
X176830001Y-70765000D02*
X176500001Y-70525000D01*
X176830001Y-70285000D01*
X176830001Y-70765000D01*
G36*
X176830001Y-70765000D02*
G01*
X176500001Y-70525000D01*
X176830001Y-70285000D01*
X176830001Y-70765000D01*
G37*
%TO.C,J1*%
X139495000Y-67895000D02*
X139495000Y-75635000D01*
X139495000Y-67895000D02*
X148125000Y-67895000D01*
X139495000Y-68015000D02*
X148125000Y-68015000D01*
X139495000Y-68133095D02*
X148125000Y-68133095D01*
X139495000Y-68251190D02*
X148125000Y-68251190D01*
X139495000Y-68369285D02*
X148125000Y-68369285D01*
X139495000Y-68487380D02*
X148125000Y-68487380D01*
X139495000Y-68605475D02*
X148125000Y-68605475D01*
X139495000Y-68723570D02*
X148125000Y-68723570D01*
X139495000Y-68841665D02*
X148125000Y-68841665D01*
X139495000Y-68959760D02*
X148125000Y-68959760D01*
X139495000Y-69077855D02*
X148125000Y-69077855D01*
X139495000Y-69195950D02*
X148125000Y-69195950D01*
X139495000Y-69314045D02*
X148125000Y-69314045D01*
X139495000Y-69432140D02*
X148125000Y-69432140D01*
X139495000Y-69550235D02*
X148125000Y-69550235D01*
X139495000Y-69668330D02*
X148125000Y-69668330D01*
X139495000Y-69786425D02*
X148125000Y-69786425D01*
X139495000Y-69904520D02*
X148125000Y-69904520D01*
X139495000Y-70022615D02*
X148125000Y-70022615D01*
X139495000Y-70140710D02*
X148125000Y-70140710D01*
X139495000Y-70258805D02*
X148125000Y-70258805D01*
X139495000Y-70376900D02*
X148125000Y-70376900D01*
X139495000Y-70495000D02*
X148125000Y-70495000D01*
X139495000Y-73035000D02*
X148125000Y-73035000D01*
X139495000Y-75635000D02*
X148125000Y-75635000D01*
X148125000Y-67895000D02*
X148125000Y-75635000D01*
X148125000Y-68865000D02*
X148535000Y-68865000D01*
X148125000Y-69585000D02*
X148535000Y-69585000D01*
X148125000Y-71405000D02*
X148535000Y-71405000D01*
X148125000Y-72125000D02*
X148535000Y-72125000D01*
X148125000Y-73945000D02*
X148535000Y-73945000D01*
X148125000Y-74665000D02*
X148535000Y-74665000D01*
X150635000Y-68865000D02*
X151015000Y-68865000D01*
X150635000Y-69585000D02*
X151015000Y-69585000D01*
X150635000Y-71405000D02*
X151075000Y-71405000D01*
X150635000Y-72125000D02*
X151075000Y-72125000D01*
X150635000Y-73945000D02*
X151075000Y-73945000D01*
X150635000Y-74665000D02*
X151075000Y-74665000D01*
X152125000Y-67895000D02*
X153235000Y-67895000D01*
X153235000Y-67895000D02*
X153235000Y-69225000D01*
%TO.C,RN1*%
X187085000Y-82490000D02*
X187585000Y-82490000D01*
X187085000Y-84850000D02*
X187585000Y-84850000D01*
%TO.C,J5*%
X182140000Y-80410000D02*
X182140000Y-79080000D01*
X183250000Y-80410000D02*
X182140000Y-80410000D01*
X184740000Y-73640000D02*
X184300000Y-73640000D01*
X184740000Y-74360000D02*
X184300000Y-74360000D01*
X184740000Y-76180000D02*
X184300000Y-76180000D01*
X184740000Y-76900000D02*
X184300000Y-76900000D01*
X184740000Y-78720000D02*
X184360000Y-78720000D01*
X184740000Y-79440000D02*
X184360000Y-79440000D01*
X187250000Y-73640000D02*
X186840000Y-73640000D01*
X187250000Y-74360000D02*
X186840000Y-74360000D01*
X187250000Y-76180000D02*
X186840000Y-76180000D01*
X187250000Y-76900000D02*
X186840000Y-76900000D01*
X187250000Y-78720000D02*
X186840000Y-78720000D01*
X187250000Y-79440000D02*
X186840000Y-79440000D01*
X187250000Y-80410000D02*
X187250000Y-72670000D01*
X195880000Y-72670000D02*
X187250000Y-72670000D01*
X195880000Y-75270000D02*
X187250000Y-75270000D01*
X195880000Y-77810000D02*
X187250000Y-77810000D01*
X195880000Y-77928100D02*
X187250000Y-77928100D01*
X195880000Y-78046195D02*
X187250000Y-78046195D01*
X195880000Y-78164290D02*
X187250000Y-78164290D01*
X195880000Y-78282385D02*
X187250000Y-78282385D01*
X195880000Y-78400480D02*
X187250000Y-78400480D01*
X195880000Y-78518575D02*
X187250000Y-78518575D01*
X195880000Y-78636670D02*
X187250000Y-78636670D01*
X195880000Y-78754765D02*
X187250000Y-78754765D01*
X195880000Y-78872860D02*
X187250000Y-78872860D01*
X195880000Y-78990955D02*
X187250000Y-78990955D01*
X195880000Y-79109050D02*
X187250000Y-79109050D01*
X195880000Y-79227145D02*
X187250000Y-79227145D01*
X195880000Y-79345240D02*
X187250000Y-79345240D01*
X195880000Y-79463335D02*
X187250000Y-79463335D01*
X195880000Y-79581430D02*
X187250000Y-79581430D01*
X195880000Y-79699525D02*
X187250000Y-79699525D01*
X195880000Y-79817620D02*
X187250000Y-79817620D01*
X195880000Y-79935715D02*
X187250000Y-79935715D01*
X195880000Y-80053810D02*
X187250000Y-80053810D01*
X195880000Y-80171905D02*
X187250000Y-80171905D01*
X195880000Y-80290000D02*
X187250000Y-80290000D01*
X195880000Y-80410000D02*
X187250000Y-80410000D01*
X195880000Y-80410000D02*
X195880000Y-72670000D01*
%TO.C,TP4*%
X168075000Y-79300000D02*
G75*
G02*
X166675000Y-79300000I-700000J0D01*
G01*
X166675000Y-79300000D02*
G75*
G02*
X168075000Y-79300000I700000J0D01*
G01*
%TO.C,J7*%
X139410000Y-81090000D02*
X139410000Y-88830000D01*
X139410000Y-81090000D02*
X148040000Y-81090000D01*
X139410000Y-81210000D02*
X148040000Y-81210000D01*
X139410000Y-81328095D02*
X148040000Y-81328095D01*
X139410000Y-81446190D02*
X148040000Y-81446190D01*
X139410000Y-81564285D02*
X148040000Y-81564285D01*
X139410000Y-81682380D02*
X148040000Y-81682380D01*
X139410000Y-81800475D02*
X148040000Y-81800475D01*
X139410000Y-81918570D02*
X148040000Y-81918570D01*
X139410000Y-82036665D02*
X148040000Y-82036665D01*
X139410000Y-82154760D02*
X148040000Y-82154760D01*
X139410000Y-82272855D02*
X148040000Y-82272855D01*
X139410000Y-82390950D02*
X148040000Y-82390950D01*
X139410000Y-82509045D02*
X148040000Y-82509045D01*
X139410000Y-82627140D02*
X148040000Y-82627140D01*
X139410000Y-82745235D02*
X148040000Y-82745235D01*
X139410000Y-82863330D02*
X148040000Y-82863330D01*
X139410000Y-82981425D02*
X148040000Y-82981425D01*
X139410000Y-83099520D02*
X148040000Y-83099520D01*
X139410000Y-83217615D02*
X148040000Y-83217615D01*
X139410000Y-83335710D02*
X148040000Y-83335710D01*
X139410000Y-83453805D02*
X148040000Y-83453805D01*
X139410000Y-83571900D02*
X148040000Y-83571900D01*
X139410000Y-83690000D02*
X148040000Y-83690000D01*
X139410000Y-86230000D02*
X148040000Y-86230000D01*
X139410000Y-88830000D02*
X148040000Y-88830000D01*
X148040000Y-81090000D02*
X148040000Y-88830000D01*
X148040000Y-82060000D02*
X148450000Y-82060000D01*
X148040000Y-82780000D02*
X148450000Y-82780000D01*
X148040000Y-84600000D02*
X148450000Y-84600000D01*
X148040000Y-85320000D02*
X148450000Y-85320000D01*
X148040000Y-87140000D02*
X148450000Y-87140000D01*
X148040000Y-87860000D02*
X148450000Y-87860000D01*
X150550000Y-82060000D02*
X150930000Y-82060000D01*
X150550000Y-82780000D02*
X150930000Y-82780000D01*
X150550000Y-84600000D02*
X150990000Y-84600000D01*
X150550000Y-85320000D02*
X150990000Y-85320000D01*
X150550000Y-87140000D02*
X150990000Y-87140000D01*
X150550000Y-87860000D02*
X150990000Y-87860000D01*
X152040000Y-81090000D02*
X153150000Y-81090000D01*
X153150000Y-81090000D02*
X153150000Y-82420000D01*
%TO.C,SW4*%
X139240000Y-102170000D02*
X139240000Y-89710000D01*
X142160000Y-91495000D02*
X142160000Y-92765000D01*
X142160000Y-92765000D02*
X146220000Y-92765000D01*
X142160000Y-94035000D02*
X142160000Y-95305000D01*
X142160000Y-95305000D02*
X146220000Y-95305000D01*
X142160000Y-96575000D02*
X142160000Y-97845000D01*
X142160000Y-97845000D02*
X146220000Y-97845000D01*
X142160000Y-99115000D02*
X142160000Y-100385000D01*
X142160000Y-100385000D02*
X146220000Y-100385000D01*
X144866667Y-92765000D02*
X144866667Y-91495000D01*
X144866667Y-95305000D02*
X144866667Y-94035000D01*
X144866667Y-97845000D02*
X144866667Y-96575000D01*
X144866667Y-100385000D02*
X144866667Y-99115000D01*
X146220000Y-91495000D02*
X142160000Y-91495000D01*
X146220000Y-91565000D02*
X144866667Y-91565000D01*
X146220000Y-91685000D02*
X144866667Y-91685000D01*
X146220000Y-91805000D02*
X144866667Y-91805000D01*
X146220000Y-91925000D02*
X144866667Y-91925000D01*
X146220000Y-92045000D02*
X144866667Y-92045000D01*
X146220000Y-92165000D02*
X144866667Y-92165000D01*
X146220000Y-92285000D02*
X144866667Y-92285000D01*
X146220000Y-92405000D02*
X144866667Y-92405000D01*
X146220000Y-92525000D02*
X144866667Y-92525000D01*
X146220000Y-92645000D02*
X144866667Y-92645000D01*
X146220000Y-92765000D02*
X146220000Y-91495000D01*
X146220000Y-94035000D02*
X142160000Y-94035000D01*
X146220000Y-94105000D02*
X144866667Y-94105000D01*
X146220000Y-94225000D02*
X144866667Y-94225000D01*
X146220000Y-94345000D02*
X144866667Y-94345000D01*
X146220000Y-94465000D02*
X144866667Y-94465000D01*
X146220000Y-94585000D02*
X144866667Y-94585000D01*
X146220000Y-94705000D02*
X144866667Y-94705000D01*
X146220000Y-94825000D02*
X144866667Y-94825000D01*
X146220000Y-94945000D02*
X144866667Y-94945000D01*
X146220000Y-95065000D02*
X144866667Y-95065000D01*
X146220000Y-95185000D02*
X144866667Y-95185000D01*
X146220000Y-95305000D02*
X146220000Y-94035000D01*
X146220000Y-96575000D02*
X142160000Y-96575000D01*
X146220000Y-96645000D02*
X144866667Y-96645000D01*
X146220000Y-96765000D02*
X144866667Y-96765000D01*
X146220000Y-96885000D02*
X144866667Y-96885000D01*
X146220000Y-97005000D02*
X144866667Y-97005000D01*
X146220000Y-97125000D02*
X144866667Y-97125000D01*
X146220000Y-97245000D02*
X144866667Y-97245000D01*
X146220000Y-97365000D02*
X144866667Y-97365000D01*
X146220000Y-97485000D02*
X144866667Y-97485000D01*
X146220000Y-97605000D02*
X144866667Y-97605000D01*
X146220000Y-97725000D02*
X144866667Y-97725000D01*
X146220000Y-97845000D02*
X146220000Y-96575000D01*
X146220000Y-99115000D02*
X142160000Y-99115000D01*
X146220000Y-99185000D02*
X144866667Y-99185000D01*
X146220000Y-99305000D02*
X144866667Y-99305000D01*
X146220000Y-99425000D02*
X144866667Y-99425000D01*
X146220000Y-99545000D02*
X144866667Y-99545000D01*
X146220000Y-99665000D02*
X144866667Y-99665000D01*
X146220000Y-99785000D02*
X144866667Y-99785000D01*
X146220000Y-99905000D02*
X144866667Y-99905000D01*
X146220000Y-100025000D02*
X144866667Y-100025000D01*
X146220000Y-100145000D02*
X144866667Y-100145000D01*
X146220000Y-100265000D02*
X144866667Y-100265000D01*
X146220000Y-100385000D02*
X146220000Y-99115000D01*
X149140000Y-89710000D02*
X139240000Y-89710000D01*
X149140000Y-102170000D02*
X139240000Y-102170000D01*
X149140000Y-102170000D02*
X149140000Y-89710000D01*
X149380000Y-102410000D02*
X147996000Y-102410000D01*
X149380000Y-102410000D02*
X149380000Y-101027000D01*
%TO.C,C7*%
X171280000Y-71640580D02*
X171280000Y-71359420D01*
X172300000Y-71640580D02*
X172300000Y-71359420D01*
%TO.C,SW2*%
X185955000Y-85260000D02*
X185955000Y-86643000D01*
X185955000Y-85260000D02*
X187339000Y-85260000D01*
X186195000Y-85500000D02*
X186195000Y-97960000D01*
X186195000Y-85500000D02*
X196095000Y-85500000D01*
X186195000Y-97960000D02*
X196095000Y-97960000D01*
X189115000Y-87285000D02*
X189115000Y-88555000D01*
X189115000Y-87405000D02*
X190468333Y-87405000D01*
X189115000Y-87525000D02*
X190468333Y-87525000D01*
X189115000Y-87645000D02*
X190468333Y-87645000D01*
X189115000Y-87765000D02*
X190468333Y-87765000D01*
X189115000Y-87885000D02*
X190468333Y-87885000D01*
X189115000Y-88005000D02*
X190468333Y-88005000D01*
X189115000Y-88125000D02*
X190468333Y-88125000D01*
X189115000Y-88245000D02*
X190468333Y-88245000D01*
X189115000Y-88365000D02*
X190468333Y-88365000D01*
X189115000Y-88485000D02*
X190468333Y-88485000D01*
X189115000Y-88555000D02*
X193175000Y-88555000D01*
X189115000Y-89825000D02*
X189115000Y-91095000D01*
X189115000Y-89945000D02*
X190468333Y-89945000D01*
X189115000Y-90065000D02*
X190468333Y-90065000D01*
X189115000Y-90185000D02*
X190468333Y-90185000D01*
X189115000Y-90305000D02*
X190468333Y-90305000D01*
X189115000Y-90425000D02*
X190468333Y-90425000D01*
X189115000Y-90545000D02*
X190468333Y-90545000D01*
X189115000Y-90665000D02*
X190468333Y-90665000D01*
X189115000Y-90785000D02*
X190468333Y-90785000D01*
X189115000Y-90905000D02*
X190468333Y-90905000D01*
X189115000Y-91025000D02*
X190468333Y-91025000D01*
X189115000Y-91095000D02*
X193175000Y-91095000D01*
X189115000Y-92365000D02*
X189115000Y-93635000D01*
X189115000Y-92485000D02*
X190468333Y-92485000D01*
X189115000Y-92605000D02*
X190468333Y-92605000D01*
X189115000Y-92725000D02*
X190468333Y-92725000D01*
X189115000Y-92845000D02*
X190468333Y-92845000D01*
X189115000Y-92965000D02*
X190468333Y-92965000D01*
X189115000Y-93085000D02*
X190468333Y-93085000D01*
X189115000Y-93205000D02*
X190468333Y-93205000D01*
X189115000Y-93325000D02*
X190468333Y-93325000D01*
X189115000Y-93445000D02*
X190468333Y-93445000D01*
X189115000Y-93565000D02*
X190468333Y-93565000D01*
X189115000Y-93635000D02*
X193175000Y-93635000D01*
X189115000Y-94905000D02*
X189115000Y-96175000D01*
X189115000Y-95025000D02*
X190468333Y-95025000D01*
X189115000Y-95145000D02*
X190468333Y-95145000D01*
X189115000Y-95265000D02*
X190468333Y-95265000D01*
X189115000Y-95385000D02*
X190468333Y-95385000D01*
X189115000Y-95505000D02*
X190468333Y-95505000D01*
X189115000Y-95625000D02*
X190468333Y-95625000D01*
X189115000Y-95745000D02*
X190468333Y-95745000D01*
X189115000Y-95865000D02*
X190468333Y-95865000D01*
X189115000Y-95985000D02*
X190468333Y-95985000D01*
X189115000Y-96105000D02*
X190468333Y-96105000D01*
X189115000Y-96175000D02*
X193175000Y-96175000D01*
X190468333Y-87285000D02*
X190468333Y-88555000D01*
X190468333Y-89825000D02*
X190468333Y-91095000D01*
X190468333Y-92365000D02*
X190468333Y-93635000D01*
X190468333Y-94905000D02*
X190468333Y-96175000D01*
X193175000Y-87285000D02*
X189115000Y-87285000D01*
X193175000Y-88555000D02*
X193175000Y-87285000D01*
X193175000Y-89825000D02*
X189115000Y-89825000D01*
X193175000Y-91095000D02*
X193175000Y-89825000D01*
X193175000Y-92365000D02*
X189115000Y-92365000D01*
X193175000Y-93635000D02*
X193175000Y-92365000D01*
X193175000Y-94905000D02*
X189115000Y-94905000D01*
X193175000Y-96175000D02*
X193175000Y-94905000D01*
X196095000Y-85500000D02*
X196095000Y-97960000D01*
%TO.C,C6*%
X177530001Y-71615580D02*
X177530001Y-71334420D01*
X178550001Y-71615580D02*
X178550001Y-71334420D01*
%TO.C,RN4*%
X180155001Y-97420000D02*
X180155001Y-96920000D01*
X182515001Y-97420000D02*
X182515001Y-96920000D01*
%TO.C,RN6*%
X152820000Y-90250000D02*
X152820000Y-90750000D01*
X155180000Y-90250000D02*
X155180000Y-90750000D01*
%TO.C,J2*%
X180255001Y-81815000D02*
X181585001Y-81815000D01*
X180255001Y-83145000D02*
X180255001Y-81815000D01*
X180255001Y-84415000D02*
X180255001Y-89555000D01*
X180255001Y-84415000D02*
X182855001Y-84415000D01*
X180255001Y-89555000D02*
X185455001Y-89555000D01*
X182855001Y-81815000D02*
X185455001Y-81815000D01*
X182855001Y-84415000D02*
X182855001Y-81815000D01*
X185455001Y-81815000D02*
X185455001Y-89555000D01*
%TO.C,U2*%
X172562500Y-78690000D02*
X171912500Y-78690000D01*
X172562500Y-78690000D02*
X173212500Y-78690000D01*
X172562500Y-81810000D02*
X171912500Y-81810000D01*
X172562500Y-81810000D02*
X173212500Y-81810000D01*
X171400000Y-78740000D02*
X171160000Y-78410000D01*
X171640000Y-78410000D01*
X171400000Y-78740000D01*
G36*
X171400000Y-78740000D02*
G01*
X171160000Y-78410000D01*
X171640000Y-78410000D01*
X171400000Y-78740000D01*
G37*
%TO.C,SW1*%
X148050000Y-76250000D02*
X148050000Y-77450000D01*
X148050000Y-79050000D02*
X148050000Y-80250000D01*
X148050000Y-80250000D02*
X154450000Y-80250000D01*
X154450000Y-76250000D02*
X148050000Y-76250000D01*
X154450000Y-77450000D02*
X154450000Y-76250000D01*
X154450000Y-80250000D02*
X154450000Y-79050000D01*
%TO.C,C9*%
X162990000Y-89859420D02*
X162990000Y-90140580D01*
X164010000Y-89859420D02*
X164010000Y-90140580D01*
%TO.C,U4*%
X174427501Y-64340000D02*
X172227501Y-64340000D01*
X174427501Y-64340000D02*
X176627501Y-64340000D01*
X174427501Y-69560000D02*
X172227501Y-69560000D01*
X174427501Y-69560000D02*
X176627501Y-69560000D01*
X177567501Y-69690000D02*
X177087501Y-69690000D01*
X177327501Y-69360000D01*
X177567501Y-69690000D01*
G36*
X177567501Y-69690000D02*
G01*
X177087501Y-69690000D01*
X177327501Y-69360000D01*
X177567501Y-69690000D01*
G37*
%TO.C,U3*%
X174472501Y-90510000D02*
X172272501Y-90510000D01*
X174472501Y-90510000D02*
X176672501Y-90510000D01*
X174472501Y-95730000D02*
X172272501Y-95730000D01*
X174472501Y-95730000D02*
X176672501Y-95730000D01*
X177612501Y-95860000D02*
X177132501Y-95860000D01*
X177372501Y-95530000D01*
X177612501Y-95860000D01*
G36*
X177612501Y-95860000D02*
G01*
X177132501Y-95860000D01*
X177372501Y-95530000D01*
X177612501Y-95860000D01*
G37*
%TO.C,J3*%
X182185000Y-106580000D02*
X182185000Y-105250000D01*
X183295000Y-106580000D02*
X182185000Y-106580000D01*
X184785000Y-99810000D02*
X184345000Y-99810000D01*
X184785000Y-100530000D02*
X184345000Y-100530000D01*
X184785000Y-102350000D02*
X184345000Y-102350000D01*
X184785000Y-103070000D02*
X184345000Y-103070000D01*
X184785000Y-104890000D02*
X184405000Y-104890000D01*
X184785000Y-105610000D02*
X184405000Y-105610000D01*
X187295000Y-99810000D02*
X186885000Y-99810000D01*
X187295000Y-100530000D02*
X186885000Y-100530000D01*
X187295000Y-102350000D02*
X186885000Y-102350000D01*
X187295000Y-103070000D02*
X186885000Y-103070000D01*
X187295000Y-104890000D02*
X186885000Y-104890000D01*
X187295000Y-105610000D02*
X186885000Y-105610000D01*
X187295000Y-106580000D02*
X187295000Y-98840000D01*
X195925000Y-98840000D02*
X187295000Y-98840000D01*
X195925000Y-101440000D02*
X187295000Y-101440000D01*
X195925000Y-103980000D02*
X187295000Y-103980000D01*
X195925000Y-104098100D02*
X187295000Y-104098100D01*
X195925000Y-104216195D02*
X187295000Y-104216195D01*
X195925000Y-104334290D02*
X187295000Y-104334290D01*
X195925000Y-104452385D02*
X187295000Y-104452385D01*
X195925000Y-104570480D02*
X187295000Y-104570480D01*
X195925000Y-104688575D02*
X187295000Y-104688575D01*
X195925000Y-104806670D02*
X187295000Y-104806670D01*
X195925000Y-104924765D02*
X187295000Y-104924765D01*
X195925000Y-105042860D02*
X187295000Y-105042860D01*
X195925000Y-105160955D02*
X187295000Y-105160955D01*
X195925000Y-105279050D02*
X187295000Y-105279050D01*
X195925000Y-105397145D02*
X187295000Y-105397145D01*
X195925000Y-105515240D02*
X187295000Y-105515240D01*
X195925000Y-105633335D02*
X187295000Y-105633335D01*
X195925000Y-105751430D02*
X187295000Y-105751430D01*
X195925000Y-105869525D02*
X187295000Y-105869525D01*
X195925000Y-105987620D02*
X187295000Y-105987620D01*
X195925000Y-106105715D02*
X187295000Y-106105715D01*
X195925000Y-106223810D02*
X187295000Y-106223810D01*
X195925000Y-106341905D02*
X187295000Y-106341905D01*
X195925000Y-106460000D02*
X187295000Y-106460000D01*
X195925000Y-106580000D02*
X187295000Y-106580000D01*
X195925000Y-106580000D02*
X195925000Y-98840000D01*
%TO.C,C4*%
X177575001Y-97785580D02*
X177575001Y-97504420D01*
X178595001Y-97785580D02*
X178595001Y-97504420D01*
%TD*%
M02*
