%TF.GenerationSoftware,KiCad,Pcbnew,8.0.8+1*%
%TF.CreationDate,2025-01-27T22:00:13-08:00*%
%TF.ProjectId,pico-logic-analyzer,7069636f-2d6c-46f6-9769-632d616e616c,rev?*%
%TF.SameCoordinates,Original*%
%TF.FileFunction,Soldermask,Bot*%
%TF.FilePolarity,Negative*%
%FSLAX46Y46*%
G04 Gerber Fmt 4.6, Leading zero omitted, Abs format (unit mm)*
G04 Created by KiCad (PCBNEW 8.0.8+1) date 2025-01-27 22:00:13*
%MOMM*%
%LPD*%
G01*
G04 APERTURE LIST*
G04 Aperture macros list*
%AMRoundRect*
0 Rectangle with rounded corners*
0 $1 Rounding radius*
0 $2 $3 $4 $5 $6 $7 $8 $9 X,Y pos of 4 corners*
0 Add a 4 corners polygon primitive as box body*
4,1,4,$2,$3,$4,$5,$6,$7,$8,$9,$2,$3,0*
0 Add four circle primitives for the rounded corners*
1,1,$1+$1,$2,$3*
1,1,$1+$1,$4,$5*
1,1,$1+$1,$6,$7*
1,1,$1+$1,$8,$9*
0 Add four rect primitives between the rounded corners*
20,1,$1+$1,$2,$3,$4,$5,0*
20,1,$1+$1,$4,$5,$6,$7,0*
20,1,$1+$1,$6,$7,$8,$9,0*
20,1,$1+$1,$8,$9,$2,$3,0*%
%AMFreePoly0*
4,1,28,0.978017,0.779942,1.147107,0.720775,1.298792,0.625465,1.425465,0.498792,1.520775,0.347107,1.579942,0.178017,1.600000,0.000000,1.579942,-0.178017,1.520775,-0.347107,1.425465,-0.498792,1.298792,-0.625465,1.147107,-0.720775,0.978017,-0.779942,0.800000,-0.800000,-1.400000,-0.800000,-1.405014,-0.794986,-1.444504,-0.794986,-1.524698,-0.756366,-1.580194,-0.686777,-1.600000,-0.600000,
-1.600000,0.600000,-1.580194,0.686777,-1.524698,0.756366,-1.444504,0.794986,-1.405014,0.794986,-1.400000,0.800000,0.800000,0.800000,0.978017,0.779942,0.978017,0.779942,$1*%
%AMFreePoly1*
4,1,28,1.405014,0.794986,1.444504,0.794986,1.524698,0.756366,1.580194,0.686777,1.600000,0.600000,1.600000,-0.600000,1.580194,-0.686777,1.524698,-0.756366,1.444504,-0.794986,1.405014,-0.794986,1.400000,-0.800000,-0.800000,-0.800000,-0.978017,-0.779942,-1.147107,-0.720775,-1.298792,-0.625465,-1.425465,-0.498792,-1.520775,-0.347107,-1.579942,-0.178017,-1.600000,0.000000,-1.579942,0.178017,
-1.520775,0.347107,-1.425465,0.498792,-1.298792,0.625465,-1.147107,0.720775,-0.978017,0.779942,-0.800000,0.800000,1.400000,0.800000,1.405014,0.794986,1.405014,0.794986,$1*%
%AMFreePoly2*
4,1,29,1.778017,0.779942,1.947107,0.720775,2.098792,0.625465,2.225465,0.498792,2.320775,0.347107,2.379942,0.178017,2.400000,0.000000,2.379942,-0.178017,2.320775,-0.347107,2.225465,-0.498792,2.098792,-0.625465,1.947107,-0.720775,1.778017,-0.779942,1.600000,-0.800000,0.000000,-0.800000,-0.600000,-0.800000,-0.605014,-0.794986,-0.644504,-0.794986,-0.724698,-0.756366,-0.780194,-0.686777,
-0.800000,-0.600000,-0.800000,0.600000,-0.780194,0.686777,-0.724698,0.756366,-0.644504,0.794986,-0.605014,0.794986,-0.600000,0.800000,1.600000,0.800000,1.778017,0.779942,1.778017,0.779942,$1*%
G04 Aperture macros list end*
%ADD10R,1.600000X1.600000*%
%ADD11O,1.600000X1.600000*%
%ADD12R,1.700000X1.700000*%
%ADD13C,3.200000*%
%ADD14O,1.700000X1.700000*%
%ADD15FreePoly0,180.000000*%
%ADD16RoundRect,0.800000X0.800000X0.000010X-0.800000X0.000010X-0.800000X-0.000010X0.800000X-0.000010X0*%
%ADD17FreePoly1,180.000000*%
%ADD18RoundRect,0.800000X0.000010X-0.800000X0.000010X0.800000X-0.000010X0.800000X-0.000010X-0.800000X0*%
%ADD19FreePoly2,270.000000*%
G04 APERTURE END LIST*
D10*
%TO.C,SW3*%
X187290000Y-61750000D03*
D11*
X187290000Y-64290000D03*
X187290000Y-66830000D03*
X187290000Y-69370000D03*
X194910000Y-69370000D03*
X194910000Y-66830000D03*
X194910000Y-64290000D03*
X194910000Y-61750000D03*
%TD*%
D12*
%TO.C,J11*%
X157500000Y-107500000D03*
%TD*%
D13*
%TO.C,H4*%
X142500000Y-106000000D03*
%TD*%
D12*
%TO.C,J4*%
X181540001Y-56975000D03*
D14*
X184080001Y-56975000D03*
X181540001Y-59515000D03*
X184080001Y-59515000D03*
X181540001Y-62055000D03*
X184080001Y-62055000D03*
%TD*%
D13*
%TO.C,H1*%
X193000000Y-55500000D03*
%TD*%
D12*
%TO.C,J6*%
X153750000Y-104525000D03*
D14*
X151210000Y-104525000D03*
X153750000Y-101985000D03*
X151210000Y-101985000D03*
X153750000Y-99445000D03*
X151210000Y-99445000D03*
%TD*%
D12*
%TO.C,J1*%
X152125000Y-69225000D03*
D14*
X149585000Y-69225000D03*
X152125000Y-71765000D03*
X149585000Y-71765000D03*
X152125000Y-74305000D03*
X149585000Y-74305000D03*
%TD*%
D12*
%TO.C,J5*%
X183250000Y-79080000D03*
D14*
X185790000Y-79080000D03*
X183250000Y-76540000D03*
X185790000Y-76540000D03*
X183250000Y-74000000D03*
X185790000Y-74000000D03*
%TD*%
D12*
%TO.C,J7*%
X152040000Y-82420000D03*
D14*
X149500000Y-82420000D03*
X152040000Y-84960000D03*
X149500000Y-84960000D03*
X152040000Y-87500000D03*
X149500000Y-87500000D03*
%TD*%
D10*
%TO.C,SW4*%
X148000000Y-99750000D03*
D11*
X148000000Y-97210000D03*
X148000000Y-94670000D03*
X148000000Y-92130000D03*
X140380000Y-92130000D03*
X140380000Y-94670000D03*
X140380000Y-97210000D03*
X140380000Y-99750000D03*
%TD*%
D10*
%TO.C,SW2*%
X187335000Y-87920000D03*
D11*
X187335000Y-90460000D03*
X187335000Y-93000000D03*
X187335000Y-95540000D03*
X194955000Y-95540000D03*
X194955000Y-93000000D03*
X194955000Y-90460000D03*
X194955000Y-87920000D03*
%TD*%
D12*
%TO.C,J2*%
X181585001Y-83145000D03*
D14*
X184125001Y-83145000D03*
X181585001Y-85685000D03*
X184125001Y-85685000D03*
X181585001Y-88225000D03*
X184125001Y-88225000D03*
%TD*%
D12*
%TO.C,J3*%
X183295000Y-105250000D03*
D14*
X185835000Y-105250000D03*
X183295000Y-102710000D03*
X185835000Y-102710000D03*
X183295000Y-100170000D03*
X185835000Y-100170000D03*
%TD*%
D15*
%TO.C,A2*%
X177380000Y-53740000D03*
D16*
X177380000Y-56280000D03*
D17*
X177380000Y-58820000D03*
D16*
X177380000Y-61360000D03*
X177380000Y-63900000D03*
X177380000Y-66440000D03*
X177380000Y-68980000D03*
D17*
X177380000Y-71520000D03*
D16*
X177380000Y-74060000D03*
X177380000Y-76600000D03*
X177380000Y-79140000D03*
X177380000Y-81680000D03*
D17*
X177380000Y-84220000D03*
D16*
X177380000Y-86760000D03*
X177380000Y-89300000D03*
X177380000Y-91840000D03*
X177380000Y-94380000D03*
D17*
X177380000Y-96920000D03*
D16*
X177380000Y-99460000D03*
X177380000Y-102000000D03*
X158000000Y-102000000D03*
X158000000Y-99460000D03*
D15*
X158000000Y-96920000D03*
D16*
X158000000Y-94380000D03*
X158000000Y-91840000D03*
X158000000Y-89300000D03*
X158000000Y-86760000D03*
D15*
X158000000Y-84220000D03*
D16*
X158000000Y-81680000D03*
X158000000Y-79140000D03*
X158000000Y-76600000D03*
X158000000Y-74060000D03*
D15*
X158000000Y-71520000D03*
D16*
X158000000Y-68980000D03*
X158000000Y-66440000D03*
X158000000Y-63900000D03*
X158000000Y-61360000D03*
D15*
X158000000Y-58820000D03*
D16*
X158000000Y-56280000D03*
X158000000Y-53740000D03*
D18*
X170230000Y-102570000D03*
D19*
X167690000Y-101770000D03*
D18*
X165150000Y-102570000D03*
%TD*%
M02*
