%TF.GenerationSoftware,KiCad,Pcbnew,8.0.8+1*%
%TF.CreationDate,2025-01-27T22:00:13-08:00*%
%TF.ProjectId,pico-logic-analyzer,7069636f-2d6c-46f6-9769-632d616e616c,rev?*%
%TF.SameCoordinates,Original*%
%TF.FileFunction,Other,User*%
%FSLAX46Y46*%
G04 Gerber Fmt 4.6, Leading zero omitted, Abs format (unit mm)*
G04 Created by KiCad (PCBNEW 8.0.8+1) date 2025-01-27 22:00:13*
%MOMM*%
%LPD*%
G01*
G04 APERTURE LIST*
%ADD10C,0.050000*%
G04 APERTURE END LIST*
D10*
%TO.C,D7*%
X173335001Y-95937500D02*
X173335001Y-99777500D01*
X173335001Y-99777500D02*
X176735001Y-99777500D01*
X176735001Y-95937500D02*
X173335001Y-95937500D01*
X176735001Y-99777500D02*
X176735001Y-95937500D01*
%TO.C,C5*%
X171105000Y-96190000D02*
X172565000Y-96190000D01*
X171105000Y-99150000D02*
X171105000Y-96190000D01*
X172565000Y-96190000D02*
X172565000Y-99150000D01*
X172565000Y-99150000D02*
X171105000Y-99150000D01*
%TO.C,SW3*%
X185940000Y-59050000D02*
X185940000Y-72050000D01*
X185940000Y-72050000D02*
X196240000Y-72050000D01*
X196240000Y-59050000D02*
X185940000Y-59050000D01*
X196240000Y-72050000D02*
X196240000Y-59050000D01*
%TO.C,D4*%
X173435001Y-86312500D02*
X173435001Y-90152500D01*
X173435001Y-90152500D02*
X176835001Y-90152500D01*
X176835001Y-86312500D02*
X173435001Y-86312500D01*
X176835001Y-90152500D02*
X176835001Y-86312500D01*
%TO.C,D5*%
X173390001Y-60142500D02*
X173390001Y-63982500D01*
X173390001Y-63982500D02*
X176790001Y-63982500D01*
X176790001Y-60142500D02*
X173390001Y-60142500D01*
X176790001Y-63982500D02*
X176790001Y-60142500D01*
%TO.C,J11*%
X155700000Y-105700000D02*
X155700000Y-109300000D01*
X155700000Y-109300000D02*
X159300000Y-109300000D01*
X159300000Y-105700000D02*
X155700000Y-105700000D01*
X159300000Y-109300000D02*
X159300000Y-105700000D01*
%TO.C,C1*%
X160645000Y-79820000D02*
X162105000Y-79820000D01*
X160645000Y-82780000D02*
X160645000Y-79820000D01*
X162105000Y-79820000D02*
X162105000Y-82780000D01*
X162105000Y-82780000D02*
X160645000Y-82780000D01*
%TO.C,C2*%
X162870000Y-78220000D02*
X165830000Y-78220000D01*
X162870000Y-79680000D02*
X162870000Y-78220000D01*
X165830000Y-78220000D02*
X165830000Y-79680000D01*
X165830000Y-79680000D02*
X162870000Y-79680000D01*
%TO.C,D9*%
X158600000Y-87892500D02*
X158600000Y-91732500D01*
X158600000Y-91732500D02*
X162000000Y-91732500D01*
X162000000Y-87892500D02*
X158600000Y-87892500D01*
X162000000Y-91732500D02*
X162000000Y-87892500D01*
%TO.C,RN5*%
X180040001Y-72000000D02*
X180040001Y-70000000D01*
X180040001Y-72000000D02*
X182540001Y-72000000D01*
X182540001Y-70000000D02*
X180040001Y-70000000D01*
X182540001Y-70000000D02*
X182540001Y-72000000D01*
%TO.C,U1*%
X162212500Y-79800000D02*
X162212500Y-83200000D01*
X162212500Y-83200000D02*
X166312500Y-83200000D01*
X166312500Y-79800000D02*
X162212500Y-79800000D01*
X166312500Y-83200000D02*
X166312500Y-79800000D01*
%TO.C,C3*%
X166395000Y-80820000D02*
X167855000Y-80820000D01*
X166395000Y-83780000D02*
X166395000Y-80820000D01*
X167855000Y-80820000D02*
X167855000Y-83780000D01*
X167855000Y-83780000D02*
X166395000Y-83780000D01*
%TO.C,H4*%
X145950000Y-106000000D02*
G75*
G02*
X139050000Y-106000000I-3450000J0D01*
G01*
X139050000Y-106000000D02*
G75*
G02*
X145950000Y-106000000I3450000J0D01*
G01*
%TO.C,J4*%
X179740001Y-55175000D02*
X179740001Y-63825000D01*
X179740001Y-63825000D02*
X185890001Y-63825000D01*
X185890001Y-55175000D02*
X179740001Y-55175000D01*
X185890001Y-63825000D02*
X185890001Y-55175000D01*
%TO.C,D1*%
X169675000Y-75850000D02*
X169675000Y-78150000D01*
X169675000Y-75850000D02*
X174375000Y-75850000D01*
X174375000Y-75850000D02*
X174375000Y-78150000D01*
X174375000Y-78150000D02*
X169675000Y-78150000D01*
%TO.C,U5*%
X157012500Y-91800000D02*
X157012500Y-97300000D01*
X157012500Y-97300000D02*
X164712500Y-97300000D01*
X164712500Y-91800000D02*
X157012500Y-91800000D01*
X164712500Y-97300000D02*
X164712500Y-91800000D01*
%TO.C,RN3*%
X147000000Y-102750000D02*
X147000000Y-105250000D01*
X147000000Y-102750000D02*
X149000000Y-102750000D01*
X149000000Y-105250000D02*
X147000000Y-105250000D01*
X149000000Y-105250000D02*
X149000000Y-102750000D01*
%TO.C,D6*%
X158500000Y-97517500D02*
X158500000Y-101357500D01*
X158500000Y-101357500D02*
X161900000Y-101357500D01*
X161900000Y-97517500D02*
X158500000Y-97517500D01*
X161900000Y-101357500D02*
X161900000Y-97517500D01*
%TO.C,D2*%
X162075000Y-75900000D02*
X166475000Y-75900000D01*
X162075000Y-78200000D02*
X162075000Y-75900000D01*
X166475000Y-78200000D02*
X162075000Y-78200000D01*
X166475000Y-78200000D02*
X166475000Y-75900000D01*
%TO.C,RN2*%
X186290000Y-56250000D02*
X186290000Y-58750000D01*
X186290000Y-56250000D02*
X188290000Y-56250000D01*
X188290000Y-58750000D02*
X186290000Y-58750000D01*
X188290000Y-58750000D02*
X188290000Y-56250000D01*
%TO.C,C8*%
X156520000Y-88545000D02*
X157980000Y-88545000D01*
X156520000Y-91505000D02*
X156520000Y-88545000D01*
X157980000Y-88545000D02*
X157980000Y-91505000D01*
X157980000Y-91505000D02*
X156520000Y-91505000D01*
%TO.C,R1*%
X167705000Y-76830000D02*
X169565000Y-76830000D01*
X167705000Y-77770000D02*
X167705000Y-76830000D01*
X169565000Y-76830000D02*
X169565000Y-77770000D01*
X169565000Y-77770000D02*
X167705000Y-77770000D01*
%TO.C,H1*%
X196450000Y-55500000D02*
G75*
G02*
X189550000Y-55500000I-3450000J0D01*
G01*
X189550000Y-55500000D02*
G75*
G02*
X196450000Y-55500000I3450000J0D01*
G01*
%TO.C,R3*%
X168695000Y-78830000D02*
X170555000Y-78830000D01*
X168695000Y-79770000D02*
X168695000Y-78830000D01*
X170555000Y-78830000D02*
X170555000Y-79770000D01*
X170555000Y-79770000D02*
X168695000Y-79770000D01*
%TO.C,J6*%
X149400000Y-97675000D02*
X149400000Y-106325000D01*
X149400000Y-106325000D02*
X155550000Y-106325000D01*
X155550000Y-97675000D02*
X149400000Y-97675000D01*
X155550000Y-106325000D02*
X155550000Y-97675000D01*
%TO.C,D8*%
X173290001Y-69767500D02*
X173290001Y-73607500D01*
X173290001Y-73607500D02*
X176690001Y-73607500D01*
X176690001Y-69767500D02*
X173290001Y-69767500D01*
X176690001Y-73607500D02*
X176690001Y-69767500D01*
%TO.C,J1*%
X139075000Y-67425000D02*
X139075000Y-76075000D01*
X139075000Y-76075000D02*
X153925000Y-76075000D01*
X153925000Y-67425000D02*
X139075000Y-67425000D01*
X153925000Y-76075000D02*
X153925000Y-67425000D01*
%TO.C,RN1*%
X186335000Y-82420000D02*
X186335000Y-84920000D01*
X186335000Y-82420000D02*
X188335000Y-82420000D01*
X188335000Y-84920000D02*
X186335000Y-84920000D01*
X188335000Y-84920000D02*
X188335000Y-82420000D01*
%TO.C,J5*%
X181450000Y-72230000D02*
X181450000Y-80880000D01*
X181450000Y-80880000D02*
X196300000Y-80880000D01*
X196300000Y-72230000D02*
X181450000Y-72230000D01*
X196300000Y-80880000D02*
X196300000Y-72230000D01*
%TO.C,TP4*%
X168375000Y-79300000D02*
G75*
G02*
X166375000Y-79300000I-1000000J0D01*
G01*
X166375000Y-79300000D02*
G75*
G02*
X168375000Y-79300000I1000000J0D01*
G01*
%TO.C,J7*%
X138990000Y-80620000D02*
X138990000Y-89270000D01*
X138990000Y-89270000D02*
X153840000Y-89270000D01*
X153840000Y-80620000D02*
X138990000Y-80620000D01*
X153840000Y-89270000D02*
X153840000Y-80620000D01*
%TO.C,SW4*%
X139050000Y-89450000D02*
X139050000Y-102450000D01*
X139050000Y-102450000D02*
X149350000Y-102450000D01*
X149350000Y-89450000D02*
X139050000Y-89450000D01*
X149350000Y-102450000D02*
X149350000Y-89450000D01*
%TO.C,C7*%
X171060000Y-70020000D02*
X172520000Y-70020000D01*
X171060000Y-72980000D02*
X171060000Y-70020000D01*
X172520000Y-70020000D02*
X172520000Y-72980000D01*
X172520000Y-72980000D02*
X171060000Y-72980000D01*
%TO.C,SW2*%
X185985000Y-85220000D02*
X185985000Y-98220000D01*
X185985000Y-98220000D02*
X196285000Y-98220000D01*
X196285000Y-85220000D02*
X185985000Y-85220000D01*
X196285000Y-98220000D02*
X196285000Y-85220000D01*
%TO.C,C6*%
X177310001Y-69995000D02*
X178770001Y-69995000D01*
X177310001Y-72955000D02*
X177310001Y-69995000D01*
X178770001Y-69995000D02*
X178770001Y-72955000D01*
X178770001Y-72955000D02*
X177310001Y-72955000D01*
%TO.C,RN4*%
X180085001Y-98170000D02*
X180085001Y-96170000D01*
X180085001Y-98170000D02*
X182585001Y-98170000D01*
X182585001Y-96170000D02*
X180085001Y-96170000D01*
X182585001Y-96170000D02*
X182585001Y-98170000D01*
%TO.C,RN6*%
X152750000Y-91500000D02*
X152750000Y-89500000D01*
X152750000Y-91500000D02*
X155250000Y-91500000D01*
X155250000Y-89500000D02*
X152750000Y-89500000D01*
X155250000Y-89500000D02*
X155250000Y-91500000D01*
%TO.C,J2*%
X179785001Y-81345000D02*
X179785001Y-89995000D01*
X179785001Y-89995000D02*
X185935001Y-89995000D01*
X185935001Y-81345000D02*
X179785001Y-81345000D01*
X185935001Y-89995000D02*
X185935001Y-81345000D01*
%TO.C,U2*%
X170642500Y-78550000D02*
X170642500Y-81950000D01*
X170642500Y-81950000D02*
X174482500Y-81950000D01*
X174482500Y-78550000D02*
X170642500Y-78550000D01*
X174482500Y-81950000D02*
X174482500Y-78550000D01*
%TO.C,SW1*%
X146500000Y-77500000D02*
X147950000Y-77500000D01*
X146500000Y-79000000D02*
X146500000Y-77500000D01*
X147950000Y-76150000D02*
X154550000Y-76150000D01*
X147950000Y-77500000D02*
X147950000Y-76150000D01*
X147950000Y-79000000D02*
X146500000Y-79000000D01*
X147950000Y-80350000D02*
X147950000Y-79000000D01*
X154550000Y-76150000D02*
X154550000Y-77500000D01*
X154550000Y-77500000D02*
X156000000Y-77500000D01*
X154550000Y-79000000D02*
X154550000Y-80350000D01*
X154550000Y-80350000D02*
X147950000Y-80350000D01*
X156000000Y-77500000D02*
X156000000Y-79000000D01*
X156000000Y-79000000D02*
X154550000Y-79000000D01*
%TO.C,C9*%
X162770000Y-88520000D02*
X164230000Y-88520000D01*
X162770000Y-91480000D02*
X162770000Y-88520000D01*
X164230000Y-88520000D02*
X164230000Y-91480000D01*
X164230000Y-91480000D02*
X162770000Y-91480000D01*
%TO.C,U4*%
X170577501Y-64200000D02*
X170577501Y-69700000D01*
X170577501Y-69700000D02*
X178277501Y-69700000D01*
X178277501Y-64200000D02*
X170577501Y-64200000D01*
X178277501Y-69700000D02*
X178277501Y-64200000D01*
%TO.C,U3*%
X170622501Y-90370000D02*
X170622501Y-95870000D01*
X170622501Y-95870000D02*
X178322501Y-95870000D01*
X178322501Y-90370000D02*
X170622501Y-90370000D01*
X178322501Y-95870000D02*
X178322501Y-90370000D01*
%TO.C,J3*%
X181495000Y-98400000D02*
X181495000Y-107050000D01*
X181495000Y-107050000D02*
X196345000Y-107050000D01*
X196345000Y-98400000D02*
X181495000Y-98400000D01*
X196345000Y-107050000D02*
X196345000Y-98400000D01*
%TO.C,C4*%
X177355001Y-96165000D02*
X178815001Y-96165000D01*
X177355001Y-99125000D02*
X177355001Y-96165000D01*
X178815001Y-96165000D02*
X178815001Y-99125000D01*
X178815001Y-99125000D02*
X177355001Y-99125000D01*
%TD*%
M02*
