%TF.GenerationSoftware,KiCad,Pcbnew,8.0.8+1*%
%TF.CreationDate,2025-01-27T22:00:13-08:00*%
%TF.ProjectId,pico-logic-analyzer,7069636f-2d6c-46f6-9769-632d616e616c,rev?*%
%TF.SameCoordinates,Original*%
%TF.FileFunction,AssemblyDrawing,Bot*%
%FSLAX46Y46*%
G04 Gerber Fmt 4.6, Leading zero omitted, Abs format (unit mm)*
G04 Created by KiCad (PCBNEW 8.0.8+1) date 2025-01-27 22:00:13*
%MOMM*%
%LPD*%
G01*
G04 APERTURE LIST*
%ADD10C,0.150000*%
%ADD11C,0.100000*%
G04 APERTURE END LIST*
D10*
X167859104Y-77155714D02*
X167859104Y-77631904D01*
X168144819Y-77060476D02*
X167144819Y-77393809D01*
X167144819Y-77393809D02*
X168144819Y-77727142D01*
X167240057Y-78012857D02*
X167192438Y-78060476D01*
X167192438Y-78060476D02*
X167144819Y-78155714D01*
X167144819Y-78155714D02*
X167144819Y-78393809D01*
X167144819Y-78393809D02*
X167192438Y-78489047D01*
X167192438Y-78489047D02*
X167240057Y-78536666D01*
X167240057Y-78536666D02*
X167335295Y-78584285D01*
X167335295Y-78584285D02*
X167430533Y-78584285D01*
X167430533Y-78584285D02*
X167573390Y-78536666D01*
X167573390Y-78536666D02*
X168144819Y-77965238D01*
X168144819Y-77965238D02*
X168144819Y-78584285D01*
D11*
%TO.C,A2*%
X157190000Y-102870000D02*
X157190000Y-52870000D01*
X157690000Y-52370000D02*
X177190000Y-52370000D01*
X170065000Y-64945000D02*
X170065000Y-63795000D01*
X172315000Y-64945000D02*
X172315000Y-63795000D01*
X177190000Y-52370000D02*
X178190000Y-53370000D01*
X177690000Y-103370000D02*
X157690000Y-103370000D01*
X178190000Y-53370000D02*
X178190000Y-102870000D01*
X172790000Y-62245000D02*
X169590000Y-62245000D01*
X169590000Y-66495000D01*
X172790000Y-66495000D01*
X172790000Y-62245000D01*
X173890000Y-56770000D02*
X172890000Y-56770000D01*
X172890000Y-57570000D01*
X173890000Y-57570000D01*
X173890000Y-56770000D01*
X174190000Y-56770000D02*
X172590000Y-56770000D01*
X172590000Y-57570000D01*
X174190000Y-57570000D01*
X174190000Y-56770000D01*
X157190000Y-52870000D02*
G75*
G02*
X157690000Y-52370000I500000J0D01*
G01*
X157690000Y-103370000D02*
G75*
G02*
X157190000Y-102870000I0J500000D01*
G01*
X170065000Y-63795000D02*
G75*
G02*
X172315000Y-63795000I1125000J0D01*
G01*
X172315000Y-64945000D02*
G75*
G02*
X170065000Y-64945000I-1125000J0D01*
G01*
X178190000Y-102870000D02*
G75*
G02*
X177690000Y-103370000I-500001J1D01*
G01*
X171690000Y-51670000D02*
X171480000Y-51670000D01*
X171480000Y-56670000D01*
X163900000Y-56670000D01*
X163900000Y-51670000D01*
X163690000Y-51670000D01*
X163690000Y-51070000D01*
X171690000Y-51070000D01*
X171690000Y-51670000D01*
%TD*%
M02*
